# Blender 3.4.1
# www.blender.org
mtllib lunar_leprechaun_hat.mtl
o lunar_leprechaun_hat
v 0.265624 -2.375000 -0.265625
v 0.265624 -2.375000 0.265625
v 0.265624 -1.875000 -0.265625
v 0.265624 -1.875000 0.265625
v -0.265626 -2.375000 0.265625
v -0.265626 -2.375000 -0.265625
v -0.265626 -1.875000 0.265625
v -0.265626 -1.875000 -0.265625
v 0.374999 -1.875000 -0.375000
v 0.374999 -1.875000 0.375000
v 0.374999 -1.812500 -0.375000
v 0.374999 -1.812500 0.375000
v -0.375001 -1.875000 0.375000
v -0.375001 -1.875000 -0.375000
v -0.375001 -1.812500 0.375000
v -0.375001 -1.812500 -0.375000
v 0.199700 -2.054470 0.270711
v 0.199700 -2.054470 0.270711
v 0.183483 -1.962495 0.262540
v 0.183483 -1.962495 0.262540
v 0.168925 -2.059896 0.270711
v 0.168925 -2.059896 0.270711
v 0.152708 -1.967922 0.262540
v 0.152708 -1.967922 0.262540
v 0.221143 -2.102442 0.289263
v 0.221143 -2.102442 0.289263
v 0.197864 -2.048323 0.268394
v 0.197864 -2.048323 0.268394
v 0.192201 -2.113999 0.291577
v 0.192201 -2.113999 0.291577
v 0.168922 -2.059880 0.270707
v 0.168922 -2.059880 0.270707
v 0.093749 -1.906250 0.265625
v 0.093749 -1.906250 0.296875
v 0.093749 -1.875000 0.265625
v 0.093749 -1.875000 0.296875
v -0.093751 -1.906250 0.296875
v -0.093751 -1.906250 0.265625
v -0.093751 -1.875000 0.296875
v -0.093751 -1.875000 0.265625
v 0.093749 -2.031250 0.265625
v 0.093749 -2.031250 0.296875
v 0.093749 -2.000000 0.265625
v 0.093749 -2.000000 0.296875
v -0.093751 -2.031250 0.296875
v -0.093751 -2.031250 0.265625
v -0.093751 -2.000000 0.296875
v -0.093751 -2.000000 0.265625
v 0.093749 -2.000000 0.265625
v 0.093749 -2.000000 0.296875
v 0.093749 -1.906250 0.265625
v 0.093749 -1.906250 0.296875
v 0.062499 -2.000000 0.296875
v 0.062499 -2.000000 0.265625
v 0.062499 -1.906250 0.296875
v 0.062499 -1.906250 0.265625
v -0.062501 -2.000000 0.265625
v -0.062501 -2.000000 0.296875
v -0.062501 -1.906250 0.265625
v -0.062501 -1.906250 0.296875
v -0.093751 -2.000000 0.296875
v -0.093751 -2.000000 0.265625
v -0.093751 -1.906250 0.296875
v -0.093751 -1.906250 0.265625
v 0.281249 -2.000000 -0.281250
v 0.281249 -2.000000 0.281250
v 0.281249 -1.875000 -0.281250
v 0.281249 -1.875000 0.281250
v -0.281251 -2.000000 0.281250
v -0.281251 -2.000000 -0.281250
v -0.281251 -1.875000 0.281250
v -0.281251 -1.875000 -0.281250
v 0.241412 -2.027051 0.286269
v 0.287701 -2.143161 0.285317
v 0.125644 -2.073280 0.295523
v 0.171932 -2.189389 0.294570
vn -0.0000 -0.0000 1.0000
vn 1.0000 -0.0000 -0.0000
vn -0.0000 -0.0000 -1.0000
vn -1.0000 -0.0000 -0.0000
vn -0.0000 -1.0000 -0.0000
vn -0.0000 1.0000 -0.0000
vn -0.0151 0.0858 0.9962
vn 0.1735 -0.9839 -0.0436
vn 0.0151 -0.0858 -0.9962
vn -0.1735 0.9839 -0.0436
vn -0.9848 -0.1737 -0.0000
vn -0.9848 -0.1736 -0.0000
vn 0.9848 0.1736 -0.0000
vn -0.0594 0.3368 0.9397
vn 0.3895 -0.9053 -0.1694
vn 0.0594 -0.3368 -0.9397
vn -0.3894 0.9053 -0.1694
vn 0.9281 0.3706 -0.0370
vn -0.9261 -0.3698 0.0740
vn -0.9280 -0.3706 -0.0370
vn 0.0716 0.0204 0.9972
vn 0.1735 -0.9839 0.0436
vn -0.1735 0.9839 0.0436
vn 0.3894 -0.9053 0.1694
vn -0.3895 0.9053 0.1694
vn 0.9261 0.3698 -0.0740
vn 0.9280 0.3706 0.0370
vn -0.9281 -0.3706 0.0370
vt 0.328125 0.734375
vt 0.132812 0.625000
vt 0.187500 0.718750
vt 0.328125 0.859375
vt 0.460938 0.734375
vt 0.187500 0.585938
vt 0.328125 0.609375
vt 0.132812 0.500000
vt 0.328125 1.000000
vt 0.328125 0.734375
vt 0.460938 0.609375
vt 0.328125 0.867188
vt 0.460938 0.859375
vt 0.328125 0.609375
vt 0.320312 0.585938
vt 0.320312 0.718750
vt 0.000000 0.625000
vt 0.460938 0.609375
vt 0.328125 0.484375
vt 0.460938 0.867188
vt 0.460938 0.734375
vt 0.000000 0.500000
vt 0.460938 0.484375
vt 0.460938 1.000000
vt 0.468750 0.921875
vt 0.656250 0.906250
vt 0.000000 1.000000
vt 0.468750 0.937500
vt 0.656250 0.921875
vt 0.000000 0.812500
vt 0.468750 0.906250
vt 0.656250 0.890625
vt 0.000000 0.812500
vt 0.468750 0.921875
vt 0.656250 0.906250
vt 0.000000 0.625000
vt 0.656250 0.937500
vt 0.468750 0.890625
vt 0.187500 0.812500
vt 0.187500 1.000000
vt 0.468750 0.906250
vt 0.656250 0.890625
vt 0.468750 0.875000
vt 0.187500 0.625000
vt 0.656250 0.921875
vt 0.468750 0.890625
vt 0.656250 0.875000
vt 0.187500 0.812500
vt 0.476562 0.656250
vt 0.000000 1.000000
vt 0.468750 0.687500
vt 0.000000 1.000000
vt 0.000000 0.976562
vt 0.476562 0.632812
vt 0.000000 1.000000
vt 0.468750 0.664062
vt 0.000000 0.976562
vt 0.000000 1.000000
vt 0.000000 1.000000
vt 0.007812 1.000000
vt 0.476562 0.687500
vt 0.468750 0.656250
vt 0.000000 1.000000
vt 0.007812 1.000000
vt 0.476562 0.664062
vt 0.000000 0.976562
vt 0.007812 1.000000
vt 0.468750 0.632812
vt 0.007812 1.000000
vt 0.000000 0.976562
vt 0.476562 0.609375
vt 0.000000 1.000000
vt 0.468750 0.625000
vt 0.000000 1.000000
vt 0.000000 0.984375
vt 0.476562 0.593750
vt 0.000000 1.000000
vt 0.468750 0.609375
vt 0.000000 0.984375
vt 0.000000 1.000000
vt 0.000000 1.000000
vt 0.007812 1.000000
vt 0.476562 0.625000
vt 0.468750 0.609375
vt 0.000000 1.000000
vt 0.007812 1.000000
vt 0.476562 0.609375
vt 0.000000 0.984375
vt 0.007812 1.000000
vt 0.007812 1.000000
vt 0.468750 0.593750
vt 0.000000 0.984375
vt 0.468750 0.593750
vt 0.328125 0.546875
vt 0.468750 0.875000
vt 0.140625 0.593750
vt 0.476562 0.593750
vt 0.468750 0.867188
vt 0.468750 0.585938
vt 0.328125 0.539062
vt 0.468750 0.859375
vt 0.140625 0.585938
vt 0.476562 0.585938
vt 0.468750 0.851562
vt 0.187500 0.593750
vt 0.468750 0.578125
vt 0.515625 0.867188
vt 0.515625 0.875000
vt 0.281250 0.546875
vt 0.476562 0.578125
vt 0.468750 0.570312
vt 0.515625 0.851562
vt 0.187500 0.585938
vt 0.281250 0.539062
vt 0.476562 0.570312
vt 0.515625 0.859375
vt 0.468750 0.562500
vt 0.515625 0.828125
vt 0.468750 0.812500
vt 0.468750 0.843750
vt 0.476562 0.562500
vt 0.468750 0.804688
vt 0.468750 0.554688
vt 0.515625 0.820312
vt 0.468750 0.796875
vt 0.468750 0.835938
vt 0.476562 0.554688
vt 0.468750 0.789062
vt 0.515625 0.843750
vt 0.468750 0.546875
vt 0.515625 0.804688
vt 0.515625 0.812500
vt 0.468750 0.828125
vt 0.476562 0.546875
vt 0.468750 0.539062
vt 0.515625 0.789062
vt 0.515625 0.835938
vt 0.468750 0.820312
vt 0.476562 0.539062
vt 0.515625 0.796875
vt 0.312500 0.578125
vt 0.476562 0.781250
vt 0.468750 0.531250
vt 0.171875 0.625000
vt 0.320312 0.578125
vt 0.468750 0.523438
vt 0.312500 0.554688
vt 0.476562 0.757812
vt 0.140625 0.515625
vt 0.171875 0.601562
vt 0.320312 0.554688
vt 0.140625 0.507812
vt 0.179688 0.625000
vt 0.468750 0.750000
vt 0.476562 0.523438
vt 0.476562 0.531250
vt 0.468750 0.781250
vt 0.476562 0.750000
vt 0.468750 0.726562
vt 0.148438 0.507812
vt 0.179688 0.601562
vt 0.468750 0.757812
vt 0.476562 0.726562
vt 0.148438 0.515625
vt 0.468750 0.718750
vt 0.304688 0.531250
vt 0.156250 0.515625
vt 0.281250 0.531250
vt 0.476562 0.718750
vt 0.156250 0.507812
vt 0.468750 0.695312
vt 0.304688 0.507812
vt 0.171875 0.515625
vt 0.281250 0.507812
vt 0.476562 0.695312
vt 0.171875 0.507812
vt 0.289062 0.531250
vt 0.312500 0.531250
vt 0.164062 0.507812
vt 0.164062 0.515625
vt 0.296875 0.531250
vt 0.320312 0.531250
vt 0.312500 0.507812
vt 0.179688 0.507812
vt 0.289062 0.507812
vt 0.296875 0.507812
vt 0.320312 0.507812
vt 0.179688 0.515625
vt 0.140625 0.546875
vt 0.609375 1.000000
vt 0.187500 1.000000
vt 0.140625 0.578125
vt 0.281250 0.546875
vt 0.187500 0.859375
vt 0.140625 0.515625
vt 0.609375 0.968750
vt 0.187500 0.859375
vt 0.140625 0.546875
vt 0.281250 0.515625
vt 0.187500 0.718750
vt 0.281250 0.578125
vt 0.468750 0.968750
vt 0.328125 0.859375
vt 0.328125 1.000000
vt 0.468750 1.000000
vt 0.609375 0.968750
vt 0.468750 0.937500
vt 0.328125 0.718750
vt 0.281250 0.546875
vt 0.468750 0.968750
vt 0.609375 0.937500
vt 0.328125 0.859375
vt 0.140625 0.593750
vt 0.140625 0.625000
vt 0.171875 0.593750
vt 0.171875 0.625000
s 0
usemtl lunar_leprechaun_hat
f 7/21/1 2/4/1 4/10/1
f 4/11/2 1/1/2 3/7/2
f 3/8/3 6/17/3 8/22/3
f 8/23/4 5/14/4 7/19/4
f 1/3/5 5/15/5 6/16/5
f 4/12/6 8/24/6 7/20/6
f 15/45/1 10/28/1 12/34/1
f 12/35/2 9/25/2 11/31/2
f 11/32/3 14/41/3 16/46/3
f 16/47/4 13/38/4 15/43/4
f 9/27/5 13/39/5 14/40/5
f 12/36/6 16/48/6 15/44/6
f 20/56/7 21/61/7 18/51/7
f 19/53/3 18/52/3 17/50/8
f 19/54/9 22/62/9 24/68/9
f 23/66/3 22/63/3 21/59/10
f 22/64/11 18/52/12 21/60/3
f 23/67/13 19/55/12 24/69/3
f 31/87/14 26/73/14 28/78/14
f 27/75/3 26/74/3 25/72/15
f 32/91/16 25/71/16 30/84/16
f 31/88/3 30/85/3 29/81/17
f 30/86/18 26/74/19 29/82/3
f 31/89/20 27/77/19 32/90/3
f 39/113/1 34/96/1 36/102/1
f 36/103/2 33/93/2 35/99/2
f 35/100/3 38/109/3 40/114/3
f 40/115/4 37/106/4 39/111/4
f 33/95/5 37/107/5 38/108/5
f 36/104/6 40/116/6 39/112/6
f 47/137/1 42/120/1 44/126/1
f 44/127/2 41/117/2 43/123/2
f 43/124/3 46/133/3 48/138/3
f 48/139/4 45/130/4 47/135/4
f 41/119/5 45/131/5 46/132/5
f 44/128/6 48/140/6 47/136/6
f 55/161/1 50/144/1 52/150/1
f 52/151/2 49/141/2 51/147/2
f 51/148/3 54/157/3 56/162/3
f 56/163/4 53/154/4 55/159/4
f 49/143/5 53/155/5 54/156/5
f 52/152/6 56/164/6 55/160/6
f 63/185/1 58/168/1 60/174/1
f 60/175/2 57/165/2 59/171/2
f 59/172/3 62/181/3 64/186/3
f 64/187/4 61/178/4 63/183/4
f 57/167/5 61/179/5 62/180/5
f 60/176/6 64/188/6 63/184/6
f 71/209/1 66/192/1 68/198/1
f 68/199/2 65/189/2 67/195/2
f 67/196/3 70/205/3 72/210/3
f 72/211/4 69/202/4 71/207/4
f 65/191/5 69/203/5 70/204/5
f 68/200/6 72/212/6 71/208/6
f 74/214/21 75/215/21 76/216/21
f 7/21/1 5/13/1 2/4/1
f 4/11/2 2/5/2 1/1/2
f 3/8/3 1/2/3 6/17/3
f 8/23/4 6/18/4 5/14/4
f 1/3/5 2/6/5 5/15/5
f 4/12/6 3/9/6 8/24/6
f 15/45/1 13/37/1 10/28/1
f 12/35/2 10/29/2 9/25/2
f 11/32/3 9/26/3 14/41/3
f 16/47/4 14/42/4 13/38/4
f 9/27/5 10/30/5 13/39/5
f 12/36/6 11/33/6 16/48/6
f 20/56/7 23/65/7 21/61/7
f 19/53/3 20/57/22 18/52/3
f 19/54/9 17/49/9 22/62/9
f 23/66/3 24/70/23 22/63/3
f 22/64/13 17/50/3 18/52/12
f 23/67/13 20/58/3 19/55/12
f 31/87/14 29/83/14 26/73/14
f 27/75/3 28/79/24 26/74/3
f 32/91/16 27/76/16 25/71/16
f 31/88/3 32/92/25 30/85/3
f 30/86/26 25/72/3 26/74/27
f 31/89/26 28/80/3 27/77/28
f 39/113/1 37/105/1 34/96/1
f 36/103/2 34/97/2 33/93/2
f 35/100/3 33/94/3 38/109/3
f 40/115/4 38/110/4 37/106/4
f 33/95/5 34/98/5 37/107/5
f 36/104/6 35/101/6 40/116/6
f 47/137/1 45/129/1 42/120/1
f 44/127/2 42/121/2 41/117/2
f 43/124/3 41/118/3 46/133/3
f 48/139/4 46/134/4 45/130/4
f 41/119/5 42/122/5 45/131/5
f 44/128/6 43/125/6 48/140/6
f 55/161/1 53/153/1 50/144/1
f 52/151/2 50/145/2 49/141/2
f 51/148/3 49/142/3 54/157/3
f 56/163/4 54/158/4 53/154/4
f 49/143/5 50/146/5 53/155/5
f 52/152/6 51/149/6 56/164/6
f 63/185/1 61/177/1 58/168/1
f 60/175/2 58/169/2 57/165/2
f 59/172/3 57/166/3 62/181/3
f 64/187/4 62/182/4 61/178/4
f 57/167/5 58/170/5 61/179/5
f 60/176/6 59/173/6 64/188/6
f 71/209/1 69/201/1 66/192/1
f 68/199/2 66/193/2 65/189/2
f 67/196/3 65/190/3 70/205/3
f 72/211/4 70/206/4 69/202/4
f 65/191/5 66/194/5 69/203/5
f 68/200/6 67/197/6 72/212/6
f 74/214/21 73/213/21 75/215/21
