# Blender v3.0.0 OBJ File: 'Lunar_ElfHat.blend'
# www.blender.org
mtllib Lunar_ElfHat.mtl
o ElfHat_New_Cube.001
v 0.278124 0.000041 0.278128
v 0.305758 -0.243370 0.305762
v 0.278124 0.000040 -0.278127
v 0.305758 -0.243370 -0.305762
v -0.278125 0.000041 0.278128
v -0.305758 -0.243369 0.305762
v -0.278127 0.000041 -0.278126
v -0.305762 -0.243369 -0.305759
v 0.000000 -0.000014 0.278128
v 0.000000 -0.243451 0.305762
v -0.138823 -0.000014 0.278128
v -0.146721 -0.114782 0.291156
v 0.146721 -0.114782 0.291156
v 0.138823 -0.000014 0.278128
v 0.278130 -0.000014 -0.000000
v 0.305768 -0.243450 -0.000000
v 0.278130 -0.000014 0.138822
v 0.291160 -0.114782 0.146721
v 0.291160 -0.114782 -0.146721
v 0.278130 -0.000014 -0.138823
v 0.000000 -0.000014 -0.278129
v 0.000000 -0.243450 -0.305765
v 0.138823 -0.000014 -0.278128
v 0.146721 -0.114782 -0.291157
v -0.146721 -0.114782 -0.291159
v -0.138823 -0.000013 -0.278131
v -0.278129 -0.000013 -0.000000
v -0.305765 -0.243450 -0.000000
v -0.278128 -0.000014 -0.138823
v -0.291157 -0.114782 -0.146721
v -0.291159 -0.114782 0.146721
v -0.278130 -0.000013 0.138822
v 0.269746 -0.001862 0.269750
v 0.297381 -0.245272 0.297384
v 0.269746 -0.001862 -0.269749
v 0.297381 -0.245272 -0.297384
v -0.269748 -0.001861 0.269750
v -0.297381 -0.245272 0.297384
v -0.269749 -0.001861 -0.269748
v -0.297384 -0.245272 -0.297381
v 0.000000 -0.001367 0.266205
v 0.000000 -0.244804 0.293839
v -0.138823 -0.001367 0.266205
v -0.146721 -0.116135 0.279233
v 0.146721 -0.116135 0.279233
v 0.138823 -0.001367 0.266205
v 0.266207 -0.001367 -0.000000
v 0.293844 -0.244804 -0.000000
v 0.266207 -0.001367 0.138822
v 0.279237 -0.116135 0.146721
v 0.279237 -0.116135 -0.146721
v 0.266207 -0.001367 -0.138823
v 0.000000 -0.001367 -0.266206
v 0.000000 -0.244804 -0.293842
v 0.138823 -0.001367 -0.266205
v 0.146721 -0.116136 -0.279234
v -0.146721 -0.116135 -0.279236
v -0.138823 -0.001367 -0.266207
v -0.266206 -0.001367 -0.000000
v -0.293842 -0.244804 -0.000000
v -0.266205 -0.001367 -0.138823
v -0.279234 -0.116135 -0.146721
v -0.279236 -0.116135 0.146721
v -0.266207 -0.001367 0.138822
v 0.272036 -0.008886 0.272036
v 0.272036 -0.372012 0.272036
v 0.272036 -0.008886 -0.272036
v 0.272036 -0.372012 -0.272036
v -0.272036 -0.008886 0.272036
v -0.272036 -0.372012 0.272036
v -0.272036 -0.008886 -0.272036
v -0.272036 -0.372012 -0.272036
v 0.227465 -0.233178 0.208480
v 0.166261 -0.645622 0.208480
v 0.227465 -0.233178 -0.208480
v 0.166261 -0.645622 -0.208480
v -0.184979 -0.171974 0.208480
v -0.246183 -0.584418 0.208480
v -0.184979 -0.171974 -0.208480
v -0.246183 -0.584418 -0.208480
v 0.142997 -0.605314 0.158098
v -0.042336 -0.978821 0.158098
v 0.142997 -0.605314 -0.158098
v -0.042336 -0.978821 -0.158098
v -0.140246 -0.464769 0.158098
v -0.325580 -0.838275 0.158098
v -0.140246 -0.464769 -0.158098
v -0.325580 -0.838275 -0.158098
v -0.063439 -0.987901 0.102000
v -0.470009 -0.895398 0.102000
v -0.063439 -0.987901 -0.102000
v -0.470009 -0.895398 -0.102000
v -0.018182 -0.788985 0.102000
v -0.424752 -0.696482 0.102000
v -0.018182 -0.788985 -0.102000
v -0.424752 -0.696482 -0.102000
v -0.456609 -0.865346 0.071939
v -0.583967 -0.701630 0.071938
v -0.456609 -0.865346 -0.071939
v -0.583967 -0.701630 -0.071939
v -0.343047 -0.777004 0.071939
v -0.470404 -0.613288 0.071938
v -0.343047 -0.777004 -0.071939
v -0.470404 -0.613288 -0.071939
vt 0.640625 0.171499
vt 0.515625 0.000376
vt 0.640625 0.000376
vt 0.125000 0.171499
vt 0.000000 0.000376
vt 0.125000 0.000376
vt 0.640625 0.171499
vt 0.515625 0.000376
vt 0.640625 0.000376
vt 0.125000 0.171499
vt 0.000000 0.000376
vt 0.125000 0.000376
vt 0.375000 0.171499
vt 0.250000 0.000376
vt 0.375000 0.000376
vt 0.484375 0.000376
vt 0.890625 0.171499
vt 0.765625 0.000376
vt 0.890625 0.000376
vt 1.000000 0.000376
vt 0.375000 0.171499
vt 0.250000 0.000376
vt 0.375000 0.000376
vt 0.484375 0.000376
vt 0.890625 0.171499
vt 0.765625 0.000376
vt 0.890625 0.000376
vt 1.000000 0.000376
vt 0.515625 0.000376
vt 0.640625 0.171499
vt 0.640625 0.000376
vt 0.000000 0.000376
vt 0.125000 0.171499
vt 0.125000 0.000376
vt 0.515625 0.000376
vt 0.640625 0.171499
vt 0.640625 0.000376
vt 0.000000 0.000376
vt 0.125000 0.171499
vt 0.125000 0.000376
vt 0.250000 0.000376
vt 0.375000 0.171499
vt 0.375000 0.000376
vt 0.484375 0.000376
vt 0.484375 0.171499
vt 0.250000 0.171499
vt 0.765625 0.000376
vt 0.890625 0.171499
vt 0.890625 0.000376
vt 1.000000 0.000376
vt 1.000000 0.171499
vt 0.765625 0.171499
vt 0.250000 0.000376
vt 0.375000 0.171499
vt 0.375000 0.000376
vt 0.484375 0.000376
vt 0.484375 0.171499
vt 0.250000 0.171499
vt 0.765625 0.000376
vt 0.890625 0.171499
vt 0.890625 0.000376
vt 1.000000 0.000376
vt 1.000000 0.171499
vt 0.765625 0.171499
vt 0.515625 0.171499
vt 0.515625 0.171499
vt 0.000000 0.171499
vt 0.000000 0.171499
vt 0.515625 0.171499
vt 0.515625 0.171499
vt 0.000000 0.171499
vt 0.000000 0.171499
vt 0.250000 0.171499
vt 0.765625 0.171499
vt 0.250000 0.171499
vt 0.765625 0.171499
vt 0.281250 0.367188
vt 0.546875 0.187500
vt 0.281250 0.187500
vt 0.007812 0.367188
vt 0.265625 0.187500
vt 0.007812 0.187500
vt 0.546875 0.367188
vt 0.281250 0.187500
vt 0.546875 0.187500
vt 0.265625 0.367188
vt 0.007812 0.187500
vt 0.265625 0.187500
vt 0.007812 0.640625
vt 0.265625 0.382812
vt 0.265625 0.640625
vt 0.468750 0.750000
vt 0.648438 0.570312
vt 0.468750 0.570312
vt 0.289062 0.562500
vt 0.460938 0.382812
vt 0.289062 0.382812
vt 0.648438 0.750000
vt 0.468750 0.570312
vt 0.648438 0.570312
vt 0.460938 0.382812
vt 0.289062 0.562500
vt 0.289062 0.382812
vt 0.289062 0.750000
vt 0.460938 0.570312
vt 0.460938 0.750000
vt 0.523438 0.898438
vt 0.625000 0.757812
vt 0.523438 0.757812
vt 0.406250 0.898438
vt 0.507812 0.757812
vt 0.406250 0.757812
vt 0.625000 0.898438
vt 0.523438 0.757812
vt 0.625000 0.757812
vt 0.507812 0.898438
vt 0.406250 0.757812
vt 0.507812 0.757812
vt 0.734375 0.968750
vt 0.632812 0.867188
vt 0.632812 0.968750
vt 0.632812 0.968750
vt 0.734375 0.867188
vt 0.734375 0.968750
vt 0.132812 0.875000
vt 0.234375 0.656250
vt 0.132812 0.656250
vt 0.015625 0.875000
vt 0.117188 0.656250
vt 0.015625 0.656250
vt 0.234375 0.656250
vt 0.132812 0.875000
vt 0.132812 0.656250
vt 0.117188 0.875000
vt 0.015625 0.656250
vt 0.117188 0.656250
vt 0.117188 0.992188
vt 0.015625 0.882812
vt 0.015625 0.992188
vt 0.015625 0.992188
vt 0.117188 0.882812
vt 0.117188 0.992188
vt 0.328125 0.859375
vt 0.398438 0.757812
vt 0.328125 0.757812
vt 0.250000 0.859375
vt 0.320312 0.757812
vt 0.250000 0.757812
vt 0.398438 0.859375
vt 0.328125 0.757812
vt 0.398438 0.757812
vt 0.320312 0.757812
vt 0.250000 0.859375
vt 0.250000 0.757812
vt 0.320312 0.945312
vt 0.250000 0.875000
vt 0.250000 0.945312
vt 0.250000 0.945312
vt 0.320312 0.875000
vt 0.320312 0.945312
vt 0.484375 0.171499
vt 1.000000 0.171499
vt 0.484375 0.171499
vt 1.000000 0.171499
vt 0.546875 0.367188
vt 0.265625 0.367188
vt 0.281250 0.367188
vt 0.007812 0.367188
vt 0.007812 0.382812
vt 0.648438 0.750000
vt 0.460938 0.562500
vt 0.468750 0.750000
vt 0.460938 0.562500
vt 0.289062 0.570312
vt 0.625000 0.898438
vt 0.507812 0.898438
vt 0.523438 0.898438
vt 0.406250 0.898438
vt 0.734375 0.867188
vt 0.632812 0.867188
vt 0.234375 0.875000
vt 0.117188 0.875000
vt 0.234375 0.875000
vt 0.015625 0.875000
vt 0.117188 0.882812
vt 0.015625 0.882812
vt 0.398438 0.859375
vt 0.320312 0.859375
vt 0.328125 0.859375
vt 0.320312 0.859375
vt 0.320312 0.875000
vt 0.250000 0.875000
vn 0.9936 0.1128 -0.0000
vn 0.0000 0.1128 -0.9936
vn -0.9936 0.1128 -0.0000
vn -0.0000 0.1128 0.9936
vn -0.9935 -0.1110 -0.0264
vn -0.0264 -0.1110 0.9935
vn 0.9935 -0.1110 0.0264
vn 0.0265 -0.1110 -0.9935
vn 0.0000 -0.1128 -0.9936
vn -0.0255 -0.1099 -0.9936
vn -0.9936 -0.1128 0.0000
vn -0.9936 -0.1099 0.0254
vn -0.0000 -0.1128 0.9936
vn 0.0255 -0.1099 0.9936
vn 0.9936 -0.1128 0.0000
vn 0.9936 -0.1099 -0.0255
vn -0.2210 0.9753 -0.0004
vn 0.6441 -0.5649 0.5158
vn -0.0004 0.9753 0.2210
vn 0.5158 -0.5649 -0.6441
vn 0.2210 0.9753 0.0004
vn -0.6441 -0.5649 -0.5158
vn 0.0004 0.9753 -0.2210
vn -0.5158 -0.5649 0.6441
vn 0.0000 0.9936 -0.1128
vn -0.6617 -0.7450 0.0845
vn 0.6543 -0.7514 0.0853
vn 0.6617 -0.7450 0.0845
vn 0.0068 0.9936 -0.1128
vn -0.1128 0.9936 0.0000
vn 0.0846 -0.7450 0.6617
vn 0.0853 -0.7514 -0.6543
vn 0.0846 -0.7450 -0.6617
vn -0.1128 0.9936 -0.0068
vn 0.0000 0.9936 0.1128
vn 0.6617 -0.7450 -0.0846
vn -0.6543 -0.7514 -0.0853
vn -0.6617 -0.7450 -0.0846
vn -0.0068 0.9936 0.1128
vn 0.1128 0.9936 -0.0000
vn -0.0846 -0.7450 -0.6617
vn -0.0853 -0.7514 0.6543
vn -0.0846 -0.7450 0.6617
vn 0.1128 0.9936 0.0068
vn 1.0000 -0.0000 0.0000
vn -0.0000 0.0000 -1.0000
vn -1.0000 0.0000 0.0000
vn -0.0000 0.0000 1.0000
vn -0.0000 -1.0000 0.0000
vn 0.9892 -0.1468 0.0000
vn -0.9892 0.1468 0.0000
vn -0.1468 -0.9892 0.0000
vn 0.8958 -0.4445 -0.0000
vn -0.8958 0.4445 -0.0000
vn 0.4445 0.8958 -0.0000
vn -0.4445 -0.8958 0.0000
vn -0.2219 -0.9751 0.0000
vn 0.2219 0.9751 0.0000
vn 0.9751 -0.2219 0.0000
vn -0.9751 0.2219 -0.0000
vn -0.7893 -0.6140 -0.0000
vn 0.7893 0.6140 -0.0000
vn 0.6140 -0.7893 -0.0000
vn -0.6140 0.7893 0.0000
vn -0.0001 0.1128 0.9936
vn 0.0001 0.1128 0.9936
vn -0.9936 -0.1099 -0.0254
vn -0.0255 -0.1099 0.9936
vn 0.9936 -0.1099 0.0255
vn 0.0255 -0.1099 -0.9936
vn -0.0265 -0.1110 -0.9935
vn -0.9935 -0.1110 0.0264
vn 0.0265 -0.1110 0.9935
vn 0.9935 -0.1110 -0.0265
vn -0.1128 0.9936 0.0068
vn 0.0853 -0.7514 0.6543
vn 0.0068 0.9936 0.1128
vn 0.6543 -0.7514 -0.0853
vn 0.1128 0.9936 -0.0068
vn -0.0853 -0.7514 -0.6543
vn -0.0068 0.9936 -0.1128
vn -0.6543 -0.7514 0.0853
vn 0.5158 -0.5649 0.6441
vn -0.0004 0.9753 -0.2210
vn 0.6441 -0.5649 -0.5158
vn -0.2210 0.9753 0.0004
vn -0.5159 -0.5649 -0.6441
vn 0.0004 0.9753 0.2210
vn -0.6441 -0.5649 0.5159
vn 0.2210 0.9753 -0.0004
usemtl ElfHat_New
s off
f 19/1/1 3/2/1 20/3/1
f 25/4/2 7/5/2 26/6/2
f 31/7/3 5/8/3 32/9/3
f 13/10/4 1/11/4 14/12/4
f 12/13/4 9/14/4 11/15/4
f 5/16/4 12/13/4 11/15/4
f 9/14/4 13/10/4 14/12/4
f 18/17/1 15/18/1 17/19/1
f 1/20/1 18/17/1 17/19/1
f 15/18/1 19/1/1 20/3/1
f 24/21/2 21/22/2 23/23/2
f 3/24/2 24/21/2 23/23/2
f 21/22/2 25/4/2 26/6/2
f 30/25/3 27/26/3 29/27/3
f 7/28/3 30/25/3 29/27/3
f 27/26/3 31/7/3 32/9/3
f 35/29/5 51/30/5 52/31/5
f 39/32/6 57/33/6 58/34/6
f 37/35/7 63/36/7 64/37/7
f 33/38/8 45/39/8 46/40/8
f 41/41/9 44/42/9 43/43/9
f 37/44/10 44/42/10 38/45/10
f 41/41/9 45/39/9 42/46/9
f 47/47/11 50/48/11 49/49/11
f 33/50/12 50/48/12 34/51/12
f 47/47/11 51/30/11 48/52/11
f 53/53/13 56/54/13 55/55/13
f 35/56/14 56/54/14 36/57/14
f 53/53/13 57/33/13 54/58/13
f 59/59/15 62/60/15 61/61/15
f 39/62/16 62/60/16 40/63/16
f 59/59/15 63/36/15 60/64/15
f 17/19/17 33/50/17 1/20/17
f 19/1/18 36/65/18 4/66/18
f 23/23/19 35/56/19 3/24/19
f 25/4/20 40/67/20 8/68/20
f 29/27/21 39/62/21 7/28/21
f 31/7/22 38/69/22 6/70/22
f 11/15/23 37/44/23 5/16/23
f 13/10/24 34/71/24 2/72/24
f 14/12/25 41/41/25 9/14/25
f 12/13/26 42/46/26 10/73/26
f 9/14/25 43/43/25 11/15/25
f 12/13/27 38/45/27 44/42/27
f 13/10/28 42/46/28 45/39/28
f 14/12/29 33/38/29 46/40/29
f 20/3/30 47/47/30 15/18/30
f 18/17/31 48/52/31 16/74/31
f 15/18/30 49/49/30 17/19/30
f 18/17/32 34/51/32 50/48/32
f 19/1/33 48/52/33 51/30/33
f 20/3/34 35/29/34 52/31/34
f 21/22/35 58/34/35 53/53/35
f 24/21/36 54/58/36 22/75/36
f 23/23/35 53/53/35 55/55/35
f 24/21/37 36/57/37 56/54/37
f 22/75/38 57/33/38 25/4/38
f 26/6/39 39/32/39 58/34/39
f 27/26/40 64/37/40 59/59/40
f 30/25/41 60/64/41 28/76/41
f 29/27/40 59/59/40 61/61/40
f 30/25/42 40/63/42 62/60/42
f 28/76/43 63/36/43 31/7/43
f 32/9/44 37/35/44 64/37/44
f 66/77/45 67/78/45 65/79/45
f 68/80/46 71/81/46 67/82/46
f 72/83/47 69/84/47 71/85/47
f 70/86/48 65/87/48 69/88/48
f 68/89/49 70/90/49 72/91/49
f 74/92/50 75/93/50 73/94/50
f 76/95/46 79/96/46 75/97/46
f 80/98/51 77/99/51 79/100/51
f 77/101/48 74/102/48 73/103/48
f 76/104/52 78/105/52 80/106/52
f 82/107/53 83/108/53 81/109/53
f 84/110/46 87/111/46 83/112/46
f 88/113/54 85/114/54 87/115/54
f 86/116/48 81/117/48 85/118/48
f 87/119/55 81/120/55 83/121/55
f 84/122/56 86/123/56 88/124/56
f 90/125/57 91/126/57 89/127/57
f 92/128/46 95/129/46 91/130/46
f 95/131/58 94/132/58 93/133/58
f 94/134/48 89/135/48 93/136/48
f 95/137/59 89/138/59 91/139/59
f 92/140/60 94/141/60 96/142/60
f 98/143/61 99/144/61 97/145/61
f 100/146/46 103/147/46 99/148/46
f 104/149/62 101/150/62 103/151/62
f 101/152/48 98/153/48 97/154/48
f 103/155/63 97/156/63 99/157/63
f 100/158/64 102/159/64 104/160/64
f 19/1/1 4/66/1 3/2/1
f 25/4/2 8/68/2 7/5/2
f 31/7/3 6/70/3 5/8/3
f 13/10/65 2/72/65 1/11/65
f 12/13/4 10/73/4 9/14/4
f 5/16/66 6/161/66 12/13/66
f 9/14/4 10/73/4 13/10/4
f 18/17/1 16/74/1 15/18/1
f 1/20/1 2/162/1 18/17/1
f 15/18/1 16/74/1 19/1/1
f 24/21/2 22/75/2 21/22/2
f 3/24/2 4/163/2 24/21/2
f 21/22/2 22/75/2 25/4/2
f 30/25/3 28/76/3 27/26/3
f 7/28/3 8/164/3 30/25/3
f 27/26/3 28/76/3 31/7/3
f 35/29/67 36/65/67 51/30/67
f 39/32/68 40/67/68 57/33/68
f 37/35/69 38/69/69 63/36/69
f 33/38/70 34/71/70 45/39/70
f 41/41/9 42/46/9 44/42/9
f 37/44/71 43/43/71 44/42/71
f 41/41/9 46/40/9 45/39/9
f 47/47/11 48/52/11 50/48/11
f 33/50/72 49/49/72 50/48/72
f 47/47/11 52/31/11 51/30/11
f 53/53/13 54/58/13 56/54/13
f 35/56/73 55/55/73 56/54/73
f 53/53/13 58/34/13 57/33/13
f 59/59/15 60/64/15 62/60/15
f 39/62/74 61/61/74 62/60/74
f 59/59/15 64/37/15 63/36/15
f 17/19/75 49/49/75 33/50/75
f 19/1/76 51/30/76 36/65/76
f 23/23/77 55/55/77 35/56/77
f 25/4/78 57/33/78 40/67/78
f 29/27/79 61/61/79 39/62/79
f 31/7/80 63/36/80 38/69/80
f 11/15/81 43/43/81 37/44/81
f 13/10/82 45/39/82 34/71/82
f 14/12/25 46/40/25 41/41/25
f 12/13/26 44/42/26 42/46/26
f 9/14/25 41/41/25 43/43/25
f 12/13/83 6/161/83 38/45/83
f 13/10/28 10/73/28 42/46/28
f 14/12/84 1/11/84 33/38/84
f 20/3/30 52/31/30 47/47/30
f 18/17/31 50/48/31 48/52/31
f 15/18/30 47/47/30 49/49/30
f 18/17/85 2/162/85 34/51/85
f 19/1/33 16/74/33 48/52/33
f 20/3/86 3/2/86 35/29/86
f 21/22/35 26/6/35 58/34/35
f 24/21/36 56/54/36 54/58/36
f 23/23/35 21/22/35 53/53/35
f 24/21/87 4/163/87 36/57/87
f 22/75/38 54/58/38 57/33/38
f 26/6/88 7/5/88 39/32/88
f 27/26/40 32/9/40 64/37/40
f 30/25/41 62/60/41 60/64/41
f 29/27/40 27/26/40 59/59/40
f 30/25/89 8/164/89 40/63/89
f 28/76/43 60/64/43 63/36/43
f 32/9/90 5/8/90 37/35/90
f 66/77/45 68/165/45 67/78/45
f 68/80/46 72/166/46 71/81/46
f 72/83/47 70/167/47 69/84/47
f 70/86/48 66/168/48 65/87/48
f 68/89/49 66/169/49 70/90/49
f 74/92/50 76/170/50 75/93/50
f 76/95/46 80/171/46 79/96/46
f 80/98/51 78/172/51 77/99/51
f 77/101/48 78/173/48 74/102/48
f 76/104/52 74/174/52 78/105/52
f 82/107/53 84/175/53 83/108/53
f 84/110/46 88/176/46 87/111/46
f 88/113/54 86/177/54 85/114/54
f 86/116/48 82/178/48 81/117/48
f 87/119/55 85/179/55 81/120/55
f 84/122/56 82/180/56 86/123/56
f 90/125/57 92/181/57 91/126/57
f 92/128/46 96/182/46 95/129/46
f 95/131/58 96/183/58 94/132/58
f 94/134/48 90/184/48 89/135/48
f 95/137/59 93/185/59 89/138/59
f 92/140/60 90/186/60 94/141/60
f 98/143/61 100/187/61 99/144/61
f 100/146/46 104/188/46 103/147/46
f 104/149/62 102/189/62 101/150/62
f 101/152/48 102/190/48 98/153/48
f 103/155/63 101/191/63 97/156/63
f 100/158/64 98/192/64 102/159/64
