# Blender 3.1.0
# www.blender.org
mtllib Lunar_StrawHat.mtl
o StrawHat
v 0.381110 -1.897440 -0.380896
v 0.381110 -1.932090 -0.380896
v -0.381190 -1.932090 -0.380896
v -0.381190 -1.897440 -0.380896
v -0.381190 -1.932090 0.381404
v -0.381190 -1.897440 0.381404
v 0.381110 -1.932090 0.381404
v 0.381110 -1.897440 0.381404
v 0.311810 -1.897494 0.379783
v 0.311810 -1.932111 0.381294
v 0.173210 -1.932111 0.381294
v 0.173210 -1.897494 0.379783
v 0.173210 -1.929088 0.450528
v 0.173210 -1.894471 0.449017
v 0.311810 -1.929088 0.450528
v 0.311810 -1.894471 0.449017
v 0.173210 -1.890472 -0.446283
v 0.173210 -1.924932 -0.449905
v 0.034610 -1.924932 -0.449905
v 0.034610 -1.890472 -0.446283
v 0.034610 -1.932176 -0.380984
v 0.034610 -1.897716 -0.377362
v 0.173210 -1.932176 -0.380984
v 0.173210 -1.897716 -0.377362
v -0.381156 -1.897418 0.173504
v -0.379493 -1.932028 0.173504
v -0.448713 -1.935353 0.173504
v -0.450376 -1.900743 0.173504
v -0.448713 -1.935353 0.312104
v -0.450376 -1.900743 0.312104
v -0.379493 -1.932028 0.312104
v -0.381156 -1.897418 0.312104
v 0.448721 -1.889038 0.242804
v 0.452794 -1.923447 0.242804
v 0.379673 -1.932102 0.242804
v 0.375601 -1.897692 0.242804
v 0.379673 -1.932102 0.312104
v 0.375601 -1.897692 0.312104
v 0.452794 -1.923447 0.312104
v 0.448721 -1.889038 0.312104
v -0.242590 -1.897966 0.376838
v -0.242590 -1.932320 0.381360
v -0.311890 -1.932320 0.381360
v -0.311890 -1.897966 0.376838
v -0.311890 -1.922822 0.453503
v -0.311890 -1.888468 0.448980
v -0.242590 -1.922822 0.453503
v -0.242590 -1.888468 0.448980
v -0.034690 -1.896457 0.379408
v -0.034690 -1.930811 0.374885
v -0.173290 -1.930811 0.374885
v -0.173290 -1.896457 0.379408
v -0.173290 -1.941552 0.456475
v -0.173290 -1.907199 0.460998
v -0.034690 -1.941552 0.456475
v -0.034690 -1.907199 0.460998
v 0.448544 -1.893882 -0.311596
v 0.450357 -1.928485 -0.311596
v 0.381152 -1.932112 -0.311596
v 0.379339 -1.897509 -0.311596
v 0.381152 -1.932112 -0.172996
v 0.379339 -1.897509 -0.172996
v 0.450357 -1.928485 -0.172996
v 0.448544 -1.893882 -0.172996
v 0.451220 -1.906521 -0.103696
v 0.446697 -1.940874 -0.103696
v 0.377990 -1.931829 -0.103696
v 0.382513 -1.897475 -0.103696
v 0.377990 -1.931829 -0.034396
v 0.382513 -1.897475 -0.034396
v 0.446697 -1.940874 -0.034396
v 0.451220 -1.906521 -0.034396
v -0.034690 -1.907133 -0.451075
v -0.034690 -1.941445 -0.446253
v -0.103990 -1.941445 -0.446253
v -0.103990 -1.907133 -0.451075
v -0.103990 -1.931801 -0.377627
v -0.103990 -1.897488 -0.382450
v -0.034690 -1.931801 -0.377627
v -0.034690 -1.897488 -0.382450
v -0.173290 -1.886394 -0.443700
v -0.173290 -1.920544 -0.449568
v -0.311890 -1.920544 -0.449568
v -0.311890 -1.886394 -0.443700
v -0.311890 -1.932280 -0.381269
v -0.311890 -1.898130 -0.375401
v -0.173290 -1.932280 -0.381269
v -0.173290 -1.898130 -0.375401
v -0.376573 -1.897865 -0.172996
v -0.380645 -1.932275 -0.172996
v -0.449465 -1.924130 -0.172996
v -0.445392 -1.889720 -0.172996
v -0.449465 -1.924130 -0.034396
v -0.445392 -1.889720 -0.034396
v -0.380645 -1.932275 -0.034396
v -0.376573 -1.897865 -0.034396
v 0.311810 -1.889440 -0.444989
v 0.311810 -1.923832 -0.449212
v 0.242510 -1.923832 -0.449212
v 0.242510 -1.889440 -0.444989
v 0.242510 -1.932278 -0.380428
v 0.242510 -1.897886 -0.376206
v 0.311810 -1.932278 -0.380428
v 0.311810 -1.897886 -0.376206
v -0.381988 -1.897436 0.034904
v -0.378667 -1.931927 0.034904
v -0.447648 -1.938569 0.034904
v -0.450969 -1.904079 0.034904
v -0.447648 -1.938569 0.104204
v -0.450969 -1.904079 0.104204
v -0.378667 -1.931927 0.104204
v -0.381988 -1.897436 0.104204
v -0.379644 -1.897487 -0.311596
v -0.381004 -1.932110 -0.311596
v -0.450251 -1.929390 -0.311596
v -0.448890 -1.894766 -0.311596
v -0.450251 -1.929390 -0.242296
v -0.448890 -1.894766 -0.242296
v -0.381004 -1.932110 -0.242296
v -0.379644 -1.897487 -0.242296
v 0.103910 -1.897942 0.373238
v 0.103910 -1.931771 0.380737
v 0.034610 -1.931771 0.380737
v 0.034610 -1.897942 0.373238
v 0.034610 -1.915834 0.452623
v 0.034610 -1.882005 0.445124
v 0.103910 -1.915834 0.452623
v 0.103910 -1.882005 0.445124
v 0.444635 -1.888048 0.034904
v 0.449607 -1.922340 0.034904
v 0.381025 -1.932284 0.034904
v 0.376053 -1.897992 0.034904
v 0.381025 -1.932284 0.173504
v 0.376053 -1.897992 0.173504
v 0.449607 -1.922340 0.173504
v 0.444635 -1.888048 0.173504
v 0.242510 -1.938890 -0.242296
v 0.242510 -2.112140 -0.242296
v -0.242590 -2.112140 -0.242296
v -0.242590 -1.938890 -0.242296
v -0.242590 -2.112140 0.242804
v -0.242590 -1.938890 0.242804
v 0.242510 -2.112140 0.242804
v 0.242510 -1.938890 0.242804
v 0.259835 -1.932090 -0.259621
v 0.259835 -2.001390 -0.259621
v -0.259915 -2.001390 -0.259621
v -0.259915 -1.932090 -0.259621
v -0.259915 -2.001390 0.260129
v -0.259915 -1.932090 0.260129
v 0.259835 -2.001390 0.260129
v 0.259835 -1.932090 0.260129
vn -0.0000 -0.0000 -1.0000
vn -1.0000 -0.0000 -0.0000
vn -0.0000 -0.0000 1.0000
vn 1.0000 -0.0000 -0.0000
vn -0.0000 -1.0000 -0.0000
vn -0.0000 1.0000 -0.0000
vn -0.0000 -0.0436 -0.9990
vn -0.0000 0.0436 0.9990
vn -0.0000 -0.9990 0.0436
vn -0.0000 0.9990 -0.0436
vn -0.0000 0.1045 -0.9945
vn -0.0000 -0.1045 0.9945
vn -0.0000 -0.9945 -0.1045
vn -0.0000 0.9945 0.1045
vn -0.9988 -0.0480 -0.0000
vn 0.9988 0.0480 -0.0000
vn 0.0480 -0.9988 -0.0000
vn -0.0480 0.9988 -0.0000
vn -0.9931 -0.1175 -0.0000
vn 0.9931 0.1175 -0.0000
vn 0.1175 -0.9931 -0.0000
vn -0.1175 0.9931 -0.0000
vn -0.0000 -0.1305 -0.9914
vn -0.0000 0.1305 0.9914
vn -0.0000 -0.9914 0.1305
vn -0.0000 0.9914 -0.1305
vn -0.0000 0.1305 -0.9914
vn -0.0000 -0.1305 0.9914
vn -0.0000 -0.9914 -0.1305
vn -0.0000 0.9914 0.1305
vn -0.9986 -0.0523 -0.0000
vn 0.9986 0.0523 -0.0000
vn 0.0523 -0.9986 -0.0000
vn -0.0523 0.9986 -0.0000
vn -0.9914 0.1305 -0.0000
vn 0.9914 -0.1305 -0.0000
vn -0.1305 -0.9914 -0.0000
vn 0.1305 0.9914 -0.0000
vn -0.0000 -0.1392 -0.9903
vn -0.0000 0.1392 0.9903
vn -0.0000 -0.9903 0.1392
vn -0.0000 0.9903 -0.1392
vn -0.0000 0.1694 -0.9856
vn -0.0000 0.1693 -0.9856
vn -0.0000 -0.1694 0.9856
vn -0.0000 -0.1693 0.9856
vn -0.0000 -0.9856 -0.1694
vn -0.0000 0.9856 0.1694
vn -0.9931 0.1175 -0.0000
vn 0.9931 -0.1175 -0.0000
vn -0.1175 -0.9931 -0.0000
vn 0.1175 0.9931 -0.0000
vn -0.0000 0.1219 -0.9925
vn -0.0000 -0.1219 0.9925
vn -0.0000 -0.9925 -0.1219
vn -0.0000 0.9925 0.1219
vn -0.9954 -0.0958 -0.0000
vn 0.9954 0.0958 -0.0000
vn 0.0958 -0.9954 -0.0000
vn -0.0958 0.9954 -0.0000
vn -0.9992 0.0393 -0.0000
vn 0.9992 -0.0393 -0.0000
vn -0.0393 -0.9992 -0.0000
vn 0.0393 0.9992 -0.0000
vn -0.0000 -0.2164 -0.9763
vn -0.0000 0.2164 0.9763
vn -0.0000 -0.9763 0.2164
vn -0.0000 0.9763 -0.2164
vn -0.9897 -0.1435 -0.0000
vn 0.9897 0.1435 -0.0000
vn 0.1435 -0.9897 -0.0000
vn -0.1435 0.9897 -0.0000
vt 0.921875 0.546875
vt 0.343750 0.296875
vt 0.343750 0.312500
vt 0.921875 0.562500
vt 0.343750 0.312500
vt 0.343750 0.656250
vt 0.578125 0.562500
vt 0.921875 0.546875
vt 0.000000 0.656250
vt 0.578125 0.546875
vt 0.921875 0.531250
vt 0.000000 0.312500
vt 0.578125 0.546875
vt 0.343750 0.312500
vt 0.000000 1.000000
vt 0.578125 0.531250
vt 0.343750 0.296875
vt 0.000000 0.656250
vt 0.000000 0.312500
vt 0.687500 0.312500
vt 0.343750 1.000000
vt 0.000000 0.296875
vt 0.687500 0.296875
vt 0.343750 0.656250
vt 0.500000 0.234375
vt 0.562500 0.203125
vt 0.343750 0.265625
vt 0.500000 0.250000
vt 0.562500 0.218750
vt 0.281250 0.265625
vt 0.437500 0.250000
vt 0.812500 0.453125
vt 0.218750 0.265625
vt 0.437500 0.234375
vt 0.812500 0.437500
vt 0.281250 0.265625
vt 0.781250 0.453125
vt 0.625000 0.250000
vt 0.218750 0.296875
vt 0.781250 0.437500
vt 0.625000 0.234375
vt 0.281250 0.296875
vt 0.562500 0.250000
vt 0.593750 0.218750
vt 0.281250 0.296875
vt 0.562500 0.234375
vt 0.593750 0.203125
vt 0.343750 0.296875
vt 0.125000 0.218750
vt 0.687500 0.203125
vt 0.593750 0.265625
vt 0.125000 0.234375
vt 0.687500 0.218750
vt 0.531250 0.265625
vt 0.062500 0.234375
vt 0.812500 0.328125
vt 0.468750 0.265625
vt 0.062500 0.218750
vt 0.812500 0.312500
vt 0.531250 0.265625
vt 0.781250 0.328125
vt 0.187500 0.234375
vt 0.468750 0.296875
vt 0.781250 0.312500
vt 0.187500 0.218750
vt 0.531250 0.296875
vt 0.125000 0.234375
vt 0.718750 0.218750
vt 0.531250 0.296875
vt 0.125000 0.218750
vt 0.718750 0.203125
vt 0.593750 0.296875
vt 0.531250 0.218750
vt 0.218750 0.250000
vt 0.031250 0.234375
vt 0.531250 0.234375
vt 0.218750 0.265625
vt 0.718750 0.250000
vt 0.500000 0.234375
vt 0.781250 0.281250
vt 0.687500 0.250000
vt 0.500000 0.218750
vt 0.781250 0.265625
vt 0.000000 0.234375
vt 0.718750 0.281250
vt 0.562500 0.234375
vt 0.687500 0.312500
vt 0.718750 0.265625
vt 0.562500 0.218750
vt 0.000000 0.296875
vt 0.531250 0.234375
vt 0.281250 0.265625
vt 0.718750 0.312500
vt 0.531250 0.218750
vt 0.281250 0.250000
vt 0.031250 0.296875
vt 0.312500 0.203125
vt 0.375000 0.203125
vt 0.562500 0.234375
vt 0.312500 0.218750
vt 0.375000 0.218750
vt 0.531250 0.234375
vt 0.281250 0.218750
vt 0.343750 0.218750
vt 0.500000 0.234375
vt 0.281250 0.203125
vt 0.343750 0.203125
vt 0.531250 0.234375
vt 0.312500 0.218750
vt 0.375000 0.218750
vt 0.500000 0.265625
vt 0.312500 0.203125
vt 0.375000 0.203125
vt 0.531250 0.265625
vt 0.343750 0.218750
vt 0.406250 0.218750
vt 0.531250 0.265625
vt 0.343750 0.203125
vt 0.406250 0.203125
vt 0.562500 0.265625
vt 0.812500 0.421875
vt 0.781250 0.390625
vt 0.687500 0.218750
vt 0.812500 0.437500
vt 0.781250 0.406250
vt 0.656250 0.218750
vt 0.781250 0.437500
vt 0.812500 0.421875
vt 0.625000 0.218750
vt 0.781250 0.421875
vt 0.812500 0.406250
vt 0.656250 0.218750
vt 0.781250 0.421875
vt 0.625000 0.218750
vt 0.625000 0.250000
vt 0.781250 0.406250
vt 0.625000 0.203125
vt 0.656250 0.250000
vt 0.593750 0.218750
vt 0.812500 0.406250
vt 0.656250 0.250000
vt 0.593750 0.203125
vt 0.812500 0.390625
vt 0.687500 0.250000
vt 0.750000 0.234375
vt 0.625000 0.203125
vt 0.468750 0.265625
vt 0.750000 0.250000
vt 0.625000 0.218750
vt 0.406250 0.265625
vt 0.687500 0.250000
vt 0.812500 0.390625
vt 0.343750 0.265625
vt 0.687500 0.234375
vt 0.812500 0.375000
vt 0.406250 0.265625
vt 0.781250 0.390625
vt 0.812500 0.250000
vt 0.343750 0.296875
vt 0.781250 0.375000
vt 0.812500 0.234375
vt 0.406250 0.296875
vt 0.750000 0.250000
vt 0.656250 0.218750
vt 0.406250 0.296875
vt 0.750000 0.234375
vt 0.656250 0.203125
vt 0.468750 0.296875
vt 0.812500 0.500000
vt 0.218750 0.234375
vt 0.812500 0.515625
vt 0.218750 0.250000
vt 0.187500 0.234375
vt 0.781250 0.515625
vt 0.781250 0.265625
vt 0.156250 0.234375
vt 0.781250 0.500000
vt 0.781250 0.250000
vt 0.187500 0.234375
vt 0.718750 0.265625
vt 0.531250 0.218750
vt 0.156250 0.296875
vt 0.718750 0.250000
vt 0.531250 0.203125
vt 0.187500 0.296875
vt 0.500000 0.218750
vt 0.281250 0.250000
vt 0.187500 0.296875
vt 0.500000 0.203125
vt 0.281250 0.234375
vt 0.218750 0.296875
vt 0.812500 0.484375
vt 0.781250 0.453125
vt 0.437500 0.218750
vt 0.812500 0.500000
vt 0.781250 0.468750
vt 0.406250 0.218750
vt 0.781250 0.500000
vt 0.812500 0.484375
vt 0.375000 0.218750
vt 0.781250 0.484375
vt 0.812500 0.468750
vt 0.406250 0.218750
vt 0.781250 0.484375
vt 0.562500 0.218750
vt 0.375000 0.250000
vt 0.781250 0.468750
vt 0.562500 0.203125
vt 0.406250 0.250000
vt 0.531250 0.218750
vt 0.812500 0.468750
vt 0.406250 0.250000
vt 0.531250 0.203125
vt 0.812500 0.453125
vt 0.437500 0.250000
vt 0.812500 0.296875
vt 0.781250 0.265625
vt 0.250000 0.203125
vt 0.812500 0.312500
vt 0.781250 0.281250
vt 0.218750 0.203125
vt 0.781250 0.312500
vt 0.812500 0.296875
vt 0.187500 0.203125
vt 0.781250 0.296875
vt 0.812500 0.281250
vt 0.218750 0.203125
vt 0.781250 0.296875
vt 0.750000 0.218750
vt 0.187500 0.234375
vt 0.781250 0.281250
vt 0.750000 0.203125
vt 0.218750 0.234375
vt 0.718750 0.218750
vt 0.812500 0.281250
vt 0.218750 0.234375
vt 0.718750 0.203125
vt 0.812500 0.265625
vt 0.250000 0.234375
vt 0.312500 0.218750
vt 0.750000 0.203125
vt 0.781250 0.281250
vt 0.312500 0.234375
vt 0.750000 0.218750
vt 0.656250 0.265625
vt 0.250000 0.234375
vt 0.812500 0.265625
vt 0.593750 0.265625
vt 0.250000 0.218750
vt 0.812500 0.250000
vt 0.718750 0.281250
vt 0.781250 0.265625
vt 0.375000 0.234375
vt 0.593750 0.296875
vt 0.781250 0.250000
vt 0.375000 0.218750
vt 0.718750 0.312500
vt 0.312500 0.234375
vt 0.781250 0.218750
vt 0.656250 0.296875
vt 0.312500 0.218750
vt 0.781250 0.203125
vt 0.781250 0.312500
vt 0.187500 0.203125
vt 0.437500 0.250000
vt 0.093750 0.234375
vt 0.187500 0.218750
vt 0.437500 0.265625
vt 0.062500 0.234375
vt 0.156250 0.218750
vt 0.437500 0.265625
vt 0.031250 0.234375
vt 0.156250 0.203125
vt 0.437500 0.250000
vt 0.062500 0.234375
vt 0.375000 0.265625
vt 0.281250 0.218750
vt 0.031250 0.296875
vt 0.375000 0.250000
vt 0.281250 0.203125
vt 0.062500 0.296875
vt 0.250000 0.218750
vt 0.500000 0.265625
vt 0.062500 0.296875
vt 0.250000 0.203125
vt 0.500000 0.250000
vt 0.093750 0.296875
vt 0.812500 0.218750
vt 0.796875 0.984375
vt 0.500000 0.203125
vt 0.812500 0.234375
vt 0.796875 1.000000
vt 0.468750 0.203125
vt 0.781250 0.234375
vt 0.812500 0.218750
vt 0.437500 0.203125
vt 0.781250 0.218750
vt 0.812500 0.203125
vt 0.468750 0.203125
vt 0.781250 0.218750
vt 0.031250 0.203125
vt 0.437500 0.234375
vt 0.781250 0.203125
vt 0.031250 0.187500
vt 0.468750 0.234375
vt 0.000000 0.203125
vt 0.828125 1.000000
vt 0.468750 0.234375
vt 0.000000 0.187500
vt 0.828125 0.984375
vt 0.500000 0.234375
vt 0.593750 0.218750
vt 0.718750 0.218750
vt 0.312500 0.234375
vt 0.593750 0.234375
vt 0.718750 0.234375
vt 0.687500 0.265625
vt 0.562500 0.234375
vt 0.625000 0.234375
vt 0.656250 0.265625
vt 0.562500 0.218750
vt 0.625000 0.218750
vt 0.281250 0.234375
vt 0.593750 0.234375
vt 0.718750 0.234375
vt 0.656250 0.296875
vt 0.593750 0.218750
vt 0.718750 0.218750
vt 0.281250 0.265625
vt 0.687500 0.234375
vt 0.750000 0.234375
vt 0.687500 0.296875
vt 0.687500 0.218750
vt 0.750000 0.218750
vt 0.312500 0.265625
vt 0.781250 0.218750
vt 0.125000 0.203125
vt 0.375000 0.234375
vt 0.781250 0.234375
vt 0.125000 0.218750
vt 0.343750 0.234375
vt 0.750000 0.234375
vt 0.093750 0.218750
vt 0.312500 0.234375
vt 0.750000 0.218750
vt 0.093750 0.203125
vt 0.343750 0.234375
vt 0.062500 0.218750
vt 0.125000 0.218750
vt 0.312500 0.265625
vt 0.062500 0.203125
vt 0.125000 0.203125
vt 0.343750 0.265625
vt 0.093750 0.218750
vt 0.156250 0.218750
vt 0.343750 0.265625
vt 0.093750 0.203125
vt 0.156250 0.203125
vt 0.375000 0.265625
vt 0.812500 0.359375
vt 0.781250 0.328125
vt 0.062500 0.203125
vt 0.812500 0.375000
vt 0.781250 0.343750
vt 0.031250 0.203125
vt 0.781250 0.375000
vt 0.812500 0.359375
vt 0.000000 0.203125
vt 0.781250 0.359375
vt 0.812500 0.343750
vt 0.031250 0.203125
vt 0.781250 0.359375
vt 0.687500 0.218750
vt 0.000000 0.234375
vt 0.781250 0.343750
vt 0.687500 0.203125
vt 0.031250 0.234375
vt 0.656250 0.218750
vt 0.812500 0.343750
vt 0.031250 0.234375
vt 0.656250 0.203125
vt 0.812500 0.328125
vt 0.062500 0.234375
vt 0.437500 0.203125
vt 0.625000 0.250000
vt 0.156250 0.234375
vt 0.437500 0.218750
vt 0.625000 0.265625
vt 0.125000 0.234375
vt 0.406250 0.218750
vt 0.625000 0.265625
vt 0.093750 0.234375
vt 0.406250 0.203125
vt 0.625000 0.250000
vt 0.125000 0.234375
vt 0.562500 0.265625
vt 0.812500 0.531250
vt 0.093750 0.296875
vt 0.562500 0.250000
vt 0.812500 0.515625
vt 0.125000 0.296875
vt 0.781250 0.531250
vt 0.687500 0.265625
vt 0.125000 0.296875
vt 0.781250 0.515625
vt 0.687500 0.250000
vt 0.156250 0.296875
vt 0.796875 0.921875
vt 0.578125 0.687500
vt 0.781250 0.312500
vt 0.796875 1.000000
vt 0.578125 0.765625
vt 0.562500 0.312500
vt 0.578125 1.000000
vt 0.796875 0.921875
vt 0.343750 0.312500
vt 0.578125 0.921875
vt 0.796875 0.843750
vt 0.562500 0.312500
vt 0.578125 0.921875
vt 0.796875 0.843750
vt 0.343750 0.531250
vt 0.578125 0.843750
vt 0.796875 0.765625
vt 0.562500 0.531250
vt 0.578125 0.843750
vt 0.796875 0.765625
vt 0.562500 0.531250
vt 0.578125 0.765625
vt 0.796875 0.687500
vt 0.781250 0.531250
vt 0.812500 0.656250
vt 0.578125 0.562500
vt 0.578125 0.531250
vt 0.812500 0.687500
vt 0.578125 0.593750
vt 0.578125 0.765625
vt 0.578125 0.687500
vt 0.812500 0.656250
vt 0.343750 0.765625
vt 0.578125 0.656250
vt 0.812500 0.625000
vt 0.343750 0.531250
vt 0.578125 0.656250
vt 0.812500 0.625000
vt 0.343750 1.000000
vt 0.578125 0.625000
vt 0.812500 0.593750
vt 0.343750 0.765625
vt 0.578125 0.625000
vt 0.812500 0.593750
vt 0.578125 1.000000
vt 0.578125 0.593750
vt 0.812500 0.562500
vt 0.578125 0.765625
s 1
usemtl StrawHat
f 1/1/1 2/4/1 3/7/1
f 4/10/1 1/1/1 3/7/1
f 4/11/2 3/8/2 5/13/2
f 6/16/2 4/11/2 5/13/2
f 6/17/3 5/14/3 7/19/3
f 8/22/3 6/17/3 7/19/3
f 8/23/4 7/20/4 2/5/4
f 1/2/4 8/23/4 2/5/4
f 5/15/5 3/9/5 2/6/5
f 7/21/5 5/15/5 2/6/5
f 4/12/6 6/18/6 8/24/6
f 1/3/6 4/12/6 8/24/6
f 9/25/7 10/28/7 11/31/7
f 12/34/7 9/25/7 11/31/7
f 12/35/2 11/32/2 13/37/2
f 14/40/2 12/35/2 13/37/2
f 14/41/8 13/38/8 15/43/8
f 16/46/8 14/41/8 15/43/8
f 16/47/4 15/44/4 10/29/4
f 9/26/4 16/47/4 10/29/4
f 13/39/9 11/33/9 10/30/9
f 15/45/9 13/39/9 10/30/9
f 12/36/10 14/42/10 16/48/10
f 9/27/10 12/36/10 16/48/10
f 17/49/11 18/52/11 19/55/11
f 20/58/11 17/49/11 19/55/11
f 20/59/2 19/56/2 21/61/2
f 22/64/2 20/59/2 21/61/2
f 22/65/12 21/62/12 23/67/12
f 24/70/12 22/65/12 23/67/12
f 24/71/4 23/68/4 18/53/4
f 17/50/4 24/71/4 18/53/4
f 21/63/13 19/57/13 18/54/13
f 23/69/13 21/63/13 18/54/13
f 20/60/14 22/66/14 24/72/14
f 17/51/14 20/60/14 24/72/14
f 25/73/1 26/76/1 27/79/1
f 28/82/1 25/73/1 27/79/1
f 28/83/15 27/80/15 29/85/15
f 30/88/15 28/83/15 29/85/15
f 30/89/3 29/86/3 31/91/3
f 32/94/3 30/89/3 31/91/3
f 32/95/16 31/92/16 26/77/16
f 25/74/16 32/95/16 26/77/16
f 29/87/17 27/81/17 26/78/17
f 31/93/17 29/87/17 26/78/17
f 28/84/18 30/90/18 32/96/18
f 25/75/18 28/84/18 32/96/18
f 33/97/1 34/100/1 35/103/1
f 36/106/1 33/97/1 35/103/1
f 36/107/19 35/104/19 37/109/19
f 38/112/19 36/107/19 37/109/19
f 38/113/3 37/110/3 39/115/3
f 40/118/3 38/113/3 39/115/3
f 40/119/20 39/116/20 34/101/20
f 33/98/20 40/119/20 34/101/20
f 37/111/21 35/105/21 34/102/21
f 39/117/21 37/111/21 34/102/21
f 36/108/22 38/114/22 40/120/22
f 33/99/22 36/108/22 40/120/22
f 41/121/23 42/124/23 43/127/23
f 44/130/23 41/121/23 43/127/23
f 44/131/2 43/128/2 45/133/2
f 46/136/2 44/131/2 45/133/2
f 46/137/24 45/134/24 47/139/24
f 48/142/24 46/137/24 47/139/24
f 48/143/4 47/140/4 42/125/4
f 41/122/4 48/143/4 42/125/4
f 45/135/25 43/129/25 42/126/25
f 47/141/25 45/135/25 42/126/25
f 44/132/26 46/138/26 48/144/26
f 41/123/26 44/132/26 48/144/26
f 49/145/27 50/148/27 51/151/27
f 52/154/27 49/145/27 51/151/27
f 52/155/2 51/152/2 53/157/2
f 54/160/2 52/155/2 53/157/2
f 54/161/28 53/158/28 55/163/28
f 56/166/28 54/161/28 55/163/28
f 56/167/4 55/164/4 50/149/4
f 49/146/4 56/167/4 50/149/4
f 53/159/29 51/153/29 50/150/29
f 55/165/29 53/159/29 50/150/29
f 52/156/30 54/162/30 56/168/30
f 49/147/30 52/156/30 56/168/30
f 57/169/1 58/171/1 59/174/1
f 60/177/1 57/169/1 59/174/1
f 60/178/31 59/175/31 61/180/31
f 62/183/31 60/178/31 61/180/31
f 62/184/3 61/181/3 63/186/3
f 64/189/3 62/184/3 63/186/3
f 64/190/32 63/187/32 58/172/32
f 57/170/32 64/190/32 58/172/32
f 61/182/33 59/176/33 58/173/33
f 63/188/33 61/182/33 58/173/33
f 60/179/34 62/185/34 64/191/34
f 57/170/34 60/179/34 64/191/34
f 65/192/1 66/195/1 67/198/1
f 68/201/1 65/192/1 67/198/1
f 68/202/35 67/199/35 69/204/35
f 70/207/35 68/202/35 69/204/35
f 70/208/3 69/205/3 71/210/3
f 72/213/3 70/208/3 71/210/3
f 72/214/36 71/211/36 66/196/36
f 65/193/36 72/214/36 66/196/36
f 69/206/37 67/200/37 66/197/37
f 71/212/37 69/206/37 66/197/37
f 68/203/38 70/209/38 72/215/38
f 65/194/38 68/203/38 72/215/38
f 73/216/39 74/219/39 75/222/39
f 76/225/39 73/216/39 75/222/39
f 76/226/2 75/223/2 77/228/2
f 78/231/2 76/226/2 77/228/2
f 78/232/40 77/229/40 79/234/40
f 80/237/40 78/232/40 79/234/40
f 80/238/4 79/235/4 74/220/4
f 73/217/4 80/238/4 74/220/4
f 77/230/41 75/224/41 74/221/41
f 79/236/41 77/230/41 74/221/41
f 76/227/42 78/233/42 80/239/42
f 73/218/42 76/227/42 80/239/42
f 81/240/43 82/243/43 83/246/44
f 84/249/44 81/240/43 83/246/44
f 84/250/2 83/247/2 85/252/2
f 86/255/2 84/250/2 85/252/2
f 86/256/45 85/253/45 87/258/46
f 88/261/46 86/256/45 87/258/46
f 88/262/4 87/259/4 82/244/4
f 81/241/4 88/262/4 82/244/4
f 85/254/47 83/248/47 82/245/47
f 87/260/47 85/254/47 82/245/47
f 84/251/48 86/257/48 88/263/48
f 81/242/48 84/251/48 88/263/48
f 89/264/1 90/267/1 91/270/1
f 92/273/1 89/264/1 91/270/1
f 92/274/49 91/271/49 93/276/49
f 94/279/49 92/274/49 93/276/49
f 94/280/3 93/277/3 95/282/3
f 96/285/3 94/280/3 95/282/3
f 96/286/50 95/283/50 90/268/50
f 89/265/50 96/286/50 90/268/50
f 93/278/51 91/272/51 90/269/51
f 95/284/51 93/278/51 90/269/51
f 92/275/52 94/281/52 96/287/52
f 89/266/52 92/275/52 96/287/52
f 97/288/53 98/291/53 99/294/53
f 100/297/53 97/288/53 99/294/53
f 100/298/2 99/295/2 101/300/2
f 102/303/2 100/298/2 101/300/2
f 102/304/54 101/301/54 103/306/54
f 104/309/54 102/304/54 103/306/54
f 104/310/4 103/307/4 98/292/4
f 97/289/4 104/310/4 98/292/4
f 101/302/55 99/296/55 98/293/55
f 103/308/55 101/302/55 98/293/55
f 100/299/56 102/305/56 104/311/56
f 97/290/56 100/299/56 104/311/56
f 105/312/1 106/315/1 107/318/1
f 108/321/1 105/312/1 107/318/1
f 108/322/57 107/319/57 109/324/57
f 110/327/57 108/322/57 109/324/57
f 110/328/3 109/325/3 111/330/3
f 112/333/3 110/328/3 111/330/3
f 112/334/58 111/331/58 106/316/58
f 105/313/58 112/334/58 106/316/58
f 109/326/59 107/320/59 106/317/59
f 111/332/59 109/326/59 106/317/59
f 108/323/60 110/329/60 112/335/60
f 105/314/60 108/323/60 112/335/60
f 113/336/1 114/339/1 115/342/1
f 116/345/1 113/336/1 115/342/1
f 116/346/61 115/343/61 117/348/61
f 118/351/61 116/346/61 117/348/61
f 118/352/3 117/349/3 119/354/3
f 120/357/3 118/352/3 119/354/3
f 120/358/62 119/355/62 114/340/62
f 113/337/62 120/358/62 114/340/62
f 117/350/63 115/344/63 114/341/63
f 119/356/63 117/350/63 114/341/63
f 116/347/64 118/353/64 120/359/64
f 113/338/64 116/347/64 120/359/64
f 121/360/65 122/363/65 123/366/65
f 124/369/65 121/360/65 123/366/65
f 124/370/2 123/367/2 125/372/2
f 126/375/2 124/370/2 125/372/2
f 126/376/66 125/373/66 127/378/66
f 128/381/66 126/376/66 127/378/66
f 128/382/4 127/379/4 122/364/4
f 121/361/4 128/382/4 122/364/4
f 125/374/67 123/368/67 122/365/67
f 127/380/67 125/374/67 122/365/67
f 124/371/68 126/377/68 128/383/68
f 121/362/68 124/371/68 128/383/68
f 129/384/1 130/387/1 131/390/1
f 132/393/1 129/384/1 131/390/1
f 132/394/69 131/391/69 133/396/69
f 134/399/69 132/394/69 133/396/69
f 134/400/3 133/397/3 135/402/3
f 136/405/3 134/400/3 135/402/3
f 136/406/70 135/403/70 130/388/70
f 129/385/70 136/406/70 130/388/70
f 133/398/71 131/392/71 130/389/71
f 135/404/71 133/398/71 130/389/71
f 132/395/72 134/401/72 136/407/72
f 129/386/72 132/395/72 136/407/72
f 137/408/1 138/411/1 139/414/1
f 140/417/1 137/408/1 139/414/1
f 140/418/2 139/415/2 141/420/2
f 142/423/2 140/418/2 141/420/2
f 142/424/3 141/421/3 143/426/3
f 144/429/3 142/424/3 143/426/3
f 144/430/4 143/427/4 138/412/4
f 137/409/4 144/430/4 138/412/4
f 141/422/5 139/416/5 138/413/5
f 143/428/5 141/422/5 138/413/5
f 140/419/6 142/425/6 144/431/6
f 137/410/6 140/419/6 144/431/6
f 145/432/1 146/435/1 147/438/1
f 148/441/1 145/432/1 147/438/1
f 148/442/2 147/439/2 149/444/2
f 150/447/2 148/442/2 149/444/2
f 150/448/3 149/445/3 151/450/3
f 152/453/3 150/448/3 151/450/3
f 152/454/4 151/451/4 146/436/4
f 145/433/4 152/454/4 146/436/4
f 149/446/5 147/440/5 146/437/5
f 151/452/5 149/446/5 146/437/5
f 148/443/6 150/449/6 152/455/6
f 145/434/6 148/443/6 152/455/6
