# Blender v3.2.0 OBJ File: 'lunar_ghost_belt.blend'
# www.blender.org
mtllib lunar_ghost_belt.mtl
o lunar_ghost_belt_skull.001
v -0.054688 -0.765625 0.140625
v -0.039063 -0.765625 0.140625
v -0.039063 -0.859375 0.140625
v -0.054688 -0.859375 0.140625
v -0.054688 -0.765625 0.156250
v -0.054688 -0.859375 0.156250
v -0.039063 -0.765625 0.156250
v -0.039063 -0.859375 0.156250
v 0.039062 -0.765625 0.140625
v 0.054687 -0.765625 0.140625
v 0.054687 -0.859375 0.140625
v 0.039062 -0.859375 0.140625
v 0.039062 -0.765625 0.156250
v 0.039062 -0.859375 0.156250
v 0.054687 -0.765625 0.156250
v 0.054687 -0.859375 0.156250
v -0.039063 -0.859375 0.140625
v 0.039062 -0.859375 0.140625
v 0.039062 -0.875000 0.140625
v -0.039063 -0.875000 0.140625
v -0.039063 -0.859375 0.156250
v -0.039063 -0.875000 0.156250
v 0.039062 -0.859375 0.156250
v 0.039062 -0.875000 0.156250
v -0.039063 -0.750000 0.140625
v -0.023438 -0.750000 0.140625
v -0.023438 -0.765625 0.140625
v -0.039063 -0.765625 0.140625
v -0.039063 -0.750000 0.156250
v -0.039063 -0.765625 0.156250
v -0.023438 -0.750000 0.156250
v -0.023438 -0.765625 0.156250
v -0.039063 -0.765625 0.140625
v 0.039062 -0.765625 0.140625
v 0.039062 -0.859375 0.140625
v -0.039063 -0.859375 0.140625
v -0.039063 -0.765625 0.156250
v -0.039063 -0.859375 0.156250
v 0.039062 -0.765625 0.156250
v 0.039062 -0.859375 0.156250
v -0.007813 -0.750000 0.140625
v 0.007812 -0.750000 0.140625
v 0.007812 -0.765625 0.140625
v -0.007813 -0.765625 0.140625
v -0.007813 -0.750000 0.156250
v -0.007813 -0.765625 0.156250
v 0.007812 -0.750000 0.156250
v 0.007812 -0.765625 0.156250
v 0.023437 -0.750000 0.140625
v 0.039062 -0.750000 0.140625
v 0.039062 -0.765625 0.140625
v 0.023437 -0.765625 0.140625
v 0.023437 -0.750000 0.156250
v 0.023437 -0.765625 0.156250
v 0.039062 -0.750000 0.156250
v 0.039062 -0.765625 0.156250
v -0.023438 -0.875000 0.140625
v 0.023437 -0.875000 0.140625
v 0.023437 -0.890625 0.140625
v -0.023438 -0.890625 0.140625
v -0.023438 -0.875000 0.156250
v -0.023438 -0.890625 0.156250
v 0.023437 -0.875000 0.156250
v 0.023437 -0.890625 0.156250
v -0.265625 -0.781250 -0.140625
v 0.265625 -0.781250 -0.140625
v 0.265625 -0.843750 -0.140625
v -0.265625 -0.843750 -0.140625
v -0.265625 -0.781250 0.140625
v -0.265625 -0.843750 0.140625
v 0.265625 -0.781250 0.140625
v 0.265625 -0.843750 0.140625
vt 0.101562 0.640625
vt 0.093750 0.687500
vt 0.093750 0.640625
vt 0.132812 0.640625
vt 0.125000 0.687500
vt 0.125000 0.640625
vt 0.164062 0.640625
vt 0.156250 0.687500
vt 0.156250 0.640625
vt 0.195312 0.640625
vt 0.187500 0.687500
vt 0.187500 0.640625
vt 0.093750 0.625000
vt 0.101562 0.617188
vt 0.101562 0.625000
vt 0.125000 0.617188
vt 0.132812 0.625000
vt 0.132812 0.617188
vt 0.289062 0.703125
vt 0.281250 0.750000
vt 0.281250 0.703125
vt 0.007812 0.640625
vt 0.000000 0.687500
vt 0.000000 0.640625
vt 0.039062 0.640625
vt 0.031250 0.687500
vt 0.031250 0.640625
vt 0.070312 0.640625
vt 0.062500 0.687500
vt 0.062500 0.640625
vt 0.343750 0.656250
vt 0.351562 0.648438
vt 0.351562 0.656250
vt 0.000000 0.617188
vt 0.007812 0.625000
vt 0.007812 0.617188
vt 0.351562 0.742188
vt 0.312500 0.750000
vt 0.312500 0.742188
vt 0.039062 0.617188
vt 0.031250 0.625000
vt 0.031250 0.617188
vt 0.320312 0.679688
vt 0.281250 0.687500
vt 0.281250 0.679688
vt 0.070312 0.617188
vt 0.062500 0.625000
vt 0.062500 0.617188
vt 0.312500 0.718750
vt 0.351562 0.710938
vt 0.351562 0.718750
vt 0.343750 0.867188
vt 0.382812 0.875000
vt 0.382812 0.867188
vt 0.164062 0.617188
vt 0.156250 0.625000
vt 0.156250 0.617188
vt 0.195312 0.617188
vt 0.187500 0.625000
vt 0.187500 0.617188
vt 0.226562 0.617188
vt 0.218750 0.625000
vt 0.218750 0.617188
vt 0.382812 0.773438
vt 0.375000 0.781250
vt 0.375000 0.773438
vt 0.250000 0.625000
vt 0.257812 0.617188
vt 0.257812 0.625000
vt 0.375000 0.742188
vt 0.382812 0.750000
vt 0.382812 0.742188
vt 0.320312 0.828125
vt 0.281250 0.875000
vt 0.281250 0.828125
vt 0.226562 0.640625
vt 0.218750 0.687500
vt 0.218750 0.640625
vt 0.320312 0.765625
vt 0.281250 0.812500
vt 0.281250 0.765625
vt 0.257812 0.640625
vt 0.250000 0.687500
vt 0.250000 0.640625
vt 0.343750 0.843750
vt 0.382812 0.835938
vt 0.382812 0.843750
vt 0.343750 0.804688
vt 0.382812 0.812500
vt 0.382812 0.804688
vt 0.289062 0.617188
vt 0.281250 0.625000
vt 0.281250 0.617188
vt 0.382812 0.710938
vt 0.375000 0.718750
vt 0.375000 0.710938
vt 0.320312 0.617188
vt 0.312500 0.625000
vt 0.312500 0.617188
vt 0.382812 0.679688
vt 0.375000 0.687500
vt 0.375000 0.679688
vt 0.343750 0.625000
vt 0.351562 0.617188
vt 0.351562 0.625000
vt 0.375000 0.648438
vt 0.382812 0.656250
vt 0.382812 0.648438
vt 0.382812 0.617188
vt 0.375000 0.625000
vt 0.375000 0.617188
vt 0.007812 0.585938
vt 0.000000 0.593750
vt 0.000000 0.585938
vt 0.039062 0.585938
vt 0.031250 0.593750
vt 0.031250 0.585938
vt 0.070312 0.585938
vt 0.062500 0.593750
vt 0.062500 0.585938
vt 0.093750 0.593750
vt 0.101562 0.585938
vt 0.101562 0.593750
vt 0.125000 0.585938
vt 0.132812 0.593750
vt 0.132812 0.585938
vt 0.367188 0.773438
vt 0.343750 0.781250
vt 0.343750 0.773438
vt 0.414062 0.867188
vt 0.406250 0.875000
vt 0.406250 0.867188
vt 0.304688 0.648438
vt 0.281250 0.656250
vt 0.281250 0.648438
vt 0.164062 0.585938
vt 0.156250 0.593750
vt 0.156250 0.585938
vt 0.312500 0.656250
vt 0.335938 0.648438
vt 0.335938 0.656250
vt 0.343750 0.679688
vt 0.367188 0.687500
vt 0.367188 0.679688
vt 0.546875 0.968750
vt 0.281250 1.000000
vt 0.281250 0.968750
vt 0.421875 0.906250
vt 0.281250 0.937500
vt 0.281250 0.906250
vt 0.546875 0.937500
vt 0.281250 0.968750
vt 0.281250 0.937500
vt 0.421875 0.875000
vt 0.281250 0.906250
vt 0.281250 0.875000
vt 0.000000 1.000000
vt 0.265625 0.859375
vt 0.265625 1.000000
vt 0.000000 0.703125
vt 0.265625 0.843750
vt 0.265625 0.703125
vt 0.101562 0.687500
vt 0.132812 0.687500
vt 0.164062 0.687500
vt 0.195312 0.687500
vt 0.093750 0.617188
vt 0.125000 0.625000
vt 0.289062 0.750000
vt 0.007812 0.687500
vt 0.039062 0.687500
vt 0.070312 0.687500
vt 0.343750 0.648438
vt 0.000000 0.625000
vt 0.351562 0.750000
vt 0.039062 0.625000
vt 0.320312 0.687500
vt 0.070312 0.625000
vt 0.312500 0.710938
vt 0.343750 0.875000
vt 0.164062 0.625000
vt 0.195312 0.625000
vt 0.226562 0.625000
vt 0.382812 0.781250
vt 0.250000 0.617188
vt 0.375000 0.750000
vt 0.320312 0.875000
vt 0.226562 0.687500
vt 0.320312 0.812500
vt 0.257812 0.687500
vt 0.343750 0.835938
vt 0.343750 0.812500
vt 0.289062 0.625000
vt 0.382812 0.718750
vt 0.320312 0.625000
vt 0.382812 0.687500
vt 0.343750 0.617188
vt 0.375000 0.656250
vt 0.382812 0.625000
vt 0.007812 0.593750
vt 0.039062 0.593750
vt 0.070312 0.593750
vt 0.093750 0.585938
vt 0.125000 0.593750
vt 0.367188 0.781250
vt 0.414062 0.875000
vt 0.304688 0.656250
vt 0.164062 0.593750
vt 0.312500 0.648438
vt 0.343750 0.687500
vt 0.546875 1.000000
vt 0.421875 0.937500
vt 0.546875 0.968750
vt 0.421875 0.906250
vt 0.000000 0.859375
vt 0.000000 0.843750
vn 0.0000 -0.0000 -1.0000
vn -1.0000 0.0000 0.0000
vn 0.0000 0.0000 1.0000
vn 1.0000 -0.0000 0.0000
vn 0.0000 -1.0000 0.0000
vn 0.0000 1.0000 0.0000
usemtl lunar_ghost_belt
s 1
f 2/1/1 4/2/1 1/3/1
f 1/4/2 6/5/2 5/6/2
f 5/7/3 8/8/3 7/9/3
f 7/10/4 3/11/4 2/12/4
f 6/13/5 3/14/5 8/15/5
f 1/16/6 7/17/6 2/18/6
f 10/19/1 12/20/1 9/21/1
f 9/22/2 14/23/2 13/24/2
f 13/25/3 16/26/3 15/27/3
f 15/28/4 11/29/4 10/30/4
f 14/31/5 11/32/5 16/33/5
f 9/34/6 15/35/6 10/36/6
f 18/37/1 20/38/1 17/39/1
f 17/40/2 22/41/2 21/42/2
f 21/43/3 24/44/3 23/45/3
f 23/46/4 19/47/4 18/48/4
f 22/49/5 19/50/5 24/51/5
f 17/52/6 23/53/6 18/54/6
f 26/55/1 28/56/1 25/57/1
f 25/58/2 30/59/2 29/60/2
f 29/61/3 32/62/3 31/63/3
f 31/64/4 27/65/4 26/66/4
f 30/67/5 27/68/5 32/69/5
f 25/70/6 31/71/6 26/72/6
f 34/73/1 36/74/1 33/75/1
f 33/76/2 38/77/2 37/78/2
f 37/79/3 40/80/3 39/81/3
f 39/82/4 35/83/4 34/84/4
f 38/85/5 35/86/5 40/87/5
f 33/88/6 39/89/6 34/90/6
f 42/91/1 44/92/1 41/93/1
f 41/94/2 46/95/2 45/96/2
f 45/97/3 48/98/3 47/99/3
f 47/100/4 43/101/4 42/102/4
f 46/103/5 43/104/5 48/105/5
f 41/106/6 47/107/6 42/108/6
f 50/109/1 52/110/1 49/111/1
f 49/112/2 54/113/2 53/114/2
f 53/115/3 56/116/3 55/117/3
f 55/118/4 51/119/4 50/120/4
f 54/121/5 51/122/5 56/123/5
f 49/124/6 55/125/6 50/126/6
f 58/127/1 60/128/1 57/129/1
f 57/130/2 62/131/2 61/132/2
f 61/133/3 64/134/3 63/135/3
f 63/136/4 59/137/4 58/138/4
f 62/139/5 59/140/5 64/141/5
f 57/142/6 63/143/6 58/144/6
f 66/145/1 68/146/1 65/147/1
f 65/148/2 70/149/2 69/150/2
f 69/151/3 72/152/3 71/153/3
f 71/154/4 67/155/4 66/156/4
f 70/157/5 67/158/5 72/159/5
f 65/160/6 71/161/6 66/162/6
f 2/1/1 3/163/1 4/2/1
f 1/4/2 4/164/2 6/5/2
f 5/7/3 6/165/3 8/8/3
f 7/10/4 8/166/4 3/11/4
f 6/13/5 4/167/5 3/14/5
f 1/16/6 5/168/6 7/17/6
f 10/19/1 11/169/1 12/20/1
f 9/22/2 12/170/2 14/23/2
f 13/25/3 14/171/3 16/26/3
f 15/28/4 16/172/4 11/29/4
f 14/31/5 12/173/5 11/32/5
f 9/34/6 13/174/6 15/35/6
f 18/37/1 19/175/1 20/38/1
f 17/40/2 20/176/2 22/41/2
f 21/43/3 22/177/3 24/44/3
f 23/46/4 24/178/4 19/47/4
f 22/49/5 20/179/5 19/50/5
f 17/52/6 21/180/6 23/53/6
f 26/55/1 27/181/1 28/56/1
f 25/58/2 28/182/2 30/59/2
f 29/61/3 30/183/3 32/62/3
f 31/64/4 32/184/4 27/65/4
f 30/67/5 28/185/5 27/68/5
f 25/70/6 29/186/6 31/71/6
f 34/73/1 35/187/1 36/74/1
f 33/76/2 36/188/2 38/77/2
f 37/79/3 38/189/3 40/80/3
f 39/82/4 40/190/4 35/83/4
f 38/85/5 36/191/5 35/86/5
f 33/88/6 37/192/6 39/89/6
f 42/91/1 43/193/1 44/92/1
f 41/94/2 44/194/2 46/95/2
f 45/97/3 46/195/3 48/98/3
f 47/100/4 48/196/4 43/101/4
f 46/103/5 44/197/5 43/104/5
f 41/106/6 45/198/6 47/107/6
f 50/109/1 51/199/1 52/110/1
f 49/112/2 52/200/2 54/113/2
f 53/115/3 54/201/3 56/116/3
f 55/118/4 56/202/4 51/119/4
f 54/121/5 52/203/5 51/122/5
f 49/124/6 53/204/6 55/125/6
f 58/127/1 59/205/1 60/128/1
f 57/130/2 60/206/2 62/131/2
f 61/133/3 62/207/3 64/134/3
f 63/136/4 64/208/4 59/137/4
f 62/139/5 60/209/5 59/140/5
f 57/142/6 61/210/6 63/143/6
f 66/145/1 67/211/1 68/146/1
f 65/148/2 68/212/2 70/149/2
f 69/151/3 70/213/3 72/152/3
f 71/154/4 72/214/4 67/155/4
f 70/157/5 68/215/5 67/158/5
f 65/160/6 69/216/6 71/161/6
