# Blender v3.0.0 OBJ File: 'Lunar_CandycaneBackpack.blend'
# www.blender.org
mtllib Lunar_CandycaneBackpack.mtl
o CandycaneBackpack_Cube.002
v 0.250393 0.307607 0.165524
v 0.250393 -0.299814 0.165524
v 0.250393 0.307607 -0.025883
v 0.250393 -0.299814 -0.025883
v -0.250393 0.307607 0.165524
v -0.250393 -0.299814 0.165524
v -0.250393 0.307607 -0.025883
v -0.250393 -0.299814 -0.025883
v -0.191968 0.307607 -0.025883
v 0.191968 0.307607 -0.025883
v 0.191968 -0.299814 -0.025883
v -0.191968 -0.299814 -0.025883
v 0.191968 0.307607 0.165524
v -0.191968 0.307607 0.165524
v -0.191968 -0.299814 0.165524
v 0.191968 -0.299814 0.165524
v 0.191968 -0.352546 -0.025883
v -0.191968 -0.352546 -0.025883
v -0.191968 -0.352546 0.165524
v 0.191968 -0.352546 0.165524
v 0.250393 0.246865 0.165524
v 0.250393 0.246865 -0.025883
v -0.250393 0.246865 -0.025883
v -0.250393 0.246865 0.165524
v -0.191968 0.246865 0.165524
v 0.191968 0.246865 0.165524
v 0.191968 0.246865 -0.025883
v -0.191968 0.246865 -0.025883
v 0.071590 -0.401897 0.091074
v 0.100576 -0.430883 0.091074
v 0.071590 -0.401897 0.050082
v 0.100576 -0.430883 0.050082
v -0.071591 -0.401897 0.091074
v -0.100576 -0.430883 0.091074
v -0.071591 -0.401897 0.050082
v -0.100576 -0.430883 0.050082
v -0.000000 -0.401897 0.050082
v -0.000000 -0.430883 0.050082
v -0.000000 -0.401897 0.091074
v -0.000000 -0.430883 0.091074
v 0.072118 -0.315673 0.091074
v 0.101103 -0.315673 0.091074
v 0.072118 -0.315673 0.050082
v 0.101103 -0.315673 0.050082
v -0.071063 -0.315673 0.091074
v -0.100049 -0.315673 0.091074
v -0.071063 -0.315673 0.050082
v -0.100049 -0.315673 0.050082
v 0.147142 -0.215110 -0.029586
v 0.106923 -0.227536 -0.029586
v 0.026485 -0.252390 -0.029586
v 0.006376 -0.258603 -0.029586
v -0.078806 -0.196805 -0.029586
v -0.072593 -0.216915 -0.029586
v -0.052483 -0.210702 -0.029586
v -0.046270 -0.230811 -0.029586
v -0.040057 -0.250921 -0.029586
v -0.143593 0.155471 -0.029586
v -0.026161 -0.224598 -0.029586
v -0.019947 -0.244707 -0.029586
v -0.123484 0.161685 -0.029586
v -0.004582 -0.151843 -0.029586
v 0.001632 -0.171952 -0.029586
v 0.000162 -0.238494 -0.029586
v 0.015528 -0.145629 -0.029586
v 0.021741 -0.165739 -0.029586
v 0.007845 -0.192061 -0.029586
v 0.014058 -0.212171 -0.029586
v 0.075856 -0.126989 -0.029586
v 0.082069 -0.147099 -0.029586
v 0.088283 -0.167208 -0.029586
v 0.094496 -0.187317 -0.029586
v 0.100710 -0.207427 -0.029586
v 0.077325 -0.060447 -0.029586
v 0.095966 -0.120776 -0.029586
v 0.128502 -0.154781 -0.029586
v 0.097435 -0.054234 -0.029586
v 0.140929 -0.195000 -0.029586
v 0.117544 -0.048021 -0.029586
v 0.161038 -0.188787 -0.029586
v 0.137654 -0.041807 -0.029586
v 0.182617 -0.116032 -0.029585
v 0.168721 -0.142355 -0.029586
v 0.174934 -0.162464 -0.029586
v 0.181147 -0.182573 -0.029586
v 0.157763 -0.035594 -0.029586
v 0.188830 -0.136141 -0.029585
v -0.183812 0.143044 -0.029586
v -0.163703 0.149258 -0.029586
v -0.103374 0.167898 -0.029586
v 0.147142 -0.215110 -0.049581
v 0.127032 -0.221323 -0.049581
v 0.106923 -0.227536 -0.049581
v 0.026485 -0.252390 -0.049581
v 0.006376 -0.258603 -0.049581
v -0.078806 -0.196805 -0.049581
v -0.072593 -0.216915 -0.049581
v -0.163703 0.149258 -0.049581
v -0.058697 -0.190592 -0.049581
v -0.052483 -0.210702 -0.049581
v -0.046270 -0.230811 -0.049581
v -0.040057 -0.250921 -0.049581
v -0.032374 -0.204488 -0.049581
v -0.026160 -0.224598 -0.049581
v -0.019947 -0.244707 -0.049581
v 0.000162 -0.238494 -0.049581
v -0.018478 -0.178165 -0.049581
v -0.006051 -0.218384 -0.049581
v 0.020272 -0.232280 -0.049581
v -0.004582 -0.151843 -0.049581
v 0.001632 -0.171952 -0.049581
v 0.007845 -0.192061 -0.049581
v 0.015528 -0.145629 -0.049581
v 0.021741 -0.165739 -0.049581
v 0.100710 -0.207427 -0.049581
v 0.075856 -0.126989 -0.049581
v 0.082070 -0.147099 -0.049581
v 0.088283 -0.167208 -0.049581
v 0.120819 -0.201214 -0.049581
v 0.077326 -0.060447 -0.049581
v 0.095966 -0.120776 -0.049581
v 0.102179 -0.140885 -0.049581
v 0.108392 -0.160995 -0.049581
v 0.140929 -0.195000 -0.049581
v 0.097435 -0.054234 -0.049581
v 0.116075 -0.114562 -0.049581
v 0.122288 -0.134672 -0.049581
v 0.134715 -0.174891 -0.049581
v 0.117544 -0.048021 -0.049581
v 0.148611 -0.148568 -0.049581
v 0.154825 -0.168677 -0.049581
v 0.161038 -0.188787 -0.049581
v 0.137654 -0.041807 -0.049581
v 0.156294 -0.102136 -0.049581
v 0.162507 -0.122245 -0.049581
v 0.168721 -0.142354 -0.049581
v 0.174934 -0.162464 -0.049581
v 0.181148 -0.182573 -0.049581
v 0.157763 -0.035594 -0.049581
v 0.176403 -0.095922 -0.049581
v 0.182617 -0.116032 -0.049581
v 0.188830 -0.136141 -0.049581
v -0.183812 0.143044 -0.049581
v -0.143593 0.155471 -0.049581
v -0.123484 0.161685 -0.049581
v -0.103374 0.167898 -0.049581
v -0.058697 -0.190592 -0.067659
v -0.052483 -0.210702 -0.067659
v -0.143593 0.155471 -0.067659
v -0.038587 -0.184379 -0.067659
v -0.032374 -0.204488 -0.067659
v -0.026160 -0.224598 -0.067659
v -0.123484 0.161685 -0.067659
v -0.018478 -0.178165 -0.067659
v -0.012264 -0.198275 -0.067659
v -0.006051 -0.218384 -0.067659
v 0.000162 -0.238494 -0.067659
v 0.001632 -0.171952 -0.067659
v 0.014058 -0.212171 -0.067659
v 0.007845 -0.192061 -0.067659
v 0.020272 -0.232280 -0.067659
v 0.088283 -0.167208 -0.067659
v 0.094496 -0.187317 -0.067659
v 0.100710 -0.207427 -0.067659
v 0.102179 -0.140885 -0.067659
v 0.108392 -0.160995 -0.067659
v 0.114606 -0.181104 -0.067659
v 0.120819 -0.201214 -0.067659
v 0.097435 -0.054234 -0.067659
v 0.116075 -0.114562 -0.067659
v 0.122289 -0.134672 -0.067659
v 0.128502 -0.154781 -0.067659
v 0.134715 -0.174891 -0.067659
v 0.140929 -0.195000 -0.067659
v 0.117545 -0.048021 -0.067659
v 0.136185 -0.108349 -0.067659
v 0.142398 -0.128458 -0.067659
v 0.148611 -0.148568 -0.067659
v 0.154825 -0.168677 -0.067659
v 0.137654 -0.041807 -0.067659
v 0.156294 -0.102136 -0.067659
v 0.162507 -0.122245 -0.067659
v 0.168721 -0.142354 -0.067659
v -0.163703 0.149258 -0.067659
vt 0.437500 0.484375
vt 0.593750 0.062500
vt 0.437500 0.062500
vt 0.359375 0.484375
vt 0.406250 0.062500
vt 0.359375 0.062500
vt 0.593750 0.484375
vt 0.437500 0.062500
vt 0.593750 0.062500
vt 0.062500 0.484375
vt 0.015625 0.062500
vt 0.062500 0.062500
vt 0.406250 0.734375
vt 0.359375 0.875000
vt 0.359375 0.734375
vt 0.015625 0.703125
vt 0.062500 0.546875
vt 0.062500 0.703125
vt 0.359375 0.703125
vt 0.406250 0.546875
vt 0.406250 0.703125
vt 0.437500 0.484375
vt 0.593750 0.531250
vt 0.593750 0.484375
vt 0.062500 0.734375
vt 0.015625 0.875000
vt 0.015625 0.734375
vt 0.062500 0.875000
vt 0.406250 0.484375
vt 0.359375 0.062500
vt 0.406250 0.062500
vt 0.359375 0.484375
vt 0.015625 0.484375
vt 0.062500 0.062500
vt 0.015625 0.062500
vt 0.062500 0.484375
vt 0.062500 0.703125
vt 0.359375 0.546875
vt 0.359375 0.703125
vt 0.062500 0.531250
vt 0.359375 0.531250
vt 0.593750 0.484375
vt 0.437500 0.531250
vt 0.437500 0.484375
vt 0.359375 0.015625
vt 0.062500 0.015625
vt 0.015625 0.015625
vt 0.062500 0.015625
vt 0.359375 0.015625
vt 0.406250 0.015625
vt 0.015625 0.015625
vt 0.437500 0.015625
vt 0.593750 0.015625
vt 0.406250 0.015625
vt 0.593750 0.015625
vt 0.437500 0.015625
vt 0.656250 0.109375
vt 0.625000 0.015625
vt 0.656250 0.015625
vt 0.750000 0.140625
vt 0.828125 0.109375
vt 0.750000 0.109375
vt 0.656250 0.109375
vt 0.625000 0.015625
vt 0.625000 0.140625
vt 0.750000 0.140625
vt 0.750000 0.109375
vt 0.843750 0.187500
vt 0.750000 0.156250
vt 0.843750 0.156250
vt 0.625000 0.187500
vt 0.750000 0.156250
vt 0.750000 0.187500
vt 0.859375 0.156250
vt 0.859375 0.187500
vt 0.750000 0.187500
vt 0.640625 0.156250
vt 0.750000 0.156250
vt 0.828125 0.109375
vt 0.875000 0.140625
vt 0.906250 0.015625
vt 0.906250 0.140625
vt 0.859375 0.015625
vt 0.828125 0.015625
vt 0.875000 0.140625
vt 0.906250 0.015625
vt 0.875000 0.015625
vt 0.875000 0.109375
vt 0.906250 0.015625
vt 0.906250 0.109375
vt 0.859375 0.015625
vt 0.859375 0.140625
vt 0.906250 0.109375
vt 0.875000 0.015625
vt 0.875000 0.109375
vt 0.828125 0.906250
vt 0.828125 0.937500
vt 0.796875 0.937500
vt 0.671875 0.843750
vt 0.765625 0.812500
vt 0.796875 0.843750
vt 0.671875 0.937500
vt 0.609375 0.906250
vt 0.671875 0.906250
vt 0.921875 0.281250
vt 0.921875 0.812500
vt 0.890625 0.281250
vt 0.890625 0.843750
vt 0.925391 0.391194
vt 0.890625 0.875000
vt 0.859375 0.843750
vt 0.890625 0.906250
vt 0.859375 0.875000
vt 0.828125 0.843750
vt 0.828125 0.281250
vt 0.859375 0.906250
vt 0.796875 0.781250
vt 0.796875 0.281250
vt 0.796875 0.812500
vt 0.828125 0.875000
vt 0.796875 0.875000
vt 0.765625 0.781250
vt 0.671875 0.812500
vt 0.640625 0.781250
vt 0.671875 0.781250
vt 0.640625 0.812500
vt 0.671875 0.875000
vt 0.640625 0.843750
vt 0.640625 0.875000
vt 0.609375 0.812500
vt 0.609375 0.687500
vt 0.578125 0.812500
vt 0.578125 0.687500
vt 0.609375 0.875000
vt 0.578125 0.906250
vt 0.609352 0.781289
vt 0.609352 0.687519
vt 0.609352 0.781289
vt 0.546875 0.687500
vt 0.578125 0.843750
vt 0.546875 0.843750
vt 0.515625 0.812500
vt 0.578125 0.875000
vt 0.546875 0.875000
vt 0.546839 0.781289
vt 0.546839 0.687519
vt 0.546839 0.687519
vt 0.515625 0.687500
vt 0.515625 0.843750
vt 0.796875 0.906250
vt 0.828125 0.937500
vt 0.828125 0.906250
vt 0.765625 0.812500
vt 0.671875 0.843750
vt 0.796875 0.843750
vt 0.640625 0.906250
vt 0.671875 0.937500
vt 0.671875 0.906250
vt 0.609375 0.906250
vt 0.640625 0.937500
vt 0.890625 0.282827
vt 0.921875 0.812500
vt 0.921875 0.282292
vt 0.890625 0.812500
vt 0.921875 0.843750
vt 0.609375 0.687500
vt 0.640625 0.781250
vt 0.640625 0.687500
vt 0.578096 0.875058
vt 0.609352 0.875058
vt 0.578096 0.875058
vt 0.859404 0.282415
vt 0.890661 0.282415
vt 0.890661 0.282415
vt 0.828148 0.875058
vt 0.859404 0.875058
vt 0.828148 0.875058
vt 0.796891 0.906315
vt 0.671865 0.906315
vt 0.796891 0.906315
vt 0.796891 0.812545
vt 0.796891 0.812545
vt 0.640609 0.812545
vt 0.640609 0.843802
vt 0.640609 0.843802
vt 0.859375 0.843750
vt 0.890625 0.875000
vt 0.890625 0.843750
vt 0.859375 0.875000
vt 0.890625 0.906250
vt 0.578096 0.687519
vt 0.640609 0.906315
vt 0.609352 0.906315
vt 0.609352 0.906315
vt 0.890661 0.843802
vt 0.890661 0.812545
vt 0.890661 0.843802
vt 0.546839 0.843802
vt 0.546839 0.812545
vt 0.546839 0.812545
vt 0.890661 0.812545
vt 0.890661 0.283457
vt 0.609352 0.812545
vt 0.640609 0.812545
vt 0.546839 0.781289
vt 0.828148 0.906315
vt 0.828125 0.875000
vt 0.859375 0.906250
vt 0.828125 0.281250
vt 0.796875 0.281250
vt 0.796875 0.781250
vt 0.828125 0.812500
vt 0.828125 0.282396
vt 0.765625 0.781250
vt 0.515625 0.687500
vt 0.546875 0.781250
vt 0.546875 0.687500
vt 0.796875 0.937500
vt 0.828148 0.812545
vt 0.671865 0.906315
vt 0.640609 0.906315
vt 0.671875 0.812500
vt 0.671875 0.781250
vt 0.578096 0.843802
vt 0.578096 0.843802
vt 0.640167 0.781672
vt 0.640167 0.688700
vt 0.640167 0.781672
vt 0.609375 0.781250
vt 0.859404 0.875058
vt 0.859404 0.843802
vt 0.671865 0.843802
vt 0.546839 0.843802
vt 0.796891 0.843802
vt 0.578125 0.875000
vt 0.609375 0.875000
vt 0.609352 0.875058
vt 0.828148 0.906315
vt 0.546875 0.843750
vt 0.546875 0.875000
vt 0.578125 0.906250
vt 0.516855 0.687500
vt 0.515625 0.781250
vt 0.546875 0.812500
vt 0.515625 0.812500
vt 0.828083 0.906136
vt 0.859321 0.906136
vt 0.828083 0.906136
vt 0.516934 0.843660
vt 0.516934 0.812422
vt 0.516934 0.812422
vt 0.609417 0.936143
vt 0.609417 0.906136
vt 0.609417 0.906136
vt 0.890559 0.282152
vt 0.921797 0.282152
vt 0.921797 0.282152
vt 0.671405 0.812910
vt 0.766382 0.812910
vt 0.766382 0.812910
vt 0.766382 0.781672
vt 0.766382 0.781672
vt 0.859321 0.282152
vt 0.890559 0.282152
vt 0.828083 0.282152
vt 0.859321 0.282152
vt 0.921797 0.812422
vt 0.921797 0.283193
vt 0.921797 0.812422
vt 0.578179 0.906136
vt 0.578179 0.906136
vt 0.797620 0.282152
vt 0.828083 0.282152
vt 0.921797 0.843660
vt 0.921797 0.843660
vt 0.548172 0.688700
vt 0.578179 0.688700
vt 0.578179 0.688700
vt 0.859321 0.906136
vt 0.890559 0.906136
vt 0.609375 0.936270
vt 0.609375 0.937500
vt 0.671893 0.936143
vt 0.640655 0.936143
vt 0.671405 0.781672
vt 0.671405 0.781672
vt 0.796845 0.936143
vt 0.671893 0.936143
vt 0.546941 0.906136
vt 0.546941 0.906136
vt 0.516934 0.688700
vt 0.548172 0.688700
vt 0.796845 0.936143
vt 0.828083 0.936143
vt 0.609417 0.688700
vt 0.640167 0.688700
vt 0.671405 0.812910
vt 0.828083 0.936143
vt 0.890559 0.843660
vt 0.890559 0.843660
vt 0.546941 0.843660
vt 0.516934 0.843660
vt 0.797620 0.781672
vt 0.797620 0.781672
vt 0.578125 0.687500
vt 0.609375 0.781250
vt 0.546941 0.874898
vt 0.546941 0.843660
vt 0.890559 0.874898
vt 0.890559 0.874898
vt 0.546941 0.874898
vt 0.890559 0.906136
vt 0.546875 0.687500
vt 0.578125 0.781250
vt 0.609417 0.688700
vt 0.516934 0.781184
vt 0.859375 0.282813
vt 0.890625 0.812500
vt 0.890625 0.282291
vt 0.859375 0.812500
vt 0.890625 0.843750
vt 0.828125 0.282292
vt 0.828125 0.843750
vt 0.859375 0.875000
vt 0.828125 0.875000
vt 0.796875 0.875000
vt 0.828125 0.906250
vt 0.671875 0.875000
vt 0.796875 0.906250
vt 0.640625 0.875000
vt 0.671875 0.906250
vt 0.609375 0.812500
vt 0.609375 0.843750
vt 0.609375 0.875000
vt 0.640625 0.906250
vt 0.578125 0.812500
vt 0.546875 0.781250
vt 0.546875 0.812500
vt 0.859404 0.282415
vt 0.828148 0.283457
vt 0.828148 0.283561
vt 0.640625 0.687500
vt 0.593750 0.484375
vt 0.406250 0.484375
vt 0.437500 0.484375
vt 0.015625 0.484375
vt 0.406250 0.875000
vt 0.015625 0.546875
vt 0.359375 0.546875
vt 0.437500 0.531250
vt 0.062500 0.546875
vt 0.359375 0.531250
vt 0.062500 0.531250
vt 0.593750 0.531250
vt 0.625000 0.140625
vt 0.859375 0.140625
vt 0.656250 0.015625
vt 0.750000 0.187500
vt 0.625000 0.156250
vt 0.640625 0.187500
vt 0.875000 0.015625
vt 0.906250 0.140625
vt 0.875000 0.015625
vt 0.828125 0.015625
vt 0.906250 0.015625
vt 0.609375 0.937500
vt 0.921875 0.843750
vt 0.546875 0.906250
vt 0.890661 0.283993
vt 0.546875 0.906250
vt 0.515625 0.843750
vt 0.609417 0.936143
vt 0.797620 0.282152
vt 0.516934 0.688700
vt 0.609375 0.906250
vt 0.578125 0.875000
vt 0.546875 0.843750
vt 0.828148 0.282415
vn 1.0000 -0.0000 0.0000
vn -0.0000 0.0000 -1.0000
vn -1.0000 0.0000 0.0000
vn -0.0000 0.0000 1.0000
vn 0.0000 1.0000 0.0000
vn -0.0000 -1.0000 0.0000
vn -1.0000 0.0046 0.0000
vn 1.0000 -0.0046 0.0000
vn -1.0000 0.0061 0.0000
vn 1.0000 -0.0061 0.0000
vn -0.9554 -0.2952 -0.0000
vn 0.9554 0.2952 0.0000
vn 0.2952 -0.9554 0.0000
vn -0.2952 0.9554 -0.0000
usemtl CandyCaneBackpack
s off
f 2/1/1 22/2/1 21/3/1
f 12/4/2 23/5/2 28/6/2
f 8/7/3 24/8/3 23/9/3
f 16/10/4 21/11/4 26/12/4
f 7/13/5 14/14/5 9/15/5
f 4/16/6 16/17/6 11/18/6
f 12/19/6 6/20/6 8/21/6
f 16/22/1 17/23/1 11/24/1
f 10/25/5 1/26/5 3/27/5
f 9/15/5 13/28/5 10/25/5
f 6/29/4 25/30/4 24/31/4
f 15/32/4 26/12/4 25/30/4
f 4/33/2 27/34/2 22/35/2
f 11/36/2 28/6/2 27/34/2
f 17/37/6 19/38/6 18/39/6
f 15/32/4 20/40/4 16/10/4
f 11/36/2 18/41/2 12/4/2
f 12/42/3 19/43/3 15/44/3
f 27/34/2 9/45/2 10/46/2
f 22/35/2 10/46/2 3/47/2
f 25/30/4 13/48/4 14/49/4
f 24/31/4 14/49/4 5/50/4
f 26/12/4 1/51/4 13/48/4
f 23/9/3 5/52/3 7/53/3
f 28/6/2 7/54/2 9/45/2
f 21/3/1 3/55/1 1/56/1
f 29/57/4 42/58/4 41/59/4
f 38/60/2 35/61/2 37/62/2
f 31/63/2 44/64/2 32/65/2
f 40/66/4 29/57/4 39/67/4
f 35/68/5 39/69/5 37/70/5
f 32/71/6 40/72/6 38/73/6
f 38/73/6 34/74/6 36/75/6
f 37/76/5 29/77/5 31/78/5
f 33/79/4 40/66/4 39/67/4
f 31/63/2 38/60/2 37/62/2
f 34/80/7 48/81/7 36/82/7
f 35/61/2 48/83/2 47/84/2
f 30/85/8 44/86/8 42/87/8
f 29/88/9 43/89/9 31/90/9
f 33/79/4 46/91/4 34/92/4
f 35/93/10 45/94/10 33/95/10
f 64/96/4 52/97/4 51/98/4
f 71/99/4 66/100/4 67/101/4
f 50/102/4 78/103/4 73/104/4
f 88/105/4 53/106/4 89/107/4
f 53/106/4 55/108/4 89/107/4
f 55/108/4 58/109/4 89/107/4
f 55/108/4 56/110/4 59/111/4
f 57/112/4 59/113/4 56/110/4
f 58/109/4 59/114/4 61/115/4
f 59/113/4 60/116/4 64/96/4
f 62/117/4 90/118/4 61/115/4
f 61/115/4 63/119/4 62/117/4
f 59/114/4 63/119/4 61/115/4
f 59/120/4 68/121/4 67/101/4
f 59/120/4 64/96/4 68/121/4
f 63/119/4 65/122/4 62/117/4
f 63/119/4 67/101/4 66/100/4
f 73/104/4 51/98/4 50/102/4
f 68/121/4 71/99/4 67/101/4
f 73/104/4 68/121/4 64/96/4
f 70/123/4 75/124/4 69/125/4
f 70/123/4 71/99/4 76/126/4
f 71/99/4 72/127/4 76/128/4
f 73/104/4 76/129/4 72/127/4
f 75/124/4 76/130/4 77/131/4
f 77/131/4 76/132/4 79/133/4
f 76/134/4 78/103/4 80/135/4
f 126/136/11 169/137/11 170/138/11
f 76/132/4 81/139/4 79/133/4
f 76/140/4 83/141/4 82/142/4
f 76/143/4 84/144/4 83/141/4
f 80/135/4 84/144/4 76/143/4
f 134/145/12 180/146/12 133/147/12
f 81/139/4 82/142/4 86/148/4
f 82/142/4 83/141/4 87/149/4
f 109/150/2 95/151/2 106/152/2
f 114/153/2 118/154/2 112/155/2
f 119/156/2 93/157/2 115/158/2
f 124/159/2 92/160/2 119/156/2
f 98/161/2 96/162/2 143/163/2
f 99/164/2 97/165/2 96/162/2
f 125/166/2 121/167/2 120/168/2
f 131/169/13 173/170/13 179/171/13
f 144/172/14 184/173/14 98/174/14
f 108/175/13 152/176/13 156/177/13
f 161/178/13 115/179/13 109/180/13
f 112/155/12 158/181/12 111/182/12
f 122/183/11 166/184/11 123/185/11
f 103/186/2 101/187/2 100/188/2
f 104/189/2 102/190/2 101/187/2
f 129/191/14 169/137/14 125/166/14
f 119/192/13 174/193/13 124/194/13
f 100/195/11 147/196/11 148/197/11
f 136/198/12 182/199/12 135/200/12
f 99/201/11 184/202/11 147/196/11
f 127/203/14 165/204/14 122/183/14
f 135/200/12 181/205/12 134/145/12
f 109/180/13 157/206/13 161/178/13
f 108/207/2 105/208/2 104/189/2
f 145/209/2 146/210/2 110/211/2
f 110/211/2 107/212/2 145/213/2
f 113/214/2 111/182/2 110/211/2
f 111/182/2 114/153/2 112/155/2
f 139/215/2 134/216/2 133/217/2
f 115/158/2 94/218/2 109/180/2
f 111/182/14 154/219/14 107/212/14
f 119/192/13 164/220/13 168/221/13
f 121/167/2 117/222/2 116/223/2
f 122/183/2 118/154/2 117/222/2
f 131/169/12 178/224/12 130/225/12
f 75/226/11 120/227/11 121/228/11
f 126/229/2 122/183/2 121/167/2
f 104/230/11 151/231/11 152/176/11
f 123/185/14 162/232/14 118/154/14
f 136/198/13 178/224/13 183/233/13
f 118/154/14 160/234/14 112/155/14
f 131/235/2 124/159/2 128/236/2
f 124/194/12 173/170/12 128/237/12
f 106/238/11 156/177/11 157/206/11
f 136/239/2 131/235/2 130/225/2
f 137/240/2 132/241/2 131/235/2
f 86/242/12 140/243/12 139/215/12
f 140/243/2 135/244/2 134/216/2
f 141/245/2 136/239/2 135/244/2
f 103/186/13 148/197/13 151/231/13
f 64/246/13 105/247/13 106/248/13
f 87/249/12 141/250/12 82/251/12
f 49/252/12 124/253/12 78/254/12
f 89/255/14 143/256/14 88/257/14
f 70/258/14 114/259/14 66/260/14
f 66/260/12 113/261/12 65/262/12
f 58/263/14 98/264/14 89/255/14
f 61/265/14 144/266/14 58/263/14
f 53/267/11 143/268/11 96/269/11
f 78/254/13 132/270/13 80/271/13
f 90/272/14 145/273/14 61/265/14
f 53/267/11 97/274/11 54/275/11
f 81/276/14 129/277/14 79/278/14
f 60/279/13 102/280/13 105/247/13
f 49/281/13 92/160/13 91/282/13
f 50/283/13 92/284/13 49/252/13
f 75/226/14 116/285/14 69/286/14
f 50/283/13 94/287/13 93/288/13
f 85/289/13 132/270/13 138/290/13
f 86/291/14 133/292/14 81/276/14
f 51/293/13 95/294/13 94/287/13
f 77/295/14 120/227/14 74/296/14
f 70/258/11 116/285/11 117/297/11
f 52/298/11 106/248/11 95/294/11
f 54/275/13 100/299/13 55/300/13
f 83/301/13 142/302/13 87/249/13
f 65/262/14 110/303/14 62/304/14
f 110/303/12 90/272/12 62/304/12
f 175/305/2 170/306/2 169/137/2
f 84/307/12 136/308/12 83/301/12
f 56/309/11 100/299/11 101/310/11
f 85/289/12 137/311/12 84/307/12
f 57/312/11 101/310/11 102/280/11
f 180/313/2 176/314/2 175/305/2
f 79/278/14 125/315/14 77/295/14
f 82/251/12 140/316/12 86/291/12
f 149/317/2 147/318/2 184/319/2
f 150/320/2 148/321/2 147/318/2
f 153/322/2 150/320/2 149/317/2
f 154/219/2 151/231/2 150/320/2
f 155/323/2 152/324/2 151/231/2
f 158/181/2 155/323/2 154/219/2
f 160/234/2 156/325/2 155/323/2
f 159/326/2 157/327/2 156/325/2
f 162/232/2 159/326/2 160/234/2
f 163/328/2 161/329/2 159/326/2
f 166/184/2 163/328/2 162/232/2
f 167/330/2 164/331/2 163/328/2
f 171/332/2 166/184/2 165/204/2
f 172/333/2 167/330/2 166/184/2
f 173/334/2 168/335/2 167/330/2
f 176/314/2 171/332/2 170/306/2
f 177/336/2 172/333/2 171/332/2
f 178/224/2 173/334/2 172/333/2
f 181/337/2 177/336/2 176/314/2
f 182/338/2 178/224/2 177/336/2
f 145/213/14 149/339/14 144/172/14
f 107/212/12 153/340/12 145/341/12
f 133/147/14 175/305/14 129/191/14
f 127/203/11 170/138/11 171/332/11
f 74/342/4 75/124/4 77/131/4
f 2/1/1 4/343/1 22/2/1
f 12/4/2 8/344/2 23/5/2
f 8/7/3 6/345/3 24/8/3
f 16/10/4 2/346/4 21/11/4
f 7/13/5 5/347/5 14/14/5
f 4/16/6 2/348/6 16/17/6
f 12/19/6 15/349/6 6/20/6
f 16/22/1 20/350/1 17/23/1
f 10/25/5 13/28/5 1/26/5
f 9/15/5 14/14/5 13/28/5
f 6/29/4 15/32/4 25/30/4
f 15/32/4 16/10/4 26/12/4
f 4/33/2 11/36/2 27/34/2
f 11/36/2 12/4/2 28/6/2
f 17/37/6 20/351/6 19/38/6
f 15/32/4 19/352/4 20/40/4
f 11/36/2 17/353/2 18/41/2
f 12/42/3 18/354/3 19/43/3
f 27/34/2 28/6/2 9/45/2
f 22/35/2 27/34/2 10/46/2
f 25/30/4 26/12/4 13/48/4
f 24/31/4 25/30/4 14/49/4
f 26/12/4 21/11/4 1/51/4
f 23/9/3 24/8/3 5/52/3
f 28/6/2 23/5/2 7/54/2
f 21/3/1 22/2/1 3/55/1
f 29/57/4 30/355/4 42/58/4
f 38/60/2 36/356/2 35/61/2
f 31/63/2 43/357/2 44/64/2
f 40/66/4 30/355/4 29/57/4
f 35/68/5 33/358/5 39/69/5
f 32/71/6 30/359/6 40/72/6
f 38/73/6 40/72/6 34/74/6
f 37/76/5 39/360/5 29/77/5
f 33/79/4 34/92/4 40/66/4
f 31/63/2 32/65/2 38/60/2
f 34/80/7 46/361/7 48/81/7
f 35/61/2 36/356/2 48/83/2
f 30/85/8 32/362/8 44/86/8
f 29/88/9 41/363/9 43/89/9
f 33/79/4 45/364/4 46/91/4
f 35/93/10 47/365/10 45/94/10
f 71/99/4 70/123/4 66/100/4
f 50/102/4 49/366/4 78/103/4
f 53/106/4 54/367/4 55/108/4
f 55/108/4 59/111/4 58/109/4
f 57/112/4 60/116/4 59/113/4
f 59/114/4 67/101/4 63/119/4
f 63/119/4 66/100/4 65/122/4
f 73/104/4 64/96/4 51/98/4
f 68/121/4 72/127/4 71/99/4
f 73/104/4 72/127/4 68/121/4
f 70/123/4 76/126/4 75/124/4
f 73/104/4 78/103/4 76/129/4
f 126/136/11 125/166/11 169/137/11
f 76/132/4 82/142/4 81/139/4
f 80/135/4 85/368/4 84/144/4
f 134/145/12 181/205/12 180/146/12
f 109/150/2 94/218/2 95/151/2
f 114/153/2 117/222/2 118/154/2
f 119/156/2 92/160/2 93/157/2
f 124/159/2 91/282/2 92/160/2
f 98/161/2 99/164/2 96/162/2
f 99/164/2 100/188/2 97/165/2
f 125/166/2 126/229/2 121/167/2
f 131/169/13 128/237/13 173/170/13
f 144/172/14 149/339/14 184/173/14
f 108/175/13 104/230/13 152/176/13
f 161/178/13 164/220/13 115/179/13
f 112/155/12 160/234/12 158/181/12
f 122/183/11 165/204/11 166/184/11
f 103/186/2 104/189/2 101/187/2
f 104/189/2 105/208/2 102/190/2
f 129/191/14 175/305/14 169/137/14
f 119/192/13 168/221/13 174/193/13
f 100/195/11 99/201/11 147/196/11
f 136/198/12 183/233/12 182/199/12
f 99/201/11 98/369/11 184/202/11
f 127/203/14 171/332/14 165/204/14
f 135/200/12 182/199/12 181/205/12
f 109/180/13 106/238/13 157/206/13
f 108/207/2 106/152/2 105/208/2
f 110/211/2 111/182/2 107/212/2
f 113/214/2 114/153/2 111/182/2
f 139/215/2 140/243/2 134/216/2
f 115/158/2 93/157/2 94/218/2
f 111/182/14 158/181/14 154/219/14
f 119/192/13 115/179/13 164/220/13
f 121/167/2 122/183/2 117/222/2
f 122/183/2 123/185/2 118/154/2
f 131/169/12 179/171/12 178/224/12
f 75/226/11 74/296/11 120/227/11
f 126/229/2 127/203/2 122/183/2
f 104/230/11 103/186/11 151/231/11
f 123/185/14 166/184/14 162/232/14
f 136/198/13 130/225/13 178/224/13
f 118/154/14 162/232/14 160/234/14
f 131/235/2 132/241/2 124/159/2
f 124/194/12 174/193/12 173/170/12
f 106/238/11 108/175/11 156/177/11
f 136/239/2 137/240/2 131/235/2
f 137/240/2 138/370/2 132/241/2
f 140/243/2 141/245/2 135/244/2
f 141/245/2 142/371/2 136/239/2
f 103/186/13 100/195/13 148/197/13
f 64/246/13 60/279/13 105/247/13
f 87/249/12 142/302/12 141/250/12
f 49/252/12 91/372/12 124/253/12
f 89/255/14 98/264/14 143/256/14
f 70/258/14 117/297/14 114/259/14
f 66/260/12 114/259/12 113/261/12
f 58/263/14 144/266/14 98/264/14
f 61/265/14 145/273/14 144/266/14
f 53/267/11 88/257/11 143/268/11
f 78/254/13 124/253/13 132/270/13
f 90/272/14 146/373/14 145/273/14
f 53/267/11 96/269/11 97/274/11
f 81/276/14 133/292/14 129/277/14
f 60/279/13 57/312/13 102/280/13
f 50/283/13 93/288/13 92/284/13
f 75/226/14 121/228/14 116/285/14
f 50/283/13 51/293/13 94/287/13
f 85/289/13 80/271/13 132/270/13
f 86/291/14 139/374/14 133/292/14
f 51/293/13 52/298/13 95/294/13
f 77/295/14 125/315/14 120/227/14
f 70/258/11 69/286/11 116/285/11
f 52/298/11 64/246/11 106/248/11
f 54/275/13 97/274/13 100/299/13
f 83/301/13 136/308/13 142/302/13
f 65/262/14 113/261/14 110/303/14
f 110/303/12 146/373/12 90/272/12
f 175/305/2 176/314/2 170/306/2
f 84/307/12 137/311/12 136/308/12
f 56/309/11 55/300/11 100/299/11
f 85/289/12 138/290/12 137/311/12
f 57/312/11 56/309/11 101/310/11
f 180/313/2 181/337/2 176/314/2
f 79/278/14 129/277/14 125/315/14
f 82/251/12 141/250/12 140/316/12
f 149/317/2 150/320/2 147/318/2
f 150/320/2 151/231/2 148/321/2
f 153/322/2 154/219/2 150/320/2
f 154/219/2 155/323/2 151/231/2
f 155/323/2 156/325/2 152/324/2
f 158/181/2 160/234/2 155/323/2
f 160/234/2 159/326/2 156/325/2
f 159/326/2 161/329/2 157/327/2
f 162/232/2 163/328/2 159/326/2
f 163/328/2 164/331/2 161/329/2
f 166/184/2 167/330/2 163/328/2
f 167/330/2 168/335/2 164/331/2
f 171/332/2 172/333/2 166/184/2
f 172/333/2 173/334/2 167/330/2
f 173/334/2 174/375/2 168/335/2
f 176/314/2 177/336/2 171/332/2
f 177/336/2 178/224/2 172/333/2
f 178/224/2 179/376/2 173/334/2
f 181/337/2 182/338/2 177/336/2
f 182/338/2 183/377/2 178/224/2
f 145/213/14 153/378/14 149/339/14
f 107/212/12 154/219/12 153/340/12
f 133/147/14 180/146/14 175/305/14
f 127/203/11 126/136/11 170/138/11
