# Blender 3.3.0
# www.blender.org
mtllib lunar_scarf.mtl
o lunar_scarf
v -0.250000 -1.500000 0.187500
v -0.250000 -1.500000 -0.187500
v -0.250000 -1.312500 0.187500
v -0.250000 -1.312500 -0.187500
v 0.250000 -1.500000 -0.187500
v 0.250000 -1.500000 0.187500
v 0.250000 -1.312500 -0.187500
v 0.250000 -1.312500 0.187500
v -0.187500 -1.312500 0.187500
v -0.187500 -1.312500 0.187500
v -0.187500 -1.062500 0.187500
v -0.187500 -1.062500 0.187500
v -0.000000 -1.312500 0.187500
v -0.000000 -1.312500 0.187500
v -0.000000 -1.062500 0.187500
v -0.000000 -1.062500 0.187500
v -0.187500 -1.062500 0.187500
v -0.187500 -1.062500 0.187500
v -0.187500 -1.000000 0.187500
v -0.187500 -1.000000 0.187500
v -0.125000 -1.062500 0.187500
v -0.125000 -1.062500 0.187500
v -0.125000 -1.000000 0.187500
v -0.125000 -1.000000 0.187500
v -0.125000 -1.062500 0.187500
v -0.125000 -1.062500 0.187500
v -0.125000 -1.000000 0.187500
v -0.125000 -1.000000 0.187500
v -0.062500 -1.062500 0.187500
v -0.062500 -1.062500 0.187500
v -0.062500 -1.000000 0.187500
v -0.062500 -1.000000 0.187500
vn -0.0000 -0.0000 -1.0000
vn -1.0000 -0.0000 -0.0000
vn -0.0000 -0.0000 1.0000
vn 1.0000 -0.0000 -0.0000
vn -0.0000 -1.0000 -0.0000
vn -0.0000 1.0000 -0.0000
vt 0.500000 0.625000
vt 1.000000 0.812500
vt 0.000000 1.000000
vt 0.500000 1.000000
vt 0.875000 0.625000
vt 0.000000 0.625000
vt 0.500000 0.437500
vt 1.000000 0.625000
vt 0.000000 0.625000
vt 0.500000 0.812500
vt 0.875000 0.437500
vt 0.000000 0.250000
vt 1.000000 1.000000
vt 0.500000 0.437500
vt 0.500000 0.625000
vt 0.500000 1.000000
vt 0.500000 0.812500
vt 0.875000 0.437500
vt 0.500000 0.250000
vt 1.000000 0.812500
vt 0.875000 0.250000
vt 0.500000 0.625000
vt 0.375000 0.250000
vt 0.000000 1.000000
vt 0.000000 0.250000
vt 0.000000 1.000000
vt 0.000000 0.750000
vt 0.375000 0.000000
vt 0.000000 1.000000
vt 0.000000 0.000000
vt 0.000000 0.750000
vt 0.000000 1.000000
vt 0.000000 1.000000
vt 0.187500 1.000000
vt 0.187500 0.250000
vt 0.187500 0.250000
vt 0.000000 1.000000
vt 0.187500 1.000000
vt 0.187500 0.000000
vt 0.000000 0.750000
vt 0.187500 1.000000
vt 0.187500 0.000000
vt 0.187500 1.000000
vt 0.000000 0.750000
vt 0.500000 0.250000
vt 0.000000 1.000000
vt 0.375000 0.250000
vt 0.000000 1.000000
vt 0.000000 0.937500
vt 0.500000 0.187500
vt 0.000000 1.000000
vt 0.375000 0.187500
vt 0.000000 0.937500
vt 0.000000 1.000000
vt 0.000000 1.000000
vt 0.062500 1.000000
vt 0.437500 0.250000
vt 0.437500 0.250000
vt 0.000000 1.000000
vt 0.062500 1.000000
vt 0.437500 0.187500
vt 0.000000 0.937500
vt 0.062500 1.000000
vt 0.437500 0.187500
vt 0.062500 1.000000
vt 0.000000 0.937500
vt 0.625000 0.250000
vt 0.000000 1.000000
vt 0.500000 0.250000
vt 0.000000 1.000000
vt 0.000000 0.937500
vt 0.625000 0.187500
vt 0.000000 1.000000
vt 0.500000 0.187500
vt 0.000000 0.937500
vt 0.000000 1.000000
vt 0.000000 1.000000
vt 0.062500 1.000000
vt 0.562500 0.250000
vt 0.562500 0.250000
vt 0.000000 1.000000
vt 0.062500 1.000000
vt 0.562500 0.187500
vt 0.000000 0.937500
vt 0.062500 1.000000
vt 0.562500 0.187500
vt 0.062500 1.000000
vt 0.000000 0.937500
s 0
usemtl lunar_scarf
f 7/20/1 2/4/1 4/10/1
f 4/11/2 1/1/2 3/7/2
f 3/8/3 6/17/3 8/22/3
f 8/21/4 5/14/4 7/19/4
f 1/3/5 5/15/5 6/16/5
f 4/12/6 8/22/6 7/19/6
f 15/39/1 10/25/1 12/30/1
f 11/27/5 10/26/1 9/24/2
f 11/28/3 14/36/3 16/42/3
f 15/40/5 14/37/1 13/33/4
f 14/38/5 10/26/4 13/34/1
f 15/41/6 11/29/4 16/43/1
f 23/61/1 18/47/1 20/52/1
f 19/49/5 18/48/1 17/46/2
f 19/50/3 22/58/3 24/64/3
f 23/62/5 22/59/1 21/55/4
f 22/60/5 18/48/4 21/56/1
f 23/63/6 19/51/4 24/65/1
f 31/83/1 26/69/1 28/74/1
f 27/71/5 26/70/1 25/68/2
f 27/72/3 30/80/3 32/86/3
f 31/84/5 30/81/1 29/77/4
f 30/82/5 26/70/4 29/78/1
f 31/85/6 27/73/4 32/87/1
f 7/20/1 5/13/1 2/4/1
f 4/11/2 2/5/2 1/1/2
f 3/8/3 1/2/3 6/17/3
f 8/21/4 6/18/4 5/14/4
f 1/3/5 2/6/5 5/15/5
f 4/12/6 3/9/6 8/22/6
f 15/39/1 13/35/1 10/25/1
f 11/27/1 12/31/2 10/26/6
f 11/28/3 9/23/3 14/36/3
f 15/40/1 16/44/4 14/37/6
f 14/38/2 9/24/1 10/26/5
f 15/41/2 12/32/1 11/29/6
f 23/61/1 21/57/1 18/47/1
f 19/49/1 20/53/2 18/48/6
f 19/50/3 17/45/3 22/58/3
f 23/62/1 24/66/4 22/59/6
f 22/60/2 17/46/1 18/48/5
f 23/63/2 20/54/1 19/51/6
f 31/83/1 29/79/1 26/69/1
f 27/71/1 28/75/2 26/70/6
f 27/72/3 25/67/3 30/80/3
f 31/84/1 32/88/4 30/81/6
f 30/82/2 25/68/1 26/70/5
f 31/85/2 28/76/1 27/73/6
