# Blender v3.0.0 OBJ File: 'Lunar_LightningBackpack.blend'
# www.blender.org
mtllib Lunar_LightningBackpack.mtl
o LightningBackpack_Cube.002
v 0.250393 0.307607 0.165524
v 0.250393 -0.299814 0.165524
v 0.250393 0.307607 -0.025883
v 0.250393 -0.299814 -0.025883
v -0.250393 0.307607 0.165524
v -0.250393 -0.299814 0.165524
v -0.250393 0.307607 -0.025883
v -0.250393 -0.299814 -0.025883
v -0.191968 0.307607 -0.025883
v 0.191968 0.307607 -0.025883
v 0.191968 -0.299814 -0.025883
v -0.191968 -0.299814 -0.025883
v 0.191968 0.307607 0.165524
v -0.191968 0.307607 0.165524
v -0.191968 -0.299814 0.165524
v 0.191968 -0.299814 0.165524
v 0.191968 -0.352546 -0.025883
v -0.191968 -0.352546 -0.025883
v -0.191968 -0.352546 0.165524
v 0.191968 -0.352546 0.165524
v 0.250393 0.246865 0.165524
v 0.250393 0.246865 -0.025883
v -0.250393 0.246865 -0.025883
v -0.250393 0.246865 0.165524
v -0.191968 0.246865 0.165524
v 0.191968 0.246865 0.165524
v 0.191968 0.246865 -0.025883
v -0.191968 0.246865 -0.025883
v 0.071590 -0.401897 0.091074
v 0.100576 -0.430883 0.091074
v 0.071590 -0.401897 0.050082
v 0.100576 -0.430883 0.050082
v -0.071591 -0.401897 0.091074
v -0.100576 -0.430883 0.091074
v -0.071591 -0.401897 0.050082
v -0.100576 -0.430883 0.050082
v -0.000000 -0.401897 0.050082
v -0.000000 -0.430883 0.050082
v -0.000000 -0.401897 0.091074
v -0.000000 -0.430883 0.091074
v 0.072118 -0.315673 0.091074
v 0.101103 -0.315673 0.091074
v 0.072118 -0.315673 0.050082
v 0.101103 -0.315673 0.050082
v -0.071063 -0.315673 0.091074
v -0.100049 -0.315673 0.091074
v -0.071063 -0.315673 0.050082
v -0.100049 -0.315673 0.050082
vt 0.437500 0.484375
vt 0.593750 0.062500
vt 0.437500 0.062500
vt 0.359375 0.484375
vt 0.406250 0.062500
vt 0.359375 0.062500
vt 0.593750 0.484375
vt 0.437500 0.062500
vt 0.593750 0.062500
vt 0.062500 0.484375
vt 0.015625 0.062500
vt 0.062500 0.062500
vt 0.406250 0.734375
vt 0.359375 0.875000
vt 0.359375 0.734375
vt 0.015625 0.703125
vt 0.062500 0.546875
vt 0.062500 0.703125
vt 0.359375 0.703125
vt 0.406250 0.546875
vt 0.406250 0.703125
vt 0.437500 0.484375
vt 0.593750 0.531250
vt 0.593750 0.484375
vt 0.062500 0.734375
vt 0.015625 0.875000
vt 0.015625 0.734375
vt 0.062500 0.875000
vt 0.406250 0.484375
vt 0.359375 0.062500
vt 0.406250 0.062500
vt 0.359375 0.484375
vt 0.015625 0.484375
vt 0.062500 0.062500
vt 0.015625 0.062500
vt 0.062500 0.484375
vt 0.062500 0.703125
vt 0.359375 0.546875
vt 0.359375 0.703125
vt 0.062500 0.531250
vt 0.359375 0.531250
vt 0.593750 0.484375
vt 0.437500 0.531250
vt 0.437500 0.484375
vt 0.359375 0.015625
vt 0.062500 0.015625
vt 0.015625 0.015625
vt 0.062500 0.015625
vt 0.359375 0.015625
vt 0.406250 0.015625
vt 0.015625 0.015625
vt 0.437500 0.015625
vt 0.593750 0.015625
vt 0.406250 0.015625
vt 0.593750 0.015625
vt 0.437500 0.015625
vt 0.656250 0.109375
vt 0.625000 0.015625
vt 0.656250 0.015625
vt 0.750000 0.140625
vt 0.828125 0.109375
vt 0.750000 0.109375
vt 0.656250 0.109375
vt 0.625000 0.015625
vt 0.625000 0.140625
vt 0.750000 0.140625
vt 0.750000 0.109375
vt 0.843750 0.187500
vt 0.750000 0.156250
vt 0.843750 0.156250
vt 0.625000 0.187500
vt 0.750000 0.156250
vt 0.750000 0.187500
vt 0.859375 0.156250
vt 0.859375 0.187500
vt 0.750000 0.187500
vt 0.640625 0.156250
vt 0.750000 0.156250
vt 0.828125 0.109375
vt 0.875000 0.140625
vt 0.906250 0.015625
vt 0.906250 0.140625
vt 0.859375 0.015625
vt 0.828125 0.015625
vt 0.875000 0.140625
vt 0.906250 0.015625
vt 0.875000 0.015625
vt 0.875000 0.109375
vt 0.906250 0.015625
vt 0.906250 0.109375
vt 0.859375 0.015625
vt 0.859375 0.140625
vt 0.906250 0.109375
vt 0.875000 0.015625
vt 0.875000 0.109375
vt 0.593750 0.484375
vt 0.406250 0.484375
vt 0.437500 0.484375
vt 0.015625 0.484375
vt 0.406250 0.875000
vt 0.015625 0.546875
vt 0.359375 0.546875
vt 0.437500 0.531250
vt 0.062500 0.546875
vt 0.359375 0.531250
vt 0.062500 0.531250
vt 0.593750 0.531250
vt 0.625000 0.140625
vt 0.859375 0.140625
vt 0.656250 0.015625
vt 0.750000 0.187500
vt 0.625000 0.156250
vt 0.640625 0.187500
vt 0.875000 0.015625
vt 0.906250 0.140625
vt 0.875000 0.015625
vt 0.828125 0.015625
vt 0.906250 0.015625
vn 1.0000 -0.0000 0.0000
vn -0.0000 0.0000 -1.0000
vn -1.0000 0.0000 0.0000
vn -0.0000 0.0000 1.0000
vn 0.0000 1.0000 0.0000
vn -0.0000 -1.0000 0.0000
vn -1.0000 0.0046 0.0000
vn 1.0000 -0.0046 0.0000
vn -1.0000 0.0061 0.0000
vn 1.0000 -0.0061 0.0000
usemtl LightningBackpack
s off
f 2/1/1 22/2/1 21/3/1
f 12/4/2 23/5/2 28/6/2
f 8/7/3 24/8/3 23/9/3
f 16/10/4 21/11/4 26/12/4
f 7/13/5 14/14/5 9/15/5
f 4/16/6 16/17/6 11/18/6
f 12/19/6 6/20/6 8/21/6
f 16/22/1 17/23/1 11/24/1
f 10/25/5 1/26/5 3/27/5
f 9/15/5 13/28/5 10/25/5
f 6/29/4 25/30/4 24/31/4
f 15/32/4 26/12/4 25/30/4
f 4/33/2 27/34/2 22/35/2
f 11/36/2 28/6/2 27/34/2
f 17/37/6 19/38/6 18/39/6
f 15/32/4 20/40/4 16/10/4
f 11/36/2 18/41/2 12/4/2
f 12/42/3 19/43/3 15/44/3
f 27/34/2 9/45/2 10/46/2
f 22/35/2 10/46/2 3/47/2
f 25/30/4 13/48/4 14/49/4
f 24/31/4 14/49/4 5/50/4
f 26/12/4 1/51/4 13/48/4
f 23/9/3 5/52/3 7/53/3
f 28/6/2 7/54/2 9/45/2
f 21/3/1 3/55/1 1/56/1
f 29/57/4 42/58/4 41/59/4
f 38/60/2 35/61/2 37/62/2
f 31/63/2 44/64/2 32/65/2
f 40/66/4 29/57/4 39/67/4
f 35/68/5 39/69/5 37/70/5
f 32/71/6 40/72/6 38/73/6
f 38/73/6 34/74/6 36/75/6
f 37/76/5 29/77/5 31/78/5
f 33/79/4 40/66/4 39/67/4
f 31/63/2 38/60/2 37/62/2
f 34/80/7 48/81/7 36/82/7
f 35/61/2 48/83/2 47/84/2
f 30/85/8 44/86/8 42/87/8
f 29/88/9 43/89/9 31/90/9
f 33/79/4 46/91/4 34/92/4
f 35/93/10 45/94/10 33/95/10
f 2/1/1 4/96/1 22/2/1
f 12/4/2 8/97/2 23/5/2
f 8/7/3 6/98/3 24/8/3
f 16/10/4 2/99/4 21/11/4
f 7/13/5 5/100/5 14/14/5
f 4/16/6 2/101/6 16/17/6
f 12/19/6 15/102/6 6/20/6
f 16/22/1 20/103/1 17/23/1
f 10/25/5 13/28/5 1/26/5
f 9/15/5 14/14/5 13/28/5
f 6/29/4 15/32/4 25/30/4
f 15/32/4 16/10/4 26/12/4
f 4/33/2 11/36/2 27/34/2
f 11/36/2 12/4/2 28/6/2
f 17/37/6 20/104/6 19/38/6
f 15/32/4 19/105/4 20/40/4
f 11/36/2 17/106/2 18/41/2
f 12/42/3 18/107/3 19/43/3
f 27/34/2 28/6/2 9/45/2
f 22/35/2 27/34/2 10/46/2
f 25/30/4 26/12/4 13/48/4
f 24/31/4 25/30/4 14/49/4
f 26/12/4 21/11/4 1/51/4
f 23/9/3 24/8/3 5/52/3
f 28/6/2 23/5/2 7/54/2
f 21/3/1 22/2/1 3/55/1
f 29/57/4 30/108/4 42/58/4
f 38/60/2 36/109/2 35/61/2
f 31/63/2 43/110/2 44/64/2
f 40/66/4 30/108/4 29/57/4
f 35/68/5 33/111/5 39/69/5
f 32/71/6 30/112/6 40/72/6
f 38/73/6 40/72/6 34/74/6
f 37/76/5 39/113/5 29/77/5
f 33/79/4 34/92/4 40/66/4
f 31/63/2 32/65/2 38/60/2
f 34/80/7 46/114/7 48/81/7
f 35/61/2 36/109/2 48/83/2
f 30/85/8 32/115/8 44/86/8
f 29/88/9 41/116/9 43/89/9
f 33/79/4 45/117/4 46/91/4
f 35/93/10 47/118/10 45/94/10
