# Blender v2.93.0 OBJ File: 'LunarDragon_new.blend'
# www.blender.org
mtllib LunarDragon_new.mtl
o Dragon_Cube.001
v 0.272887 0.106967 0.272887
v 0.272887 -0.438807 0.272887
v 0.272887 0.106967 -0.272887
v 0.272887 -0.438807 -0.272887
v -0.272887 0.106967 0.272887
v -0.272887 -0.438807 0.272887
v -0.272887 0.106967 -0.272887
v -0.272887 -0.438807 -0.272887
v 0.272887 -0.169743 0.272887
v 0.272887 -0.169743 -0.272887
v -0.272887 -0.169743 -0.272887
v -0.272887 -0.169743 0.272887
v 0.206603 0.021153 0.648825
v 0.206603 -0.140555 0.661008
v 0.206603 -0.009005 0.248529
v 0.206603 -0.170714 0.260712
v -0.206603 0.021153 0.648825
v -0.206603 -0.140555 0.661008
v -0.206603 -0.009005 0.248529
v -0.206603 -0.170714 0.260712
v 0.184793 0.118153 0.574910
v 0.184793 -0.016336 0.576496
v 0.184793 0.113705 0.197681
v 0.184793 -0.020784 0.199267
v -0.184792 0.118153 0.574910
v -0.184792 -0.016336 0.576496
v -0.184792 0.113705 0.197681
v -0.184792 -0.020784 0.199267
v -0.308541 0.106809 0.006583
v -0.308541 -0.083931 0.006583
v -0.308541 0.106809 -0.241383
v -0.308541 -0.083931 -0.241383
v -0.272259 0.106809 -0.241383
v -0.272259 -0.083931 -0.241383
v -0.272259 0.106809 0.006583
v -0.272259 -0.083931 0.006583
v -0.115753 -0.430970 -0.025106
v -0.115753 -0.550730 -0.025106
v -0.078051 -0.430970 -0.033176
v -0.078051 -0.550730 -0.033176
v -0.143187 -0.430970 -0.153279
v -0.143187 -0.550730 -0.153279
v -0.105485 -0.430970 -0.161349
v -0.105485 -0.550730 -0.161349
v 0.115752 -0.430970 -0.025106
v 0.115752 -0.550730 -0.025106
v 0.078051 -0.430970 -0.033176
v 0.078051 -0.550730 -0.033176
v 0.143186 -0.430970 -0.153279
v 0.143186 -0.550730 -0.153279
v 0.105485 -0.430970 -0.161349
v 0.105485 -0.550730 -0.161349
v -0.143813 0.097173 0.620762
v -0.143813 0.019452 0.627030
v -0.143813 0.094400 0.586375
v -0.143813 0.016678 0.592643
v -0.191526 0.097173 0.620762
v -0.191526 0.019452 0.627030
v -0.191526 0.094400 0.586375
v -0.191526 0.016678 0.592643
v 0.143813 0.097173 0.620762
v 0.143813 0.019452 0.627030
v 0.143813 0.094400 0.586375
v 0.143813 0.016678 0.592643
v 0.191526 0.097173 0.620762
v 0.191526 0.019452 0.627030
v 0.191526 0.094400 0.586375
v 0.191526 0.016678 0.592643
v -0.135378 -0.430270 -0.016916
v -0.211488 -0.577518 -0.184126
v -0.097855 -0.374117 -0.083446
v -0.173965 -0.521364 -0.250655
v -0.216865 -0.382115 -0.022231
v -0.292976 -0.529362 -0.189440
v -0.179342 -0.325962 -0.088760
v -0.255453 -0.473209 -0.255970
v 0.135378 -0.430270 -0.016916
v 0.211488 -0.577518 -0.184126
v 0.097855 -0.374117 -0.083446
v 0.173965 -0.521364 -0.250655
v 0.216865 -0.382115 -0.022231
v 0.292975 -0.529363 -0.189440
v 0.179342 -0.325962 -0.088760
v 0.255453 -0.473209 -0.255970
v -0.213373 -0.554938 -0.176489
v -0.245894 -0.624973 -0.312430
v -0.180941 -0.503819 -0.210583
v -0.213462 -0.573855 -0.346524
v -0.273094 -0.519645 -0.180384
v -0.305616 -0.589681 -0.316325
v -0.240662 -0.468527 -0.214478
v -0.273184 -0.538563 -0.350419
v 0.213373 -0.554938 -0.176489
v 0.245894 -0.624973 -0.312430
v 0.180941 -0.503819 -0.210583
v 0.213462 -0.573855 -0.346524
v 0.273094 -0.519646 -0.180384
v 0.305615 -0.589681 -0.316325
v 0.240662 -0.468527 -0.214478
v 0.273183 -0.538563 -0.350419
vt 0.312500 0.984375
vt 0.593750 0.843750
vt 0.312500 0.843750
vt 0.312500 0.671875
vt 0.593750 0.531250
vt 0.312500 0.531250
vt 0.593750 0.984375
vt 0.312500 0.843750
vt 0.593750 0.843750
vt 0.296875 0.984375
vt 0.015625 0.843750
vt 0.296875 0.843750
vt 0.593750 0.671875
vt 0.312500 0.398438
vt 0.312500 0.671875
vt 0.015625 0.671875
vt 0.296875 0.398438
vt 0.296875 0.671875
vt 0.015625 0.703125
vt 0.296875 0.703125
vt 0.312500 0.703125
vt 0.593750 0.703125
vt 0.593750 0.390625
vt 0.312500 0.390625
vt 0.593750 0.703125
vt 0.312500 0.703125
vt 0.289062 0.023438
vt 0.523438 0.125000
vt 0.523438 0.023438
vt 0.523438 0.023438
vt 0.289062 0.125000
vt 0.289062 0.023438
vt 0.265625 0.125000
vt 0.023438 0.023438
vt 0.265625 0.023438
vt 0.265625 0.375000
vt 0.023438 0.140625
vt 0.023438 0.375000
vt 0.023438 0.375000
vt 0.265625 0.140625
vt 0.265625 0.375000
vt 0.539062 0.328125
vt 0.757812 0.250000
vt 0.539062 0.250000
vt 0.757812 0.328125
vt 0.539062 0.250000
vt 0.757812 0.250000
vt 0.757812 0.226562
vt 0.539062 0.148438
vt 0.757812 0.148438
vt 0.515625 0.367188
vt 0.296875 0.148438
vt 0.296875 0.367188
vt 0.296875 0.367188
vt 0.515625 0.140625
vt 0.515625 0.367188
vt 0.625000 0.765625
vt 0.656250 0.601562
vt 0.625000 0.601562
vt 0.882812 0.765625
vt 0.671875 0.601562
vt 0.882812 0.601562
vt 0.656250 0.984375
vt 0.625000 0.773438
vt 0.625000 0.984375
vt 0.625000 0.984375
vt 0.656250 0.773438
vt 0.656250 0.984375
vt 0.656250 0.765625
vt 0.625000 0.601562
vt 0.656250 0.601562
vt 0.648438 0.453125
vt 0.609375 0.335938
vt 0.648438 0.335938
vt 0.656250 0.453125
vt 0.781250 0.335938
vt 0.656250 0.335938
vt 0.609375 0.453125
vt 0.648438 0.335938
vt 0.609375 0.335938
vt 0.781250 0.453125
vt 0.656250 0.335938
vt 0.781250 0.335938
vt 0.609375 0.460938
vt 0.648438 0.593750
vt 0.609375 0.593750
vt 0.609375 0.335938
vt 0.648438 0.453125
vt 0.648438 0.335938
vt 0.781250 0.335938
vt 0.656250 0.453125
vt 0.656250 0.335938
vt 0.648438 0.335938
vt 0.609375 0.453125
vt 0.609375 0.335938
vt 0.656250 0.335938
vt 0.781250 0.453125
vt 0.781250 0.335938
vt 0.648438 0.593750
vt 0.609375 0.460938
vt 0.609375 0.593750
vt 0.851562 0.905739
vt 0.906250 0.781250
vt 0.851562 0.781250
vt 0.914062 0.905739
vt 0.992188 0.781250
vt 0.914062 0.781250
vt 0.906250 0.905739
vt 0.851562 0.781250
vt 0.906250 0.781250
vt 0.992188 0.905739
vt 0.914062 0.781250
vt 0.992188 0.781250
vt 0.992188 0.710938
vt 0.914062 0.765625
vt 0.914062 0.710938
vt 0.906250 0.781250
vt 0.851562 0.905739
vt 0.851562 0.781250
vt 0.992188 0.781250
vt 0.914062 0.905739
vt 0.914062 0.781250
vt 0.906250 0.781250
vt 0.851562 0.905739
vt 0.906250 0.905739
vt 0.914062 0.781250
vt 0.992188 0.905739
vt 0.992188 0.781250
vt 0.914062 0.765625
vt 0.992188 0.710938
vt 0.914062 0.710938
vt 0.906250 0.007812
vt 0.992188 0.218750
vt 0.992188 0.007812
vt 0.796875 0.007812
vt 0.882812 0.218750
vt 0.882812 0.007812
vt 0.992188 0.218750
vt 0.906250 0.007812
vt 0.992188 0.007812
vt 0.882812 0.218750
vt 0.796875 0.007812
vt 0.882812 0.007812
vt 0.796875 0.320312
vt 0.882812 0.234375
vt 0.882812 0.320312
vt 0.992188 0.007812
vt 0.906250 0.218750
vt 0.906250 0.007812
vt 0.882812 0.007812
vt 0.796875 0.218750
vt 0.796875 0.007812
vt 0.906250 0.007812
vt 0.992188 0.218750
vt 0.992188 0.007812
vt 0.796875 0.007812
vt 0.882812 0.218750
vt 0.882812 0.007812
vt 0.882812 0.320312
vt 0.796875 0.234375
vt 0.796875 0.320312
vt 0.906250 0.500000
vt 0.976562 0.335938
vt 0.906250 0.335938
vt 0.804688 0.500000
vt 0.882812 0.335938
vt 0.804688 0.335938
vt 0.976562 0.335938
vt 0.906250 0.500000
vt 0.906250 0.335938
vt 0.882812 0.500000
vt 0.804688 0.335938
vt 0.882812 0.335938
vt 0.804688 0.585938
vt 0.882812 0.515625
vt 0.882812 0.585938
vt 0.906250 0.335938
vt 0.976562 0.500000
vt 0.906250 0.500000
vt 0.882812 0.335938
vt 0.804688 0.500000
vt 0.804688 0.335938
vt 0.906250 0.335938
vt 0.976562 0.500000
vt 0.976562 0.335938
vt 0.804688 0.335938
vt 0.882812 0.500000
vt 0.882812 0.335938
vt 0.882812 0.515625
vt 0.804688 0.585938
vt 0.882812 0.585938
vt 0.593750 0.984375
vt 0.593750 0.671875
vt 0.312500 0.984375
vt 0.015625 0.984375
vt 0.593750 0.398438
vt 0.015625 0.398438
vt 0.289062 0.125000
vt 0.523438 0.125000
vt 0.023438 0.125000
vt 0.265625 0.140625
vt 0.023438 0.140625
vt 0.757812 0.328125
vt 0.539062 0.328125
vt 0.539062 0.226562
vt 0.515625 0.148438
vt 0.296875 0.140625
vt 0.656250 0.765625
vt 0.671875 0.765625
vt 0.656250 0.773438
vt 0.625000 0.773438
vt 0.625000 0.765625
vt 0.609375 0.453125
vt 0.781250 0.453125
vt 0.648438 0.453125
vt 0.656250 0.453125
vt 0.648438 0.460938
vt 0.609375 0.453125
vt 0.781250 0.453125
vt 0.648438 0.453125
vt 0.656250 0.453125
vt 0.648438 0.460938
vt 0.906250 0.905739
vt 0.992188 0.905739
vt 0.851562 0.905739
vt 0.914062 0.905739
vt 0.992188 0.765625
vt 0.906250 0.905739
vt 0.992188 0.905739
vt 0.851562 0.781250
vt 0.914062 0.905739
vt 0.992188 0.765625
vt 0.906250 0.218750
vt 0.796875 0.218750
vt 0.906250 0.218750
vt 0.796875 0.218750
vt 0.796875 0.234375
vt 0.992188 0.218750
vt 0.882812 0.218750
vt 0.906250 0.218750
vt 0.796875 0.218750
vt 0.882812 0.234375
vt 0.976562 0.500000
vt 0.882812 0.500000
vt 0.976562 0.500000
vt 0.804688 0.500000
vt 0.804688 0.515625
vt 0.976562 0.335938
vt 0.882812 0.500000
vt 0.906250 0.500000
vt 0.804688 0.500000
vt 0.804688 0.515625
vn 1.0000 -0.0000 0.0000
vn -0.0000 0.0000 -1.0000
vn -1.0000 0.0000 0.0000
vn 0.0000 0.0000 1.0000
vn 0.0000 1.0000 0.0000
vn -0.0000 -1.0000 0.0000
vn 0.0000 0.0751 0.9972
vn 0.0000 0.9972 -0.0751
vn -0.0000 -0.9972 0.0751
vn 0.0000 0.0118 0.9999
vn 0.0000 0.9999 -0.0118
vn -0.0000 -0.9999 0.0118
vn 0.2093 -0.0000 0.9779
vn 0.9779 -0.0000 -0.2093
vn -0.2093 0.0000 -0.9779
vn -0.9779 0.0000 0.2093
vn -0.2093 0.0000 0.9779
vn -0.9779 0.0000 -0.2093
vn 0.2093 -0.0000 -0.9779
vn 0.9779 0.0000 0.2093
vn 0.0000 -0.0804 -0.9968
vn 0.0000 0.0804 0.9968
vn 0.0000 0.9968 -0.0804
vn 0.8596 -0.5080 0.0561
vn 0.3958 0.5923 -0.7018
vn -0.8596 0.5080 -0.0561
vn -0.3958 -0.5923 0.7018
vn -0.3233 -0.6254 -0.7102
vn -0.8596 -0.5080 0.0561
vn -0.3958 0.5923 -0.7018
vn 0.8596 0.5080 -0.0561
vn 0.3958 -0.5923 0.7018
vn 0.3233 -0.6254 -0.7102
vn 0.4668 0.7357 -0.4907
vn -0.4668 -0.7357 0.4907
vn -0.2080 -0.4480 -0.8695
vn -0.4668 0.7357 -0.4907
vn 0.4668 -0.7357 0.4907
vn 0.2080 -0.4480 -0.8695
usemtl Dragon
s off
f 2/1/1 10/2/1 9/3/1
f 4/4/2 11/5/2 10/6/2
f 8/7/3 12/8/3 11/9/3
f 6/10/4 9/11/4 12/12/4
f 7/13/5 1/14/5 3/15/5
f 4/16/6 6/17/6 8/18/6
f 12/12/4 1/19/4 5/20/4
f 11/9/3 5/21/3 7/22/3
f 10/6/2 7/23/2 3/24/2
f 9/3/1 3/25/1 1/26/1
f 13/27/1 16/28/1 15/29/1
f 19/30/3 18/31/3 17/32/3
f 18/33/7 13/34/7 17/35/7
f 19/36/8 13/37/8 15/38/8
f 16/39/9 18/40/9 20/41/9
f 22/42/1 23/43/1 21/44/1
f 28/45/3 25/46/3 27/47/3
f 26/48/10 21/49/10 25/50/10
f 27/51/11 21/52/11 23/53/11
f 24/54/12 26/55/12 28/56/12
f 34/57/2 31/58/2 33/59/2
f 32/60/3 29/61/3 31/62/3
f 31/63/5 35/64/5 33/65/5
f 34/66/6 30/67/6 32/68/6
f 30/69/4 35/70/4 29/71/4
f 38/72/13 39/73/13 37/74/13
f 40/75/14 43/76/14 39/77/14
f 44/78/15 41/79/15 43/80/15
f 42/81/16 37/82/16 41/83/16
f 40/84/6 42/85/6 44/86/6
f 47/87/17 46/88/17 45/89/17
f 51/90/18 48/91/18 47/92/18
f 49/93/19 52/94/19 51/95/19
f 45/96/20 50/97/20 49/98/20
f 50/99/6 48/100/6 52/101/6
f 54/102/1 55/103/1 53/104/1
f 56/105/21 59/106/21 55/107/21
f 60/108/3 57/109/3 59/110/3
f 58/111/22 53/112/22 57/113/22
f 59/114/23 53/115/23 55/116/23
f 63/117/3 62/118/3 61/119/3
f 67/120/21 64/121/21 63/122/21
f 67/123/1 66/124/1 68/125/1
f 61/126/22 66/127/22 65/128/22
f 61/129/23 67/130/23 63/131/23
f 69/132/24 72/133/24 71/134/24
f 71/135/25 76/136/25 75/137/25
f 76/138/26 73/139/26 75/140/26
f 74/141/27 69/142/27 73/143/27
f 72/144/28 74/145/28 76/146/28
f 79/147/29 78/148/29 77/149/29
f 83/150/30 80/151/30 79/152/30
f 81/153/31 84/154/31 83/155/31
f 77/156/32 82/157/32 81/158/32
f 84/159/33 78/160/33 80/161/33
f 86/162/24 87/163/24 85/164/24
f 88/165/34 91/166/34 87/167/34
f 91/168/26 90/169/26 89/170/26
f 90/171/35 85/172/35 89/173/35
f 88/174/36 90/175/36 92/176/36
f 93/177/29 96/178/29 94/179/29
f 99/180/37 96/181/37 95/182/37
f 97/183/31 100/184/31 99/185/31
f 93/186/38 98/187/38 97/188/38
f 98/189/39 96/190/39 100/191/39
f 2/1/1 4/192/1 10/2/1
f 4/4/2 8/193/2 11/5/2
f 8/7/3 6/194/3 12/8/3
f 6/10/4 2/195/4 9/11/4
f 7/13/5 5/196/5 1/14/5
f 4/16/6 2/197/6 6/17/6
f 12/12/4 9/11/4 1/19/4
f 11/9/3 12/8/3 5/21/3
f 10/6/2 11/5/2 7/23/2
f 9/3/1 10/2/1 3/25/1
f 13/27/1 14/198/1 16/28/1
f 19/30/3 20/199/3 18/31/3
f 18/33/7 14/200/7 13/34/7
f 19/36/8 17/201/8 13/37/8
f 16/39/9 14/202/9 18/40/9
f 22/42/1 24/203/1 23/43/1
f 28/45/3 26/204/3 25/46/3
f 26/48/10 22/205/10 21/49/10
f 27/51/11 25/206/11 21/52/11
f 24/54/12 22/207/12 26/55/12
f 34/57/2 32/208/2 31/58/2
f 32/60/3 30/209/3 29/61/3
f 31/63/5 29/210/5 35/64/5
f 34/66/6 36/211/6 30/67/6
f 30/69/4 36/212/4 35/70/4
f 38/72/13 40/213/13 39/73/13
f 40/75/14 44/214/14 43/76/14
f 44/78/15 42/215/15 41/79/15
f 42/81/16 38/216/16 37/82/16
f 40/84/6 38/217/6 42/85/6
f 47/87/17 48/218/17 46/88/17
f 51/90/18 52/219/18 48/91/18
f 49/93/19 50/220/19 52/94/19
f 45/96/20 46/221/20 50/97/20
f 50/99/6 46/222/6 48/100/6
f 54/102/1 56/223/1 55/103/1
f 56/105/21 60/224/21 59/106/21
f 60/108/3 58/225/3 57/109/3
f 58/111/22 54/226/22 53/112/22
f 59/114/23 57/227/23 53/115/23
f 63/117/3 64/228/3 62/118/3
f 67/120/21 68/229/21 64/121/21
f 67/123/1 65/230/1 66/124/1
f 61/126/22 62/231/22 66/127/22
f 61/129/23 65/232/23 67/130/23
f 69/132/24 70/233/24 72/133/24
f 71/135/25 72/234/25 76/136/25
f 76/138/26 74/235/26 73/139/26
f 74/141/27 70/236/27 69/142/27
f 72/144/28 70/237/28 74/145/28
f 79/147/29 80/238/29 78/148/29
f 83/150/30 84/239/30 80/151/30
f 81/153/31 82/240/31 84/154/31
f 77/156/32 78/241/32 82/157/32
f 84/159/33 82/242/33 78/160/33
f 86/162/24 88/243/24 87/163/24
f 88/165/34 92/244/34 91/166/34
f 91/168/26 92/245/26 90/169/26
f 90/171/35 86/246/35 85/172/35
f 88/174/36 86/247/36 90/175/36
f 93/177/29 95/248/29 96/178/29
f 99/180/37 100/249/37 96/181/37
f 97/183/31 98/250/31 100/184/31
f 93/186/38 94/251/38 98/187/38
f 98/189/39 94/252/39 96/190/39
