# Blender v3.2.0 OBJ File: 'Lunar_Shield.blend'
# www.blender.org
mtllib Lunar_Shield.mtl
o Shield_Shield_0
v 0.158809 -1.427424 -0.130709
v 0.072196 -1.463300 -0.130709
v 0.072196 -1.463300 -0.177584
v 0.158809 -1.427424 -0.177584
v -0.128203 -0.734514 -0.130709
v -0.128203 -0.734514 -0.177584
v -0.214817 -0.770391 -0.130709
v -0.214817 -0.770391 -0.177584
v 0.054257 -1.419994 -0.130709
v -0.032356 -1.455870 -0.130709
v -0.032356 -1.455870 -0.177584
v 0.054257 -1.419994 -0.177584
v -0.178940 -0.857005 -0.130709
v -0.178940 -0.857005 -0.177584
v -0.265554 -0.892881 -0.130709
v -0.265554 -0.892881 -0.177584
v 0.227485 -1.348241 -0.130709
v 0.140871 -1.384117 -0.130709
v 0.140871 -1.384117 -0.177584
v 0.227485 -1.348241 -0.177584
v -0.005713 -0.785251 -0.130709
v -0.005713 -0.785251 -0.177584
v -0.092326 -0.821128 -0.130709
v -0.092326 -0.821128 -0.177584
v -0.050295 -1.412563 -0.130709
v -0.223522 -1.484316 -0.130709
v -0.223522 -1.484316 -0.177584
v -0.050295 -1.412563 -0.177584
v -0.157924 -1.152722 -0.130709
v -0.157924 -1.152722 -0.177584
v -0.331152 -1.224475 -0.130709
v -0.331152 -1.224475 -0.177584
v 0.382774 -1.233181 -0.130709
v 0.209547 -1.304934 -0.130709
v 0.209547 -1.304934 -0.177584
v 0.382774 -1.233181 -0.177584
v 0.275144 -0.973339 -0.130709
v 0.275144 -0.973340 -0.177584
v 0.101917 -1.045093 -0.130709
v 0.101917 -1.045093 -0.177584
v -0.157924 -1.152722 -0.130709
v -0.287845 -1.206537 -0.130709
v -0.287845 -1.206537 -0.177584
v -0.157924 -1.152722 -0.177584
v -0.211739 -1.022802 -0.130709
v -0.211739 -1.022802 -0.177584
v -0.341660 -1.076616 -0.130709
v -0.341660 -1.076616 -0.177584
v 0.231838 -0.991278 -0.130709
v 0.101917 -1.045093 -0.130709
v 0.101917 -1.045093 -0.177584
v 0.231838 -0.991278 -0.177584
v 0.178023 -0.861357 -0.130709
v 0.178023 -0.861357 -0.177584
v 0.048102 -0.915172 -0.130709
v 0.048102 -0.915172 -0.177584
v -0.211739 -1.022802 -0.130709
v -0.298353 -1.058678 -0.130709
v -0.298353 -1.058678 -0.177584
v -0.211739 -1.022802 -0.177584
v -0.229677 -0.979495 -0.130709
v -0.229677 -0.979495 -0.177584
v -0.316291 -1.015371 -0.130709
v -0.316291 -1.015371 -0.177584
v 0.134716 -0.879295 -0.130709
v 0.048102 -0.915172 -0.130709
v 0.048102 -0.915172 -0.177584
v 0.134716 -0.879295 -0.177584
v 0.116778 -0.835989 -0.130709
v 0.116778 -0.835989 -0.177584
v 0.030164 -0.871865 -0.130709
v 0.030164 -0.871865 -0.177584
v -0.229677 -0.979495 -0.130709
v -0.272984 -0.997433 -0.130709
v -0.272984 -0.997433 -0.177584
v -0.229677 -0.979495 -0.177584
v -0.247616 -0.936188 -0.130709
v -0.247616 -0.936188 -0.177584
v -0.290922 -0.954126 -0.130709
v -0.290922 -0.954126 -0.177584
v 0.073471 -0.853927 -0.130709
v 0.030164 -0.871865 -0.130709
v 0.030164 -0.871865 -0.177584
v 0.073471 -0.853927 -0.177584
v 0.055532 -0.810620 -0.130709
v 0.055532 -0.810620 -0.177584
v 0.012226 -0.828558 -0.130709
v 0.012226 -0.828558 -0.177584
v -0.178940 -0.857005 -0.130709
v -0.222247 -0.874943 -0.130709
v -0.222247 -0.874943 -0.177584
v -0.178940 -0.857005 -0.177584
v -0.196878 -0.813698 -0.130709
v -0.196878 -0.813698 -0.177584
v -0.240185 -0.831636 -0.130709
v -0.240185 -0.831636 -0.177584
v -0.049020 -0.803190 -0.130709
v -0.092326 -0.821128 -0.130709
v -0.092326 -0.821128 -0.177584
v -0.049019 -0.803190 -0.177584
v -0.066958 -0.759883 -0.130709
v -0.066958 -0.759883 -0.177584
v -0.110265 -0.777821 -0.130709
v -0.110265 -0.777821 -0.177584
vt 0.437500 0.937500
vt 0.562500 1.000000
vt 0.562500 0.937500
vt 0.562500 1.000000
vt 0.500000 0.000000
vt 0.562500 0.000000
vt 0.437500 0.062500
vt 0.437500 0.000000
vt 0.500000 1.000000
vt 0.437500 1.000000
vt 0.562500 0.000000
vt 0.437500 1.000000
vt 0.437500 0.000000
vt 0.312500 0.875000
vt 0.437500 0.937500
vt 0.437500 0.875000
vt 0.437500 0.937500
vt 0.375000 0.125000
vt 0.437500 0.125000
vt 0.312500 0.187500
vt 0.312500 0.125000
vt 0.375000 0.937500
vt 0.312500 0.937500
vt 0.437500 0.125000
vt 0.312500 0.937500
vt 0.312500 0.125000
vt 0.562500 0.875000
vt 0.687500 0.937500
vt 0.687500 0.875000
vt 0.687500 0.937500
vt 0.625000 0.125000
vt 0.687500 0.125000
vt 0.562500 0.187500
vt 0.562500 0.125000
vt 0.625000 0.937500
vt 0.562500 0.937500
vt 0.687500 0.125000
vt 0.562500 0.937500
vt 0.562500 0.125000
vt 0.062500 0.812500
vt 0.312500 0.875000
vt 0.312500 0.812500
vt 0.312500 0.875000
vt 0.250000 0.500000
vt 0.312500 0.500000
vt 0.062500 0.562500
vt 0.062500 0.500000
vt 0.125000 0.875000
vt 0.062500 0.875000
vt 0.312500 0.500000
vt 0.062500 0.875000
vt 0.062500 0.500000
vt 0.687500 0.812500
vt 0.937500 0.875000
vt 0.937500 0.812500
vt 0.937500 0.875000
vt 0.875000 0.500000
vt 0.937500 0.500000
vt 0.687500 0.562500
vt 0.687500 0.500000
vt 0.750000 0.875000
vt 0.687500 0.875000
vt 0.687500 0.500000
vt 0.687500 0.875000
vt 0.125000 0.437500
vt 0.312500 0.500000
vt 0.312500 0.437500
vt 0.312500 0.312500
vt 0.250000 0.500000
vt 0.250000 0.312500
vt 0.125000 0.375000
vt 0.125000 0.312500
vt 0.187500 0.500000
vt 0.125000 0.500000
vt 0.312500 0.312500
vt 0.125000 0.500000
vt 0.125000 0.312500
vt 0.687500 0.437500
vt 0.875000 0.500000
vt 0.875000 0.437500
vt 0.875000 0.312500
vt 0.812500 0.500000
vt 0.812500 0.312500
vt 0.687500 0.375000
vt 0.687500 0.312500
vt 0.750000 0.500000
vt 0.687500 0.500000
vt 0.875000 0.312500
vt 0.687500 0.500000
vt 0.687500 0.312500
vt 0.187500 0.250000
vt 0.312500 0.312500
vt 0.312500 0.250000
vt 0.312500 0.312500
vt 0.250000 0.250000
vt 0.312500 0.250000
vt 0.187500 0.312500
vt 0.187500 0.250000
vt 0.250000 0.312500
vt 0.187500 0.312500
vt 0.312500 0.250000
vt 0.187500 0.312500
vt 0.187500 0.250000
vt 0.687500 0.250000
vt 0.812500 0.312500
vt 0.812500 0.250000
vt 0.812500 0.312500
vt 0.750000 0.250000
vt 0.812500 0.250000
vt 0.687500 0.312500
vt 0.687500 0.250000
vt 0.750000 0.312500
vt 0.687500 0.312500
vt 0.812500 0.250000
vt 0.687500 0.312500
vt 0.687500 0.250000
vt 0.312500 0.187500
vt 0.250000 0.250000
vt 0.312500 0.250000
vt 0.312500 0.250000
vt 0.250000 0.187500
vt 0.312500 0.187500
vt 0.250000 0.250000
vt 0.250000 0.187500
vt 0.312500 0.250000
vt 0.250000 0.250000
vt 0.250000 0.187500
vt 0.687500 0.187500
vt 0.750000 0.250000
vt 0.750000 0.187500
vt 0.750000 0.250000
vt 0.687500 0.187500
vt 0.750000 0.187500
vt 0.687500 0.250000
vt 0.687500 0.187500
vt 0.750000 0.250000
vt 0.687500 0.250000
vt 0.687500 0.187500
vt 0.687500 0.250000
vt 0.375000 0.062500
vt 0.437500 0.125000
vt 0.437500 0.062500
vt 0.437500 0.125000
vt 0.375000 0.062500
vt 0.437500 0.062500
vt 0.375000 0.125000
vt 0.375000 0.062500
vt 0.437500 0.125000
vt 0.375000 0.125000
vt 0.375000 0.062500
vt 0.375000 0.125000
vt 0.562500 0.062500
vt 0.625000 0.125000
vt 0.625000 0.062500
vt 0.625000 0.125000
vt 0.562500 0.062500
vt 0.625000 0.062500
vt 0.562500 0.125000
vt 0.562500 0.062500
vt 0.625000 0.125000
vt 0.562500 0.125000
vt 0.625000 0.062500
vt 0.562500 0.125000
vt 0.562500 0.062500
vt 0.500000 1.000000
vt 0.562500 0.062500
vt 0.500000 0.000000
vt 0.375000 0.937500
vt 0.437500 0.187500
vt 0.375000 0.125000
vt 0.625000 0.937500
vt 0.687500 0.187500
vt 0.625000 0.125000
vt 0.250000 0.875000
vt 0.312500 0.562500
vt 0.125000 0.500000
vt 0.875000 0.875000
vt 0.937500 0.562500
vt 0.750000 0.500000
vt 0.937500 0.500000
vt 0.312500 0.500000
vt 0.312500 0.375000
vt 0.187500 0.312500
vt 0.875000 0.500000
vt 0.875000 0.375000
vt 0.750000 0.312500
vt 0.250000 0.312500
vt 0.312500 0.312500
vt 0.250000 0.250000
vt 0.750000 0.312500
vt 0.812500 0.312500
vt 0.750000 0.250000
vt 0.250000 0.187500
vt 0.250000 0.250000
vt 0.312500 0.250000
vt 0.312500 0.187500
vt 0.312500 0.187500
vt 0.687500 0.250000
vt 0.750000 0.250000
vt 0.750000 0.187500
vt 0.750000 0.187500
vt 0.375000 0.125000
vt 0.437500 0.125000
vt 0.437500 0.062500
vt 0.437500 0.062500
vt 0.562500 0.125000
vt 0.625000 0.125000
vt 0.625000 0.062500
vn 0.3827 -0.9239 -0.0000
vn 0.9239 0.3827 0.0000
vn -0.3827 0.9239 -0.0000
vn -0.9239 -0.3827 -0.0000
vn 0.0000 0.0000 -1.0000
vn -0.0000 -0.0000 1.0000
usemtl Shield
s 1
f 2/1/1 4/2/1 1/3/1
f 1/4/2 6/5/2 5/6/2
f 5/6/3 8/7/3 7/8/3
f 7/8/4 3/9/4 2/10/4
f 6/11/5 3/12/5 8/13/5
f 1/4/6 7/8/6 2/10/6
f 10/14/1 12/15/1 9/16/1
f 9/17/2 14/18/2 13/19/2
f 13/19/3 16/20/3 15/21/3
f 15/21/4 11/22/4 10/23/4
f 14/24/5 11/25/5 16/26/5
f 9/17/6 15/21/6 10/23/6
f 18/27/1 20/28/1 17/29/1
f 17/30/2 22/31/2 21/32/2
f 21/32/3 24/33/3 23/34/3
f 23/34/4 19/35/4 18/36/4
f 22/37/5 19/38/5 24/39/5
f 17/30/6 23/34/6 18/36/6
f 26/40/1 28/41/1 25/42/1
f 25/43/2 30/44/2 29/45/2
f 29/45/3 32/46/3 31/47/3
f 31/47/4 27/48/4 26/49/4
f 30/50/5 27/51/5 32/52/5
f 25/43/6 31/47/6 26/49/6
f 34/53/1 36/54/1 33/55/1
f 33/56/2 38/57/2 37/58/2
f 37/58/3 40/59/3 39/60/3
f 39/60/4 35/61/4 34/62/4
f 40/63/5 36/54/5 35/64/5
f 33/56/6 39/60/6 34/62/6
f 42/65/1 44/66/1 41/67/1
f 45/68/2 44/69/2 46/70/2
f 45/68/3 48/71/3 47/72/3
f 47/72/4 43/73/4 42/74/4
f 46/75/5 43/76/5 48/77/5
f 42/74/6 45/68/6 47/72/6
f 50/78/1 52/79/1 49/80/1
f 53/81/2 52/82/2 54/83/2
f 53/81/3 56/84/3 55/85/3
f 55/85/4 51/86/4 50/87/4
f 54/88/5 51/89/5 56/90/5
f 50/87/6 53/81/6 55/85/6
f 58/91/1 60/92/1 57/93/1
f 57/94/2 62/95/2 61/96/2
f 61/96/3 64/97/3 63/98/3
f 63/98/4 59/99/4 58/100/4
f 62/101/5 59/102/5 64/103/5
f 58/100/6 61/96/6 63/98/6
f 66/104/1 68/105/1 65/106/1
f 65/107/2 70/108/2 69/109/2
f 69/109/3 72/110/3 71/111/3
f 71/111/4 67/112/4 66/113/4
f 70/114/5 67/115/5 72/116/5
f 65/107/6 71/111/6 66/113/6
f 73/117/1 75/118/1 76/119/1
f 73/120/2 78/121/2 77/122/2
f 77/122/3 80/123/3 79/124/3
f 79/124/4 75/125/4 74/126/4
f 80/127/5 76/119/5 75/118/5
f 73/120/6 79/124/6 74/126/6
f 82/128/1 84/129/1 81/130/1
f 81/131/2 86/132/2 85/133/2
f 85/133/3 88/134/3 87/135/3
f 87/135/4 83/136/4 82/137/4
f 88/138/5 84/129/5 83/139/5
f 81/131/6 87/135/6 82/137/6
f 90/140/1 92/141/1 89/142/1
f 89/143/2 94/144/2 93/145/2
f 93/145/3 96/146/3 95/147/3
f 95/147/4 91/148/4 90/149/4
f 96/150/5 92/141/5 91/151/5
f 89/143/6 95/147/6 90/149/6
f 98/152/1 100/153/1 97/154/1
f 97/155/2 102/156/2 101/157/2
f 101/157/3 104/158/3 103/159/3
f 103/159/4 99/160/4 98/161/4
f 102/162/5 99/163/5 104/164/5
f 97/155/6 103/159/6 98/161/6
f 2/1/1 3/12/1 4/2/1
f 1/4/2 4/165/2 6/5/2
f 5/6/3 6/166/3 8/7/3
f 7/8/4 8/167/4 3/9/4
f 6/11/5 4/2/5 3/12/5
f 1/4/6 5/6/6 7/8/6
f 10/14/1 11/25/1 12/15/1
f 9/17/2 12/168/2 14/18/2
f 13/19/3 14/169/3 16/20/3
f 15/21/4 16/170/4 11/22/4
f 14/24/5 12/15/5 11/25/5
f 9/17/6 13/19/6 15/21/6
f 18/27/1 19/38/1 20/28/1
f 17/30/2 20/171/2 22/31/2
f 21/32/3 22/172/3 24/33/3
f 23/34/4 24/173/4 19/35/4
f 22/37/5 20/28/5 19/38/5
f 17/30/6 21/32/6 23/34/6
f 26/40/1 27/51/1 28/41/1
f 25/43/2 28/174/2 30/44/2
f 29/45/3 30/175/3 32/46/3
f 31/47/4 32/176/4 27/48/4
f 30/50/5 28/41/5 27/51/5
f 25/43/6 29/45/6 31/47/6
f 34/53/1 35/64/1 36/54/1
f 33/56/2 36/177/2 38/57/2
f 37/58/3 38/178/3 40/59/3
f 39/60/4 40/179/4 35/61/4
f 40/63/5 38/180/5 36/54/5
f 33/56/6 37/58/6 39/60/6
f 42/65/1 43/76/1 44/66/1
f 45/68/2 41/181/2 44/69/2
f 45/68/3 46/182/3 48/71/3
f 47/72/4 48/183/4 43/73/4
f 46/75/5 44/66/5 43/76/5
f 42/74/6 41/181/6 45/68/6
f 50/78/1 51/89/1 52/79/1
f 53/81/2 49/184/2 52/82/2
f 53/81/3 54/185/3 56/84/3
f 55/85/4 56/186/4 51/86/4
f 54/88/5 52/79/5 51/89/5
f 50/87/6 49/184/6 53/81/6
f 58/91/1 59/102/1 60/92/1
f 57/94/2 60/187/2 62/95/2
f 61/96/3 62/188/3 64/97/3
f 63/98/4 64/189/4 59/99/4
f 62/101/5 60/92/5 59/102/5
f 58/100/6 57/94/6 61/96/6
f 66/104/1 67/115/1 68/105/1
f 65/107/2 68/190/2 70/108/2
f 69/109/3 70/191/3 72/110/3
f 71/111/4 72/192/4 67/112/4
f 70/114/5 68/105/5 67/115/5
f 65/107/6 69/109/6 71/111/6
f 73/117/1 74/193/1 75/118/1
f 73/120/2 76/194/2 78/121/2
f 77/122/3 78/195/3 80/123/3
f 79/124/4 80/196/4 75/125/4
f 80/127/5 78/197/5 76/119/5
f 73/120/6 77/122/6 79/124/6
f 82/128/1 83/139/1 84/129/1
f 81/131/2 84/198/2 86/132/2
f 85/133/3 86/199/3 88/134/3
f 87/135/4 88/200/4 83/136/4
f 88/138/5 86/201/5 84/129/5
f 81/131/6 85/133/6 87/135/6
f 90/140/1 91/151/1 92/141/1
f 89/143/2 92/202/2 94/144/2
f 93/145/3 94/203/3 96/146/3
f 95/147/4 96/204/4 91/148/4
f 96/150/5 94/205/5 92/141/5
f 89/143/6 93/145/6 95/147/6
f 98/152/1 99/163/1 100/153/1
f 97/155/2 100/206/2 102/156/2
f 101/157/3 102/207/3 104/158/3
f 103/159/4 104/208/4 99/160/4
f 102/162/5 100/153/5 99/163/5
f 97/155/6 101/157/6 103/159/6
