# Blender 3.4.1
# www.blender.org
mtllib lunar_bunny_tail.mtl
o lunar_bunny_tail
v 0.062500 -1.062500 -0.375000
v 0.062500 -1.062500 -0.250000
v 0.062500 -0.875000 -0.375000
v 0.062500 -0.875000 -0.250000
v -0.062500 -1.062500 -0.250000
v -0.062500 -1.062500 -0.375000
v -0.062500 -0.875000 -0.250000
v -0.062500 -0.875000 -0.375000
v 0.093750 -1.000000 -0.312500
v 0.093750 -1.000000 -0.125000
v 0.093750 -0.812500 -0.312500
v 0.093750 -0.812500 -0.125000
v -0.093750 -1.000000 -0.125000
v -0.093750 -1.000000 -0.312500
v -0.093750 -0.812500 -0.125000
v -0.093750 -0.812500 -0.312500
vn -0.0000 -0.0000 1.0000
vn 1.0000 -0.0000 -0.0000
vn -0.0000 -0.0000 -1.0000
vn -1.0000 -0.0000 -0.0000
vn -0.0000 -1.0000 -0.0000
vn -0.0000 1.0000 -0.0000
vt 0.375000 0.812500
vt 0.437500 0.625000
vt 0.500000 0.812500
vt 0.187500 0.625000
vt 0.500000 0.812500
vt 0.500000 0.687500
vt 0.375000 0.625000
vt 0.437500 0.437500
vt 0.000000 0.437500
vt 0.187500 0.437500
vt 0.500000 0.625000
vt 0.000000 0.312500
vt 0.312500 0.625000
vt 0.437500 0.625000
vt 0.625000 0.687500
vt 0.625000 0.812500
vt 0.312500 0.625000
vt 0.562500 0.625000
vt 0.437500 0.437500
vt 0.125000 0.312500
vt 0.312500 0.437500
vt 0.312500 0.437500
vt 0.562500 0.437500
vt 0.125000 0.437500
vt 0.000000 0.812500
vt 0.375000 1.000000
vt 0.000000 0.625000
vt 0.000000 1.000000
vt 0.187500 0.812500
vt 0.000000 0.437500
vt 0.000000 0.625000
vt 0.375000 0.812500
vt 0.375000 1.000000
vt 0.000000 0.812500
vt 0.187500 0.625000
vt 0.375000 0.812500
vt 0.187500 1.000000
vt 0.187500 0.812500
vt 0.187500 0.437500
vt 0.187500 0.625000
vt 0.187500 1.000000
vt 0.375000 0.812500
vt 0.187500 0.625000
vt 0.562500 0.812500
vt 0.187500 0.812500
vt 0.187500 0.812500
vt 0.375000 0.625000
vt 0.562500 1.000000
s 0
usemtl lunar_bunny_tail
f 7/21/1 2/4/1 4/10/1
f 4/11/2 1/1/2 3/7/2
f 3/8/3 6/17/3 8/22/3
f 8/23/4 5/14/4 7/19/4
f 1/3/5 5/15/5 6/16/5
f 4/12/6 8/24/6 7/20/6
f 15/45/1 10/28/1 12/34/1
f 12/35/2 9/25/2 11/31/2
f 11/32/3 14/41/3 16/46/3
f 16/47/4 13/38/4 15/43/4
f 9/27/5 13/39/5 14/40/5
f 12/36/6 16/48/6 15/44/6
f 7/21/1 5/13/1 2/4/1
f 4/11/2 2/5/2 1/1/2
f 3/8/3 1/2/3 6/17/3
f 8/23/4 6/18/4 5/14/4
f 1/3/5 2/6/5 5/15/5
f 4/12/6 3/9/6 8/24/6
f 15/45/1 13/37/1 10/28/1
f 12/35/2 10/29/2 9/25/2
f 11/32/3 9/26/3 14/41/3
f 16/47/4 14/42/4 13/38/4
f 9/27/5 10/30/5 13/39/5
f 12/36/6 11/33/6 16/48/6
