# Blender v3.2.0 OBJ File: 'Lunar_SnowGoggles.blend'
# www.blender.org
mtllib Lunar_SnowGoggles.mtl
o SnowGoggles_HeadStrapL
v -0.250001 -1.750000 0.250000
v -0.265626 -1.750000 0.250000
v -0.265626 -1.812500 0.250000
v -0.250001 -1.812500 0.250000
v -0.250000 -1.750000 -0.265625
v -0.250001 -1.812500 -0.265625
v -0.265625 -1.750000 -0.265625
v -0.265626 -1.812500 -0.265625
v 0.062499 -1.687500 0.312500
v -0.062501 -1.687500 0.312500
v -0.062501 -1.750000 0.312500
v 0.062499 -1.750000 0.312500
v 0.062499 -1.687500 0.250000
v 0.062499 -1.750000 0.250000
v -0.062501 -1.687500 0.250000
v -0.062501 -1.750000 0.250000
v 0.281249 -1.687500 0.312500
v 0.218749 -1.687500 0.312500
v 0.218749 -1.875000 0.312500
v 0.281249 -1.875000 0.312500
v 0.281249 -1.687500 0.250000
v 0.281249 -1.875000 0.250000
v 0.218749 -1.687500 0.250000
v 0.218749 -1.875000 0.250000
v -0.218751 -1.687500 0.312500
v -0.281251 -1.687500 0.312500
v -0.281251 -1.875000 0.312500
v -0.218751 -1.875000 0.312500
v -0.218751 -1.687500 0.250000
v -0.218751 -1.875000 0.250000
v -0.281251 -1.687500 0.250000
v -0.281251 -1.875000 0.250000
v -0.062501 -1.625000 0.312500
v -0.218751 -1.625000 0.312500
v -0.218751 -1.687500 0.312500
v -0.062501 -1.687500 0.312500
v -0.062501 -1.625000 0.250000
v -0.062501 -1.687500 0.250000
v -0.218751 -1.625000 0.250000
v -0.218751 -1.687500 0.250000
v 0.218749 -1.625000 0.312500
v 0.062499 -1.625000 0.312500
v 0.062499 -1.687500 0.312500
v 0.218749 -1.687500 0.312500
v 0.218749 -1.625000 0.250000
v 0.218749 -1.687500 0.250000
v 0.062499 -1.625000 0.250000
v 0.062499 -1.687500 0.250000
v 0.218749 -1.875000 0.312500
v -0.218751 -1.875000 0.312500
v -0.218751 -1.937500 0.312500
v 0.218749 -1.937500 0.312500
v 0.218749 -1.875000 0.250000
v 0.218749 -1.937500 0.250000
v -0.218751 -1.875000 0.250000
v -0.218751 -1.937500 0.250000
v 0.265624 -1.750000 0.250000
v 0.249999 -1.750000 0.250000
v 0.249999 -1.812500 0.250000
v 0.265624 -1.812500 0.250000
v 0.265625 -1.750000 -0.265625
v 0.265624 -1.812500 -0.265625
v 0.250000 -1.750000 -0.265625
v 0.250000 -1.812500 -0.265625
v 0.250000 -1.750000 -0.250000
v -0.250000 -1.750000 -0.250000
v -0.250001 -1.812500 -0.250000
v 0.250000 -1.812500 -0.250000
v 0.250000 -1.750000 -0.265625
v 0.250000 -1.812500 -0.265625
v -0.250000 -1.750000 -0.265625
v -0.250001 -1.812500 -0.265625
v 0.218749 -1.687500 0.265625
v -0.218751 -1.687500 0.265625
v -0.218751 -1.875000 0.265625
v 0.218749 -1.875000 0.265625
v 0.218749 -1.687500 0.265625
v 0.218749 -1.875000 0.265625
v -0.218751 -1.687500 0.265625
v -0.218751 -1.875000 0.265625
vt 0.140625 0.500000
vt 0.125000 0.531250
vt 0.125000 0.500000
vt 0.484375 0.968750
vt 0.218750 1.000000
vt 0.218750 0.968750
vt 0.171875 0.500000
vt 0.156250 0.531250
vt 0.156250 0.500000
vt 0.484375 0.937500
vt 0.218750 0.968750
vt 0.218750 0.937500
vt 0.062500 0.718750
vt 0.078125 0.453125
vt 0.078125 0.718750
vt 0.093750 0.453125
vt 0.109375 0.718750
vt 0.109375 0.453125
vt 0.375000 0.562500
vt 0.312500 0.593750
vt 0.312500 0.562500
vt 0.468750 0.812500
vt 0.437500 0.843750
vt 0.437500 0.812500
vt 0.437500 0.562500
vt 0.375000 0.593750
vt 0.375000 0.562500
vt 0.218750 0.531250
vt 0.187500 0.562500
vt 0.187500 0.531250
vt 0.125000 0.562500
vt 0.187500 0.531250
vt 0.187500 0.562500
vt 0.437500 0.843750
vt 0.500000 0.875000
vt 0.500000 0.843750
vt 0.156250 0.593750
vt 0.125000 0.687500
vt 0.125000 0.593750
vt 0.187500 0.593750
vt 0.156250 0.687500
vt 0.156250 0.593750
vt 0.218750 0.593750
vt 0.187500 0.687500
vt 0.187500 0.593750
vt 0.250000 0.593750
vt 0.218750 0.687500
vt 0.218750 0.593750
vt 0.218750 0.562500
vt 0.250000 0.531250
vt 0.250000 0.562500
vt 0.250000 0.531250
vt 0.281250 0.562500
vt 0.281250 0.531250
vt 0.281250 0.593750
vt 0.250000 0.687500
vt 0.250000 0.593750
vt 0.312500 0.593750
vt 0.281250 0.687500
vt 0.281250 0.593750
vt 0.343750 0.593750
vt 0.312500 0.687500
vt 0.312500 0.593750
vt 0.375000 0.593750
vt 0.343750 0.687500
vt 0.343750 0.593750
vt 0.437500 0.750000
vt 0.468750 0.718750
vt 0.468750 0.750000
vt 0.281250 0.531250
vt 0.312500 0.562500
vt 0.312500 0.531250
vt 0.359375 0.750000
vt 0.281250 0.781250
vt 0.281250 0.750000
vt 0.343750 0.531250
vt 0.312500 0.562500
vt 0.312500 0.531250
vt 0.453125 0.750000
vt 0.375000 0.781250
vt 0.375000 0.750000
vt 0.375000 0.531250
vt 0.343750 0.562500
vt 0.343750 0.531250
vt 0.375000 0.718750
vt 0.453125 0.687500
vt 0.453125 0.718750
vt 0.375000 0.656250
vt 0.453125 0.687500
vt 0.453125 0.656250
vt 0.453125 0.625000
vt 0.375000 0.656250
vt 0.375000 0.625000
vt 0.406250 0.531250
vt 0.375000 0.562500
vt 0.375000 0.531250
vt 0.453125 0.593750
vt 0.375000 0.625000
vt 0.375000 0.593750
vt 0.437500 0.531250
vt 0.406250 0.562500
vt 0.406250 0.531250
vt 0.125000 0.593750
vt 0.203125 0.562500
vt 0.203125 0.593750
vt 0.218750 0.562500
vt 0.296875 0.593750
vt 0.296875 0.562500
vt 0.437500 0.843750
vt 0.218750 0.875000
vt 0.218750 0.843750
vt 0.468750 0.562500
vt 0.437500 0.593750
vt 0.437500 0.562500
vt 0.437500 0.812500
vt 0.218750 0.843750
vt 0.218750 0.812500
vt 0.468750 0.531250
vt 0.437500 0.562500
vt 0.437500 0.531250
vt 0.000000 0.750000
vt 0.218750 0.718750
vt 0.218750 0.750000
vt 0.218750 0.718750
vt 0.437500 0.750000
vt 0.437500 0.718750
vt 0.484375 0.906250
vt 0.468750 0.937500
vt 0.468750 0.906250
vt 0.265625 0.781250
vt 0.000000 0.812500
vt 0.000000 0.781250
vt 0.484375 0.875000
vt 0.468750 0.906250
vt 0.468750 0.875000
vt 0.265625 0.750000
vt 0.000000 0.781250
vt 0.000000 0.750000
vt 0.000000 0.718750
vt 0.015625 0.453125
vt 0.015625 0.718750
vt 0.031250 0.453125
vt 0.046875 0.718750
vt 0.046875 0.453125
vt 0.468750 0.906250
vt 0.218750 0.937500
vt 0.218750 0.906250
vt 0.484375 0.812500
vt 0.468750 0.843750
vt 0.468750 0.812500
vt 0.468750 0.875000
vt 0.218750 0.906250
vt 0.218750 0.875000
vt 0.203125 0.500000
vt 0.187500 0.531250
vt 0.187500 0.500000
vt 0.125000 0.718750
vt 0.375000 0.703125
vt 0.375000 0.718750
vt 0.281250 0.796875
vt 0.531250 0.812500
vt 0.531250 0.796875
vt 0.218750 0.906250
vt 0.000000 1.000000
vt 0.000000 0.906250
vt 0.000000 0.906250
vt 0.000000 1.000000
vt 0.218750 0.812500
vt 0.000000 0.906250
vt 0.000000 0.812500
vt 0.000000 0.906250
vt 0.000000 1.000000
vt 0.000000 1.000000
vt 0.218750 1.000000
vt 0.218750 1.000000
vt 0.218750 1.000000
vt 0.000000 1.000000
vt 0.218750 1.000000
vt 0.140625 0.531250
vt 0.484375 1.000000
vt 0.171875 0.531250
vt 0.484375 0.968750
vt 0.062500 0.453125
vt 0.093750 0.718750
vt 0.375000 0.593750
vt 0.468750 0.843750
vt 0.437500 0.593750
vt 0.218750 0.562500
vt 0.125000 0.531250
vt 0.437500 0.875000
vt 0.156250 0.687500
vt 0.187500 0.687500
vt 0.218750 0.687500
vt 0.250000 0.687500
vt 0.218750 0.531250
vt 0.250000 0.562500
vt 0.281250 0.687500
vt 0.312500 0.687500
vt 0.343750 0.687500
vt 0.375000 0.687500
vt 0.437500 0.718750
vt 0.281250 0.562500
vt 0.359375 0.781250
vt 0.343750 0.562500
vt 0.453125 0.781250
vt 0.375000 0.562500
vt 0.375000 0.687500
vt 0.375000 0.687500
vt 0.453125 0.656250
vt 0.406250 0.562500
vt 0.453125 0.625000
vt 0.437500 0.562500
vt 0.125000 0.562500
vt 0.218750 0.593750
vt 0.437500 0.875000
vt 0.468750 0.593750
vt 0.437500 0.843750
vt 0.468750 0.562500
vt 0.000000 0.718750
vt 0.218750 0.750000
vt 0.484375 0.937500
vt 0.265625 0.812500
vt 0.484375 0.906250
vt 0.265625 0.781250
vt 0.000000 0.453125
vt 0.031250 0.718750
vt 0.468750 0.937500
vt 0.484375 0.843750
vt 0.468750 0.906250
vt 0.203125 0.531250
vt 0.125000 0.703125
vt 0.281250 0.812500
vt 0.218750 0.906250
vt 0.000000 0.906250
vt 0.000000 1.000000
vn 0.0000 -0.0000 1.0000
vn 1.0000 -0.0000 0.0000
vn 0.0000 0.0000 -1.0000
vn -1.0000 0.0000 -0.0000
vn 0.0000 -1.0000 -0.0000
vn 0.0000 1.0000 0.0000
vn 0.0000 0.0000 -0.0000
usemtl SnowGoggles
s 1
f 2/1/1 4/2/1 1/3/1
f 1/4/2 6/5/2 5/6/2
f 5/7/3 8/8/3 7/9/3
f 7/10/4 3/11/4 2/12/4
f 6/13/5 3/14/5 8/15/5
f 1/16/6 7/17/6 2/18/6
f 10/19/1 12/20/1 9/21/1
f 9/22/2 14/23/2 13/24/2
f 13/25/3 16/26/3 15/27/3
f 15/28/4 11/29/4 10/30/4
f 14/31/5 11/32/5 16/33/5
f 9/34/6 15/35/6 10/36/6
f 18/37/1 20/38/1 17/39/1
f 17/40/2 22/41/2 21/42/2
f 21/43/3 24/44/3 23/45/3
f 23/46/4 19/47/4 18/48/4
f 22/49/5 19/50/5 24/51/5
f 17/52/6 23/53/6 18/54/6
f 26/55/1 28/56/1 25/57/1
f 25/58/2 30/59/2 29/60/2
f 29/61/3 32/62/3 31/63/3
f 31/64/4 27/65/4 26/66/4
f 30/67/5 27/68/5 32/69/5
f 25/70/6 31/71/6 26/72/6
f 34/73/1 36/74/1 33/75/1
f 33/76/2 38/77/2 37/78/2
f 37/79/3 40/80/3 39/81/3
f 39/82/4 35/83/4 34/84/4
f 38/85/5 35/86/5 40/87/5
f 33/88/6 39/89/6 34/90/6
f 42/91/1 44/92/1 41/93/1
f 41/94/2 46/95/2 45/96/2
f 45/97/3 48/98/3 47/99/3
f 47/100/4 43/101/4 42/102/4
f 46/103/5 43/104/5 48/105/5
f 41/106/6 47/107/6 42/108/6
f 50/109/1 52/110/1 49/111/1
f 49/112/2 54/113/2 53/114/2
f 53/115/3 56/116/3 55/117/3
f 55/118/4 51/119/4 50/120/4
f 54/121/5 51/122/5 56/123/5
f 49/124/6 55/125/6 50/126/6
f 58/127/1 60/128/1 57/129/1
f 57/130/2 62/131/2 61/132/2
f 61/133/3 64/134/3 63/135/3
f 63/136/4 59/137/4 58/138/4
f 62/139/5 59/140/5 64/141/5
f 57/142/6 63/143/6 58/144/6
f 66/145/1 68/146/1 65/147/1
f 65/148/2 70/149/2 69/150/2
f 69/151/3 72/152/3 71/153/3
f 71/154/4 67/155/4 66/156/4
f 70/157/5 67/158/5 72/159/5
f 65/160/6 71/161/6 66/162/6
f 74/163/1 76/164/1 73/165/1
f 77/166/7 76/164/7 78/167/4
f 77/168/3 80/169/3 79/170/3
f 74/171/7 80/172/7 75/173/2
f 80/174/6 76/164/6 75/175/7
f 74/176/5 77/177/5 79/178/7
f 2/1/1 3/179/1 4/2/1
f 1/4/2 4/180/2 6/5/2
f 5/7/3 6/181/3 8/8/3
f 7/10/4 8/182/4 3/11/4
f 6/13/5 4/183/5 3/14/5
f 1/16/6 5/184/6 7/17/6
f 10/19/1 11/185/1 12/20/1
f 9/22/2 12/186/2 14/23/2
f 13/25/3 14/187/3 16/26/3
f 15/28/4 16/188/4 11/29/4
f 14/31/5 12/189/5 11/32/5
f 9/34/6 13/190/6 15/35/6
f 18/37/1 19/191/1 20/38/1
f 17/40/2 20/192/2 22/41/2
f 21/43/3 22/193/3 24/44/3
f 23/46/4 24/194/4 19/47/4
f 22/49/5 20/195/5 19/50/5
f 17/52/6 21/196/6 23/53/6
f 26/55/1 27/197/1 28/56/1
f 25/58/2 28/198/2 30/59/2
f 29/61/3 30/199/3 32/62/3
f 31/64/4 32/200/4 27/65/4
f 30/67/5 28/201/5 27/68/5
f 25/70/6 29/202/6 31/71/6
f 34/73/1 35/203/1 36/74/1
f 33/76/2 36/204/2 38/77/2
f 37/79/3 38/205/3 40/80/3
f 39/82/4 40/206/4 35/83/4
f 38/85/5 36/207/5 35/86/5
f 33/88/6 37/208/6 39/89/6
f 42/91/1 43/209/1 44/92/1
f 41/94/2 44/210/2 46/95/2
f 45/97/3 46/211/3 48/98/3
f 47/100/4 48/212/4 43/101/4
f 46/103/5 44/213/5 43/104/5
f 41/106/6 45/214/6 47/107/6
f 50/109/1 51/215/1 52/110/1
f 49/112/2 52/216/2 54/113/2
f 53/115/3 54/217/3 56/116/3
f 55/118/4 56/218/4 51/119/4
f 54/121/5 52/219/5 51/122/5
f 49/124/6 53/220/6 55/125/6
f 58/127/1 59/221/1 60/128/1
f 57/130/2 60/222/2 62/131/2
f 61/133/3 62/223/3 64/134/3
f 63/136/4 64/224/4 59/137/4
f 62/139/5 60/225/5 59/140/5
f 57/142/6 61/226/6 63/143/6
f 66/145/1 67/227/1 68/146/1
f 65/148/2 68/228/2 70/149/2
f 69/151/3 70/229/3 72/152/3
f 71/154/4 72/230/4 67/155/4
f 70/157/5 68/231/5 67/158/5
f 65/160/6 69/232/6 71/161/6
f 74/163/1 75/175/1 76/164/1
f 77/166/7 73/165/4 76/164/7
f 77/168/3 78/233/3 80/169/3
f 74/171/7 79/234/2 80/172/7
f 80/174/6 78/167/7 76/164/6
f 74/176/5 73/235/7 77/177/5
