# Blender v3.2.0 OBJ File: 'Lunar_MageHatWithoutTip.blend'
# www.blender.org
mtllib Lunar_MageHatWithoutTip.mtl
o MageHatWithoutTip_Bottom
v 0.437499 -1.890625 0.437500
v -0.437501 -1.890625 0.437500
v -0.437501 -1.953125 0.437500
v 0.437499 -1.953125 0.437500
v 0.437500 -1.890625 -0.437500
v 0.437500 -1.953125 -0.437500
v -0.437500 -1.890625 -0.437500
v -0.437500 -1.953125 -0.437500
v 0.249999 -1.953125 0.250000
v -0.250001 -1.953125 0.250000
v -0.250001 -2.203125 0.250000
v 0.249999 -2.203125 0.250000
v 0.249999 -1.953125 -0.250000
v 0.249999 -2.203125 -0.250000
v -0.250001 -1.953125 -0.250000
v -0.250001 -2.203125 -0.250000
v 0.187499 -2.121252 0.206286
v -0.187501 -2.121252 0.206285
v -0.187501 -2.426344 0.138648
v 0.187499 -2.426344 0.138648
v 0.187499 -2.040087 -0.159825
v 0.187499 -2.345179 -0.227463
v -0.187501 -2.040087 -0.159826
v -0.187501 -2.345179 -0.227463
v 0.124999 -2.648130 -0.063514
v -0.125001 -2.648130 -0.063515
v -0.125001 -2.480806 -0.399115
v 0.124999 -2.480806 -0.399115
v 0.124999 -2.424396 0.048035
v 0.124999 -2.257072 -0.287565
v -0.125001 -2.424396 0.048035
v -0.125001 -2.257072 -0.287565
v 0.031249 -2.368519 -0.564414
v -0.031251 -2.368519 -0.564414
v -0.031251 -2.472007 -0.720767
v 0.031249 -2.472007 -0.720767
v 0.031249 -2.316401 -0.598910
v 0.031250 -2.419889 -0.755263
v -0.031251 -2.316401 -0.598910
v -0.031250 -2.419889 -0.755263
v 0.156249 -2.332963 0.142946
v -0.156251 -2.332963 0.142946
v -0.156251 -2.616184 0.010878
v 0.156249 -2.616184 0.010878
v 0.156249 -2.200895 -0.140275
v 0.156249 -2.484116 -0.272343
v -0.156251 -2.200895 -0.140275
v -0.156251 -2.484116 -0.272343
v 0.093749 -2.532929 -0.149033
v -0.093751 -2.532929 -0.149033
v -0.093751 -2.421726 -0.507166
v 0.093749 -2.421726 -0.507166
v 0.093749 -2.353863 -0.093432
v 0.093749 -2.242660 -0.451564
v -0.093751 -2.353863 -0.093432
v -0.093751 -2.242660 -0.451564
v 0.062499 -2.374604 -0.418065
v -0.062501 -2.374604 -0.418065
v -0.062501 -2.423923 -0.598963
v 0.062499 -2.423923 -0.598962
v 0.062499 -2.254006 -0.450944
v 0.062499 -2.303324 -0.631841
v -0.062501 -2.254006 -0.450944
v -0.062501 -2.303324 -0.631841
v 0.078124 -1.953125 0.312500
v -0.078126 -1.953125 0.312500
v -0.078126 -1.984375 0.312500
v 0.078124 -1.984375 0.312500
v 0.078124 -1.953125 0.281250
v 0.078124 -1.984375 0.281250
v -0.078126 -1.953125 0.281250
v -0.078126 -1.984375 0.281250
v 0.078124 -2.046875 0.312500
v -0.078126 -2.046875 0.312500
v -0.078126 -2.078125 0.312500
v 0.078124 -2.078125 0.312500
v 0.078124 -2.046875 0.281250
v 0.078124 -2.078125 0.281250
v -0.078126 -2.046875 0.281250
v -0.078126 -2.078125 0.281250
v 0.078124 -1.984375 0.312500
v 0.046874 -1.984375 0.312500
v 0.046874 -2.046875 0.312500
v 0.078124 -2.046875 0.312500
v 0.078124 -1.984375 0.281250
v 0.078124 -2.046875 0.281250
v 0.046874 -1.984375 0.281250
v 0.046874 -2.046875 0.281250
v -0.046876 -1.984375 0.312500
v -0.078126 -1.984375 0.312500
v -0.078126 -2.046875 0.312500
v -0.046876 -2.046875 0.312500
v -0.046876 -1.984375 0.281250
v -0.046876 -2.046875 0.281250
v -0.078126 -1.984375 0.281250
v -0.078126 -2.046875 0.281250
v 0.281249 -1.953125 0.281250
v -0.281251 -1.953125 0.281250
v -0.281251 -2.046875 0.281250
v 0.281249 -2.046875 0.281250
v 0.281249 -1.953125 -0.281250
v 0.281249 -2.046875 -0.281250
v -0.281251 -1.953125 -0.281250
v -0.281251 -2.046875 -0.281250
vt 0.765625 0.687500
vt 0.546875 0.703125
vt 0.546875 0.687500
vt 0.765625 0.671875
vt 0.546875 0.687500
vt 0.546875 0.671875
vt 0.765625 0.656250
vt 0.546875 0.671875
vt 0.546875 0.656250
vt 0.765625 0.640625
vt 0.546875 0.656250
vt 0.546875 0.640625
vt 0.000000 1.000000
vt 0.218750 0.781250
vt 0.218750 1.000000
vt 0.000000 0.562500
vt 0.218750 0.781250
vt 0.218750 0.562500
vt 0.484375 0.750000
vt 0.359375 0.812500
vt 0.359375 0.750000
vt 0.343750 0.531250
vt 0.218750 0.593750
vt 0.218750 0.531250
vt 0.468750 0.531250
vt 0.343750 0.593750
vt 0.343750 0.531250
vt 0.125000 0.500000
vt 0.000000 0.562500
vt 0.000000 0.500000
vt 0.218750 0.718750
vt 0.343750 0.593750
vt 0.343750 0.718750
vt 0.343750 0.593750
vt 0.468750 0.718750
vt 0.468750 0.593750
vt 0.218750 0.484375
vt 0.125000 0.562500
vt 0.125000 0.484375
vt 0.546875 0.921875
vt 0.453125 1.000000
vt 0.453125 0.921875
vt 0.546875 0.843750
vt 0.453125 0.921875
vt 0.453125 0.843750
vt 0.312500 0.453125
vt 0.218750 0.531250
vt 0.218750 0.453125
vt 0.359375 1.000000
vt 0.453125 0.906250
vt 0.453125 1.000000
vt 0.359375 0.812500
vt 0.453125 0.906250
vt 0.453125 0.812500
vt 0.531250 0.421875
vt 0.468750 0.515625
vt 0.468750 0.421875
vt 0.062500 0.406250
vt 0.000000 0.500000
vt 0.000000 0.406250
vt 0.125000 0.406250
vt 0.062500 0.500000
vt 0.062500 0.406250
vt 0.187500 0.390625
vt 0.125000 0.484375
vt 0.125000 0.390625
vt 0.546875 0.906250
vt 0.609375 0.843750
vt 0.609375 0.906250
vt 0.546875 0.703125
vt 0.609375 0.765625
vt 0.609375 0.703125
vt 0.421875 0.375000
vt 0.406250 0.421875
vt 0.406250 0.375000
vt 0.468750 0.375000
vt 0.484375 0.421875
vt 0.468750 0.421875
vt 0.500000 0.375000
vt 0.484375 0.421875
vt 0.484375 0.375000
vt 0.593750 0.468750
vt 0.578125 0.515625
vt 0.578125 0.468750
vt 0.453125 0.750000
vt 0.468750 0.734375
vt 0.468750 0.750000
vt 0.453125 0.718750
vt 0.468750 0.734375
vt 0.468750 0.718750
vt 0.546875 0.671875
vt 0.468750 0.750000
vt 0.468750 0.671875
vt 0.390625 0.453125
vt 0.312500 0.531250
vt 0.312500 0.453125
vt 0.546875 0.593750
vt 0.468750 0.671875
vt 0.468750 0.593750
vt 0.468750 0.453125
vt 0.390625 0.531250
vt 0.390625 0.453125
vt 0.468750 0.593750
vt 0.546875 0.515625
vt 0.546875 0.593750
vt 0.484375 0.765625
vt 0.562500 0.843750
vt 0.562500 0.765625
vt 0.578125 0.421875
vt 0.531250 0.515625
vt 0.531250 0.421875
vt 0.593750 0.906250
vt 0.546875 1.000000
vt 0.546875 0.906250
vt 0.234375 0.359375
vt 0.187500 0.453125
vt 0.187500 0.359375
vt 0.281250 0.359375
vt 0.234375 0.453125
vt 0.234375 0.359375
vt 0.421875 0.453125
vt 0.468750 0.406250
vt 0.468750 0.453125
vt 0.562500 0.796875
vt 0.609375 0.843750
vt 0.609375 0.796875
vt 0.312500 0.375000
vt 0.281250 0.421875
vt 0.281250 0.375000
vt 0.312500 0.375000
vt 0.343750 0.421875
vt 0.312500 0.421875
vt 0.375000 0.375000
vt 0.343750 0.421875
vt 0.343750 0.375000
vt 0.406250 0.375000
vt 0.375000 0.421875
vt 0.375000 0.375000
vt 0.359375 0.750000
vt 0.390625 0.718750
vt 0.390625 0.750000
vt 0.390625 0.718750
vt 0.421875 0.750000
vt 0.421875 0.718750
vt 0.523438 0.757812
vt 0.484375 0.765625
vt 0.484375 0.757812
vt 0.601562 0.914062
vt 0.593750 0.921875
vt 0.593750 0.914062
vt 0.539062 0.414062
vt 0.500000 0.421875
vt 0.500000 0.414062
vt 0.101562 0.398438
vt 0.093750 0.406250
vt 0.093750 0.398438
vt 0.578125 0.468750
vt 0.617188 0.460938
vt 0.617188 0.468750
vt 0.546875 0.414062
vt 0.585938 0.421875
vt 0.585938 0.414062
vt 0.617188 0.445312
vt 0.578125 0.453125
vt 0.578125 0.445312
vt 0.117188 0.398438
vt 0.109375 0.406250
vt 0.109375 0.398438
vt 0.617188 0.429688
vt 0.578125 0.437500
vt 0.578125 0.429688
vt 0.601562 0.789062
vt 0.593750 0.796875
vt 0.593750 0.789062
vt 0.000000 0.406250
vt 0.039062 0.398438
vt 0.039062 0.406250
vt 0.593750 0.992188
vt 0.632812 1.000000
vt 0.632812 0.992188
vt 0.539062 0.750000
vt 0.531250 0.765625
vt 0.531250 0.750000
vt 0.601562 0.968750
vt 0.593750 0.984375
vt 0.593750 0.968750
vt 0.601562 0.953125
vt 0.593750 0.968750
vt 0.593750 0.953125
vt 0.054688 0.390625
vt 0.046875 0.406250
vt 0.046875 0.390625
vt 0.593750 0.781250
vt 0.601562 0.773438
vt 0.601562 0.781250
vt 0.421875 0.398438
vt 0.429688 0.406250
vt 0.429688 0.398438
vt 0.601562 0.937500
vt 0.593750 0.953125
vt 0.593750 0.937500
vt 0.070312 0.390625
vt 0.062500 0.406250
vt 0.062500 0.390625
vt 0.601562 0.921875
vt 0.593750 0.937500
vt 0.593750 0.921875
vt 0.085938 0.390625
vt 0.078125 0.406250
vt 0.078125 0.390625
vt 0.437500 0.406250
vt 0.445312 0.398438
vt 0.445312 0.406250
vt 0.453125 0.398438
vt 0.460938 0.406250
vt 0.460938 0.398438
vt 0.421875 0.429688
vt 0.281250 0.453125
vt 0.281250 0.429688
vt 0.687500 0.617188
vt 0.546875 0.640625
vt 0.546875 0.617188
vt 0.687500 0.585938
vt 0.546875 0.609375
vt 0.546875 0.585938
vt 0.687500 0.554688
vt 0.546875 0.578125
vt 0.546875 0.554688
vt 0.218750 1.000000
vt 0.359375 0.859375
vt 0.359375 1.000000
vt 0.218750 0.718750
vt 0.359375 0.859375
vt 0.359375 0.718750
vt 0.765625 0.703125
vt 0.765625 0.687500
vt 0.765625 0.671875
vt 0.765625 0.656250
vt 0.000000 0.781250
vt 0.000000 0.781250
vt 0.484375 0.812500
vt 0.343750 0.593750
vt 0.468750 0.593750
vt 0.125000 0.562500
vt 0.218750 0.593750
vt 0.343750 0.718750
vt 0.218750 0.562500
vt 0.546875 1.000000
vt 0.546875 0.921875
vt 0.312500 0.531250
vt 0.359375 0.906250
vt 0.359375 0.906250
vt 0.531250 0.515625
vt 0.062500 0.500000
vt 0.125000 0.500000
vt 0.187500 0.484375
vt 0.546875 0.843750
vt 0.546875 0.765625
vt 0.421875 0.421875
vt 0.484375 0.375000
vt 0.500000 0.421875
vt 0.593750 0.515625
vt 0.453125 0.734375
vt 0.453125 0.734375
vt 0.546875 0.750000
vt 0.390625 0.531250
vt 0.546875 0.671875
vt 0.468750 0.531250
vt 0.468750 0.515625
vt 0.484375 0.843750
vt 0.578125 0.515625
vt 0.593750 1.000000
vt 0.234375 0.453125
vt 0.281250 0.453125
vt 0.421875 0.406250
vt 0.562500 0.843750
vt 0.312500 0.421875
vt 0.343750 0.375000
vt 0.375000 0.421875
vt 0.406250 0.421875
vt 0.359375 0.718750
vt 0.390625 0.750000
vt 0.523438 0.765625
vt 0.601562 0.921875
vt 0.539062 0.421875
vt 0.101562 0.406250
vt 0.578125 0.460938
vt 0.546875 0.421875
vt 0.617188 0.453125
vt 0.117188 0.406250
vt 0.617188 0.437500
vt 0.601562 0.796875
vt 0.000000 0.398438
vt 0.593750 1.000000
vt 0.539062 0.765625
vt 0.601562 0.984375
vt 0.601562 0.968750
vt 0.054688 0.406250
vt 0.593750 0.773438
vt 0.421875 0.406250
vt 0.601562 0.953125
vt 0.070312 0.406250
vt 0.601562 0.937500
vt 0.085938 0.406250
vt 0.437500 0.398438
vt 0.453125 0.406250
vt 0.421875 0.453125
vt 0.687500 0.640625
vt 0.687500 0.609375
vt 0.687500 0.578125
vt 0.218750 0.859375
vt 0.218750 0.859375
vn -0.0000 0.0000 1.0000
vn 1.0000 0.0000 0.0000
vn 0.0000 0.0000 -1.0000
vn -1.0000 0.0000 -0.0000
vn -0.0000 -1.0000 -0.0000
vn 0.0000 1.0000 0.0000
vn -0.0000 -0.2164 0.9763
vn 0.0000 0.2164 -0.9763
vn 0.0000 -0.9763 -0.2164
vn -0.0000 0.9763 0.2164
vn 0.0000 -0.8949 -0.4462
vn -0.0000 0.8949 0.4462
vn 0.0000 0.4462 -0.8949
vn -0.0000 -0.4462 0.8949
vn 0.0000 -0.8339 0.5519
vn 0.0000 0.8339 -0.5519
vn 0.0000 -0.5519 -0.8339
vn -0.0000 0.5519 0.8339
vn -0.0000 -0.4226 0.9063
vn 0.0000 0.4226 -0.9063
vn 0.0000 -0.9063 -0.4226
vn -0.0000 0.9063 0.4226
vn 0.0000 -0.9550 -0.2965
vn -0.0000 0.9550 0.2965
vn 0.0000 0.2965 -0.9550
vn -0.0000 -0.2965 0.9550
vn -0.0000 -0.9648 0.2630
vn 0.0000 0.9648 -0.2630
vn 0.0000 -0.2630 -0.9648
vn -0.0000 0.2630 0.9648
usemtl MageHatWithoutTip
s 1
f 2/1/1 4/2/1 1/3/1
f 1/4/2 6/5/2 5/6/2
f 5/7/3 8/8/3 7/9/3
f 7/10/4 3/11/4 2/12/4
f 6/13/5 3/14/5 8/15/5
f 1/16/6 7/17/6 2/18/6
f 10/19/1 12/20/1 9/21/1
f 9/22/2 14/23/2 13/24/2
f 13/25/3 16/26/3 15/27/3
f 15/28/4 11/29/4 10/30/4
f 14/31/5 11/32/5 16/33/5
f 9/34/6 15/35/6 10/36/6
f 18/37/7 20/38/7 17/39/7
f 17/40/2 22/41/2 21/42/2
f 21/43/8 24/44/8 23/45/8
f 23/46/4 19/47/4 18/48/4
f 22/49/9 19/50/9 24/51/9
f 17/52/10 23/53/10 18/54/10
f 26/55/11 28/56/11 25/57/11
f 25/58/2 30/59/2 29/60/2
f 29/61/12 32/62/12 31/63/12
f 31/64/4 27/65/4 26/66/4
f 30/67/13 27/68/13 32/69/13
f 25/70/14 31/71/14 26/72/14
f 34/73/15 36/74/15 33/75/15
f 37/76/2 36/77/2 38/78/2
f 37/79/16 40/80/16 39/81/16
f 39/82/4 35/83/4 34/84/4
f 38/85/17 35/86/17 40/87/17
f 33/88/18 39/89/18 34/90/18
f 42/91/19 44/92/19 41/93/19
f 41/94/2 46/95/2 45/96/2
f 45/97/20 48/98/20 47/99/20
f 47/100/4 43/101/4 42/102/4
f 46/103/21 43/104/21 48/105/21
f 41/106/22 47/107/22 42/108/22
f 50/109/23 52/110/23 49/111/23
f 49/112/2 54/113/2 53/114/2
f 53/115/24 56/116/24 55/117/24
f 55/118/4 51/119/4 50/120/4
f 54/121/25 51/122/25 56/123/25
f 49/124/26 55/125/26 50/126/26
f 58/127/27 60/128/27 57/129/27
f 61/130/2 60/131/2 62/132/2
f 61/133/28 64/134/28 63/135/28
f 63/136/4 59/137/4 58/138/4
f 62/139/29 59/140/29 64/141/29
f 57/142/30 63/143/30 58/144/30
f 66/145/1 68/146/1 65/147/1
f 65/148/2 70/149/2 69/150/2
f 69/151/3 72/152/3 71/153/3
f 71/154/4 67/155/4 66/156/4
f 70/157/5 67/158/5 72/159/5
f 65/160/6 71/161/6 66/162/6
f 74/163/1 76/164/1 73/165/1
f 73/166/2 78/167/2 77/168/2
f 77/169/3 80/170/3 79/171/3
f 79/172/4 75/173/4 74/174/4
f 78/175/5 75/176/5 80/177/5
f 73/178/6 79/179/6 74/180/6
f 82/181/1 84/182/1 81/183/1
f 81/184/2 86/185/2 85/186/2
f 85/187/3 88/188/3 87/189/3
f 87/190/4 83/191/4 82/192/4
f 86/193/5 83/194/5 88/195/5
f 81/196/6 87/197/6 82/198/6
f 90/199/1 92/200/1 89/201/1
f 89/202/2 94/203/2 93/204/2
f 93/205/3 96/206/3 95/207/3
f 95/208/4 91/209/4 90/210/4
f 94/211/5 91/212/5 96/213/5
f 89/214/6 95/215/6 90/216/6
f 98/217/1 100/218/1 97/219/1
f 97/220/2 102/221/2 101/222/2
f 101/223/3 104/224/3 103/225/3
f 103/226/4 99/227/4 98/228/4
f 102/229/5 99/230/5 104/231/5
f 97/232/6 103/233/6 98/234/6
f 2/1/1 3/235/1 4/2/1
f 1/4/2 4/236/2 6/5/2
f 5/7/3 6/237/3 8/8/3
f 7/10/4 8/238/4 3/11/4
f 6/13/5 4/239/5 3/14/5
f 1/16/6 5/240/6 7/17/6
f 10/19/1 11/241/1 12/20/1
f 9/22/2 12/242/2 14/23/2
f 13/25/3 14/243/3 16/26/3
f 15/28/4 16/244/4 11/29/4
f 14/31/5 12/245/5 11/32/5
f 9/34/6 13/246/6 15/35/6
f 18/37/7 19/247/7 20/38/7
f 17/40/2 20/248/2 22/41/2
f 21/43/8 22/249/8 24/44/8
f 23/46/4 24/250/4 19/47/4
f 22/49/9 20/251/9 19/50/9
f 17/52/10 21/252/10 23/53/10
f 26/55/11 27/253/11 28/56/11
f 25/58/2 28/254/2 30/59/2
f 29/61/12 30/255/12 32/62/12
f 31/64/4 32/256/4 27/65/4
f 30/67/13 28/257/13 27/68/13
f 25/70/14 29/258/14 31/71/14
f 34/73/15 35/259/15 36/74/15
f 37/76/2 33/260/2 36/77/2
f 37/79/16 38/261/16 40/80/16
f 39/82/4 40/262/4 35/83/4
f 38/85/17 36/263/17 35/86/17
f 33/88/18 37/264/18 39/89/18
f 42/91/19 43/265/19 44/92/19
f 41/94/2 44/266/2 46/95/2
f 45/97/20 46/267/20 48/98/20
f 47/100/4 48/268/4 43/101/4
f 46/103/21 44/269/21 43/104/21
f 41/106/22 45/270/22 47/107/22
f 50/109/23 51/271/23 52/110/23
f 49/112/2 52/272/2 54/113/2
f 53/115/24 54/273/24 56/116/24
f 55/118/4 56/274/4 51/119/4
f 54/121/25 52/275/25 51/122/25
f 49/124/26 53/276/26 55/125/26
f 58/127/27 59/277/27 60/128/27
f 61/130/2 57/278/2 60/131/2
f 61/133/28 62/279/28 64/134/28
f 63/136/4 64/280/4 59/137/4
f 62/139/29 60/281/29 59/140/29
f 57/142/30 61/282/30 63/143/30
f 66/145/1 67/283/1 68/146/1
f 65/148/2 68/284/2 70/149/2
f 69/151/3 70/285/3 72/152/3
f 71/154/4 72/286/4 67/155/4
f 70/157/5 68/287/5 67/158/5
f 65/160/6 69/288/6 71/161/6
f 74/163/1 75/289/1 76/164/1
f 73/166/2 76/290/2 78/167/2
f 77/169/3 78/291/3 80/170/3
f 79/172/4 80/292/4 75/173/4
f 78/175/5 76/293/5 75/176/5
f 73/178/6 77/294/6 79/179/6
f 82/181/1 83/295/1 84/182/1
f 81/184/2 84/296/2 86/185/2
f 85/187/3 86/297/3 88/188/3
f 87/190/4 88/298/4 83/191/4
f 86/193/5 84/299/5 83/194/5
f 81/196/6 85/300/6 87/197/6
f 90/199/1 91/301/1 92/200/1
f 89/202/2 92/302/2 94/203/2
f 93/205/3 94/303/3 96/206/3
f 95/208/4 96/304/4 91/209/4
f 94/211/5 92/305/5 91/212/5
f 89/214/6 93/306/6 95/215/6
f 98/217/1 99/307/1 100/218/1
f 97/220/2 100/308/2 102/221/2
f 101/223/3 102/309/3 104/224/3
f 103/226/4 104/310/4 99/227/4
f 102/229/5 100/311/5 99/230/5
f 97/232/6 101/312/6 103/233/6
