# Blender 3.3.0
# www.blender.org
mtllib lunar_devil_tail.mtl
o lunar_devil_tail
v -0.031250 -0.986391 -0.464107
v -0.031250 -1.106990 -0.431228
v -0.031250 -1.002831 -0.524407
v -0.031250 -1.123429 -0.491528
v 0.031250 -1.106990 -0.431228
v 0.031250 -0.986391 -0.464107
v 0.031250 -1.123429 -0.491528
v 0.031250 -1.002831 -0.524407
v -0.031250 -0.903886 -0.122986
v -0.031250 -0.830855 -0.224433
v -0.031250 -0.853163 -0.086470
v -0.031250 -0.780132 -0.187917
v 0.031250 -0.830855 -0.224433
v 0.031250 -0.903886 -0.122986
v 0.031250 -0.780132 -0.187917
v 0.031250 -0.853163 -0.086470
v -0.031250 -0.840285 -0.204882
v -0.031250 -0.806355 -0.325189
v -0.031250 -0.780132 -0.187917
v -0.031250 -0.746202 -0.308224
v 0.031250 -0.806355 -0.325189
v 0.031250 -0.840285 -0.204882
v 0.031250 -0.746202 -0.308224
v 0.031250 -0.780132 -0.187917
v -0.031250 -0.805207 -0.287618
v -0.031250 -0.846419 -0.405630
v -0.031250 -0.746202 -0.308224
v -0.031250 -0.787413 -0.426235
v 0.031250 -0.846419 -0.405630
v 0.031250 -0.805207 -0.287618
v 0.031250 -0.787413 -0.426235
v 0.031250 -0.746202 -0.308224
v -0.031250 -0.884721 -0.449698
v -0.031250 -1.009093 -0.462221
v -0.031250 -0.878460 -0.511883
v -0.031250 -1.002831 -0.524407
v 0.031250 -1.009093 -0.462221
v 0.031250 -0.884721 -0.449698
v 0.031250 -1.002831 -0.524407
v 0.031250 -0.878460 -0.511883
v -0.031250 -1.101797 -0.432891
v -0.031250 -1.219071 -0.389626
v -0.031250 -1.123429 -0.491528
v -0.031250 -1.240703 -0.448263
v 0.031250 -1.219071 -0.389626
v 0.031250 -1.101797 -0.432891
v 0.031250 -1.240703 -0.448263
v 0.031250 -1.123429 -0.491528
v -0.031250 -1.219071 -0.389626
v -0.031250 -1.344070 -0.390171
v -0.031250 -1.218798 -0.452125
v -0.031250 -1.343797 -0.452671
v 0.031250 -1.344070 -0.390171
v 0.031250 -1.219071 -0.389626
v 0.031250 -1.343797 -0.452671
v 0.031250 -1.218798 -0.452125
v -0.031250 -1.344070 -0.390171
v -0.031250 -1.449199 -0.457793
v -0.031250 -1.310259 -0.442736
v -0.031250 -1.415389 -0.510358
v 0.031250 -1.449199 -0.457793
v 0.031250 -1.344070 -0.390171
v 0.031250 -1.415389 -0.510358
v 0.031250 -1.310259 -0.442736
v -0.031250 -1.449199 -0.457793
v -0.031250 -1.515901 -0.563509
v -0.031250 -1.396341 -0.491144
v -0.031250 -1.463043 -0.596860
v 0.031250 -1.515901 -0.563509
v 0.031250 -1.449199 -0.457793
v 0.031250 -1.463043 -0.596860
v 0.031250 -1.396341 -0.491144
v -0.031250 -0.830237 -0.380712
v -0.031250 -0.921284 -0.466360
v -0.031250 -0.787413 -0.426235
v -0.031250 -0.878460 -0.511883
v 0.031250 -0.921284 -0.466360
v 0.031250 -0.830237 -0.380712
v 0.031250 -0.878460 -0.511883
v 0.031250 -0.787413 -0.426235
v -0.031250 -1.515901 -0.563509
v -0.031250 -1.504464 -0.687985
v -0.031250 -1.453663 -0.557790
v -0.031250 -1.442226 -0.682266
v 0.031250 -1.504464 -0.687985
v 0.031250 -1.515901 -0.563509
v 0.031250 -1.442226 -0.682266
v 0.031250 -1.453663 -0.557790
v -0.031250 -1.504464 -0.687985
v -0.031250 -1.427936 -0.786821
v -0.031250 -1.455045 -0.649721
v -0.031250 -1.378518 -0.748557
v 0.031250 -1.427936 -0.786821
v 0.031250 -1.504464 -0.687985
v 0.031250 -1.378518 -0.748557
v 0.031250 -1.455045 -0.649721
v -0.031250 -1.427936 -0.786821
v -0.031250 -1.312244 -0.834152
v -0.031250 -1.404271 -0.728975
v -0.031250 -1.288578 -0.776306
v 0.031250 -1.312244 -0.834152
v 0.031250 -1.427936 -0.786821
v 0.031250 -1.288578 -0.776306
v 0.031250 -1.404271 -0.728975
v -0.031250 -1.312244 -0.834152
v -0.031250 -1.254398 -0.857818
v -0.031250 -1.288578 -0.776306
v -0.031250 -1.230732 -0.799971
v 0.031250 -1.254398 -0.857818
v 0.031250 -1.312244 -0.834152
v 0.031250 -1.230732 -0.799971
v 0.031250 -1.288578 -0.776306
v 0.061121 -1.312873 -0.833895
v -0.038048 -1.242444 -0.862708
v 0.061121 -1.289207 -0.776048
v -0.038048 -1.218778 -0.804862
v -0.000000 -1.196551 -0.881483
v 0.099169 -1.266980 -0.852670
v -0.000000 -1.172886 -0.823637
v 0.099169 -1.243315 -0.794824
v -0.099170 -1.266980 -0.852670
v -0.000000 -1.196551 -0.881483
v -0.099170 -1.243315 -0.794824
v -0.000000 -1.172886 -0.823637
v 0.038047 -1.242444 -0.862708
v -0.061122 -1.312873 -0.833895
v 0.038047 -1.218778 -0.804862
v -0.061122 -1.289207 -0.776048
vn -0.0000 -0.9648 0.2630
vn -1.0000 -0.0000 -0.0000
vn -0.0000 0.9648 -0.2630
vn 1.0000 -0.0000 -0.0000
vn -0.0000 0.2630 0.9648
vn -0.0000 -0.2630 -0.9648
vn -0.0000 0.5843 -0.8116
vn -0.0000 -0.5842 0.8116
vn -0.0000 -0.8116 -0.5842
vn -0.0000 0.8116 0.5842
vn -0.0000 0.2714 -0.9625
vn -0.0000 -0.2714 0.9625
vn -0.0000 -0.9625 -0.2714
vn -0.0000 0.9625 0.2714
vn -0.0000 -0.3297 -0.9441
vn -0.0000 0.3297 0.9441
vn -0.0000 -0.9441 0.3297
vn -0.0000 0.9441 -0.3297
vn -0.0000 -0.9950 -0.1002
vn -0.0000 0.9950 0.1002
vn -0.0000 -0.1002 0.9950
vn -0.0000 0.1002 -0.9950
vn -0.0000 -0.9382 0.3461
vn -0.0000 0.9382 -0.3461
vn -0.0000 0.3461 0.9382
vn -0.0000 -0.3461 -0.9382
vn -0.0000 -1.0000 -0.0044
vn -0.0000 1.0000 0.0044
vn -0.0000 -0.0044 1.0000
vn -0.0000 0.0044 -1.0000
vn -0.0000 -0.8410 -0.5410
vn -0.0000 0.8410 0.5410
vn -0.0000 -0.5410 0.8410
vn -0.0000 0.5410 -0.8410
vn -0.0000 -0.5336 -0.8457
vn -0.0000 0.5336 0.8457
vn -0.0000 -0.8457 0.5336
vn -0.0000 0.8457 -0.5336
vn -0.0000 -0.7284 -0.6852
vn -0.0000 0.7284 0.6852
vn -0.0000 -0.6852 0.7284
vn -0.0000 0.6852 -0.7284
vn -0.0000 0.0915 -0.9958
vn -0.0000 -0.0915 0.9958
vn -0.0000 -0.9958 -0.0915
vn -0.0000 0.9958 0.0915
vn -0.0000 0.6122 -0.7907
vn -0.0000 -0.6122 0.7907
vn -0.0000 -0.7907 -0.6122
vn -0.0000 0.7907 0.6122
vn -0.0000 0.9255 -0.3787
vn -0.0000 -0.9255 0.3787
vn -0.0000 -0.3786 -0.9255
vn -0.0000 0.3786 0.9255
vn -0.0000 0.9255 -0.3786
vn -0.0000 -0.3787 -0.9255
vn -0.0000 0.3787 0.9255
vn -0.7934 0.5634 -0.2305
vn -0.6088 -0.7343 0.3004
vn 0.7934 -0.5634 0.2305
vn 0.6088 0.7343 -0.3004
vn 0.7934 0.5634 -0.2305
vn -0.6088 0.7343 -0.3004
vn -0.7934 -0.5634 0.2305
vn 0.6088 -0.7343 0.3004
vn -0.0000 0.5842 -0.8116
vn -0.0000 -0.9255 0.3786
vt 0.375000 0.937500
vt 0.625000 0.312500
vt 0.000000 0.625000
vt 0.687500 0.500000
vt 0.500000 0.937500
vt 0.000000 0.500000
vt 0.375000 0.875000
vt 0.625000 0.250000
vt 0.125000 0.625000
vt 0.687500 0.437500
vt 0.500000 0.875000
vt 0.125000 0.500000
vt 0.375000 0.875000
vt 0.750000 0.500000
vt 0.062500 0.500000
vt 0.062500 0.625000
vt 0.562500 0.312500
vt 0.500000 0.875000
vt 0.187500 0.500000
vt 0.750000 0.437500
vt 0.375000 0.812500
vt 0.562500 0.250000
vt 0.500000 0.812500
vt 0.187500 0.625000
vt 0.062500 0.875000
vt 0.187500 0.312500
vt 0.062500 0.812500
vt 0.062500 0.312500
vt 0.187500 0.875000
vt 0.062500 0.687500
vt 0.062500 0.812500
vt 0.187500 0.250000
vt 0.187500 0.937500
vt 0.062500 0.250000
vt 0.187500 0.812500
vt 0.125000 0.312500
vt 0.187500 1.000000
vt 0.125000 0.687500
vt 0.125000 0.812500
vt 0.125000 0.312500
vt 0.312500 1.000000
vt 0.187500 0.937500
vt 0.250000 0.812500
vt 0.125000 0.250000
vt 0.125000 0.250000
vt 0.312500 0.937500
vt 0.250000 0.937500
vt 0.125000 0.812500
vt 0.250000 0.312500
vt 0.000000 0.750000
vt 0.687500 0.875000
vt 0.250000 0.812500
vt 0.000000 0.625000
vt 0.250000 0.250000
vt 0.125000 0.750000
vt 0.687500 0.812500
vt 0.250000 0.750000
vt 0.125000 0.625000
vt 0.250000 0.937500
vt 0.750000 0.875000
vt 0.062500 0.625000
vt 0.062500 0.750000
vt 0.187500 0.312500
vt 0.375000 0.937500
vt 0.187500 0.625000
vt 0.750000 0.812500
vt 0.250000 0.875000
vt 0.187500 0.250000
vt 0.375000 0.875000
vt 0.187500 0.750000
vt 0.250000 0.875000
vt 0.312500 0.312500
vt 0.062500 0.687500
vt 0.687500 0.812500
vt 0.375000 0.875000
vt 0.062500 0.562500
vt 0.250000 0.812500
vt 0.312500 0.250000
vt 0.187500 0.687500
vt 0.687500 0.750000
vt 0.375000 0.812500
vt 0.187500 0.562500
vt 0.187500 0.750000
vt 0.750000 0.812500
vt 0.125000 0.562500
vt 0.125000 0.687500
vt 0.250000 0.312500
vt 0.312500 0.750000
vt 0.250000 0.562500
vt 0.750000 0.750000
vt 0.187500 0.687500
vt 0.250000 0.250000
vt 0.312500 0.687500
vt 0.250000 0.687500
vt 0.250000 0.812500
vt 0.750000 0.625000
vt 0.250000 0.687500
vt 0.312500 0.312500
vt 0.375000 0.812500
vt 0.250000 0.562500
vt 0.250000 0.750000
vt 0.750000 0.562500
vt 0.312500 0.750000
vt 0.312500 0.250000
vt 0.375000 0.750000
vt 0.312500 0.625000
vt 0.312500 1.000000
vt 0.375000 0.312500
vt 0.312500 0.562500
vt 0.312500 0.687500
vt 0.687500 0.625000
vt 0.437500 1.000000
vt 0.375000 0.625000
vt 0.375000 0.250000
vt 0.312500 0.937500
vt 0.687500 0.562500
vt 0.437500 0.937500
vt 0.375000 0.750000
vt 0.375000 0.812500
vt 0.687500 0.312500
vt 0.312500 0.625000
vt 0.687500 0.437500
vt 0.500000 0.812500
vt 0.312500 0.500000
vt 0.375000 0.750000
vt 0.687500 0.250000
vt 0.375000 0.687500
vt 0.687500 0.375000
vt 0.500000 0.750000
vt 0.375000 0.562500
vt 0.750000 0.437500
vt 0.375000 0.750000
vt 0.375000 0.500000
vt 0.375000 0.625000
vt 0.625000 0.312500
vt 0.500000 0.750000
vt 0.375000 0.687500
vt 0.437500 0.562500
vt 0.750000 0.375000
vt 0.625000 0.250000
vt 0.500000 0.687500
vt 0.437500 0.687500
vt 0.437500 1.000000
vt 0.750000 0.312500
vt 0.062500 0.562500
vt 0.687500 0.375000
vt 0.562500 1.000000
vt 0.062500 0.437500
vt 0.437500 0.937500
vt 0.750000 0.250000
vt 0.437500 0.687500
vt 0.687500 0.312500
vt 0.562500 0.937500
vt 0.437500 0.562500
vt 0.187500 0.562500
vt 0.750000 0.375000
vt 0.125000 0.437500
vt 0.125000 0.562500
vt 0.687500 0.312500
vt 0.312500 0.562500
vt 0.500000 0.562500
vt 0.750000 0.312500
vt 0.187500 0.500000
vt 0.687500 0.250000
vt 0.312500 0.500000
vt 0.500000 0.687500
vt 0.375000 0.562500
vt 0.812500 1.000000
vt 0.000000 0.500000
vt 0.000000 0.250000
vt 0.500000 0.562500
vt 0.000000 0.375000
vt 0.375000 0.500000
vt 0.812500 0.937500
vt 0.125000 0.500000
vt 0.000000 0.187500
vt 0.500000 0.500000
vt 0.125000 0.375000
vt 0.500000 0.937500
vt 0.062500 0.250000
vt 0.062500 0.375000
vt 0.062500 0.500000
vt 0.750000 1.000000
vt 0.625000 0.937500
vt 0.187500 0.375000
vt 0.062500 0.187500
vt 0.500000 0.875000
vt 0.750000 0.937500
vt 0.625000 0.875000
vt 0.187500 0.500000
vt 0.500000 0.875000
vt 0.812500 0.937500
vt 0.500000 0.812500
vt 0.062500 0.250000
vt 0.625000 0.875000
vt 0.500000 0.687500
vt 0.500000 0.812500
vt 0.812500 0.875000
vt 0.312500 0.500000
vt 0.062500 0.187500
vt 0.625000 0.812500
vt 0.312500 0.375000
vt 0.125000 0.250000
vt 0.187500 0.500000
vt 0.562500 0.687500
vt 0.562500 0.812500
vt 0.750000 0.937500
vt 0.312500 0.500000
vt 0.187500 0.437500
vt 0.375000 0.375000
vt 0.125000 0.187500
vt 0.750000 0.875000
vt 0.312500 0.437500
vt 0.375000 0.500000
vt 0.500000 0.687500
vt 0.812500 0.875000
vt 0.500000 0.625000
vt 0.125000 0.250000
vt 0.625000 0.687500
vt 0.500000 0.500000
vt 0.500000 0.625000
vt 0.812500 0.812500
vt 0.500000 0.500000
vt 0.125000 0.187500
vt 0.625000 0.625000
vt 0.500000 0.375000
vt 0.375000 0.500000
vt 0.187500 0.250000
vt 0.562500 0.500000
vt 0.562500 0.625000
vt 0.750000 0.875000
vt 0.500000 0.500000
vt 0.562500 0.375000
vt 0.187500 0.187500
vt 0.375000 0.437500
vt 0.750000 0.812500
vt 0.500000 0.437500
vt 0.562500 0.500000
vt 0.562500 1.000000
vt 0.812500 0.812500
vt 0.062500 0.437500
vt 0.187500 0.250000
vt 0.687500 1.000000
vt 0.062500 0.312500
vt 0.562500 0.937500
vt 0.812500 0.750000
vt 0.562500 0.812500
vt 0.187500 0.187500
vt 0.687500 0.937500
vt 0.562500 0.687500
vt 0.250000 0.250000
vt 0.187500 0.437500
vt 0.125000 0.312500
vt 0.125000 0.437500
vt 0.750000 0.812500
vt 0.312500 0.437500
vt 0.187500 0.375000
vt 0.625000 0.687500
vt 0.250000 0.187500
vt 0.750000 0.750000
vt 0.312500 0.375000
vt 0.625000 0.812500
vt 0.375000 0.437500
vt 0.812500 0.750000
vt 0.562500 0.562500
vt 0.250000 0.250000
vt 0.500000 0.437500
vt 0.562500 0.437500
vt 0.375000 0.375000
vt 0.812500 0.687500
vt 0.562500 0.437500
vt 0.250000 0.187500
vt 0.500000 0.375000
vt 0.562500 0.312500
vt 0.562500 0.625000
vt 0.312500 0.250000
vt 0.625000 0.437500
vt 0.625000 0.562500
vt 0.750000 0.750000
vt 0.687500 0.625000
vt 0.625000 0.312500
vt 0.312500 0.187500
vt 0.562500 0.562500
vt 0.750000 0.687500
vt 0.687500 0.562500
vt 0.625000 0.437500
vt 0.625000 0.937500
vt 0.812500 0.687500
vt 0.000000 0.375000
vt 0.312500 0.250000
vt 0.750000 0.937500
vt 0.000000 0.250000
vt 0.812500 0.625000
vt 0.625000 0.875000
vt 0.312500 0.187500
vt 0.750000 0.875000
vt 0.625000 0.750000
vt 0.375000 0.250000
vt 0.125000 0.375000
vt 0.062500 0.250000
vt 0.062500 0.375000
vt 0.750000 0.687500
vt 0.250000 0.375000
vt 0.125000 0.312500
vt 0.687500 0.750000
vt 0.375000 0.187500
vt 0.750000 0.625000
vt 0.250000 0.312500
vt 0.687500 0.875000
vt 0.750000 0.625000
vt 0.500000 0.250000
vt 0.375000 0.250000
vt 0.812500 0.625000
vt 0.500000 0.187500
vt 0.750000 0.562500
vt 0.500000 0.187500
vt 0.750000 0.500000
vt 0.375000 0.187500
vt 0.812500 0.562500
vt 0.750000 0.437500
vt 0.750000 0.562500
vt 0.437500 0.250000
vt 0.562500 0.187500
vt 0.562500 0.250000
vt 0.437500 0.250000
vt 0.812500 0.562500
vt 0.812500 0.437500
vt 0.437500 0.187500
vt 0.750000 0.500000
vt 0.437500 0.187500
vt 0.812500 0.500000
vt 0.250000 0.375000
vt 0.812500 0.437500
vt 0.375000 0.375000
vt 0.562500 0.250000
vt 0.375000 0.375000
vt 0.375000 0.250000
vt 0.250000 0.312500
vt 0.812500 0.375000
vt 0.437500 0.375000
vt 0.562500 0.187500
vt 0.375000 0.312500
vt 0.437500 0.250000
vt 0.625000 0.750000
vt 0.625000 0.250000
vt 0.437500 0.250000
vt 0.750000 0.437500
vt 0.437500 0.375000
vt 0.750000 0.750000
vt 0.625000 0.187500
vt 0.625000 0.687500
vt 0.500000 0.250000
vt 0.500000 0.375000
vt 0.750000 0.375000
vt 0.750000 0.687500
vt 0.625000 0.687500
vt 0.812500 0.375000
vt 0.500000 0.375000
vt 0.625000 0.250000
vt 0.750000 0.687500
vt 0.500000 0.250000
vt 0.625000 0.625000
vt 0.812500 0.312500
vt 0.625000 0.500000
vt 0.625000 0.187500
vt 0.750000 0.625000
vt 0.625000 0.375000
vt 0.562500 0.250000
vt 0.687500 0.250000
vt 0.625000 0.562500
vt 0.750000 0.375000
vt 0.750000 0.562500
vt 0.562500 0.375000
vt 0.625000 0.500000
vt 0.687500 0.375000
vt 0.687500 0.187500
vt 0.750000 0.312500
vt 0.750000 0.500000
vt 0.687500 0.500000
s 0
usemtl lunar_devil_tail
f 7/20/1 2/4/1 4/10/1
f 4/11/2 1/1/2 3/7/2
f 3/8/3 6/17/3 8/22/3
f 7/21/4 6/18/4 5/13/4
f 1/3/5 5/15/5 6/16/5
f 4/12/6 8/24/6 7/19/6
f 15/44/7 10/28/7 12/34/7
f 12/35/2 9/25/2 11/31/2
f 11/32/8 14/40/8 16/45/8
f 16/46/4 13/37/4 15/42/4
f 9/27/9 13/38/9 14/39/9
f 12/35/10 16/47/10 15/43/10
f 23/66/11 18/51/11 20/56/11
f 20/57/2 17/48/2 19/55/2
f 19/54/12 22/63/12 24/68/12
f 23/67/4 22/64/4 21/59/4
f 17/50/13 21/61/13 22/62/13
f 20/58/14 24/70/14 23/65/14
f 31/90/15 26/74/15 28/80/15
f 28/81/2 25/71/2 27/77/2
f 27/78/16 30/87/16 32/92/16
f 31/91/4 30/88/4 29/83/4
f 25/73/17 29/85/17 30/86/17
f 28/82/18 32/94/18 31/89/18
f 39/114/19 34/98/19 36/104/19
f 36/105/2 33/95/2 35/101/2
f 35/102/20 38/111/20 40/116/20
f 39/115/4 38/112/4 37/107/4
f 33/97/21 37/109/21 38/110/21
f 36/106/22 40/118/22 39/113/22
f 47/139/23 42/122/23 44/128/23
f 43/125/2 42/123/2 41/119/2
f 43/126/24 46/135/24 48/140/24
f 48/141/4 45/132/4 47/137/4
f 41/121/25 45/133/25 46/134/25
f 44/130/26 48/142/26 47/138/26
f 55/162/27 50/146/27 52/152/27
f 52/153/2 49/143/2 51/149/2
f 51/150/28 54/159/28 56/164/28
f 55/163/4 54/160/4 53/155/4
f 49/145/29 53/157/29 54/158/29
f 52/154/30 56/166/30 55/161/30
f 63/186/31 58/170/31 60/176/31
f 60/177/2 57/167/2 59/173/2
f 59/174/32 62/183/32 64/188/32
f 63/187/4 62/184/4 61/179/4
f 57/169/33 61/181/33 62/182/33
f 60/178/34 64/190/34 63/185/34
f 71/211/35 66/194/35 68/200/35
f 68/201/2 65/191/2 67/197/2
f 67/198/36 70/207/36 72/212/36
f 72/213/4 69/204/4 71/209/4
f 65/193/37 69/205/37 70/206/37
f 68/202/38 72/214/38 71/210/38
f 79/234/39 74/218/39 76/224/39
f 76/225/2 73/215/2 75/221/2
f 75/222/40 78/231/40 80/236/40
f 79/235/4 78/232/4 77/227/4
f 73/217/41 77/229/41 78/230/41
f 76/226/42 80/238/42 79/233/42
f 87/259/43 82/242/43 84/248/43
f 84/249/2 81/239/2 83/245/2
f 83/246/44 86/255/44 88/260/44
f 88/261/4 85/252/4 87/257/4
f 81/241/45 85/253/45 86/254/45
f 84/250/46 88/262/46 87/258/46
f 95/282/47 90/266/47 92/272/47
f 92/273/2 89/263/2 91/269/2
f 91/270/48 94/279/48 96/284/48
f 95/283/4 94/280/4 93/275/4
f 89/265/49 93/277/49 94/278/49
f 92/274/50 96/286/50 95/281/50
f 103/306/51 98/290/51 100/295/51
f 99/294/2 98/291/2 97/287/2
f 99/293/52 102/302/52 104/307/52
f 104/308/4 101/299/4 103/304/4
f 97/289/53 101/300/53 102/301/53
f 100/297/54 104/309/54 103/305/54
f 111/328/55 106/312/55 108/318/55
f 108/319/2 105/310/2 107/315/2
f 107/316/52 110/325/52 112/330/52
f 111/329/4 110/326/4 109/321/4
f 105/311/56 109/323/56 110/324/56
f 108/320/57 112/331/57 111/327/57
f 119/350/58 114/335/58 116/341/58
f 116/342/59 113/332/59 115/338/59
f 120/354/60 113/333/60 118/347/60
f 119/351/61 118/349/61 117/344/61
f 113/334/53 117/346/53 118/348/53
f 119/352/54 115/340/54 120/353/54
f 127/376/62 122/359/62 124/365/62
f 124/366/63 121/356/63 123/362/63
f 123/363/64 126/371/64 128/377/64
f 128/378/65 125/370/65 127/374/65
f 126/373/53 122/361/53 125/368/53
f 124/367/54 128/379/54 127/375/54
f 7/20/1 5/14/1 2/4/1
f 4/11/2 2/5/2 1/1/2
f 3/8/3 1/2/3 6/17/3
f 7/21/4 8/23/4 6/18/4
f 1/3/5 2/6/5 5/15/5
f 4/12/6 3/9/6 8/24/6
f 15/44/66 13/36/66 10/28/66
f 12/35/2 10/29/2 9/25/2
f 11/32/8 9/26/8 14/40/8
f 16/46/4 14/41/4 13/37/4
f 9/27/9 10/30/9 13/38/9
f 12/35/10 11/33/10 16/47/10
f 23/66/11 21/60/11 18/51/11
f 20/57/2 18/52/2 17/48/2
f 19/54/12 17/49/12 22/63/12
f 23/67/4 24/69/4 22/64/4
f 17/50/13 18/53/13 21/61/13
f 20/58/14 19/55/14 24/70/14
f 31/90/15 29/84/15 26/74/15
f 28/81/2 26/75/2 25/71/2
f 27/78/16 25/72/16 30/87/16
f 31/91/4 32/93/4 30/88/4
f 25/73/17 26/76/17 29/85/17
f 28/82/18 27/79/18 32/94/18
f 39/114/19 37/108/19 34/98/19
f 36/105/2 34/99/2 33/95/2
f 35/102/20 33/96/20 38/111/20
f 39/115/4 40/117/4 38/112/4
f 33/97/21 34/100/21 37/109/21
f 36/106/22 35/103/22 40/118/22
f 47/139/23 45/131/23 42/122/23
f 43/125/2 44/129/2 42/123/2
f 43/126/24 41/120/24 46/135/24
f 48/141/4 46/136/4 45/132/4
f 41/121/25 42/124/25 45/133/25
f 44/130/26 43/127/26 48/142/26
f 55/162/27 53/156/27 50/146/27
f 52/153/2 50/147/2 49/143/2
f 51/150/28 49/144/28 54/159/28
f 55/163/4 56/165/4 54/160/4
f 49/145/29 50/148/29 53/157/29
f 52/154/30 51/151/30 56/166/30
f 63/186/31 61/180/31 58/170/31
f 60/177/2 58/171/2 57/167/2
f 59/174/32 57/168/32 62/183/32
f 63/187/4 64/189/4 62/184/4
f 57/169/33 58/172/33 61/181/33
f 60/178/34 59/175/34 64/190/34
f 71/211/35 69/203/35 66/194/35
f 68/201/2 66/195/2 65/191/2
f 67/198/36 65/192/36 70/207/36
f 72/213/4 70/208/4 69/204/4
f 65/193/37 66/196/37 69/205/37
f 68/202/38 67/199/38 72/214/38
f 79/234/39 77/228/39 74/218/39
f 76/225/2 74/219/2 73/215/2
f 75/222/40 73/216/40 78/231/40
f 79/235/4 80/237/4 78/232/4
f 73/217/41 74/220/41 77/229/41
f 76/226/42 75/223/42 80/238/42
f 87/259/43 85/251/43 82/242/43
f 84/249/2 82/243/2 81/239/2
f 83/246/44 81/240/44 86/255/44
f 88/261/4 86/256/4 85/252/4
f 81/241/45 82/244/45 85/253/45
f 84/250/46 83/247/46 88/262/46
f 95/282/47 93/276/47 90/266/47
f 92/273/2 90/267/2 89/263/2
f 91/270/48 89/264/48 94/279/48
f 95/283/4 96/285/4 94/280/4
f 89/265/49 90/268/49 93/277/49
f 92/274/50 91/271/50 96/286/50
f 103/306/55 101/298/55 98/290/55
f 99/294/2 100/296/2 98/291/2
f 99/293/67 97/288/67 102/302/67
f 104/308/4 102/303/4 101/299/4
f 97/289/53 98/292/53 101/300/53
f 100/297/54 99/294/54 104/309/54
f 111/328/51 109/322/51 106/312/51
f 108/319/2 106/313/2 105/310/2
f 107/316/67 105/311/67 110/325/67
f 111/329/4 112/331/4 110/326/4
f 105/311/53 106/314/53 109/323/53
f 108/320/54 107/317/54 112/331/54
f 119/350/58 117/345/58 114/335/58
f 116/342/59 114/336/59 113/332/59
f 120/354/60 115/339/60 113/333/60
f 119/351/61 120/355/61 118/349/61
f 113/334/53 114/337/53 117/346/53
f 119/352/54 116/343/54 115/340/54
f 127/376/62 125/369/62 122/359/62
f 124/366/63 122/360/63 121/356/63
f 123/363/64 121/357/64 126/371/64
f 128/378/65 126/372/65 125/370/65
f 126/373/53 121/358/53 122/361/53
f 124/367/54 123/364/54 128/379/54
