# Blender 3.1.0
# www.blender.org
mtllib Lunar_PirateHat.mtl
o PirateHat
v 0.453124 -1.812500 -0.312500
v 0.453124 -1.812500 0.312500
v 0.453124 -1.875000 0.312500
v 0.453124 -1.875000 -0.312500
v -0.453126 -1.812500 -0.312500
v -0.453126 -1.875000 -0.312500
v -0.453126 -1.812500 0.312500
v -0.453126 -1.875000 0.312500
v -0.453126 -1.809354 0.314305
v 0.453124 -1.809354 0.314305
v 0.453124 -1.965068 0.301366
v -0.453126 -1.965068 0.301366
v -0.453126 -1.811942 0.345448
v -0.453126 -1.967655 0.332509
v 0.453124 -1.811942 0.345448
v 0.453124 -1.967656 0.332509
v -0.328126 -1.965068 0.301366
v 0.328124 -1.965068 0.301366
v 0.328124 -2.151924 0.285840
v -0.328126 -2.151924 0.285840
v -0.328126 -1.967655 0.332509
v -0.328126 -2.154511 0.316982
v 0.328124 -1.967656 0.332509
v 0.328124 -2.154511 0.316982
v -0.203126 -2.151924 0.285840
v 0.203124 -2.151924 0.285840
v 0.203124 -2.214209 0.280664
v -0.203126 -2.214209 0.280664
v -0.203126 -2.154511 0.316982
v -0.203126 -2.216797 0.311807
v 0.203124 -2.154511 0.316982
v 0.203124 -2.216797 0.311807
v -0.203126 -2.156346 -0.316852
v 0.203124 -2.156346 -0.316852
v 0.203124 -2.218631 -0.311676
v -0.203126 -2.218631 -0.311676
v -0.203126 -2.153758 -0.285709
v -0.203126 -2.216043 -0.280534
v 0.203124 -2.153758 -0.285709
v 0.203124 -2.216043 -0.280534
v -0.328126 -1.969490 -0.332378
v 0.328124 -1.969490 -0.332378
v 0.328124 -2.156346 -0.316852
v -0.328126 -2.156346 -0.316852
v -0.328126 -1.966902 -0.301236
v -0.328126 -2.153758 -0.285709
v 0.328124 -1.966902 -0.301236
v 0.328124 -2.153758 -0.285709
v -0.453126 -1.813776 -0.345317
v 0.453124 -1.813777 -0.345317
v 0.453124 -1.969490 -0.332378
v -0.453126 -1.969490 -0.332378
v -0.453126 -1.811189 -0.314174
v -0.453126 -1.966902 -0.301236
v 0.453124 -1.811189 -0.314174
v 0.453124 -1.966902 -0.301236
v -0.422940 -1.820588 -0.312500
v -0.422940 -1.820588 0.312500
v -0.463381 -1.971514 0.312500
v -0.463381 -1.971514 -0.312500
v -0.453126 -1.812500 -0.312500
v -0.493566 -1.963426 -0.312500
v -0.453126 -1.812500 0.312500
v -0.493566 -1.963426 0.312500
v 0.453124 -1.812500 -0.312500
v 0.453124 -1.812500 0.312500
v 0.493565 -1.963426 0.312500
v 0.493565 -1.963426 -0.312500
v 0.422939 -1.820588 -0.312500
v 0.463380 -1.971514 -0.312500
v 0.422939 -1.820588 0.312500
v 0.463380 -1.971514 0.312500
v 0.296874 -1.890625 -0.296875
v 0.296874 -1.890625 0.296875
v 0.296874 -2.015625 0.296875
v 0.296874 -2.015625 -0.296875
v -0.296876 -1.890625 -0.296875
v -0.296876 -2.015625 -0.296875
v -0.296876 -1.890625 0.296875
v -0.296876 -2.015625 0.296875
v -0.322451 -1.913539 0.129426
v -0.301732 -1.916310 0.152656
v -0.307862 -1.978478 0.150710
v -0.328581 -1.975708 0.127480
v -0.322451 -1.913539 0.129426
v -0.328581 -1.975708 0.127480
v -0.301732 -1.916310 0.152656
v -0.307862 -1.978478 0.150710
v -0.346234 -1.941853 0.105223
v -0.325516 -1.944623 0.128453
v -0.334711 -2.037876 0.125533
v -0.355429 -2.035106 0.102303
v -0.346234 -1.941853 0.105223
v -0.355429 -2.035106 0.102303
v -0.325516 -1.944623 0.128453
v -0.334711 -2.037876 0.125533
v -0.370018 -1.970167 0.081019
v -0.349299 -1.972937 0.104249
v -0.361560 -2.097274 0.100357
v -0.382278 -2.094503 0.077127
v -0.370018 -1.970167 0.081019
v -0.382278 -2.094503 0.077127
v -0.349299 -1.972937 0.104249
v -0.361560 -2.097274 0.100357
v -0.390736 -1.967397 0.057789
v -0.370018 -1.970167 0.081019
v -0.385343 -2.125587 0.076153
v -0.406061 -2.122817 0.052923
v -0.390736 -1.967397 0.057789
v -0.406061 -2.122817 0.052923
v -0.370018 -1.970167 0.081019
v -0.385343 -2.125587 0.076153
v -0.414519 -1.995711 0.033586
v -0.393801 -1.998481 0.056816
v -0.409127 -2.153901 0.051950
v -0.429845 -2.151131 0.028720
v -0.414519 -1.995711 0.033586
v -0.429845 -2.151131 0.028720
v -0.393801 -1.998481 0.056816
v -0.409127 -2.153901 0.051950
v -0.435238 -1.992940 0.010356
v -0.414519 -1.995711 0.033586
v -0.432910 -2.182215 0.027747
v -0.453628 -2.179445 0.004517
v -0.435238 -1.992940 0.010356
v -0.453628 -2.179445 0.004517
v -0.414519 -1.995711 0.033586
v -0.432910 -2.182215 0.027747
v -0.459021 -2.021254 -0.013847
v -0.438303 -2.024024 0.009383
v -0.453628 -2.179445 0.004517
v -0.474347 -2.176674 -0.018713
v -0.459021 -2.021254 -0.013847
v -0.474347 -2.176674 -0.018713
v -0.438303 -2.024024 0.009383
v -0.453628 -2.179445 0.004517
v -0.482805 -2.049568 -0.038051
v -0.462086 -2.052338 -0.014821
v -0.477412 -2.207758 -0.019687
v -0.498130 -2.204988 -0.042917
v -0.482805 -2.049568 -0.038051
v -0.498130 -2.204988 -0.042917
v -0.462086 -2.052338 -0.014821
v -0.477412 -2.207758 -0.019687
v -0.506588 -2.077882 -0.062254
v -0.485870 -2.080652 -0.039024
v -0.498130 -2.204988 -0.042917
v -0.518849 -2.202218 -0.066147
v -0.506588 -2.077882 -0.062254
v -0.518849 -2.202218 -0.066147
v -0.485870 -2.080652 -0.039024
v -0.498130 -2.204988 -0.042917
v -0.530372 -2.106195 -0.086457
v -0.509653 -2.108966 -0.063227
v -0.518849 -2.202218 -0.066147
v -0.539567 -2.199448 -0.089377
v -0.530372 -2.106195 -0.086457
v -0.539567 -2.199448 -0.089377
v -0.509653 -2.108966 -0.063227
v -0.518849 -2.202218 -0.066147
vn 1.0000 -0.0000 -0.0000
vn -0.0000 -0.0000 -1.0000
vn -1.0000 -0.0000 -0.0000
vn -0.0000 -0.0000 1.0000
vn -0.0000 -1.0000 -0.0000
vn -0.0000 1.0000 -0.0000
vn -0.0000 0.0828 -0.9966
vn -0.0000 -0.0828 0.9966
vn -0.0000 -0.9966 -0.0828
vn -0.0000 0.9966 0.0828
vn -0.0000 -0.0828 -0.9966
vn -0.0000 0.0828 0.9966
vn -0.0000 -0.9966 0.0828
vn -0.0000 0.9966 -0.0828
vn 0.9659 -0.2588 -0.0000
vn -0.9659 0.2588 -0.0000
vn -0.2588 -0.9659 -0.0000
vn 0.2588 0.9659 -0.0000
vn 0.9659 0.2588 -0.0000
vn -0.9659 -0.2588 -0.0000
vn 0.2588 -0.9659 -0.0000
vn -0.2588 0.9659 -0.0000
vn 0.7422 -0.0523 -0.6682
vn -0.0000 -0.0000 -0.7462
vn -0.0000 -0.0000 -0.7405
vn -0.6630 0.0886 -0.7433
vn -0.7422 0.0523 0.6682
vn -0.0000 -0.0000 0.7418
vn -0.0000 -0.0000 0.7450
vn 0.6630 -0.0886 0.7433
vn -0.0971 -0.9849 -0.1431
vn -0.0976 -0.9906 0.0961
vn -0.0000 -0.0000 -0.0311
vn 0.0979 0.9922 -0.0769
vn 0.0968 0.9824 0.1596
vn -0.0000 -0.0000 0.0311
vn -0.0977 -0.9906 0.0961
vn 0.0978 0.9922 -0.0769
vn 0.0969 0.9824 0.1596
vn 0.6630 -0.0886 0.7434
vn -0.0000 -0.0000 -0.0312
vt 0.468750 0.593750
vt 0.539062 0.515625
vt 0.156250 0.773438
vt 0.468750 0.609375
vt 0.312500 0.773438
vt 0.625000 0.593750
vt 0.625000 0.609375
vt 0.468750 0.625000
vt 0.156250 0.773438
vt 0.468750 0.609375
vt 0.539062 0.531250
vt 0.000000 0.773438
vt 0.312500 0.515625
vt 0.625000 0.578125
vt 0.156250 1.000000
vt 0.312500 0.531250
vt 0.625000 0.593750
vt 0.000000 1.000000
vt 0.468750 0.578125
vt 0.695312 0.609375
vt 0.312500 1.000000
vt 0.156250 1.000000
vt 0.468750 0.593750
vt 0.695312 0.625000
vt 0.312500 0.960938
vt 0.429688 0.460938
vt 0.468750 0.554688
vt 0.695312 0.554688
vt 0.539062 0.960938
vt 0.437500 0.460938
vt 0.437500 0.500000
vt 0.539062 1.000000
vt 0.695312 0.570312
vt 0.312500 1.000000
vt 0.429688 0.500000
vt 0.468750 0.570312
vt 0.421875 0.460938
vt 0.539062 0.914062
vt 0.468750 0.562500
vt 0.421875 0.500000
vt 0.539062 0.953125
vt 0.468750 0.578125
vt 0.312500 0.914062
vt 0.445312 0.460938
vt 0.695312 0.562500
vt 0.695312 0.578125
vt 0.312500 0.953125
vt 0.445312 0.500000
vt 0.312500 0.765625
vt 0.335938 0.453125
vt 0.484375 0.710938
vt 0.648438 0.710938
vt 0.476562 0.765625
vt 0.343750 0.453125
vt 0.343750 0.500000
vt 0.476562 0.812500
vt 0.648438 0.726562
vt 0.312500 0.812500
vt 0.335938 0.500000
vt 0.484375 0.726562
vt 0.328125 0.453125
vt 0.476562 0.718750
vt 0.484375 0.718750
vt 0.328125 0.500000
vt 0.476562 0.765625
vt 0.484375 0.734375
vt 0.312500 0.718750
vt 0.351562 0.453125
vt 0.648438 0.718750
vt 0.648438 0.734375
vt 0.312500 0.765625
vt 0.351562 0.500000
vt 0.484375 0.781250
vt 0.289062 0.468750
vt 0.000000 0.492188
vt 0.296875 0.468750
vt 0.101562 0.492188
vt 0.585938 0.781250
vt 0.585938 0.796875
vt 0.296875 0.484375
vt 0.585938 0.507812
vt 0.484375 0.796875
vt 0.289062 0.484375
vt 0.484375 0.507812
vt 0.281250 0.468750
vt 0.585938 0.765625
vt 0.000000 0.500000
vt 0.281250 0.484375
vt 0.585938 0.781250
vt 0.484375 0.515625
vt 0.484375 0.765625
vt 0.304688 0.468750
vt 0.101562 0.500000
vt 0.585938 0.515625
vt 0.484375 0.781250
vt 0.304688 0.484375
vt 0.484375 0.750000
vt 0.523438 0.468750
vt 0.218750 0.492188
vt 0.320312 0.492188
vt 0.585938 0.750000
vt 0.281250 0.453125
vt 0.281250 0.468750
vt 0.585938 0.765625
vt 0.210938 0.492188
vt 0.484375 0.765625
vt 0.523438 0.484375
vt 0.109375 0.492188
vt 0.515625 0.468750
vt 0.585938 0.734375
vt 0.218750 0.500000
vt 0.515625 0.484375
vt 0.585938 0.750000
vt 0.109375 0.500000
vt 0.484375 0.734375
vt 0.289062 0.453125
vt 0.320312 0.500000
vt 0.210938 0.500000
vt 0.484375 0.750000
vt 0.289062 0.468750
vt 0.312500 0.671875
vt 0.398438 0.453125
vt 0.312500 0.507812
vt 0.476562 0.507812
vt 0.476562 0.671875
vt 0.406250 0.453125
vt 0.406250 0.500000
vt 0.476562 0.718750
vt 0.648438 0.695312
vt 0.312500 0.718750
vt 0.398438 0.500000
vt 0.484375 0.695312
vt 0.390625 0.453125
vt 0.476562 0.625000
vt 0.312500 0.515625
vt 0.390625 0.500000
vt 0.476562 0.671875
vt 0.484375 0.703125
vt 0.312500 0.625000
vt 0.414062 0.453125
vt 0.476562 0.515625
vt 0.648438 0.703125
vt 0.312500 0.671875
vt 0.414062 0.500000
vt 0.312500 0.867188
vt 0.132812 0.445312
vt 0.484375 0.804688
vt 0.710938 0.804688
vt 0.539062 0.867188
vt 0.140625 0.445312
vt 0.140625 0.484375
vt 0.539062 0.906250
vt 0.695312 0.539062
vt 0.312500 0.906250
vt 0.132812 0.484375
vt 0.468750 0.539062
vt 0.125000 0.445312
vt 0.539062 0.820312
vt 0.484375 0.812500
vt 0.125000 0.484375
vt 0.539062 0.859375
vt 0.468750 0.546875
vt 0.312500 0.820312
vt 0.148438 0.445312
vt 0.710938 0.812500
vt 0.695312 0.546875
vt 0.312500 0.859375
vt 0.148438 0.484375
vt 0.312500 0.585938
vt 0.460938 0.460938
vt 0.484375 0.664062
vt 0.468750 0.460938
vt 0.640625 0.664062
vt 0.468750 0.585938
vt 0.468750 0.625000
vt 0.468750 0.500000
vt 0.640625 0.679688
vt 0.312500 0.625000
vt 0.460938 0.500000
vt 0.484375 0.679688
vt 0.453125 0.460938
vt 0.156250 0.570312
vt 0.484375 0.671875
vt 0.453125 0.500000
vt 0.156250 0.609375
vt 0.484375 0.687500
vt 0.000000 0.570312
vt 0.476562 0.460938
vt 0.640625 0.671875
vt 0.640625 0.687500
vt 0.000000 0.609375
vt 0.476562 0.500000
vt 0.156250 0.570312
vt 0.492188 0.460938
vt 0.484375 0.632812
vt 0.500000 0.460938
vt 0.640625 0.632812
vt 0.312500 0.570312
vt 0.312500 0.609375
vt 0.500000 0.500000
vt 0.640625 0.648438
vt 0.156250 0.609375
vt 0.492188 0.500000
vt 0.484375 0.648438
vt 0.484375 0.460938
vt 0.468750 0.539062
vt 0.484375 0.640625
vt 0.484375 0.500000
vt 0.468750 0.578125
vt 0.484375 0.656250
vt 0.312500 0.539062
vt 0.507812 0.460938
vt 0.640625 0.640625
vt 0.640625 0.656250
vt 0.312500 0.578125
vt 0.507812 0.500000
vt 0.000000 0.531250
vt 0.304688 0.531250
vt 0.156250 0.617188
vt 0.156250 0.500000
vt 0.304688 0.617188
vt 0.148438 0.531250
vt 0.148438 0.562500
vt 0.156250 0.531250
vt 0.148438 0.617188
vt 0.000000 0.562500
vt 0.304688 0.562500
vt 0.000000 0.617188
vt 0.156250 0.531250
vt 0.148438 0.500000
vt 0.156250 0.765625
vt 0.156250 0.562500
vt 0.148438 0.531250
vt 0.000000 0.765625
vt 0.000000 0.500000
vt 0.304688 0.500000
vt 0.304688 0.765625
vt 0.148438 0.765625
vt 0.000000 0.531250
vt 0.304688 0.531250
vt 0.312500 0.468750
vt 0.000000 0.984375
vt 0.000000 1.000000
vt 0.320312 0.468750
vt 0.000000 0.984375
vt 0.007812 1.000000
vt 0.000000 1.000000
vt 0.007812 1.000000
vt 0.320312 0.484375
vt 0.312500 0.484375
vt 0.000000 1.000000
vt 0.000000 0.984375
vt 0.523438 0.484375
vt 0.000000 1.000000
vt 0.523438 0.500000
vt 0.000000 1.000000
vt 0.515625 0.484375
vt 0.007812 1.000000
vt 0.000000 0.984375
vt 0.515625 0.500000
vt 0.000000 1.000000
vt 0.007812 1.000000
vt 0.218750 0.460938
vt 0.000000 0.976562
vt 0.000000 1.000000
vt 0.226562 0.460938
vt 0.000000 0.976562
vt 0.007812 1.000000
vt 0.000000 1.000000
vt 0.007812 1.000000
vt 0.226562 0.484375
vt 0.218750 0.484375
vt 0.000000 1.000000
vt 0.000000 0.976562
vt 0.242188 0.460938
vt 0.000000 1.000000
vt 0.242188 0.484375
vt 0.000000 1.000000
vt 0.007812 1.000000
vt 0.234375 0.460938
vt 0.000000 0.976562
vt 0.234375 0.484375
vt 0.000000 1.000000
vt 0.007812 1.000000
vt 0.156250 0.453125
vt 0.000000 0.968750
vt 0.000000 1.000000
vt 0.164062 0.453125
vt 0.000000 0.968750
vt 0.007812 1.000000
vt 0.000000 1.000000
vt 0.007812 1.000000
vt 0.164062 0.484375
vt 0.156250 0.484375
vt 0.000000 1.000000
vt 0.000000 0.968750
vt 0.179688 0.453125
vt 0.000000 1.000000
vt 0.179688 0.484375
vt 0.000000 1.000000
vt 0.007812 1.000000
vt 0.171875 0.453125
vt 0.000000 0.968750
vt 0.171875 0.484375
vt 0.000000 1.000000
vt 0.007812 1.000000
vt 0.000000 0.445312
vt 0.000000 0.960938
vt 0.000000 1.000000
vt 0.007812 0.445312
vt 0.000000 0.960938
vt 0.007812 1.000000
vt 0.000000 1.000000
vt 0.007812 1.000000
vt 0.007812 0.484375
vt 0.000000 0.484375
vt 0.000000 1.000000
vt 0.000000 0.960938
vt 0.023438 0.445312
vt 0.000000 1.000000
vt 0.023438 0.484375
vt 0.000000 1.000000
vt 0.007812 1.000000
vt 0.015625 0.445312
vt 0.000000 0.960938
vt 0.015625 0.484375
vt 0.000000 1.000000
vt 0.007812 1.000000
vt 0.031250 0.445312
vt 0.000000 0.960938
vt 0.000000 1.000000
vt 0.039062 0.445312
vt 0.000000 0.960938
vt 0.007812 1.000000
vt 0.000000 1.000000
vt 0.007812 1.000000
vt 0.039062 0.484375
vt 0.031250 0.484375
vt 0.000000 1.000000
vt 0.000000 0.960938
vt 0.054688 0.445312
vt 0.000000 1.000000
vt 0.054688 0.484375
vt 0.000000 1.000000
vt 0.046875 0.445312
vt 0.007812 1.000000
vt 0.000000 0.960938
vt 0.046875 0.484375
vt 0.000000 1.000000
vt 0.007812 1.000000
vt 0.359375 0.453125
vt 0.000000 0.953125
vt 0.000000 1.000000
vt 0.367188 0.453125
vt 0.000000 0.953125
vt 0.007812 1.000000
vt 0.000000 1.000000
vt 0.007812 1.000000
vt 0.367188 0.500000
vt 0.359375 0.500000
vt 0.000000 1.000000
vt 0.000000 0.953125
vt 0.382812 0.453125
vt 0.000000 1.000000
vt 0.382812 0.500000
vt 0.000000 1.000000
vt 0.007812 1.000000
vt 0.375000 0.453125
vt 0.000000 0.953125
vt 0.375000 0.500000
vt 0.000000 1.000000
vt 0.007812 1.000000
vt 0.062500 0.445312
vt 0.000000 0.960938
vt 0.000000 1.000000
vt 0.070312 0.445312
vt 0.000000 0.960938
vt 0.007812 1.000000
vt 0.000000 1.000000
vt 0.007812 1.000000
vt 0.070312 0.484375
vt 0.062500 0.484375
vt 0.000000 1.000000
vt 0.000000 0.960938
vt 0.085938 0.445312
vt 0.000000 1.000000
vt 0.085938 0.484375
vt 0.000000 1.000000
vt 0.007812 1.000000
vt 0.078125 0.445312
vt 0.000000 0.960938
vt 0.078125 0.484375
vt 0.000000 1.000000
vt 0.007812 1.000000
vt 0.093750 0.445312
vt 0.000000 0.960938
vt 0.000000 1.000000
vt 0.101562 0.445312
vt 0.000000 0.960938
vt 0.007812 1.000000
vt 0.000000 1.000000
vt 0.007812 1.000000
vt 0.101562 0.484375
vt 0.093750 0.484375
vt 0.000000 1.000000
vt 0.000000 0.960938
vt 0.117188 0.445312
vt 0.000000 1.000000
vt 0.117188 0.484375
vt 0.000000 1.000000
vt 0.109375 0.445312
vt 0.007812 1.000000
vt 0.000000 0.960938
vt 0.109375 0.484375
vt 0.000000 1.000000
vt 0.007812 1.000000
vt 0.187500 0.453125
vt 0.000000 0.968750
vt 0.000000 1.000000
vt 0.195312 0.453125
vt 0.000000 0.968750
vt 0.007812 1.000000
vt 0.000000 1.000000
vt 0.007812 1.000000
vt 0.195312 0.484375
vt 0.187500 0.484375
vt 0.000000 1.000000
vt 0.000000 0.968750
vt 0.210938 0.453125
vt 0.000000 1.000000
vt 0.210938 0.484375
vt 0.000000 1.000000
vt 0.203125 0.453125
vt 0.007812 1.000000
vt 0.000000 0.968750
vt 0.203125 0.484375
vt 0.000000 1.000000
vt 0.007812 1.000000
vt 0.250000 0.460938
vt 0.000000 0.976562
vt 0.000000 1.000000
vt 0.257812 0.460938
vt 0.000000 0.976562
vt 0.007812 1.000000
vt 0.000000 1.000000
vt 0.007812 1.000000
vt 0.257812 0.484375
vt 0.250000 0.484375
vt 0.000000 1.000000
vt 0.000000 0.976562
vt 0.273438 0.460938
vt 0.000000 1.000000
vt 0.273438 0.484375
vt 0.000000 1.000000
vt 0.265625 0.460938
vt 0.007812 1.000000
vt 0.000000 0.976562
vt 0.265625 0.484375
vt 0.000000 1.000000
vt 0.007812 1.000000
s 1
usemtl PirateHat
f 2/6/1 4/10/1 1/1/1
f 1/2/2 6/16/2 5/13/2
f 5/14/3 8/23/3 7/19/3
f 7/20/4 3/8/4 2/4/4
f 6/18/5 3/9/5 8/22/5
f 1/3/6 7/21/6 2/5/6
f 10/29/7 12/34/7 9/25/7
f 9/26/3 14/40/3 13/37/3
f 13/38/8 16/47/8 15/43/8
f 10/30/1 16/48/1 11/31/1
f 14/42/9 11/33/9 16/46/9
f 9/27/10 15/45/10 10/28/10
f 18/53/7 20/58/7 17/49/7
f 17/50/3 22/64/3 21/61/3
f 21/62/8 24/71/8 23/67/8
f 18/54/1 24/72/1 19/55/1
f 22/66/9 19/57/9 24/70/9
f 17/51/10 23/69/10 18/52/10
f 26/78/7 28/82/7 25/73/7
f 29/85/3 28/83/3 30/88/3
f 29/86/8 32/95/8 31/91/8
f 31/92/1 27/80/1 26/76/1
f 30/90/9 27/81/9 32/94/9
f 25/75/10 31/93/10 26/77/10
f 34/101/11 36/106/11 33/97/11
f 33/98/3 38/112/3 37/109/3
f 37/110/12 40/119/12 39/115/12
f 34/102/1 40/120/1 35/103/1
f 38/114/13 35/105/13 40/118/13
f 33/99/14 39/117/14 34/100/14
f 42/125/11 44/130/11 41/121/11
f 41/122/3 46/136/3 45/133/3
f 45/134/12 48/143/12 47/139/12
f 42/126/1 48/144/1 43/127/1
f 46/138/13 43/129/13 48/142/13
f 41/123/14 47/141/14 42/124/14
f 50/149/11 52/154/11 49/145/11
f 49/146/3 54/160/3 53/157/3
f 53/158/12 56/167/12 55/163/12
f 50/150/1 56/168/1 51/151/1
f 54/162/13 51/153/13 56/166/13
f 49/147/14 55/165/14 50/148/14
f 58/174/15 60/178/15 57/169/15
f 57/170/2 62/184/2 61/181/2
f 61/182/16 64/191/16 63/187/16
f 63/188/4 59/176/4 58/172/4
f 62/186/17 59/177/17 64/190/17
f 57/171/18 63/189/18 58/173/18
f 66/198/19 68/202/19 65/193/19
f 65/194/2 70/208/2 69/205/2
f 69/206/20 72/215/20 71/211/20
f 71/212/4 67/200/4 66/196/4
f 70/210/21 67/201/21 72/214/21
f 65/195/22 71/213/22 66/197/22
f 74/222/1 76/226/1 73/217/1
f 73/218/2 78/232/2 77/229/2
f 77/230/3 80/239/3 79/235/3
f 79/236/4 75/224/4 74/220/4
f 78/234/5 75/225/5 80/238/5
f 73/219/6 79/237/6 74/221/6
f 81/241/23 83/249/23 84/250/23
f 85/252/24 84/251/25 86/256/26
f 85/253/27 88/260/27 87/257/27
f 82/245/28 88/261/29 83/247/30
f 88/262/31 84/251/32 83/248/33
f 82/246/34 85/254/35 87/258/36
f 90/266/23 92/272/23 89/263/23
f 93/274/24 92/273/25 94/278/26
f 95/280/27 94/277/27 96/282/27
f 90/267/28 96/283/29 91/269/30
f 96/284/31 92/273/37 91/270/33
f 90/268/38 93/276/35 95/279/36
f 98/288/23 100/294/23 97/285/23
f 101/296/24 100/295/25 102/300/26
f 103/302/27 102/299/27 104/304/27
f 98/289/28 104/305/29 99/291/30
f 104/306/31 100/295/32 99/292/33
f 98/290/38 101/298/35 103/301/36
f 106/310/23 108/316/23 105/307/23
f 109/318/24 108/317/25 110/322/26
f 111/324/27 110/321/27 112/326/27
f 106/311/28 112/327/29 107/313/30
f 112/328/31 108/317/32 107/314/33
f 106/312/38 109/320/35 111/323/36
f 113/329/23 115/337/23 116/338/23
f 117/340/24 116/339/25 118/344/26
f 117/341/27 120/348/27 119/345/27
f 114/333/28 120/349/29 115/335/30
f 120/350/31 116/339/37 115/336/33
f 114/334/34 117/342/35 119/346/36
f 122/354/23 124/360/23 121/351/23
f 125/362/24 124/361/25 126/366/26
f 127/368/27 126/365/27 128/370/27
f 122/355/28 128/371/29 123/357/30
f 128/372/31 124/361/37 123/358/33
f 122/356/38 125/364/35 127/367/36
f 130/376/23 132/382/23 129/373/23
f 133/384/24 132/383/25 134/388/26
f 135/390/27 134/387/27 136/392/27
f 130/377/28 136/393/29 131/379/30
f 136/394/31 132/383/32 131/380/33
f 130/378/34 133/386/35 135/389/36
f 137/395/23 139/403/23 140/404/23
f 141/406/24 140/405/25 142/410/26
f 141/407/27 144/414/27 143/411/27
f 138/399/28 144/415/29 139/401/30
f 144/416/31 140/405/37 139/402/33
f 138/400/38 141/408/39 143/412/36
f 145/417/23 147/425/23 148/426/23
f 149/428/24 148/427/25 150/432/26
f 149/429/27 152/436/27 151/433/27
f 146/421/28 152/437/29 147/423/30
f 152/438/31 148/427/37 147/424/33
f 146/422/38 149/430/39 151/434/36
f 153/439/23 155/447/23 156/448/23
f 157/450/24 156/449/25 158/454/26
f 157/451/27 160/458/27 159/455/27
f 154/443/28 160/459/29 155/445/30
f 160/460/31 156/449/32 155/446/33
f 154/444/34 157/452/35 159/456/36
f 2/6/1 3/7/1 4/10/1
f 1/2/2 4/11/2 6/16/2
f 5/14/3 6/17/3 8/23/3
f 7/20/4 8/24/4 3/8/4
f 6/18/5 4/12/5 3/9/5
f 1/3/6 5/15/6 7/21/6
f 10/29/7 11/32/7 12/34/7
f 9/26/3 12/35/3 14/40/3
f 13/38/8 14/41/8 16/47/8
f 10/30/1 15/44/1 16/48/1
f 14/42/9 12/36/9 11/33/9
f 9/27/10 13/39/10 15/45/10
f 18/53/7 19/56/7 20/58/7
f 17/50/3 20/59/3 22/64/3
f 21/62/8 22/65/8 24/71/8
f 18/54/1 23/68/1 24/72/1
f 22/66/9 20/60/9 19/57/9
f 17/51/10 21/63/10 23/69/10
f 26/78/7 27/79/7 28/82/7
f 29/85/3 25/74/3 28/83/3
f 29/86/8 30/89/8 32/95/8
f 31/92/1 32/96/1 27/80/1
f 30/90/9 28/84/9 27/81/9
f 25/75/10 29/87/10 31/93/10
f 34/101/11 35/104/11 36/106/11
f 33/98/3 36/107/3 38/112/3
f 37/110/12 38/113/12 40/119/12
f 34/102/1 39/116/1 40/120/1
f 38/114/13 36/108/13 35/105/13
f 33/99/14 37/111/14 39/117/14
f 42/125/11 43/128/11 44/130/11
f 41/122/3 44/131/3 46/136/3
f 45/134/12 46/137/12 48/143/12
f 42/126/1 47/140/1 48/144/1
f 46/138/13 44/132/13 43/129/13
f 41/123/14 45/135/14 47/141/14
f 50/149/11 51/152/11 52/154/11
f 49/146/3 52/155/3 54/160/3
f 53/158/12 54/161/12 56/167/12
f 50/150/1 55/164/1 56/168/1
f 54/162/13 52/156/13 51/153/13
f 49/147/14 53/159/14 55/165/14
f 58/174/15 59/175/15 60/178/15
f 57/170/2 60/179/2 62/184/2
f 61/182/16 62/185/16 64/191/16
f 63/188/4 64/192/4 59/176/4
f 62/186/17 60/180/17 59/177/17
f 57/171/18 61/183/18 63/189/18
f 66/198/19 67/199/19 68/202/19
f 65/194/2 68/203/2 70/208/2
f 69/206/20 70/209/20 72/215/20
f 71/212/4 72/216/4 67/200/4
f 70/210/21 68/204/21 67/201/21
f 65/195/22 69/207/22 71/213/22
f 74/222/1 75/223/1 76/226/1
f 73/218/2 76/227/2 78/232/2
f 77/230/3 78/233/3 80/239/3
f 79/236/4 80/240/4 75/224/4
f 78/234/5 76/228/5 75/225/5
f 73/219/6 77/231/6 79/237/6
f 81/241/23 82/244/23 83/249/23
f 85/252/24 81/242/26 84/251/25
f 85/253/27 86/255/27 88/260/27
f 82/245/28 87/259/40 88/261/29
f 88/262/31 86/256/41 84/251/32
f 82/246/34 81/243/36 85/254/35
f 90/266/23 91/271/23 92/272/23
f 93/274/24 89/264/26 92/273/25
f 95/280/27 93/275/27 94/277/27
f 90/267/28 95/281/40 96/283/29
f 96/284/31 94/278/41 92/273/37
f 90/268/38 89/265/36 93/276/35
f 98/288/23 99/293/23 100/294/23
f 101/296/24 97/286/26 100/295/25
f 103/302/27 101/297/27 102/299/27
f 98/289/28 103/303/40 104/305/29
f 104/306/31 102/300/41 100/295/32
f 98/290/38 97/287/36 101/298/35
f 106/310/23 107/315/23 108/316/23
f 109/318/24 105/308/26 108/317/25
f 111/324/27 109/319/27 110/321/27
f 106/311/28 111/325/40 112/327/29
f 112/328/31 110/322/41 108/317/32
f 106/312/38 105/309/36 109/320/35
f 113/329/23 114/332/23 115/337/23
f 117/340/24 113/330/26 116/339/25
f 117/341/27 118/343/27 120/348/27
f 114/333/28 119/347/40 120/349/29
f 120/350/31 118/344/41 116/339/37
f 114/334/34 113/331/36 117/342/35
f 122/354/23 123/359/23 124/360/23
f 125/362/24 121/352/26 124/361/25
f 127/368/27 125/363/27 126/365/27
f 122/355/28 127/369/40 128/371/29
f 128/372/31 126/366/41 124/361/37
f 122/356/38 121/353/36 125/364/35
f 130/376/23 131/381/23 132/382/23
f 133/384/24 129/374/26 132/383/25
f 135/390/27 133/385/27 134/387/27
f 130/377/28 135/391/40 136/393/29
f 136/394/31 134/388/41 132/383/32
f 130/378/34 129/375/36 133/386/35
f 137/395/23 138/398/23 139/403/23
f 141/406/24 137/396/26 140/405/25
f 141/407/27 142/409/27 144/414/27
f 138/399/28 143/413/40 144/415/29
f 144/416/31 142/410/41 140/405/37
f 138/400/38 137/397/36 141/408/39
f 145/417/23 146/420/23 147/425/23
f 149/428/24 145/418/26 148/427/25
f 149/429/27 150/431/27 152/436/27
f 146/421/28 151/435/40 152/437/29
f 152/438/31 150/432/41 148/427/37
f 146/422/38 145/419/36 149/430/39
f 153/439/23 154/442/23 155/447/23
f 157/450/24 153/440/26 156/449/25
f 157/451/27 158/453/27 160/458/27
f 154/443/28 159/457/40 160/459/29
f 160/460/31 158/454/41 156/449/32
f 154/444/34 153/441/36 157/452/35
