# Blender 3.1.0
# www.blender.org
mtllib Lunar_LeiNecklace.mtl
o LeiNecklace
v -0.250000 -1.375077 -0.130033
v -0.125000 -1.375077 -0.130033
v -0.125000 -1.500019 -0.126215
v -0.250000 -1.500018 -0.126215
v 0.125000 -1.375000 -0.126562
v 0.250000 -1.375000 -0.126562
v 0.250000 -1.500000 -0.126562
v 0.125000 -1.500000 -0.126562
v -0.212500 -1.265641 -0.128670
v -0.087500 -1.265641 -0.128670
v -0.087500 -1.390636 -0.127579
v -0.212500 -1.390636 -0.127579
v 0.076562 -1.265640 -0.125199
v 0.201562 -1.265640 -0.125199
v 0.201562 -1.390610 -0.127926
v 0.076562 -1.390610 -0.127926
v 0.017187 -1.187510 -0.125472
v 0.142187 -1.187510 -0.125472
v 0.142187 -1.312490 -0.127653
v 0.017187 -1.312490 -0.127653
v -0.150000 -1.187593 -0.130305
v -0.025000 -1.187593 -0.130305
v -0.025000 -1.312516 -0.125943
v -0.150000 -1.312516 -0.125943
v -0.068750 -1.121925 -0.129590
v 0.056250 -1.121925 -0.129590
v 0.056250 -1.246895 -0.126863
v -0.068750 -1.246895 -0.126863
vn -0.0000 -0.0305 -0.9995
vn -0.0000 -0.0000 -1.0000
vn -0.0000 -0.0087 -1.0000
vn -0.0000 0.0218 -0.9998
vn -0.0000 0.0175 -0.9998
vn -0.0000 -0.0349 -0.9994
vn -0.0000 -0.0218 -0.9998
vt 0.000000 0.500000
vt 0.125000 0.500000
vt 0.125000 0.625000
vt 0.000000 0.625000
vt 0.250000 0.625000
vt 0.375000 0.625000
vt 0.375000 0.750000
vt 0.250000 0.750000
vt 0.250000 0.750000
vt 0.375000 0.750000
vt 0.375000 0.875000
vt 0.250000 0.875000
vt 0.250000 0.875000
vt 0.375000 0.875000
vt 0.375000 1.000000
vt 0.250000 1.000000
vt 0.000000 0.625000
vt 0.125000 0.625000
vt 0.125000 0.750000
vt 0.000000 0.750000
vt 0.000000 0.750000
vt 0.125000 0.750000
vt 0.125000 0.875000
vt 0.000000 0.875000
vt 0.000000 0.875000
vt 0.125000 0.875000
vt 0.125000 1.000000
vt 0.000000 1.000000
s 1
usemtl LeiNecklace
f 2/2/1 4/4/1 1/1/1
f 6/6/2 8/8/2 5/5/2
f 10/10/3 12/12/3 9/9/3
f 14/14/4 16/16/4 13/13/4
f 18/18/5 20/20/5 17/17/5
f 22/22/6 24/24/6 21/21/6
f 26/26/7 28/28/7 25/25/7
f 2/2/1 3/3/1 4/4/1
f 6/6/2 7/7/2 8/8/2
f 10/10/3 11/11/3 12/12/3
f 14/14/4 15/15/4 16/16/4
f 18/18/5 19/19/5 20/20/5
f 22/22/6 23/23/6 24/24/6
f 26/26/7 27/27/7 28/28/7
