# Blender 3.1.0
# www.blender.org
mtllib Lunar_DiamondBelt.mtl
o DiamondBelt
v 0.265625 -0.781250 0.140625
v -0.265625 -0.781250 0.140625
v -0.265625 -0.843750 0.140625
v 0.265625 -0.843750 0.140625
v 0.265625 -0.781250 -0.140625
v 0.265625 -0.843750 -0.140625
v -0.265625 -0.781250 -0.140625
v -0.265625 -0.843750 -0.140625
v 0.046875 -0.795313 0.140625
v -0.046875 -0.795313 0.140625
v -0.046875 -0.795313 0.148437
v 0.046875 -0.795313 0.148437
v 0.046875 -0.826563 0.140625
v 0.046875 -0.826563 0.148437
v -0.046875 -0.826563 0.140625
v -0.046875 -0.826563 0.148437
v 0.039062 -0.779688 0.140625
v -0.039063 -0.779688 0.140625
v -0.039063 -0.779688 0.148437
v 0.039062 -0.779688 0.148437
v 0.039062 -0.795313 0.140625
v 0.039062 -0.795313 0.148437
v -0.039063 -0.795313 0.140625
v -0.039063 -0.795313 0.148437
v 0.031250 -0.771875 0.140625
v -0.031250 -0.771875 0.140625
v -0.031250 -0.771875 0.148437
v 0.031250 -0.771875 0.148437
v 0.031250 -0.779688 0.140625
v 0.031250 -0.779688 0.148437
v -0.031250 -0.779688 0.140625
v -0.031250 -0.779688 0.148437
v 0.023437 -0.764063 0.140625
v -0.023438 -0.764063 0.140625
v -0.023438 -0.764063 0.148437
v 0.023437 -0.764063 0.148437
v 0.023437 -0.771875 0.140625
v 0.023437 -0.771875 0.148437
v -0.023438 -0.771875 0.140625
v -0.023438 -0.771875 0.148437
v 0.039062 -0.826563 0.140625
v -0.039063 -0.826563 0.140625
v -0.039063 -0.826563 0.148437
v 0.039062 -0.826563 0.148437
v 0.039062 -0.842188 0.140625
v 0.039062 -0.842188 0.148437
v -0.039063 -0.842188 0.140625
v -0.039063 -0.842188 0.148437
v 0.031250 -0.842188 0.140625
v -0.031250 -0.842188 0.140625
v -0.031250 -0.842188 0.148437
v 0.031250 -0.842188 0.148437
v 0.031250 -0.850000 0.140625
v 0.031250 -0.850000 0.148437
v -0.031250 -0.850000 0.140625
v -0.031250 -0.850000 0.148437
v 0.023437 -0.850000 0.140625
v -0.023438 -0.850000 0.140625
v -0.023438 -0.850000 0.148437
v 0.023437 -0.850000 0.148437
v 0.023437 -0.857813 0.140625
v 0.023437 -0.857813 0.148437
v -0.023438 -0.857813 0.140625
v -0.023438 -0.857813 0.148437
v 0.015625 -0.857813 0.140625
v -0.015625 -0.857813 0.140625
v -0.015625 -0.857813 0.148437
v 0.015625 -0.857813 0.148437
v 0.015625 -0.865625 0.140625
v 0.015625 -0.865625 0.148437
v -0.015625 -0.865625 0.140625
v -0.015625 -0.865625 0.148437
vn -0.0000 -0.0000 1.0000
vn 1.0000 -0.0000 -0.0000
vn -0.0000 -0.0000 -1.0000
vn -1.0000 -0.0000 -0.0000
vn -0.0000 -1.0000 -0.0000
vn -0.0000 1.0000 -0.0000
vt 0.281250 0.968750
vt 0.421875 0.906250
vt 0.000000 0.703125
vt 0.281250 0.875000
vt 0.265625 0.703125
vt 0.546875 0.968750
vt 0.546875 1.000000
vt 0.281250 0.906250
vt 0.265625 0.859375
vt 0.281250 1.000000
vt 0.421875 0.937500
vt 0.000000 0.859375
vt 0.281250 0.906250
vt 0.546875 0.937500
vt 0.000000 0.843750
vt 0.281250 0.937500
vt 0.546875 0.968750
vt 0.000000 1.000000
vt 0.281250 0.937500
vt 0.421875 0.875000
vt 0.265625 0.843750
vt 0.265625 1.000000
vt 0.281250 0.968750
vt 0.421875 0.906250
vt 0.281250 0.804688
vt 0.062500 0.398438
vt 0.281250 0.828125
vt 0.375000 0.648438
vt 0.328125 0.828125
vt 0.328125 0.804688
vt 0.328125 0.812500
vt 0.375000 0.656250
vt 0.562500 0.875000
vt 0.281250 0.812500
vt 0.062500 0.406250
vt 0.468750 0.875000
vt 0.031250 0.398438
vt 0.328125 0.773438
vt 0.281250 0.843750
vt 0.031250 0.406250
vt 0.328125 0.781250
vt 0.468750 0.906250
vt 0.281250 0.773438
vt 0.406250 0.648438
vt 0.328125 0.843750
vt 0.562500 0.906250
vt 0.281250 0.781250
vt 0.406250 0.656250
vt 0.281250 0.742188
vt 0.140625 0.617188
vt 0.062500 0.679688
vt 0.406250 0.835938
vt 0.101562 0.679688
vt 0.320312 0.742188
vt 0.320312 0.750000
vt 0.406250 0.843750
vt 0.078125 0.546875
vt 0.281250 0.750000
vt 0.140625 0.625000
vt 0.000000 0.546875
vt 0.125000 0.617188
vt 0.320312 0.710938
vt 0.062500 0.687500
vt 0.125000 0.625000
vt 0.320312 0.718750
vt 0.000000 0.562500
vt 0.281250 0.710938
vt 0.421875 0.835938
vt 0.101562 0.687500
vt 0.078125 0.562500
vt 0.281250 0.718750
vt 0.421875 0.843750
vt 0.000000 0.648438
vt 0.164062 0.617188
vt 0.093750 0.648438
vt 0.375000 0.835938
vt 0.125000 0.648438
vt 0.031250 0.648438
vt 0.031250 0.656250
vt 0.375000 0.843750
vt 0.093750 0.492188
vt 0.000000 0.656250
vt 0.164062 0.625000
vt 0.031250 0.492188
vt 0.156250 0.617188
vt 0.062500 0.648438
vt 0.093750 0.656250
vt 0.156250 0.625000
vt 0.062500 0.656250
vt 0.031250 0.500000
vt 0.031250 0.648438
vt 0.382812 0.835938
vt 0.125000 0.656250
vt 0.093750 0.500000
vt 0.031250 0.656250
vt 0.382812 0.843750
vt 0.187500 0.554688
vt 0.195312 0.617188
vt 0.343750 0.773438
vt 0.375000 0.804688
vt 0.367188 0.773438
vt 0.234375 0.554688
vt 0.234375 0.562500
vt 0.375000 0.812500
vt 0.078125 0.460938
vt 0.187500 0.562500
vt 0.195312 0.625000
vt 0.031250 0.460938
vt 0.187500 0.617188
vt 0.367188 0.804688
vt 0.343750 0.781250
vt 0.187500 0.625000
vt 0.367188 0.812500
vt 0.031250 0.468750
vt 0.343750 0.804688
vt 0.382812 0.804688
vt 0.367188 0.781250
vt 0.078125 0.468750
vt 0.343750 0.812500
vt 0.382812 0.812500
vt 0.125000 0.679688
vt 0.234375 0.617188
vt 0.312500 0.679688
vt 0.375000 0.773438
vt 0.351562 0.679688
vt 0.164062 0.679688
vt 0.164062 0.687500
vt 0.375000 0.781250
vt 0.328125 0.546875
vt 0.125000 0.687500
vt 0.234375 0.625000
vt 0.250000 0.546875
vt 0.218750 0.617188
vt 0.226562 0.679688
vt 0.312500 0.687500
vt 0.218750 0.625000
vt 0.226562 0.687500
vt 0.250000 0.562500
vt 0.187500 0.679688
vt 0.390625 0.773438
vt 0.351562 0.687500
vt 0.328125 0.562500
vt 0.187500 0.687500
vt 0.390625 0.781250
vt 0.125000 0.648438
vt 0.257812 0.617188
vt 0.343750 0.835938
vt 0.375000 0.742188
vt 0.375000 0.835938
vt 0.156250 0.648438
vt 0.156250 0.656250
vt 0.375000 0.750000
vt 0.187500 0.492188
vt 0.125000 0.656250
vt 0.257812 0.625000
vt 0.125000 0.492188
vt 0.250000 0.617188
vt 0.375000 0.867188
vt 0.343750 0.843750
vt 0.250000 0.625000
vt 0.375000 0.875000
vt 0.125000 0.500000
vt 0.343750 0.867188
vt 0.382812 0.742188
vt 0.375000 0.843750
vt 0.187500 0.500000
vt 0.343750 0.875000
vt 0.382812 0.750000
vt 0.250000 0.648438
vt 0.289062 0.617188
vt 0.343750 0.710938
vt 0.375000 0.710938
vt 0.367188 0.710938
vt 0.273438 0.648438
vt 0.273438 0.656250
vt 0.375000 0.718750
vt 0.140625 0.460938
vt 0.250000 0.656250
vt 0.289062 0.625000
vt 0.093750 0.460938
vt 0.281250 0.617188
vt 0.367188 0.742188
vt 0.343750 0.718750
vt 0.281250 0.625000
vt 0.367188 0.750000
vt 0.093750 0.468750
vt 0.343750 0.742188
vt 0.382812 0.710938
vt 0.367188 0.718750
vt 0.140625 0.468750
vt 0.343750 0.750000
vt 0.382812 0.718750
vt 0.000000 0.617188
vt 0.320312 0.617188
vt 0.093750 0.617188
vt 0.375000 0.679688
vt 0.109375 0.617188
vt 0.015625 0.617188
vt 0.015625 0.625000
vt 0.375000 0.687500
vt 0.062500 0.429688
vt 0.000000 0.625000
vt 0.320312 0.625000
vt 0.031250 0.429688
vt 0.312500 0.617188
vt 0.062500 0.398438
vt 0.093750 0.625000
vt 0.312500 0.625000
vt 0.062500 0.406250
vt 0.031250 0.437500
vt 0.031250 0.398438
vt 0.382812 0.679688
vt 0.109375 0.625000
vt 0.062500 0.437500
vt 0.031250 0.406250
vt 0.382812 0.687500
s 1
usemtl DiamondBelt
f 2/6/1 4/10/1 1/1/1
f 1/2/2 6/16/2 5/13/2
f 5/14/3 8/23/3 7/19/3
f 7/20/4 3/8/4 2/4/4
f 6/18/5 3/9/5 8/22/5
f 1/3/6 7/21/6 2/5/6
f 10/30/6 12/34/6 9/25/6
f 9/26/2 14/40/2 13/37/2
f 13/38/5 16/47/5 15/43/5
f 15/44/4 11/32/4 10/28/4
f 14/42/1 11/33/1 16/46/1
f 9/27/3 15/45/3 10/29/3
f 18/54/6 20/58/6 17/49/6
f 17/50/2 22/64/2 21/61/2
f 21/62/5 24/71/5 23/67/5
f 23/68/4 19/56/4 18/52/4
f 22/66/1 19/57/1 24/70/1
f 17/51/3 23/69/3 18/53/3
f 26/78/6 28/82/6 25/73/6
f 25/74/2 30/88/2 29/85/2
f 29/86/5 32/95/5 31/91/5
f 31/92/4 27/80/4 26/76/4
f 30/90/1 27/81/1 32/94/1
f 25/75/3 31/93/3 26/77/3
f 34/102/6 36/106/6 33/97/6
f 33/98/2 38/112/2 37/109/2
f 37/110/5 40/119/5 39/115/5
f 39/116/4 35/104/4 34/100/4
f 38/114/1 35/105/1 40/118/1
f 33/99/3 39/117/3 34/101/3
f 42/126/6 44/130/6 41/121/6
f 41/122/2 46/136/2 45/133/2
f 45/134/5 48/143/5 47/139/5
f 47/140/4 43/128/4 42/124/4
f 46/138/1 43/129/1 48/142/1
f 41/123/3 47/141/3 42/125/3
f 50/150/6 52/154/6 49/145/6
f 49/146/2 54/160/2 53/157/2
f 53/158/5 56/167/5 55/163/5
f 55/164/4 51/152/4 50/148/4
f 54/162/1 51/153/1 56/166/1
f 49/147/3 55/165/3 50/149/3
f 58/174/6 60/178/6 57/169/6
f 57/170/2 62/184/2 61/181/2
f 61/182/5 64/191/5 63/187/5
f 63/188/4 59/176/4 58/172/4
f 62/186/1 59/177/1 64/190/1
f 57/171/3 63/189/3 58/173/3
f 66/198/6 68/202/6 65/193/6
f 65/194/2 70/208/2 69/205/2
f 69/206/5 72/215/5 71/211/5
f 71/212/4 67/200/4 66/196/4
f 70/210/1 67/201/1 72/214/1
f 65/195/3 71/213/3 66/197/3
f 2/6/1 3/7/1 4/10/1
f 1/2/2 4/11/2 6/16/2
f 5/14/3 6/17/3 8/23/3
f 7/20/4 8/24/4 3/8/4
f 6/18/5 4/12/5 3/9/5
f 1/3/6 5/15/6 7/21/6
f 10/30/6 11/31/6 12/34/6
f 9/26/2 12/35/2 14/40/2
f 13/38/5 14/41/5 16/47/5
f 15/44/4 16/48/4 11/32/4
f 14/42/1 12/36/1 11/33/1
f 9/27/3 13/39/3 15/45/3
f 18/54/6 19/55/6 20/58/6
f 17/50/2 20/59/2 22/64/2
f 21/62/5 22/65/5 24/71/5
f 23/68/4 24/72/4 19/56/4
f 22/66/1 20/60/1 19/57/1
f 17/51/3 21/63/3 23/69/3
f 26/78/6 27/79/6 28/82/6
f 25/74/2 28/83/2 30/88/2
f 29/86/5 30/89/5 32/95/5
f 31/92/4 32/96/4 27/80/4
f 30/90/1 28/84/1 27/81/1
f 25/75/3 29/87/3 31/93/3
f 34/102/6 35/103/6 36/106/6
f 33/98/2 36/107/2 38/112/2
f 37/110/5 38/113/5 40/119/5
f 39/116/4 40/120/4 35/104/4
f 38/114/1 36/108/1 35/105/1
f 33/99/3 37/111/3 39/117/3
f 42/126/6 43/127/6 44/130/6
f 41/122/2 44/131/2 46/136/2
f 45/134/5 46/137/5 48/143/5
f 47/140/4 48/144/4 43/128/4
f 46/138/1 44/132/1 43/129/1
f 41/123/3 45/135/3 47/141/3
f 50/150/6 51/151/6 52/154/6
f 49/146/2 52/155/2 54/160/2
f 53/158/5 54/161/5 56/167/5
f 55/164/4 56/168/4 51/152/4
f 54/162/1 52/156/1 51/153/1
f 49/147/3 53/159/3 55/165/3
f 58/174/6 59/175/6 60/178/6
f 57/170/2 60/179/2 62/184/2
f 61/182/5 62/185/5 64/191/5
f 63/188/4 64/192/4 59/176/4
f 62/186/1 60/180/1 59/177/1
f 57/171/3 61/183/3 63/189/3
f 66/198/6 67/199/6 68/202/6
f 65/194/2 68/203/2 70/208/2
f 69/206/5 70/209/5 72/215/5
f 71/212/4 72/216/4 67/200/4
f 70/210/1 68/204/1 67/201/1
f 65/195/3 69/207/3 71/213/3
