# Blender 3.1.0
# www.blender.org
mtllib Lunar_EyePatch.mtl
o EyePatch
v -0.250001 -1.828125 -0.250000
v -0.250001 -1.828125 0.250000
v -0.250001 -1.875000 0.250000
v -0.250001 -1.875000 -0.250000
v -0.265626 -1.828125 -0.250000
v -0.265626 -1.875000 -0.250000
v -0.265626 -1.828125 0.250000
v -0.265626 -1.875000 0.250000
v 0.187499 -1.687500 0.265625
v 0.062499 -1.687500 0.265625
v 0.062499 -1.796875 0.265625
v 0.187499 -1.796875 0.265625
v 0.187499 -1.687500 0.250000
v 0.187499 -1.796875 0.250000
v 0.062499 -1.687500 0.250000
v 0.062499 -1.796875 0.250000
v 0.171874 -1.671875 0.265625
v 0.078124 -1.671875 0.265625
v 0.078124 -1.687500 0.265625
v 0.171874 -1.687500 0.265625
v 0.171874 -1.671875 0.250000
v 0.171874 -1.687500 0.250000
v 0.078124 -1.671875 0.250000
v 0.078124 -1.687500 0.250000
v 0.265624 -1.734375 0.265625
v 0.187499 -1.734375 0.265625
v 0.187499 -1.781250 0.265625
v 0.265624 -1.781250 0.265625
v 0.265624 -1.734375 0.250000
v 0.265624 -1.781250 0.250000
v 0.187499 -1.734375 0.250000
v 0.187499 -1.781250 0.250000
v 0.264062 -1.734375 -0.250000
v 0.264062 -1.734375 0.250000
v 0.264062 -1.781250 0.250000
v 0.264062 -1.781250 -0.250000
v 0.248437 -1.734375 -0.250000
v 0.248437 -1.781250 -0.250000
v 0.248437 -1.734375 0.250000
v 0.248437 -1.781250 0.250000
v -0.046875 -1.828125 -0.250000
v -0.265626 -1.828125 -0.250000
v -0.265626 -1.875000 -0.250000
v -0.046876 -1.875000 -0.250000
v -0.046875 -1.828125 -0.265625
v -0.046876 -1.875000 -0.265625
v -0.265626 -1.828125 -0.265625
v -0.265626 -1.875000 -0.265625
v 0.062499 -1.734375 0.265625
v -0.062501 -1.734375 0.265625
v -0.062501 -1.781250 0.265625
v 0.062499 -1.781250 0.265625
v 0.062499 -1.734375 0.250000
v 0.062499 -1.781250 0.250000
v -0.062501 -1.734375 0.250000
v -0.062501 -1.781250 0.250000
v -0.062501 -1.781250 0.265625
v -0.187501 -1.781250 0.265625
v -0.187501 -1.828125 0.265625
v -0.062501 -1.828125 0.265625
v -0.062501 -1.781250 0.250000
v -0.062501 -1.828125 0.250000
v -0.187501 -1.781250 0.250000
v -0.187501 -1.828125 0.250000
v -0.187501 -1.828125 0.265625
v -0.265626 -1.828125 0.265625
v -0.265626 -1.875000 0.265625
v -0.187501 -1.875000 0.265625
v -0.187501 -1.828125 0.250000
v -0.187501 -1.875000 0.250000
v -0.265626 -1.828125 0.250000
v -0.265626 -1.875000 0.250000
v 0.265625 -1.734375 -0.250000
v 0.109375 -1.734375 -0.250000
v 0.109375 -1.781250 -0.250000
v 0.265625 -1.781250 -0.250000
v 0.265625 -1.734375 -0.265625
v 0.265625 -1.781250 -0.265625
v 0.109375 -1.734375 -0.265625
v 0.109375 -1.781250 -0.265625
v 0.109375 -1.781250 -0.250000
v -0.046875 -1.781250 -0.250000
v -0.046875 -1.828125 -0.250000
v 0.109375 -1.828125 -0.250000
v 0.109375 -1.781250 -0.265625
v 0.109375 -1.828125 -0.265625
v -0.046875 -1.781250 -0.265625
v -0.046875 -1.828125 -0.265625
vn 1.0000 -0.0000 -0.0000
vn -0.0000 -0.0000 -1.0000
vn -1.0000 -0.0000 -0.0000
vn -0.0000 -0.0000 1.0000
vn -0.0000 -1.0000 -0.0000
vn -0.0000 1.0000 -0.0000
vt 0.000000 0.828125
vt 0.765625 0.453125
vt 0.500000 0.984375
vt 0.562500 0.203125
vt 1.000000 0.984375
vt 0.500000 0.828125
vt 0.500000 0.875000
vt 0.562500 0.250000
vt 0.500000 0.484375
vt 0.000000 0.875000
vt 0.765625 0.500000
vt 0.000000 0.484375
vt 0.750000 0.453125
vt 0.500000 0.765625
vt 0.500000 1.000000
vt 0.750000 0.500000
vt 0.500000 0.812500
vt 0.000000 0.500000
vt 0.000000 0.765625
vt 0.578125 0.203125
vt 1.000000 1.000000
vt 0.500000 0.500000
vt 0.000000 0.812500
vt 0.578125 0.250000
vt 0.000000 0.640625
vt 0.703125 0.765625
vt 0.625000 0.484375
vt 0.250000 0.203125
vt 0.750000 0.484375
vt 0.125000 0.640625
vt 0.125000 0.750000
vt 0.250000 0.312500
vt 0.750000 0.546875
vt 0.000000 0.750000
vt 0.703125 0.875000
vt 0.625000 0.546875
vt 0.687500 0.765625
vt 0.250000 0.640625
vt 0.625000 0.500000
vt 0.687500 0.875000
vt 0.250000 0.750000
vt 0.625000 0.562500
vt 0.125000 0.640625
vt 0.265625 0.203125
vt 0.750000 0.500000
vt 0.750000 0.562500
vt 0.125000 0.750000
vt 0.265625 0.312500
vt 0.687500 0.734375
vt 0.828125 0.796875
vt 0.562500 0.296875
vt 0.250000 0.171875
vt 0.656250 0.296875
vt 0.781250 0.734375
vt 0.781250 0.750000
vt 0.250000 0.187500
vt 0.531250 0.296875
vt 0.687500 0.750000
vt 0.828125 0.812500
vt 0.437500 0.296875
vt 0.812500 0.796875
vt 0.406250 0.296875
vt 0.562500 0.312500
vt 0.812500 0.812500
vt 0.406250 0.312500
vt 0.437500 0.312500
vt 0.312500 0.296875
vt 0.265625 0.171875
vt 0.656250 0.312500
vt 0.531250 0.312500
vt 0.312500 0.312500
vt 0.265625 0.187500
vt 0.000000 0.390625
vt 0.765625 0.765625
vt 0.000000 0.234375
vt 0.312500 0.203125
vt 0.078125 0.234375
vt 0.078125 0.390625
vt 0.078125 0.437500
vt 0.312500 0.250000
vt 0.765625 0.296875
vt 0.000000 0.437500
vt 0.765625 0.812500
vt 0.687500 0.296875
vt 0.750000 0.765625
vt 0.203125 0.390625
vt 0.000000 0.250000
vt 0.750000 0.812500
vt 0.203125 0.437500
vt 0.687500 0.312500
vt 0.125000 0.390625
vt 0.328125 0.203125
vt 0.078125 0.250000
vt 0.765625 0.312500
vt 0.125000 0.437500
vt 0.328125 0.250000
vt 0.000000 0.953125
vt 0.390625 0.203125
vt 0.000000 0.546875
vt 0.437500 0.203125
vt 0.500000 0.546875
vt 0.500000 0.953125
vt 0.500000 1.000000
vt 0.437500 0.250000
vt 0.500000 0.609375
vt 0.000000 1.000000
vt 0.390625 0.250000
vt 0.000000 0.609375
vt 0.375000 0.203125
vt 0.500000 0.890625
vt 0.000000 0.562500
vt 0.375000 0.250000
vt 0.500000 0.937500
vt 0.000000 0.625000
vt 0.000000 0.890625
vt 0.453125 0.203125
vt 0.500000 0.562500
vt 0.500000 0.625000
vt 0.000000 0.937500
vt 0.453125 0.250000
vt 0.250000 0.703125
vt 0.765625 0.515625
vt 0.000000 0.359375
vt 0.500000 0.203125
vt 0.218750 0.359375
vt 0.468750 0.703125
vt 0.468750 0.750000
vt 0.500000 0.250000
vt 0.718750 0.421875
vt 0.250000 0.750000
vt 0.765625 0.562500
vt 0.500000 0.421875
vt 0.750000 0.515625
vt 0.468750 0.640625
vt 0.000000 0.375000
vt 0.750000 0.562500
vt 0.468750 0.687500
vt 0.500000 0.437500
vt 0.250000 0.640625
vt 0.515625 0.203125
vt 0.218750 0.375000
vt 0.718750 0.437500
vt 0.250000 0.687500
vt 0.515625 0.250000
vt 0.500000 0.640625
vt 0.765625 0.390625
vt 0.000000 0.296875
vt 0.625000 0.203125
vt 0.125000 0.296875
vt 0.625000 0.640625
vt 0.625000 0.687500
vt 0.625000 0.250000
vt 0.750000 0.359375
vt 0.500000 0.687500
vt 0.765625 0.437500
vt 0.625000 0.359375
vt 0.750000 0.390625
vt 0.625000 0.578125
vt 0.000000 0.312500
vt 0.750000 0.437500
vt 0.625000 0.625000
vt 0.625000 0.375000
vt 0.500000 0.578125
vt 0.640625 0.203125
vt 0.125000 0.312500
vt 0.750000 0.375000
vt 0.500000 0.625000
vt 0.640625 0.250000
vt 0.500000 0.515625
vt 0.765625 0.328125
vt 0.125000 0.296875
vt 0.687500 0.203125
vt 0.250000 0.296875
vt 0.625000 0.515625
vt 0.625000 0.562500
vt 0.687500 0.250000
vt 0.812500 0.921875
vt 0.500000 0.562500
vt 0.765625 0.375000
vt 0.687500 0.921875
vt 0.750000 0.328125
vt 0.625000 0.453125
vt 0.125000 0.312500
vt 0.750000 0.375000
vt 0.625000 0.500000
vt 0.687500 0.937500
vt 0.500000 0.453125
vt 0.703125 0.203125
vt 0.250000 0.312500
vt 0.812500 0.937500
vt 0.500000 0.500000
vt 0.703125 0.250000
vt 0.250000 0.390625
vt 0.765625 0.203125
vt 0.750000 0.859375
vt 0.000000 0.140625
vt 0.828125 0.859375
vt 0.328125 0.390625
vt 0.328125 0.437500
vt 0.000000 0.187500
vt 0.203125 0.234375
vt 0.250000 0.437500
vt 0.765625 0.250000
vt 0.125000 0.234375
vt 0.750000 0.203125
vt 0.453125 0.390625
vt 0.750000 0.875000
vt 0.750000 0.250000
vt 0.453125 0.437500
vt 0.125000 0.250000
vt 0.375000 0.390625
vt 0.015625 0.140625
vt 0.828125 0.875000
vt 0.203125 0.250000
vt 0.375000 0.437500
vt 0.015625 0.187500
vt 0.500000 0.890625
vt 0.078125 0.140625
vt 0.625000 0.671875
vt 0.812500 0.890625
vt 0.781250 0.671875
vt 0.656250 0.890625
vt 0.656250 0.937500
vt 0.812500 0.937500
vt 0.406250 0.359375
vt 0.500000 0.937500
vt 0.078125 0.187500
vt 0.250000 0.359375
vt 0.062500 0.140625
vt 0.656250 0.828125
vt 0.625000 0.687500
vt 0.062500 0.187500
vt 0.656250 0.875000
vt 0.250000 0.375000
vt 0.500000 0.828125
vt 0.828125 0.890625
vt 0.781250 0.687500
vt 0.406250 0.375000
vt 0.500000 0.875000
vt 0.828125 0.937500
vt 0.500000 0.765625
vt 0.140625 0.140625
vt 0.437500 0.359375
vt 0.187500 0.140625
vt 0.593750 0.359375
vt 0.656250 0.765625
vt 0.656250 0.812500
vt 0.187500 0.187500
vt 0.781250 0.609375
vt 0.500000 0.812500
vt 0.140625 0.187500
vt 0.625000 0.609375
vt 0.125000 0.140625
vt 0.656250 0.703125
vt 0.437500 0.375000
vt 0.125000 0.187500
vt 0.656250 0.750000
vt 0.625000 0.625000
vt 0.500000 0.703125
vt 0.203125 0.140625
vt 0.593750 0.375000
vt 0.781250 0.625000
vt 0.500000 0.750000
vt 0.203125 0.187500
s 1
usemtl EyePatch
f 2/6/1 4/10/1 1/1/1
f 1/2/2 6/16/2 5/13/2
f 5/14/3 8/23/3 7/19/3
f 7/20/4 3/8/4 2/4/4
f 6/18/5 3/9/5 8/22/5
f 1/3/6 7/21/6 2/5/6
f 10/30/4 12/34/4 9/25/4
f 9/26/1 14/40/1 13/37/1
f 13/38/2 16/47/2 15/43/2
f 15/44/3 11/32/3 10/28/3
f 14/42/5 11/33/5 16/46/5
f 9/27/6 15/45/6 10/29/6
f 18/54/4 20/58/4 17/49/4
f 17/50/1 22/64/1 21/61/1
f 21/62/2 24/71/2 23/67/2
f 23/68/3 19/56/3 18/52/3
f 22/66/5 19/57/5 24/70/5
f 17/51/6 23/69/6 18/53/6
f 26/78/4 28/82/4 25/73/4
f 25/74/1 30/88/1 29/85/1
f 29/86/2 32/95/2 31/91/2
f 31/92/3 27/80/3 26/76/3
f 30/90/5 27/81/5 32/94/5
f 25/75/6 31/93/6 26/77/6
f 34/102/1 36/106/1 33/97/1
f 33/98/2 38/112/2 37/109/2
f 37/110/3 40/119/3 39/115/3
f 39/116/4 35/104/4 34/100/4
f 38/114/5 35/105/5 40/118/5
f 33/99/6 39/117/6 34/101/6
f 42/126/4 44/130/4 41/121/4
f 41/122/1 46/136/1 45/133/1
f 45/134/2 48/143/2 47/139/2
f 47/140/3 43/128/3 42/124/3
f 46/138/5 43/129/5 48/142/5
f 41/123/6 47/141/6 42/125/6
f 50/150/4 52/154/4 49/145/4
f 49/146/1 54/160/1 53/157/1
f 53/158/2 56/167/2 55/163/2
f 55/164/3 51/152/3 50/148/3
f 54/162/5 51/153/5 56/166/5
f 49/147/6 55/165/6 50/149/6
f 58/174/4 60/178/4 57/169/4
f 57/170/1 62/184/1 61/181/1
f 61/182/2 64/191/2 63/187/2
f 63/188/3 59/176/3 58/172/3
f 62/186/5 59/177/5 64/190/5
f 57/171/6 63/189/6 58/173/6
f 66/198/4 68/202/4 65/193/4
f 65/194/1 70/208/1 69/205/1
f 69/206/2 72/215/2 71/211/2
f 71/212/3 67/200/3 66/196/3
f 70/210/5 67/201/5 72/214/5
f 65/195/6 71/213/6 66/197/6
f 74/222/4 76/226/4 73/217/4
f 73/218/1 78/232/1 77/229/1
f 77/230/2 80/239/2 79/235/2
f 79/236/3 75/224/3 74/220/3
f 78/234/5 75/225/5 80/238/5
f 73/219/6 79/237/6 74/221/6
f 82/246/4 84/250/4 81/241/4
f 81/242/1 86/256/1 85/253/1
f 85/254/2 88/263/2 87/259/2
f 87/260/3 83/248/3 82/244/3
f 86/258/5 83/249/5 88/262/5
f 81/243/6 87/261/6 82/245/6
f 2/6/1 3/7/1 4/10/1
f 1/2/2 4/11/2 6/16/2
f 5/14/3 6/17/3 8/23/3
f 7/20/4 8/24/4 3/8/4
f 6/18/5 4/12/5 3/9/5
f 1/3/6 5/15/6 7/21/6
f 10/30/4 11/31/4 12/34/4
f 9/26/1 12/35/1 14/40/1
f 13/38/2 14/41/2 16/47/2
f 15/44/3 16/48/3 11/32/3
f 14/42/5 12/36/5 11/33/5
f 9/27/6 13/39/6 15/45/6
f 18/54/4 19/55/4 20/58/4
f 17/50/1 20/59/1 22/64/1
f 21/62/2 22/65/2 24/71/2
f 23/68/3 24/72/3 19/56/3
f 22/66/5 20/60/5 19/57/5
f 17/51/6 21/63/6 23/69/6
f 26/78/4 27/79/4 28/82/4
f 25/74/1 28/83/1 30/88/1
f 29/86/2 30/89/2 32/95/2
f 31/92/3 32/96/3 27/80/3
f 30/90/5 28/84/5 27/81/5
f 25/75/6 29/87/6 31/93/6
f 34/102/1 35/103/1 36/106/1
f 33/98/2 36/107/2 38/112/2
f 37/110/3 38/113/3 40/119/3
f 39/116/4 40/120/4 35/104/4
f 38/114/5 36/108/5 35/105/5
f 33/99/6 37/111/6 39/117/6
f 42/126/4 43/127/4 44/130/4
f 41/122/1 44/131/1 46/136/1
f 45/134/2 46/137/2 48/143/2
f 47/140/3 48/144/3 43/128/3
f 46/138/5 44/132/5 43/129/5
f 41/123/6 45/135/6 47/141/6
f 50/150/4 51/151/4 52/154/4
f 49/146/1 52/155/1 54/160/1
f 53/158/2 54/161/2 56/167/2
f 55/164/3 56/168/3 51/152/3
f 54/162/5 52/156/5 51/153/5
f 49/147/6 53/159/6 55/165/6
f 58/174/4 59/175/4 60/178/4
f 57/170/1 60/179/1 62/184/1
f 61/182/2 62/185/2 64/191/2
f 63/188/3 64/192/3 59/176/3
f 62/186/5 60/180/5 59/177/5
f 57/171/6 61/183/6 63/189/6
f 66/198/4 67/199/4 68/202/4
f 65/194/1 68/203/1 70/208/1
f 69/206/2 70/209/2 72/215/2
f 71/212/3 72/216/3 67/200/3
f 70/210/5 68/204/5 67/201/5
f 65/195/6 69/207/6 71/213/6
f 74/222/4 75/223/4 76/226/4
f 73/218/1 76/227/1 78/232/1
f 77/230/2 78/233/2 80/239/2
f 79/236/3 80/240/3 75/224/3
f 78/234/5 76/228/5 75/225/5
f 73/219/6 77/231/6 79/237/6
f 82/246/4 83/247/4 84/250/4
f 81/242/1 84/251/1 86/256/1
f 85/254/2 86/257/2 88/263/2
f 87/260/3 88/264/3 83/248/3
f 86/258/5 84/252/5 83/249/5
f 81/243/6 85/255/6 87/261/6
