# Blender 3.1.0
# www.blender.org
mtllib Lunar_BunnyEars.mtl
o BunnyEars
v -0.191888 -0.260809 0.015625
v -0.104988 -0.260809 0.015625
v -0.104988 -0.207934 0.015625
v -0.104988 -0.260809 -0.015625
v -0.104988 -0.207934 -0.015625
v -0.191888 -0.260809 -0.015625
v -0.220950 0.276441 0.015625
v -0.220950 0.213941 0.015625
v -0.076125 0.213941 0.015625
v -0.076125 0.276441 0.015625
v -0.078125 0.213941 -0.015625
v -0.078125 0.276441 -0.015625
v -0.220950 0.213941 -0.015625
v -0.220950 0.276441 -0.015625
v -0.250000 0.213941 0.015625
v -0.250000 -0.067309 0.015625
v -0.046875 -0.067309 0.015625
v -0.046875 0.213941 0.015625
v -0.046875 -0.067309 -0.015625
v -0.046875 0.213941 -0.015625
v -0.250000 -0.067309 -0.015625
v -0.250000 0.213941 -0.015625
v -0.075962 0.213941 -0.015625
v -0.075962 0.213941 0.015625
v -0.220913 -0.067309 0.015625
v -0.220913 -0.207934 0.015625
v -0.075963 -0.207934 0.015625
v -0.075963 -0.207934 -0.015625
v -0.220913 -0.207934 -0.015625
v -0.075963 -0.067309 -0.015625
v -0.075963 -0.067309 0.015625
v -0.220913 -0.067309 -0.015625
v -0.191888 -0.207934 -0.015625
v -0.191888 -0.207934 0.015625
v 0.191887 -0.260809 0.015625
v 0.104987 -0.260809 0.015625
v 0.104987 -0.207934 0.015625
v 0.104987 -0.260809 -0.015625
v 0.104987 -0.207934 -0.015625
v 0.191887 -0.260809 -0.015625
v 0.220950 0.276441 0.015625
v 0.220950 0.213941 0.015625
v 0.076125 0.213941 0.015625
v 0.076125 0.276441 0.015625
v 0.078125 0.213941 -0.015625
v 0.078125 0.276441 -0.015625
v 0.220950 0.213941 -0.015625
v 0.220950 0.276441 -0.015625
v 0.250000 0.213941 0.015625
v 0.250000 -0.067309 0.015625
v 0.046875 -0.067309 0.015625
v 0.046875 0.213941 0.015625
v 0.046875 -0.067309 -0.015625
v 0.046875 0.213941 -0.015625
v 0.250000 -0.067309 -0.015625
v 0.250000 0.213941 -0.015625
v 0.075963 0.213941 -0.015625
v 0.075963 0.213941 0.015625
v 0.220912 -0.067309 0.015625
v 0.220912 -0.207934 0.015625
v 0.075962 -0.207934 0.015625
v 0.075962 -0.207934 -0.015625
v 0.220912 -0.207934 -0.015625
v 0.075962 -0.067309 -0.015625
v 0.075962 -0.067309 0.015625
v 0.220912 -0.067309 -0.015625
v 0.191887 -0.207934 -0.015625
v 0.191887 -0.207934 0.015625
vn -0.0000 -0.0000 -1.0000
vn -0.0000 -1.0000 -0.0000
vn -0.8560 -0.1603 0.4916
vn -1.0000 -0.0000 -0.0000
vn -0.5000 -0.5000 -0.7071
vn -0.0000 -0.0000 1.0000
vn 0.6046 -0.4116 0.6819
vn 1.0000 -0.0000 -0.0000
vn 0.6970 -0.3031 0.6499
vn -0.0000 1.0000 -0.0000
vn 0.9980 -0.0000 -0.0639
vn 0.5158 -0.5163 -0.6837
vn 0.5000 -0.5000 0.7071
vn -0.5160 -0.5160 0.6837
vn -0.5002 -0.4998 -0.7071
vn 0.8558 -0.1604 0.4917
vn 0.5000 -0.5000 -0.7071
vn -0.6045 -0.4118 0.6819
vn -0.6970 -0.3030 0.6499
vn -0.9980 -0.0000 -0.0639
vn -0.5162 -0.5159 -0.6837
vn -0.5000 -0.5000 0.7071
vn 0.5160 -0.5160 0.6837
vn 0.4998 -0.5002 -0.7071
vt 0.093750 0.156250
vt 0.062500 0.125000
vt 0.343750 0.312500
vt 0.000000 0.156250
vt 0.250000 0.312500
vt 0.906250 1.000000
vt 0.250000 0.250000
vt 0.906250 0.937500
vt 0.531288 0.218750
vt 0.531288 1.000000
vt 0.781250 0.375000
vt 0.000000 0.187500
vt 0.875000 1.000000
vt 0.875000 0.937500
vt 0.531288 0.250000
vt 0.781250 0.312500
vt 0.624962 0.812500
vt 0.093750 0.187500
vt 0.687500 0.375000
vt 0.093750 0.125000
vt 0.000000 0.062500
vt 0.906250 0.843750
vt 0.156250 0.312500
vt 0.000000 0.125000
vt 0.156250 0.375000
vt 0.187425 0.718750
vt 0.874925 0.531250
vt 0.000000 0.375000
vt 0.843750 0.187500
vt 0.000000 0.312500
vt 0.750000 0.843750
vt 0.843750 0.125000
vt 0.343750 0.375000
vt 0.812500 0.187500
vt 0.812500 0.125000
vt 0.343750 0.312500
vt 0.750000 0.875000
vt 0.187500 0.375000
vt 0.031250 0.125000
vt 0.874925 0.562500
vt 0.281325 0.718750
vt 0.187500 0.312500
vt 0.906250 0.875000
vt 0.031250 0.062500
vt 0.437500 0.093750
vt 0.906250 0.531250
vt 0.218750 0.718750
vt 0.437500 0.375000
vt 0.218750 1.000000
vt 0.906250 0.593750
vt 0.687500 0.593750
vt 0.406250 0.375000
vt 0.000000 1.000000
vt 0.000000 0.718750
vt 0.687500 0.531250
vt 0.406250 0.093750
vt 0.468750 1.000000
vt 0.687500 0.625000
vt 0.375000 0.375000
vt 0.375000 0.093750
vt 0.468750 0.718750
vt 0.687500 0.562500
vt 0.906250 0.625000
vt 0.468750 0.375000
vt 0.250000 1.000000
vt 0.250000 0.718750
vt 0.468750 0.093750
vt 0.906250 0.562500
vt 0.718825 0.562500
vt 0.437425 0.718750
vt 0.031325 0.718750
vt 0.718825 0.531250
vt 0.750000 0.656250
vt 0.187425 1.000000
vt 0.874925 0.593750
vt 0.656250 0.843750
vt 0.656250 1.000000
vt 0.750000 0.812500
vt 0.656250 0.218750
vt 0.500000 1.000000
vt 0.500000 0.218750
vt 0.156250 0.250000
vt 0.656250 0.812500
vt 0.500000 0.250000
vt 0.125000 0.250000
vt 0.500000 0.812500
vt 0.656250 0.250000
vt 0.781250 0.812500
vt 0.718825 0.625000
vt 0.125000 0.093750
vt 0.437425 1.000000
vt 0.656250 0.656250
vt 0.500000 0.843750
vt 0.718825 0.593750
vt 0.031325 1.000000
vt 0.156250 0.093750
vt 0.500000 0.656250
vt 0.874925 0.625000
vt 0.281325 1.000000
vt 0.781250 0.656250
vt 0.687500 0.312500
vt 0.093750 0.062500
vt 0.531288 0.812500
vt 0.624962 0.250000
vt 0.062500 0.062500
vt 0.343750 0.250000
vt 0.624962 0.218750
vt 0.624962 1.000000
vt 0.093750 0.156250
vt 0.062500 0.125000
vt 0.343750 0.312500
vt 0.000000 0.156250
vt 0.250000 0.312500
vt 0.906250 1.000000
vt 0.250000 0.250000
vt 0.906250 0.937500
vt 0.531288 0.218750
vt 0.531288 1.000000
vt 0.781250 0.375000
vt 0.000000 0.187500
vt 0.875000 1.000000
vt 0.875000 0.937500
vt 0.531288 0.250000
vt 0.781250 0.312500
vt 0.624962 0.812500
vt 0.093750 0.187500
vt 0.687500 0.375000
vt 0.093750 0.125000
vt 0.000000 0.062500
vt 0.906250 0.843750
vt 0.156250 0.312500
vt 0.000000 0.125000
vt 0.156250 0.375000
vt 0.187425 0.718750
vt 0.874925 0.531250
vt 0.000000 0.375000
vt 0.843750 0.187500
vt 0.750000 0.843750
vt 0.000000 0.312500
vt 0.843750 0.125000
vt 0.343750 0.375000
vt 0.812500 0.187500
vt 0.812500 0.125000
vt 0.343750 0.312500
vt 0.750000 0.875000
vt 0.187500 0.375000
vt 0.031250 0.125000
vt 0.874925 0.562500
vt 0.281325 0.718750
vt 0.187500 0.312500
vt 0.906250 0.875000
vt 0.031250 0.062500
vt 0.437500 0.093750
vt 0.218750 0.718750
vt 0.906250 0.531250
vt 0.437500 0.375000
vt 0.218750 1.000000
vt 0.906250 0.593750
vt 0.687500 0.593750
vt 0.406250 0.375000
vt 0.000000 1.000000
vt 0.000000 0.718750
vt 0.687500 0.531250
vt 0.406250 0.093750
vt 0.468750 1.000000
vt 0.687500 0.625000
vt 0.375000 0.375000
vt 0.375000 0.093750
vt 0.468750 0.718750
vt 0.687500 0.562500
vt 0.906250 0.625000
vt 0.468750 0.375000
vt 0.250000 1.000000
vt 0.250000 0.718750
vt 0.468750 0.093750
vt 0.906250 0.562500
vt 0.718825 0.562500
vt 0.437425 0.718750
vt 0.031325 0.718750
vt 0.718825 0.531250
vt 0.750000 0.656250
vt 0.187425 1.000000
vt 0.874925 0.593750
vt 0.656250 0.843750
vt 0.656250 1.000000
vt 0.750000 0.812500
vt 0.656250 0.218750
vt 0.500000 1.000000
vt 0.500000 0.218750
vt 0.156250 0.250000
vt 0.656250 0.812500
vt 0.500000 0.250000
vt 0.125000 0.250000
vt 0.500000 0.812500
vt 0.656250 0.250000
vt 0.781250 0.812500
vt 0.718825 0.625000
vt 0.125000 0.093750
vt 0.437425 1.000000
vt 0.656250 0.656250
vt 0.500000 0.843750
vt 0.718825 0.593750
vt 0.031325 1.000000
vt 0.156250 0.093750
vt 0.500000 0.656250
vt 0.874925 0.625000
vt 0.281325 1.000000
vt 0.781250 0.656250
vt 0.687500 0.312500
vt 0.093750 0.062500
vt 0.531288 0.812500
vt 0.624962 0.250000
vt 0.062500 0.062500
vt 0.343750 0.250000
vt 0.624962 0.218750
vt 0.624962 1.000000
s 1
usemtl BunnyEars
f 5/16/1 6/19/1 33/101/1
f 4/12/2 1/1/2 6/18/2
f 33/102/3 1/2/4 34/105/5
f 34/106/6 2/5/6 3/7/6
f 3/8/7 4/13/8 5/14/9
f 12/36/1 13/38/1 14/42/1
f 7/22/10 12/37/10 14/43/10
f 14/44/4 8/24/4 7/21/4
f 7/23/6 9/28/6 10/30/6
f 10/32/11 11/34/11 12/35/11
f 20/61/1 30/91/1 23/70/1
f 19/58/2 31/94/12 30/89/13
f 18/55/10 23/69/10 24/72/10
f 22/67/4 16/48/4 15/45/4
f 8/26/6 16/49/6 25/74/6
f 18/56/8 19/59/8 20/60/8
f 24/71/6 17/53/6 18/54/6
f 24/71/6 25/74/6 31/95/6
f 8/27/10 22/68/10 15/46/10
f 8/27/10 23/69/10 13/40/10
f 32/98/14 16/50/2 21/63/2
f 13/41/1 21/65/1 22/66/1
f 23/70/1 32/99/1 13/41/1
f 30/92/1 28/83/1 5/17/1
f 28/84/2 3/9/7 5/15/9
f 32/100/14 26/78/4 25/73/15
f 25/76/6 26/77/6 34/108/6
f 31/96/12 28/85/8 30/90/13
f 31/93/6 3/10/6 27/80/6
f 30/92/1 33/103/1 32/97/1
f 32/97/1 33/103/1 29/86/1
f 33/104/3 26/79/2 29/87/2
f 25/76/6 3/10/6 31/93/6
f 40/127/1 39/124/1 67/209/1
f 35/109/2 38/120/2 40/126/2
f 35/110/8 67/210/16 68/213/17
f 36/113/6 68/214/6 37/115/6
f 38/121/4 37/116/18 39/122/19
f 47/146/1 46/144/1 48/150/1
f 41/130/10 46/145/10 44/138/10
f 42/132/8 48/152/8 41/129/8
f 43/136/6 41/131/6 44/139/6
f 45/142/20 44/140/20 46/143/20
f 64/199/1 54/169/1 57/178/1
f 65/202/21 53/166/2 64/197/22
f 57/177/10 52/163/10 58/180/10
f 50/156/8 56/175/8 49/153/8
f 42/134/6 50/157/6 49/154/6
f 53/167/4 52/164/4 54/168/4
f 51/161/6 58/179/6 52/162/6
f 58/179/6 59/182/6 42/134/6
f 56/176/10 42/135/10 49/155/10
f 47/148/10 58/180/10 42/135/10
f 50/158/2 66/206/23 55/171/2
f 55/173/1 47/149/1 56/174/1
f 66/207/1 57/178/1 47/149/1
f 64/200/1 39/125/1 62/191/1
f 37/117/18 62/192/2 39/123/19
f 60/186/8 66/208/23 59/181/24
f 59/184/6 68/216/6 60/185/6
f 62/193/4 65/204/21 64/198/22
f 65/201/6 61/188/6 37/118/6
f 67/211/1 64/200/1 66/205/1
f 66/205/1 63/194/1 67/211/1
f 60/187/2 67/212/16 63/195/2
f 37/118/6 59/184/6 65/201/6
f 5/16/1 4/11/1 6/19/1
f 4/12/2 2/4/2 1/1/2
f 33/102/3 6/20/4 1/2/4
f 34/106/6 1/3/6 2/5/6
f 3/8/7 2/6/8 4/13/8
f 12/36/1 11/33/1 13/38/1
f 7/22/10 10/31/10 12/37/10
f 14/44/4 13/39/4 8/24/4
f 7/23/6 8/25/6 9/28/6
f 10/32/11 9/29/11 11/34/11
f 20/61/1 19/57/1 30/91/1
f 19/58/2 17/51/2 31/94/12
f 18/55/10 20/62/10 23/69/10
f 22/67/4 21/64/4 16/48/4
f 8/26/6 15/47/6 16/49/6
f 18/56/8 17/52/8 19/59/8
f 24/71/6 31/95/6 17/53/6
f 24/71/6 8/26/6 25/74/6
f 8/27/10 13/40/10 22/68/10
f 8/27/10 24/72/10 23/69/10
f 32/98/14 25/75/15 16/50/2
f 13/41/1 32/99/1 21/65/1
f 23/70/1 30/91/1 32/99/1
f 28/84/2 27/81/2 3/9/7
f 32/100/14 29/88/4 26/78/4
f 31/96/12 27/82/8 28/85/8
f 30/92/1 5/17/1 33/103/1
f 33/104/3 34/107/5 26/79/2
f 25/76/6 34/108/6 3/10/6
f 40/127/1 38/119/1 39/124/1
f 35/109/2 36/112/2 38/120/2
f 35/110/8 40/128/8 67/210/16
f 36/113/6 35/111/6 68/214/6
f 38/121/4 36/114/4 37/116/18
f 47/146/1 45/141/1 46/144/1
f 41/130/10 48/151/10 46/145/10
f 42/132/8 47/147/8 48/152/8
f 43/136/6 42/133/6 41/131/6
f 45/142/20 43/137/20 44/140/20
f 64/199/1 53/165/1 54/169/1
f 65/202/21 51/159/2 53/166/2
f 57/177/10 54/170/10 52/163/10
f 50/156/8 55/172/8 56/175/8
f 42/134/6 59/182/6 50/157/6
f 53/167/4 51/160/4 52/164/4
f 51/161/6 65/203/6 58/179/6
f 58/179/6 65/203/6 59/182/6
f 56/176/10 47/148/10 42/135/10
f 47/148/10 57/177/10 58/180/10
f 50/158/2 59/183/24 66/206/23
f 55/173/1 66/207/1 47/149/1
f 66/207/1 64/199/1 57/178/1
f 37/117/18 61/189/2 62/192/2
f 60/186/8 63/196/8 66/208/23
f 62/193/4 61/190/4 65/204/21
f 67/211/1 39/125/1 64/200/1
f 60/187/2 68/215/17 67/212/16
f 37/118/6 68/216/6 59/184/6
