# Blender v2.93.0 OBJ File: 'Lunar_ArrowInHead.blend'
# www.blender.org
mtllib Lunar_ArrowInHead.mtl
o Arrow_Plane.001
v 0.308906 0.015489 0.006000
v 0.303032 0.062180 0.006000
v -0.490711 -0.037680 0.006000
v -0.484837 -0.084371 0.006000
v 0.256341 0.056306 0.006000
v 0.262215 0.009615 0.006000
v 0.209650 0.050432 0.006000
v 0.215524 0.003741 0.006000
v 0.162959 0.044558 0.006000
v 0.168833 -0.002133 0.006000
v 0.116269 0.038684 0.006000
v 0.122143 -0.008007 0.006000
v 0.069578 0.032810 0.006000
v 0.075452 -0.013881 0.006000
v 0.022887 0.026936 0.006000
v 0.028761 -0.019755 0.006000
v -0.023804 0.021061 0.006000
v -0.017930 -0.025629 0.006000
v -0.070495 0.015187 0.006000
v -0.064620 -0.031503 0.006000
v -0.117185 0.009313 0.006000
v -0.111311 -0.037378 0.006000
v -0.163876 0.003439 0.006000
v -0.158002 -0.043252 0.006000
v -0.210567 -0.002435 0.006000
v -0.204693 -0.049126 0.006000
v -0.257258 -0.008309 0.006000
v -0.251383 -0.055000 0.006000
v -0.303948 -0.014183 0.006000
v -0.298074 -0.060874 0.006000
v -0.350639 -0.020057 0.006000
v -0.344765 -0.066748 0.006000
v -0.397330 -0.025932 0.006000
v -0.391456 -0.072622 0.006000
v -0.444021 -0.031806 0.006000
v -0.438147 -0.078496 0.006000
v 0.355538 0.021356 0.006000
v 0.349664 0.068047 0.006000
v 0.308906 0.015489 -0.006000
v 0.303032 0.062180 -0.006000
v -0.490711 -0.037680 -0.006000
v -0.484837 -0.084371 -0.006000
v 0.256341 0.056306 -0.006000
v 0.262215 0.009615 -0.006000
v 0.209650 0.050432 -0.006000
v 0.215524 0.003741 -0.006000
v 0.162959 0.044558 -0.006000
v 0.168833 -0.002133 -0.006000
v 0.116269 0.038684 -0.006000
v 0.122143 -0.008007 -0.006000
v 0.069578 0.032810 -0.006000
v 0.075452 -0.013881 -0.006000
v 0.022887 0.026936 -0.006000
v 0.028761 -0.019755 -0.006000
v -0.023804 0.021061 -0.006000
v -0.017930 -0.025629 -0.006000
v -0.070495 0.015187 -0.006000
v -0.064620 -0.031503 -0.006000
v -0.117185 0.009313 -0.006000
v -0.111311 -0.037378 -0.006000
v -0.163876 0.003439 -0.006000
v -0.158002 -0.043252 -0.006000
v -0.210567 -0.002435 -0.006000
v -0.204693 -0.049126 -0.006000
v -0.257258 -0.008309 -0.006000
v -0.251383 -0.055000 -0.006000
v -0.303948 -0.014183 -0.006000
v -0.298074 -0.060874 -0.006000
v -0.350639 -0.020057 -0.006000
v -0.344765 -0.066748 -0.006000
v -0.397330 -0.025932 -0.006000
v -0.391456 -0.072622 -0.006000
v -0.444021 -0.031806 -0.006000
v -0.438147 -0.078496 -0.006000
v 0.355538 0.021356 -0.006000
v 0.349664 0.068047 -0.006000
v -0.502460 0.055702 -0.000000
v -0.496586 0.009011 -0.000000
v -0.478963 -0.131061 -0.000000
v -0.473089 -0.177752 -0.000000
v -0.309822 0.032507 -0.000000
v -0.303948 -0.014183 -0.000000
v -0.298074 -0.060874 -0.000000
v -0.292200 -0.107565 -0.000000
v -0.362387 0.073324 -0.000000
v -0.356513 0.026633 -0.000000
v -0.350639 -0.020058 -0.000000
v -0.344765 -0.066748 -0.000000
v -0.338891 -0.113439 -0.000000
v -0.333017 -0.160130 -0.000000
v -0.409078 0.067450 -0.000000
v -0.403204 0.020759 -0.000000
v -0.397330 -0.025932 -0.000000
v -0.455769 0.061576 -0.000000
v -0.449895 0.014885 -0.000000
v -0.444021 -0.031806 -0.000000
v -0.438147 -0.078497 -0.000000
v -0.432272 -0.125187 -0.000000
v -0.426398 -0.171878 -0.000000
v -0.487774 -0.061025 0.099647
v -0.487774 -0.061025 0.052588
v -0.487774 -0.061025 -0.052588
v -0.487774 -0.061025 -0.099647
v -0.301011 -0.037529 0.052588
v -0.301011 -0.037529 0.005529
v -0.301011 -0.037529 -0.005529
v -0.301011 -0.037529 -0.052588
v -0.347702 -0.043403 0.099647
v -0.347702 -0.043403 0.052588
v -0.347702 -0.043403 0.005529
v -0.347702 -0.043403 -0.005529
v -0.347702 -0.043403 -0.052588
v -0.347702 -0.043403 -0.099647
v -0.394393 -0.049277 -0.005529
v -0.394393 -0.049277 -0.052588
v -0.394393 -0.049277 -0.099647
v -0.441084 -0.055151 0.099647
v -0.441084 -0.055151 0.052588
v -0.441084 -0.055151 0.005529
v -0.441084 -0.055151 -0.005529
v -0.441084 -0.055151 -0.052588
v -0.441084 -0.055151 -0.099647
v 0.511509 0.040979 0.008000
v 0.505635 0.087669 0.008000
v 0.453070 0.128486 0.008000
v 0.458944 0.081795 0.008000
v 0.464818 0.035105 0.008000
v 0.470692 -0.011586 0.008000
v 0.400505 0.169303 0.008000
v 0.406379 0.122612 0.008000
v 0.412253 0.075921 0.008000
v 0.418127 0.029230 0.008000
v 0.424001 -0.017460 0.008000
v 0.429875 -0.064151 0.008000
v 0.307123 0.157555 0.008000
v 0.312997 0.110864 0.008000
v 0.318872 0.064173 0.008000
v 0.324746 0.017482 0.008000
v 0.330620 -0.029209 0.008000
v 0.336494 -0.075899 0.008000
v 0.511509 0.040979 -0.008000
v 0.505635 0.087669 -0.008000
v 0.453070 0.128486 -0.008000
v 0.458944 0.081795 -0.008000
v 0.464818 0.035105 -0.008000
v 0.470692 -0.011586 -0.008000
v 0.400505 0.169303 -0.008000
v 0.406379 0.122612 -0.008000
v 0.412253 0.075921 -0.008000
v 0.418127 0.029230 -0.008000
v 0.424001 -0.017460 -0.008000
v 0.429875 -0.064151 -0.008000
v 0.307123 0.157555 -0.008000
v 0.312997 0.110864 -0.008000
v 0.318872 0.064173 -0.008000
v 0.324746 0.017482 -0.008000
v 0.330620 -0.029209 -0.008000
v 0.336494 -0.075899 -0.008000
vt 0.000000 1.000000
vt 0.062500 0.937500
vt 0.062500 1.000000
vt 0.000000 0.875000
vt 0.000000 0.937500
vt 0.000000 0.812500
vt 0.062500 0.875000
vt 0.000000 0.750000
vt 0.062500 0.812500
vt 0.000000 0.687500
vt 0.062500 0.750000
vt 0.000000 0.625000
vt 0.062500 0.687500
vt 0.000000 0.593750
vt 0.062500 0.625000
vt 0.000000 0.531250
vt 0.062500 0.593750
vt 0.000000 0.468750
vt 0.062500 0.531250
vt 0.000000 0.406250
vt 0.062500 0.468750
vt 0.000000 0.343750
vt 0.062500 0.406250
vt 0.000000 0.281250
vt 0.062500 0.343750
vt 0.000000 0.250000
vt 0.062500 0.281250
vt 0.000000 0.187500
vt 0.062500 0.250000
vt 0.000000 0.125000
vt 0.062500 0.187500
vt 0.000000 0.062500
vt 0.062500 0.125000
vt 0.000000 0.000000
vt 0.062500 0.062500
vt 0.000000 1.000000
vt 0.000000 1.000000
vt 0.062500 0.937500
vt 0.000000 0.937500
vt 0.000000 0.875000
vt 0.062500 0.875000
vt 0.000000 0.812500
vt 0.062500 0.812500
vt 0.000000 0.750000
vt 0.062500 0.750000
vt 0.000000 0.687500
vt 0.062500 0.687500
vt 0.000000 0.625000
vt 0.062500 0.625000
vt 0.000000 0.593750
vt 0.062500 0.593750
vt 0.000000 0.531250
vt 0.062500 0.531250
vt 0.000000 0.468750
vt 0.062500 0.468750
vt 0.000000 0.406250
vt 0.062500 0.406250
vt 0.000000 0.343750
vt 0.062500 0.343750
vt 0.000000 0.281250
vt 0.062500 0.281250
vt 0.000000 0.250000
vt 0.062500 0.250000
vt 0.000000 0.187500
vt 0.062500 0.187500
vt 0.000000 0.125000
vt 0.062500 0.125000
vt 0.000000 0.062500
vt 0.062500 0.062500
vt 0.000000 0.000000
vt 0.000000 1.000000
vt 0.062500 1.000000
vt 0.001479 0.000830
vt 0.061021 0.000830
vt 0.061021 0.000830
vt 0.001479 0.999170
vt 0.001479 0.936773
vt 0.001479 0.936773
vt 0.061021 0.936773
vt 0.061021 0.999170
vt 0.061021 0.999170
vt 0.001479 0.874377
vt 0.001479 0.874377
vt 0.061021 0.874377
vt 0.061021 0.936773
vt 0.001479 0.811981
vt 0.001479 0.811981
vt 0.061021 0.811981
vt 0.061021 0.874377
vt 0.001479 0.749585
vt 0.001479 0.749585
vt 0.061021 0.749585
vt 0.061021 0.811981
vt 0.001479 0.687189
vt 0.001479 0.687189
vt 0.061021 0.687189
vt 0.061021 0.749585
vt 0.001479 0.624792
vt 0.001479 0.624792
vt 0.061021 0.624792
vt 0.061021 0.687189
vt 0.001479 0.593594
vt 0.001479 0.593594
vt 0.061021 0.593594
vt 0.061021 0.624792
vt 0.001479 0.531198
vt 0.001479 0.531198
vt 0.061021 0.531198
vt 0.061021 0.593594
vt 0.001479 0.468802
vt 0.001479 0.468802
vt 0.061021 0.468802
vt 0.061021 0.531198
vt 0.001479 0.406406
vt 0.001479 0.406406
vt 0.061021 0.406406
vt 0.061021 0.468802
vt 0.001479 0.344010
vt 0.001479 0.344010
vt 0.061021 0.344010
vt 0.061021 0.406406
vt 0.001479 0.281613
vt 0.001479 0.281613
vt 0.061021 0.281613
vt 0.061021 0.344010
vt 0.001479 0.250415
vt 0.001479 0.250415
vt 0.061021 0.250415
vt 0.061021 0.281613
vt 0.001479 0.188019
vt 0.001479 0.188019
vt 0.061021 0.188019
vt 0.061021 0.250415
vt 0.001479 0.125623
vt 0.001479 0.125623
vt 0.061021 0.125623
vt 0.061021 0.188019
vt 0.001479 0.063227
vt 0.001479 0.063227
vt 0.061021 0.063227
vt 0.061021 0.125623
vt 0.001479 0.000830
vt 0.061021 0.063227
vt 0.061021 0.999170
vt 0.001479 0.999170
vt 0.001479 0.999170
vt 0.061021 0.999170
vt 0.001479 0.999170
vt 0.156250 0.593750
vt 0.218750 0.656250
vt 0.156250 0.656250
vt 0.281250 0.593750
vt 0.343750 0.656250
vt 0.281250 0.656250
vt 0.093750 0.531250
vt 0.093750 0.593750
vt 0.156250 0.531250
vt 0.218750 0.593750
vt 0.343750 0.468750
vt 0.406250 0.593750
vt 0.343750 0.593750
vt 0.093750 0.468750
vt 0.156250 0.468750
vt 0.218750 0.531250
vt 0.093750 0.406250
vt 0.343750 0.406250
vt 0.406250 0.468750
vt 0.281250 0.468750
vt 0.156250 0.593750
vt 0.218750 0.656250
vt 0.156250 0.656250
vt 0.281250 0.593750
vt 0.343750 0.656250
vt 0.281250 0.656250
vt 0.156250 0.468750
vt 0.218750 0.593750
vt 0.281250 0.531250
vt 0.343750 0.593750
vt 0.343750 0.531250
vt 0.406250 0.593750
vt 0.281250 0.468750
vt 0.343750 0.468750
vt 0.406250 0.531250
vt 0.093750 0.406250
vt 0.093750 0.468750
vt 0.343750 0.406250
vt 0.406250 0.468750
vt 0.093750 0.593750
vt 0.218750 0.937500
vt 0.281250 0.875000
vt 0.281250 0.937500
vt 0.156250 0.812500
vt 0.218750 0.875000
vt 0.156250 0.875000
vt 0.218750 0.812500
vt 0.281250 0.812500
vt 0.343750 0.875000
vt 0.156250 0.687500
vt 0.218750 0.687500
vt 0.281250 0.687500
vt 0.343750 0.812500
vt 0.343750 0.687500
vt 0.406250 0.812500
vt 0.156250 0.687500
vt 0.093750 0.812500
vt 0.156250 0.812500
vt 0.218750 0.937500
vt 0.281250 0.875000
vt 0.218750 0.875000
vt 0.156250 0.875000
vt 0.218750 0.812500
vt 0.343750 0.875000
vt 0.281250 0.812500
vt 0.218750 0.687500
vt 0.281250 0.687500
vt 0.343750 0.687500
vt 0.343750 0.812500
vt 0.406250 0.687500
vt 0.406250 0.812500
vt 0.093750 0.810547
vt 0.095415 0.689453
vt 0.095415 0.689453
vt 0.280633 0.934570
vt 0.219367 0.934570
vt 0.219367 0.934570
vt 0.219724 0.873047
vt 0.157341 0.873047
vt 0.157341 0.873047
vt 0.342659 0.873047
vt 0.280276 0.873047
vt 0.280276 0.873047
vt 0.158329 0.810547
vt 0.093750 0.810547
vt 0.404585 0.810547
vt 0.341671 0.810547
vt 0.341671 0.810547
vt 0.157249 0.689453
vt 0.157249 0.689453
vt 0.219083 0.689453
vt 0.219083 0.689453
vt 0.280917 0.689453
vt 0.280917 0.689453
vt 0.342751 0.689453
vt 0.342751 0.689453
vt 0.404585 0.689453
vt 0.404585 0.689453
vt 0.219724 0.873047
vt 0.280633 0.934570
vt 0.158329 0.810547
vt 0.342659 0.873047
vt 0.404585 0.810547
vt 0.093750 0.687500
vt 0.093750 0.812500
vt 0.062500 0.000000
vt 0.062500 1.000000
vt 0.062500 0.000000
vt 0.062500 1.000000
vt 0.218750 0.468750
vt 0.156250 0.406250
vt 0.406250 0.406250
vt 0.218750 0.468750
vt 0.156250 0.406250
vt 0.406250 0.406250
vt 0.406250 0.687500
vt 0.093750 0.687500
vt 0.281250 0.937500
vn -0.0000 0.0000 1.0000
vn 0.0000 -0.0000 -1.0000
vn -0.9922 -0.1248 0.0000
vn -0.1248 0.9922 0.0000
vn 0.1248 -0.9922 0.0000
vn 0.9922 0.1248 0.0000
usemtl ArrowInTheHead
s off
f 2/1/1 6/2/1 1/3/1
f 7/4/1 6/2/1 5/5/1
f 9/6/1 8/7/1 7/4/1
f 11/8/1 10/9/1 9/6/1
f 13/10/1 12/11/1 11/8/1
f 15/12/1 14/13/1 13/10/1
f 17/14/1 16/15/1 15/12/1
f 19/16/1 18/17/1 17/14/1
f 21/18/1 20/19/1 19/16/1
f 23/20/1 22/21/1 21/18/1
f 25/22/1 24/23/1 23/20/1
f 27/24/1 26/25/1 25/22/1
f 29/26/1 28/27/1 27/24/1
f 31/28/1 30/29/1 29/26/1
f 33/30/1 32/31/1 31/28/1
f 35/32/1 34/33/1 33/30/1
f 3/34/1 36/35/1 35/32/1
f 1/3/1 38/36/1 2/1/1
f 40/37/2 44/38/2 43/39/2
f 44/38/2 45/40/2 43/39/2
f 46/41/2 47/42/2 45/40/2
f 48/43/2 49/44/2 47/42/2
f 50/45/2 51/46/2 49/44/2
f 52/47/2 53/48/2 51/46/2
f 54/49/2 55/50/2 53/48/2
f 56/51/2 57/52/2 55/50/2
f 58/53/2 59/54/2 57/52/2
f 60/55/2 61/56/2 59/54/2
f 62/57/2 63/58/2 61/56/2
f 64/59/2 65/60/2 63/58/2
f 66/61/2 67/62/2 65/60/2
f 68/63/2 69/64/2 67/62/2
f 70/65/2 71/66/2 69/64/2
f 72/67/2 73/68/2 71/66/2
f 74/69/2 41/70/2 73/68/2
f 76/71/2 39/72/2 40/37/2
f 3/73/3 42/74/3 4/75/3
f 2/76/4 43/77/4 5/78/4
f 6/79/5 39/80/5 1/81/5
f 5/78/4 45/82/4 7/83/4
f 8/84/5 44/85/5 6/79/5
f 7/83/4 47/86/4 9/87/4
f 10/88/5 46/89/5 8/84/5
f 9/87/4 49/90/4 11/91/4
f 12/92/5 48/93/5 10/88/5
f 11/91/4 51/94/4 13/95/4
f 14/96/5 50/97/5 12/92/5
f 13/95/4 53/98/4 15/99/4
f 16/100/5 52/101/5 14/96/5
f 15/99/4 55/102/4 17/103/4
f 18/104/5 54/105/5 16/100/5
f 17/103/4 57/106/4 19/107/4
f 20/108/5 56/109/5 18/104/5
f 19/107/4 59/110/4 21/111/4
f 22/112/5 58/113/5 20/108/5
f 21/111/4 61/114/4 23/115/4
f 24/116/5 60/117/5 22/112/5
f 23/115/4 63/118/4 25/119/4
f 26/120/5 62/121/5 24/116/5
f 25/119/4 65/122/4 27/123/4
f 28/124/5 64/125/5 26/120/5
f 27/123/4 67/126/4 29/127/4
f 30/128/5 66/129/5 28/124/5
f 29/127/4 69/130/4 31/131/4
f 32/132/5 68/133/5 30/128/5
f 31/131/4 71/134/4 33/135/4
f 34/136/5 70/137/5 32/132/5
f 33/135/4 73/138/4 35/139/4
f 36/140/5 72/141/5 34/136/5
f 35/139/4 41/142/4 3/73/4
f 4/75/5 74/143/5 36/140/5
f 37/144/6 76/145/6 38/146/6
f 1/81/5 75/147/5 37/144/5
f 38/146/4 40/148/4 2/76/4
f 86/149/1 82/150/1 81/151/1
f 88/152/1 84/153/1 83/154/1
f 91/155/1 86/149/1 85/156/1
f 92/157/1 87/158/1 86/149/1
f 98/159/1 90/160/1 89/161/1
f 94/162/1 92/157/1 91/155/1
f 95/163/1 93/164/1 92/157/1
f 77/165/1 95/163/1 94/162/1
f 79/166/1 99/167/1 98/159/1
f 97/168/1 89/161/1 88/152/1
f 109/169/5 105/170/5 104/171/5
f 111/172/5 107/173/5 106/174/5
f 118/175/5 110/176/5 109/169/5
f 114/177/5 112/178/5 111/172/5
f 115/179/5 113/180/5 112/178/5
f 120/181/5 115/179/5 114/177/5
f 121/182/5 116/183/5 115/179/5
f 100/184/5 118/175/5 117/185/5
f 102/186/5 122/187/5 121/182/5
f 117/185/5 109/169/5 108/188/5
f 124/189/1 127/190/1 123/191/1
f 130/192/1 126/193/1 125/194/1
f 131/195/1 127/190/1 126/193/1
f 132/196/1 128/197/1 127/190/1
f 136/198/1 131/195/1 130/192/1
f 137/199/1 132/196/1 131/195/1
f 138/200/1 133/201/1 132/196/1
f 139/202/1 134/203/1 133/201/1
f 154/204/2 147/205/2 148/206/2
f 142/207/2 145/208/2 144/209/2
f 144/209/2 148/206/2 143/210/2
f 145/208/2 149/211/2 144/209/2
f 146/212/2 150/213/2 145/208/2
f 155/214/2 148/206/2 149/211/2
f 156/215/2 149/211/2 150/213/2
f 157/216/2 150/213/2 151/217/2
f 158/218/2 151/217/2 152/219/2
f 129/220/4 153/221/4 135/222/4
f 123/223/6 142/224/6 124/225/6
f 126/226/6 143/227/6 125/228/6
f 128/229/6 145/230/6 127/231/6
f 130/232/6 147/233/6 129/220/6
f 134/234/6 151/235/6 133/236/6
f 135/222/3 154/237/3 136/238/3
f 136/238/3 155/239/3 137/240/3
f 137/240/3 156/241/3 138/242/3
f 138/242/3 157/243/3 139/244/3
f 139/244/3 158/245/3 140/246/3
f 124/225/4 144/247/4 126/226/4
f 127/231/5 141/248/5 123/223/5
f 125/228/4 148/249/4 130/232/4
f 133/236/5 146/250/5 128/229/5
f 140/246/5 152/251/5 134/234/5
f 135/252/1 130/192/1 129/253/1
f 2/1/1 5/5/1 6/2/1
f 7/4/1 8/7/1 6/2/1
f 9/6/1 10/9/1 8/7/1
f 11/8/1 12/11/1 10/9/1
f 13/10/1 14/13/1 12/11/1
f 15/12/1 16/15/1 14/13/1
f 17/14/1 18/17/1 16/15/1
f 19/16/1 20/19/1 18/17/1
f 21/18/1 22/21/1 20/19/1
f 23/20/1 24/23/1 22/21/1
f 25/22/1 26/25/1 24/23/1
f 27/24/1 28/27/1 26/25/1
f 29/26/1 30/29/1 28/27/1
f 31/28/1 32/31/1 30/29/1
f 33/30/1 34/33/1 32/31/1
f 35/32/1 36/35/1 34/33/1
f 3/34/1 4/254/1 36/35/1
f 1/3/1 37/255/1 38/36/1
f 40/37/2 39/72/2 44/38/2
f 44/38/2 46/41/2 45/40/2
f 46/41/2 48/43/2 47/42/2
f 48/43/2 50/45/2 49/44/2
f 50/45/2 52/47/2 51/46/2
f 52/47/2 54/49/2 53/48/2
f 54/49/2 56/51/2 55/50/2
f 56/51/2 58/53/2 57/52/2
f 58/53/2 60/55/2 59/54/2
f 60/55/2 62/57/2 61/56/2
f 62/57/2 64/59/2 63/58/2
f 64/59/2 66/61/2 65/60/2
f 66/61/2 68/63/2 67/62/2
f 68/63/2 70/65/2 69/64/2
f 70/65/2 72/67/2 71/66/2
f 72/67/2 74/69/2 73/68/2
f 74/69/2 42/256/2 41/70/2
f 76/71/2 75/257/2 39/72/2
f 3/73/3 41/142/3 42/74/3
f 2/76/4 40/148/4 43/77/4
f 6/79/5 44/85/5 39/80/5
f 5/78/4 43/77/4 45/82/4
f 8/84/5 46/89/5 44/85/5
f 7/83/4 45/82/4 47/86/4
f 10/88/5 48/93/5 46/89/5
f 9/87/4 47/86/4 49/90/4
f 12/92/5 50/97/5 48/93/5
f 11/91/4 49/90/4 51/94/4
f 14/96/5 52/101/5 50/97/5
f 13/95/4 51/94/4 53/98/4
f 16/100/5 54/105/5 52/101/5
f 15/99/4 53/98/4 55/102/4
f 18/104/5 56/109/5 54/105/5
f 17/103/4 55/102/4 57/106/4
f 20/108/5 58/113/5 56/109/5
f 19/107/4 57/106/4 59/110/4
f 22/112/5 60/117/5 58/113/5
f 21/111/4 59/110/4 61/114/4
f 24/116/5 62/121/5 60/117/5
f 23/115/4 61/114/4 63/118/4
f 26/120/5 64/125/5 62/121/5
f 25/119/4 63/118/4 65/122/4
f 28/124/5 66/129/5 64/125/5
f 27/123/4 65/122/4 67/126/4
f 30/128/5 68/133/5 66/129/5
f 29/127/4 67/126/4 69/130/4
f 32/132/5 70/137/5 68/133/5
f 31/131/4 69/130/4 71/134/4
f 34/136/5 72/141/5 70/137/5
f 33/135/4 71/134/4 73/138/4
f 36/140/5 74/143/5 72/141/5
f 35/139/4 73/138/4 41/142/4
f 4/75/5 42/74/5 74/143/5
f 37/144/6 75/147/6 76/145/6
f 1/81/5 39/80/5 75/147/5
f 38/146/4 76/145/4 40/148/4
f 86/149/1 87/158/1 82/150/1
f 88/152/1 89/161/1 84/153/1
f 91/155/1 92/157/1 86/149/1
f 92/157/1 93/164/1 87/158/1
f 98/159/1 99/167/1 90/160/1
f 94/162/1 95/163/1 92/157/1
f 95/163/1 96/258/1 93/164/1
f 77/165/1 78/259/1 95/163/1
f 79/166/1 80/260/1 99/167/1
f 97/168/1 98/159/1 89/161/1
f 109/169/5 110/176/5 105/170/5
f 111/172/5 112/178/5 107/173/5
f 118/175/5 119/261/5 110/176/5
f 114/177/5 115/179/5 112/178/5
f 115/179/5 116/183/5 113/180/5
f 120/181/5 121/182/5 115/179/5
f 121/182/5 122/187/5 116/183/5
f 100/184/5 101/262/5 118/175/5
f 102/186/5 103/263/5 122/187/5
f 117/185/5 118/175/5 109/169/5
f 124/189/1 126/193/1 127/190/1
f 130/192/1 131/195/1 126/193/1
f 131/195/1 132/196/1 127/190/1
f 132/196/1 133/201/1 128/197/1
f 136/198/1 137/199/1 131/195/1
f 137/199/1 138/200/1 132/196/1
f 138/200/1 139/202/1 133/201/1
f 139/202/1 140/264/1 134/203/1
f 154/204/2 153/265/2 147/205/2
f 142/207/2 141/266/2 145/208/2
f 144/209/2 149/211/2 148/206/2
f 145/208/2 150/213/2 149/211/2
f 146/212/2 151/217/2 150/213/2
f 155/214/2 154/204/2 148/206/2
f 156/215/2 155/214/2 149/211/2
f 157/216/2 156/215/2 150/213/2
f 158/218/2 157/216/2 151/217/2
f 129/220/4 147/233/4 153/221/4
f 123/223/6 141/248/6 142/224/6
f 126/226/6 144/247/6 143/227/6
f 128/229/6 146/250/6 145/230/6
f 130/232/6 148/249/6 147/233/6
f 134/234/6 152/251/6 151/235/6
f 135/222/3 153/221/3 154/237/3
f 136/238/3 154/237/3 155/239/3
f 137/240/3 155/239/3 156/241/3
f 138/242/3 156/241/3 157/243/3
f 139/244/3 157/243/3 158/245/3
f 124/225/4 142/224/4 144/247/4
f 127/231/5 145/230/5 141/248/5
f 125/228/4 143/227/4 148/249/4
f 133/236/5 151/235/5 146/250/5
f 140/246/5 158/245/5 152/251/5
f 135/252/1 136/198/1 130/192/1
