# Blender 3.1.0
# www.blender.org
mtllib Lunar_CrescentBelt.mtl
o CrescentBelt
v 0.265625 -0.781250 0.140625
v -0.265625 -0.781250 0.140625
v -0.265625 -0.843750 0.140625
v 0.265625 -0.843750 0.140625
v 0.265625 -0.781250 -0.140625
v 0.265625 -0.843750 -0.140625
v -0.265625 -0.781250 -0.140625
v -0.265625 -0.843750 -0.140625
v 0.038281 -0.796562 0.146719
v 0.030625 -0.796562 0.146719
v 0.030625 -0.827187 0.146719
v 0.038281 -0.827187 0.146719
v 0.038281 -0.796562 0.139062
v 0.038281 -0.827187 0.139062
v 0.030625 -0.796562 0.139062
v 0.030625 -0.827187 0.139062
v 0.030625 -0.781250 0.146719
v 0.022968 -0.781250 0.146719
v 0.022968 -0.842500 0.146719
v 0.030625 -0.842500 0.146719
v 0.030625 -0.781250 0.139062
v 0.030625 -0.842500 0.139062
v 0.022968 -0.781250 0.139062
v 0.022968 -0.842500 0.139062
v 0.022968 -0.781250 0.146719
v 0.015312 -0.781250 0.146719
v 0.015312 -0.850156 0.146719
v 0.022968 -0.850156 0.146719
v 0.022968 -0.781250 0.139062
v 0.022968 -0.850156 0.139062
v 0.015312 -0.781250 0.139062
v 0.015312 -0.850156 0.139062
v 0.015312 -0.773594 0.146719
v 0.007656 -0.773594 0.146719
v 0.007656 -0.850156 0.146719
v 0.015312 -0.850156 0.146719
v 0.015312 -0.773594 0.139062
v 0.015312 -0.850156 0.139062
v 0.007656 -0.773594 0.139062
v 0.007656 -0.850156 0.139062
v 0.007656 -0.773594 0.146719
v -0.000000 -0.773594 0.146719
v -0.000000 -0.811875 0.146719
v 0.007656 -0.811875 0.146719
v 0.007656 -0.773594 0.139062
v 0.007656 -0.811875 0.139062
v -0.000000 -0.773594 0.139062
v -0.000000 -0.811875 0.139062
v 0.007656 -0.834844 0.146719
v -0.000000 -0.834844 0.146719
v -0.000000 -0.850156 0.146719
v 0.007656 -0.850156 0.146719
v 0.007656 -0.834844 0.139062
v 0.007656 -0.850156 0.139062
v -0.000000 -0.834844 0.139062
v -0.000000 -0.850156 0.139062
v -0.000000 -0.842500 0.146719
v -0.007657 -0.842500 0.146719
v -0.007657 -0.850156 0.146719
v -0.000000 -0.850156 0.146719
v -0.000000 -0.842500 0.139062
v -0.000000 -0.850156 0.139062
v -0.007657 -0.842500 0.139062
v -0.007657 -0.850156 0.139062
v -0.000000 -0.773594 0.146719
v -0.007657 -0.773594 0.146719
v -0.007657 -0.804219 0.146719
v -0.000000 -0.804219 0.146719
v -0.000000 -0.773594 0.139062
v -0.000000 -0.804219 0.139062
v -0.007657 -0.773594 0.139062
v -0.007657 -0.804219 0.139062
v -0.007657 -0.773594 0.146719
v -0.015313 -0.773594 0.146719
v -0.015313 -0.796562 0.146719
v -0.007657 -0.796562 0.146719
v -0.007657 -0.773594 0.139062
v -0.007657 -0.796562 0.139062
v -0.015313 -0.773594 0.139062
v -0.015313 -0.796562 0.139062
v -0.015313 -0.773594 0.146719
v -0.022969 -0.773594 0.146719
v -0.022969 -0.796562 0.146719
v -0.015313 -0.796562 0.146719
v -0.015313 -0.773594 0.139062
v -0.015313 -0.796562 0.139062
v -0.022969 -0.773594 0.139062
v -0.022969 -0.796562 0.139062
v -0.022969 -0.781250 0.146719
v -0.030625 -0.781250 0.146719
v -0.030625 -0.796562 0.146719
v -0.022969 -0.796562 0.146719
v -0.022969 -0.781250 0.139062
v -0.022969 -0.796562 0.139062
v -0.030625 -0.781250 0.139062
v -0.030625 -0.796562 0.139062
v -0.030625 -0.788906 0.146719
v -0.038282 -0.788906 0.146719
v -0.038282 -0.804219 0.146719
v -0.030625 -0.804219 0.146719
v -0.030625 -0.788906 0.139062
v -0.030625 -0.804219 0.139062
v -0.038282 -0.788906 0.139062
v -0.038282 -0.804219 0.139062
vn -0.0000 -0.0000 1.0000
vn 1.0000 -0.0000 -0.0000
vn -0.0000 -0.0000 -1.0000
vn -1.0000 -0.0000 -0.0000
vn -0.0000 -1.0000 -0.0000
vn -0.0000 1.0000 -0.0000
vt 0.281250 0.968750
vt 0.421875 0.906250
vt 0.000000 0.703125
vt 0.281250 0.875000
vt 0.265625 0.703125
vt 0.546875 0.968750
vt 0.546875 1.000000
vt 0.281250 0.906250
vt 0.265625 0.859375
vt 0.281250 1.000000
vt 0.421875 0.937500
vt 0.000000 0.859375
vt 0.281250 0.906250
vt 0.546875 0.937500
vt 0.000000 0.843750
vt 0.281250 0.937500
vt 0.546875 0.968750
vt 0.000000 1.000000
vt 0.281250 0.937500
vt 0.421875 0.875000
vt 0.265625 0.843750
vt 0.265625 1.000000
vt 0.281250 0.968750
vt 0.421875 0.906250
vt 0.312500 0.734375
vt 0.285156 0.671875
vt 0.375000 0.777344
vt 0.312500 0.671875
vt 0.378906 0.777344
vt 0.316406 0.734375
vt 0.316406 0.750000
vt 0.312500 0.687500
vt 0.222656 0.621094
vt 0.312500 0.750000
vt 0.285156 0.687500
vt 0.218750 0.621094
vt 0.281250 0.671875
vt 0.316406 0.703125
vt 0.375000 0.781250
vt 0.281250 0.687500
vt 0.316406 0.718750
vt 0.218750 0.625000
vt 0.312500 0.703125
vt 0.316406 0.671875
vt 0.378906 0.781250
vt 0.222656 0.625000
vt 0.312500 0.718750
vt 0.316406 0.687500
vt 0.312500 0.843750
vt 0.160156 0.656250
vt 0.375000 0.746094
vt 0.187500 0.656250
vt 0.378906 0.746094
vt 0.316406 0.843750
vt 0.316406 0.875000
vt 0.187500 0.687500
vt 0.253906 0.621094
vt 0.312500 0.875000
vt 0.160156 0.687500
vt 0.250000 0.621094
vt 0.156250 0.656250
vt 0.316406 0.812500
vt 0.375000 0.750000
vt 0.156250 0.687500
vt 0.316406 0.843750
vt 0.250000 0.625000
vt 0.312500 0.812500
vt 0.191406 0.656250
vt 0.378906 0.750000
vt 0.253906 0.625000
vt 0.312500 0.843750
vt 0.191406 0.687500
vt 0.031250 0.652344
vt 0.066406 0.652344
vt 0.375000 0.714844
vt 0.125000 0.652344
vt 0.378906 0.714844
vt 0.035156 0.652344
vt 0.035156 0.687500
vt 0.125000 0.687500
vt 0.285156 0.621094
vt 0.031250 0.687500
vt 0.066406 0.687500
vt 0.281250 0.621094
vt 0.062500 0.652344
vt 0.097656 0.652344
vt 0.375000 0.718750
vt 0.062500 0.687500
vt 0.097656 0.687500
vt 0.281250 0.625000
vt 0.093750 0.652344
vt 0.128906 0.652344
vt 0.378906 0.718750
vt 0.285156 0.625000
vt 0.093750 0.687500
vt 0.128906 0.687500
vt 0.281250 0.835938
vt 0.285156 0.773438
vt 0.375000 0.683594
vt 0.000000 0.648438
vt 0.378906 0.683594
vt 0.285156 0.835938
vt 0.285156 0.875000
vt 0.000000 0.687500
vt 0.316406 0.621094
vt 0.281250 0.875000
vt 0.285156 0.812500
vt 0.312500 0.621094
vt 0.281250 0.773438
vt 0.285156 0.710938
vt 0.375000 0.687500
vt 0.281250 0.812500
vt 0.285156 0.750000
vt 0.312500 0.625000
vt 0.281250 0.710938
vt 0.003906 0.648438
vt 0.378906 0.687500
vt 0.316406 0.625000
vt 0.281250 0.750000
vt 0.003906 0.687500
vt 0.312500 0.792969
vt 0.222656 0.667969
vt 0.375000 0.652344
vt 0.250000 0.667969
vt 0.378906 0.652344
vt 0.316406 0.792969
vt 0.316406 0.812500
vt 0.250000 0.687500
vt 0.347656 0.621094
vt 0.312500 0.812500
vt 0.222656 0.687500
vt 0.343750 0.621094
vt 0.218750 0.667969
vt 0.316406 0.761719
vt 0.375000 0.656250
vt 0.218750 0.687500
vt 0.316406 0.781250
vt 0.343750 0.625000
vt 0.312500 0.761719
vt 0.253906 0.667969
vt 0.378906 0.656250
vt 0.347656 0.625000
vt 0.312500 0.781250
vt 0.253906 0.687500
vt 0.343750 0.679688
vt 0.347656 0.648438
vt 0.000000 0.589844
vt 0.031250 0.617188
vt 0.003906 0.589844
vt 0.347656 0.679688
vt 0.347656 0.687500
vt 0.031250 0.625000
vt 0.378906 0.621094
vt 0.343750 0.687500
vt 0.347656 0.656250
vt 0.375000 0.621094
vt 0.343750 0.648438
vt 0.003906 0.617188
vt 0.000000 0.593750
vt 0.343750 0.656250
vt 0.003906 0.625000
vt 0.375000 0.625000
vt 0.000000 0.617188
vt 0.035156 0.617188
vt 0.003906 0.593750
vt 0.378906 0.625000
vt 0.000000 0.625000
vt 0.035156 0.625000
vt 0.031250 0.589844
vt 0.066406 0.589844
vt 0.156250 0.589844
vt 0.125000 0.589844
vt 0.160156 0.589844
vt 0.035156 0.589844
vt 0.035156 0.593750
vt 0.125000 0.593750
vt 0.410156 0.871094
vt 0.031250 0.593750
vt 0.066406 0.593750
vt 0.406250 0.871094
vt 0.062500 0.589844
vt 0.097656 0.589844
vt 0.156250 0.593750
vt 0.062500 0.593750
vt 0.097656 0.593750
vt 0.406250 0.875000
vt 0.093750 0.589844
vt 0.128906 0.589844
vt 0.160156 0.593750
vt 0.410156 0.875000
vt 0.093750 0.593750
vt 0.128906 0.593750
vt 0.343750 0.859375
vt 0.160156 0.640625
vt 0.187500 0.589844
vt 0.187500 0.640625
vt 0.191406 0.589844
vt 0.347656 0.859375
vt 0.347656 0.875000
vt 0.187500 0.656250
vt 0.410156 0.839844
vt 0.343750 0.875000
vt 0.160156 0.656250
vt 0.406250 0.839844
vt 0.156250 0.640625
vt 0.347656 0.828125
vt 0.187500 0.593750
vt 0.156250 0.656250
vt 0.347656 0.843750
vt 0.406250 0.843750
vt 0.343750 0.828125
vt 0.191406 0.640625
vt 0.191406 0.593750
vt 0.410156 0.843750
vt 0.343750 0.843750
vt 0.191406 0.656250
vt 0.343750 0.800781
vt 0.222656 0.644531
vt 0.218750 0.589844
vt 0.250000 0.644531
vt 0.222656 0.589844
vt 0.347656 0.800781
vt 0.347656 0.812500
vt 0.250000 0.656250
vt 0.410156 0.808594
vt 0.343750 0.812500
vt 0.222656 0.656250
vt 0.406250 0.808594
vt 0.218750 0.644531
vt 0.347656 0.769531
vt 0.218750 0.593750
vt 0.218750 0.656250
vt 0.347656 0.781250
vt 0.406250 0.812500
vt 0.343750 0.769531
vt 0.253906 0.644531
vt 0.222656 0.593750
vt 0.410156 0.812500
vt 0.343750 0.781250
vt 0.253906 0.656250
vt 0.343750 0.738281
vt 0.285156 0.644531
vt 0.250000 0.589844
vt 0.312500 0.644531
vt 0.253906 0.589844
vt 0.347656 0.738281
vt 0.347656 0.750000
vt 0.312500 0.656250
vt 0.410156 0.777344
vt 0.343750 0.750000
vt 0.285156 0.656250
vt 0.406250 0.777344
vt 0.281250 0.644531
vt 0.347656 0.707031
vt 0.250000 0.593750
vt 0.281250 0.656250
vt 0.347656 0.718750
vt 0.406250 0.781250
vt 0.343750 0.707031
vt 0.316406 0.644531
vt 0.253906 0.593750
vt 0.410156 0.781250
vt 0.343750 0.718750
vt 0.316406 0.656250
vt 0.062500 0.617188
vt 0.097656 0.617188
vt 0.281250 0.589844
vt 0.375000 0.867188
vt 0.285156 0.589844
vt 0.066406 0.617188
vt 0.066406 0.625000
vt 0.375000 0.875000
vt 0.410156 0.746094
vt 0.062500 0.625000
vt 0.097656 0.625000
vt 0.406250 0.746094
vt 0.093750 0.617188
vt 0.128906 0.617188
vt 0.281250 0.593750
vt 0.093750 0.625000
vt 0.128906 0.625000
vt 0.406250 0.750000
vt 0.125000 0.617188
vt 0.378906 0.867188
vt 0.285156 0.593750
vt 0.410156 0.750000
vt 0.125000 0.625000
vt 0.378906 0.875000
vt 0.156250 0.617188
vt 0.378906 0.835938
vt 0.312500 0.589844
vt 0.375000 0.804688
vt 0.316406 0.589844
vt 0.160156 0.617188
vt 0.160156 0.625000
vt 0.375000 0.812500
vt 0.410156 0.714844
vt 0.156250 0.625000
vt 0.378906 0.843750
vt 0.406250 0.714844
vt 0.375000 0.835938
vt 0.191406 0.617188
vt 0.312500 0.593750
vt 0.375000 0.843750
vt 0.191406 0.625000
vt 0.406250 0.718750
vt 0.187500 0.617188
vt 0.378906 0.804688
vt 0.316406 0.593750
vt 0.410156 0.718750
vt 0.187500 0.625000
vt 0.378906 0.812500
s 1
usemtl CrescentBelt
f 2/6/1 4/10/1 1/1/1
f 1/2/2 6/16/2 5/13/2
f 5/14/3 8/23/3 7/19/3
f 7/20/4 3/8/4 2/4/4
f 6/18/5 3/9/5 8/22/5
f 1/3/6 7/21/6 2/5/6
f 10/30/1 12/34/1 9/25/1
f 9/26/2 14/40/2 13/37/2
f 13/38/3 16/47/3 15/43/3
f 15/44/4 11/32/4 10/28/4
f 14/42/5 11/33/5 16/46/5
f 9/27/6 15/45/6 10/29/6
f 18/54/1 20/58/1 17/49/1
f 17/50/2 22/64/2 21/61/2
f 21/62/3 24/71/3 23/67/3
f 23/68/4 19/56/4 18/52/4
f 22/66/5 19/57/5 24/70/5
f 17/51/6 23/69/6 18/53/6
f 26/78/1 28/82/1 25/73/1
f 25/74/2 30/88/2 29/85/2
f 29/86/3 32/95/3 31/91/3
f 31/92/4 27/80/4 26/76/4
f 30/90/5 27/81/5 32/94/5
f 25/75/6 31/93/6 26/77/6
f 34/102/1 36/106/1 33/97/1
f 33/98/2 38/112/2 37/109/2
f 37/110/3 40/119/3 39/115/3
f 39/116/4 35/104/4 34/100/4
f 38/114/5 35/105/5 40/118/5
f 33/99/6 39/117/6 34/101/6
f 42/126/1 44/130/1 41/121/1
f 41/122/2 46/136/2 45/133/2
f 45/134/3 48/143/3 47/139/3
f 47/140/4 43/128/4 42/124/4
f 46/138/5 43/129/5 48/142/5
f 41/123/6 47/141/6 42/125/6
f 50/150/1 52/154/1 49/145/1
f 49/146/2 54/160/2 53/157/2
f 53/158/3 56/167/3 55/163/3
f 55/164/4 51/152/4 50/148/4
f 54/162/5 51/153/5 56/166/5
f 49/147/6 55/165/6 50/149/6
f 58/174/1 60/178/1 57/169/1
f 57/170/2 62/184/2 61/181/2
f 61/182/3 64/191/3 63/187/3
f 63/188/4 59/176/4 58/172/4
f 62/186/5 59/177/5 64/190/5
f 57/171/6 63/189/6 58/173/6
f 66/198/1 68/202/1 65/193/1
f 65/194/2 70/208/2 69/205/2
f 69/206/3 72/215/3 71/211/3
f 71/212/4 67/200/4 66/196/4
f 70/210/5 67/201/5 72/214/5
f 65/195/6 71/213/6 66/197/6
f 74/222/1 76/226/1 73/217/1
f 73/218/2 78/232/2 77/229/2
f 77/230/3 80/239/3 79/235/3
f 79/236/4 75/224/4 74/220/4
f 78/234/5 75/225/5 80/238/5
f 73/219/6 79/237/6 74/221/6
f 82/246/1 84/250/1 81/241/1
f 81/242/2 86/256/2 85/253/2
f 85/254/3 88/263/3 87/259/3
f 87/260/4 83/248/4 82/244/4
f 86/258/5 83/249/5 88/262/5
f 81/243/6 87/261/6 82/245/6
f 90/270/1 92/274/1 89/265/1
f 89/266/2 94/280/2 93/277/2
f 93/278/3 96/287/3 95/283/3
f 95/284/4 91/272/4 90/268/4
f 94/282/5 91/273/5 96/286/5
f 89/267/6 95/285/6 90/269/6
f 98/294/1 100/298/1 97/289/1
f 97/290/2 102/304/2 101/301/2
f 101/302/3 104/311/3 103/307/3
f 103/308/4 99/296/4 98/292/4
f 102/306/5 99/297/5 104/310/5
f 97/291/6 103/309/6 98/293/6
f 2/6/1 3/7/1 4/10/1
f 1/2/2 4/11/2 6/16/2
f 5/14/3 6/17/3 8/23/3
f 7/20/4 8/24/4 3/8/4
f 6/18/5 4/12/5 3/9/5
f 1/3/6 5/15/6 7/21/6
f 10/30/1 11/31/1 12/34/1
f 9/26/2 12/35/2 14/40/2
f 13/38/3 14/41/3 16/47/3
f 15/44/4 16/48/4 11/32/4
f 14/42/5 12/36/5 11/33/5
f 9/27/6 13/39/6 15/45/6
f 18/54/1 19/55/1 20/58/1
f 17/50/2 20/59/2 22/64/2
f 21/62/3 22/65/3 24/71/3
f 23/68/4 24/72/4 19/56/4
f 22/66/5 20/60/5 19/57/5
f 17/51/6 21/63/6 23/69/6
f 26/78/1 27/79/1 28/82/1
f 25/74/2 28/83/2 30/88/2
f 29/86/3 30/89/3 32/95/3
f 31/92/4 32/96/4 27/80/4
f 30/90/5 28/84/5 27/81/5
f 25/75/6 29/87/6 31/93/6
f 34/102/1 35/103/1 36/106/1
f 33/98/2 36/107/2 38/112/2
f 37/110/3 38/113/3 40/119/3
f 39/116/4 40/120/4 35/104/4
f 38/114/5 36/108/5 35/105/5
f 33/99/6 37/111/6 39/117/6
f 42/126/1 43/127/1 44/130/1
f 41/122/2 44/131/2 46/136/2
f 45/134/3 46/137/3 48/143/3
f 47/140/4 48/144/4 43/128/4
f 46/138/5 44/132/5 43/129/5
f 41/123/6 45/135/6 47/141/6
f 50/150/1 51/151/1 52/154/1
f 49/146/2 52/155/2 54/160/2
f 53/158/3 54/161/3 56/167/3
f 55/164/4 56/168/4 51/152/4
f 54/162/5 52/156/5 51/153/5
f 49/147/6 53/159/6 55/165/6
f 58/174/1 59/175/1 60/178/1
f 57/170/2 60/179/2 62/184/2
f 61/182/3 62/185/3 64/191/3
f 63/188/4 64/192/4 59/176/4
f 62/186/5 60/180/5 59/177/5
f 57/171/6 61/183/6 63/189/6
f 66/198/1 67/199/1 68/202/1
f 65/194/2 68/203/2 70/208/2
f 69/206/3 70/209/3 72/215/3
f 71/212/4 72/216/4 67/200/4
f 70/210/5 68/204/5 67/201/5
f 65/195/6 69/207/6 71/213/6
f 74/222/1 75/223/1 76/226/1
f 73/218/2 76/227/2 78/232/2
f 77/230/3 78/233/3 80/239/3
f 79/236/4 80/240/4 75/224/4
f 78/234/5 76/228/5 75/225/5
f 73/219/6 77/231/6 79/237/6
f 82/246/1 83/247/1 84/250/1
f 81/242/2 84/251/2 86/256/2
f 85/254/3 86/257/3 88/263/3
f 87/260/4 88/264/4 83/248/4
f 86/258/5 84/252/5 83/249/5
f 81/243/6 85/255/6 87/261/6
f 90/270/1 91/271/1 92/274/1
f 89/266/2 92/275/2 94/280/2
f 93/278/3 94/281/3 96/287/3
f 95/284/4 96/288/4 91/272/4
f 94/282/5 92/276/5 91/273/5
f 89/267/6 93/279/6 95/285/6
f 98/294/1 99/295/1 100/298/1
f 97/290/2 100/299/2 102/304/2
f 101/302/3 102/305/3 104/311/3
f 103/308/4 104/312/4 99/296/4
f 102/306/5 100/300/5 99/297/5
f 97/291/6 101/303/6 103/309/6
