# Blender 3.3.1
# www.blender.org
mtllib lunar_bucket_hat_v2.mtl
o lunar_bucket_hat_v2
v 0.374999 -1.828125 -0.375000
v 0.374999 -1.828125 0.375000
v 0.374999 -1.765625 -0.375000
v 0.374999 -1.765625 0.375000
v -0.375001 -1.828125 0.375000
v -0.375001 -1.828125 -0.375000
v -0.375001 -1.765625 0.375000
v -0.375001 -1.765625 -0.375000
v 0.281249 -2.015625 -0.281250
v 0.281249 -2.015625 0.281250
v 0.281249 -1.828125 -0.281250
v 0.281249 -1.828125 0.281250
v -0.281251 -2.015625 0.281250
v -0.281251 -2.015625 -0.281250
v -0.281251 -1.828125 0.281250
v -0.281251 -1.828125 -0.281250
vn -0.0000 -0.0000 1.0000
vn 1.0000 -0.0000 -0.0000
vn -0.0000 -0.0000 -1.0000
vn -1.0000 -0.0000 -0.0000
vn -0.0000 -1.0000 -0.0000
vn -0.0000 1.0000 -0.0000
vt 0.328125 0.843750
vt 0.515625 0.828125
vt 0.000000 1.000000
vt 0.328125 0.859375
vt 0.515625 0.843750
vt 0.000000 0.812500
vt 0.328125 0.828125
vt 0.515625 0.812500
vt 0.000000 0.812500
vt 0.328125 0.843750
vt 0.515625 0.828125
vt 0.000000 0.625000
vt 0.515625 0.859375
vt 0.187500 0.671875
vt 0.187500 0.812500
vt 0.187500 1.000000
vt 0.328125 0.828125
vt 0.375000 0.671875
vt 0.187500 0.656250
vt 0.187500 0.625000
vt 0.515625 0.843750
vt 0.328125 0.812500
vt 0.375000 0.656250
vt 0.187500 0.812500
vt 0.328125 1.000000
vt 0.468750 0.953125
vt 0.187500 1.000000
vt 0.187500 0.718750
vt 0.468750 1.000000
vt 0.187500 0.859375
vt 0.328125 0.953125
vt 0.468750 0.906250
vt 0.187500 0.859375
vt 0.187500 0.671875
vt 0.468750 0.953125
vt 0.187500 0.718750
vt 0.328125 0.718750
vt 0.328125 0.906250
vt 0.328125 0.859375
vt 0.328125 1.000000
vt 0.328125 0.953125
vt 0.468750 0.906250
vt 0.328125 0.859375
vt 0.328125 0.718750
vt 0.328125 0.671875
vt 0.328125 0.906250
vt 0.468750 0.859375
vt 0.328125 0.859375
s 0
usemtl lunar_bucket_hat_v2
f 7/21/1 2/4/1 4/10/1
f 4/11/2 1/1/2 3/7/2
f 3/8/3 6/17/3 8/22/3
f 8/23/4 5/14/4 7/19/4
f 1/3/5 5/15/5 6/16/5
f 4/12/6 8/24/6 7/20/6
f 15/45/1 10/28/1 12/34/1
f 12/35/2 9/25/2 11/31/2
f 11/32/3 14/41/3 16/46/3
f 16/47/4 13/38/4 15/43/4
f 9/27/5 13/39/5 14/40/5
f 12/36/6 16/48/6 15/44/6
f 7/21/1 5/13/1 2/4/1
f 4/11/2 2/5/2 1/1/2
f 3/8/3 1/2/3 6/17/3
f 8/23/4 6/18/4 5/14/4
f 1/3/5 2/6/5 5/15/5
f 4/12/6 3/9/6 8/24/6
f 15/45/1 13/37/1 10/28/1
f 12/35/2 10/29/2 9/25/2
f 11/32/3 9/26/3 14/41/3
f 16/47/4 14/42/4 13/38/4
f 9/27/5 10/30/5 13/39/5
f 12/36/6 11/33/6 16/48/6
