# Blender v3.2.0 OBJ File: 'Lunar_SwordBackpack.blend'
# www.blender.org
mtllib Lunar_SwordBackpack.mtl
o SwordBackpack_Backpack
v 0.203125 -0.828125 -0.156250
v -0.203125 -0.828125 -0.156250
v -0.203125 -1.312500 -0.156250
v 0.203125 -1.312500 -0.156250
v 0.203125 -0.828125 -0.375000
v 0.203125 -1.312500 -0.375000
v -0.203125 -0.828125 -0.375000
v -0.203125 -1.312500 -0.375000
v 0.171875 -0.843750 -0.375000
v -0.171875 -0.843750 -0.375000
v -0.171875 -1.062500 -0.375000
v 0.171875 -1.062500 -0.375000
v 0.171875 -0.843750 -0.406250
v 0.171875 -1.062500 -0.406250
v -0.171875 -0.843750 -0.406250
v -0.171875 -1.062500 -0.406250
v 0.171875 -1.062500 -0.375000
v -0.171875 -1.062500 -0.375000
v -0.171875 -1.078125 -0.375000
v 0.171875 -1.078125 -0.375000
v 0.171875 -1.062500 -0.406250
v 0.171875 -1.078125 -0.406250
v -0.171875 -1.062500 -0.406250
v -0.171875 -1.078125 -0.406250
v 0.171875 -1.000000 -0.406250
v -0.171875 -1.000000 -0.406250
v -0.171875 -1.078125 -0.406250
v 0.171875 -1.078125 -0.406250
v 0.171875 -1.000000 -0.421875
v 0.171875 -1.078125 -0.421875
v -0.171875 -1.000000 -0.421875
v -0.171875 -1.078125 -0.421875
v 0.210937 -1.312500 -0.156250
v -0.210938 -1.312500 -0.156250
v -0.210938 -1.343750 -0.156250
v 0.210937 -1.343750 -0.156250
v 0.210937 -1.312500 -0.375000
v 0.210937 -1.343750 -0.375000
v -0.210938 -1.312500 -0.375000
v -0.210938 -1.343750 -0.375000
v 0.210937 -1.124366 -0.401432
v -0.210938 -1.124365 -0.401432
v -0.210938 -1.335662 -0.344815
v 0.210937 -1.335662 -0.344815
v 0.210937 -1.132454 -0.431617
v 0.210937 -1.343750 -0.375000
v -0.210938 -1.132453 -0.431617
v -0.210938 -1.343750 -0.375000
v 0.234375 -0.859375 -0.187500
v 0.187500 -0.859375 -0.187500
v 0.187500 -1.046875 -0.187500
v 0.234375 -1.046875 -0.187500
v 0.234375 -0.859375 -0.343750
v 0.234375 -1.046875 -0.343750
v 0.187500 -0.859375 -0.343750
v 0.187500 -1.046875 -0.343750
v -0.203125 -0.843750 -0.187500
v -0.234375 -0.843750 -0.187500
v -0.234375 -1.078125 -0.187500
v -0.203125 -1.078125 -0.187500
v -0.203125 -0.843750 -0.343750
v -0.203125 -1.078125 -0.343750
v -0.234375 -0.843750 -0.343750
v -0.234375 -1.078125 -0.343750
v 0.018677 -1.154135 -0.425807
v -0.040054 -1.174783 -0.420275
v -0.018678 -1.231513 -0.405074
v 0.040053 -1.210865 -0.410607
v 0.018677 -1.158179 -0.440900
v 0.040053 -1.214909 -0.425699
v -0.040054 -1.178827 -0.435367
v -0.018678 -1.235557 -0.420167
v 0.458276 -0.695925 -0.125000
v 0.313597 -0.576660 -0.125000
v -0.233033 -1.239775 -0.125000
v -0.088354 -1.359040 -0.125000
v 0.458276 -0.695925 -0.156250
v -0.088354 -1.359040 -0.156250
v 0.313597 -0.576660 -0.156250
v -0.233033 -1.239775 -0.156250
v 0.448542 -0.594830 -0.125000
v 0.414325 -0.598125 -0.125000
v 0.424060 -0.699220 -0.125000
v 0.458276 -0.695925 -0.125000
v 0.448542 -0.594830 -0.156250
v 0.458276 -0.695925 -0.156250
v 0.414325 -0.598125 -0.156250
v 0.424060 -0.699220 -0.156250
v 0.448793 -0.595037 -0.125000
v 0.445798 -0.563931 -0.125000
v 0.313597 -0.576660 -0.125000
v 0.316592 -0.607766 -0.125000
v 0.448793 -0.595037 -0.156250
v 0.316592 -0.607766 -0.156250
v 0.445798 -0.563931 -0.156250
v 0.313597 -0.576660 -0.156250
v 0.415881 -0.597975 -0.125000
v 0.381664 -0.601270 -0.125000
v 0.388403 -0.671259 -0.125000
v 0.422620 -0.667964 -0.125000
v 0.414325 -0.598125 -0.156250
v 0.421064 -0.668114 -0.156250
v 0.381664 -0.601270 -0.156250
v 0.388403 -0.671259 -0.156250
v 0.381664 -0.601270 -0.125000
v 0.347447 -0.604564 -0.125000
v 0.350742 -0.638781 -0.125000
v 0.384959 -0.635486 -0.125000
v 0.381664 -0.601270 -0.156250
v 0.384959 -0.635486 -0.156250
v 0.347447 -0.604564 -0.156250
v 0.350742 -0.638781 -0.156250
v -0.164278 -1.377450 -0.125000
v -0.236618 -1.317818 -0.125000
v -0.395638 -1.510724 -0.125000
v -0.323298 -1.570356 -0.125000
v -0.164278 -1.377450 -0.156250
v -0.323298 -1.570356 -0.156250
v -0.236618 -1.317818 -0.156250
v -0.395638 -1.510724 -0.156250
v -0.299185 -1.590234 -0.125000
v -0.419751 -1.490846 -0.125000
v -0.459506 -1.539073 -0.125000
v -0.338940 -1.638460 -0.125000
v -0.299185 -1.590234 -0.156250
v -0.338940 -1.638460 -0.156250
v -0.419751 -1.490846 -0.156250
v -0.459506 -1.539073 -0.156250
v -0.040127 -1.398795 -0.125000
v -0.281260 -1.200020 -0.125000
v -0.321015 -1.248247 -0.125000
v -0.079882 -1.447021 -0.125000
v -0.040127 -1.398795 -0.156250
v -0.079882 -1.447021 -0.156250
v -0.281260 -1.200020 -0.156250
v -0.321015 -1.248247 -0.156250
v 0.038552 -1.372828 -0.126563
v -0.085872 -1.384809 -0.126563
v -0.079882 -1.447021 -0.126563
v 0.044543 -1.435040 -0.126563
v 0.038552 -1.372828 -0.154688
v 0.044543 -1.435040 -0.154688
v -0.085872 -1.384809 -0.154688
v -0.079882 -1.447021 -0.154688
v -0.258802 -1.242256 -0.126563
v -0.270783 -1.117832 -0.126563
v -0.332995 -1.123822 -0.126563
v -0.321015 -1.248247 -0.126563
v -0.258802 -1.242256 -0.154688
v -0.321015 -1.248247 -0.154688
v -0.270783 -1.117832 -0.154688
v -0.332995 -1.123822 -0.154688
vt 0.101562 0.875000
vt 0.000000 1.000000
vt 0.000000 0.875000
vt 0.148438 0.750000
vt 0.093750 0.875000
vt 0.093750 0.750000
vt 0.210938 0.875000
vt 0.109375 1.000000
vt 0.109375 0.875000
vt 0.210938 0.750000
vt 0.156250 0.875000
vt 0.156250 0.750000
vt 0.093750 0.750000
vt 0.195312 0.695312
vt 0.195312 0.750000
vt 0.203125 0.695312
vt 0.304688 0.750000
vt 0.304688 0.695312
vt 0.179688 0.632812
vt 0.093750 0.687500
vt 0.093750 0.632812
vt 0.382812 0.570312
vt 0.375000 0.625000
vt 0.375000 0.570312
vt 0.273438 0.632812
vt 0.187500 0.687500
vt 0.187500 0.632812
vt 0.054688 0.554688
vt 0.046875 0.609375
vt 0.046875 0.554688
vt 0.359375 0.828125
vt 0.445312 0.820312
vt 0.445312 0.828125
vt 0.359375 0.804688
vt 0.445312 0.812500
vt 0.445312 0.804688
vt 0.445312 0.789062
vt 0.359375 0.796875
vt 0.359375 0.789062
vt 0.023438 0.554688
vt 0.015625 0.562500
vt 0.015625 0.554688
vt 0.445312 0.742188
vt 0.359375 0.750000
vt 0.359375 0.742188
vt 0.445312 0.976562
vt 0.437500 0.984375
vt 0.437500 0.976562
vt 0.359375 0.734375
vt 0.445312 0.726562
vt 0.445312 0.734375
vt 0.359375 0.710938
vt 0.445312 0.718750
vt 0.445312 0.710938
vt 0.414062 0.976562
vt 0.328125 1.000000
vt 0.328125 0.976562
vt 0.117188 0.570312
vt 0.109375 0.593750
vt 0.109375 0.570312
vt 0.414062 0.945312
vt 0.328125 0.968750
vt 0.328125 0.945312
vt 0.257812 0.570312
vt 0.250000 0.593750
vt 0.250000 0.570312
vt 0.359375 0.703125
vt 0.445312 0.695312
vt 0.445312 0.703125
vt 0.343750 0.632812
vt 0.429688 0.640625
vt 0.429688 0.632812
vt 0.453125 0.679688
vt 0.343750 0.687500
vt 0.343750 0.679688
vt 0.117188 0.601562
vt 0.062500 0.609375
vt 0.062500 0.601562
vt 0.453125 0.664062
vt 0.343750 0.671875
vt 0.343750 0.664062
vt 0.445312 0.929688
vt 0.390625 0.937500
vt 0.390625 0.929688
vt 0.218750 1.000000
vt 0.328125 0.945312
vt 0.328125 1.000000
vt 0.218750 0.882812
vt 0.328125 0.937500
vt 0.328125 0.882812
vt 0.328125 0.820312
vt 0.218750 0.875000
vt 0.218750 0.820312
vt 0.132812 0.554688
vt 0.125000 0.609375
vt 0.125000 0.554688
vt 0.328125 0.757812
vt 0.218750 0.812500
vt 0.218750 0.757812
vt 0.140625 0.554688
vt 0.148438 0.609375
vt 0.140625 0.609375
vt 0.343750 0.656250
vt 0.453125 0.648438
vt 0.453125 0.656250
vt 0.359375 0.835938
vt 0.468750 0.843750
vt 0.468750 0.835938
vt 0.062500 0.609375
vt 0.046875 0.656250
vt 0.046875 0.609375
vt 0.367188 0.890625
vt 0.328125 0.937500
vt 0.328125 0.890625
vt 0.078125 0.609375
vt 0.062500 0.656250
vt 0.062500 0.609375
vt 0.367188 0.843750
vt 0.328125 0.890625
vt 0.328125 0.843750
vt 0.078125 0.656250
vt 0.093750 0.617188
vt 0.093750 0.656250
vt 0.375000 0.898438
vt 0.390625 0.937500
vt 0.390625 0.898438
vt 0.179688 0.562500
vt 0.171875 0.625000
vt 0.171875 0.562500
vt 0.351562 0.687500
vt 0.312500 0.750000
vt 0.312500 0.687500
vt 0.195312 0.562500
vt 0.187500 0.625000
vt 0.187500 0.562500
vt 0.320312 0.625000
vt 0.281250 0.687500
vt 0.281250 0.625000
vt 0.156250 0.609375
vt 0.164062 0.570312
vt 0.164062 0.609375
vt 0.203125 0.570312
vt 0.210938 0.609375
vt 0.210938 0.570312
vt 0.328125 0.593750
vt 0.312500 0.609375
vt 0.312500 0.593750
vt 0.406250 0.578125
vt 0.414062 0.593750
vt 0.406250 0.593750
vt 0.390625 0.609375
vt 0.406250 0.625000
vt 0.390625 0.625000
vt 0.421875 0.984375
vt 0.429688 1.000000
vt 0.421875 1.000000
vt 0.437500 0.984375
vt 0.421875 0.976562
vt 0.437500 0.976562
vt 0.437500 0.960938
vt 0.421875 0.968750
vt 0.437500 0.968750
vt 0.046875 0.656250
vt 0.000000 0.875000
vt 0.000000 0.656250
vt 0.335938 0.468750
vt 0.328125 0.687500
vt 0.328125 0.468750
vt 0.093750 0.656250
vt 0.046875 0.875000
vt 0.046875 0.656250
vt 0.007812 0.437500
vt 0.000000 0.656250
vt 0.000000 0.437500
vt 0.390625 0.921875
vt 0.437500 0.914062
vt 0.437500 0.921875
vt 0.390625 0.898438
vt 0.437500 0.906250
vt 0.437500 0.898438
vt 0.273438 0.570312
vt 0.265625 0.593750
vt 0.265625 0.570312
vt 0.289062 0.570312
vt 0.281250 0.593750
vt 0.281250 0.570312
vt 0.304688 0.570312
vt 0.296875 0.593750
vt 0.296875 0.570312
vt 0.320312 0.570312
vt 0.312500 0.593750
vt 0.312500 0.570312
vt 0.031250 0.562500
vt 0.039062 0.554688
vt 0.039062 0.562500
vt 0.437500 0.960938
vt 0.445312 0.968750
vt 0.445312 0.960938
vt 0.390625 0.578125
vt 0.398438 0.609375
vt 0.390625 0.609375
vt 0.023438 0.562500
vt 0.015625 0.593750
vt 0.015625 0.562500
vt 0.039062 0.562500
vt 0.031250 0.593750
vt 0.031250 0.562500
vt 0.070312 0.562500
vt 0.062500 0.593750
vt 0.062500 0.562500
vt 0.437500 0.953125
vt 0.445312 0.945312
vt 0.445312 0.953125
vt 0.062500 0.554688
vt 0.070312 0.554688
vt 0.414062 0.562500
vt 0.406250 0.578125
vt 0.406250 0.562500
vt 0.429688 0.578125
vt 0.421875 0.593750
vt 0.421875 0.578125
vt 0.429332 0.562500
vt 0.421875 0.578125
vt 0.421875 0.562500
vt 0.445312 0.984375
vt 0.437500 1.000000
vt 0.437500 0.984375
vt 0.078480 0.562500
vt 0.085938 0.554688
vt 0.085938 0.562500
vt 0.445312 0.914062
vt 0.437855 0.921875
vt 0.445312 0.921875
vt 0.093750 0.554688
vt 0.101562 0.562500
vt 0.093750 0.562500
vt 0.445312 0.898438
vt 0.437500 0.906250
vt 0.437500 0.898438
vt 0.117188 0.554688
vt 0.109375 0.562500
vt 0.109375 0.554688
vt 0.445312 0.867188
vt 0.437500 0.875000
vt 0.437500 0.867188
vt 0.437500 0.859375
vt 0.445312 0.851562
vt 0.445312 0.859375
vt 0.156250 0.554688
vt 0.164062 0.562500
vt 0.164062 0.554688
vt 0.351562 0.781250
vt 0.328125 0.843750
vt 0.328125 0.781250
vt 0.351562 0.562500
vt 0.343750 0.625000
vt 0.343750 0.562500
vt 0.039062 0.593750
vt 0.015625 0.656250
vt 0.015625 0.593750
vt 0.367188 0.562500
vt 0.359375 0.625000
vt 0.359375 0.562500
vt 0.406250 0.625000
vt 0.429688 0.617188
vt 0.429688 0.625000
vt 0.406250 0.601562
vt 0.429688 0.609375
vt 0.429688 0.601562
vt 0.414062 0.859375
vt 0.375000 0.875000
vt 0.375000 0.859375
vt 0.242188 0.562500
vt 0.234375 0.578125
vt 0.234375 0.562500
vt 0.414062 0.843750
vt 0.375000 0.859375
vt 0.375000 0.843750
vt 0.398438 0.562500
vt 0.390625 0.578125
vt 0.390625 0.562500
vt 0.218750 0.609375
vt 0.257812 0.601562
vt 0.257812 0.609375
vt 0.265625 0.601562
vt 0.304688 0.609375
vt 0.304688 0.601562
vt 0.406250 0.765625
vt 0.328125 0.781250
vt 0.328125 0.765625
vt 0.398438 0.750000
vt 0.390625 0.765625
vt 0.390625 0.750000
vt 0.328125 0.750000
vt 0.406250 0.765625
vt 0.328125 0.765625
vt 0.382812 0.750000
vt 0.375000 0.765625
vt 0.375000 0.750000
vt 0.093750 0.625000
vt 0.171875 0.617188
vt 0.171875 0.625000
vt 0.375000 0.882812
vt 0.453125 0.890625
vt 0.453125 0.882812
vt 0.203125 0.609375
vt 0.234375 0.625000
vt 0.203125 0.625000
vt 0.101562 0.562500
vt 0.093750 0.578125
vt 0.093750 0.562500
vt 0.265625 0.609375
vt 0.234375 0.625000
vt 0.234375 0.609375
vt 0.429688 0.859375
vt 0.421875 0.875000
vt 0.421875 0.859375
vt 0.078125 0.593750
vt 0.109375 0.585938
vt 0.109375 0.593750
vt 0.218750 0.585938
vt 0.250000 0.593750
vt 0.250000 0.585938
vt 0.296875 0.609375
vt 0.265625 0.625000
vt 0.265625 0.609375
vt 0.429688 0.843750
vt 0.421875 0.859375
vt 0.421875 0.843750
vt 0.296875 0.609375
vt 0.328125 0.625000
vt 0.296875 0.625000
vt 0.226562 0.562500
vt 0.218750 0.578125
vt 0.218750 0.562500
vt 0.406250 0.781250
vt 0.437500 0.773438
vt 0.437500 0.781250
vt 0.406250 0.757812
vt 0.437500 0.765625
vt 0.437500 0.757812
vt 0.101562 1.000000
vt 0.148438 0.875000
vt 0.210938 1.000000
vt 0.210938 0.875000
vt 0.093750 0.695312
vt 0.203125 0.750000
vt 0.179688 0.687500
vt 0.382812 0.625000
vt 0.273438 0.687500
vt 0.054688 0.609375
vt 0.359375 0.820312
vt 0.359375 0.812500
vt 0.445312 0.796875
vt 0.023438 0.562500
vt 0.445312 0.750000
vt 0.445312 0.984375
vt 0.359375 0.726562
vt 0.359375 0.718750
vt 0.414062 1.000000
vt 0.117188 0.593750
vt 0.414062 0.968750
vt 0.257812 0.593750
vt 0.359375 0.695312
vt 0.343750 0.640625
vt 0.453125 0.687500
vt 0.117188 0.609375
vt 0.453125 0.671875
vt 0.445312 0.937500
vt 0.218750 0.945312
vt 0.218750 0.937500
vt 0.328125 0.875000
vt 0.132812 0.609375
vt 0.328125 0.812500
vt 0.148438 0.554688
vt 0.343750 0.648438
vt 0.359375 0.843750
vt 0.062500 0.656250
vt 0.367188 0.937500
vt 0.367188 0.890625
vt 0.078125 0.617188
vt 0.375000 0.937500
vt 0.179688 0.625000
vt 0.351562 0.750000
vt 0.195312 0.625000
vt 0.320312 0.687500
vt 0.156250 0.570312
vt 0.203125 0.609375
vt 0.328125 0.609375
vt 0.414062 0.578125
vt 0.406250 0.609375
vt 0.429688 0.984375
vt 0.421875 0.984375
vt 0.421875 0.960938
vt 0.046875 0.875000
vt 0.335938 0.687500
vt 0.093750 0.875000
vt 0.007812 0.656250
vt 0.390625 0.914062
vt 0.390625 0.906250
vt 0.273438 0.593750
vt 0.289062 0.593750
vt 0.304688 0.593750
vt 0.320312 0.593750
vt 0.031250 0.554688
vt 0.437500 0.968750
vt 0.398438 0.578125
vt 0.023438 0.593750
vt 0.039062 0.593750
vt 0.070312 0.593750
vt 0.437500 0.945312
vt 0.062500 0.562500
vt 0.414062 0.578125
vt 0.429688 0.593750
vt 0.429332 0.578125
vt 0.445312 1.000000
vt 0.078125 0.554688
vt 0.437500 0.914062
vt 0.101562 0.554688
vt 0.445312 0.906250
vt 0.117188 0.562500
vt 0.445312 0.875000
vt 0.437500 0.851562
vt 0.156250 0.562500
vt 0.351562 0.843750
vt 0.351562 0.625000
vt 0.039062 0.656250
vt 0.367188 0.625000
vt 0.406250 0.617188
vt 0.406250 0.609375
vt 0.414062 0.875000
vt 0.242188 0.578125
vt 0.414062 0.859375
vt 0.398438 0.578125
vt 0.218750 0.601562
vt 0.265625 0.609375
vt 0.406250 0.781250
vt 0.398438 0.765625
vt 0.406250 0.750000
vt 0.382812 0.765625
vt 0.093750 0.617188
vt 0.375000 0.890625
vt 0.234375 0.609375
vt 0.101562 0.578125
vt 0.265625 0.625000
vt 0.429688 0.875000
vt 0.078125 0.585938
vt 0.218750 0.593750
vt 0.296875 0.625000
vt 0.429688 0.859375
vt 0.328125 0.609375
vt 0.226562 0.578125
vt 0.406250 0.773438
vt 0.406250 0.765625
vn -0.0000 -0.0000 1.0000
vn 1.0000 -0.0000 0.0000
vn 0.0000 0.0000 -1.0000
vn -1.0000 0.0000 -0.0000
vn -0.0000 -1.0000 -0.0000
vn 0.0000 1.0000 0.0000
vn -0.0000 0.2588 0.9659
vn 0.0000 -0.2588 -0.9659
vn -0.0000 -0.9659 0.2588
vn 0.0000 0.9659 -0.2588
vn 0.9397 0.3304 -0.0885
vn -0.9397 -0.3304 0.0885
vn 0.3420 -0.9077 0.2432
vn -0.3420 0.9077 -0.2432
vn 0.7716 -0.6361 0.0000
vn -0.7716 0.6361 -0.0000
vn -0.6361 -0.7716 -0.0000
vn 0.6361 0.7716 0.0000
vn 0.9954 0.0958 0.0000
vn -0.9954 -0.0958 0.0000
vn 0.0958 -0.9954 0.0000
vn -0.0958 0.9954 0.0000
vn 0.9942 0.0957 -0.0499
usemtl SwordBackpack
s 1
f 2/1/1 4/2/1 1/3/1
f 1/4/2 6/5/2 5/6/2
f 5/7/3 8/8/3 7/9/3
f 7/10/4 3/11/4 2/12/4
f 6/13/5 3/14/5 8/15/5
f 1/16/6 7/17/6 2/18/6
f 10/19/1 12/20/1 9/21/1
f 9/22/2 14/23/2 13/24/2
f 13/25/3 16/26/3 15/27/3
f 15/28/4 11/29/4 10/30/4
f 14/31/5 11/32/5 16/33/5
f 9/34/6 15/35/6 10/36/6
f 18/37/1 20/38/1 17/39/1
f 17/40/2 22/41/2 21/42/2
f 21/43/3 24/44/3 23/45/3
f 23/46/4 19/47/4 18/48/4
f 22/49/5 19/50/5 24/51/5
f 17/52/6 23/53/6 18/54/6
f 26/55/1 28/56/1 25/57/1
f 25/58/2 30/59/2 29/60/2
f 29/61/3 32/62/3 31/63/3
f 31/64/4 27/65/4 26/66/4
f 30/67/5 27/68/5 32/69/5
f 25/70/6 31/71/6 26/72/6
f 34/73/1 36/74/1 33/75/1
f 33/76/2 38/77/2 37/78/2
f 37/79/3 40/80/3 39/81/3
f 39/82/4 35/83/4 34/84/4
f 38/85/5 35/86/5 40/87/5
f 33/88/6 39/89/6 34/90/6
f 42/91/7 44/92/7 41/93/7
f 41/94/2 46/95/2 45/96/2
f 45/97/8 48/98/8 47/99/8
f 42/100/4 48/101/4 43/102/4
f 46/103/9 43/104/9 48/105/9
f 41/106/10 47/107/10 42/108/10
f 50/109/1 52/110/1 49/111/1
f 49/112/2 54/113/2 53/114/2
f 53/115/3 56/116/3 55/117/3
f 55/118/4 51/119/4 50/120/4
f 54/121/5 51/122/5 56/123/5
f 49/124/6 55/125/6 50/126/6
f 58/127/1 60/128/1 57/129/1
f 57/130/2 62/131/2 61/132/2
f 61/133/3 64/134/3 63/135/3
f 63/136/4 59/137/4 58/138/4
f 62/139/5 59/140/5 64/141/5
f 57/142/6 63/143/6 58/144/6
f 66/145/7 68/146/7 65/147/7
f 69/148/11 68/149/11 70/150/11
f 71/151/8 70/152/8 72/153/8
f 66/154/12 72/155/12 67/156/12
f 72/157/13 68/158/13 67/159/13
f 66/160/14 69/161/14 71/162/14
f 74/163/1 76/164/1 73/165/1
f 73/166/15 78/167/15 77/168/15
f 77/169/3 80/170/3 79/171/3
f 79/172/16 75/173/16 74/174/16
f 78/175/17 75/176/17 80/177/17
f 73/178/18 79/179/18 74/180/18
f 82/181/1 84/182/1 81/183/1
f 81/184/19 86/185/19 85/186/19
f 85/187/3 88/188/3 87/189/3
f 87/190/20 83/191/20 82/192/20
f 86/193/21 83/194/21 88/195/21
f 81/196/22 87/197/22 82/198/22
f 89/199/1 91/200/1 92/201/1
f 89/202/21 94/203/21 93/204/21
f 93/205/3 96/206/3 95/207/3
f 95/208/22 91/209/22 90/210/22
f 94/211/20 91/212/20 96/213/20
f 89/214/19 95/208/19 90/215/19
f 98/216/1 100/217/1 97/218/1
f 97/219/23 102/220/23 101/221/23
f 101/222/3 104/223/3 103/224/3
f 103/225/20 99/226/20 98/227/20
f 102/228/21 99/229/21 104/230/21
f 98/231/22 101/232/22 103/233/22
f 105/234/1 107/235/1 108/236/1
f 105/237/19 110/238/19 109/239/19
f 109/240/3 112/241/3 111/242/3
f 111/243/20 107/244/20 106/245/20
f 110/246/21 107/247/21 112/248/21
f 105/249/22 111/250/22 106/251/22
f 114/252/1 116/253/1 113/254/1
f 113/255/15 118/256/15 117/257/15
f 117/258/3 120/259/3 119/260/3
f 119/261/16 115/262/16 114/263/16
f 118/264/17 115/265/17 120/266/17
f 113/267/18 119/268/18 114/269/18
f 122/270/1 124/271/1 121/272/1
f 121/273/15 126/274/15 125/275/15
f 125/276/3 128/277/3 127/278/3
f 127/279/16 123/280/16 122/281/16
f 126/282/17 123/283/17 128/284/17
f 121/285/18 127/286/18 122/287/18
f 130/288/1 132/289/1 129/290/1
f 129/291/15 134/292/15 133/293/15
f 135/294/3 134/295/3 136/296/3
f 135/297/16 131/298/16 130/299/16
f 134/300/17 131/301/17 136/302/17
f 129/303/18 135/304/18 130/305/18
f 137/306/1 139/307/1 140/308/1
f 137/309/19 142/310/19 141/311/19
f 141/312/3 144/313/3 143/314/3
f 143/315/20 139/316/20 138/317/20
f 142/318/21 139/319/21 144/320/21
f 137/321/22 143/322/22 138/323/22
f 146/324/1 148/325/1 145/326/1
f 145/327/21 150/328/21 149/329/21
f 151/330/3 150/331/3 152/332/3
f 151/333/22 147/334/22 146/335/22
f 150/336/20 147/337/20 152/338/20
f 145/339/19 151/340/19 146/341/19
f 2/1/1 3/342/1 4/2/1
f 1/4/2 4/343/2 6/5/2
f 5/7/3 6/344/3 8/8/3
f 7/10/4 8/345/4 3/11/4
f 6/13/5 4/346/5 3/14/5
f 1/16/6 5/347/6 7/17/6
f 10/19/1 11/348/1 12/20/1
f 9/22/2 12/349/2 14/23/2
f 13/25/3 14/350/3 16/26/3
f 15/28/4 16/351/4 11/29/4
f 14/31/5 12/352/5 11/32/5
f 9/34/6 13/353/6 15/35/6
f 18/37/1 19/354/1 20/38/1
f 17/40/2 20/355/2 22/41/2
f 21/43/3 22/356/3 24/44/3
f 23/46/4 24/357/4 19/47/4
f 22/49/5 20/358/5 19/50/5
f 17/52/6 21/359/6 23/53/6
f 26/55/1 27/360/1 28/56/1
f 25/58/2 28/361/2 30/59/2
f 29/61/3 30/362/3 32/62/3
f 31/64/4 32/363/4 27/65/4
f 30/67/5 28/364/5 27/68/5
f 25/70/6 29/365/6 31/71/6
f 34/73/1 35/366/1 36/74/1
f 33/76/2 36/367/2 38/77/2
f 37/79/3 38/368/3 40/80/3
f 39/82/4 40/369/4 35/83/4
f 38/85/5 36/370/5 35/86/5
f 33/88/6 37/371/6 39/89/6
f 42/91/7 43/372/7 44/92/7
f 41/94/2 44/373/2 46/95/2
f 45/97/8 46/374/8 48/98/8
f 42/100/4 47/375/4 48/101/4
f 46/103/9 44/376/9 43/104/9
f 41/106/10 45/377/10 47/107/10
f 50/109/1 51/378/1 52/110/1
f 49/112/2 52/379/2 54/113/2
f 53/115/3 54/121/3 56/116/3
f 55/118/4 56/380/4 51/119/4
f 54/121/5 52/381/5 51/122/5
f 49/124/6 53/382/6 55/125/6
f 58/127/1 59/383/1 60/128/1
f 57/130/2 60/384/2 62/131/2
f 61/133/3 62/385/3 64/134/3
f 63/136/4 64/386/4 59/137/4
f 62/139/5 60/387/5 59/140/5
f 57/142/6 61/388/6 63/143/6
f 66/145/7 67/389/7 68/146/7
f 69/148/11 65/390/11 68/149/11
f 71/151/8 69/391/8 70/152/8
f 66/154/12 71/392/12 72/155/12
f 72/157/13 70/393/13 68/158/13
f 66/160/14 65/394/14 69/161/14
f 74/163/1 75/395/1 76/164/1
f 73/166/15 76/396/15 78/167/15
f 77/169/3 78/397/3 80/170/3
f 79/172/16 80/398/16 75/173/16
f 78/175/17 76/399/17 75/176/17
f 73/178/18 77/400/18 79/179/18
f 82/181/1 83/401/1 84/182/1
f 81/184/19 84/402/19 86/185/19
f 85/187/3 86/403/3 88/188/3
f 87/190/20 88/404/20 83/191/20
f 86/193/21 84/405/21 83/194/21
f 81/196/22 85/406/22 87/197/22
f 89/199/1 90/407/1 91/200/1
f 89/202/21 92/408/21 94/203/21
f 93/205/3 94/409/3 96/206/3
f 95/208/22 96/410/22 91/209/22
f 94/211/20 92/411/20 91/212/20
f 89/214/19 93/412/19 95/208/19
f 98/216/1 99/413/1 100/217/1
f 97/219/23 100/414/23 102/220/23
f 101/222/3 102/415/3 104/223/3
f 103/225/20 104/416/20 99/226/20
f 102/228/21 100/417/21 99/229/21
f 98/231/22 97/418/22 101/232/22
f 105/234/1 106/419/1 107/235/1
f 105/237/19 108/420/19 110/238/19
f 109/240/3 110/421/3 112/241/3
f 111/243/20 112/422/20 107/244/20
f 110/246/21 108/423/21 107/247/21
f 105/249/22 109/424/22 111/250/22
f 114/252/1 115/425/1 116/253/1
f 113/255/15 116/426/15 118/256/15
f 117/258/3 118/427/3 120/259/3
f 119/261/16 120/428/16 115/262/16
f 118/264/17 116/429/17 115/265/17
f 113/267/18 117/430/18 119/268/18
f 122/270/1 123/431/1 124/271/1
f 121/273/15 124/432/15 126/274/15
f 125/276/3 126/433/3 128/277/3
f 127/279/16 128/434/16 123/280/16
f 126/282/17 124/435/17 123/283/17
f 121/285/18 125/436/18 127/286/18
f 130/288/1 131/437/1 132/289/1
f 129/291/15 132/438/15 134/292/15
f 135/294/3 133/439/3 134/295/3
f 135/297/16 136/440/16 131/298/16
f 134/300/17 132/441/17 131/301/17
f 129/303/18 133/442/18 135/304/18
f 137/306/1 138/443/1 139/307/1
f 137/309/19 140/444/19 142/310/19
f 141/312/3 142/445/3 144/313/3
f 143/315/20 144/446/20 139/316/20
f 142/318/21 140/447/21 139/319/21
f 137/321/22 141/448/22 143/322/22
f 146/324/1 147/449/1 148/325/1
f 145/327/21 148/450/21 150/328/21
f 151/330/3 149/451/3 150/331/3
f 151/333/22 152/452/22 147/334/22
f 150/336/20 148/453/20 147/337/20
f 145/339/19 149/454/19 151/340/19
