# Blender 3.1.0
# www.blender.org
mtllib Lunar_ShellNecklace.mtl
o ShellNecklace
v 0.078125 -1.167187 0.140625
v -0.078125 -1.167187 0.140625
v -0.078125 -1.245312 0.140625
v 0.078125 -1.245312 0.140625
v 0.078125 -1.167187 0.125000
v 0.078125 -1.245312 0.125000
v -0.078125 -1.167187 0.125000
v -0.078125 -1.245312 0.125000
v 0.014062 -1.292187 0.143750
v -0.014063 -1.292187 0.143750
v -0.014063 -1.317188 0.143750
v 0.014062 -1.317188 0.143750
v 0.014062 -1.292187 0.118750
v 0.014062 -1.317188 0.118750
v -0.014063 -1.292187 0.118750
v -0.014063 -1.317188 0.118750
v -0.025000 -1.298437 0.137500
v -0.084927 -1.316188 0.137500
v -0.081377 -1.328174 0.137500
v -0.021450 -1.310423 0.137500
v -0.025000 -1.298437 0.125000
v -0.021450 -1.310423 0.125000
v -0.084927 -1.316188 0.125000
v -0.081377 -1.328174 0.125000
v -0.084927 -1.316188 0.137500
v -0.135168 -1.353365 0.137500
v -0.127733 -1.363413 0.137500
v -0.077491 -1.326237 0.137500
v -0.084927 -1.316188 0.125000
v -0.077491 -1.326237 0.125000
v -0.135168 -1.353365 0.125000
v -0.127733 -1.363413 0.125000
v -0.135168 -1.353365 0.137500
v -0.172781 -1.403280 0.137500
v -0.162798 -1.410802 0.137500
v -0.125185 -1.360888 0.137500
v -0.135168 -1.353365 0.125000
v -0.125185 -1.360888 0.125000
v -0.172781 -1.403280 0.125000
v -0.162798 -1.410802 0.125000
v -0.172781 -1.403280 0.137500
v -0.198202 -1.460376 0.137500
v -0.186783 -1.465460 0.137500
v -0.161362 -1.408364 0.137500
v -0.172781 -1.403280 0.125000
v -0.161362 -1.408364 0.125000
v -0.198202 -1.460376 0.125000
v -0.186783 -1.465460 0.125000
v 0.025000 -1.298437 0.137500
v -0.025000 -1.298437 0.137500
v -0.025000 -1.310938 0.137500
v 0.025000 -1.310938 0.137500
v 0.025000 -1.298437 0.125000
v 0.025000 -1.310938 0.125000
v -0.025000 -1.298437 0.125000
v -0.025000 -1.310938 0.125000
v -0.198202 -1.460376 0.137500
v -0.212623 -1.511507 0.137500
v -0.200592 -1.514899 0.137500
v -0.186172 -1.463769 0.137500
v -0.198202 -1.460376 0.125000
v -0.186172 -1.463769 0.125000
v -0.212623 -1.511507 0.125000
v -0.200592 -1.514899 0.125000
v 0.198201 -1.460376 0.137500
v 0.172780 -1.403280 0.137500
v 0.161361 -1.408364 0.137500
v 0.186782 -1.465461 0.137500
v 0.198201 -1.460376 0.125000
v 0.186782 -1.465461 0.125000
v 0.172780 -1.403280 0.125000
v 0.161361 -1.408364 0.125000
v 0.172780 -1.403280 0.137500
v 0.135167 -1.353365 0.137500
v 0.125184 -1.360888 0.137500
v 0.162797 -1.410802 0.137500
v 0.172780 -1.403280 0.125000
v 0.162797 -1.410802 0.125000
v 0.135167 -1.353365 0.125000
v 0.125184 -1.360888 0.125000
v 0.135167 -1.353365 0.137500
v 0.084926 -1.316188 0.137500
v 0.077490 -1.326237 0.137500
v 0.127732 -1.363413 0.137500
v 0.135167 -1.353365 0.125000
v 0.127732 -1.363413 0.125000
v 0.084926 -1.316188 0.125000
v 0.077490 -1.326237 0.125000
v 0.084926 -1.316188 0.137500
v 0.025000 -1.298437 0.137500
v 0.021449 -1.310423 0.137500
v 0.081376 -1.328174 0.137500
v 0.084926 -1.316188 0.125000
v 0.081376 -1.328174 0.125000
v 0.025000 -1.298437 0.125000
v 0.021449 -1.310423 0.125000
v 0.212621 -1.511507 0.137500
v 0.198201 -1.460376 0.137500
v 0.186171 -1.463769 0.137500
v 0.200591 -1.514900 0.137500
v 0.212622 -1.511507 0.125000
v 0.200591 -1.514900 0.125000
v 0.198201 -1.460376 0.125000
v 0.186171 -1.463769 0.125000
v 0.031250 -1.276562 0.140625
v -0.031250 -1.276562 0.140625
v -0.031250 -1.292187 0.140625
v 0.031250 -1.292187 0.140625
v 0.031250 -1.276562 0.125000
v 0.031250 -1.292187 0.125000
v -0.031250 -1.276562 0.125000
v -0.031250 -1.292187 0.125000
v 0.046875 -1.135937 0.140625
v -0.046875 -1.135937 0.140625
v -0.046875 -1.151562 0.140625
v 0.046875 -1.151562 0.140625
v 0.046875 -1.135937 0.125000
v 0.046875 -1.151562 0.125000
v -0.046875 -1.135937 0.125000
v -0.046875 -1.151562 0.125000
v 0.062500 -1.151562 0.140625
v -0.062500 -1.151562 0.140625
v -0.062500 -1.167187 0.140625
v 0.062500 -1.167187 0.140625
v 0.062500 -1.151562 0.125000
v 0.062500 -1.167187 0.125000
v -0.062500 -1.151562 0.125000
v -0.062500 -1.167187 0.125000
v 0.046875 -1.260937 0.140625
v -0.046875 -1.260937 0.140625
v -0.046875 -1.276562 0.140625
v 0.046875 -1.276562 0.140625
v 0.046875 -1.260937 0.125000
v 0.046875 -1.276562 0.125000
v -0.046875 -1.260937 0.125000
v -0.046875 -1.276562 0.125000
v 0.062500 -1.245312 0.140625
v -0.062500 -1.245312 0.140625
v -0.062500 -1.260937 0.140625
v 0.062500 -1.260937 0.140625
v 0.062500 -1.245312 0.125000
v 0.062500 -1.260937 0.125000
v -0.062500 -1.245312 0.125000
v -0.062500 -1.260937 0.125000
vn -0.0000 -0.0000 1.0000
vn 1.0000 -0.0000 -0.0000
vn -0.0000 -0.0000 -1.0000
vn -1.0000 -0.0000 -0.0000
vn -0.0000 -1.0000 -0.0000
vn -0.0000 1.0000 -0.0000
vn 0.9588 0.2840 -0.0000
vn -0.9588 -0.2840 -0.0000
vn 0.2840 -0.9588 -0.0000
vn -0.2840 0.9588 -0.0000
vn 0.8039 0.5948 -0.0000
vn -0.8039 -0.5948 -0.0000
vn 0.5948 -0.8039 -0.0000
vn -0.5948 0.8039 -0.0000
vn 0.6018 0.7986 -0.0000
vn -0.6018 -0.7986 -0.0000
vn 0.7986 -0.6018 -0.0000
vn -0.7986 0.6018 -0.0000
vn 0.4067 0.9135 -0.0000
vn -0.4067 -0.9135 -0.0000
vn 0.9135 -0.4067 -0.0000
vn -0.9135 0.4067 -0.0000
vn 0.2714 0.9625 -0.0000
vn -0.2714 -0.9625 -0.0000
vn 0.9625 -0.2714 -0.0000
vn -0.9625 0.2714 -0.0000
vn 0.4067 -0.9135 -0.0000
vn -0.4067 0.9135 -0.0000
vn -0.9135 -0.4067 -0.0000
vn 0.9135 0.4067 -0.0000
vn 0.6018 -0.7986 -0.0000
vn -0.6018 0.7986 -0.0000
vn -0.7986 -0.6018 -0.0000
vn 0.7986 0.6018 -0.0000
vn 0.8039 -0.5948 -0.0000
vn -0.8039 0.5948 -0.0000
vn -0.5948 -0.8039 -0.0000
vn 0.5948 0.8039 -0.0000
vn 0.9588 -0.2840 -0.0000
vn -0.9588 0.2840 -0.0000
vn -0.2840 -0.9588 -0.0000
vn 0.2840 0.9588 -0.0000
vn 0.2714 -0.9625 -0.0000
vn -0.2714 0.9625 -0.0000
vn -0.9625 -0.2714 -0.0000
vn 0.9625 0.2714 -0.0000
vt 0.000000 0.921875
vt 0.390625 0.609375
vt 0.187500 0.921875
vt 0.000000 0.484375
vt 0.343750 0.921875
vt 0.156250 0.921875
vt 0.156250 1.000000
vt 0.000000 0.562500
vt 0.343750 0.984375
vt 0.000000 1.000000
vt 0.390625 0.687500
vt 0.187500 0.984375
vt 0.375000 0.609375
vt 0.156250 0.796875
vt 0.187500 0.937500
vt 0.375000 0.687500
vt 0.156250 0.875000
vt 0.187500 1.000000
vt 0.000000 0.796875
vt 0.015625 0.484375
vt 0.343750 0.937500
vt 0.343750 1.000000
vt 0.000000 0.875000
vt 0.015625 0.562500
vt 0.562500 0.703125
vt 0.359375 0.390625
vt 0.421875 0.390625
vt 0.375000 0.390625
vt 0.468750 0.390625
vt 0.609375 0.703125
vt 0.609375 0.750000
vt 0.375000 0.437500
vt 0.593750 0.593750
vt 0.562500 0.750000
vt 0.359375 0.437500
vt 0.546875 0.593750
vt 0.312500 0.390625
vt 0.609375 0.640625
vt 0.421875 0.437500
vt 0.312500 0.437500
vt 0.609375 0.687500
vt 0.546875 0.640625
vt 0.562500 0.640625
vt 0.421875 0.390625
vt 0.468750 0.437500
vt 0.593750 0.640625
vt 0.562500 0.687500
vt 0.421875 0.437500
vt 0.062500 0.546875
vt 0.265625 0.359375
vt 0.187500 0.546875
vt 0.625000 0.734375
vt 0.250000 0.546875
vt 0.125000 0.546875
vt 0.125000 0.562500
vt 0.625000 0.750000
vt 0.500000 0.859375
vt 0.062500 0.562500
vt 0.265625 0.375000
vt 0.437500 0.859375
vt 0.250000 0.359375
vt 0.187500 0.546875
vt 0.187500 0.562500
vt 0.250000 0.375000
vt 0.187500 0.562500
vt 0.437500 0.875000
vt 0.125000 0.546875
vt 0.640625 0.734375
vt 0.250000 0.562500
vt 0.125000 0.562500
vt 0.500000 0.875000
vt 0.640625 0.750000
vt 0.437500 0.796875
vt 0.328125 0.359375
vt 0.437500 0.671875
vt 0.625000 0.671875
vt 0.500000 0.671875
vt 0.500000 0.796875
vt 0.500000 0.812500
vt 0.625000 0.687500
vt 0.375000 0.546875
vt 0.437500 0.812500
vt 0.328125 0.375000
vt 0.312500 0.546875
vt 0.312500 0.359375
vt 0.312500 0.546875
vt 0.437500 0.687500
vt 0.312500 0.375000
vt 0.312500 0.562500
vt 0.250000 0.546875
vt 0.640625 0.671875
vt 0.500000 0.687500
vt 0.250000 0.562500
vt 0.375000 0.562500
vt 0.640625 0.687500
vt 0.375000 0.546875
vt 0.390625 0.359375
vt 0.500000 0.984375
vt 0.625000 0.609375
vt 0.562500 0.984375
vt 0.437500 0.546875
vt 0.437500 0.562500
vt 0.625000 0.625000
vt 0.500000 0.546875
vt 0.375000 0.562500
vt 0.390625 0.375000
vt 0.437500 0.546875
vt 0.375000 0.359375
vt 0.500000 0.609375
vt 0.500000 1.000000
vt 0.375000 0.375000
vt 0.500000 0.625000
vt 0.437500 0.562500
vt 0.437500 0.609375
vt 0.640625 0.609375
vt 0.562500 1.000000
vt 0.500000 0.562500
vt 0.437500 0.625000
vt 0.640625 0.625000
vt 0.062500 0.484375
vt 0.453125 0.359375
vt 0.500000 0.859375
vt 0.625000 0.546875
vt 0.562500 0.859375
vt 0.125000 0.484375
vt 0.125000 0.500000
vt 0.625000 0.562500
vt 0.187500 0.484375
vt 0.062500 0.500000
vt 0.453125 0.375000
vt 0.125000 0.484375
vt 0.437500 0.359375
vt 0.562500 0.921875
vt 0.500000 0.875000
vt 0.437500 0.375000
vt 0.562500 0.937500
vt 0.125000 0.500000
vt 0.500000 0.921875
vt 0.640625 0.546875
vt 0.562500 0.875000
vt 0.500000 0.937500
vt 0.187500 0.500000
vt 0.640625 0.562500
vt 0.562500 0.546875
vt 0.515625 0.359375
vt 0.562500 0.421875
vt 0.625000 0.484375
vt 0.609375 0.421875
vt 0.609375 0.546875
vt 0.609375 0.562500
vt 0.625000 0.500000
vt 0.609375 0.484375
vt 0.562500 0.562500
vt 0.515625 0.375000
vt 0.562500 0.484375
vt 0.500000 0.359375
vt 0.546875 0.421875
vt 0.562500 0.437500
vt 0.500000 0.375000
vt 0.546875 0.437500
vt 0.562500 0.500000
vt 0.500000 0.421875
vt 0.640625 0.484375
vt 0.609375 0.437500
vt 0.609375 0.500000
vt 0.500000 0.437500
vt 0.640625 0.500000
vt 0.000000 0.359375
vt 0.703125 0.796875
vt 0.625000 0.921875
vt 0.250000 0.296875
vt 0.671875 0.921875
vt 0.046875 0.359375
vt 0.046875 0.375000
vt 0.250000 0.312500
vt 0.109375 0.359375
vt 0.000000 0.375000
vt 0.703125 0.812500
vt 0.062500 0.359375
vt 0.687500 0.796875
vt 0.671875 0.984375
vt 0.625000 0.937500
vt 0.687500 0.812500
vt 0.671875 1.000000
vt 0.062500 0.375000
vt 0.625000 0.984375
vt 0.265625 0.296875
vt 0.671875 0.937500
vt 0.109375 0.375000
vt 0.625000 1.000000
vt 0.265625 0.312500
vt 0.312500 0.484375
vt 0.703125 0.734375
vt 0.500000 0.609375
vt 0.312500 0.296875
vt 0.562500 0.609375
vt 0.375000 0.484375
vt 0.375000 0.500000
vt 0.312500 0.312500
vt 0.437500 0.484375
vt 0.312500 0.500000
vt 0.703125 0.750000
vt 0.375000 0.484375
vt 0.687500 0.734375
vt 0.562500 0.671875
vt 0.500000 0.625000
vt 0.687500 0.750000
vt 0.562500 0.687500
vt 0.375000 0.500000
vt 0.500000 0.671875
vt 0.328125 0.296875
vt 0.562500 0.625000
vt 0.437500 0.500000
vt 0.500000 0.687500
vt 0.328125 0.312500
vt 0.437500 0.484375
vt 0.703125 0.671875
vt 0.000000 0.421875
vt 0.375000 0.296875
vt 0.062500 0.421875
vt 0.500000 0.484375
vt 0.500000 0.500000
vt 0.375000 0.312500
vt 0.562500 0.484375
vt 0.437500 0.500000
vt 0.703125 0.687500
vt 0.500000 0.484375
vt 0.687500 0.671875
vt 0.562500 0.546875
vt 0.000000 0.437500
vt 0.687500 0.687500
vt 0.562500 0.562500
vt 0.500000 0.500000
vt 0.500000 0.546875
vt 0.390625 0.296875
vt 0.062500 0.437500
vt 0.500000 0.562500
vt 0.562500 0.500000
vt 0.390625 0.312500
vt 0.562500 0.984375
vt 0.703125 0.609375
vt 0.125000 0.421875
vt 0.437500 0.296875
vt 0.187500 0.421875
vt 0.625000 0.984375
vt 0.625000 1.000000
vt 0.437500 0.312500
vt 0.625000 0.921875
vt 0.562500 1.000000
vt 0.703125 0.625000
vt 0.562500 0.921875
vt 0.687500 0.609375
vt 0.125000 0.421875
vt 0.125000 0.437500
vt 0.687500 0.625000
vt 0.125000 0.437500
vt 0.562500 0.937500
vt 0.062500 0.421875
vt 0.453125 0.296875
vt 0.187500 0.437500
vt 0.625000 0.937500
vt 0.062500 0.437500
vt 0.453125 0.312500
vt 0.562500 0.859375
vt 0.703125 0.546875
vt 0.250000 0.421875
vt 0.500000 0.296875
vt 0.312500 0.421875
vt 0.625000 0.859375
vt 0.625000 0.875000
vt 0.500000 0.312500
vt 0.625000 0.796875
vt 0.562500 0.875000
vt 0.703125 0.562500
vt 0.562500 0.796875
vt 0.687500 0.546875
vt 0.250000 0.421875
vt 0.250000 0.437500
vt 0.687500 0.562500
vt 0.250000 0.437500
vt 0.562500 0.812500
vt 0.187500 0.421875
vt 0.515625 0.296875
vt 0.312500 0.437500
vt 0.625000 0.812500
vt 0.187500 0.437500
vt 0.515625 0.312500
vt 0.125000 0.359375
vt 0.703125 0.484375
vt 0.625000 0.796875
vt 0.562500 0.296875
vt 0.671875 0.796875
vt 0.171875 0.359375
vt 0.171875 0.375000
vt 0.562500 0.312500
vt 0.234375 0.359375
vt 0.125000 0.375000
vt 0.703125 0.500000
vt 0.187500 0.359375
vt 0.687500 0.484375
vt 0.671875 0.859375
vt 0.625000 0.812500
vt 0.687500 0.500000
vt 0.671875 0.875000
vt 0.187500 0.375000
vt 0.625000 0.859375
vt 0.578125 0.296875
vt 0.671875 0.812500
vt 0.625000 0.875000
vt 0.234375 0.375000
vt 0.578125 0.312500
vt 0.187500 0.484375
vt 0.578125 0.359375
vt 0.500000 0.734375
vt 0.625000 0.421875
vt 0.562500 0.734375
vt 0.250000 0.484375
vt 0.250000 0.500000
vt 0.625000 0.437500
vt 0.312500 0.484375
vt 0.187500 0.500000
vt 0.578125 0.375000
vt 0.250000 0.484375
vt 0.562500 0.359375
vt 0.562500 0.796875
vt 0.500000 0.750000
vt 0.562500 0.375000
vt 0.562500 0.812500
vt 0.250000 0.500000
vt 0.500000 0.796875
vt 0.640625 0.421875
vt 0.562500 0.750000
vt 0.312500 0.500000
vt 0.500000 0.812500
vt 0.640625 0.437500
vt 0.312500 0.796875
vt 0.640625 0.359375
vt 0.375000 0.984375
vt 0.000000 0.296875
vt 0.468750 0.984375
vt 0.406250 0.796875
vt 0.406250 0.812500
vt 0.000000 0.312500
vt 0.093750 0.609375
vt 0.312500 0.812500
vt 0.640625 0.375000
vt 0.000000 0.609375
vt 0.625000 0.359375
vt 0.343750 0.671875
vt 0.375000 1.000000
vt 0.625000 0.375000
vt 0.343750 0.687500
vt 0.000000 0.625000
vt 0.250000 0.671875
vt 0.015625 0.296875
vt 0.468750 1.000000
vt 0.093750 0.625000
vt 0.250000 0.687500
vt 0.015625 0.312500
vt 0.187500 0.859375
vt 0.703125 0.984375
vt 0.125000 0.734375
vt 0.062500 0.296875
vt 0.250000 0.734375
vt 0.312500 0.859375
vt 0.312500 0.875000
vt 0.062500 0.312500
vt 0.125000 0.734375
vt 0.187500 0.875000
vt 0.703125 1.000000
vt 0.000000 0.734375
vt 0.687500 0.984375
vt 0.312500 0.796875
vt 0.125000 0.750000
vt 0.687500 1.000000
vt 0.312500 0.812500
vt 0.000000 0.750000
vt 0.187500 0.796875
vt 0.078125 0.296875
vt 0.250000 0.750000
vt 0.125000 0.750000
vt 0.187500 0.812500
vt 0.078125 0.312500
vt 0.375000 0.921875
vt 0.703125 0.921875
vt 0.375000 0.734375
vt 0.125000 0.296875
vt 0.468750 0.734375
vt 0.468750 0.921875
vt 0.468750 0.937500
vt 0.125000 0.312500
vt 0.343750 0.609375
vt 0.375000 0.937500
vt 0.703125 0.937500
vt 0.250000 0.609375
vt 0.687500 0.921875
vt 0.218750 0.609375
vt 0.375000 0.750000
vt 0.687500 0.937500
vt 0.218750 0.625000
vt 0.250000 0.625000
vt 0.125000 0.609375
vt 0.140625 0.296875
vt 0.468750 0.750000
vt 0.343750 0.625000
vt 0.125000 0.625000
vt 0.140625 0.312500
vt 0.250000 0.734375
vt 0.703125 0.859375
vt 0.312500 0.859375
vt 0.187500 0.296875
vt 0.437500 0.859375
vt 0.375000 0.734375
vt 0.375000 0.750000
vt 0.187500 0.312500
vt 0.250000 0.671875
vt 0.250000 0.750000
vt 0.703125 0.875000
vt 0.125000 0.671875
vt 0.687500 0.859375
vt 0.125000 0.671875
vt 0.312500 0.875000
vt 0.687500 0.875000
vt 0.125000 0.687500
vt 0.000000 0.671875
vt 0.203125 0.296875
vt 0.437500 0.875000
vt 0.250000 0.687500
vt 0.000000 0.687500
vt 0.203125 0.312500
s 1
usemtl ShellNecklace
f 2/6/1 4/10/1 1/1/1
f 1/2/2 6/16/2 5/13/2
f 5/14/3 8/23/3 7/19/3
f 7/20/4 3/8/4 2/4/4
f 6/18/5 3/9/5 8/22/5
f 1/3/6 7/21/6 2/5/6
f 10/30/1 12/34/1 9/25/1
f 9/26/2 14/40/2 13/37/2
f 13/38/3 16/47/3 15/43/3
f 15/44/4 11/32/4 10/28/4
f 14/42/5 11/33/5 16/46/5
f 9/27/6 15/45/6 10/29/6
f 18/54/1 20/58/1 17/49/1
f 17/50/7 22/64/7 21/61/7
f 23/67/3 22/65/3 24/70/3
f 23/68/8 19/56/8 18/52/8
f 22/66/9 19/57/9 24/71/9
f 17/51/10 23/69/10 18/53/10
f 26/78/1 28/82/1 25/73/1
f 25/74/11 30/88/11 29/85/11
f 31/90/3 30/89/3 32/93/3
f 31/91/12 27/80/12 26/76/12
f 30/89/13 27/81/13 32/94/13
f 25/75/14 31/92/14 26/77/14
f 33/96/1 35/102/1 36/105/1
f 33/97/15 38/111/15 37/108/15
f 37/109/3 40/118/3 39/114/3
f 39/115/16 35/103/16 34/99/16
f 38/113/17 35/104/17 40/117/17
f 33/98/18 39/116/18 34/100/18
f 42/125/1 44/129/1 41/120/1
f 41/121/19 46/135/19 45/132/19
f 47/138/3 46/136/3 48/141/3
f 47/139/20 43/127/20 42/123/20
f 46/137/21 43/128/21 48/142/21
f 41/122/22 47/140/22 42/124/22
f 50/149/1 52/153/1 49/144/1
f 49/145/2 54/159/2 53/156/2
f 53/157/3 56/166/3 55/162/3
f 55/163/4 51/151/4 50/147/4
f 54/161/5 51/152/5 56/165/5
f 49/146/6 55/164/6 50/148/6
f 57/168/1 59/174/1 60/177/1
f 57/169/23 62/183/23 61/180/23
f 61/181/3 64/190/3 63/186/3
f 63/187/24 59/175/24 58/171/24
f 62/185/25 59/176/25 64/189/25
f 57/170/26 63/188/26 58/172/26
f 65/192/1 67/198/1 68/201/1
f 65/193/27 70/207/27 69/204/27
f 69/205/3 72/214/3 71/210/3
f 71/211/28 67/199/28 66/195/28
f 70/209/29 67/200/29 72/213/29
f 65/194/30 71/212/30 66/196/30
f 74/221/1 76/225/1 73/216/1
f 73/217/31 78/231/31 77/228/31
f 79/234/3 78/232/3 80/237/3
f 79/235/32 75/223/32 74/219/32
f 78/233/33 75/224/33 80/238/33
f 73/218/34 79/236/34 74/220/34
f 81/240/1 83/246/1 84/249/1
f 81/241/35 86/255/35 85/252/35
f 85/253/3 88/262/3 87/258/3
f 87/259/36 83/247/36 82/243/36
f 86/257/37 83/248/37 88/261/37
f 81/242/38 87/260/38 82/244/38
f 89/264/1 91/270/1 92/273/1
f 89/265/39 94/279/39 93/276/39
f 93/277/3 96/286/3 95/282/3
f 95/283/40 91/271/40 90/267/40
f 94/281/41 91/272/41 96/285/41
f 89/266/42 95/284/42 90/268/42
f 98/293/1 100/297/1 97/288/1
f 97/289/43 102/303/43 101/300/43
f 103/306/3 102/304/3 104/309/3
f 103/307/44 99/295/44 98/291/44
f 102/305/45 99/296/45 104/310/45
f 97/290/46 103/308/46 98/292/46
f 106/317/1 108/321/1 105/312/1
f 105/313/2 110/327/2 109/324/2
f 109/325/3 112/334/3 111/330/3
f 111/331/4 107/319/4 106/315/4
f 110/329/5 107/320/5 112/333/5
f 105/314/6 111/332/6 106/316/6
f 114/341/1 116/345/1 113/336/1
f 113/337/2 118/351/2 117/348/2
f 117/349/3 120/358/3 119/354/3
f 119/355/4 115/343/4 114/339/4
f 118/353/5 115/344/5 120/357/5
f 113/338/6 119/356/6 114/340/6
f 122/365/1 124/369/1 121/360/1
f 121/361/2 126/375/2 125/372/2
f 125/373/3 128/382/3 127/378/3
f 127/379/4 123/367/4 122/363/4
f 126/377/5 123/368/5 128/381/5
f 121/362/6 127/380/6 122/364/6
f 130/389/1 132/393/1 129/384/1
f 129/385/2 134/399/2 133/396/2
f 133/397/3 136/406/3 135/402/3
f 135/403/4 131/391/4 130/387/4
f 134/401/5 131/392/5 136/405/5
f 129/386/6 135/404/6 130/388/6
f 138/413/1 140/417/1 137/408/1
f 137/409/2 142/423/2 141/420/2
f 141/421/3 144/429/3 143/425/3
f 143/426/4 139/415/4 138/411/4
f 142/424/5 139/416/5 144/428/5
f 137/410/6 143/427/6 138/412/6
f 2/6/1 3/7/1 4/10/1
f 1/2/2 4/11/2 6/16/2
f 5/14/3 6/17/3 8/23/3
f 7/20/4 8/24/4 3/8/4
f 6/18/5 4/12/5 3/9/5
f 1/3/6 5/15/6 7/21/6
f 10/30/1 11/31/1 12/34/1
f 9/26/2 12/35/2 14/40/2
f 13/38/3 14/41/3 16/47/3
f 15/44/4 16/48/4 11/32/4
f 14/42/5 12/36/5 11/33/5
f 9/27/6 13/39/6 15/45/6
f 18/54/1 19/55/1 20/58/1
f 17/50/7 20/59/7 22/64/7
f 23/67/3 21/62/3 22/65/3
f 23/68/8 24/72/8 19/56/8
f 22/66/9 20/60/9 19/57/9
f 17/51/10 21/63/10 23/69/10
f 26/78/1 27/79/1 28/82/1
f 25/74/11 28/83/11 30/88/11
f 31/90/3 29/86/3 30/89/3
f 31/91/12 32/95/12 27/80/12
f 30/89/13 28/84/13 27/81/13
f 25/75/14 29/87/14 31/92/14
f 33/96/1 34/101/1 35/102/1
f 33/97/15 36/106/15 38/111/15
f 37/109/3 38/112/3 40/118/3
f 39/115/16 40/119/16 35/103/16
f 38/113/17 36/107/17 35/104/17
f 33/98/18 37/110/18 39/116/18
f 42/125/1 43/126/1 44/129/1
f 41/121/19 44/130/19 46/135/19
f 47/138/3 45/133/3 46/136/3
f 47/139/20 48/143/20 43/127/20
f 46/137/21 44/131/21 43/128/21
f 41/122/22 45/134/22 47/140/22
f 50/149/1 51/150/1 52/153/1
f 49/145/2 52/154/2 54/159/2
f 53/157/3 54/160/3 56/166/3
f 55/163/4 56/167/4 51/151/4
f 54/161/5 52/155/5 51/152/5
f 49/146/6 53/158/6 55/164/6
f 57/168/1 58/173/1 59/174/1
f 57/169/23 60/178/23 62/183/23
f 61/181/3 62/184/3 64/190/3
f 63/187/24 64/191/24 59/175/24
f 62/185/25 60/179/25 59/176/25
f 57/170/26 61/182/26 63/188/26
f 65/192/1 66/197/1 67/198/1
f 65/193/27 68/202/27 70/207/27
f 69/205/3 70/208/3 72/214/3
f 71/211/28 72/215/28 67/199/28
f 70/209/29 68/203/29 67/200/29
f 65/194/30 69/206/30 71/212/30
f 74/221/1 75/222/1 76/225/1
f 73/217/31 76/226/31 78/231/31
f 79/234/3 77/229/3 78/232/3
f 79/235/32 80/239/32 75/223/32
f 78/233/33 76/227/33 75/224/33
f 73/218/34 77/230/34 79/236/34
f 81/240/1 82/245/1 83/246/1
f 81/241/35 84/250/35 86/255/35
f 85/253/3 86/256/3 88/262/3
f 87/259/36 88/263/36 83/247/36
f 86/257/37 84/251/37 83/248/37
f 81/242/38 85/254/38 87/260/38
f 89/264/1 90/269/1 91/270/1
f 89/265/39 92/274/39 94/279/39
f 93/277/3 94/280/3 96/286/3
f 95/283/40 96/287/40 91/271/40
f 94/281/41 92/275/41 91/272/41
f 89/266/42 93/278/42 95/284/42
f 98/293/1 99/294/1 100/297/1
f 97/289/43 100/298/43 102/303/43
f 103/306/3 101/301/3 102/304/3
f 103/307/44 104/311/44 99/295/44
f 102/305/45 100/299/45 99/296/45
f 97/290/46 101/302/46 103/308/46
f 106/317/1 107/318/1 108/321/1
f 105/313/2 108/322/2 110/327/2
f 109/325/3 110/328/3 112/334/3
f 111/331/4 112/335/4 107/319/4
f 110/329/5 108/323/5 107/320/5
f 105/314/6 109/326/6 111/332/6
f 114/341/1 115/342/1 116/345/1
f 113/337/2 116/346/2 118/351/2
f 117/349/3 118/352/3 120/358/3
f 119/355/4 120/359/4 115/343/4
f 118/353/5 116/347/5 115/344/5
f 113/338/6 117/350/6 119/356/6
f 122/365/1 123/366/1 124/369/1
f 121/361/2 124/370/2 126/375/2
f 125/373/3 126/376/3 128/382/3
f 127/379/4 128/383/4 123/367/4
f 126/377/5 124/371/5 123/368/5
f 121/362/6 125/374/6 127/380/6
f 130/389/1 131/390/1 132/393/1
f 129/385/2 132/394/2 134/399/2
f 133/397/3 134/400/3 136/406/3
f 135/403/4 136/407/4 131/391/4
f 134/401/5 132/395/5 131/392/5
f 129/386/6 133/398/6 135/404/6
f 138/413/1 139/414/1 140/417/1
f 137/409/2 140/418/2 142/423/2
f 141/421/3 142/424/3 144/429/3
f 143/426/4 144/430/4 139/415/4
f 142/424/5 140/419/5 139/416/5
f 137/410/6 141/422/6 143/427/6
