# Blender v2.93.0 OBJ File: 'Lunar_Cleaver.blend'
# www.blender.org
mtllib Lunar_Cleaver.mtl
o Cleaver_Plane
v 0.345059 -0.114123 0.010000
v 0.336511 -0.065640 0.010000
v 0.327962 -0.017157 0.010000
v 0.285218 0.225257 0.010000
v -0.345059 0.114122 0.010000
v -0.302315 -0.128292 0.010000
v -0.293766 -0.176775 0.010000
v -0.285218 -0.225257 0.010000
v 0.236735 0.216709 0.010000
v 0.279479 -0.025706 0.010000
v 0.288028 -0.074189 0.010000
v 0.296577 -0.122671 0.010000
v 0.188252 0.208160 0.010000
v 0.230996 -0.034255 0.010000
v 0.239545 -0.082737 0.010000
v 0.248094 -0.131220 0.010000
v 0.345059 -0.114123 -0.010000
v 0.336511 -0.065640 -0.010000
v 0.327962 -0.017157 -0.010000
v 0.285218 0.225257 -0.010000
v -0.345059 0.114122 -0.010000
v -0.302315 -0.128292 -0.010000
v -0.293766 -0.176775 -0.010000
v -0.285218 -0.225257 -0.010000
v 0.236735 0.216709 -0.010000
v 0.279479 -0.025706 -0.010000
v 0.288028 -0.074189 -0.010000
v 0.296577 -0.122671 -0.010000
v 0.188252 0.208160 -0.010000
v 0.230996 -0.034254 -0.010000
v 0.239545 -0.082737 -0.010000
v 0.248094 -0.131220 -0.010000
v -0.285101 -0.225921 0.014000
v -0.302198 -0.128956 0.014000
v -0.835509 -0.222993 0.014000
v -0.818412 -0.319959 0.014000
v -0.285101 -0.225921 -0.014000
v -0.302198 -0.128956 -0.014000
v -0.835509 -0.222993 -0.014000
v -0.818412 -0.319959 -0.014000
v -0.321022 -0.168207 0.020911
v -0.314867 -0.203114 0.020911
v -0.355930 -0.174362 0.020911
v -0.349775 -0.209269 0.020911
v -0.545255 -0.207745 0.020911
v -0.539100 -0.242653 0.020911
v -0.580163 -0.213900 0.020911
v -0.574008 -0.248808 0.020911
v -0.769488 -0.247283 0.020911
v -0.763333 -0.282191 0.020911
v -0.804396 -0.253439 0.020911
v -0.798241 -0.288346 0.020911
v -0.321022 -0.168207 0.012111
v -0.314867 -0.203114 0.012111
v -0.355930 -0.174362 0.012111
v -0.349775 -0.209269 0.012111
v -0.545255 -0.207745 0.012111
v -0.539100 -0.242653 0.012111
v -0.580163 -0.213900 0.012111
v -0.574008 -0.248808 0.012111
v -0.769488 -0.247283 0.012111
v -0.763333 -0.282191 0.012111
v -0.804396 -0.253439 0.012111
v -0.798241 -0.288346 0.012111
v -0.321022 -0.168207 -0.010804
v -0.314867 -0.203114 -0.010804
v -0.355930 -0.174362 -0.010804
v -0.349775 -0.209269 -0.010804
v -0.545255 -0.207745 -0.010804
v -0.539100 -0.242653 -0.010804
v -0.580163 -0.213900 -0.010804
v -0.574008 -0.248808 -0.010804
v -0.769488 -0.247283 -0.010804
v -0.763333 -0.282191 -0.010804
v -0.804396 -0.253439 -0.010804
v -0.798241 -0.288346 -0.010804
v -0.321022 -0.168207 -0.019604
v -0.314867 -0.203114 -0.019604
v -0.355930 -0.174362 -0.019604
v -0.349775 -0.209269 -0.019604
v -0.545255 -0.207745 -0.019604
v -0.539100 -0.242653 -0.019604
v -0.580163 -0.213900 -0.019604
v -0.574008 -0.248808 -0.019604
v -0.769488 -0.247283 -0.019604
v -0.763333 -0.282191 -0.019604
v -0.804396 -0.253439 -0.019604
v -0.798241 -0.288346 -0.019604
vt 0.125000 0.718750
vt 0.062500 0.406250
vt 0.125000 0.406250
vt 0.062500 0.781250
vt 0.062500 0.718750
vt 0.125000 0.843750
vt 0.062500 0.843750
vt 0.187500 0.718750
vt 0.187500 0.406250
vt 0.187500 0.781250
vt 0.125000 0.781250
vt 0.875000 0.718750
vt 0.875000 0.781250
vt 0.187500 0.843750
vt 0.125000 0.718750
vt 0.062500 0.406250
vt 0.062500 0.718750
vt 0.062500 0.781250
vt 0.125000 0.843750
vt 0.125000 0.781250
vt 0.187500 0.406250
vt 0.125000 0.406250
vt 0.187500 0.781250
vt 0.875000 0.718750
vt 0.187500 0.718750
vt 0.875000 0.781250
vt 0.875000 0.843750
vt 0.187500 0.843750
vt 0.062808 0.843750
vt 0.062808 0.781250
vt 0.062808 0.781250
vt 0.062808 0.718750
vt 0.062808 0.718750
vt 0.062808 0.406250
vt 0.874385 0.406133
vt 0.874385 0.406133
vt 0.875000 0.843750
vt 0.123732 0.717482
vt 0.123732 0.782518
vt 0.123732 0.782518
vt 0.188768 0.782518
vt 0.188768 0.717482
vt 0.188768 0.717482
vt 0.062500 0.407025
vt 0.125000 0.407025
vt 0.125000 0.407025
vt 0.125000 0.843262
vt 0.062500 0.843262
vt 0.062500 0.843262
vt 0.187500 0.407025
vt 0.187500 0.407025
vt 0.123732 0.717482
vt 0.188768 0.782518
vt 0.187500 0.843262
vt 0.125000 0.843262
vt 0.874385 0.406908
vt 0.875000 0.843262
vt 0.187500 0.843262
vt 0.750000 0.312500
vt 0.062500 0.187500
vt 0.062500 0.312500
vt 0.063795 0.312265
vt 0.063795 0.187736
vt 0.063795 0.187736
vt 0.748705 0.187736
vt 0.748705 0.312265
vt 0.748705 0.312265
vt 0.748705 0.187736
vt 0.063795 0.312265
vt 0.750000 0.312500
vt 0.062500 0.187500
vt 0.750000 0.187500
vt 0.968569 0.281431
vt 0.906431 0.343569
vt 0.906431 0.281431
vt 0.874644 0.187856
vt 0.812856 0.249644
vt 0.812856 0.187856
vt 0.968732 0.187518
vt 0.906268 0.249982
vt 0.906268 0.187518
vt 0.906431 0.343569
vt 0.968569 0.281431
vt 0.906431 0.281431
vt 0.812856 0.249644
vt 0.874644 0.187856
vt 0.812856 0.187856
vt 0.906268 0.249982
vt 0.968732 0.187518
vt 0.906268 0.187518
vt 0.968569 0.343569
vt 0.968569 0.343569
vt 0.874644 0.249644
vt 0.874644 0.249644
vt 0.968732 0.249982
vt 0.968732 0.249982
vt 0.968569 0.281431
vt 0.906431 0.343569
vt 0.906431 0.281431
vt 0.874644 0.187856
vt 0.812856 0.249644
vt 0.812856 0.187856
vt 0.968732 0.187518
vt 0.906268 0.249982
vt 0.906268 0.187518
vt 0.906431 0.343569
vt 0.968569 0.281431
vt 0.906431 0.281431
vt 0.812856 0.249644
vt 0.874644 0.187856
vt 0.812856 0.187856
vt 0.906268 0.249982
vt 0.968732 0.187518
vt 0.906268 0.187518
vt 0.968569 0.343569
vt 0.968569 0.343569
vt 0.874644 0.249644
vt 0.874644 0.249644
vt 0.968732 0.249982
vt 0.968732 0.249982
vt 0.875000 0.406250
vt 0.062500 0.843750
vt 0.875000 0.406250
vt 0.062808 0.843750
vt 0.062808 0.406250
vt 0.062500 0.407025
vt 0.874385 0.406908
vt 0.875000 0.843262
vt 0.750000 0.187500
vt 0.062500 0.312500
vn 0.0000 -0.0000 1.0000
vn 0.0000 0.0000 -1.0000
vn 0.9848 0.1736 0.0000
vn -0.9848 -0.1736 0.0000
vn -0.1736 0.9848 0.0000
vn 0.1736 -0.9848 0.0000
usemtl Cleaver
s off
f 10/1/1 4/2/1 9/3/1
f 10/1/1 2/4/1 3/5/1
f 2/4/1 12/6/1 1/7/1
f 14/8/1 9/3/1 13/9/1
f 15/10/1 12/6/1 11/11/1
f 13/9/1 6/12/1 14/8/1
f 6/12/1 15/10/1 14/8/1
f 7/13/1 16/14/1 15/10/1
f 26/15/2 20/16/2 19/17/2
f 18/18/2 26/15/2 19/17/2
f 18/18/2 28/19/2 27/20/2
f 26/15/2 29/21/2 25/22/2
f 28/19/2 31/23/2 27/20/2
f 22/24/2 29/21/2 30/25/2
f 23/26/2 30/25/2 31/23/2
f 24/27/2 31/23/2 32/28/2
f 1/29/3 18/30/3 2/31/3
f 2/31/3 19/32/3 3/33/3
f 19/32/3 4/34/3 3/33/3
f 21/35/4 6/12/4 5/36/4
f 6/12/4 23/26/4 7/13/4
f 7/13/4 24/27/4 8/37/4
f 10/38/4 27/39/4 11/40/4
f 15/41/3 30/42/3 14/43/3
f 4/44/5 25/45/5 9/46/5
f 12/47/6 17/48/6 1/49/6
f 9/46/5 29/50/5 13/51/5
f 14/43/6 26/52/6 10/38/6
f 11/40/5 31/53/5 15/41/5
f 16/54/6 28/55/6 12/47/6
f 29/50/5 5/56/5 13/51/5
f 8/57/6 32/58/6 16/54/6
f 40/59/2 38/60/2 37/61/2
f 33/62/3 38/63/3 34/64/3
f 35/65/4 40/66/4 36/67/4
f 34/64/5 39/68/5 35/65/5
f 36/67/6 37/69/6 33/62/6
f 36/70/1 34/71/1 35/72/1
f 43/73/1 42/74/1 41/75/1
f 47/76/1 46/77/1 45/78/1
f 51/79/1 50/80/1 49/81/1
f 54/82/2 55/83/2 53/84/2
f 58/85/2 59/86/2 57/87/2
f 62/88/2 63/89/2 61/90/2
f 42/74/3 53/84/3 41/75/3
f 43/73/4 56/91/4 44/92/4
f 46/77/3 57/87/3 45/78/3
f 47/76/4 60/93/4 48/94/4
f 50/80/3 61/90/3 49/81/3
f 51/79/4 64/95/4 52/96/4
f 41/75/5 55/83/5 43/73/5
f 44/92/6 54/82/6 42/74/6
f 45/78/5 59/86/5 47/76/5
f 48/94/6 58/85/6 46/77/6
f 49/81/5 63/89/5 51/79/5
f 52/96/6 62/88/6 50/80/6
f 67/97/1 66/98/1 65/99/1
f 71/100/1 70/101/1 69/102/1
f 75/103/1 74/104/1 73/105/1
f 78/106/2 79/107/2 77/108/2
f 82/109/2 83/110/2 81/111/2
f 86/112/2 87/113/2 85/114/2
f 66/98/3 77/108/3 65/99/3
f 67/97/4 80/115/4 68/116/4
f 70/101/3 81/111/3 69/102/3
f 71/100/4 84/117/4 72/118/4
f 74/104/3 85/114/3 73/105/3
f 75/103/4 88/119/4 76/120/4
f 65/99/5 79/107/5 67/97/5
f 68/116/6 78/106/6 66/98/6
f 69/102/5 83/110/5 71/100/5
f 72/118/6 82/109/6 70/101/6
f 73/105/5 87/113/5 75/103/5
f 76/120/6 86/112/6 74/104/6
f 10/1/1 3/5/1 4/2/1
f 10/1/1 11/11/1 2/4/1
f 2/4/1 11/11/1 12/6/1
f 14/8/1 10/1/1 9/3/1
f 15/10/1 16/14/1 12/6/1
f 13/9/1 5/121/1 6/12/1
f 6/12/1 7/13/1 15/10/1
f 7/13/1 8/37/1 16/14/1
f 26/15/2 25/22/2 20/16/2
f 18/18/2 27/20/2 26/15/2
f 18/18/2 17/122/2 28/19/2
f 26/15/2 30/25/2 29/21/2
f 28/19/2 32/28/2 31/23/2
f 22/24/2 21/123/2 29/21/2
f 23/26/2 22/24/2 30/25/2
f 24/27/2 23/26/2 31/23/2
f 1/29/3 17/124/3 18/30/3
f 2/31/3 18/30/3 19/32/3
f 19/32/3 20/125/3 4/34/3
f 21/35/4 22/24/4 6/12/4
f 6/12/4 22/24/4 23/26/4
f 7/13/4 23/26/4 24/27/4
f 10/38/4 26/52/4 27/39/4
f 15/41/3 31/53/3 30/42/3
f 4/44/5 20/126/5 25/45/5
f 12/47/6 28/55/6 17/48/6
f 9/46/5 25/45/5 29/50/5
f 14/43/6 30/42/6 26/52/6
f 11/40/5 27/39/5 31/53/5
f 16/54/6 32/58/6 28/55/6
f 29/50/5 21/127/5 5/56/5
f 8/57/6 24/128/6 32/58/6
f 40/59/2 39/129/2 38/60/2
f 33/62/3 37/69/3 38/63/3
f 35/65/4 39/68/4 40/66/4
f 34/64/5 38/63/5 39/68/5
f 36/67/6 40/66/6 37/69/6
f 36/70/1 33/130/1 34/71/1
f 43/73/1 44/92/1 42/74/1
f 47/76/1 48/94/1 46/77/1
f 51/79/1 52/96/1 50/80/1
f 54/82/2 56/91/2 55/83/2
f 58/85/2 60/93/2 59/86/2
f 62/88/2 64/95/2 63/89/2
f 42/74/3 54/82/3 53/84/3
f 43/73/4 55/83/4 56/91/4
f 46/77/3 58/85/3 57/87/3
f 47/76/4 59/86/4 60/93/4
f 50/80/3 62/88/3 61/90/3
f 51/79/4 63/89/4 64/95/4
f 41/75/5 53/84/5 55/83/5
f 44/92/6 56/91/6 54/82/6
f 45/78/5 57/87/5 59/86/5
f 48/94/6 60/93/6 58/85/6
f 49/81/5 61/90/5 63/89/5
f 52/96/6 64/95/6 62/88/6
f 67/97/1 68/116/1 66/98/1
f 71/100/1 72/118/1 70/101/1
f 75/103/1 76/120/1 74/104/1
f 78/106/2 80/115/2 79/107/2
f 82/109/2 84/117/2 83/110/2
f 86/112/2 88/119/2 87/113/2
f 66/98/3 78/106/3 77/108/3
f 67/97/4 79/107/4 80/115/4
f 70/101/3 82/109/3 81/111/3
f 71/100/4 83/110/4 84/117/4
f 74/104/3 86/112/3 85/114/3
f 75/103/4 87/113/4 88/119/4
f 65/99/5 77/108/5 79/107/5
f 68/116/6 80/115/6 78/106/6
f 69/102/5 81/111/5 83/110/5
f 72/118/6 84/117/6 82/109/6
f 73/105/5 85/114/5 87/113/5
f 76/120/6 88/119/6 86/112/6
