# Blender v2.93.0 OBJ File: 'LunarWhistle.blend'
# www.blender.org
mtllib LunarWhistle.mtl
o Whistle_Plane.002
v 0.252509 -0.000201 0.001205
v 0.231744 -0.000201 0.001205
v 0.129975 0.123590 0.023062
v 0.140704 0.132698 0.023062
v -0.245587 -0.000201 0.001205
v -0.224822 -0.000201 0.001205
v 0.003461 0.239805 0.038260
v 0.003461 0.229559 0.038260
v -0.123052 0.123590 0.023062
v -0.133782 0.132698 0.023062
v 0.157447 0.094105 0.018144
v 0.183179 0.063366 0.012758
v 0.207752 0.031791 0.007059
v 0.108480 0.161591 0.027407
v 0.074467 0.188670 0.031285
v 0.039262 0.214539 0.034851
v 0.036540 0.204111 0.034851
v 0.069038 0.178245 0.031285
v 0.100376 0.151544 0.027407
v 0.226048 0.034535 0.007059
v 0.198991 0.068667 0.012758
v 0.170742 0.101589 0.018144
v -0.150524 0.094105 0.018144
v -0.176257 0.063366 0.012758
v -0.200829 0.031791 0.007059
v -0.101558 0.161591 0.027407
v -0.067545 0.188670 0.031285
v -0.032340 0.214539 0.034851
v -0.029617 0.204111 0.034851
v -0.062115 0.178245 0.031285
v -0.093454 0.151544 0.027407
v -0.219126 0.034535 0.007059
v -0.192069 0.068667 0.012758
v -0.163820 0.101589 0.018144
v 0.252468 0.000384 -0.002413
v 0.231701 0.000420 -0.002407
v 0.129710 0.123906 0.019419
v 0.140453 0.133005 0.019417
v -0.245546 0.000384 -0.002413
v -0.224778 0.000420 -0.002407
v 0.003461 0.239847 0.034595
v 0.003461 0.229603 0.034595
v -0.122788 0.123906 0.019419
v -0.133530 0.133005 0.019417
v 0.157216 0.094512 0.014508
v 0.183006 0.063860 0.009130
v 0.207652 0.032363 0.003440
v 0.108211 0.161810 0.023758
v 0.074185 0.188813 0.027633
v 0.038954 0.214609 0.031199
v 0.036223 0.204202 0.031200
v 0.068744 0.178404 0.027635
v 0.100095 0.151776 0.023760
v 0.225980 0.035096 0.003438
v 0.198843 0.069151 0.009127
v 0.170530 0.101988 0.014506
v -0.150294 0.094512 0.014508
v -0.176083 0.063860 0.009130
v -0.200730 0.032363 0.003440
v -0.101288 0.161810 0.023758
v -0.067262 0.188813 0.027633
v -0.032031 0.214609 0.031199
v -0.029301 0.204202 0.031200
v -0.061821 0.178404 0.027635
v -0.093173 0.151776 0.023760
v -0.219058 0.035097 0.003438
v -0.191921 0.069152 0.009127
v -0.163607 0.101988 0.014506
v 0.037102 0.315311 0.080396
v -0.030179 0.315311 0.080396
v 0.037102 0.284987 0.000476
v 0.031336 0.283797 0.077202
v -0.030179 0.284987 0.000476
v -0.024413 0.283797 0.077202
v 0.037102 0.250655 0.073843
v -0.030179 0.258364 -0.002222
v 0.037102 0.258364 -0.002222
v -0.030179 0.250655 0.073843
v 0.037102 0.311610 0.003174
v -0.024413 0.297382 0.078579
v 0.031336 0.297382 0.078579
v -0.030179 0.311610 0.003174
v 0.037102 0.319165 0.042363
v 0.037102 0.243100 0.034654
v -0.030179 0.243100 0.034654
v -0.030179 0.319165 0.042363
v -0.030179 0.281133 0.038509
v 0.037102 0.281133 0.038509
v -0.030179 0.254510 0.035811
v 0.037102 0.254510 0.035811
v 0.037102 0.307756 0.041207
v -0.030179 0.307756 0.041207
v 0.037102 0.245798 0.008031
v -0.030179 0.245798 0.008031
v -0.030179 0.321863 0.015740
v -0.030179 0.283831 0.011886
v 0.037102 0.283831 0.011886
v -0.030179 0.257208 0.009188
v 0.037102 0.257208 0.009188
v 0.037102 0.310454 0.014584
v -0.030179 0.310454 0.014584
v 0.037102 0.321863 0.015740
v 0.037102 0.316467 0.068986
v 0.037102 0.240402 0.061277
v -0.030179 0.240402 0.061277
v -0.030179 0.316467 0.068986
v -0.030179 0.278435 0.065132
v 0.037102 0.278435 0.065132
v -0.030179 0.251812 0.062434
v 0.037102 0.251812 0.062434
v 0.037102 0.305057 0.067830
v -0.030179 0.305057 0.067830
v 0.037102 0.375720 0.074991
v 0.037102 0.374564 0.086401
v -0.030179 0.374564 0.086401
v -0.030179 0.375720 0.074991
v -0.030179 0.378418 0.048368
v 0.037102 0.378418 0.048368
v 0.037102 0.303901 0.079240
v 0.037102 0.277278 0.076541
v -0.030179 0.277278 0.076541
v -0.030179 0.303901 0.079240
v 0.031336 0.284510 0.070169
v -0.024413 0.284510 0.070169
v -0.024413 0.298095 0.071546
v 0.031336 0.298095 0.071546
v 0.007294 0.227688 0.023960
v 0.007294 0.225756 0.043025
v 0.007294 0.249767 0.025700
v 0.007294 0.247834 0.044765
v 0.007294 0.219458 0.042387
v 0.007294 0.221390 0.023322
v 0.007294 0.228332 0.017605
v 0.007294 0.225112 0.049380
v 0.007294 0.250411 0.019344
v 0.007294 0.222034 0.016967
v 0.007294 0.247190 0.051120
v 0.007294 0.218814 0.048742
v -0.000371 0.227688 0.023960
v -0.000371 0.225756 0.043025
v -0.000371 0.249767 0.025700
v -0.000371 0.247834 0.044765
v -0.000371 0.219458 0.042387
v -0.000371 0.221390 0.023322
v -0.000371 0.228332 0.017605
v -0.000371 0.225112 0.049380
v -0.000371 0.250411 0.019344
v -0.000371 0.222034 0.016967
v -0.000371 0.247190 0.051120
v -0.000371 0.218814 0.048742
vt 0.918825 0.500000
vt 0.890625 0.562500
vt 0.890625 0.500000
vt 0.890625 0.687500
vt 0.921875 0.750000
vt 0.890625 0.750000
vt 0.890625 0.808594
vt 0.921875 0.867188
vt 0.890625 0.867188
vt 0.921875 0.925781
vt 0.890625 0.925781
vt 0.921875 0.808594
vt 0.921875 0.984375
vt 0.890625 0.375000
vt 0.919588 0.437500
vt 0.890625 0.437500
vt 0.890625 0.312500
vt 0.920350 0.375000
vt 0.921875 0.250000
vt 0.890625 0.250000
vt 0.921875 0.074219
vt 0.890625 0.132813
vt 0.890625 0.074219
vt 0.921875 0.132813
vt 0.890625 0.191406
vt 0.921875 0.015625
vt 0.890625 0.015625
vt 0.921875 0.191406
vt 0.890625 0.687500
vt 0.920350 0.625000
vt 0.890625 0.625000
vt 0.919588 0.562500
vt 0.890625 0.562500
vt 0.918825 0.500000
vt 0.890625 0.500000
vt 0.921875 0.750000
vt 0.890625 0.750000
vt 0.921875 0.867188
vt 0.890625 0.808594
vt 0.890625 0.867188
vt 0.921875 0.925781
vt 0.890625 0.925781
vt 0.921875 0.808594
vt 0.921875 0.984375
vt 0.919588 0.437500
vt 0.890625 0.375000
vt 0.890625 0.437500
vt 0.920350 0.375000
vt 0.890625 0.312500
vt 0.921875 0.250000
vt 0.890625 0.250000
vt 0.890625 0.132813
vt 0.921875 0.074219
vt 0.890625 0.074219
vt 0.890625 0.191406
vt 0.921875 0.132813
vt 0.921875 0.015625
vt 0.890625 0.015625
vt 0.921875 0.191406
vt 0.890625 0.984375
vt 0.890625 0.984375
vt 0.890625 0.625000
vt 0.919588 0.562500
vt 0.920350 0.625000
vt 0.921113 0.687500
vt 0.921113 0.687500
vt 0.921113 0.312500
vt 0.921113 0.312500
vt 0.578125 0.625000
vt 0.531250 0.578125
vt 0.578125 0.578125
vt 0.531250 0.625000
vt 0.312500 0.578125
vt 0.578125 0.890625
vt 0.531250 0.656250
vt 0.578125 0.656250
vt 0.765625 0.890625
vt 0.671875 0.656250
vt 0.765625 0.656250
vt 0.765625 0.296875
vt 0.671875 0.062500
vt 0.765625 0.062500
vt 0.765625 0.625000
vt 0.671875 0.578125
vt 0.765625 0.578125
vt 0.578125 0.625000
vt 0.671875 0.578125
vt 0.578125 0.578125
vt 0.765625 0.625000
vt 0.765625 0.578125
vt 0.531250 0.625000
vt 0.531250 0.578125
vt 0.661489 0.883865
vt 0.662049 0.665097
vt 0.662049 0.665097
vt 0.671875 0.296875
vt 0.578125 0.062500
vt 0.671875 0.625000
vt 0.671875 0.468750
vt 0.578125 0.375000
vt 0.671875 0.375000
vt 0.531250 0.375000
vt 0.578125 0.468750
vt 0.578125 0.375000
vt 0.671875 0.468750
vt 0.765625 0.375000
vt 0.671875 0.375000
vt 0.812500 0.468750
vt 0.765625 0.375000
vt 0.812500 0.375000
vt 0.765625 0.468750
vt 0.281250 0.468750
vt 0.015625 0.375000
vt 0.281250 0.375000
vt 0.578125 0.468750
vt 0.531250 0.375000
vt 0.281250 0.156250
vt 0.015625 0.062500
vt 0.281250 0.062500
vt 0.765625 0.468750
vt 0.812500 0.375000
vt 0.671875 0.328125
vt 0.765625 0.328125
vt 0.578125 0.328125
vt 0.671875 0.328125
vt 0.765625 0.328125
vt 0.281250 0.375000
vt 0.015625 0.328125
vt 0.281250 0.328125
vt 0.578125 0.328125
vt 0.531250 0.468750
vt 0.812500 0.578125
vt 0.312500 0.468750
vt 0.531250 0.468750
vt 0.281250 0.250000
vt 0.015625 0.156250
vt 0.812500 0.578125
vt 0.812500 0.468750
vt 0.578125 0.062500
vt 0.531250 0.296875
vt 0.531250 0.062500
vt 0.281250 0.015625
vt 0.015625 0.062500
vt 0.015625 0.015625
vt 0.765625 0.296875
vt 0.812500 0.062500
vt 0.812500 0.296875
vt 0.765625 0.890625
vt 0.812500 0.656250
vt 0.812500 0.890625
vt 0.015625 0.250000
vt 0.281250 0.296875
vt 0.015625 0.296875
vt 0.281250 0.625000
vt 0.015625 0.578125
vt 0.281250 0.578125
vt 0.015625 0.468750
vt 0.281250 0.468750
vt 0.531250 0.890625
vt 0.312500 0.656250
vt 0.312500 0.578125
vt 0.312500 0.625000
vt 0.312500 0.468750
vt 0.531250 0.296875
vt 0.312500 0.062500
vt 0.531250 0.062500
vt 0.593750 0.875000
vt 0.671875 0.890625
vt 0.656250 0.671875
vt 0.656250 0.875000
vt 0.593750 0.671875
vt 0.593750 0.671875
vt 0.656250 0.875000
vt 0.593750 0.875000
vt 0.588639 0.664514
vt 0.588079 0.883282
vt 0.588079 0.883282
vt 0.661489 0.883865
vt 0.588639 0.664514
vt 0.078125 0.656250
vt 0.109375 0.734375
vt 0.078125 0.734375
vt 0.187500 0.765625
vt 0.109375 0.765625
vt 0.078125 0.765625
vt 0.218750 0.734375
vt 0.218750 0.765625
vt 0.187500 0.656250
vt 0.187500 0.734375
vt 0.109375 0.734375
vt 0.078125 0.656250
vt 0.078125 0.734375
vt 0.187500 0.765625
vt 0.109375 0.765625
vt 0.078125 0.765625
vt 0.218750 0.734375
vt 0.187500 0.734375
vt 0.187500 0.656250
vt 0.190564 0.738504
vt 0.190564 0.658008
vt 0.190564 0.658008
vt 0.106311 0.658008
vt 0.106311 0.738504
vt 0.106311 0.738504
vt 0.190564 0.738504
vt 0.080385 0.658008
vt 0.106311 0.658008
vt 0.186244 0.763867
vt 0.110631 0.763867
vt 0.110631 0.763867
vt 0.216490 0.763867
vt 0.186244 0.763867
vt 0.216490 0.658008
vt 0.216490 0.733622
vt 0.216490 0.733622
vt 0.080385 0.733622
vt 0.080385 0.763867
vt 0.080385 0.733622
vt 0.216490 0.763867
vt 0.216490 0.658008
vt 0.080385 0.658008
vt 0.080385 0.763867
vt 0.312500 0.625000
vt 0.671875 0.625000
vt 0.578125 0.296875
vt 0.015625 0.468750
vt 0.015625 0.375000
vt 0.015625 0.250000
vt 0.578125 0.296875
vt 0.281250 0.062500
vt 0.765625 0.062500
vt 0.765625 0.656250
vt 0.281250 0.250000
vt 0.015625 0.625000
vt 0.312500 0.890625
vt 0.312500 0.296875
vt 0.656250 0.671875
vt 0.109375 0.656250
vt 0.218750 0.656250
vt 0.109375 0.656250
vt 0.218750 0.765625
vt 0.218750 0.656250
vn 0.0948 -0.0000 0.9955
vn 0.0653 -0.0769 0.9949
vn 0.0422 -0.1259 0.9911
vn 0.0221 -0.1475 0.9888
vn 0.0573 -0.1017 0.9932
vn 0.0243 -0.1623 0.9864
vn -0.0846 -0.0221 0.9962
vn -0.0803 -0.0418 0.9959
vn -0.0653 -0.0769 0.9949
vn -0.0948 0.0000 0.9955
vn -0.0221 -0.1475 0.9888
vn -0.0422 -0.1259 0.9911
vn -0.0000 -0.1662 0.9861
vn -0.0573 -0.1017 0.9932
vn -0.0802 0.0418 -0.9959
vn -0.0846 0.0221 -0.9962
vn -0.0952 0.0000 -0.9955
vn -0.0653 0.0769 -0.9949
vn -0.0422 0.1259 -0.9911
vn -0.0221 0.1476 -0.9888
vn -0.0573 0.1017 -0.9932
vn -0.0243 0.1623 -0.9864
vn 0.0846 0.0221 -0.9962
vn 0.0802 0.0418 -0.9959
vn 0.0653 0.0769 -0.9949
vn 0.0858 0.0224 -0.9961
vn 0.0221 0.1476 -0.9888
vn 0.0422 0.1259 -0.9911
vn -0.0000 0.1662 -0.9861
vn 0.0573 0.1017 -0.9932
vn -0.0000 -0.9872 -0.1595
vn 0.0018 -0.9855 -0.1695
vn -0.7323 -0.6803 -0.0297
vn -0.7685 -0.6378 -0.0501
vn -0.7918 -0.6062 -0.0740
vn -0.8035 -0.5882 -0.0914
vn 0.6659 0.7460 -0.0042
vn 0.6203 0.7842 -0.0172
vn 0.5881 0.8080 -0.0344
vn 0.5772 0.8166 0.0094
vn -0.6103 -0.7915 0.0331
vn -0.6216 -0.7832 0.0160
vn -0.6484 -0.7613 0.0016
vn -0.6863 -0.7272 -0.0133
vn 0.7989 0.5965 0.0774
vn 0.7852 0.6172 0.0504
vn 0.7592 0.6503 0.0269
vn 0.7186 0.6954 0.0089
vn 0.0803 -0.0418 0.9959
vn 0.7321 -0.6811 -0.0059
vn 0.7686 -0.6394 -0.0228
vn 0.7923 -0.6085 -0.0449
vn 0.8042 -0.5901 -0.0711
vn -0.6687 0.7433 0.0164
vn -0.6229 0.7823 0.0011
vn -0.5912 0.8064 -0.0141
vn -0.5771 0.8160 -0.0333
vn 0.6104 -0.7921 -0.0097
vn 0.6188 -0.7848 0.0340
vn 0.6459 -0.7632 0.0188
vn 0.6861 -0.7275 0.0067
vn -0.7995 0.5944 0.0870
vn -0.7876 0.6110 0.0799
vn -0.7622 0.6450 0.0550
vn -0.7216 0.6915 0.0336
vn 0.0846 -0.0221 0.9962
vn -1.0000 0.0000 0.0000
vn 0.0000 -0.1008 0.9949
vn 0.0000 0.1008 -0.9949
vn 1.0000 -0.0000 -0.0000
vn 0.0000 -0.9949 -0.1008
vn 0.0000 0.9949 0.1008
vn 0.0000 0.0785 -0.9969
vn 0.0000 -0.0785 0.9969
vn 0.0855 -0.0223 0.9961
vn 0.0829 -0.0668 0.9943
vn 0.0664 -0.1180 0.9908
vn 0.0474 -0.1415 0.9888
vn 0.0785 -0.0924 0.9926
vn -0.0773 -0.0402 0.9962
vn -0.0730 -0.0589 0.9956
vn -0.0829 -0.0668 0.9943
vn -0.0855 -0.0223 0.9961
vn -0.0474 -0.1415 0.9888
vn -0.0664 -0.1180 0.9908
vn -0.0243 -0.1623 0.9864
vn -0.0785 -0.0924 0.9926
vn -0.0730 0.0589 -0.9956
vn -0.0773 0.0402 -0.9962
vn -0.0858 0.0224 -0.9961
vn -0.0828 0.0668 -0.9943
vn -0.0664 0.1180 -0.9908
vn -0.0474 0.1415 -0.9888
vn -0.0785 0.0924 -0.9926
vn 0.0773 0.0402 -0.9962
vn 0.0730 0.0589 -0.9956
vn 0.0828 0.0668 -0.9943
vn 0.0952 -0.0000 -0.9955
vn 0.0474 0.1415 -0.9888
vn 0.0664 0.1180 -0.9908
vn 0.0243 0.1623 -0.9864
vn 0.0785 0.0924 -0.9926
vn -0.0018 -0.9855 -0.1695
vn -0.7321 -0.6811 -0.0059
vn -0.7686 -0.6394 -0.0228
vn -0.7923 -0.6085 -0.0449
vn -0.8042 -0.5901 -0.0711
vn 0.6687 0.7433 0.0164
vn 0.6229 0.7823 0.0011
vn 0.5912 0.8064 -0.0141
vn 0.5771 0.8160 -0.0333
vn -0.6104 -0.7921 -0.0097
vn -0.6188 -0.7848 0.0340
vn -0.6459 -0.7632 0.0188
vn -0.6861 -0.7275 0.0067
vn 0.7995 0.5944 0.0870
vn 0.7876 0.6110 0.0799
vn 0.7622 0.6450 0.0550
vn 0.7216 0.6915 0.0336
vn 0.0730 -0.0589 0.9956
vn 0.7323 -0.6803 -0.0297
vn 0.7685 -0.6378 -0.0501
vn 0.7918 -0.6062 -0.0740
vn 0.8035 -0.5882 -0.0914
vn -0.6659 0.7460 -0.0042
vn -0.6203 0.7842 -0.0172
vn -0.5881 0.8080 -0.0344
vn -0.5772 0.8166 0.0094
vn 0.6103 -0.7915 0.0331
vn 0.6216 -0.7832 0.0160
vn 0.6484 -0.7613 0.0016
vn 0.6863 -0.7272 -0.0132
vn -0.7989 0.5965 0.0774
vn -0.7852 0.6172 0.0504
vn -0.7592 0.6503 0.0269
vn -0.7186 0.6954 0.0089
vn 0.0773 -0.0402 0.9962
usemtl Whistle
s off
f 8/1/1 16/2/1 7/3/1
f 14/4/2 3/5/2 4/6/2
f 22/7/3 12/8/3 21/9/3
f 21/9/4 13/10/4 20/11/4
f 4/6/5 11/12/5 22/7/5
f 2/13/6 20/11/6 13/10/6
f 27/14/7 29/15/7 28/16/7
f 26/17/8 30/18/8 27/14/8
f 9/19/9 26/17/9 10/20/9
f 28/16/10 8/1/10 7/3/10
f 25/21/11 33/22/11 32/23/11
f 24/24/12 34/25/12 33/22/12
f 6/26/13 32/23/13 5/27/13
f 23/28/14 10/20/14 34/25/14
f 48/29/15 52/30/15 49/31/15
f 49/31/16 51/32/16 50/33/16
f 50/33/17 42/34/17 41/35/17
f 37/36/18 48/29/18 38/37/18
f 46/38/19 56/39/19 55/40/19
f 47/41/20 55/40/20 54/42/20
f 45/43/21 38/37/21 56/39/21
f 54/42/22 36/44/22 47/41/22
f 63/45/23 61/46/23 62/47/23
f 64/48/24 60/49/24 61/46/24
f 60/49/25 43/50/25 44/51/25
f 62/47/26 42/34/26 63/45/26
f 67/52/27 59/53/27 66/54/27
f 68/55/28 58/56/28 67/52/28
f 66/54/29 40/57/29 39/58/29
f 44/51/30 57/59/30 68/55/30
f 2/13/31 35/60/31 1/61/31
f 6/26/32 39/58/32 40/57/32
f 11/12/33 37/36/33 45/43/33
f 12/8/34 45/43/34 46/38/34
f 13/10/35 46/38/35 47/41/35
f 2/13/36 47/41/36 36/44/36
f 14/4/37 38/37/37 48/29/37
f 15/62/38 48/29/38 49/31/38
f 16/2/39 49/31/39 50/33/39
f 16/2/40 41/35/40 7/3/40
f 17/63/41 42/34/41 51/32/41
f 17/63/42 52/30/42 18/64/42
f 18/64/43 53/65/43 19/66/43
f 3/5/44 53/65/44 37/36/44
f 20/11/45 35/60/45 54/42/45
f 21/9/46 54/42/46 55/40/46
f 22/7/47 55/40/47 56/39/47
f 4/6/48 56/39/48 38/37/48
f 18/64/49 14/4/49 15/62/49
f 23/28/50 43/50/50 9/19/50
f 24/24/51 57/59/51 23/28/51
f 25/21/52 58/56/52 24/24/52
f 6/26/53 59/53/53 25/21/53
f 26/17/54 44/51/54 10/20/54
f 27/14/55 60/49/55 26/17/55
f 28/16/56 61/46/56 27/14/56
f 28/16/57 41/35/57 62/47/57
f 29/15/58 42/34/58 8/1/58
f 29/15/59 64/48/59 63/45/59
f 30/18/60 65/67/60 64/48/60
f 9/19/61 65/67/61 31/68/61
f 32/23/62 39/58/62 5/27/62
f 33/22/63 66/54/63 32/23/63
f 34/25/64 67/52/64 33/22/64
f 10/20/65 68/55/65 34/25/65
f 17/63/66 15/62/66 16/2/66
f 122/69/67 106/70/67 112/71/67
f 70/72/67 116/73/67 106/70/67
f 119/74/68 70/75/68 122/76/68
f 75/77/68 121/78/68 78/79/68
f 76/80/69 71/81/69 77/82/69
f 78/83/67 107/84/67 109/85/67
f 119/86/70 108/87/70 111/88/70
f 108/87/70 75/89/70 110/90/70
f 69/91/70 111/88/70 103/92/70
f 80/93/71 126/94/71 81/95/71
f 73/96/69 79/97/69 71/81/69
f 121/98/67 112/71/67 107/84/67
f 87/99/67 101/100/67 96/101/67
f 102/102/70 91/103/70 100/104/70
f 88/105/70 99/106/70 97/107/70
f 85/108/67 98/109/67 94/110/67
f 91/103/70 97/107/70 100/104/70
f 89/111/67 96/101/67 98/109/67
f 86/112/72 102/113/72 95/114/72
f 92/115/67 95/116/67 101/100/67
f 84/117/71 94/118/71 93/119/71
f 90/120/70 93/121/70 99/106/70
f 98/109/67 73/122/67 76/123/67
f 79/124/70 97/107/70 71/125/70
f 71/125/70 99/106/70 77/126/70
f 101/127/72 79/128/72 82/129/72
f 96/101/67 82/130/67 73/122/67
f 107/84/67 92/115/67 87/99/67
f 83/131/70 111/88/70 91/103/70
f 88/105/70 110/90/70 90/120/70
f 105/132/67 89/111/67 85/108/67
f 111/88/70 88/105/70 91/103/70
f 109/85/67 87/99/67 89/111/67
f 106/70/67 117/133/67 86/134/67
f 112/71/67 86/134/67 92/115/67
f 104/135/71 85/136/71 84/117/71
f 90/120/70 104/137/70 84/138/70
f 100/139/69 95/140/69 102/141/69
f 77/142/71 98/143/71 76/144/71
f 98/145/69 93/146/69 94/147/69
f 110/148/68 105/149/68 104/150/68
f 109/151/71 75/152/71 78/153/71
f 115/154/72 113/155/72 116/156/72
f 116/156/72 118/157/72 117/158/72
f 69/159/68 115/160/68 70/75/68
f 69/91/70 113/161/70 114/162/70
f 103/92/70 118/163/70 113/161/70
f 86/164/69 118/165/69 83/166/69
f 81/167/68 120/168/68 119/74/68
f 74/169/68 120/168/68 72/170/68
f 80/171/68 121/78/68 74/169/68
f 81/167/68 122/76/68 80/171/68
f 125/172/68 123/173/68 126/174/68
f 72/175/72 124/176/72 74/177/72
f 80/93/70 124/176/70 125/178/70
f 81/95/67 123/179/67 72/175/67
f 137/180/67 128/181/67 134/182/67
f 128/181/67 132/183/67 131/184/67
f 134/182/67 131/184/67 138/185/67
f 132/183/67 133/186/67 136/187/67
f 129/188/67 133/186/67 127/189/67
f 140/190/70 149/191/70 146/192/70
f 144/193/70 140/190/70 143/194/70
f 143/194/70 146/192/70 150/195/70
f 144/193/70 145/196/70 139/197/70
f 145/196/70 141/198/70 139/197/70
f 127/199/73 141/200/73 129/201/73
f 130/202/74 140/203/74 128/204/74
f 128/204/71 139/205/71 127/199/71
f 137/206/71 142/207/71 130/202/71
f 132/208/72 143/209/72 131/210/72
f 136/211/72 144/212/72 132/208/72
f 135/213/74 145/214/74 133/215/74
f 134/216/69 150/217/69 146/218/69
f 133/215/68 148/219/68 136/211/68
f 129/201/71 147/220/71 135/213/71
f 134/216/73 149/221/73 137/206/73
f 131/210/72 150/217/72 138/222/72
f 8/1/75 17/63/75 16/2/75
f 14/4/76 19/66/76 3/5/76
f 22/7/77 11/12/77 12/8/77
f 21/9/78 12/8/78 13/10/78
f 4/6/79 3/5/79 11/12/79
f 2/13/13 1/61/13 20/11/13
f 27/14/80 30/18/80 29/15/80
f 26/17/81 31/68/81 30/18/81
f 9/19/82 31/68/82 26/17/82
f 28/16/83 29/15/83 8/1/83
f 25/21/84 24/24/84 33/22/84
f 24/24/85 23/28/85 34/25/85
f 6/26/86 25/21/86 32/23/86
f 23/28/87 9/19/87 10/20/87
f 48/29/88 53/65/88 52/30/88
f 49/31/89 52/30/89 51/32/89
f 50/33/90 51/32/90 42/34/90
f 37/36/91 53/65/91 48/29/91
f 46/38/92 45/43/92 56/39/92
f 47/41/93 46/38/93 55/40/93
f 45/43/94 37/36/94 38/37/94
f 54/42/29 35/60/29 36/44/29
f 63/45/95 64/48/95 61/46/95
f 64/48/96 65/67/96 60/49/96
f 60/49/97 65/67/97 43/50/97
f 62/47/98 41/35/98 42/34/98
f 67/52/99 58/56/99 59/53/99
f 68/55/100 57/59/100 58/56/100
f 66/54/101 59/53/101 40/57/101
f 44/51/102 43/50/102 57/59/102
f 2/13/103 36/44/103 35/60/103
f 6/26/31 5/27/31 39/58/31
f 11/12/104 3/5/104 37/36/104
f 12/8/105 11/12/105 45/43/105
f 13/10/106 12/8/106 46/38/106
f 2/13/107 13/10/107 47/41/107
f 14/4/108 4/6/108 38/37/108
f 15/62/109 14/4/109 48/29/109
f 16/2/110 15/62/110 49/31/110
f 16/2/111 50/33/111 41/35/111
f 17/63/112 8/1/112 42/34/112
f 17/63/113 51/32/113 52/30/113
f 18/64/114 52/30/114 53/65/114
f 3/5/115 19/66/115 53/65/115
f 20/11/116 1/61/116 35/60/116
f 21/9/117 20/11/117 54/42/117
f 22/7/118 21/9/118 55/40/118
f 4/6/119 22/7/119 56/39/119
f 18/64/120 19/66/120 14/4/120
f 23/28/121 57/59/121 43/50/121
f 24/24/122 58/56/122 57/59/122
f 25/21/123 59/53/123 58/56/123
f 6/26/124 40/57/124 59/53/124
f 26/17/125 60/49/125 44/51/125
f 27/14/126 61/46/126 60/49/126
f 28/16/127 62/47/127 61/46/127
f 28/16/128 7/3/128 41/35/128
f 29/15/129 63/45/129 42/34/129
f 29/15/130 30/18/130 64/48/130
f 30/18/131 31/68/131 65/67/131
f 9/19/132 43/50/132 65/67/132
f 32/23/133 66/54/133 39/58/133
f 33/22/134 67/52/134 66/54/134
f 34/25/135 68/55/135 67/52/135
f 10/20/136 44/51/136 68/55/136
f 17/63/137 18/64/137 15/62/137
f 122/69/67 70/72/67 106/70/67
f 70/72/67 115/223/67 116/73/67
f 119/74/68 69/159/68 70/75/68
f 75/77/68 120/168/68 121/78/68
f 76/80/69 73/96/69 71/81/69
f 78/83/67 121/98/67 107/84/67
f 119/86/70 120/224/70 108/87/70
f 108/87/70 120/224/70 75/89/70
f 69/91/70 119/86/70 111/88/70
f 80/93/71 125/178/71 126/94/71
f 73/96/69 82/225/69 79/97/69
f 121/98/67 122/69/67 112/71/67
f 87/99/67 92/115/67 101/100/67
f 102/102/70 83/131/70 91/103/70
f 88/105/70 90/120/70 99/106/70
f 85/108/67 89/111/67 98/109/67
f 91/103/70 88/105/70 97/107/70
f 89/111/67 87/99/67 96/101/67
f 86/112/72 83/226/72 102/113/72
f 92/115/67 86/134/67 95/116/67
f 84/117/71 85/136/71 94/118/71
f 90/120/70 84/138/70 93/121/70
f 98/109/67 96/101/67 73/122/67
f 79/124/70 100/104/70 97/107/70
f 71/125/70 97/107/70 99/106/70
f 101/127/72 100/227/72 79/128/72
f 96/101/67 101/100/67 82/130/67
f 107/84/67 112/71/67 92/115/67
f 83/131/70 103/92/70 111/88/70
f 88/105/70 108/87/70 110/90/70
f 105/132/67 109/85/67 89/111/67
f 111/88/70 108/87/70 88/105/70
f 109/85/67 107/84/67 87/99/67
f 106/70/67 116/73/67 117/133/67
f 112/71/67 106/70/67 86/134/67
f 104/135/71 105/228/71 85/136/71
f 90/120/70 110/90/70 104/137/70
f 100/139/69 101/229/69 95/140/69
f 77/142/71 99/230/71 98/143/71
f 98/145/69 99/231/69 93/146/69
f 110/148/68 109/232/68 105/149/68
f 109/151/71 110/233/71 75/152/71
f 115/154/72 114/234/72 113/155/72
f 116/156/72 113/155/72 118/157/72
f 69/159/68 114/235/68 115/160/68
f 69/91/70 103/92/70 113/161/70
f 103/92/70 83/131/70 118/163/70
f 86/164/69 117/236/69 118/165/69
f 81/167/68 72/170/68 120/168/68
f 74/169/68 121/78/68 120/168/68
f 80/171/68 122/76/68 121/78/68
f 81/167/68 119/74/68 122/76/68
f 125/172/68 124/237/68 123/173/68
f 72/175/72 123/179/72 124/176/72
f 80/93/70 74/177/70 124/176/70
f 81/95/67 126/94/67 123/179/67
f 137/180/67 130/238/67 128/181/67
f 128/181/67 127/189/67 132/183/67
f 134/182/67 128/181/67 131/184/67
f 132/183/67 127/189/67 133/186/67
f 129/188/67 135/239/67 133/186/67
f 140/190/70 142/240/70 149/191/70
f 144/193/70 139/197/70 140/190/70
f 143/194/70 140/190/70 146/192/70
f 144/193/70 148/241/70 145/196/70
f 145/196/70 147/242/70 141/198/70
f 127/199/73 139/205/73 141/200/73
f 130/202/74 142/207/74 140/203/74
f 128/204/71 140/203/71 139/205/71
f 137/206/71 149/221/71 142/207/71
f 132/208/72 144/212/72 143/209/72
f 136/211/72 148/219/72 144/212/72
f 135/213/74 147/220/74 145/214/74
f 134/216/69 138/222/69 150/217/69
f 133/215/68 145/214/68 148/219/68
f 129/201/71 141/200/71 147/220/71
f 134/216/73 146/218/73 149/221/73
f 131/210/72 143/209/72 150/217/72
