# Blender v3.2.0 OBJ File: 'Lunar_DealWithItGlasses.blend'
# www.blender.org
mtllib Lunar_DealWithItGlasses.mtl
o DWITGlasses_Glass.003
v 0.249999 -1.700000 0.281250
v 0.062499 -1.700000 0.281250
v 0.062499 -1.731250 0.281250
v 0.249999 -1.731250 0.281250
v 0.249999 -1.700000 0.250000
v 0.249999 -1.731250 0.250000
v 0.062499 -1.700000 0.250000
v 0.062499 -1.731250 0.250000
v -0.250001 -1.762500 0.254687
v -0.281251 -1.762500 0.254687
v -0.281251 -1.793750 0.254687
v -0.250001 -1.793750 0.254687
v -0.250001 -1.762500 -0.000000
v -0.250001 -1.793750 -0.000000
v -0.281251 -1.762500 -0.000000
v -0.281251 -1.793750 -0.000000
v 0.281249 -1.762500 0.254687
v 0.249999 -1.762500 0.254687
v 0.249999 -1.793750 0.254687
v 0.281249 -1.793750 0.254687
v 0.281249 -1.762500 -0.000000
v 0.281249 -1.793750 -0.000000
v 0.249999 -1.762500 -0.000000
v 0.249999 -1.793750 -0.000000
v -0.250001 -1.766687 0.015625
v -0.281251 -1.766687 0.015625
v -0.281251 -1.793750 -0.000000
v -0.250001 -1.793750 -0.000000
v -0.250001 -1.704187 -0.092629
v -0.250001 -1.731250 -0.108254
v -0.281251 -1.704187 -0.092629
v -0.281251 -1.731250 -0.108254
v 0.281249 -1.766687 0.015625
v 0.249999 -1.766687 0.015625
v 0.249999 -1.793750 -0.000000
v 0.281249 -1.793750 -0.000000
v 0.281249 -1.704187 -0.092628
v 0.281249 -1.731250 -0.108253
v 0.249999 -1.704187 -0.092628
v 0.249999 -1.731250 -0.108253
v 0.281249 -1.762500 0.281250
v -0.281251 -1.762500 0.281250
v -0.281251 -1.793750 0.281250
v 0.281249 -1.793750 0.281250
v 0.281249 -1.762500 0.250000
v 0.281249 -1.793750 0.250000
v -0.281251 -1.762500 0.250000
v -0.281251 -1.793750 0.250000
v 0.281249 -1.731250 0.281250
v 0.031249 -1.731250 0.281250
v 0.031249 -1.762500 0.281250
v 0.281249 -1.762500 0.281250
v 0.281249 -1.731250 0.250000
v 0.281249 -1.762500 0.250000
v 0.031249 -1.731250 0.250000
v 0.031249 -1.762500 0.250000
v -0.031251 -1.731250 0.281250
v -0.281251 -1.731250 0.281250
v -0.281251 -1.762500 0.281250
v -0.031251 -1.762500 0.281250
v -0.031251 -1.731250 0.250000
v -0.031251 -1.762500 0.250000
v -0.281251 -1.731250 0.250000
v -0.281251 -1.762500 0.250000
v -0.062501 -1.700000 0.281250
v -0.250001 -1.700000 0.281250
v -0.250001 -1.731250 0.281250
v -0.062501 -1.731250 0.281250
v -0.062501 -1.700000 0.250000
v -0.062501 -1.731250 0.250000
v -0.250001 -1.700000 0.250000
v -0.250001 -1.731250 0.250000
v 0.218749 -1.668750 0.281250
v 0.093749 -1.668750 0.281250
v 0.093749 -1.700000 0.281250
v 0.218749 -1.700000 0.281250
v 0.218749 -1.668750 0.250000
v 0.218749 -1.700000 0.250000
v 0.093749 -1.668750 0.250000
v 0.093749 -1.700000 0.250000
v -0.093751 -1.668750 0.281250
v -0.218751 -1.668750 0.281250
v -0.218751 -1.700000 0.281250
v -0.093751 -1.700000 0.281250
v -0.093751 -1.668750 0.250000
v -0.093751 -1.700000 0.250000
v -0.218751 -1.668750 0.250000
v -0.218751 -1.700000 0.250000
vt 0.562500 0.406250
vt 0.375000 0.437500
vt 0.375000 0.406250
vt 0.843750 0.906250
vt 0.812500 0.937500
vt 0.812500 0.906250
vt 0.750000 0.406250
vt 0.562500 0.437500
vt 0.562500 0.406250
vt 0.156250 0.156250
vt 0.125000 0.187500
vt 0.125000 0.156250
vt 0.187500 0.375000
vt 0.375000 0.343750
vt 0.375000 0.375000
vt 0.375000 0.343750
vt 0.562500 0.375000
vt 0.562500 0.343750
vt 0.531250 0.281250
vt 0.500000 0.312500
vt 0.500000 0.281250
vt 0.250000 0.718750
vt 0.000000 0.750000
vt 0.000000 0.718750
vt 0.156250 0.218750
vt 0.125000 0.250000
vt 0.125000 0.218750
vt 0.500000 0.718750
vt 0.250000 0.750000
vt 0.250000 0.718750
vt 0.000000 0.687500
vt 0.031250 0.437500
vt 0.031250 0.687500
vt 0.062500 0.437500
vt 0.093750 0.687500
vt 0.093750 0.437500
vt 0.781250 0.718750
vt 0.750000 0.750000
vt 0.750000 0.718750
vt 0.375000 0.656250
vt 0.125000 0.687500
vt 0.125000 0.656250
vt 0.406250 0.218750
vt 0.375000 0.250000
vt 0.375000 0.218750
vt 0.375000 0.593750
vt 0.125000 0.625000
vt 0.125000 0.593750
vt 0.375000 0.687500
vt 0.406250 0.437500
vt 0.406250 0.687500
vt 0.125000 0.312500
vt 0.156250 0.562500
vt 0.156250 0.312500
vt 0.468750 0.218750
vt 0.437500 0.250000
vt 0.437500 0.218750
vt 0.125000 0.406250
vt 0.000000 0.437500
vt 0.000000 0.406250
vt 0.531250 0.218750
vt 0.500000 0.250000
vt 0.500000 0.218750
vt 0.000000 0.343750
vt 0.125000 0.375000
vt 0.000000 0.375000
vt 0.562500 0.375000
vt 0.593750 0.250000
vt 0.593750 0.375000
vt 0.625000 0.250000
vt 0.656250 0.375000
vt 0.656250 0.250000
vt 0.593750 0.218750
vt 0.562500 0.250000
vt 0.562500 0.218750
vt 0.125000 0.281250
vt 0.000000 0.312500
vt 0.000000 0.281250
vt 0.781250 0.406250
vt 0.750000 0.437500
vt 0.750000 0.406250
vt 0.125000 0.281250
vt 0.250000 0.312500
vt 0.125000 0.312500
vt 0.250000 0.312500
vt 0.281250 0.187500
vt 0.281250 0.312500
vt 0.312500 0.187500
vt 0.343750 0.312500
vt 0.343750 0.187500
vt 0.562500 0.968750
vt 0.000000 1.000000
vt 0.000000 0.968750
vt 0.218750 0.218750
vt 0.187500 0.250000
vt 0.187500 0.218750
vt 0.562500 0.906250
vt 0.000000 0.937500
vt 0.000000 0.906250
vt 0.781250 0.781250
vt 0.750000 0.812500
vt 0.750000 0.781250
vt 0.000000 0.875000
vt 0.562500 0.843750
vt 0.562500 0.875000
vt 0.000000 0.781250
vt 0.562500 0.812500
vt 0.562500 0.781250
vt 0.687500 0.656250
vt 0.437500 0.687500
vt 0.437500 0.656250
vt 0.656250 0.218750
vt 0.625000 0.250000
vt 0.625000 0.218750
vt 0.687500 0.593750
vt 0.437500 0.625000
vt 0.437500 0.593750
vt 0.718750 0.218750
vt 0.687500 0.250000
vt 0.687500 0.218750
vt 0.437500 0.562500
vt 0.687500 0.531250
vt 0.687500 0.562500
vt 0.500000 0.718750
vt 0.750000 0.750000
vt 0.750000 0.718750
vt 0.687500 0.468750
vt 0.437500 0.500000
vt 0.437500 0.468750
vt 0.781250 0.218750
vt 0.750000 0.250000
vt 0.750000 0.218750
vt 0.812500 0.968750
vt 0.562500 1.000000
vt 0.562500 0.968750
vt 0.031250 0.156250
vt 0.000000 0.187500
vt 0.000000 0.156250
vt 0.562500 0.937500
vt 0.812500 0.906250
vt 0.812500 0.937500
vt 0.562500 0.843750
vt 0.812500 0.875000
vt 0.812500 0.843750
vt 0.375000 0.531250
vt 0.187500 0.562500
vt 0.187500 0.531250
vt 0.843750 0.968750
vt 0.812500 1.000000
vt 0.812500 0.968750
vt 0.375000 0.468750
vt 0.187500 0.500000
vt 0.187500 0.468750
vt 0.093750 0.156250
vt 0.062500 0.187500
vt 0.062500 0.156250
vt 0.187500 0.437500
vt 0.375000 0.406250
vt 0.375000 0.437500
vt 0.562500 0.781250
vt 0.750000 0.812500
vt 0.750000 0.781250
vt 0.812500 0.656250
vt 0.687500 0.687500
vt 0.687500 0.656250
vt 0.843750 0.843750
vt 0.812500 0.875000
vt 0.812500 0.843750
vt 0.500000 0.281250
vt 0.375000 0.312500
vt 0.375000 0.281250
vt 0.218750 0.156250
vt 0.187500 0.187500
vt 0.187500 0.156250
vt 0.687500 0.625000
vt 0.812500 0.593750
vt 0.812500 0.625000
vt 0.687500 0.531250
vt 0.812500 0.562500
vt 0.812500 0.531250
vt 0.812500 0.468750
vt 0.687500 0.500000
vt 0.687500 0.468750
vt 0.843750 0.781250
vt 0.812500 0.812500
vt 0.812500 0.781250
vt 0.812500 0.343750
vt 0.687500 0.375000
vt 0.687500 0.343750
vt 0.281250 0.156250
vt 0.250000 0.187500
vt 0.250000 0.156250
vt 0.687500 0.312500
vt 0.812500 0.281250
vt 0.812500 0.312500
vt 0.000000 0.218750
vt 0.125000 0.250000
vt 0.125000 0.218750
vt 0.562500 0.437500
vt 0.843750 0.937500
vt 0.750000 0.437500
vt 0.156250 0.187500
vt 0.187500 0.343750
vt 0.375000 0.375000
vt 0.531250 0.312500
vt 0.250000 0.750000
vt 0.156250 0.250000
vt 0.500000 0.750000
vt 0.000000 0.437500
vt 0.062500 0.687500
vt 0.781250 0.750000
vt 0.375000 0.687500
vt 0.406250 0.250000
vt 0.375000 0.625000
vt 0.375000 0.437500
vt 0.125000 0.562500
vt 0.468750 0.250000
vt 0.125000 0.437500
vt 0.531250 0.250000
vt 0.125000 0.343750
vt 0.562500 0.250000
vt 0.625000 0.375000
vt 0.593750 0.250000
vt 0.125000 0.312500
vt 0.781250 0.437500
vt 0.250000 0.281250
vt 0.250000 0.187500
vt 0.312500 0.312500
vt 0.562500 1.000000
vt 0.218750 0.250000
vt 0.562500 0.937500
vt 0.781250 0.812500
vt 0.000000 0.843750
vt 0.000000 0.812500
vt 0.687500 0.687500
vt 0.656250 0.250000
vt 0.687500 0.625000
vt 0.718750 0.250000
vt 0.437500 0.531250
vt 0.500000 0.750000
vt 0.687500 0.500000
vt 0.781250 0.250000
vt 0.812500 1.000000
vt 0.031250 0.187500
vt 0.562500 0.906250
vt 0.562500 0.875000
vt 0.375000 0.562500
vt 0.843750 1.000000
vt 0.375000 0.500000
vt 0.093750 0.187500
vt 0.187500 0.406250
vt 0.562500 0.812500
vt 0.812500 0.687500
vt 0.843750 0.875000
vt 0.500000 0.312500
vt 0.218750 0.187500
vt 0.687500 0.593750
vt 0.687500 0.562500
vt 0.812500 0.500000
vt 0.843750 0.812500
vt 0.812500 0.375000
vt 0.281250 0.187500
vt 0.687500 0.281250
vt 0.000000 0.250000
vn -0.0000 -0.0000 1.0000
vn 1.0000 -0.0000 0.0000
vn 0.0000 -0.0000 -1.0000
vn -1.0000 0.0000 -0.0000
vn -0.0000 -1.0000 -0.0000
vn 0.0000 1.0000 -0.0000
vn -0.0000 -0.5000 0.8660
vn 0.0000 0.5000 -0.8660
vn 0.0000 -0.8660 -0.5000
vn -0.0000 0.8660 0.5000
usemtl DWITGlasses
s 1
f 2/1/1 4/2/1 1/3/1
f 1/4/2 6/5/2 5/6/2
f 5/7/3 8/8/3 7/9/3
f 7/10/4 3/11/4 2/12/4
f 6/13/5 3/14/5 8/15/5
f 1/16/6 7/17/6 2/18/6
f 10/19/1 12/20/1 9/21/1
f 9/22/2 14/23/2 13/24/2
f 13/25/3 16/26/3 15/27/3
f 15/28/4 11/29/4 10/30/4
f 14/31/5 11/32/5 16/33/5
f 9/34/6 15/35/6 10/36/6
f 18/37/1 20/38/1 17/39/1
f 17/40/2 22/41/2 21/42/2
f 21/43/3 24/44/3 23/45/3
f 23/46/4 19/47/4 18/48/4
f 22/49/5 19/50/5 24/51/5
f 17/52/6 23/53/6 18/54/6
f 26/55/7 28/56/7 25/57/7
f 25/58/2 30/59/2 29/60/2
f 29/61/8 32/62/8 31/63/8
f 26/64/4 32/65/4 27/66/4
f 30/67/9 27/68/9 32/69/9
f 25/70/10 31/71/10 26/72/10
f 34/73/7 36/74/7 33/75/7
f 33/76/2 38/77/2 37/78/2
f 37/79/8 40/80/8 39/81/8
f 34/82/4 40/83/4 35/84/4
f 38/85/9 35/86/9 40/87/9
f 33/88/10 39/89/10 34/90/10
f 42/91/1 44/92/1 41/93/1
f 41/94/2 46/95/2 45/96/2
f 45/97/3 48/98/3 47/99/3
f 47/100/4 43/101/4 42/102/4
f 46/103/5 43/104/5 48/105/5
f 41/106/6 47/107/6 42/108/6
f 50/109/1 52/110/1 49/111/1
f 49/112/2 54/113/2 53/114/2
f 53/115/3 56/116/3 55/117/3
f 55/118/4 51/119/4 50/120/4
f 54/121/5 51/122/5 56/123/5
f 49/124/6 55/125/6 50/126/6
f 58/127/1 60/128/1 57/129/1
f 57/130/2 62/131/2 61/132/2
f 61/133/3 64/134/3 63/135/3
f 63/136/4 59/137/4 58/138/4
f 62/139/5 59/140/5 64/141/5
f 57/142/6 63/143/6 58/144/6
f 66/145/1 68/146/1 65/147/1
f 65/148/2 70/149/2 69/150/2
f 69/151/3 72/152/3 71/153/3
f 71/154/4 67/155/4 66/156/4
f 70/157/5 67/158/5 72/159/5
f 65/160/6 71/161/6 66/162/6
f 74/163/1 76/164/1 73/165/1
f 73/166/2 78/167/2 77/168/2
f 77/169/3 80/170/3 79/171/3
f 79/172/4 75/173/4 74/174/4
f 78/175/5 75/176/5 80/177/5
f 73/178/6 79/179/6 74/180/6
f 82/181/1 84/182/1 81/183/1
f 81/184/2 86/185/2 85/186/2
f 85/187/3 88/188/3 87/189/3
f 87/190/4 83/191/4 82/192/4
f 86/193/5 83/194/5 88/195/5
f 81/196/6 87/197/6 82/198/6
f 2/1/1 3/199/1 4/2/1
f 1/4/2 4/200/2 6/5/2
f 5/7/3 6/201/3 8/8/3
f 7/10/4 8/202/4 3/11/4
f 6/13/5 4/203/5 3/14/5
f 1/16/6 5/204/6 7/17/6
f 10/19/1 11/205/1 12/20/1
f 9/22/2 12/206/2 14/23/2
f 13/25/3 14/207/3 16/26/3
f 15/28/4 16/208/4 11/29/4
f 14/31/5 12/209/5 11/32/5
f 9/34/6 13/210/6 15/35/6
f 18/37/1 19/211/1 20/38/1
f 17/40/2 20/212/2 22/41/2
f 21/43/3 22/213/3 24/44/3
f 23/46/4 24/214/4 19/47/4
f 22/49/5 20/215/5 19/50/5
f 17/52/6 21/216/6 23/53/6
f 26/55/7 27/217/7 28/56/7
f 25/58/2 28/218/2 30/59/2
f 29/61/8 30/219/8 32/62/8
f 26/64/4 31/220/4 32/65/4
f 30/67/9 28/221/9 27/68/9
f 25/70/10 29/222/10 31/71/10
f 34/73/7 35/223/7 36/74/7
f 33/76/2 36/224/2 38/77/2
f 37/79/8 38/225/8 40/80/8
f 34/82/4 39/226/4 40/83/4
f 38/85/9 36/227/9 35/86/9
f 33/88/10 37/228/10 39/89/10
f 42/91/1 43/229/1 44/92/1
f 41/94/2 44/230/2 46/95/2
f 45/97/3 46/231/3 48/98/3
f 47/100/4 48/232/4 43/101/4
f 46/103/5 44/233/5 43/104/5
f 41/106/6 45/234/6 47/107/6
f 50/109/1 51/235/1 52/110/1
f 49/112/2 52/236/2 54/113/2
f 53/115/3 54/237/3 56/116/3
f 55/118/4 56/238/4 51/119/4
f 54/121/5 52/239/5 51/122/5
f 49/124/6 53/240/6 55/125/6
f 58/127/1 59/241/1 60/128/1
f 57/130/2 60/242/2 62/131/2
f 61/133/3 62/243/3 64/134/3
f 63/136/4 64/244/4 59/137/4
f 62/139/5 60/245/5 59/140/5
f 57/142/6 61/246/6 63/143/6
f 66/145/1 67/247/1 68/146/1
f 65/148/2 68/248/2 70/149/2
f 69/151/3 70/249/3 72/152/3
f 71/154/4 72/250/4 67/155/4
f 70/157/5 68/251/5 67/158/5
f 65/160/6 69/252/6 71/161/6
f 74/163/1 75/253/1 76/164/1
f 73/166/2 76/254/2 78/167/2
f 77/169/3 78/255/3 80/170/3
f 79/172/4 80/256/4 75/173/4
f 78/175/5 76/257/5 75/176/5
f 73/178/6 77/258/6 79/179/6
f 82/181/1 83/259/1 84/182/1
f 81/184/2 84/260/2 86/185/2
f 85/187/3 86/261/3 88/188/3
f 87/190/4 88/262/4 83/191/4
f 86/193/5 84/263/5 83/194/5
f 81/196/6 85/264/6 87/197/6
