# Blender v2.91.2 OBJ File: 'LunarBackpack.blend'
# www.blender.org
mtllib LunarBackpack.mtl
o Backpack_Cube.001
v 0.223723 0.378175 0.191853
v 0.223723 -0.158926 0.191853
v 0.223723 0.378175 -0.032011
v 0.223723 -0.158926 -0.032011
v -0.223723 0.378175 0.191853
v -0.223723 -0.158926 0.191853
v -0.223723 0.378175 -0.032011
v -0.223723 -0.158926 -0.032011
v 0.176204 -0.193441 0.167853
v 0.176204 -0.193441 -0.065268
v 0.130092 -0.193441 0.167853
v 0.130092 -0.193441 -0.065268
v 0.176204 0.085776 -0.086840
v 0.130092 0.085776 -0.086840
v 0.176204 -0.183441 0.167853
v 0.176204 -0.183441 -0.056011
v 0.130092 -0.183441 0.167853
v 0.130092 -0.183441 -0.056011
v 0.176204 0.086546 -0.076869
v 0.130092 0.086546 -0.076869
v -0.176204 -0.193441 0.167853
v -0.176204 -0.193441 -0.065268
v -0.130092 -0.193441 0.167853
v -0.130092 -0.193441 -0.065268
v -0.176204 0.085776 -0.086840
v -0.130092 0.085776 -0.086840
v -0.176204 -0.183441 0.167853
v -0.176204 -0.183441 -0.056011
v -0.130092 -0.183441 0.167853
v -0.130092 -0.183441 -0.056011
v -0.176204 0.086546 -0.076869
v -0.130092 0.086546 -0.076869
v 0.090231 -0.171591 0.107263
v 0.090231 -0.242821 0.107263
v 0.090231 -0.171591 0.076690
v 0.090231 -0.242821 0.076690
v 0.059658 -0.171591 0.107263
v 0.059658 -0.242821 0.107263
v 0.059658 -0.171591 0.076690
v 0.059658 -0.242821 0.076690
v 0.090231 -0.212248 0.107263
v 0.090231 -0.212248 0.076690
v 0.059658 -0.212248 0.076690
v 0.059658 -0.212248 0.107263
v -0.090231 -0.171591 0.107263
v -0.090231 -0.242821 0.107263
v -0.090231 -0.171591 0.076690
v -0.090231 -0.242821 0.076690
v -0.059658 -0.171591 0.107263
v -0.059658 -0.242821 0.107263
v -0.059658 -0.171591 0.076690
v -0.059658 -0.242821 0.076690
v -0.090231 -0.212248 0.107263
v -0.090231 -0.212248 0.076690
v -0.059658 -0.212248 0.076690
v -0.059658 -0.212248 0.107263
v 0.000000 -0.242821 0.076690
v 0.000000 -0.242821 0.107263
v 0.000000 -0.212248 0.076690
v 0.000000 -0.212248 0.107263
v 0.182926 0.338833 -0.030389
v 0.182926 0.123841 -0.030389
v 0.182926 0.338833 -0.076699
v 0.182926 0.123841 -0.076699
v -0.182926 0.338833 -0.030389
v -0.182926 0.123841 -0.030389
v -0.182926 0.338833 -0.076699
v -0.182926 0.123841 -0.076699
v -0.260126 0.338832 0.159619
v -0.260126 0.173291 0.159619
v -0.220708 0.338833 0.159619
v -0.220708 0.173291 0.159619
v -0.260126 0.338832 0.002303
v -0.260126 0.173291 0.002303
v -0.220708 0.338833 0.002303
v -0.220708 0.173291 0.002303
v 0.260126 0.338833 0.159619
v 0.260126 0.173291 0.159619
v 0.220708 0.338833 0.159619
v 0.220708 0.173291 0.159619
v 0.260126 0.338833 0.002303
v 0.260126 0.173291 0.002303
v 0.220708 0.338833 0.002303
v 0.220708 0.173291 0.002303
v 0.230558 -0.183441 0.191853
v 0.230558 -0.183440 -0.056168
v -0.230558 -0.183441 0.191853
v -0.230558 -0.183440 -0.056168
v 0.230558 0.022774 -0.071344
v -0.230558 0.022774 -0.071344
v 0.230558 -0.157441 0.191853
v 0.230558 -0.157441 -0.032011
v -0.230558 -0.157441 0.191853
v -0.230558 -0.157441 -0.032011
v 0.230558 0.024682 -0.045414
v -0.230558 0.024682 -0.045414
v 0.181337 0.054248 -0.072525
v 0.181337 -0.001916 -0.067611
v 0.181337 0.052792 -0.089164
v 0.181337 -0.003372 -0.084251
v 0.124959 0.054248 -0.072525
v 0.124959 -0.001916 -0.067611
v 0.124959 0.052792 -0.089164
v 0.124959 -0.003372 -0.084251
v 0.194905 0.067764 -0.073707
v 0.194905 -0.015433 -0.066429
v 0.194905 -0.016888 -0.083068
v 0.194905 0.066309 -0.090347
v 0.111391 0.066308 -0.090347
v 0.111391 -0.016888 -0.083068
v 0.111391 -0.015433 -0.066429
v 0.111391 0.067764 -0.073707
v -0.181337 0.054248 -0.072525
v -0.181337 -0.001916 -0.067611
v -0.181337 0.052792 -0.089164
v -0.181337 -0.003372 -0.084251
v -0.124959 0.054248 -0.072525
v -0.124959 -0.001916 -0.067611
v -0.124959 0.052792 -0.089164
v -0.124959 -0.003372 -0.084251
v -0.194905 0.067764 -0.073707
v -0.194905 -0.015433 -0.066429
v -0.194905 -0.016888 -0.083068
v -0.194905 0.066308 -0.090347
v -0.111391 0.066308 -0.090347
v -0.111391 -0.016888 -0.083068
v -0.111391 -0.015433 -0.066429
v -0.111391 0.067764 -0.073707
v 0.161560 0.023733 -0.074314
v 0.161560 -0.009260 -0.083129
v 0.161560 0.026119 -0.083241
v 0.161560 -0.006875 -0.092056
v 0.144736 0.023733 -0.074314
v 0.144736 -0.009260 -0.083129
v 0.144736 0.026119 -0.083241
v 0.144736 -0.006875 -0.092056
v -0.161560 0.023733 -0.074314
v -0.161560 -0.009261 -0.083129
v -0.161560 0.026118 -0.083241
v -0.161560 -0.006875 -0.092056
v -0.144736 0.023733 -0.074314
v -0.144736 -0.009261 -0.083129
v -0.144736 0.026118 -0.083241
v -0.144736 -0.006875 -0.092056
v 0.187616 0.111841 -0.030389
v 0.187616 0.111841 -0.087898
v -0.187616 0.111841 -0.030389
v -0.187616 0.111841 -0.087898
v 0.187616 0.199965 -0.093989
v -0.187616 0.199965 -0.093989
v 0.187616 0.123841 -0.030389
v 0.187616 0.123841 -0.076699
v -0.187616 0.123841 -0.030389
v -0.187616 0.123841 -0.076699
v 0.187616 0.200792 -0.082017
v -0.187616 0.200792 -0.082017
vt 0.335938 0.554688
vt 0.484375 0.203125
vt 0.335938 0.203125
vt 0.304688 0.554688
vt 0.015625 0.203125
vt 0.304688 0.203125
vt 0.484375 0.554688
vt 0.335938 0.203125
vt 0.484375 0.203125
vt 0.304688 0.554688
vt 0.015625 0.203125
vt 0.304688 0.203125
vt 0.304688 0.031250
vt 0.015625 0.171875
vt 0.015625 0.031250
vt 0.015625 0.734375
vt 0.304688 0.585938
vt 0.304688 0.734375
vt 0.898438 0.640625
vt 0.945312 0.390625
vt 0.945312 0.640625
vt 0.898438 0.351562
vt 0.945312 0.054688
vt 0.945312 0.351562
vt 0.945312 0.390625
vt 0.898438 0.640625
vt 0.945312 0.640625
vt 0.945312 0.054688
vt 0.898438 0.351562
vt 0.945312 0.351562
vt 0.906250 0.632812
vt 0.914062 0.406250
vt 0.914062 0.632812
vt 0.906250 0.632812
vt 0.914062 0.406250
vt 0.906250 0.398438
vt 0.906250 0.406250
vt 0.937500 0.406250
vt 0.937500 0.406250
vt 0.898438 0.062500
vt 0.945312 0.062500
vt 0.906250 0.062500
vt 0.914062 0.328125
vt 0.906250 0.335938
vt 0.906250 0.062500
vt 0.914062 0.328125
vt 0.914062 0.062500
vt 0.945312 0.390625
vt 0.898438 0.640625
vt 0.945312 0.640625
vt 0.945312 0.054688
vt 0.898438 0.351562
vt 0.945312 0.351562
vt 0.898438 0.640625
vt 0.945312 0.390625
vt 0.945312 0.640625
vt 0.898438 0.351562
vt 0.945312 0.054688
vt 0.945312 0.351562
vt 0.906250 0.632812
vt 0.914062 0.406250
vt 0.906250 0.398438
vt 0.914062 0.406250
vt 0.906250 0.632812
vt 0.906250 0.398438
vt 0.937500 0.406250
vt 0.906250 0.406250
vt 0.937500 0.406250
vt 0.898438 0.062500
vt 0.945312 0.062500
vt 0.914062 0.328125
vt 0.906250 0.062500
vt 0.906250 0.335938
vt 0.906250 0.062500
vt 0.914062 0.328125
vt 0.906250 0.335938
vt 0.265625 0.898438
vt 0.304688 0.859375
vt 0.265625 0.859375
vt 0.015625 0.898438
vt 0.054688 0.859375
vt 0.015625 0.859375
vt 0.054688 0.953125
vt 0.125000 0.914062
vt 0.054688 0.914062
vt 0.054688 0.898438
vt 0.015625 0.859375
vt 0.054688 0.859375
vt 0.015625 0.953125
vt 0.054688 0.914062
vt 0.054688 0.953125
vt 0.015625 0.804688
vt 0.054688 0.804688
vt 0.304688 0.859375
vt 0.265625 0.804688
vt 0.304688 0.804688
vt 0.054688 0.804688
vt 0.015625 0.804688
vt 0.304688 0.804688
vt 0.265625 0.804688
vt 0.125000 0.898438
vt 0.054688 0.898438
vt 0.125000 0.859375
vt 0.125000 0.953125
vt 0.304688 0.859375
vt 0.265625 0.898438
vt 0.265625 0.859375
vt 0.203125 0.859375
vt 0.242188 0.898438
vt 0.242188 0.859375
vt 0.203125 0.953125
vt 0.203125 0.914062
vt 0.242188 0.859375
vt 0.203125 0.898438
vt 0.203125 0.859375
vt 0.203125 0.914062
vt 0.242188 0.953125
vt 0.203125 0.953125
vt 0.242188 0.804688
vt 0.203125 0.804688
vt 0.265625 0.804688
vt 0.304688 0.859375
vt 0.304688 0.804688
vt 0.203125 0.804688
vt 0.242188 0.804688
vt 0.304688 0.804688
vt 0.265625 0.804688
vt 0.203125 0.898438
vt 0.796875 0.445312
vt 0.835938 0.289062
vt 0.796875 0.289062
vt 0.773438 0.445312
vt 0.500000 0.289062
vt 0.773438 0.289062
vt 0.835938 0.445312
vt 0.796875 0.289062
vt 0.835938 0.289062
vt 0.773438 0.500000
vt 0.500000 0.468750
vt 0.500000 0.500000
vt 0.500000 0.500000
vt 0.773438 0.468750
vt 0.773438 0.500000
vt 0.695312 0.210938
vt 0.656250 0.062500
vt 0.695312 0.062500
vt 0.640625 0.062500
vt 0.500000 0.210938
vt 0.500000 0.062500
vt 0.656250 0.210938
vt 0.695312 0.062500
vt 0.656250 0.062500
vt 0.640625 0.210938
vt 0.500000 0.062500
vt 0.640625 0.062500
vt 0.640625 0.046875
vt 0.500000 0.015625
vt 0.500000 0.046875
vt 0.500000 0.265625
vt 0.640625 0.234375
vt 0.640625 0.265625
vt 0.656250 0.062500
vt 0.695312 0.210938
vt 0.695312 0.062500
vt 0.500000 0.210938
vt 0.640625 0.062500
vt 0.500000 0.062500
vt 0.695312 0.062500
vt 0.656250 0.210938
vt 0.656250 0.062500
vt 0.500000 0.062500
vt 0.640625 0.210938
vt 0.640625 0.062500
vt 0.500000 0.015625
vt 0.640625 0.046875
vt 0.500000 0.046875
vt 0.640625 0.234375
vt 0.500000 0.265625
vt 0.640625 0.265625
vt 0.632812 0.976562
vt 0.968750 0.812500
vt 0.968750 0.976562
vt 0.968750 0.664062
vt 0.632812 0.796875
vt 0.632812 0.664062
vt 0.968750 0.812500
vt 0.632812 0.976562
vt 0.968750 0.976562
vt 0.632812 0.796875
vt 0.968750 0.664062
vt 0.632812 0.664062
vt 0.640625 0.843750
vt 0.929688 0.812500
vt 0.640625 0.812500
vt 0.640625 0.843750
vt 0.929688 0.812500
vt 0.960938 0.843750
vt 0.660106 0.831780
vt 0.941457 0.831780
vt 0.941457 0.831780
vt 0.941457 0.780759
vt 0.660106 0.780759
vt 0.660106 0.780759
vt 0.921875 0.789062
vt 0.687500 0.757812
vt 0.664062 0.789062
vt 0.921875 0.789062
vt 0.687500 0.757812
vt 0.921875 0.757812
vt 0.531250 0.632812
vt 0.562500 0.796875
vt 0.562500 0.632812
vt 0.562500 0.765625
vt 0.531250 0.664062
vt 0.531250 0.765625
vt 0.562500 0.796875
vt 0.531250 0.632812
vt 0.562500 0.632812
vt 0.484375 0.843750
vt 0.382812 0.812500
vt 0.382812 0.843750
vt 0.515625 0.843750
vt 0.351562 0.812500
vt 0.351562 0.843750
vt 0.351562 0.843750
vt 0.515625 0.812500
vt 0.515625 0.843750
vt 0.382812 0.765625
vt 0.351562 0.632812
vt 0.382812 0.664062
vt 0.382812 0.664062
vt 0.351562 0.796875
vt 0.382812 0.765625
vt 0.515625 0.632812
vt 0.351562 0.632812
vt 0.515625 0.796875
vt 0.484375 0.765625
vt 0.484375 0.664062
vt 0.484375 0.664062
vt 0.515625 0.796875
vt 0.484375 0.765625
vt 0.515625 0.632812
vt 0.351562 0.796875
vt 0.382812 0.843750
vt 0.484375 0.812500
vt 0.484375 0.843750
vt 0.562500 0.765625
vt 0.531250 0.664062
vt 0.562500 0.664062
vt 0.531250 0.632812
vt 0.562500 0.796875
vt 0.531250 0.796875
vt 0.562500 0.765625
vt 0.531250 0.664062
vt 0.562500 0.664062
vt 0.531250 0.632812
vt 0.562500 0.796875
vt 0.562500 0.632812
vt 0.382812 0.812500
vt 0.484375 0.843750
vt 0.382812 0.843750
vt 0.351562 0.812500
vt 0.515625 0.843750
vt 0.351562 0.843750
vt 0.515625 0.812500
vt 0.351562 0.843750
vt 0.515625 0.843750
vt 0.382812 0.664062
vt 0.351562 0.796875
vt 0.382812 0.765625
vt 0.351562 0.796875
vt 0.382812 0.664062
vt 0.382812 0.765625
vt 0.351562 0.632812
vt 0.484375 0.664062
vt 0.484375 0.765625
vt 0.515625 0.632812
vt 0.515625 0.796875
vt 0.484375 0.664062
vt 0.484375 0.765625
vt 0.351562 0.632812
vt 0.484375 0.812500
vt 0.382812 0.843750
vt 0.484375 0.843750
vt 0.531250 0.664062
vt 0.562500 0.765625
vt 0.562500 0.664062
vt 0.414062 0.953125
vt 0.437500 0.859375
vt 0.414062 0.859375
vt 0.398438 0.953125
vt 0.351562 0.859375
vt 0.398438 0.859375
vt 0.437500 0.859375
vt 0.414062 0.953125
vt 0.414062 0.859375
vt 0.351562 0.953125
vt 0.398438 0.859375
vt 0.351562 0.859375
vt 0.398438 0.992188
vt 0.351562 0.968750
vt 0.351562 0.992188
vt 0.351562 0.992188
vt 0.398438 0.968750
vt 0.398438 0.992188
vt 0.437500 0.859375
vt 0.414062 0.953125
vt 0.414062 0.859375
vt 0.351562 0.859375
vt 0.398438 0.953125
vt 0.398438 0.859375
vt 0.437500 0.859375
vt 0.414062 0.953125
vt 0.437500 0.953125
vt 0.398438 0.859375
vt 0.351562 0.953125
vt 0.351562 0.859375
vt 0.351562 0.968750
vt 0.398438 0.992188
vt 0.351562 0.992188
vt 0.398438 0.968750
vt 0.351562 0.992188
vt 0.398438 0.992188
vt 0.500000 0.617188
vt 0.781250 0.585938
vt 0.781250 0.617188
vt 0.500000 0.578125
vt 0.781250 0.515625
vt 0.781250 0.578125
vt 0.781250 0.585938
vt 0.500000 0.617188
vt 0.781250 0.617188
vt 0.781250 0.515625
vt 0.500000 0.578125
vt 0.781250 0.578125
vt 0.554688 0.601562
vt 0.515625 0.593750
vt 0.554688 0.593750
vt 0.554688 0.601562
vt 0.515625 0.593750
vt 0.507812 0.601562
vt 0.505793 0.591121
vt 0.775457 0.591121
vt 0.775457 0.591121
vt 0.506834 0.522704
vt 0.774416 0.522704
vt 0.774416 0.522704
vt 0.515625 0.570312
vt 0.578125 0.562500
vt 0.585938 0.570312
vt 0.515625 0.570312
vt 0.578125 0.562500
vt 0.515625 0.562500
vt 0.484375 0.554688
vt 0.015625 0.554688
vt 0.335938 0.554688
vt 0.015625 0.554688
vt 0.304688 0.171875
vt 0.015625 0.585938
vt 0.898438 0.390625
vt 0.898438 0.054688
vt 0.898438 0.390625
vt 0.898438 0.054688
vt 0.906250 0.398438
vt 0.914062 0.632812
vt 0.906250 0.406250
vt 0.914062 0.062500
vt 0.906250 0.335938
vt 0.898438 0.390625
vt 0.898438 0.054688
vt 0.898438 0.390625
vt 0.898438 0.054688
vt 0.914062 0.632812
vt 0.914062 0.632812
vt 0.906250 0.406250
vt 0.914062 0.062500
vt 0.914062 0.062500
vt 0.304688 0.898438
vt 0.125000 0.953125
vt 0.015625 0.898438
vt 0.015625 0.914062
vt 0.265625 0.859375
vt 0.125000 0.859375
vt 0.125000 0.898438
vt 0.125000 0.914062
vt 0.304688 0.898438
vt 0.242188 0.898438
vt 0.242188 0.914062
vt 0.265625 0.859375
vt 0.835938 0.445312
vt 0.500000 0.445312
vt 0.796875 0.445312
vt 0.773438 0.468750
vt 0.500000 0.468750
vt 0.656250 0.210938
vt 0.640625 0.210938
vt 0.695312 0.210938
vt 0.500000 0.210938
vt 0.640625 0.015625
vt 0.500000 0.234375
vt 0.656250 0.210938
vt 0.640625 0.210938
vt 0.695312 0.210938
vt 0.500000 0.210938
vt 0.640625 0.015625
vt 0.500000 0.234375
vt 0.632812 0.812500
vt 0.968750 0.796875
vt 0.632812 0.812500
vt 0.968750 0.796875
vt 0.960938 0.843750
vt 0.640625 0.812500
vt 0.660106 0.831780
vt 0.941457 0.780759
vt 0.921875 0.757812
vt 0.664062 0.789062
vt 0.531250 0.796875
vt 0.562500 0.664062
vt 0.531250 0.796875
vt 0.484375 0.812500
vt 0.515625 0.812500
vt 0.351562 0.812500
vt 0.382812 0.812500
vt 0.531250 0.765625
vt 0.562500 0.632812
vt 0.531250 0.765625
vt 0.531250 0.796875
vt 0.484375 0.812500
vt 0.515625 0.812500
vt 0.351562 0.812500
vt 0.515625 0.796875
vt 0.515625 0.632812
vt 0.382812 0.812500
vt 0.531250 0.765625
vt 0.437500 0.953125
vt 0.351562 0.953125
vt 0.437500 0.953125
vt 0.398438 0.953125
vt 0.398438 0.968750
vt 0.351562 0.968750
vt 0.437500 0.953125
vt 0.351562 0.953125
vt 0.414062 0.859375
vt 0.398438 0.953125
vt 0.398438 0.968750
vt 0.351562 0.968750
vt 0.500000 0.585938
vt 0.500000 0.515625
vt 0.500000 0.585938
vt 0.500000 0.515625
vt 0.507812 0.601562
vt 0.554688 0.593750
vt 0.505793 0.591121
vt 0.506834 0.522704
vt 0.515625 0.562500
vt 0.585938 0.570312
vn 1.0000 0.0000 0.0000
vn 0.0000 0.0000 -1.0000
vn -1.0000 -0.0000 0.0000
vn 0.0000 0.0000 1.0000
vn -0.0000 1.0000 0.0000
vn 0.0000 -1.0000 0.0000
vn -0.0000 -0.0770 -0.9970
vn 0.0000 0.0770 0.9970
vn -0.0000 0.9970 -0.0770
vn 0.0000 -0.0734 -0.9973
vn -0.0000 0.0734 0.9973
vn -0.0000 0.9973 -0.0734
vn -0.0000 0.9962 -0.0872
vn 0.0000 -0.9962 0.0872
vn -0.0000 0.0872 0.9962
vn -0.0000 -0.0872 -0.9962
vn -0.0000 0.2581 -0.9661
vn -0.0000 -0.2581 0.9661
vn -0.0000 0.9661 0.2581
vn 0.0000 -0.9661 -0.2581
vn 0.0000 -0.0690 -0.9976
vn -0.0000 0.0690 0.9976
vn -0.0000 0.9976 -0.0689
usemtl Backpack
s off
f 2/1/1 3/2/1 1/3/1
f 4/4/2 7/5/2 3/6/2
f 8/7/3 5/8/3 7/9/3
f 6/10/4 1/11/4 5/12/4
f 7/13/5 1/14/5 3/15/5
f 4/16/6 6/17/6 8/18/6
f 10/19/6 11/20/6 12/21/6
f 12/22/7 13/23/7 10/24/7
f 17/25/5 16/26/5 18/27/5
f 19/28/8 18/29/8 16/30/8
f 9/31/1 16/32/1 15/33/1
f 11/34/3 18/35/3 12/36/3
f 9/37/4 17/38/4 11/39/4
f 14/40/9 19/28/9 13/41/9
f 13/42/1 16/43/1 10/44/1
f 14/45/3 18/46/3 20/47/3
f 23/48/6 22/49/6 24/50/6
f 25/51/7 24/52/7 22/53/7
f 28/54/5 29/55/5 30/56/5
f 30/57/8 31/58/8 28/59/8
f 21/60/3 28/61/3 22/62/3
f 30/63/1 23/64/1 24/65/1
f 29/66/4 21/67/4 23/68/4
f 31/58/9 26/69/9 25/70/9
f 28/71/3 25/72/3 22/73/3
f 26/74/1 30/75/1 24/76/1
f 34/77/1 42/78/1 41/79/1
f 36/80/2 43/81/2 42/82/2
f 43/83/5 60/84/5 44/85/5
f 38/86/4 41/87/4 44/88/4
f 36/89/6 38/90/6 40/91/6
f 44/88/4 33/92/4 37/93/4
f 43/94/3 37/95/3 39/96/3
f 42/82/2 39/97/2 35/98/2
f 41/79/1 35/99/1 33/100/1
f 44/88/4 58/101/4 38/86/4
f 40/102/2 59/103/2 43/81/2
f 38/90/6 57/104/6 40/91/6
f 54/105/3 46/106/3 53/107/3
f 55/108/2 48/109/2 54/110/2
f 60/84/5 55/111/5 56/112/5
f 53/113/4 50/114/4 56/115/4
f 50/116/6 48/117/6 52/118/6
f 45/119/4 56/115/4 49/120/4
f 49/121/1 55/122/1 51/123/1
f 51/124/2 54/110/2 47/125/2
f 47/126/3 53/107/3 45/127/3
f 58/101/4 56/115/4 50/114/4
f 59/103/2 52/128/2 55/108/2
f 57/104/6 50/116/6 52/118/6
f 62/129/1 63/130/1 61/131/1
f 64/132/2 67/133/2 63/134/2
f 68/135/3 65/136/3 67/137/3
f 67/138/5 61/139/5 63/140/5
f 64/141/6 66/142/6 68/143/6
f 70/144/4 71/145/4 69/146/4
f 72/147/1 75/148/1 71/149/1
f 76/150/2 73/151/2 75/152/2
f 74/153/3 69/154/3 73/155/3
f 75/156/5 69/157/5 71/158/5
f 72/159/6 74/160/6 76/161/6
f 79/162/4 78/163/4 77/164/4
f 83/165/3 80/166/3 79/167/3
f 81/168/2 84/169/2 83/170/2
f 77/171/1 82/172/1 81/173/1
f 77/174/5 83/175/5 79/176/5
f 82/177/6 80/178/6 84/179/6
f 86/180/6 87/181/6 88/182/6
f 88/183/10 89/184/10 86/185/10
f 93/186/5 92/187/5 94/188/5
f 95/189/11 94/190/11 92/191/11
f 85/192/1 92/193/1 91/194/1
f 87/195/3 94/196/3 88/197/3
f 85/198/4 93/199/4 87/200/4
f 90/201/12 95/202/12 89/203/12
f 89/204/1 92/205/1 86/206/1
f 90/207/3 94/208/3 96/209/3
f 105/210/1 107/211/1 108/212/1
f 104/213/1 101/214/1 102/215/1
f 110/216/3 112/217/3 109/218/3
f 104/219/13 98/220/13 100/221/13
f 109/222/13 105/223/13 108/224/13
f 107/225/14 111/226/14 110/227/14
f 98/228/15 105/229/15 97/230/15
f 99/231/16 107/232/16 100/233/16
f 99/231/16 109/234/16 108/235/16
f 100/233/16 110/236/16 104/237/16
f 104/237/16 109/234/16 103/238/16
f 101/239/15 111/240/15 102/241/15
f 101/239/15 105/229/15 112/242/15
f 102/241/15 106/243/15 98/228/15
f 99/244/14 101/245/14 103/246/14
f 100/247/3 97/248/3 99/249/3
f 121/250/3 123/251/3 122/252/3
f 120/253/3 117/254/3 119/255/3
f 128/256/1 126/257/1 125/258/1
f 114/259/13 120/260/13 116/261/13
f 121/262/13 125/263/13 124/264/13
f 127/265/14 123/266/14 126/267/14
f 113/268/15 122/269/15 114/270/15
f 123/271/16 115/272/16 116/273/16
f 124/274/16 119/275/16 115/272/16
f 120/276/16 123/271/16 116/273/16
f 125/277/16 120/276/16 119/275/16
f 127/278/15 117/279/15 118/280/15
f 117/279/15 121/281/15 113/268/15
f 122/269/15 118/280/15 114/270/15
f 117/282/14 115/283/14 119/284/14
f 113/285/1 116/286/1 115/287/1
f 130/288/1 131/289/1 129/290/1
f 132/291/17 135/292/17 131/293/17
f 135/294/3 134/295/3 133/296/3
f 134/297/18 129/298/18 133/299/18
f 135/300/19 129/301/19 131/302/19
f 132/303/20 134/304/20 136/305/20
f 139/306/3 138/307/3 137/308/3
f 143/309/17 140/310/17 139/311/17
f 143/312/1 142/313/1 144/314/1
f 137/315/18 142/316/18 141/317/18
f 137/318/19 143/319/19 139/320/19
f 142/321/20 140/322/20 144/323/20
f 146/324/6 147/325/6 148/326/6
f 148/327/21 149/328/21 146/329/21
f 153/330/5 152/331/5 154/332/5
f 155/333/22 154/334/22 152/335/22
f 145/336/1 152/337/1 151/338/1
f 147/339/3 154/340/3 148/341/3
f 145/342/4 153/343/4 147/344/4
f 150/345/23 155/346/23 149/347/23
f 149/348/1 152/349/1 146/350/1
f 150/351/3 154/352/3 156/353/3
f 2/1/1 4/354/1 3/2/1
f 4/4/2 8/355/2 7/5/2
f 8/7/3 6/356/3 5/8/3
f 6/10/4 2/357/4 1/11/4
f 7/13/5 5/358/5 1/14/5
f 4/16/6 2/359/6 6/17/6
f 10/19/6 9/360/6 11/20/6
f 12/22/7 14/361/7 13/23/7
f 17/25/5 15/362/5 16/26/5
f 19/28/8 20/363/8 18/29/8
f 9/31/1 10/364/1 16/32/1
f 11/34/3 17/365/3 18/35/3
f 9/37/4 15/366/4 17/38/4
f 14/40/9 20/363/9 19/28/9
f 13/42/1 19/367/1 16/43/1
f 14/45/3 12/368/3 18/46/3
f 23/48/6 21/369/6 22/49/6
f 25/51/7 26/370/7 24/52/7
f 28/54/5 27/371/5 29/55/5
f 30/57/8 32/372/8 31/58/8
f 21/60/3 27/373/3 28/61/3
f 30/63/1 29/374/1 23/64/1
f 29/66/4 27/375/4 21/67/4
f 31/58/9 32/372/9 26/69/9
f 28/71/3 31/376/3 25/72/3
f 26/74/1 32/377/1 30/75/1
f 34/77/1 36/378/1 42/78/1
f 36/80/2 40/102/2 43/81/2
f 43/83/5 59/379/5 60/84/5
f 38/86/4 34/380/4 41/87/4
f 36/89/6 34/381/6 38/90/6
f 44/88/4 41/87/4 33/92/4
f 43/94/3 44/382/3 37/95/3
f 42/82/2 43/81/2 39/97/2
f 41/79/1 42/78/1 35/99/1
f 44/88/4 60/383/4 58/101/4
f 40/102/2 57/384/2 59/103/2
f 38/90/6 58/385/6 57/104/6
f 54/105/3 48/386/3 46/106/3
f 55/108/2 52/128/2 48/109/2
f 60/84/5 59/379/5 55/111/5
f 53/113/4 46/387/4 50/114/4
f 50/116/6 46/388/6 48/117/6
f 45/119/4 53/113/4 56/115/4
f 49/121/1 56/389/1 55/122/1
f 51/124/2 55/108/2 54/110/2
f 47/126/3 54/105/3 53/107/3
f 58/101/4 60/383/4 56/115/4
f 59/103/2 57/384/2 52/128/2
f 57/104/6 58/385/6 50/116/6
f 62/129/1 64/390/1 63/130/1
f 64/132/2 68/391/2 67/133/2
f 68/135/3 66/392/3 65/136/3
f 67/138/5 65/393/5 61/139/5
f 64/141/6 62/394/6 66/142/6
f 70/144/4 72/395/4 71/145/4
f 72/147/1 76/396/1 75/148/1
f 76/150/2 74/397/2 73/151/2
f 74/153/3 70/398/3 69/154/3
f 75/156/5 73/399/5 69/157/5
f 72/159/6 70/400/6 74/160/6
f 79/162/4 80/401/4 78/163/4
f 83/165/3 84/402/3 80/166/3
f 81/168/2 82/403/2 84/169/2
f 77/171/1 78/404/1 82/172/1
f 77/174/5 81/405/5 83/175/5
f 82/177/6 78/406/6 80/178/6
f 86/180/6 85/407/6 87/181/6
f 88/183/10 90/408/10 89/184/10
f 93/186/5 91/409/5 92/187/5
f 95/189/11 96/410/11 94/190/11
f 85/192/1 86/411/1 92/193/1
f 87/195/3 93/412/3 94/196/3
f 85/198/4 91/413/4 93/199/4
f 90/201/12 96/414/12 95/202/12
f 89/204/1 95/415/1 92/205/1
f 90/207/3 88/416/3 94/208/3
f 105/210/1 106/417/1 107/211/1
f 104/213/1 103/418/1 101/214/1
f 110/216/3 111/419/3 112/217/3
f 104/219/13 102/420/13 98/220/13
f 109/222/13 112/421/13 105/223/13
f 107/225/14 106/422/14 111/226/14
f 98/228/15 106/243/15 105/229/15
f 99/231/16 108/235/16 107/232/16
f 99/231/16 103/238/16 109/234/16
f 100/233/16 107/232/16 110/236/16
f 104/237/16 110/236/16 109/234/16
f 101/239/15 112/242/15 111/240/15
f 101/239/15 97/230/15 105/229/15
f 102/241/15 111/240/15 106/243/15
f 99/244/14 97/423/14 101/245/14
f 100/247/3 98/424/3 97/248/3
f 121/250/3 124/425/3 123/251/3
f 120/253/3 118/426/3 117/254/3
f 128/256/1 127/427/1 126/257/1
f 114/259/13 118/428/13 120/260/13
f 121/262/13 128/429/13 125/263/13
f 127/265/14 122/430/14 123/266/14
f 113/268/15 121/281/15 122/269/15
f 123/271/16 124/274/16 115/272/16
f 124/274/16 125/277/16 119/275/16
f 120/276/16 126/431/16 123/271/16
f 125/277/16 126/431/16 120/276/16
f 127/278/15 128/432/15 117/279/15
f 117/279/15 128/432/15 121/281/15
f 122/269/15 127/278/15 118/280/15
f 117/282/14 113/433/14 115/283/14
f 113/285/1 114/434/1 116/286/1
f 130/288/1 132/435/1 131/289/1
f 132/291/17 136/436/17 135/292/17
f 135/294/3 136/437/3 134/295/3
f 134/297/18 130/438/18 129/298/18
f 135/300/19 133/439/19 129/301/19
f 132/303/20 130/440/20 134/304/20
f 139/306/3 140/441/3 138/307/3
f 143/309/17 144/442/17 140/310/17
f 143/312/1 141/443/1 142/313/1
f 137/315/18 138/444/18 142/316/18
f 137/318/19 141/445/19 143/319/19
f 142/321/20 138/446/20 140/322/20
f 146/324/6 145/447/6 147/325/6
f 148/327/21 150/448/21 149/328/21
f 153/330/5 151/449/5 152/331/5
f 155/333/22 156/450/22 154/334/22
f 145/336/1 146/451/1 152/337/1
f 147/339/3 153/452/3 154/340/3
f 145/342/4 151/453/4 153/343/4
f 150/345/23 156/454/23 155/346/23
f 149/348/1 155/455/1 152/349/1
f 150/351/3 148/456/3 154/352/3
