# Blender 3.4.1
# www.blender.org
mtllib lunar_kimono_obi.mtl
o lunar_kimono_obi
v 0.109375 -1.046875 0.139062
v 0.109375 -1.046875 0.170312
v 0.109375 -0.859375 0.139062
v 0.109375 -0.859375 0.170312
v 0.078125 -1.046875 0.170312
v 0.078125 -1.046875 0.139062
v 0.078125 -0.859375 0.170312
v 0.078125 -0.859375 0.139062
v 0.265625 -1.218750 -0.140625
v 0.265625 -1.218750 0.140625
v 0.265625 -0.906250 -0.140625
v 0.265625 -0.906250 0.140625
v -0.265625 -1.218750 0.140625
v -0.265625 -1.218750 -0.140625
v -0.265625 -0.906250 0.140625
v -0.265625 -0.906250 -0.140625
v 0.281250 -1.093750 -0.156250
v 0.281250 -1.093750 0.156250
v 0.281250 -1.031250 -0.156250
v 0.281250 -1.031250 0.156250
v -0.281250 -1.093750 0.156250
v -0.281250 -1.093750 -0.156250
v -0.281250 -1.031250 0.156250
v -0.281250 -1.031250 -0.156250
v 0.156250 -0.890625 0.125000
v 0.156250 -0.890625 0.156250
v 0.156250 -0.781250 0.125000
v 0.156250 -0.781250 0.156250
v 0.093750 -0.890625 0.156250
v 0.093750 -0.890625 0.125000
v 0.093750 -0.781250 0.156250
v 0.093750 -0.781250 0.125000
v 0.145312 -1.095312 0.140625
v 0.145312 -1.095312 0.171875
v 0.145312 -1.029688 0.140625
v 0.145312 -1.029688 0.171875
v 0.067187 -1.095312 0.171875
v 0.067187 -1.095312 0.140625
v 0.067187 -1.029688 0.171875
v 0.067187 -1.029688 0.140625
v 0.125000 -0.859375 0.139062
v 0.125000 -0.859375 0.170312
v 0.125000 -0.750000 0.139062
v 0.125000 -0.750000 0.170312
v 0.062500 -0.859375 0.170312
v 0.062500 -0.859375 0.139062
v 0.062500 -0.750000 0.170312
v 0.062500 -0.750000 0.139062
v 0.140625 -1.031250 0.125000
v 0.140625 -1.031250 0.156250
v 0.140625 -0.890625 0.125000
v 0.140625 -0.890625 0.156250
v 0.109375 -1.031250 0.156250
v 0.109375 -1.031250 0.125000
v 0.109375 -0.890625 0.156250
v 0.109375 -0.890625 0.125000
vn -0.0000 -0.0000 1.0000
vn 1.0000 -0.0000 -0.0000
vn -0.0000 -0.0000 -1.0000
vn -1.0000 -0.0000 -0.0000
vn -0.0000 -1.0000 -0.0000
vn -0.0000 1.0000 -0.0000
vt 0.312500 0.437500
vt 0.359375 0.437500
vt 0.593750 0.437500
vt 0.562500 0.750000
vt 0.328125 0.437500
vt 0.593750 0.421875
vt 0.312500 0.343750
vt 0.359375 0.343750
vt 0.593750 0.406250
vt 0.562500 0.656250
vt 0.328125 0.343750
vt 0.593750 0.390625
vt 0.578125 0.750000
vt 0.562500 0.656250
vt 0.609375 0.421875
vt 0.609375 0.437500
vt 0.343750 0.437500
vt 0.578125 0.656250
vt 0.562500 0.562500
vt 0.609375 0.390625
vt 0.578125 0.656250
vt 0.343750 0.343750
vt 0.578125 0.562500
vt 0.609375 0.406250
vt 0.000000 0.531250
vt 0.546875 0.843750
vt 0.000000 0.687500
vt 0.281250 1.000000
vt 0.140625 0.531250
vt 0.000000 0.546875
vt 0.000000 0.375000
vt 0.546875 0.687500
vt 0.281250 0.687500
vt 0.281250 0.843750
vt 0.140625 0.375000
vt 0.281250 0.546875
vt 0.546875 1.000000
vt 0.156250 0.531250
vt 0.265625 0.546875
vt 0.265625 0.687500
vt 0.281250 0.843750
vt 0.296875 0.531250
vt 0.156250 0.375000
vt 0.546875 0.546875
vt 0.546875 0.843750
vt 0.281250 0.687500
vt 0.296875 0.375000
vt 0.546875 0.687500
vt 0.312500 0.468750
vt 0.593750 0.500000
vt 0.000000 1.000000
vt 0.312500 0.531250
vt 0.468750 0.468750
vt 0.000000 0.843750
vt 0.312500 0.437500
vt 0.593750 0.468750
vt 0.000000 0.843750
vt 0.312500 0.500000
vt 0.468750 0.437500
vt 0.000000 0.687500
vt 0.593750 0.531250
vt 0.468750 0.468750
vt 0.281250 0.843750
vt 0.281250 1.000000
vt 0.312500 0.500000
vt 0.625000 0.468750
vt 0.468750 0.437500
vt 0.281250 0.687500
vt 0.593750 0.500000
vt 0.312500 0.468750
vt 0.625000 0.437500
vt 0.281250 0.843750
vt 0.593750 0.906250
vt 0.593750 0.937500
vt 0.375000 0.406250
vt 0.562500 1.000000
vt 0.609375 0.906250
vt 0.375000 0.390625
vt 0.593750 0.843750
vt 0.593750 0.875000
vt 0.593750 0.625000
vt 0.562500 0.937500
vt 0.609375 0.843750
vt 0.593750 0.609375
vt 0.593750 1.000000
vt 0.593750 0.843750
vt 0.406250 0.390625
vt 0.406250 0.406250
vt 0.562500 0.937500
vt 0.609375 0.843750
vt 0.593750 0.781250
vt 0.625000 0.609375
vt 0.593750 0.937500
vt 0.562500 0.875000
vt 0.609375 0.781250
vt 0.625000 0.625000
vt 0.437500 0.406250
vt 0.484375 0.437500
vt 0.562500 0.562500
vt 0.375000 0.437500
vt 0.453125 0.406250
vt 0.562500 0.546875
vt 0.437500 0.375000
vt 0.484375 0.406250
vt 0.593750 0.656250
vt 0.375000 0.406250
vt 0.453125 0.375000
vt 0.593750 0.640625
vt 0.421875 0.437500
vt 0.468750 0.406250
vt 0.609375 0.546875
vt 0.609375 0.562500
vt 0.437500 0.437500
vt 0.484375 0.406250
vt 0.468750 0.375000
vt 0.640625 0.640625
vt 0.421875 0.406250
vt 0.437500 0.406250
vt 0.484375 0.375000
vt 0.640625 0.656250
vt 0.593750 0.781250
vt 0.593750 0.812500
vt 0.406250 0.406250
vt 0.562500 0.875000
vt 0.609375 0.781250
vt 0.406250 0.390625
vt 0.593750 0.718750
vt 0.593750 0.750000
vt 0.593750 0.593750
vt 0.562500 0.812500
vt 0.609375 0.718750
vt 0.593750 0.578125
vt 0.593750 0.875000
vt 0.593750 0.718750
vt 0.437500 0.390625
vt 0.437500 0.406250
vt 0.562500 0.812500
vt 0.609375 0.718750
vt 0.593750 0.656250
vt 0.625000 0.578125
vt 0.593750 0.812500
vt 0.562500 0.750000
vt 0.609375 0.656250
vt 0.625000 0.593750
vt 0.531250 0.437500
vt 0.578125 0.437500
vt 0.593750 0.531250
vt 0.500000 0.437500
vt 0.546875 0.437500
vt 0.593750 0.515625
vt 0.531250 0.359375
vt 0.578125 0.359375
vt 0.593750 0.500000
vt 0.500000 0.359375
vt 0.546875 0.359375
vt 0.593750 0.484375
vt 0.515625 0.437500
vt 0.593750 1.000000
vt 0.609375 0.515625
vt 0.609375 0.531250
vt 0.562500 0.437500
vt 0.609375 1.000000
vt 0.593750 0.921875
vt 0.609375 0.484375
vt 0.515625 0.359375
vt 0.562500 0.359375
vt 0.609375 0.921875
vt 0.609375 0.500000
s 0
usemtl lunar_kimono_obi
f 7/21/1 2/4/1 4/10/1
f 4/11/2 1/1/2 3/7/2
f 3/8/3 6/17/3 8/22/3
f 8/23/4 5/14/4 7/19/4
f 1/3/5 5/15/5 6/16/5
f 4/12/6 8/24/6 7/20/6
f 15/45/1 10/28/1 12/34/1
f 12/35/2 9/25/2 11/31/2
f 11/32/3 14/41/3 16/46/3
f 16/47/4 13/38/4 15/43/4
f 9/27/5 13/39/5 14/40/5
f 12/36/6 16/48/6 15/44/6
f 23/69/1 18/52/1 20/58/1
f 20/59/2 17/49/2 19/55/2
f 19/56/3 22/65/3 24/70/3
f 24/71/4 21/62/4 23/67/4
f 17/51/5 21/63/5 22/64/5
f 20/60/6 24/72/6 23/68/6
f 31/93/1 26/76/1 28/82/1
f 28/83/2 25/73/2 27/79/2
f 27/80/3 30/89/3 32/94/3
f 32/95/4 29/86/4 31/91/4
f 25/75/5 29/87/5 30/88/5
f 28/84/6 32/96/6 31/92/6
f 39/117/1 34/100/1 36/106/1
f 36/107/2 33/97/2 35/103/2
f 35/104/3 38/113/3 40/118/3
f 40/119/4 37/110/4 39/115/4
f 33/99/5 37/111/5 38/112/5
f 36/108/6 40/120/6 39/116/6
f 47/141/1 42/124/1 44/130/1
f 44/131/2 41/121/2 43/127/2
f 43/128/3 46/137/3 48/142/3
f 48/143/4 45/134/4 47/139/4
f 41/123/5 45/135/5 46/136/5
f 44/132/6 48/144/6 47/140/6
f 55/165/1 50/148/1 52/154/1
f 52/155/2 49/145/2 51/151/2
f 51/152/3 54/161/3 56/166/3
f 56/167/4 53/158/4 55/163/4
f 49/147/5 53/159/5 54/160/5
f 52/156/6 56/168/6 55/164/6
f 7/21/1 5/13/1 2/4/1
f 4/11/2 2/5/2 1/1/2
f 3/8/3 1/2/3 6/17/3
f 8/23/4 6/18/4 5/14/4
f 1/3/5 2/6/5 5/15/5
f 4/12/6 3/9/6 8/24/6
f 15/45/1 13/37/1 10/28/1
f 12/35/2 10/29/2 9/25/2
f 11/32/3 9/26/3 14/41/3
f 16/47/4 14/42/4 13/38/4
f 9/27/5 10/30/5 13/39/5
f 12/36/6 11/33/6 16/48/6
f 23/69/1 21/61/1 18/52/1
f 20/59/2 18/53/2 17/49/2
f 19/56/3 17/50/3 22/65/3
f 24/71/4 22/66/4 21/62/4
f 17/51/5 18/54/5 21/63/5
f 20/60/6 19/57/6 24/72/6
f 31/93/1 29/85/1 26/76/1
f 28/83/2 26/77/2 25/73/2
f 27/80/3 25/74/3 30/89/3
f 32/95/4 30/90/4 29/86/4
f 25/75/5 26/78/5 29/87/5
f 28/84/6 27/81/6 32/96/6
f 39/117/1 37/109/1 34/100/1
f 36/107/2 34/101/2 33/97/2
f 35/104/3 33/98/3 38/113/3
f 40/119/4 38/114/4 37/110/4
f 33/99/5 34/102/5 37/111/5
f 36/108/6 35/105/6 40/120/6
f 47/141/1 45/133/1 42/124/1
f 44/131/2 42/125/2 41/121/2
f 43/128/3 41/122/3 46/137/3
f 48/143/4 46/138/4 45/134/4
f 41/123/5 42/126/5 45/135/5
f 44/132/6 43/129/6 48/144/6
f 55/165/1 53/157/1 50/148/1
f 52/155/2 50/149/2 49/145/2
f 51/152/3 49/146/3 54/161/3
f 56/167/4 54/162/4 53/158/4
f 49/147/5 50/150/5 53/159/5
f 52/156/6 51/153/6 56/168/6
