# Blender 3.3.0
# www.blender.org
mtllib lunar_christmas_tophat.mtl
o lunar_christmas_tophat
v 0.281249 -2.000000 -0.281250
v 0.281249 -2.000000 0.281250
v 0.281249 -1.875000 -0.281250
v 0.281249 -1.875000 0.281250
v -0.281251 -2.000000 0.281250
v -0.281251 -2.000000 -0.281250
v -0.281251 -1.875000 0.281250
v -0.281251 -1.875000 -0.281250
v 0.374999 -1.875000 -0.375000
v 0.374999 -1.875000 0.375000
v 0.374999 -1.812500 -0.375000
v 0.374999 -1.812500 0.375000
v -0.375001 -1.875000 0.375000
v -0.375001 -1.875000 -0.375000
v -0.375001 -1.812500 0.375000
v -0.375001 -1.812500 -0.375000
v 0.265624 -2.312500 -0.265625
v 0.265624 -2.312500 0.265625
v 0.265624 -1.875000 -0.265625
v 0.265624 -1.875000 0.265625
v -0.265626 -2.312500 0.265625
v -0.265626 -2.312500 -0.265625
v -0.265626 -1.875000 0.265625
v -0.265626 -1.875000 -0.265625
v 0.254951 -1.978474 0.281250
v 0.254951 -1.978474 0.312500
v 0.244098 -1.916923 0.281250
v 0.244098 -1.916923 0.312500
v 0.193401 -1.989327 0.312500
v 0.193401 -1.989327 0.281250
v 0.182548 -1.927776 0.312500
v 0.182548 -1.927776 0.281250
v 0.214062 -1.937500 0.278125
v 0.214062 -1.937500 0.309375
v 0.214062 -1.875000 0.278125
v 0.214062 -1.875000 0.309375
v 0.151562 -1.937500 0.309375
v 0.151562 -1.937500 0.278125
v 0.151562 -1.875000 0.309375
v 0.151562 -1.875000 0.278125
v 0.165973 -1.989327 0.281250
v 0.165973 -1.989327 0.312500
v 0.176826 -1.927776 0.281250
v 0.176826 -1.927776 0.312500
v 0.104423 -1.978474 0.312500
v 0.104423 -1.978474 0.281250
v 0.115276 -1.916923 0.312500
v 0.115276 -1.916923 0.281250
v 0.295122 -2.098319 0.282812
v 0.262563 -1.913667 0.282812
v 0.110471 -2.130878 0.282812
v 0.077912 -1.946226 0.282812
v 0.173801 -2.069806 0.298437
v 0.221636 -1.954321 0.298437
v 0.058316 -2.021971 0.298437
v 0.106152 -1.906485 0.298437
vn -0.0000 -0.0000 1.0000
vn 1.0000 -0.0000 -0.0000
vn -0.0000 -0.0000 -1.0000
vn -1.0000 -0.0000 -0.0000
vn -0.0000 -1.0000 -0.0000
vn -0.0000 1.0000 -0.0000
vn 0.9848 0.1736 -0.0000
vn -0.9848 -0.1736 -0.0000
vn 0.1736 -0.9848 -0.0000
vn -0.1736 0.9848 -0.0000
vn 0.9848 -0.1736 -0.0000
vn -0.9848 0.1736 -0.0000
vn -0.1736 -0.9848 -0.0000
vn 0.1736 0.9848 -0.0000
vt 0.140625 0.546875
vt 0.609375 1.000000
vt 0.187500 0.718750
vt 0.140625 0.578125
vt 0.281250 0.546875
vt 0.187500 0.578125
vt 0.140625 0.515625
vt 0.609375 0.968750
vt 0.328125 1.000000
vt 0.140625 0.546875
vt 0.281250 0.515625
vt 0.328125 0.859375
vt 0.281250 0.578125
vt 0.468750 0.968750
vt 0.328125 0.578125
vt 0.328125 0.718750
vt 0.468750 1.000000
vt 0.609375 0.968750
vt 0.468750 0.937500
vt 0.468750 0.859375
vt 0.281250 0.546875
vt 0.468750 0.968750
vt 0.609375 0.937500
vt 0.468750 1.000000
vt 0.468750 0.921875
vt 0.656250 0.906250
vt 0.000000 1.000000
vt 0.468750 0.937500
vt 0.656250 0.921875
vt 0.000000 0.812500
vt 0.468750 0.906250
vt 0.656250 0.890625
vt 0.000000 0.812500
vt 0.468750 0.921875
vt 0.656250 0.906250
vt 0.000000 0.625000
vt 0.656250 0.937500
vt 0.468750 0.890625
vt 0.187500 0.812500
vt 0.187500 1.000000
vt 0.468750 0.906250
vt 0.656250 0.890625
vt 0.468750 0.875000
vt 0.187500 0.625000
vt 0.656250 0.921875
vt 0.468750 0.890625
vt 0.656250 0.875000
vt 0.187500 0.812500
vt 0.328125 0.750000
vt 0.468750 0.640625
vt 0.187500 1.000000
vt 0.328125 0.859375
vt 0.468750 0.750000
vt 0.187500 0.859375
vt 0.328125 0.640625
vt 0.468750 0.531250
vt 0.187500 0.859375
vt 0.328125 0.750000
vt 0.468750 0.640625
vt 0.187500 0.718750
vt 0.468750 0.859375
vt 0.000000 0.625000
vt 0.328125 0.859375
vt 0.328125 1.000000
vt 0.328125 0.640625
vt 0.140625 0.625000
vt 0.000000 0.515625
vt 0.328125 0.718750
vt 0.468750 0.750000
vt 0.328125 0.531250
vt 0.140625 0.515625
vt 0.328125 0.859375
vt 0.468750 0.796875
vt 0.484375 0.781250
vt 0.468750 0.750000
vt 0.468750 0.812500
vt 0.484375 0.796875
vt 0.468750 0.734375
vt 0.468750 0.781250
vt 0.484375 0.765625
vt 0.468750 0.734375
vt 0.468750 0.796875
vt 0.484375 0.781250
vt 0.468750 0.718750
vt 0.484375 0.812500
vt 0.468750 0.765625
vt 0.484375 0.734375
vt 0.484375 0.750000
vt 0.468750 0.781250
vt 0.484375 0.765625
vt 0.468750 0.750000
vt 0.484375 0.718750
vt 0.484375 0.796875
vt 0.468750 0.765625
vt 0.484375 0.750000
vt 0.484375 0.734375
vt 0.468750 0.718750
vt 0.312500 0.531250
vt 0.281250 0.531250
vt 0.484375 0.718750
vt 0.312500 0.515625
vt 0.468750 0.703125
vt 0.312500 0.515625
vt 0.468750 0.687500
vt 0.281250 0.515625
vt 0.484375 0.703125
vt 0.468750 0.671875
vt 0.296875 0.531250
vt 0.468750 0.703125
vt 0.328125 0.515625
vt 0.328125 0.531250
vt 0.296875 0.531250
vt 0.484375 0.703125
vt 0.468750 0.687500
vt 0.484375 0.671875
vt 0.296875 0.515625
vt 0.296875 0.515625
vt 0.484375 0.687500
vt 0.468750 0.671875
vt 0.359375 0.531250
vt 0.328125 0.531250
vt 0.484375 0.671875
vt 0.359375 0.515625
vt 0.468750 0.656250
vt 0.359375 0.515625
vt 0.468750 0.640625
vt 0.328125 0.515625
vt 0.484375 0.656250
vt 0.468750 0.625000
vt 0.343750 0.531250
vt 0.468750 0.656250
vt 0.375000 0.515625
vt 0.343750 0.531250
vt 0.375000 0.531250
vt 0.484375 0.656250
vt 0.468750 0.640625
vt 0.484375 0.625000
vt 0.343750 0.515625
vt 0.343750 0.515625
vt 0.484375 0.640625
vt 0.218750 0.515625
vt 0.218750 0.375000
vt 0.359375 0.515625
vt 0.359375 0.375000
vt 0.359375 0.515625
vt 0.359375 0.406250
vt 0.468750 0.515625
vt 0.468750 0.406250
s 0
usemtl lunar_christmas_tophat
f 7/21/1 2/4/1 4/10/1
f 4/11/2 1/1/2 3/7/2
f 3/8/3 6/17/3 8/22/3
f 8/23/4 5/14/4 7/19/4
f 1/3/5 5/15/5 6/16/5
f 4/12/6 8/24/6 7/20/6
f 15/45/1 10/28/1 12/34/1
f 12/35/2 9/25/2 11/31/2
f 11/32/3 14/41/3 16/46/3
f 16/47/4 13/38/4 15/43/4
f 9/27/5 13/39/5 14/40/5
f 12/36/6 16/48/6 15/44/6
f 23/69/1 18/52/1 20/58/1
f 20/59/2 17/49/2 19/55/2
f 19/56/3 22/65/3 24/70/3
f 24/71/4 21/62/4 23/67/4
f 17/51/5 21/63/5 22/64/5
f 20/60/6 24/72/6 23/68/6
f 28/82/1 29/85/1 26/76/1
f 28/83/7 25/73/7 27/79/7
f 27/80/3 30/89/3 32/94/3
f 32/95/8 29/86/8 31/91/8
f 25/75/9 29/87/9 30/88/9
f 28/84/10 32/96/10 31/92/10
f 39/116/1 34/99/1 36/105/1
f 36/106/2 33/97/2 35/102/2
f 35/103/3 38/112/3 40/117/3
f 40/118/4 37/109/4 39/114/4
f 33/98/5 37/110/5 38/111/5
f 36/107/6 40/118/6 39/115/6
f 47/138/1 42/121/1 44/127/1
f 44/128/11 41/119/11 43/124/11
f 48/139/3 41/120/3 46/133/3
f 48/140/12 45/131/12 47/136/12
f 41/120/13 45/132/13 46/134/13
f 44/129/14 48/140/14 47/137/14
f 52/144/1 49/141/1 50/142/1
f 56/148/1 53/145/1 54/146/1
f 7/21/1 5/13/1 2/4/1
f 4/11/2 2/5/2 1/1/2
f 3/8/3 1/2/3 6/17/3
f 8/23/4 6/18/4 5/14/4
f 1/3/5 2/6/5 5/15/5
f 4/12/6 3/9/6 8/24/6
f 15/45/1 13/37/1 10/28/1
f 12/35/2 10/29/2 9/25/2
f 11/32/3 9/26/3 14/41/3
f 16/47/4 14/42/4 13/38/4
f 9/27/5 10/30/5 13/39/5
f 12/36/6 11/33/6 16/48/6
f 23/69/1 21/61/1 18/52/1
f 20/59/2 18/53/2 17/49/2
f 19/56/3 17/50/3 22/65/3
f 24/71/4 22/66/4 21/62/4
f 17/51/5 18/54/5 21/63/5
f 20/60/6 19/57/6 24/72/6
f 28/82/1 31/93/1 29/85/1
f 28/83/7 26/77/7 25/73/7
f 27/80/3 25/74/3 30/89/3
f 32/95/8 30/90/8 29/86/8
f 25/75/9 26/78/9 29/87/9
f 28/84/10 27/81/10 32/96/10
f 39/116/1 37/108/1 34/99/1
f 36/106/2 34/100/2 33/97/2
f 35/103/3 33/98/3 38/112/3
f 40/118/4 38/113/4 37/109/4
f 33/98/5 34/101/5 37/110/5
f 36/107/6 35/104/6 40/118/6
f 47/138/1 45/130/1 42/121/1
f 44/128/11 42/122/11 41/119/11
f 48/139/3 43/125/3 41/120/3
f 48/140/12 46/135/12 45/131/12
f 41/120/13 42/123/13 45/132/13
f 44/129/14 43/126/14 48/140/14
f 52/144/1 51/143/1 49/141/1
f 56/148/1 55/147/1 53/145/1
