# Blender 3.4.1
# www.blender.org
mtllib lunar_kitsune_mask.mtl
o lunar_kitsune_mask
v 0.093749 -1.640625 0.250000
v 0.093749 -1.640625 0.406250
v 0.093749 -1.484375 0.250000
v 0.093749 -1.484375 0.406250
v -0.093751 -1.640625 0.406250
v -0.093751 -1.640625 0.250000
v -0.093751 -1.484375 0.406250
v -0.093751 -1.484375 0.250000
v -0.250001 -1.703125 0.250000
v -0.250001 -1.703125 0.281250
v -0.250001 -1.515625 0.250000
v -0.250001 -1.515625 0.281250
v -0.281251 -1.703125 0.281250
v -0.281251 -1.703125 0.250000
v -0.281251 -1.515625 0.281250
v -0.281251 -1.515625 0.250000
v -0.234376 -1.546875 0.234375
v -0.234376 -1.546875 0.296875
v -0.234375 -1.421875 0.234375
v -0.234376 -1.421875 0.296875
v -0.296876 -1.546875 0.296875
v -0.296876 -1.546875 0.234375
v -0.296876 -1.421875 0.296875
v -0.296876 -1.421875 0.234375
v -0.226563 -1.742187 0.226562
v -0.226563 -1.742187 0.304687
v -0.226563 -1.664062 0.226562
v -0.226563 -1.664062 0.304687
v -0.304688 -1.742187 0.304687
v -0.304688 -1.742187 0.226562
v -0.304688 -1.664062 0.304687
v -0.304688 -1.664062 0.226562
v -0.228462 -1.827034 0.250000
v -0.228462 -1.827034 0.281250
v -0.252379 -1.769291 0.250000
v -0.252379 -1.769291 0.281250
v -0.257333 -1.838992 0.281250
v -0.257333 -1.838992 0.250000
v -0.281251 -1.781250 0.281250
v -0.281251 -1.781250 0.250000
v -0.250001 -1.781250 0.250000
v -0.250001 -1.781250 0.281250
v -0.250001 -1.718750 0.250000
v -0.250001 -1.718750 0.281250
v -0.281251 -1.781250 0.281250
v -0.281251 -1.781250 0.250000
v -0.281251 -1.718750 0.281250
v -0.281251 -1.718750 0.250000
v 0.304687 -1.742188 0.226562
v 0.304687 -1.742188 0.304687
v 0.304687 -1.664063 0.226562
v 0.304687 -1.664063 0.304687
v 0.226562 -1.742188 0.304687
v 0.226562 -1.742188 0.226562
v 0.226562 -1.664063 0.304687
v 0.226562 -1.664063 0.226562
v 0.281249 -1.703125 0.250000
v 0.281249 -1.703125 0.281250
v 0.281249 -1.515625 0.250000
v 0.281249 -1.515625 0.281250
v 0.249999 -1.703125 0.281250
v 0.249999 -1.703125 0.250000
v 0.249999 -1.515625 0.281250
v 0.249999 -1.515625 0.250000
v 0.296874 -1.546875 0.234375
v 0.296874 -1.546875 0.296875
v 0.296874 -1.421875 0.234375
v 0.296874 -1.421875 0.296875
v 0.234374 -1.546875 0.296875
v 0.234374 -1.546875 0.234375
v 0.234374 -1.421875 0.296875
v 0.234375 -1.421875 0.234375
v 0.257332 -1.838993 0.250000
v 0.257332 -1.838993 0.281250
v 0.281249 -1.781250 0.250000
v 0.281249 -1.781250 0.281250
v 0.228460 -1.827034 0.281250
v 0.228460 -1.827034 0.250000
v 0.252378 -1.769291 0.281250
v 0.252378 -1.769291 0.250000
v 0.281249 -1.781250 0.250000
v 0.281249 -1.781250 0.281250
v 0.281249 -1.718750 0.250000
v 0.281249 -1.718750 0.281250
v 0.249999 -1.781250 0.281250
v 0.249999 -1.781250 0.250000
v 0.249999 -1.718750 0.281250
v 0.249999 -1.718750 0.250000
v -0.125001 -2.109375 0.250000
v -0.125001 -2.109375 0.281250
v -0.125001 -2.046875 0.250000
v -0.125001 -2.046875 0.281250
v -0.250001 -2.109375 0.281250
v -0.250001 -2.109375 0.250000
v -0.250001 -2.046875 0.281250
v -0.250001 -2.046875 0.250000
v -0.062501 -2.046875 0.250000
v -0.062501 -2.046875 0.281250
v -0.062501 -1.953125 0.250000
v -0.062501 -1.953125 0.281250
v -0.250001 -2.046875 0.281250
v -0.250001 -2.046875 0.250000
v -0.250001 -1.953125 0.281250
v -0.250001 -1.953125 0.250000
v 0.249999 -2.109375 0.250000
v 0.249999 -2.109375 0.281250
v 0.249999 -2.046875 0.250000
v 0.249999 -2.046875 0.281250
v 0.124999 -2.109375 0.281250
v 0.124999 -2.109375 0.250000
v 0.124999 -2.046875 0.281250
v 0.124999 -2.046875 0.250000
v 0.249999 -2.046875 0.250000
v 0.249999 -2.046875 0.281250
v 0.249999 -1.953125 0.250000
v 0.249999 -1.953125 0.281250
v 0.062499 -2.046875 0.281250
v 0.062499 -2.046875 0.250000
v 0.062499 -1.953125 0.281250
v 0.062499 -1.953125 0.250000
v 0.249999 -1.953125 0.250000
v 0.249999 -1.953125 0.312500
v 0.249999 -1.515625 0.250000
v 0.249999 -1.515625 0.312500
v -0.250001 -1.953125 0.312500
v -0.250001 -1.953125 0.250000
v -0.250001 -1.515625 0.312500
v -0.250001 -1.515625 0.250000
vn -0.0000 -0.0000 1.0000
vn 1.0000 -0.0000 -0.0000
vn -0.0000 -0.0000 -1.0000
vn -1.0000 -0.0000 -0.0000
vn -0.0000 -1.0000 -0.0000
vn -0.0000 1.0000 -0.0000
vn 0.9239 0.3827 -0.0000
vn -0.9239 -0.3827 -0.0000
vn 0.3827 -0.9239 -0.0000
vn -0.3827 0.9239 -0.0000
vn 0.9239 -0.3827 -0.0000
vn -0.9239 0.3827 -0.0000
vn -0.3827 -0.9239 -0.0000
vn 0.3827 0.9239 -0.0000
vt 0.375000 0.843750
vt 0.343750 0.843750
vt 0.250000 0.750000
vt 0.250000 0.937500
vt 0.453125 0.843750
vt 0.250000 0.671875
vt 0.375000 0.765625
vt 0.343750 0.765625
vt 0.343750 0.937500
vt 0.250000 0.859375
vt 0.453125 0.765625
vt 0.343750 0.859375
vt 0.343750 0.937500
vt 0.375000 0.750000
vt 0.343750 0.671875
vt 0.343750 0.750000
vt 0.250000 0.843750
vt 0.453125 0.750000
vt 0.375000 0.671875
vt 0.437500 0.859375
vt 0.343750 0.859375
vt 0.250000 0.765625
vt 0.453125 0.671875
vt 0.437500 0.937500
vt 0.312500 0.500000
vt 0.015625 0.468750
vt 0.562500 0.468750
vt 0.281250 0.500000
vt 0.328125 0.500000
vt 0.562500 0.453125
vt 0.312500 0.406250
vt 0.015625 0.375000
vt 0.562500 0.437500
vt 0.281250 0.406250
vt 0.328125 0.406250
vt 0.562500 0.421875
vt 0.296875 0.500000
vt 0.031250 0.468750
vt 0.578125 0.453125
vt 0.578125 0.468750
vt 0.000000 0.468750
vt 0.046875 0.468750
vt 0.031250 0.375000
vt 0.578125 0.421875
vt 0.296875 0.406250
vt 0.000000 0.375000
vt 0.046875 0.375000
vt 0.578125 0.437500
vt 0.062500 0.500000
vt 0.531250 0.937500
vt 0.437500 0.875000
vt 0.218750 0.562500
vt 0.093750 0.500000
vt 0.437500 0.843750
vt 0.062500 0.437500
vt 0.531250 0.875000
vt 0.343750 0.562500
vt 0.218750 0.500000
vt 0.093750 0.437500
vt 0.343750 0.531250
vt 0.250000 0.562500
vt 0.093750 0.500000
vt 0.468750 0.843750
vt 0.468750 0.875000
vt 0.500000 0.937500
vt 0.125000 0.500000
vt 0.093750 0.437500
vt 0.375000 0.531250
vt 0.250000 0.500000
vt 0.500000 0.875000
vt 0.125000 0.437500
vt 0.375000 0.562500
vt 0.093750 0.562500
vt 0.203125 0.562500
vt 0.468750 0.875000
vt 0.437500 0.937500
vt 0.140625 0.562500
vt 0.468750 0.828125
vt 0.093750 0.515625
vt 0.203125 0.515625
vt 0.468750 0.812500
vt 0.437500 0.890625
vt 0.140625 0.515625
vt 0.468750 0.765625
vt 0.484375 0.937500
vt 0.281250 0.562500
vt 0.515625 0.828125
vt 0.515625 0.875000
vt 0.156250 0.562500
vt 0.328125 0.562500
vt 0.281250 0.515625
vt 0.515625 0.765625
vt 0.484375 0.890625
vt 0.156250 0.515625
vt 0.328125 0.515625
vt 0.515625 0.812500
vt 0.562500 0.781250
vt 0.265625 0.437500
vt 0.156250 0.406250
vt 0.218750 0.437500
vt 0.578125 0.781250
vt 0.156250 0.390625
vt 0.562500 0.750000
vt 0.265625 0.406250
vt 0.593750 0.843750
vt 0.218750 0.406250
vt 0.578125 0.750000
vt 0.593750 0.828125
vt 0.234375 0.437500
vt 0.562500 0.750000
vt 0.171875 0.390625
vt 0.171875 0.406250
vt 0.250000 0.437500
vt 0.578125 0.750000
vt 0.562500 0.718750
vt 0.609375 0.828125
vt 0.234375 0.406250
vt 0.250000 0.406250
vt 0.578125 0.718750
vt 0.609375 0.843750
vt 0.500000 0.437500
vt 0.578125 0.500000
vt 0.250000 0.406250
vt 0.468750 0.437500
vt 0.515625 0.437500
vt 0.250000 0.390625
vt 0.500000 0.406250
vt 0.578125 0.468750
vt 0.593750 0.750000
vt 0.468750 0.406250
vt 0.515625 0.406250
vt 0.593750 0.734375
vt 0.484375 0.437500
vt 0.531250 0.437500
vt 0.265625 0.390625
vt 0.265625 0.406250
vt 0.562500 0.500000
vt 0.546875 0.437500
vt 0.531250 0.406250
vt 0.609375 0.734375
vt 0.484375 0.406250
vt 0.562500 0.468750
vt 0.546875 0.406250
vt 0.609375 0.750000
vt 0.468750 0.687500
vt 0.390625 0.531250
vt 0.406250 0.531250
vt 0.468750 0.750000
vt 0.515625 0.687500
vt 0.406250 0.484375
vt 0.468750 0.640625
vt 0.390625 0.484375
vt 0.468750 0.562500
vt 0.468750 0.703125
vt 0.515625 0.640625
vt 0.468750 0.515625
vt 0.515625 0.750000
vt 0.468750 0.625000
vt 0.453125 0.484375
vt 0.453125 0.531250
vt 0.343750 0.531250
vt 0.515625 0.625000
vt 0.468750 0.578125
vt 0.515625 0.515625
vt 0.515625 0.703125
vt 0.343750 0.484375
vt 0.515625 0.578125
vt 0.515625 0.562500
vt 0.531250 0.750000
vt 0.359375 0.468750
vt 0.593750 1.000000
vt 0.531250 0.843750
vt 0.546875 0.750000
vt 0.593750 0.984375
vt 0.531250 0.656250
vt 0.359375 0.375000
vt 0.593750 0.968750
vt 0.531250 0.750000
vt 0.546875 0.656250
vt 0.593750 0.953125
vt 0.546875 0.843750
vt 0.531250 0.656250
vt 0.609375 0.984375
vt 0.609375 1.000000
vt 0.343750 0.468750
vt 0.546875 0.656250
vt 0.531250 0.562500
vt 0.609375 0.953125
vt 0.546875 0.750000
vt 0.343750 0.375000
vt 0.546875 0.562500
vt 0.609375 0.968750
vt 0.156250 0.500000
vt 0.218750 0.500000
vt 0.500000 0.468750
vt 0.125000 0.500000
vt 0.187500 0.500000
vt 0.500000 0.437500
vt 0.156250 0.437500
vt 0.218750 0.437500
vt 0.531250 0.468750
vt 0.125000 0.437500
vt 0.187500 0.437500
vt 0.531250 0.437500
vt 0.156250 0.500000
vt 0.218750 0.500000
vt 0.531250 0.437500
vt 0.531250 0.468750
vt 0.187500 0.500000
vt 0.250000 0.500000
vt 0.218750 0.437500
vt 0.562500 0.437500
vt 0.156250 0.437500
vt 0.187500 0.437500
vt 0.250000 0.437500
vt 0.562500 0.468750
vt 0.562500 0.687500
vt 0.578125 0.656250
vt 0.187500 0.406250
vt 0.562500 0.718750
vt 0.578125 0.687500
vt 0.187500 0.390625
vt 0.562500 0.656250
vt 0.578125 0.625000
vt 0.593750 0.812500
vt 0.562500 0.687500
vt 0.578125 0.656250
vt 0.593750 0.796875
vt 0.578125 0.718750
vt 0.375000 0.437500
vt 0.203125 0.390625
vt 0.562500 0.656250
vt 0.203125 0.406250
vt 0.390625 0.437500
vt 0.375000 0.406250
vt 0.609375 0.796875
vt 0.578125 0.687500
vt 0.562500 0.625000
vt 0.390625 0.406250
vt 0.609375 0.812500
vt 0.406250 0.437500
vt 0.578125 0.593750
vt 0.218750 0.406250
vt 0.562500 0.625000
vt 0.421875 0.437500
vt 0.218750 0.390625
vt 0.406250 0.406250
vt 0.578125 0.562500
vt 0.593750 0.781250
vt 0.562500 0.593750
vt 0.421875 0.406250
vt 0.593750 0.765625
vt 0.578125 0.625000
vt 0.437500 0.437500
vt 0.234375 0.390625
vt 0.234375 0.406250
vt 0.562500 0.593750
vt 0.453125 0.437500
vt 0.437500 0.406250
vt 0.609375 0.765625
vt 0.578125 0.593750
vt 0.562500 0.562500
vt 0.453125 0.406250
vt 0.609375 0.781250
vt 0.156250 0.437500
vt 0.062500 0.500000
vt 0.375000 0.468750
vt 0.281250 0.656250
vt 0.171875 0.437500
vt 0.375000 0.453125
vt 0.156250 0.406250
vt 0.062500 0.468750
vt 0.437500 0.468750
vt 0.281250 0.625000
vt 0.171875 0.406250
vt 0.437500 0.453125
vt 0.343750 0.656250
vt 0.562500 0.843750
vt 0.437500 0.453125
vt 0.437500 0.468750
vt 0.000000 0.500000
vt 0.578125 0.843750
vt 0.562500 0.812500
vt 0.500000 0.453125
vt 0.343750 0.625000
vt 0.000000 0.468750
vt 0.578125 0.812500
vt 0.500000 0.468750
vt 0.562500 1.000000
vt 0.468750 0.656250
vt 0.468750 0.500000
vt 0.281250 0.625000
vt 0.578125 1.000000
vt 0.468750 0.484375
vt 0.562500 0.953125
vt 0.468750 0.609375
vt 0.531250 0.937500
vt 0.281250 0.578125
vt 0.578125 0.953125
vt 0.531250 0.921875
vt 0.375000 0.625000
vt 0.062500 0.437500
vt 0.562500 0.484375
vt 0.562500 0.500000
vt 0.375000 0.656250
vt 0.078125 0.437500
vt 0.062500 0.390625
vt 0.625000 0.921875
vt 0.375000 0.578125
vt 0.375000 0.609375
vt 0.078125 0.390625
vt 0.625000 0.937500
vt 0.187500 0.437500
vt 0.562500 0.968750
vt 0.531250 0.562500
vt 0.500000 1.000000
vt 0.203125 0.437500
vt 0.531250 0.546875
vt 0.187500 0.406250
vt 0.562500 0.937500
vt 0.531250 0.531250
vt 0.500000 0.968750
vt 0.203125 0.406250
vt 0.531250 0.515625
vt 0.562500 1.000000
vt 0.562500 0.812500
vt 0.593750 0.546875
vt 0.593750 0.562500
vt 0.500000 0.968750
vt 0.578125 0.812500
vt 0.562500 0.781250
vt 0.593750 0.515625
vt 0.562500 0.968750
vt 0.500000 0.937500
vt 0.578125 0.781250
vt 0.593750 0.531250
vt 0.093750 0.437500
vt 0.093750 0.562500
vt 0.531250 0.906250
vt 0.375000 0.593750
vt 0.109375 0.437500
vt 0.531250 0.890625
vt 0.093750 0.390625
vt 0.093750 0.515625
vt 0.531250 0.875000
vt 0.375000 0.546875
vt 0.109375 0.390625
vt 0.531250 0.859375
vt 0.468750 0.593750
vt 0.125000 0.437500
vt 0.625000 0.890625
vt 0.625000 0.906250
vt 0.000000 0.562500
vt 0.140625 0.437500
vt 0.125000 0.390625
vt 0.625000 0.859375
vt 0.468750 0.546875
vt 0.000000 0.515625
vt 0.140625 0.390625
vt 0.625000 0.875000
vt 0.343750 0.843750
vt 0.250000 0.781250
vt 0.250000 1.000000
vt 0.000000 1.000000
vt 0.375000 0.843750
vt 0.250000 0.968750
vt 0.343750 0.625000
vt 0.250000 0.562500
vt 0.250000 0.968750
vt 0.000000 0.781250
vt 0.375000 0.625000
vt 0.250000 0.937500
vt 0.250000 1.000000
vt 0.250000 0.656250
vt 0.500000 0.968750
vt 0.500000 1.000000
vt 0.000000 0.781250
vt 0.281250 0.656250
vt 0.250000 0.437500
vt 0.500000 0.937500
vt 0.250000 0.781250
vt 0.000000 0.562500
vt 0.281250 0.437500
vt 0.500000 0.968750
s 0
usemtl lunar_kitsune_mask
f 7/21/1 2/4/1 4/10/1
f 4/11/2 1/1/2 3/7/2
f 3/8/3 6/17/3 8/22/3
f 8/23/4 5/14/4 7/19/4
f 1/3/5 5/15/5 6/16/5
f 4/12/6 8/24/6 7/20/6
f 15/45/1 10/28/1 12/34/1
f 12/35/2 9/25/2 11/31/2
f 11/32/3 14/41/3 16/46/3
f 16/47/4 13/38/4 15/43/4
f 9/27/5 13/39/5 14/40/5
f 12/36/6 16/48/6 15/44/6
f 23/69/1 18/52/1 20/58/1
f 20/59/2 17/49/2 19/55/2
f 19/56/3 22/65/3 24/70/3
f 24/71/4 21/62/4 23/67/4
f 17/51/5 21/63/5 22/64/5
f 20/60/6 24/72/6 23/68/6
f 31/93/1 26/76/1 28/82/1
f 28/83/2 25/73/2 27/79/2
f 27/80/3 30/89/3 32/94/3
f 32/95/4 29/86/4 31/91/4
f 25/75/5 29/87/5 30/88/5
f 28/84/6 32/96/6 31/92/6
f 36/106/1 37/109/1 34/100/1
f 36/107/7 33/97/7 35/103/7
f 35/104/3 38/113/3 40/118/3
f 40/119/8 37/110/8 39/115/8
f 33/99/9 37/111/9 38/112/9
f 36/108/10 40/120/10 39/116/10
f 47/141/1 42/124/1 44/130/1
f 44/131/2 41/121/2 43/127/2
f 43/128/3 46/137/3 48/142/3
f 48/143/4 45/134/4 47/139/4
f 41/123/5 45/135/5 46/136/5
f 44/132/6 48/144/6 47/140/6
f 55/165/1 50/148/1 52/154/1
f 52/155/2 49/145/2 51/151/2
f 51/152/3 54/161/3 56/166/3
f 56/167/4 53/158/4 55/163/4
f 49/147/5 53/159/5 54/160/5
f 52/156/6 56/168/6 55/164/6
f 63/189/1 58/172/1 60/178/1
f 60/179/2 57/169/2 59/175/2
f 59/176/3 62/185/3 64/190/3
f 64/191/4 61/182/4 63/187/4
f 57/171/5 61/183/5 62/184/5
f 60/180/6 64/192/6 63/188/6
f 71/213/1 66/196/1 68/202/1
f 68/203/2 65/193/2 67/199/2
f 67/200/3 70/209/3 72/214/3
f 72/215/4 69/206/4 71/211/4
f 65/195/5 69/207/5 70/208/5
f 68/204/6 72/216/6 71/212/6
f 79/237/1 74/220/1 76/226/1
f 76/227/11 73/217/11 75/223/11
f 80/238/3 73/218/3 78/232/3
f 80/239/12 77/230/12 79/235/12
f 73/219/13 77/231/13 78/233/13
f 76/228/14 80/240/14 79/236/14
f 87/261/1 82/244/1 84/250/1
f 84/251/2 81/241/2 83/247/2
f 83/248/3 86/257/3 88/262/3
f 88/263/4 85/254/4 87/259/4
f 81/243/5 85/255/5 86/256/5
f 84/252/6 88/264/6 87/260/6
f 95/285/1 90/268/1 92/274/1
f 92/275/2 89/265/2 91/271/2
f 91/272/3 94/281/3 96/286/3
f 96/287/4 93/278/4 95/283/4
f 89/267/5 93/279/5 94/280/5
f 92/276/6 96/288/6 95/284/6
f 103/309/1 98/292/1 100/298/1
f 100/299/2 97/289/2 99/295/2
f 99/296/3 102/305/3 104/310/3
f 104/311/4 101/302/4 103/307/4
f 97/291/5 101/303/5 102/304/5
f 100/300/6 104/312/6 103/308/6
f 111/333/1 106/316/1 108/322/1
f 108/323/2 105/313/2 107/319/2
f 107/320/3 110/329/3 112/334/3
f 112/335/4 109/326/4 111/331/4
f 105/315/5 109/327/5 110/328/5
f 108/324/6 112/336/6 111/332/6
f 119/357/1 114/340/1 116/346/1
f 116/347/2 113/337/2 115/343/2
f 115/344/3 118/353/3 120/358/3
f 120/359/4 117/350/4 119/355/4
f 113/339/5 117/351/5 118/352/5
f 116/348/6 120/360/6 119/356/6
f 127/381/1 122/364/1 124/370/1
f 124/371/2 121/361/2 123/367/2
f 123/368/3 126/377/3 128/382/3
f 128/383/4 125/374/4 127/379/4
f 121/363/5 125/375/5 126/376/5
f 124/372/6 128/384/6 127/380/6
f 7/21/1 5/13/1 2/4/1
f 4/11/2 2/5/2 1/1/2
f 3/8/3 1/2/3 6/17/3
f 8/23/4 6/18/4 5/14/4
f 1/3/5 2/6/5 5/15/5
f 4/12/6 3/9/6 8/24/6
f 15/45/1 13/37/1 10/28/1
f 12/35/2 10/29/2 9/25/2
f 11/32/3 9/26/3 14/41/3
f 16/47/4 14/42/4 13/38/4
f 9/27/5 10/30/5 13/39/5
f 12/36/6 11/33/6 16/48/6
f 23/69/1 21/61/1 18/52/1
f 20/59/2 18/53/2 17/49/2
f 19/56/3 17/50/3 22/65/3
f 24/71/4 22/66/4 21/62/4
f 17/51/5 18/54/5 21/63/5
f 20/60/6 19/57/6 24/72/6
f 31/93/1 29/85/1 26/76/1
f 28/83/2 26/77/2 25/73/2
f 27/80/3 25/74/3 30/89/3
f 32/95/4 30/90/4 29/86/4
f 25/75/5 26/78/5 29/87/5
f 28/84/6 27/81/6 32/96/6
f 36/106/1 39/117/1 37/109/1
f 36/107/7 34/101/7 33/97/7
f 35/104/3 33/98/3 38/113/3
f 40/119/8 38/114/8 37/110/8
f 33/99/9 34/102/9 37/111/9
f 36/108/10 35/105/10 40/120/10
f 47/141/1 45/133/1 42/124/1
f 44/131/2 42/125/2 41/121/2
f 43/128/3 41/122/3 46/137/3
f 48/143/4 46/138/4 45/134/4
f 41/123/5 42/126/5 45/135/5
f 44/132/6 43/129/6 48/144/6
f 55/165/1 53/157/1 50/148/1
f 52/155/2 50/149/2 49/145/2
f 51/152/3 49/146/3 54/161/3
f 56/167/4 54/162/4 53/158/4
f 49/147/5 50/150/5 53/159/5
f 52/156/6 51/153/6 56/168/6
f 63/189/1 61/181/1 58/172/1
f 60/179/2 58/173/2 57/169/2
f 59/176/3 57/170/3 62/185/3
f 64/191/4 62/186/4 61/182/4
f 57/171/5 58/174/5 61/183/5
f 60/180/6 59/177/6 64/192/6
f 71/213/1 69/205/1 66/196/1
f 68/203/2 66/197/2 65/193/2
f 67/200/3 65/194/3 70/209/3
f 72/215/4 70/210/4 69/206/4
f 65/195/5 66/198/5 69/207/5
f 68/204/6 67/201/6 72/216/6
f 79/237/1 77/229/1 74/220/1
f 76/227/11 74/221/11 73/217/11
f 80/238/3 75/224/3 73/218/3
f 80/239/12 78/234/12 77/230/12
f 73/219/13 74/222/13 77/231/13
f 76/228/14 75/225/14 80/240/14
f 87/261/1 85/253/1 82/244/1
f 84/251/2 82/245/2 81/241/2
f 83/248/3 81/242/3 86/257/3
f 88/263/4 86/258/4 85/254/4
f 81/243/5 82/246/5 85/255/5
f 84/252/6 83/249/6 88/264/6
f 95/285/1 93/277/1 90/268/1
f 92/275/2 90/269/2 89/265/2
f 91/272/3 89/266/3 94/281/3
f 96/287/4 94/282/4 93/278/4
f 89/267/5 90/270/5 93/279/5
f 92/276/6 91/273/6 96/288/6
f 103/309/1 101/301/1 98/292/1
f 100/299/2 98/293/2 97/289/2
f 99/296/3 97/290/3 102/305/3
f 104/311/4 102/306/4 101/302/4
f 97/291/5 98/294/5 101/303/5
f 100/300/6 99/297/6 104/312/6
f 111/333/1 109/325/1 106/316/1
f 108/323/2 106/317/2 105/313/2
f 107/320/3 105/314/3 110/329/3
f 112/335/4 110/330/4 109/326/4
f 105/315/5 106/318/5 109/327/5
f 108/324/6 107/321/6 112/336/6
f 119/357/1 117/349/1 114/340/1
f 116/347/2 114/341/2 113/337/2
f 115/344/3 113/338/3 118/353/3
f 120/359/4 118/354/4 117/350/4
f 113/339/5 114/342/5 117/351/5
f 116/348/6 115/345/6 120/360/6
f 127/381/1 125/373/1 122/364/1
f 124/371/2 122/365/2 121/361/2
f 123/368/3 121/362/3 126/377/3
f 128/383/4 126/378/4 125/374/4
f 121/363/5 122/366/5 125/375/5
f 124/372/6 123/369/6 128/384/6
