# Blender v2.83.5 OBJ File: ''
# www.blender.org
mtllib sniff_joined.mtl
o cube
v 0.687500 -0.187500 0.687500
v 0.687500 -0.500000 0.687500
v 0.687500 -0.187500 -0.687500
v 0.687500 -0.500000 -0.687500
v -0.687500 -0.187500 -0.687500
v -0.687500 -0.500000 -0.687500
v -0.687500 -0.187500 0.687500
v -0.687500 -0.500000 0.687500
v 0.562500 -0.062500 0.562500
v 0.562500 -0.187500 0.562500
v 0.562500 -0.062500 -0.562500
v 0.562500 -0.187500 -0.562500
v -0.562500 -0.062500 -0.562500
v -0.562500 -0.187500 -0.562500
v -0.562500 -0.062500 0.562500
v -0.562500 -0.187500 0.562500
v 0.437500 0.250000 0.437500
v 0.437500 -0.062500 0.437500
v 0.437500 0.250000 -0.437500
v 0.437500 -0.062500 -0.437500
v -0.437500 0.250000 -0.437500
v -0.437500 -0.062500 -0.437500
v -0.437500 0.250000 0.437500
v -0.437500 -0.062500 0.437500
v 0.312500 0.375000 0.312500
v 0.312500 0.250000 0.312500
v 0.312500 0.375000 -0.312500
v 0.312500 0.250000 -0.312500
v -0.312500 0.375000 -0.312500
v -0.312500 0.250000 -0.312500
v -0.312500 0.375000 0.312500
v -0.312500 0.250000 0.312500
vt 0.000122 0.828003
vt 0.000122 0.789185
vt 0.171753 0.828003
vt 0.171753 0.789185
vt 0.343872 0.828003
vt 0.343872 0.789185
vt 0.515503 0.828003
vt 0.515503 0.789185
vt 0.343628 0.828247
vt 0.343628 0.999878
vt 0.171997 0.828247
vt 0.171997 0.999878
vt 0.515503 0.999878
vt 0.515503 0.828247
vt 0.343872 0.999878
vt 0.343872 0.828247
vt 0.515747 0.828003
vt 0.515747 0.789185
vt 0.687378 0.828003
vt 0.687378 0.789185
vt 0.171997 0.828003
vt 0.171997 0.789185
vt 0.343628 0.828003
vt 0.343628 0.789185
vt 0.000122 0.648315
vt 0.000122 0.632935
vt 0.140503 0.648315
vt 0.140503 0.632935
vt 0.281372 0.648315
vt 0.281372 0.632935
vt 0.421753 0.648315
vt 0.421753 0.632935
vt 0.281128 0.648560
vt 0.281128 0.788940
vt 0.140747 0.648560
vt 0.140747 0.788940
vt 0.421753 0.788940
vt 0.421753 0.648560
vt 0.281372 0.788940
vt 0.281372 0.648560
vt 0.421997 0.648315
vt 0.421997 0.632935
vt 0.562378 0.648315
vt 0.562378 0.632935
vt 0.140747 0.648315
vt 0.140747 0.632935
vt 0.281128 0.648315
vt 0.281128 0.632935
vt 0.000122 0.523315
vt 0.000122 0.484497
vt 0.109253 0.523315
vt 0.109253 0.484497
vt 0.218872 0.523315
vt 0.218872 0.484497
vt 0.328003 0.523315
vt 0.328003 0.484497
vt 0.218628 0.523560
vt 0.218628 0.632690
vt 0.109497 0.523560
vt 0.109497 0.632690
vt 0.328003 0.632690
vt 0.328003 0.523560
vt 0.218872 0.632690
vt 0.218872 0.523560
vt 0.328247 0.523315
vt 0.328247 0.484497
vt 0.437378 0.523315
vt 0.437378 0.484497
vt 0.109497 0.523315
vt 0.109497 0.484497
vt 0.218628 0.523315
vt 0.218628 0.484497
vt 0.328247 0.554565
vt 0.328247 0.539185
vt 0.406128 0.554565
vt 0.406128 0.539185
vt 0.484497 0.554565
vt 0.484497 0.539185
vt 0.562378 0.554565
vt 0.562378 0.539185
vt 0.484253 0.554810
vt 0.484253 0.632690
vt 0.406372 0.554810
vt 0.406372 0.632690
vt 0.562378 0.632690
vt 0.562378 0.554810
vt 0.484497 0.632690
vt 0.484497 0.554810
vt 0.562622 0.554565
vt 0.562622 0.539185
vt 0.640503 0.554565
vt 0.640503 0.539185
vt 0.406372 0.554565
vt 0.406372 0.539185
vt 0.484253 0.554565
vt 0.484253 0.539185
vn 1.0000 0.0000 0.0000
vn -1.0000 0.0000 0.0000
vn 0.0000 1.0000 0.0000
vn 0.0000 -1.0000 -0.0000
vn 0.0000 0.0000 1.0000
vn 0.0000 0.0000 -1.0000
usemtl m_0
s 1
f 1/1/1 2/2/1 3/3/1
f 2/2/1 4/4/1 3/3/1
f 5/5/2 6/6/2 7/7/2
f 6/6/2 8/8/2 7/7/2
f 5/9/3 7/10/3 3/11/3
f 7/10/3 1/12/3 3/11/3
f 8/13/4 6/14/4 2/15/4
f 6/14/4 4/16/4 2/15/4
f 7/17/5 8/18/5 1/19/5
f 8/18/5 2/20/5 1/19/5
f 3/21/6 4/22/6 5/23/6
f 4/22/6 6/24/6 5/23/6
f 9/25/1 10/26/1 11/27/1
f 10/26/1 12/28/1 11/27/1
f 13/29/2 14/30/2 15/31/2
f 14/30/2 16/32/2 15/31/2
f 13/33/3 15/34/3 11/35/3
f 15/34/3 9/36/3 11/35/3
f 16/37/4 14/38/4 10/39/4
f 14/38/4 12/40/4 10/39/4
f 15/41/5 16/42/5 9/43/5
f 16/42/5 10/44/5 9/43/5
f 11/45/6 12/46/6 13/47/6
f 12/46/6 14/48/6 13/47/6
f 17/49/1 18/50/1 19/51/1
f 18/50/1 20/52/1 19/51/1
f 21/53/2 22/54/2 23/55/2
f 22/54/2 24/56/2 23/55/2
f 21/57/3 23/58/3 19/59/3
f 23/58/3 17/60/3 19/59/3
f 24/61/4 22/62/4 18/63/4
f 22/62/4 20/64/4 18/63/4
f 23/65/5 24/66/5 17/67/5
f 24/66/5 18/68/5 17/67/5
f 19/69/6 20/70/6 21/71/6
f 20/70/6 22/72/6 21/71/6
f 25/73/1 26/74/1 27/75/1
f 26/74/1 28/76/1 27/75/1
f 29/77/2 30/78/2 31/79/2
f 30/78/2 32/80/2 31/79/2
f 29/81/3 31/82/3 27/83/3
f 31/82/3 25/84/3 27/83/3
f 32/85/4 30/86/4 26/87/4
f 30/86/4 28/88/4 26/87/4
f 31/89/5 32/90/5 25/91/5
f 32/90/5 26/92/5 25/91/5
f 27/93/6 28/94/6 29/95/6
f 28/94/6 30/96/6 29/95/6
