# Blender v3.2.0 OBJ File: 'lunar_skull_belt.blend'
# www.blender.org
mtllib lunar_skull_belt.mtl
o lunar_skull_belt_belt
v -0.265625 -0.781250 -0.140625
v 0.265625 -0.781250 -0.140625
v 0.265625 -0.843750 -0.140625
v -0.265625 -0.843750 -0.140625
v -0.265625 -0.781250 0.140625
v -0.265625 -0.843750 0.140625
v 0.265625 -0.781250 0.140625
v 0.265625 -0.843750 0.140625
v -0.007813 -0.750000 0.140625
v 0.007812 -0.750000 0.140625
v 0.007812 -0.796875 0.140625
v -0.007813 -0.796875 0.140625
v -0.007813 -0.750000 0.156250
v -0.007813 -0.796875 0.156250
v 0.007812 -0.750000 0.156250
v 0.007812 -0.796875 0.156250
v 0.023437 -0.750000 0.140625
v 0.039062 -0.750000 0.140625
v 0.039062 -0.796875 0.140625
v 0.023437 -0.796875 0.140625
v 0.023437 -0.750000 0.156250
v 0.023437 -0.796875 0.156250
v 0.039062 -0.750000 0.156250
v 0.039062 -0.796875 0.156250
v -0.039063 -0.750000 0.140625
v -0.023438 -0.750000 0.140625
v -0.023438 -0.796875 0.140625
v -0.039063 -0.796875 0.140625
v -0.039063 -0.750000 0.156250
v -0.039063 -0.796875 0.156250
v -0.023438 -0.750000 0.156250
v -0.023438 -0.796875 0.156250
v 0.039062 -0.781250 0.140625
v 0.054687 -0.781250 0.140625
v 0.054687 -0.843750 0.140625
v 0.039062 -0.843750 0.140625
v 0.039062 -0.781250 0.156250
v 0.039062 -0.843750 0.156250
v 0.054687 -0.781250 0.156250
v 0.054687 -0.843750 0.156250
v 0.007812 -0.765625 0.140625
v 0.023437 -0.765625 0.140625
v 0.023437 -0.796875 0.140625
v 0.007812 -0.796875 0.140625
v 0.007812 -0.765625 0.156250
v 0.007812 -0.796875 0.156250
v 0.023437 -0.765625 0.156250
v 0.023437 -0.796875 0.156250
v -0.023438 -0.765625 0.140625
v -0.007813 -0.765625 0.140625
v -0.007813 -0.796875 0.140625
v -0.023438 -0.796875 0.140625
v -0.023438 -0.765625 0.156250
v -0.023438 -0.796875 0.156250
v -0.007813 -0.765625 0.156250
v -0.007813 -0.796875 0.156250
v -0.007813 -0.812500 0.140625
v 0.007812 -0.812500 0.140625
v 0.007812 -0.859375 0.140625
v -0.007813 -0.859375 0.140625
v -0.007813 -0.812500 0.156250
v -0.007813 -0.859375 0.156250
v 0.007812 -0.812500 0.156250
v 0.007812 -0.859375 0.156250
v 0.007812 -0.796875 0.140625
v 0.039062 -0.796875 0.140625
v 0.039062 -0.812500 0.140625
v 0.007812 -0.812500 0.140625
v 0.007812 -0.796875 0.156250
v 0.007812 -0.812500 0.156250
v 0.039062 -0.796875 0.156250
v 0.039062 -0.812500 0.156250
v 0.007812 -0.843750 0.140625
v 0.054687 -0.843750 0.140625
v 0.054687 -0.859375 0.140625
v 0.007812 -0.859375 0.140625
v 0.007812 -0.843750 0.156250
v 0.007812 -0.859375 0.156250
v 0.054687 -0.843750 0.156250
v 0.054687 -0.859375 0.156250
v -0.039063 -0.859375 0.140625
v 0.039062 -0.859375 0.140625
v 0.039062 -0.875000 0.140625
v -0.039063 -0.875000 0.140625
v -0.039063 -0.859375 0.156250
v -0.039063 -0.875000 0.156250
v 0.039062 -0.859375 0.156250
v 0.039062 -0.875000 0.156250
v -0.039063 -0.796875 0.140625
v -0.007813 -0.796875 0.140625
v -0.007813 -0.812500 0.140625
v -0.039063 -0.812500 0.140625
v -0.039063 -0.796875 0.156250
v -0.039063 -0.812500 0.156250
v -0.007813 -0.796875 0.156250
v -0.007813 -0.812500 0.156250
v -0.054688 -0.843750 0.140625
v -0.007813 -0.843750 0.140625
v -0.007813 -0.859375 0.140625
v -0.054688 -0.859375 0.140625
v -0.054688 -0.843750 0.156250
v -0.054688 -0.859375 0.156250
v -0.007813 -0.843750 0.156250
v -0.007813 -0.859375 0.156250
v -0.054688 -0.781250 0.140625
v -0.039063 -0.781250 0.140625
v -0.039063 -0.843750 0.140625
v -0.054688 -0.843750 0.140625
v -0.054688 -0.781250 0.156250
v -0.054688 -0.843750 0.156250
v -0.039063 -0.781250 0.156250
v -0.039063 -0.843750 0.156250
vt 0.546875 0.968750
vt 0.281250 1.000000
vt 0.281250 0.968750
vt 0.421875 0.906250
vt 0.281250 0.937500
vt 0.281250 0.906250
vt 0.546875 0.937500
vt 0.281250 0.968750
vt 0.281250 0.937500
vt 0.421875 0.875000
vt 0.281250 0.906250
vt 0.281250 0.875000
vt 0.000000 1.000000
vt 0.265625 0.859375
vt 0.265625 1.000000
vt 0.000000 0.703125
vt 0.265625 0.843750
vt 0.265625 0.703125
vt 0.195312 0.664062
vt 0.187500 0.687500
vt 0.187500 0.664062
vt 0.226562 0.664062
vt 0.218750 0.687500
vt 0.218750 0.664062
vt 0.257812 0.664062
vt 0.250000 0.687500
vt 0.250000 0.664062
vt 0.320312 0.726562
vt 0.312500 0.750000
vt 0.312500 0.726562
vt 0.281250 0.625000
vt 0.289062 0.617188
vt 0.289062 0.625000
vt 0.375000 0.710938
vt 0.382812 0.718750
vt 0.382812 0.710938
vt 0.289062 0.664062
vt 0.281250 0.687500
vt 0.281250 0.664062
vt 0.320312 0.695312
vt 0.312500 0.718750
vt 0.312500 0.695312
vt 0.320312 0.664062
vt 0.312500 0.687500
vt 0.312500 0.664062
vt 0.007812 0.632812
vt 0.000000 0.656250
vt 0.000000 0.632812
vt 0.312500 0.625000
vt 0.320312 0.617188
vt 0.320312 0.625000
vt 0.375000 0.679688
vt 0.382812 0.687500
vt 0.382812 0.679688
vt 0.039062 0.632812
vt 0.031250 0.656250
vt 0.031250 0.632812
vt 0.070312 0.632812
vt 0.062500 0.656250
vt 0.062500 0.632812
vt 0.101562 0.632812
vt 0.093750 0.656250
vt 0.093750 0.632812
vt 0.132812 0.632812
vt 0.125000 0.656250
vt 0.125000 0.632812
vt 0.343750 0.625000
vt 0.351562 0.617188
vt 0.351562 0.625000
vt 0.375000 0.648438
vt 0.382812 0.656250
vt 0.382812 0.648438
vt 0.289062 0.718750
vt 0.281250 0.750000
vt 0.281250 0.718750
vt 0.289062 0.687500
vt 0.281250 0.718750
vt 0.281250 0.687500
vt 0.007812 0.656250
vt 0.000000 0.687500
vt 0.000000 0.656250
vt 0.039062 0.656250
vt 0.031250 0.687500
vt 0.031250 0.656250
vt 0.375000 0.625000
vt 0.382812 0.617188
vt 0.382812 0.625000
vt 0.000000 0.585938
vt 0.007812 0.593750
vt 0.007812 0.585938
vt 0.351562 0.671875
vt 0.343750 0.687500
vt 0.343750 0.671875
vt 0.351562 0.640625
vt 0.343750 0.656250
vt 0.343750 0.640625
vt 0.007812 0.609375
vt 0.000000 0.625000
vt 0.000000 0.609375
vt 0.039062 0.609375
vt 0.031250 0.625000
vt 0.031250 0.609375
vt 0.031250 0.593750
vt 0.039062 0.585938
vt 0.039062 0.593750
vt 0.062500 0.585938
vt 0.070312 0.593750
vt 0.070312 0.585938
vt 0.070312 0.609375
vt 0.062500 0.625000
vt 0.062500 0.609375
vt 0.101562 0.609375
vt 0.093750 0.625000
vt 0.093750 0.609375
vt 0.132812 0.609375
vt 0.125000 0.625000
vt 0.125000 0.609375
vt 0.382812 0.859375
vt 0.375000 0.875000
vt 0.375000 0.859375
vt 0.093750 0.593750
vt 0.101562 0.585938
vt 0.101562 0.593750
vt 0.125000 0.585938
vt 0.132812 0.593750
vt 0.132812 0.585938
vt 0.351562 0.851562
vt 0.343750 0.875000
vt 0.343750 0.851562
vt 0.164062 0.632812
vt 0.156250 0.656250
vt 0.156250 0.632812
vt 0.351562 0.820312
vt 0.343750 0.843750
vt 0.343750 0.820312
vt 0.195312 0.632812
vt 0.187500 0.656250
vt 0.187500 0.632812
vt 0.406250 0.875000
vt 0.414062 0.867188
vt 0.414062 0.875000
vt 0.156250 0.585938
vt 0.164062 0.593750
vt 0.164062 0.585938
vt 0.171875 0.617188
vt 0.156250 0.625000
vt 0.156250 0.617188
vt 0.414062 0.835938
vt 0.406250 0.843750
vt 0.406250 0.835938
vt 0.390625 0.835938
vt 0.375000 0.843750
vt 0.375000 0.835938
vt 0.195312 0.585938
vt 0.187500 0.593750
vt 0.187500 0.585938
vt 0.187500 0.625000
vt 0.203125 0.617188
vt 0.203125 0.625000
vt 0.375000 0.804688
vt 0.390625 0.812500
vt 0.390625 0.804688
vt 0.367188 0.804688
vt 0.343750 0.812500
vt 0.343750 0.804688
vt 0.414062 0.804688
vt 0.406250 0.812500
vt 0.406250 0.804688
vt 0.242188 0.648438
vt 0.218750 0.656250
vt 0.218750 0.648438
vt 0.226562 0.585938
vt 0.218750 0.593750
vt 0.218750 0.585938
vt 0.343750 0.781250
vt 0.367188 0.773438
vt 0.367188 0.781250
vt 0.250000 0.648438
vt 0.273438 0.656250
vt 0.273438 0.648438
vt 0.320312 0.867188
vt 0.281250 0.875000
vt 0.281250 0.867188
vt 0.414062 0.773438
vt 0.406250 0.781250
vt 0.406250 0.773438
vt 0.320312 0.835938
vt 0.281250 0.843750
vt 0.281250 0.835938
vt 0.257812 0.585938
vt 0.250000 0.593750
vt 0.250000 0.585938
vt 0.281250 0.812500
vt 0.320312 0.804688
vt 0.320312 0.812500
vt 0.281250 0.773438
vt 0.320312 0.781250
vt 0.320312 0.773438
vt 0.234375 0.617188
vt 0.218750 0.625000
vt 0.218750 0.617188
vt 0.414062 0.742188
vt 0.406250 0.750000
vt 0.406250 0.742188
vt 0.390625 0.773438
vt 0.375000 0.781250
vt 0.375000 0.773438
vt 0.289062 0.585938
vt 0.281250 0.593750
vt 0.281250 0.585938
vt 0.250000 0.625000
vt 0.265625 0.617188
vt 0.265625 0.625000
vt 0.375000 0.742188
vt 0.390625 0.750000
vt 0.390625 0.742188
vt 0.367188 0.742188
vt 0.343750 0.750000
vt 0.343750 0.742188
vt 0.414062 0.710938
vt 0.406250 0.718750
vt 0.406250 0.710938
vt 0.304688 0.648438
vt 0.281250 0.656250
vt 0.281250 0.648438
vt 0.320312 0.585938
vt 0.312500 0.593750
vt 0.312500 0.585938
vt 0.343750 0.718750
vt 0.367188 0.710938
vt 0.367188 0.718750
vt 0.312500 0.648438
vt 0.335938 0.656250
vt 0.335938 0.648438
vt 0.070312 0.656250
vt 0.062500 0.687500
vt 0.062500 0.656250
vt 0.101562 0.656250
vt 0.093750 0.687500
vt 0.093750 0.656250
vt 0.132812 0.656250
vt 0.125000 0.687500
vt 0.125000 0.656250
vt 0.164062 0.656250
vt 0.156250 0.687500
vt 0.156250 0.656250
vt 0.406250 0.687500
vt 0.414062 0.679688
vt 0.414062 0.687500
vt 0.343750 0.585938
vt 0.351562 0.593750
vt 0.351562 0.585938
vt 0.546875 1.000000
vt 0.421875 0.937500
vt 0.546875 0.968750
vt 0.421875 0.906250
vt 0.000000 0.859375
vt 0.000000 0.843750
vt 0.195312 0.687500
vt 0.226562 0.687500
vt 0.257812 0.687500
vt 0.320312 0.750000
vt 0.281250 0.617188
vt 0.375000 0.718750
vt 0.289062 0.687500
vt 0.320312 0.718750
vt 0.320312 0.687500
vt 0.007812 0.656250
vt 0.312500 0.617188
vt 0.375000 0.687500
vt 0.039062 0.656250
vt 0.070312 0.656250
vt 0.101562 0.656250
vt 0.132812 0.656250
vt 0.343750 0.617188
vt 0.375000 0.656250
vt 0.289062 0.750000
vt 0.289062 0.718750
vt 0.007812 0.687500
vt 0.039062 0.687500
vt 0.375000 0.617188
vt 0.000000 0.593750
vt 0.351562 0.687500
vt 0.351562 0.656250
vt 0.007812 0.625000
vt 0.039062 0.625000
vt 0.031250 0.585938
vt 0.062500 0.593750
vt 0.070312 0.625000
vt 0.101562 0.625000
vt 0.132812 0.625000
vt 0.382812 0.875000
vt 0.093750 0.585938
vt 0.125000 0.593750
vt 0.351562 0.875000
vt 0.164062 0.656250
vt 0.351562 0.843750
vt 0.195312 0.656250
vt 0.406250 0.867188
vt 0.156250 0.593750
vt 0.171875 0.625000
vt 0.414062 0.843750
vt 0.390625 0.843750
vt 0.195312 0.593750
vt 0.187500 0.617188
vt 0.375000 0.812500
vt 0.367188 0.812500
vt 0.414062 0.812500
vt 0.242188 0.656250
vt 0.226562 0.593750
vt 0.343750 0.773438
vt 0.250000 0.656250
vt 0.320312 0.875000
vt 0.414062 0.781250
vt 0.320312 0.843750
vt 0.257812 0.593750
vt 0.281250 0.804688
vt 0.281250 0.781250
vt 0.234375 0.625000
vt 0.414062 0.750000
vt 0.390625 0.781250
vt 0.289062 0.593750
vt 0.250000 0.617188
vt 0.375000 0.750000
vt 0.367188 0.750000
vt 0.414062 0.718750
vt 0.304688 0.656250
vt 0.320312 0.593750
vt 0.343750 0.710938
vt 0.312500 0.656250
vt 0.070312 0.687500
vt 0.101562 0.687500
vt 0.132812 0.687500
vt 0.164062 0.687500
vt 0.406250 0.679688
vt 0.343750 0.593750
vn -0.0000 0.0000 -1.0000
vn -1.0000 0.0000 0.0000
vn 0.0000 0.0000 1.0000
vn 1.0000 0.0000 0.0000
vn -0.0000 -1.0000 0.0000
vn 0.0000 1.0000 0.0000
usemtl m_0
s 1
f 2/1/1 4/2/1 1/3/1
f 1/4/2 6/5/2 5/6/2
f 5/7/3 8/8/3 7/9/3
f 7/10/4 3/11/4 2/12/4
f 6/13/5 3/14/5 8/15/5
f 1/16/6 7/17/6 2/18/6
f 10/19/1 12/20/1 9/21/1
f 9/22/2 14/23/2 13/24/2
f 13/25/3 16/26/3 15/27/3
f 15/28/4 11/29/4 10/30/4
f 14/31/5 11/32/5 16/33/5
f 9/34/6 15/35/6 10/36/6
f 18/37/1 20/38/1 17/39/1
f 17/40/2 22/41/2 21/42/2
f 21/43/3 24/44/3 23/45/3
f 23/46/4 19/47/4 18/48/4
f 22/49/5 19/50/5 24/51/5
f 17/52/6 23/53/6 18/54/6
f 26/55/1 28/56/1 25/57/1
f 25/58/2 30/59/2 29/60/2
f 29/61/3 32/62/3 31/63/3
f 31/64/4 27/65/4 26/66/4
f 30/67/5 27/68/5 32/69/5
f 25/70/6 31/71/6 26/72/6
f 34/73/1 36/74/1 33/75/1
f 33/76/2 38/77/2 37/78/2
f 37/79/3 40/80/3 39/81/3
f 39/82/4 35/83/4 34/84/4
f 38/85/5 35/86/5 40/87/5
f 33/88/6 39/89/6 34/90/6
f 42/91/1 44/92/1 41/93/1
f 41/94/2 46/95/2 45/96/2
f 45/97/3 48/98/3 47/99/3
f 47/100/4 43/101/4 42/102/4
f 46/103/5 43/104/5 48/105/5
f 41/106/6 47/107/6 42/108/6
f 50/109/1 52/110/1 49/111/1
f 49/112/2 54/113/2 53/114/2
f 53/115/3 56/116/3 55/117/3
f 55/118/4 51/119/4 50/120/4
f 54/121/5 51/122/5 56/123/5
f 49/124/6 55/125/6 50/126/6
f 58/127/1 60/128/1 57/129/1
f 57/130/2 62/131/2 61/132/2
f 61/133/3 64/134/3 63/135/3
f 63/136/4 59/137/4 58/138/4
f 62/139/5 59/140/5 64/141/5
f 57/142/6 63/143/6 58/144/6
f 66/145/1 68/146/1 65/147/1
f 65/148/2 70/149/2 69/150/2
f 69/151/3 72/152/3 71/153/3
f 71/154/4 67/155/4 66/156/4
f 70/157/5 67/158/5 72/159/5
f 65/160/6 71/161/6 66/162/6
f 74/163/1 76/164/1 73/165/1
f 73/166/2 78/167/2 77/168/2
f 77/169/3 80/170/3 79/171/3
f 79/172/4 75/173/4 74/174/4
f 78/175/5 75/176/5 80/177/5
f 73/178/6 79/179/6 74/180/6
f 82/181/1 84/182/1 81/183/1
f 81/184/2 86/185/2 85/186/2
f 85/187/3 88/188/3 87/189/3
f 87/190/4 83/191/4 82/192/4
f 86/193/5 83/194/5 88/195/5
f 81/196/6 87/197/6 82/198/6
f 90/199/1 92/200/1 89/201/1
f 89/202/2 94/203/2 93/204/2
f 93/205/3 96/206/3 95/207/3
f 95/208/4 91/209/4 90/210/4
f 94/211/5 91/212/5 96/213/5
f 89/214/6 95/215/6 90/216/6
f 98/217/1 100/218/1 97/219/1
f 97/220/2 102/221/2 101/222/2
f 101/223/3 104/224/3 103/225/3
f 103/226/4 99/227/4 98/228/4
f 102/229/5 99/230/5 104/231/5
f 97/232/6 103/233/6 98/234/6
f 106/235/1 108/236/1 105/237/1
f 105/238/2 110/239/2 109/240/2
f 109/241/3 112/242/3 111/243/3
f 111/244/4 107/245/4 106/246/4
f 110/247/5 107/248/5 112/249/5
f 105/250/6 111/251/6 106/252/6
f 2/1/1 3/253/1 4/2/1
f 1/4/2 4/254/2 6/5/2
f 5/7/3 6/255/3 8/8/3
f 7/10/4 8/256/4 3/11/4
f 6/13/5 4/257/5 3/14/5
f 1/16/6 5/258/6 7/17/6
f 10/19/1 11/259/1 12/20/1
f 9/22/2 12/260/2 14/23/2
f 13/25/3 14/261/3 16/26/3
f 15/28/4 16/262/4 11/29/4
f 14/31/5 12/263/5 11/32/5
f 9/34/6 13/264/6 15/35/6
f 18/37/1 19/265/1 20/38/1
f 17/40/2 20/266/2 22/41/2
f 21/43/3 22/267/3 24/44/3
f 23/46/4 24/268/4 19/47/4
f 22/49/5 20/269/5 19/50/5
f 17/52/6 21/270/6 23/53/6
f 26/55/1 27/271/1 28/56/1
f 25/58/2 28/272/2 30/59/2
f 29/61/3 30/273/3 32/62/3
f 31/64/4 32/274/4 27/65/4
f 30/67/5 28/275/5 27/68/5
f 25/70/6 29/276/6 31/71/6
f 34/73/1 35/277/1 36/74/1
f 33/76/2 36/278/2 38/77/2
f 37/79/3 38/279/3 40/80/3
f 39/82/4 40/280/4 35/83/4
f 38/85/5 36/281/5 35/86/5
f 33/88/6 37/282/6 39/89/6
f 42/91/1 43/283/1 44/92/1
f 41/94/2 44/284/2 46/95/2
f 45/97/3 46/285/3 48/98/3
f 47/100/4 48/286/4 43/101/4
f 46/103/5 44/287/5 43/104/5
f 41/106/6 45/288/6 47/107/6
f 50/109/1 51/289/1 52/110/1
f 49/112/2 52/290/2 54/113/2
f 53/115/3 54/291/3 56/116/3
f 55/118/4 56/292/4 51/119/4
f 54/121/5 52/293/5 51/122/5
f 49/124/6 53/294/6 55/125/6
f 58/127/1 59/295/1 60/128/1
f 57/130/2 60/296/2 62/131/2
f 61/133/3 62/297/3 64/134/3
f 63/136/4 64/298/4 59/137/4
f 62/139/5 60/299/5 59/140/5
f 57/142/6 61/300/6 63/143/6
f 66/145/1 67/301/1 68/146/1
f 65/148/2 68/302/2 70/149/2
f 69/151/3 70/303/3 72/152/3
f 71/154/4 72/304/4 67/155/4
f 70/157/5 68/305/5 67/158/5
f 65/160/6 69/306/6 71/161/6
f 74/163/1 75/307/1 76/164/1
f 73/166/2 76/308/2 78/167/2
f 77/169/3 78/309/3 80/170/3
f 79/172/4 80/310/4 75/173/4
f 78/175/5 76/311/5 75/176/5
f 73/178/6 77/312/6 79/179/6
f 82/181/1 83/313/1 84/182/1
f 81/184/2 84/314/2 86/185/2
f 85/187/3 86/315/3 88/188/3
f 87/190/4 88/316/4 83/191/4
f 86/193/5 84/317/5 83/194/5
f 81/196/6 85/318/6 87/197/6
f 90/199/1 91/319/1 92/200/1
f 89/202/2 92/320/2 94/203/2
f 93/205/3 94/321/3 96/206/3
f 95/208/4 96/322/4 91/209/4
f 94/211/5 92/323/5 91/212/5
f 89/214/6 93/324/6 95/215/6
f 98/217/1 99/325/1 100/218/1
f 97/220/2 100/326/2 102/221/2
f 101/223/3 102/327/3 104/224/3
f 103/226/4 104/328/4 99/227/4
f 102/229/5 100/329/5 99/230/5
f 97/232/6 101/330/6 103/233/6
f 106/235/1 107/331/1 108/236/1
f 105/238/2 108/332/2 110/239/2
f 109/241/3 110/333/3 112/242/3
f 111/244/4 112/334/4 107/245/4
f 110/247/5 108/335/5 107/248/5
f 105/250/6 109/336/6 111/251/6
