# Blender 3.4.1
# www.blender.org
mtllib lunar_oni_mask.mtl
o lunar_oni_mask
v 0.062499 -1.640625 0.218750
v 0.062499 -1.640625 0.281250
v 0.062499 -1.593750 0.218750
v 0.062499 -1.593750 0.281250
v -0.062501 -1.640625 0.281250
v -0.062501 -1.640625 0.218750
v -0.062501 -1.593750 0.281250
v -0.062501 -1.593750 0.218750
v 0.218749 -1.656250 0.234375
v 0.218749 -1.656250 0.265625
v 0.218749 -1.484375 0.234375
v 0.218749 -1.484375 0.265625
v -0.218751 -1.656250 0.265625
v -0.218751 -1.656250 0.234375
v -0.218751 -1.484375 0.265625
v -0.218751 -1.484375 0.234375
v 0.062499 -1.515625 0.250000
v 0.062499 -1.515625 0.296875
v 0.062499 -1.453125 0.250000
v 0.062499 -1.453125 0.296875
v -0.062501 -1.515625 0.296875
v -0.062501 -1.515625 0.250000
v -0.062501 -1.453125 0.296875
v -0.062501 -1.453125 0.250000
v 0.187499 -2.062500 0.250000
v 0.187499 -2.062500 0.296875
v 0.187499 -2.000000 0.250000
v 0.187499 -2.000000 0.296875
v -0.187501 -2.062500 0.296875
v -0.187501 -2.062500 0.250000
v -0.187501 -2.000000 0.296875
v -0.187501 -2.000000 0.250000
v -0.062501 -1.568618 0.239463
v -0.062501 -1.562500 0.285937
v -0.062501 -1.444688 0.223148
v -0.062501 -1.438569 0.269621
v -0.125001 -1.562500 0.285937
v -0.125001 -1.568618 0.239463
v -0.125001 -1.438569 0.269621
v -0.125001 -1.444688 0.223147
v -0.062501 -1.656250 0.239062
v -0.062501 -1.656250 0.285937
v -0.062501 -1.562500 0.239062
v -0.062501 -1.562500 0.285937
v -0.125001 -1.656250 0.285937
v -0.125001 -1.656250 0.239062
v -0.125001 -1.562500 0.285937
v -0.125001 -1.562500 0.239062
v 0.124999 -1.656250 0.239062
v 0.124999 -1.656250 0.285937
v 0.124999 -1.562500 0.239062
v 0.124999 -1.562500 0.285937
v 0.062499 -1.656250 0.285937
v 0.062499 -1.656250 0.239062
v 0.062499 -1.562500 0.285937
v 0.062499 -1.562500 0.239062
v 0.124999 -1.568618 0.239463
v 0.124999 -1.562500 0.285937
v 0.124999 -1.444688 0.223148
v 0.124999 -1.438569 0.269622
v 0.062499 -1.562500 0.285937
v 0.062499 -1.568618 0.239463
v 0.062499 -1.438569 0.269621
v 0.062499 -1.444688 0.223148
v -0.134013 -1.605268 0.305944
v -0.141753 -1.572556 0.338614
v -0.117055 -1.526930 0.231523
v -0.124796 -1.494218 0.264192
v -0.202629 -1.572824 0.324460
v -0.194889 -1.605536 0.291790
v -0.185671 -1.494487 0.250038
v -0.177931 -1.527199 0.217369
v -0.140577 -1.691513 0.335811
v -0.150509 -1.674139 0.378199
v -0.131821 -1.589930 0.296226
v -0.141753 -1.572556 0.338614
v -0.211385 -1.674408 0.364045
v -0.201452 -1.691782 0.321657
v -0.202629 -1.572824 0.324460
v -0.192697 -1.590198 0.282071
v 0.194888 -1.605536 0.291790
v 0.202628 -1.572824 0.324460
v 0.177930 -1.527199 0.217369
v 0.185670 -1.494487 0.250038
v 0.141752 -1.572556 0.338614
v 0.134012 -1.605268 0.305944
v 0.124794 -1.494218 0.264192
v 0.117054 -1.526930 0.231523
v 0.201451 -1.691782 0.321657
v 0.211384 -1.674408 0.364045
v 0.192696 -1.590198 0.282071
v 0.202628 -1.572824 0.324460
v 0.150508 -1.674139 0.378199
v 0.140576 -1.691513 0.335811
v 0.141752 -1.572556 0.338614
v 0.131820 -1.589930 0.296226
v -0.117761 -2.059095 0.370192
v -0.127672 -1.984718 0.426397
v -0.091930 -1.944952 0.223698
v -0.101841 -1.870576 0.279903
v -0.219997 -1.984718 0.410117
v -0.210087 -2.059095 0.353913
v -0.194166 -1.870575 0.263623
v -0.184256 -1.944952 0.207419
v -0.142985 -2.187843 0.423265
v -0.153012 -2.163925 0.480130
v -0.130526 -2.014616 0.352602
v -0.140552 -1.990698 0.409467
v -0.214563 -2.163925 0.469277
v -0.204536 -2.187843 0.412412
v -0.202103 -1.990698 0.398614
v -0.192076 -2.014616 0.341749
v 0.204534 -2.187843 0.412412
v 0.214561 -2.163925 0.469277
v 0.192075 -2.014616 0.341749
v 0.202102 -1.990698 0.398614
v 0.153011 -2.163925 0.480130
v 0.142984 -2.187843 0.423265
v 0.140551 -1.990698 0.409467
v 0.130524 -2.014616 0.352602
v 0.210085 -2.059095 0.353913
v 0.219996 -1.984719 0.410117
v 0.184255 -1.944953 0.207419
v 0.194165 -1.870576 0.263623
v 0.127670 -1.984718 0.426397
v 0.117760 -2.059095 0.370192
v 0.101839 -1.870576 0.279903
v 0.091929 -1.944952 0.223698
v 0.249999 -2.000000 0.250000
v 0.249999 -2.000000 0.296875
v 0.249999 -1.625000 0.250000
v 0.249999 -1.625000 0.296875
v -0.250001 -2.000000 0.296875
v -0.250001 -2.000000 0.250000
v -0.250001 -1.625000 0.296875
v -0.250001 -1.625000 0.250000
v 0.031249 -1.811122 0.236384
v 0.031249 -1.832498 0.295115
v 0.031249 -1.634930 0.300513
v 0.031249 -1.656306 0.359244
v -0.031251 -1.832498 0.295115
v -0.031251 -1.811122 0.236384
v -0.031251 -1.656306 0.359244
v -0.031251 -1.634930 0.300513
v 0.062499 -1.546875 0.218750
v 0.062499 -1.546875 0.281250
v 0.062499 -1.515625 0.218750
v 0.062499 -1.515625 0.281250
v -0.062501 -1.546875 0.281250
v -0.062501 -1.546875 0.218750
v -0.062501 -1.515625 0.281250
v -0.062501 -1.515625 0.218750
vn -0.0000 -0.0000 1.0000
vn 1.0000 -0.0000 -0.0000
vn -0.0000 -0.0000 -1.0000
vn -1.0000 -0.0000 -0.0000
vn -0.0000 -1.0000 -0.0000
vn -0.0000 1.0000 -0.0000
vn -0.0000 0.1305 0.9914
vn -0.0000 -0.1305 -0.9914
vn -0.0000 -0.9914 0.1305
vn -0.0000 0.9914 -0.1305
vn -0.1651 0.6979 0.6969
vn 0.9740 0.0043 0.2265
vn 0.1651 -0.6979 -0.6969
vn -0.9740 -0.0043 -0.2265
vn -0.1550 -0.7162 0.6804
vn 0.1550 0.7162 -0.6804
vn -0.2119 0.3706 0.9043
vn 0.2119 -0.3706 -0.9043
vn -0.0801 -0.9288 0.3619
vn 0.0801 0.9288 -0.3619
vn 0.1651 0.6979 0.6969
vn 0.9740 -0.0043 -0.2265
vn -0.1651 -0.6979 -0.6969
vn -0.9740 0.0043 0.2265
vn 0.1550 -0.7162 0.6804
vn -0.1550 0.7162 -0.6804
vn 0.2119 0.3706 0.9043
vn -0.2119 -0.3706 -0.9043
vn 0.0801 -0.9288 0.3619
vn -0.0801 0.9288 -0.3619
vn -0.1057 0.7934 0.5995
vn 0.9848 -0.0000 0.1736
vn 0.1057 -0.7934 -0.5995
vn -0.9848 -0.0000 -0.1736
vn -0.1378 -0.6088 0.7813
vn 0.1378 0.6088 -0.7813
vn -0.1604 0.3827 0.9098
vn 0.1604 -0.3827 -0.9098
vn -0.0665 -0.9239 0.3769
vn 0.0665 0.9239 -0.3769
vn 0.1604 0.3827 0.9098
vn 0.9848 -0.0000 -0.1736
vn -0.1604 -0.3827 -0.9098
vn -0.9848 -0.0000 0.1736
vn 0.0665 -0.9239 0.3769
vn -0.0665 0.9239 -0.3769
vn 0.1057 0.7934 0.5995
vn -0.1057 -0.7934 -0.5995
vn 0.1378 -0.6088 0.7813
vn -0.1378 0.6088 -0.7813
vn -0.0000 -0.3420 0.9397
vn -0.0000 0.3420 -0.9397
vn -0.0000 -0.9397 -0.3420
vn -0.0000 0.9397 0.3420
vn 0.0800 -0.9288 0.3619
vt 0.593750 0.718750
vt 0.562500 0.656250
vt 0.500000 0.625000
vt 0.500000 0.687500
vt 0.625000 0.718750
vt 0.500000 0.593750
vt 0.593750 0.687500
vt 0.562500 0.625000
vt 0.500000 0.593750
vt 0.500000 0.656250
vt 0.625000 0.687500
vt 0.500000 0.562500
vt 0.562500 0.687500
vt 0.593750 0.687500
vt 0.562500 0.593750
vt 0.562500 0.625000
vt 0.500000 0.656250
vt 0.625000 0.687500
vt 0.593750 0.656250
vt 0.562500 0.562500
vt 0.562500 0.656250
vt 0.500000 0.625000
vt 0.625000 0.656250
vt 0.562500 0.593750
vt 0.031250 0.406250
vt 0.468750 0.906250
vt 0.000000 0.531250
vt 0.250000 1.000000
vt 0.046875 0.406250
vt 0.000000 0.515625
vt 0.031250 0.312500
vt 0.468750 0.812500
vt 0.468750 1.000000
vt 0.250000 0.906250
vt 0.046875 0.312500
vt 0.468750 0.984375
vt 0.468750 1.000000
vt 0.593750 0.968750
vt 0.218750 0.515625
vt 0.218750 0.531250
vt 0.250000 0.906250
vt 0.609375 0.968750
vt 0.593750 0.875000
vt 0.687500 0.984375
vt 0.468750 0.906250
vt 0.250000 0.812500
vt 0.609375 0.875000
vt 0.687500 1.000000
vt 0.593750 0.406250
vt 0.218750 0.437500
vt 0.562500 0.812500
vt 0.531250 0.843750
vt 0.625000 0.406250
vt 0.562500 0.781250
vt 0.593750 0.375000
vt 0.218750 0.406250
vt 0.562500 0.781250
vt 0.531250 0.812500
vt 0.625000 0.375000
vt 0.562500 0.750000
vt 0.593750 0.843750
vt 0.625000 0.968750
vt 0.625000 0.781250
vt 0.625000 0.812500
vt 0.156250 0.437500
vt 0.656250 0.968750
vt 0.625000 0.937500
vt 0.625000 0.750000
vt 0.593750 0.812500
vt 0.156250 0.406250
vt 0.656250 0.937500
vt 0.625000 0.781250
vt 0.625000 0.781250
vt 0.500000 0.718750
vt 0.312500 0.687500
vt 0.312500 0.750000
vt 0.656250 0.781250
vt 0.312500 0.656250
vt 0.625000 0.750000
vt 0.500000 0.687500
vt 0.312500 0.656250
vt 0.312500 0.718750
vt 0.656250 0.750000
vt 0.312500 0.625000
vt 0.500000 0.750000
vt 0.250000 0.375000
vt 0.500000 0.656250
vt 0.500000 0.687500
vt 0.312500 0.718750
vt 0.281250 0.375000
vt 0.250000 0.343750
vt 0.500000 0.625000
vt 0.500000 0.718750
vt 0.312500 0.687500
vt 0.281250 0.343750
vt 0.500000 0.656250
vt 0.500000 0.500000
vt 0.562500 0.968750
vt 0.593750 0.656250
vt 0.500000 0.562500
vt 0.531250 0.500000
vt 0.593750 0.625000
vt 0.500000 0.437500
vt 0.562500 0.906250
vt 0.593750 0.625000
vt 0.500000 0.500000
vt 0.531250 0.437500
vt 0.593750 0.593750
vt 0.531250 0.562500
vt 0.531250 0.906250
vt 0.625000 0.625000
vt 0.625000 0.656250
vt 0.531250 0.968750
vt 0.562500 0.906250
vt 0.531250 0.843750
vt 0.625000 0.593750
vt 0.531250 0.500000
vt 0.531250 0.906250
vt 0.562500 0.843750
vt 0.625000 0.625000
vt 0.531250 0.437500
vt 0.593750 0.437500
vt 0.593750 0.593750
vt 0.562500 0.500000
vt 0.562500 0.437500
vt 0.593750 0.562500
vt 0.531250 0.390625
vt 0.593750 0.390625
vt 0.593750 0.562500
vt 0.562500 0.453125
vt 0.562500 0.390625
vt 0.593750 0.531250
vt 0.593750 0.500000
vt 0.000000 0.406250
vt 0.625000 0.562500
vt 0.625000 0.593750
vt 0.562500 0.437500
vt 0.031250 0.406250
vt 0.000000 0.359375
vt 0.625000 0.531250
vt 0.593750 0.453125
vt 0.562500 0.390625
vt 0.031250 0.359375
vt 0.625000 0.562500
vt 0.593750 0.875000
vt 0.187500 0.406250
vt 0.625000 0.937500
vt 0.062500 0.406250
vt 0.625000 0.875000
vt 0.625000 0.906250
vt 0.593750 0.828125
vt 0.187500 0.359375
vt 0.093750 0.375000
vt 0.062500 0.359375
vt 0.625000 0.828125
vt 0.093750 0.343750
vt 0.093750 0.406250
vt 0.187500 0.406250
vt 0.656250 0.906250
vt 0.656250 0.937500
vt 0.156250 0.406250
vt 0.218750 0.406250
vt 0.187500 0.359375
vt 0.125000 0.343750
vt 0.093750 0.359375
vt 0.156250 0.359375
vt 0.218750 0.359375
vt 0.125000 0.375000
vt 0.562500 0.750000
vt 0.343750 0.437500
vt 0.625000 0.906250
vt 0.218750 0.437500
vt 0.593750 0.750000
vt 0.625000 0.875000
vt 0.562500 0.687500
vt 0.343750 0.375000
vt 0.125000 0.375000
vt 0.218750 0.375000
vt 0.593750 0.687500
vt 0.125000 0.343750
vt 0.250000 0.437500
vt 0.562500 0.687500
vt 0.656250 0.875000
vt 0.656250 0.906250
vt 0.312500 0.437500
vt 0.593750 0.687500
vt 0.562500 0.625000
vt 0.156250 0.343750
vt 0.250000 0.375000
vt 0.312500 0.375000
vt 0.593750 0.625000
vt 0.156250 0.375000
vt 0.281250 0.468750
vt 0.562500 0.562500
vt 0.593750 0.531250
vt 0.250000 0.468750
vt 0.312500 0.468750
vt 0.593750 0.500000
vt 0.281250 0.406250
vt 0.562500 0.500000
vt 0.593750 0.500000
vt 0.250000 0.406250
vt 0.312500 0.406250
vt 0.593750 0.468750
vt 0.625000 0.500000
vt 0.281250 0.468750
vt 0.531250 0.500000
vt 0.531250 0.562500
vt 0.562500 0.500000
vt 0.625000 0.531250
vt 0.531250 0.437500
vt 0.281250 0.406250
vt 0.625000 0.468750
vt 0.625000 0.500000
vt 0.531250 0.500000
vt 0.562500 0.437500
vt 0.093750 0.437500
vt 0.593750 0.906250
vt 0.593750 0.468750
vt 0.562500 0.968750
vt 0.125000 0.437500
vt 0.593750 0.437500
vt 0.093750 0.375000
vt 0.593750 0.843750
vt 0.593750 0.437500
vt 0.562500 0.906250
vt 0.125000 0.375000
vt 0.593750 0.406250
vt 0.593750 0.968750
vt 0.125000 0.437500
vt 0.625000 0.437500
vt 0.562500 0.906250
vt 0.625000 0.468750
vt 0.156250 0.437500
vt 0.125000 0.375000
vt 0.625000 0.406250
vt 0.593750 0.906250
vt 0.562500 0.843750
vt 0.156250 0.375000
vt 0.625000 0.437500
vt 0.375000 0.437500
vt 0.593750 0.625000
vt 0.625000 0.875000
vt 0.343750 0.437500
vt 0.406250 0.437500
vt 0.625000 0.843750
vt 0.375000 0.375000
vt 0.593750 0.562500
vt 0.625000 0.843750
vt 0.343750 0.375000
vt 0.406250 0.375000
vt 0.625000 0.812500
vt 0.375000 0.437500
vt 0.406250 0.437500
vt 0.656250 0.843750
vt 0.656250 0.875000
vt 0.562500 0.625000
vt 0.437500 0.437500
vt 0.406250 0.375000
vt 0.656250 0.812500
vt 0.375000 0.375000
vt 0.562500 0.562500
vt 0.437500 0.375000
vt 0.656250 0.843750
vt 0.562500 0.562500
vt 0.500000 0.437500
vt 0.625000 0.812500
vt 0.437500 0.437500
vt 0.593750 0.562500
vt 0.625000 0.781250
vt 0.562500 0.500000
vt 0.500000 0.375000
vt 0.218750 0.375000
vt 0.437500 0.375000
vt 0.593750 0.500000
vt 0.218750 0.343750
vt 0.468750 0.437500
vt 0.500000 0.437500
vt 0.656250 0.781250
vt 0.468750 0.437500
vt 0.656250 0.812500
vt 0.531250 0.437500
vt 0.500000 0.375000
vt 0.250000 0.343750
vt 0.468750 0.375000
vt 0.468750 0.375000
vt 0.531250 0.375000
vt 0.250000 0.375000
vt 0.062500 0.625000
vt 0.171875 0.625000
vt 0.468750 0.875000
vt 0.000000 0.625000
vt 0.109375 0.625000
vt 0.468750 0.828125
vt 0.062500 0.531250
vt 0.171875 0.531250
vt 0.093750 0.500000
vt 0.000000 0.531250
vt 0.109375 0.531250
vt 0.093750 0.453125
vt 0.515625 0.828125
vt 0.046875 0.625000
vt 0.187500 0.625000
vt 0.125000 0.625000
vt 0.234375 0.625000
vt 0.515625 0.875000
vt 0.187500 0.531250
vt 0.140625 0.453125
vt 0.046875 0.531250
vt 0.125000 0.531250
vt 0.234375 0.531250
vt 0.140625 0.500000
vt 0.218750 0.531250
vt 0.343750 0.531250
vt 0.281250 0.375000
vt 0.468750 0.968750
vt 0.250000 0.531250
vt 0.281250 0.343750
vt 0.218750 0.437500
vt 0.343750 0.437500
vt 0.625000 0.718750
vt 0.468750 0.875000
vt 0.250000 0.437500
vt 0.625000 0.687500
vt 0.312500 0.343750
vt 0.500000 0.968750
vt 0.343750 0.531250
vt 0.312500 0.531250
vt 0.375000 0.531250
vt 0.312500 0.375000
vt 0.343750 0.437500
vt 0.500000 0.875000
vt 0.656250 0.687500
vt 0.312500 0.437500
vt 0.656250 0.718750
vt 0.375000 0.437500
vt 0.406250 0.531250
vt 0.468750 0.531250
vt 0.312500 0.375000
vt 0.375000 0.531250
vt 0.437500 0.531250
vt 0.312500 0.343750
vt 0.406250 0.437500
vt 0.468750 0.437500
vt 0.625000 0.687500
vt 0.375000 0.437500
vt 0.437500 0.437500
vt 0.625000 0.656250
vt 0.468750 0.531250
vt 0.406250 0.531250
vt 0.343750 0.343750
vt 0.437500 0.531250
vt 0.343750 0.375000
vt 0.500000 0.531250
vt 0.656250 0.656250
vt 0.406250 0.437500
vt 0.468750 0.437500
vt 0.437500 0.437500
vt 0.500000 0.437500
vt 0.656250 0.687500
vt 0.375000 0.625000
vt 0.296875 0.562500
vt 0.156250 0.500000
vt 0.312500 0.625000
vt 0.421875 0.625000
vt 0.156250 0.453125
vt 0.375000 0.531250
vt 0.296875 0.468750
vt 0.500000 0.812500
vt 0.312500 0.531250
vt 0.421875 0.531250
vt 0.500000 0.765625
vt 0.359375 0.625000
vt 0.437500 0.625000
vt 0.203125 0.453125
vt 0.203125 0.500000
vt 0.250000 0.562500
vt 0.484375 0.625000
vt 0.437500 0.531250
vt 0.546875 0.765625
vt 0.359375 0.531250
vt 0.250000 0.468750
vt 0.484375 0.531250
vt 0.546875 0.812500
vt 0.250000 0.750000
vt 0.250000 0.812500
vt 0.000000 1.000000
vt 0.281250 0.750000
vt 0.250000 0.781250
vt 0.250000 0.562500
vt 0.250000 0.625000
vt 0.250000 0.781250
vt 0.000000 0.812500
vt 0.281250 0.562500
vt 0.250000 0.750000
vt 0.250000 1.000000
vt 0.281250 0.750000
vt 0.500000 0.781250
vt 0.500000 0.812500
vt 0.000000 0.812500
vt 0.312500 0.750000
vt 0.281250 0.562500
vt 0.500000 0.750000
vt 0.250000 0.812500
vt 0.000000 0.625000
vt 0.312500 0.562500
vt 0.500000 0.781250
vt 0.031250 0.500000
vt 0.531250 0.968750
vt 0.343750 0.375000
vt 0.000000 0.500000
vt 0.062500 0.500000
vt 0.343750 0.343750
vt 0.031250 0.406250
vt 0.531250 0.875000
vt 0.625000 0.656250
vt 0.000000 0.406250
vt 0.062500 0.406250
vt 0.625000 0.625000
vt 0.031250 0.500000
vt 0.062500 0.500000
vt 0.375000 0.343750
vt 0.375000 0.375000
vt 0.500000 0.968750
vt 0.093750 0.500000
vt 0.062500 0.406250
vt 0.656250 0.625000
vt 0.031250 0.406250
vt 0.500000 0.875000
vt 0.093750 0.406250
vt 0.656250 0.656250
vt 0.375000 0.375000
vt 0.656250 0.750000
vt 0.500000 0.750000
vt 0.250000 0.406250
vt 0.406250 0.375000
vt 0.500000 0.718750
vt 0.375000 0.359375
vt 0.656250 0.734375
vt 0.500000 0.718750
vt 0.250000 0.390625
vt 0.406250 0.359375
vt 0.500000 0.687500
vt 0.312500 0.406250
vt 0.625000 0.625000
vt 0.562500 0.718750
vt 0.562500 0.750000
vt 0.593750 0.750000
vt 0.656250 0.625000
vt 0.625000 0.609375
vt 0.562500 0.687500
vt 0.312500 0.390625
vt 0.593750 0.734375
vt 0.656250 0.609375
vt 0.562500 0.718750
s 0
usemtl lunar_oni_mask
f 7/21/1 2/4/1 4/10/1
f 4/11/2 1/1/2 3/7/2
f 3/8/3 6/17/3 8/22/3
f 8/23/4 5/14/4 7/19/4
f 1/3/5 5/15/5 6/16/5
f 4/12/6 8/24/6 7/20/6
f 15/45/1 10/28/1 12/34/1
f 12/35/2 9/25/2 11/31/2
f 11/32/3 14/41/3 16/46/3
f 16/47/4 13/38/4 15/43/4
f 9/27/5 13/39/5 14/40/5
f 12/36/6 16/48/6 15/44/6
f 23/69/1 18/52/1 20/58/1
f 20/59/2 17/49/2 19/55/2
f 19/56/3 22/65/3 24/70/3
f 24/71/4 21/62/4 23/67/4
f 17/51/5 21/63/5 22/64/5
f 20/60/6 24/72/6 23/68/6
f 31/93/1 26/76/1 28/82/1
f 28/83/2 25/73/2 27/79/2
f 27/80/3 30/89/3 32/94/3
f 32/95/4 29/86/4 31/91/4
f 25/75/5 29/87/5 30/88/5
f 28/84/6 32/96/6 31/92/6
f 39/117/7 34/100/7 36/106/7
f 36/107/2 33/97/2 35/103/2
f 35/104/8 38/113/8 40/118/8
f 40/119/4 37/110/4 39/115/4
f 33/99/9 37/111/9 38/112/9
f 36/108/10 40/120/10 39/116/10
f 47/141/1 42/124/1 44/130/1
f 44/131/2 41/121/2 43/127/2
f 43/128/3 46/137/3 48/142/3
f 48/143/4 45/134/4 47/139/4
f 41/123/5 45/135/5 46/136/5
f 44/132/6 48/144/6 47/140/6
f 55/165/1 50/148/1 52/154/1
f 52/155/2 49/145/2 51/151/2
f 51/152/3 54/161/3 56/166/3
f 56/167/4 53/158/4 55/163/4
f 49/147/5 53/159/5 54/160/5
f 52/156/6 56/168/6 55/164/6
f 63/189/7 58/172/7 60/178/7
f 60/179/2 57/169/2 59/175/2
f 59/176/8 62/185/8 64/190/8
f 64/191/4 61/182/4 63/187/4
f 57/171/9 61/183/9 62/184/9
f 60/180/10 64/192/10 63/188/10
f 71/212/11 66/196/11 68/202/11
f 67/199/12 66/197/12 65/193/12
f 72/215/13 65/194/13 70/208/13
f 72/216/14 69/207/14 71/211/14
f 70/210/15 66/198/15 69/205/15
f 71/213/16 67/201/16 72/214/16
f 79/237/17 74/220/17 76/226/17
f 75/223/12 74/221/12 73/217/12
f 80/238/18 73/218/18 78/232/18
f 80/239/14 77/230/14 79/235/14
f 73/219/19 77/231/19 78/233/19
f 76/228/20 80/240/20 79/236/20
f 84/250/21 85/253/21 82/244/21
f 84/251/22 81/241/22 83/247/22
f 83/248/23 86/257/23 88/262/23
f 88/263/24 85/254/24 87/259/24
f 81/243/25 85/255/25 86/256/25
f 84/252/26 88/264/26 87/260/26
f 92/274/27 93/277/27 90/268/27
f 91/271/22 90/269/22 89/265/22
f 96/286/28 89/266/28 94/280/28
f 96/287/24 93/278/24 95/283/24
f 89/267/29 93/279/29 94/281/29
f 92/276/30 96/288/30 95/284/30
f 100/298/31 101/302/31 98/292/31
f 100/299/32 97/289/32 99/295/32
f 99/296/33 102/304/33 104/310/33
f 104/311/34 101/303/34 103/307/34
f 102/306/35 98/294/35 101/301/35
f 100/300/36 104/312/36 103/308/36
f 108/322/37 109/326/37 106/316/37
f 108/323/32 105/313/32 107/319/32
f 107/320/38 110/328/38 112/334/38
f 112/336/34 109/327/34 111/331/34
f 110/330/39 106/318/39 109/325/39
f 111/333/40 107/321/40 112/335/40
f 119/356/41 114/340/41 116/346/41
f 116/347/42 113/337/42 115/343/42
f 120/358/43 113/338/43 118/352/43
f 119/357/44 118/354/44 117/349/44
f 113/339/45 117/351/45 118/353/45
f 116/348/46 120/360/46 119/355/46
f 127/381/47 122/364/47 124/370/47
f 124/371/42 121/361/42 123/367/42
f 123/368/48 126/377/48 128/382/48
f 128/383/44 125/374/44 127/379/44
f 121/363/49 125/375/49 126/376/49
f 124/372/50 128/384/50 127/380/50
f 135/404/1 130/387/1 132/393/1
f 132/394/2 129/385/2 131/390/2
f 131/391/3 134/400/3 136/405/3
f 136/406/4 133/397/4 135/402/4
f 129/386/5 133/398/5 134/399/5
f 132/395/6 136/407/6 135/403/6
f 143/428/51 138/411/51 140/417/51
f 139/414/2 138/412/2 137/408/2
f 139/415/52 142/424/52 144/429/52
f 144/430/4 141/421/4 143/426/4
f 137/410/53 141/422/53 142/423/53
f 140/419/54 144/431/54 143/427/54
f 151/452/1 146/435/1 148/441/1
f 148/442/2 145/432/2 147/438/2
f 147/439/3 150/448/3 152/453/3
f 152/454/4 149/445/4 151/450/4
f 145/434/5 149/446/5 150/447/5
f 148/443/6 152/455/6 151/451/6
f 7/21/1 5/13/1 2/4/1
f 4/11/2 2/5/2 1/1/2
f 3/8/3 1/2/3 6/17/3
f 8/23/4 6/18/4 5/14/4
f 1/3/5 2/6/5 5/15/5
f 4/12/6 3/9/6 8/24/6
f 15/45/1 13/37/1 10/28/1
f 12/35/2 10/29/2 9/25/2
f 11/32/3 9/26/3 14/41/3
f 16/47/4 14/42/4 13/38/4
f 9/27/5 10/30/5 13/39/5
f 12/36/6 11/33/6 16/48/6
f 23/69/1 21/61/1 18/52/1
f 20/59/2 18/53/2 17/49/2
f 19/56/3 17/50/3 22/65/3
f 24/71/4 22/66/4 21/62/4
f 17/51/5 18/54/5 21/63/5
f 20/60/6 19/57/6 24/72/6
f 31/93/1 29/85/1 26/76/1
f 28/83/2 26/77/2 25/73/2
f 27/80/3 25/74/3 30/89/3
f 32/95/4 30/90/4 29/86/4
f 25/75/5 26/78/5 29/87/5
f 28/84/6 27/81/6 32/96/6
f 39/117/7 37/109/7 34/100/7
f 36/107/2 34/101/2 33/97/2
f 35/104/8 33/98/8 38/113/8
f 40/119/4 38/114/4 37/110/4
f 33/99/9 34/102/9 37/111/9
f 36/108/10 35/105/10 40/120/10
f 47/141/1 45/133/1 42/124/1
f 44/131/2 42/125/2 41/121/2
f 43/128/3 41/122/3 46/137/3
f 48/143/4 46/138/4 45/134/4
f 41/123/5 42/126/5 45/135/5
f 44/132/6 43/129/6 48/144/6
f 55/165/1 53/157/1 50/148/1
f 52/155/2 50/149/2 49/145/2
f 51/152/3 49/146/3 54/161/3
f 56/167/4 54/162/4 53/158/4
f 49/147/5 50/150/5 53/159/5
f 52/156/6 51/153/6 56/168/6
f 63/189/7 61/181/7 58/172/7
f 60/179/2 58/173/2 57/169/2
f 59/176/8 57/170/8 62/185/8
f 64/191/4 62/186/4 61/182/4
f 57/171/9 58/174/9 61/183/9
f 60/180/10 59/177/10 64/192/10
f 71/212/11 69/206/11 66/196/11
f 67/199/12 68/203/12 66/197/12
f 72/215/13 67/200/13 65/194/13
f 72/216/14 70/209/14 69/207/14
f 70/210/15 65/195/15 66/198/15
f 71/213/16 68/204/16 67/201/16
f 79/237/17 77/229/17 74/220/17
f 75/223/12 76/227/12 74/221/12
f 80/238/18 75/224/18 73/218/18
f 80/239/14 78/234/14 77/230/14
f 73/219/19 74/222/19 77/231/19
f 76/228/20 75/225/20 80/240/20
f 84/250/21 87/261/21 85/253/21
f 84/251/22 82/245/22 81/241/22
f 83/248/23 81/242/23 86/257/23
f 88/263/24 86/258/24 85/254/24
f 81/243/25 82/246/25 85/255/25
f 84/252/26 83/249/26 88/264/26
f 92/274/27 95/285/27 93/277/27
f 91/271/22 92/275/22 90/269/22
f 96/286/28 91/272/28 89/266/28
f 96/287/24 94/282/24 93/278/24
f 89/267/55 90/270/55 93/279/55
f 92/276/30 91/273/30 96/288/30
f 100/298/31 103/309/31 101/302/31
f 100/299/32 98/293/32 97/289/32
f 99/296/33 97/290/33 102/304/33
f 104/311/34 102/305/34 101/303/34
f 102/306/35 97/291/35 98/294/35
f 100/300/36 99/297/36 104/312/36
f 108/322/37 111/332/37 109/326/37
f 108/323/32 106/317/32 105/313/32
f 107/320/38 105/314/38 110/328/38
f 112/336/34 110/329/34 109/327/34
f 110/330/39 105/315/39 106/318/39
f 111/333/40 108/324/40 107/321/40
f 119/356/41 117/350/41 114/340/41
f 116/347/42 114/341/42 113/337/42
f 120/358/43 115/344/43 113/338/43
f 119/357/44 120/359/44 118/354/44
f 113/339/45 114/342/45 117/351/45
f 116/348/46 115/345/46 120/360/46
f 127/381/47 125/373/47 122/364/47
f 124/371/42 122/365/42 121/361/42
f 123/368/48 121/362/48 126/377/48
f 128/383/44 126/378/44 125/374/44
f 121/363/49 122/366/49 125/375/49
f 124/372/50 123/369/50 128/384/50
f 135/404/1 133/396/1 130/387/1
f 132/394/2 130/388/2 129/385/2
f 131/391/3 129/386/3 134/400/3
f 136/406/4 134/401/4 133/397/4
f 129/386/5 130/389/5 133/398/5
f 132/395/6 131/392/6 136/407/6
f 143/428/51 141/420/51 138/411/51
f 139/414/2 140/418/2 138/412/2
f 139/415/52 137/409/52 142/424/52
f 144/430/4 142/425/4 141/421/4
f 137/410/53 138/413/53 141/422/53
f 140/419/54 139/416/54 144/431/54
f 151/452/1 149/444/1 146/435/1
f 148/442/2 146/436/2 145/432/2
f 147/439/3 145/433/3 150/448/3
f 152/454/4 150/449/4 149/445/4
f 145/434/5 146/437/5 149/446/5
f 148/443/6 147/440/6 152/455/6
