# Blender 3.1.0
# www.blender.org
mtllib Lunar_FlamingoRing.mtl
o Lunar_FlamingoRing
v 0.312500 -0.812500 -0.187500
v 0.312500 -1.062500 -0.187500
v -0.312500 -1.062500 -0.187500
v -0.312500 -0.812500 -0.187500
v -0.312500 -1.062500 0.187500
v -0.312500 -0.812500 0.187500
v 0.312500 -1.062500 0.187500
v 0.312500 -0.812500 0.187500
v 0.062500 -0.812500 -0.312500
v 0.062500 -1.125000 -0.312500
v -0.062500 -1.125000 -0.312500
v -0.062500 -0.812500 -0.312500
v -0.062500 -1.125000 -0.187500
v -0.062500 -0.812500 -0.187500
v 0.062500 -1.125000 -0.187500
v 0.062500 -0.812500 -0.187500
v 0.109375 -1.125000 -0.359375
v 0.109375 -1.328125 -0.359375
v -0.109375 -1.328125 -0.359375
v -0.109375 -1.125000 -0.359375
v -0.109375 -1.328125 -0.156250
v -0.109375 -1.125000 -0.156250
v 0.109375 -1.328125 -0.156250
v 0.109375 -1.125000 -0.156250
v 0.046875 -1.093750 -0.500000
v 0.046875 -1.250000 -0.500000
v -0.046875 -1.250000 -0.500000
v -0.046875 -1.093750 -0.500000
v -0.046875 -1.250000 -0.437500
v -0.046875 -1.093750 -0.437500
v 0.046875 -1.250000 -0.437500
v 0.046875 -1.093750 -0.437500
v 0.031250 -1.132813 -0.437500
v 0.031250 -1.187500 -0.437500
v -0.031250 -1.187500 -0.437500
v -0.031250 -1.132813 -0.437500
v -0.031250 -1.187500 -0.359375
v -0.031250 -1.132812 -0.359375
v 0.031250 -1.187500 -0.359375
v 0.031250 -1.132812 -0.359375
v 0.046875 -1.187500 -0.437500
v 0.046875 -1.250000 -0.437500
v -0.046875 -1.250000 -0.437500
v -0.046875 -1.187500 -0.437500
v -0.046875 -1.250000 -0.312500
v -0.046875 -1.187500 -0.312500
v 0.046875 -1.250000 -0.312500
v 0.046875 -1.187500 -0.312500
vn -0.0000 -0.0000 -1.0000
vn -1.0000 -0.0000 -0.0000
vn -0.0000 -0.0000 1.0000
vn 1.0000 -0.0000 -0.0000
vn -0.0000 -1.0000 -0.0000
vn -0.0000 1.0000 -0.0000
vt 0.625000 0.875000
vt 0.000000 0.500000
vt 0.312500 0.625000
vt 0.625000 1.000000
vt 0.000000 0.625000
vt 0.312500 0.812500
vt 0.312500 1.000000
vt 0.500000 0.750000
vt 0.000000 0.812500
vt 0.312500 0.875000
vt 0.500000 0.625000
vt 0.000000 0.625000
vt 0.312500 0.750000
vt 0.625000 0.875000
vt 0.000000 1.000000
vt 0.312500 0.625000
vt 0.625000 0.750000
vt 0.000000 0.812500
vt 0.312500 0.875000
vt 0.187500 0.625000
vt 0.312500 1.000000
vt 0.312500 0.750000
vt 0.187500 0.500000
vt 0.312500 0.812500
vt 0.437500 0.343750
vt 0.562500 0.593750
vt 0.562500 0.625000
vt 0.437500 0.500000
vt 0.562500 0.750000
vt 0.562500 0.687500
vt 0.375000 0.500000
vt 0.500000 0.500000
vt 0.500000 0.687500
vt 0.375000 0.343750
vt 0.500000 0.343750
vt 0.500000 0.625000
vt 0.437500 0.500000
vt 0.562500 0.500000
vt 0.500000 0.750000
vt 0.437500 0.343750
vt 0.562500 0.343750
vt 0.500000 0.687500
vt 0.500000 0.500000
vt 0.625000 0.750000
vt 0.562500 0.750000
vt 0.500000 0.343750
vt 0.625000 0.593750
vt 0.562500 0.687500
vt 0.296875 0.515625
vt 0.000000 0.390625
vt 0.359375 0.390625
vt 0.296875 0.625000
vt 0.000000 0.500000
vt 0.234375 0.390625
vt 0.187500 0.625000
vt 0.421875 0.625000
vt 0.125000 0.390625
vt 0.187500 0.515625
vt 0.421875 0.515625
vt 0.250000 0.390625
vt 0.312500 0.625000
vt 0.546875 0.625000
vt 0.125000 0.500000
vt 0.312500 0.515625
vt 0.546875 0.515625
vt 0.250000 0.500000
vt 0.437500 0.625000
vt 0.109375 0.500000
vt 0.234375 0.500000
vt 0.437500 0.515625
vt 0.109375 0.390625
vt 0.359375 0.500000
vt 0.609375 0.515625
vt 0.062500 0.296875
vt 0.203125 0.343750
vt 0.609375 0.593750
vt 0.062500 0.375000
vt 0.671875 0.843750
vt 0.562500 0.593750
vt 0.656250 1.000000
vt 0.625000 0.843750
vt 0.562500 0.515625
vt 0.656250 0.921875
vt 0.156250 0.343750
vt 0.625000 1.000000
vt 0.609375 0.500000
vt 0.625000 0.875000
vt 0.625000 0.921875
vt 0.609375 0.421875
vt 0.156250 0.375000
vt 0.562500 0.500000
vt 0.093750 0.375000
vt 0.671875 0.875000
vt 0.562500 0.421875
vt 0.093750 0.296875
vt 0.203125 0.375000
vt 0.343750 0.343750
vt 0.625000 0.781250
vt 0.656250 0.734375
vt 0.343750 0.375000
vt 0.625000 0.812500
vt 0.250000 0.328125
vt 0.312500 0.375000
vt 0.671875 0.843750
vt 0.218750 0.328125
vt 0.312500 0.343750
vt 0.671875 0.812500
vt 0.625000 0.734375
vt 0.625000 0.843750
vt 0.656250 0.687500
vt 0.218750 0.375000
vt 0.625000 0.812500
vt 0.656250 0.656250
vt 0.625000 0.781250
vt 0.625000 0.687500
vt 0.671875 0.812500
vt 0.250000 0.375000
vt 0.625000 0.656250
vt 0.671875 0.781250
vt 0.656250 0.781250
vt 0.296875 0.343750
vt 0.625000 0.875000
vt 0.046875 0.312500
vt 0.296875 0.375000
vt 0.625000 0.906250
vt 0.609375 0.343750
vt 0.250000 0.375000
vt 0.156250 0.375000
vt 0.562500 0.343750
vt 0.250000 0.343750
vt 0.156250 0.343750
vt 0.000000 0.312500
vt 0.093750 0.375000
vt 0.671875 0.718750
vt 0.562500 0.406250
vt 0.093750 0.343750
vt 0.671875 0.687500
vt 0.000000 0.375000
vt 0.625000 0.718750
vt 0.687500 0.906250
vt 0.609375 0.406250
vt 0.625000 0.687500
vt 0.687500 0.875000
vt 0.046875 0.375000
s 1
usemtl Lunar_FlamingoRing
f 1/1/1 2/4/1 3/7/1
f 4/10/1 1/1/1 3/7/1
f 4/11/2 3/8/2 5/13/2
f 6/16/2 4/11/2 5/13/2
f 6/17/3 5/14/3 7/19/3
f 8/22/3 6/17/3 7/19/3
f 8/23/4 7/20/4 2/5/4
f 1/2/4 8/23/4 2/5/4
f 5/15/5 3/9/5 2/6/5
f 7/21/5 5/15/5 2/6/5
f 4/12/6 6/18/6 8/24/6
f 1/3/6 4/12/6 8/24/6
f 9/25/1 10/28/1 11/31/1
f 12/34/1 9/25/1 11/31/1
f 12/35/2 11/32/2 13/37/2
f 14/40/2 12/35/2 13/37/2
f 14/41/3 13/38/3 15/43/3
f 16/46/3 14/41/3 15/43/3
f 16/47/4 15/44/4 10/29/4
f 9/26/4 16/47/4 10/29/4
f 13/39/5 11/33/5 10/30/5
f 15/45/5 13/39/5 10/30/5
f 12/36/6 14/42/6 16/48/6
f 9/27/6 12/36/6 16/48/6
f 17/49/1 18/52/1 19/55/1
f 20/58/1 17/49/1 19/55/1
f 20/59/2 19/56/2 21/61/2
f 22/64/2 20/59/2 21/61/2
f 22/65/3 21/62/3 23/67/3
f 24/70/3 22/65/3 23/67/3
f 24/71/4 23/68/4 18/53/4
f 17/50/4 24/71/4 18/53/4
f 21/63/5 19/57/5 18/54/5
f 23/69/5 21/63/5 18/54/5
f 20/60/6 22/66/6 24/72/6
f 17/51/6 20/60/6 24/72/6
f 25/73/1 26/76/1 27/79/1
f 28/82/1 25/73/1 27/79/1
f 28/83/2 27/80/2 29/85/2
f 30/88/2 28/83/2 29/85/2
f 30/89/3 29/86/3 31/91/3
f 32/94/3 30/89/3 31/91/3
f 32/95/4 31/92/4 26/77/4
f 25/74/4 32/95/4 26/77/4
f 29/87/5 27/81/5 26/78/5
f 31/93/5 29/87/5 26/78/5
f 28/84/6 30/90/6 32/96/6
f 25/75/6 28/84/6 32/96/6
f 33/97/1 34/100/1 35/103/1
f 36/106/1 33/97/1 35/103/1
f 36/107/2 35/104/2 37/109/2
f 38/112/2 36/107/2 37/109/2
f 38/113/3 37/110/3 39/115/3
f 40/118/3 38/113/3 39/115/3
f 40/119/4 39/116/4 34/101/4
f 33/98/4 40/119/4 34/101/4
f 37/111/5 35/105/5 34/102/5
f 39/117/5 37/111/5 34/102/5
f 36/108/6 38/114/6 40/120/6
f 33/99/6 36/108/6 40/120/6
f 41/121/1 42/124/1 43/127/1
f 44/130/1 41/121/1 43/127/1
f 44/131/2 43/128/2 45/133/2
f 46/136/2 44/131/2 45/133/2
f 46/137/3 45/134/3 47/139/3
f 48/142/3 46/137/3 47/139/3
f 48/143/4 47/140/4 42/125/4
f 41/122/4 48/143/4 42/125/4
f 45/135/5 43/129/5 42/126/5
f 47/141/5 45/135/5 42/126/5
f 44/132/6 46/138/6 48/144/6
f 41/123/6 44/132/6 48/144/6
