# Blender 3.4.1
# www.blender.org
mtllib lunar_leprechaun_hat_necklace.mtl
o lunar_leprechaun_hat_necklace
v 0.015625 -1.242188 0.140687
v 0.015625 -1.242188 0.140687
v 0.015625 -1.226562 0.140687
v 0.015625 -1.226562 0.140687
v -0.015625 -1.242188 0.140687
v -0.015625 -1.242188 0.140687
v -0.015625 -1.226562 0.140687
v -0.015625 -1.226562 0.140687
v 0.200591 -1.514900 0.128125
v 0.200591 -1.514900 0.140625
v 0.212622 -1.511507 0.128125
v 0.212622 -1.511507 0.140625
v 0.186171 -1.463769 0.140625
v 0.186171 -1.463769 0.128125
v 0.198201 -1.460376 0.140625
v 0.198201 -1.460376 0.128125
v 0.186782 -1.465461 0.128125
v 0.186782 -1.465461 0.140625
v 0.198201 -1.460376 0.128125
v 0.198201 -1.460376 0.140625
v 0.161361 -1.408364 0.140625
v 0.161361 -1.408364 0.128125
v 0.172780 -1.403280 0.140625
v 0.172780 -1.403280 0.128125
v 0.162797 -1.410802 0.128125
v 0.162797 -1.410802 0.140625
v 0.172780 -1.403280 0.128125
v 0.172780 -1.403280 0.140625
v 0.125184 -1.360888 0.140625
v 0.125184 -1.360888 0.128125
v 0.135167 -1.353365 0.140625
v 0.135167 -1.353365 0.128125
v 0.127732 -1.363413 0.128125
v 0.127732 -1.363413 0.140625
v 0.135167 -1.353365 0.128125
v 0.135167 -1.353365 0.140625
v 0.077490 -1.326237 0.140625
v 0.077490 -1.326237 0.128125
v 0.084926 -1.316188 0.140625
v 0.084926 -1.316188 0.128125
v 0.081376 -1.328174 0.128125
v 0.081376 -1.328174 0.140625
v 0.084926 -1.316188 0.128125
v 0.084926 -1.316188 0.140625
v 0.021449 -1.310423 0.140625
v 0.021449 -1.310423 0.128125
v 0.025000 -1.298437 0.140625
v 0.025000 -1.298437 0.128125
v 0.025000 -1.310938 0.128125
v 0.025000 -1.310938 0.140625
v 0.025000 -1.298437 0.128125
v 0.025000 -1.298437 0.140625
v -0.025000 -1.310938 0.140625
v -0.025000 -1.310938 0.128125
v -0.025000 -1.298437 0.140625
v -0.025000 -1.298437 0.128125
v 0.015625 -1.320312 0.118750
v 0.015625 -1.320312 0.150000
v 0.015625 -1.289062 0.118750
v 0.015625 -1.289062 0.150000
v -0.015625 -1.320312 0.150000
v -0.015625 -1.320312 0.118750
v -0.015625 -1.289062 0.150000
v -0.015625 -1.289062 0.118750
v -0.021450 -1.310423 0.128125
v -0.021450 -1.310423 0.140625
v -0.025000 -1.298437 0.128125
v -0.025000 -1.298437 0.140625
v -0.081376 -1.328174 0.140625
v -0.081376 -1.328174 0.128125
v -0.084927 -1.316188 0.140625
v -0.084927 -1.316188 0.128125
v -0.077491 -1.326237 0.128125
v -0.077491 -1.326237 0.140625
v -0.084927 -1.316188 0.128125
v -0.084927 -1.316188 0.140625
v -0.127732 -1.363413 0.140625
v -0.127732 -1.363413 0.128125
v -0.135168 -1.353365 0.140625
v -0.135168 -1.353365 0.128125
v -0.125185 -1.360888 0.128125
v -0.125185 -1.360888 0.140625
v -0.135168 -1.353365 0.128125
v -0.135168 -1.353365 0.140625
v -0.162798 -1.410802 0.140625
v -0.162798 -1.410802 0.128125
v -0.172781 -1.403280 0.140625
v -0.172781 -1.403280 0.128125
v -0.161362 -1.408364 0.128125
v -0.161362 -1.408364 0.140625
v -0.172781 -1.403280 0.128125
v -0.172781 -1.403280 0.140625
v -0.186783 -1.465460 0.140625
v -0.186783 -1.465460 0.128125
v -0.198202 -1.460376 0.140625
v -0.198202 -1.460376 0.128125
v -0.186172 -1.463769 0.128125
v -0.186172 -1.463769 0.140625
v -0.198202 -1.460376 0.128125
v -0.198202 -1.460376 0.140625
v -0.200592 -1.514899 0.140625
v -0.200592 -1.514899 0.128125
v -0.212623 -1.511507 0.140625
v -0.212623 -1.511507 0.128125
v 0.046875 -1.226562 0.125000
v 0.046875 -1.226562 0.140625
v 0.046875 -1.210938 0.125000
v 0.046875 -1.210938 0.140625
v -0.046875 -1.226562 0.140625
v -0.046875 -1.226562 0.125000
v -0.046875 -1.210938 0.140625
v -0.046875 -1.210938 0.125000
v 0.031250 -1.289062 0.125000
v 0.031250 -1.289062 0.140625
v 0.031250 -1.242188 0.125000
v 0.031250 -1.242188 0.140625
v -0.031250 -1.289062 0.140625
v -0.031250 -1.289062 0.125000
v -0.031250 -1.242188 0.140625
v -0.031250 -1.242188 0.125000
v 0.031250 -1.242188 0.125000
v 0.031250 -1.242188 0.140625
v 0.031250 -1.226562 0.125000
v 0.031250 -1.226562 0.140625
v -0.031250 -1.242188 0.140625
v -0.031250 -1.242188 0.125000
v -0.031250 -1.226562 0.140625
v -0.031250 -1.226562 0.125000
vn -0.0000 -0.0000 1.0000
vn -0.0000 -1.0000 -0.0000
vn 1.0000 -0.0000 -0.0000
vn -0.0000 -0.0000 -1.0000
vn -1.0000 -0.0000 -0.0000
vn -0.0000 1.0000 -0.0000
vn 0.2714 -0.9625 -0.0000
vn -0.2714 0.9625 -0.0000
vn -0.9625 -0.2714 -0.0000
vn 0.9625 0.2714 -0.0000
vn 0.4067 -0.9135 -0.0000
vn -0.4067 0.9135 -0.0000
vn -0.9135 -0.4067 -0.0000
vn 0.9135 0.4067 -0.0000
vn 0.6018 -0.7986 -0.0000
vn -0.6018 0.7986 -0.0000
vn -0.7986 -0.6018 -0.0000
vn 0.7986 0.6018 -0.0000
vn 0.8039 -0.5948 -0.0000
vn -0.8039 0.5948 -0.0000
vn -0.5948 -0.8039 -0.0000
vn 0.5948 0.8039 -0.0000
vn 0.9588 -0.2840 -0.0000
vn -0.9588 0.2840 -0.0000
vn -0.2840 -0.9588 -0.0000
vn 0.2840 0.9588 -0.0000
vn 0.9588 0.2840 -0.0000
vn -0.9588 -0.2840 -0.0000
vn 0.2840 -0.9588 -0.0000
vn -0.2840 0.9588 -0.0000
vn 0.8039 0.5948 -0.0000
vn -0.8039 -0.5948 -0.0000
vn 0.5948 -0.8039 -0.0000
vn -0.5948 0.8039 -0.0000
vn 0.6018 0.7986 -0.0000
vn -0.6018 -0.7986 -0.0000
vn 0.7986 -0.6018 -0.0000
vn -0.7986 0.6018 -0.0000
vn 0.4067 0.9135 -0.0000
vn -0.4067 -0.9135 -0.0000
vn 0.9135 -0.4067 -0.0000
vn -0.9135 0.4067 -0.0000
vn 0.2714 0.9625 -0.0000
vn -0.2714 -0.9625 -0.0000
vn 0.9625 -0.2714 -0.0000
vn -0.9625 0.2714 -0.0000
vt 0.531250 0.875000
vt 0.000000 1.000000
vt 0.125000 0.500000
vt 0.000000 1.000000
vt 0.000000 0.984375
vt 0.531250 0.859375
vt 0.000000 1.000000
vt 0.125000 0.484375
vt 0.000000 0.984375
vt 0.000000 1.000000
vt 0.000000 1.000000
vt 0.031250 1.000000
vt 0.156250 0.500000
vt 0.500000 0.875000
vt 0.000000 1.000000
vt 0.031250 1.000000
vt 0.156250 0.484375
vt 0.000000 0.984375
vt 0.031250 1.000000
vt 0.500000 0.859375
vt 0.031250 1.000000
vt 0.000000 0.984375
vt 0.187500 0.500000
vt 0.234375 0.562500
vt 0.437500 0.812500
vt 0.437500 0.875000
vt 0.203125 0.500000
vt 0.437500 0.796875
vt 0.187500 0.484375
vt 0.234375 0.546875
vt 0.250000 0.562500
vt 0.437500 0.859375
vt 0.203125 0.484375
vt 0.250000 0.546875
vt 0.484375 0.875000
vt 0.500000 0.812500
vt 0.484375 0.796875
vt 0.187500 0.562500
vt 0.484375 0.812500
vt 0.515625 0.812500
vt 0.500000 0.796875
vt 0.296875 0.546875
vt 0.484375 0.859375
vt 0.187500 0.546875
vt 0.515625 0.796875
vt 0.296875 0.562500
vt 0.250000 0.500000
vt 0.250000 1.000000
vt 0.062500 0.812500
vt 0.000000 0.812500
vt 0.265625 0.500000
vt 0.062500 0.796875
vt 0.250000 0.484375
vt 0.250000 0.984375
vt 0.187500 0.937500
vt 0.000000 0.796875
vt 0.265625 0.484375
vt 0.187500 0.921875
vt 0.062500 0.812500
vt 0.500000 0.750000
vt 0.125000 0.796875
vt 0.125000 0.812500
vt 0.187500 1.000000
vt 0.515625 0.750000
vt 0.500000 0.734375
vt 0.250000 0.921875
vt 0.062500 0.796875
vt 0.187500 0.984375
vt 0.515625 0.734375
vt 0.250000 0.937500
vt 0.312500 0.500000
vt 0.250000 0.812500
vt 0.000000 0.750000
vt 0.125000 0.812500
vt 0.328125 0.500000
vt 0.000000 0.734375
vt 0.312500 0.484375
vt 0.250000 0.796875
vt 0.250000 1.000000
vt 0.125000 0.796875
vt 0.328125 0.484375
vt 0.250000 0.984375
vt 0.187500 0.812500
vt 0.500000 0.687500
vt 0.062500 0.734375
vt 0.187500 0.812500
vt 0.062500 0.750000
vt 0.515625 0.687500
vt 0.500000 0.671875
vt 0.312500 0.984375
vt 0.187500 0.796875
vt 0.187500 0.796875
vt 0.515625 0.671875
vt 0.312500 1.000000
vt 0.375000 0.500000
vt 0.312500 0.937500
vt 0.125000 0.750000
vt 0.062500 0.750000
vt 0.390625 0.500000
vt 0.125000 0.734375
vt 0.375000 0.484375
vt 0.312500 0.921875
vt 0.250000 0.875000
vt 0.062500 0.734375
vt 0.390625 0.484375
vt 0.250000 0.859375
vt 0.125000 0.750000
vt 0.500000 0.625000
vt 0.187500 0.734375
vt 0.187500 0.750000
vt 0.250000 0.937500
vt 0.515625 0.625000
vt 0.500000 0.609375
vt 0.312500 0.859375
vt 0.125000 0.734375
vt 0.250000 0.921875
vt 0.515625 0.609375
vt 0.312500 0.875000
vt 0.437500 0.500000
vt 0.312500 0.812500
vt 0.250000 0.750000
vt 0.187500 0.750000
vt 0.453125 0.500000
vt 0.250000 0.734375
vt 0.437500 0.484375
vt 0.312500 0.796875
vt 0.000000 0.687500
vt 0.187500 0.734375
vt 0.453125 0.484375
vt 0.000000 0.671875
vt 0.250000 0.750000
vt 0.500000 0.562500
vt 0.312500 0.734375
vt 0.312500 0.750000
vt 0.250000 0.812500
vt 0.515625 0.562500
vt 0.500000 0.546875
vt 0.062500 0.671875
vt 0.250000 0.734375
vt 0.250000 0.796875
vt 0.515625 0.546875
vt 0.062500 0.687500
vt 0.500000 0.500000
vt 0.359375 0.562500
vt 0.437500 0.687500
vt 0.437500 0.750000
vt 0.515625 0.500000
vt 0.437500 0.671875
vt 0.500000 0.484375
vt 0.359375 0.546875
vt 0.375000 0.562500
vt 0.437500 0.734375
vt 0.515625 0.484375
vt 0.375000 0.546875
vt 0.484375 0.750000
vt 0.000000 0.437500
vt 0.484375 0.671875
vt 0.484375 0.687500
vt 0.312500 0.562500
vt 0.015625 0.437500
vt 0.000000 0.421875
vt 0.421875 0.546875
vt 0.484375 0.734375
vt 0.312500 0.546875
vt 0.015625 0.421875
vt 0.421875 0.562500
vt 0.062500 0.687500
vt 0.343750 0.937500
vt 0.312500 0.875000
vt 0.312500 1.000000
vt 0.093750 0.687500
vt 0.312500 0.843750
vt 0.062500 0.656250
vt 0.343750 0.906250
vt 0.187500 0.687500
vt 0.312500 0.968750
vt 0.093750 0.656250
vt 0.187500 0.656250
vt 0.343750 1.000000
vt 0.125000 0.687500
vt 0.343750 0.843750
vt 0.343750 0.875000
vt 0.312500 0.937500
vt 0.156250 0.687500
vt 0.125000 0.656250
vt 0.218750 0.656250
vt 0.343750 0.968750
vt 0.312500 0.906250
vt 0.156250 0.656250
vt 0.218750 0.687500
vt 0.562500 1.000000
vt 0.312500 0.687500
vt 0.312500 0.750000
vt 0.312500 0.812500
vt 0.578125 1.000000
vt 0.312500 0.734375
vt 0.562500 0.984375
vt 0.312500 0.671875
vt 0.312500 0.687500
vt 0.312500 0.796875
vt 0.578125 0.984375
vt 0.312500 0.671875
vt 0.375000 0.812500
vt 0.062500 0.437500
vt 0.375000 0.734375
vt 0.250000 0.687500
vt 0.375000 0.750000
vt 0.078125 0.437500
vt 0.062500 0.421875
vt 0.375000 0.671875
vt 0.375000 0.796875
vt 0.250000 0.671875
vt 0.078125 0.421875
vt 0.375000 0.687500
vt 0.562500 0.937500
vt 0.437500 1.000000
vt 0.062500 0.625000
vt 0.000000 0.625000
vt 0.578125 0.937500
vt 0.062500 0.609375
vt 0.562500 0.921875
vt 0.437500 0.984375
vt 0.375000 0.937500
vt 0.000000 0.609375
vt 0.578125 0.921875
vt 0.375000 0.921875
vt 0.062500 0.625000
vt 0.125000 0.437500
vt 0.125000 0.609375
vt 0.375000 1.000000
vt 0.125000 0.625000
vt 0.140625 0.437500
vt 0.125000 0.421875
vt 0.437500 0.921875
vt 0.062500 0.609375
vt 0.375000 0.984375
vt 0.140625 0.421875
vt 0.437500 0.937500
vt 0.562500 0.875000
vt 0.437500 0.875000
vt 0.187500 0.625000
vt 0.125000 0.625000
vt 0.578125 0.875000
vt 0.187500 0.609375
vt 0.562500 0.859375
vt 0.437500 0.859375
vt 0.375000 0.812500
vt 0.125000 0.609375
vt 0.578125 0.859375
vt 0.375000 0.796875
vt 0.187500 0.625000
vt 0.187500 0.437500
vt 0.250000 0.609375
vt 0.250000 0.625000
vt 0.375000 0.875000
vt 0.203125 0.437500
vt 0.187500 0.421875
vt 0.437500 0.796875
vt 0.187500 0.609375
vt 0.375000 0.859375
vt 0.203125 0.421875
vt 0.437500 0.812500
vt 0.562500 0.812500
vt 0.437500 0.750000
vt 0.312500 0.625000
vt 0.250000 0.625000
vt 0.578125 0.812500
vt 0.312500 0.609375
vt 0.562500 0.796875
vt 0.437500 0.734375
vt 0.375000 0.687500
vt 0.250000 0.609375
vt 0.578125 0.796875
vt 0.375000 0.671875
vt 0.312500 0.625000
vt 0.250000 0.437500
vt 0.375000 0.609375
vt 0.375000 0.750000
vt 0.375000 0.625000
vt 0.265625 0.437500
vt 0.250000 0.421875
vt 0.437500 0.671875
vt 0.312500 0.609375
vt 0.375000 0.734375
vt 0.265625 0.421875
vt 0.437500 0.687500
vt 0.562500 0.750000
vt 0.484375 0.562500
vt 0.000000 0.500000
vt 0.437500 0.625000
vt 0.578125 0.750000
vt 0.000000 0.484375
vt 0.562500 0.734375
vt 0.484375 0.546875
vt 0.500000 1.000000
vt 0.437500 0.609375
vt 0.578125 0.734375
vt 0.500000 0.984375
vt 0.484375 0.625000
vt 0.312500 0.437500
vt 0.046875 0.484375
vt 0.046875 0.500000
vt 0.437500 0.562500
vt 0.328125 0.437500
vt 0.312500 0.421875
vt 0.546875 0.984375
vt 0.484375 0.609375
vt 0.437500 0.546875
vt 0.328125 0.421875
vt 0.546875 1.000000
vt 0.562500 0.687500
vt 0.156250 0.937500
vt 0.000000 0.875000
vt 0.062500 1.000000
vt 0.578125 0.687500
vt 0.000000 0.859375
vt 0.562500 0.671875
vt 0.156250 0.921875
vt 0.125000 0.875000
vt 0.062500 0.984375
vt 0.578125 0.671875
vt 0.125000 0.859375
vt 0.156250 1.000000
vt 0.375000 0.437500
vt 0.093750 0.859375
vt 0.093750 0.875000
vt 0.062500 0.937500
vt 0.390625 0.437500
vt 0.375000 0.421875
vt 0.218750 0.859375
vt 0.156250 0.984375
vt 0.062500 0.921875
vt 0.390625 0.421875
vt 0.218750 0.875000
vt 0.062500 0.500000
vt 0.062500 0.937500
vt 0.375000 0.625000
vt 0.000000 1.000000
vt 0.078125 0.500000
vt 0.375000 0.609375
vt 0.062500 0.453125
vt 0.062500 0.890625
vt 0.000000 0.562500
vt 0.000000 0.953125
vt 0.078125 0.453125
vt 0.000000 0.546875
vt 0.062500 1.000000
vt 0.500000 0.937500
vt 0.437500 0.609375
vt 0.437500 0.625000
vt 0.000000 0.937500
vt 0.515625 0.937500
vt 0.500000 0.890625
vt 0.062500 0.546875
vt 0.062500 0.953125
vt 0.000000 0.890625
vt 0.515625 0.890625
vt 0.062500 0.562500
vt 0.562500 0.625000
vt 0.125000 0.562500
vt 0.437500 0.937500
vt 0.437500 1.000000
vt 0.578125 0.625000
vt 0.437500 0.921875
vt 0.562500 0.609375
vt 0.125000 0.546875
vt 0.125000 0.562500
vt 0.437500 0.984375
vt 0.578125 0.609375
vt 0.125000 0.546875
vt 0.500000 1.000000
vt 0.437500 0.437500
vt 0.500000 0.921875
vt 0.500000 0.937500
vt 0.062500 0.562500
vt 0.453125 0.437500
vt 0.437500 0.421875
vt 0.187500 0.546875
vt 0.500000 0.984375
vt 0.062500 0.546875
vt 0.453125 0.421875
vt 0.187500 0.562500
s 0
usemtl lunar_leprechaun_hat_necklace
f 7/17/1 2/3/1 4/8/1
f 3/5/2 2/4/1 1/2/3
f 3/6/4 6/14/4 8/20/4
f 7/18/2 6/15/1 5/11/5
f 6/16/2 2/4/5 5/12/1
f 7/19/6 3/7/5 8/21/1
f 15/43/1 10/26/1 12/32/1
f 12/33/7 9/23/7 11/29/7
f 16/44/4 9/24/4 14/38/4
f 16/45/8 13/36/8 15/41/8
f 9/25/9 13/37/9 14/39/9
f 12/34/10 16/46/10 15/42/10
f 20/56/1 21/59/1 18/50/1
f 20/57/11 17/47/11 19/53/11
f 19/54/4 22/63/4 24/68/4
f 24/69/12 21/60/12 23/65/12
f 17/49/13 21/61/13 22/62/13
f 20/58/14 24/70/14 23/66/14
f 31/91/1 26/74/1 28/80/1
f 28/81/15 25/71/15 27/77/15
f 32/92/4 25/72/4 30/86/4
f 32/93/16 29/84/16 31/89/16
f 25/73/17 29/85/17 30/87/17
f 28/82/18 32/94/18 31/90/18
f 36/104/1 37/107/1 34/98/1
f 36/105/19 33/95/19 35/101/19
f 35/102/4 38/111/4 40/116/4
f 40/117/20 37/108/20 39/113/20
f 33/97/21 37/109/21 38/110/21
f 36/106/22 40/118/22 39/114/22
f 44/128/1 45/131/1 42/122/1
f 44/129/23 41/119/23 43/125/23
f 43/126/4 46/135/4 48/140/4
f 48/141/24 45/132/24 47/137/24
f 41/121/25 45/133/25 46/134/25
f 44/130/26 48/142/26 47/138/26
f 55/163/1 50/146/1 52/152/1
f 52/153/3 49/143/3 51/149/3
f 51/150/4 54/159/4 56/164/4
f 56/165/5 53/156/5 55/161/5
f 49/145/2 53/157/2 54/158/2
f 52/154/6 56/166/6 55/162/6
f 63/187/1 58/170/1 60/176/1
f 60/177/3 57/167/3 59/173/3
f 59/174/4 62/183/4 64/188/4
f 64/189/5 61/180/5 63/185/5
f 57/169/2 61/181/2 62/182/2
f 60/178/6 64/190/6 63/186/6
f 71/211/1 66/194/1 68/200/1
f 68/201/27 65/191/27 67/197/27
f 72/212/4 65/192/4 70/206/4
f 72/213/28 69/204/28 71/209/28
f 65/193/29 69/205/29 70/207/29
f 68/202/30 72/214/30 71/210/30
f 79/235/1 74/218/1 76/224/1
f 76/225/31 73/215/31 75/221/31
f 80/236/4 73/216/4 78/230/4
f 80/237/32 77/228/32 79/233/32
f 73/217/33 77/229/33 78/231/33
f 76/226/34 80/238/34 79/234/34
f 84/248/1 85/251/1 82/242/1
f 84/249/35 81/239/35 83/245/35
f 83/246/4 86/255/4 88/260/4
f 88/261/36 85/252/36 87/257/36
f 81/241/37 85/253/37 86/254/37
f 84/250/38 88/262/38 87/258/38
f 95/283/1 90/266/1 92/272/1
f 92/273/39 89/263/39 91/269/39
f 96/284/4 89/264/4 94/278/4
f 96/285/40 93/276/40 95/281/40
f 89/265/41 93/277/41 94/279/41
f 92/274/42 96/286/42 95/282/42
f 100/296/1 101/299/1 98/290/1
f 100/297/43 97/287/43 99/293/43
f 99/294/4 102/303/4 104/308/4
f 104/309/44 101/300/44 103/305/44
f 97/289/45 101/301/45 102/302/45
f 100/298/46 104/310/46 103/306/46
f 111/331/1 106/314/1 108/320/1
f 108/321/3 105/311/3 107/317/3
f 107/318/4 110/327/4 112/332/4
f 112/333/5 109/324/5 111/329/5
f 105/313/2 109/325/2 110/326/2
f 108/322/6 112/334/6 111/330/6
f 119/355/1 114/338/1 116/344/1
f 116/345/3 113/335/3 115/341/3
f 115/342/4 118/351/4 120/356/4
f 120/357/5 117/348/5 119/353/5
f 113/337/2 117/349/2 118/350/2
f 116/346/6 120/358/6 119/354/6
f 127/379/1 122/362/1 124/368/1
f 124/369/3 121/359/3 123/365/3
f 123/366/4 126/375/4 128/380/4
f 128/381/5 125/372/5 127/377/5
f 121/361/2 125/373/2 126/374/2
f 124/370/6 128/382/6 127/378/6
f 7/17/1 5/13/1 2/3/1
f 3/5/1 4/9/3 2/4/6
f 3/6/4 1/1/4 6/14/4
f 7/18/1 8/22/5 6/15/6
f 6/16/3 1/2/1 2/4/2
f 7/19/3 4/10/1 3/7/6
f 15/43/1 13/35/1 10/26/1
f 12/33/7 10/27/7 9/23/7
f 16/44/4 11/30/4 9/24/4
f 16/45/8 14/40/8 13/36/8
f 9/25/9 10/28/9 13/37/9
f 12/34/10 11/31/10 16/46/10
f 20/56/1 23/67/1 21/59/1
f 20/57/11 18/51/11 17/47/11
f 19/54/4 17/48/4 22/63/4
f 24/69/12 22/64/12 21/60/12
f 17/49/13 18/52/13 21/61/13
f 20/58/14 19/55/14 24/70/14
f 31/91/1 29/83/1 26/74/1
f 28/81/15 26/75/15 25/71/15
f 32/92/4 27/78/4 25/72/4
f 32/93/16 30/88/16 29/84/16
f 25/73/17 26/76/17 29/85/17
f 28/82/18 27/79/18 32/94/18
f 36/104/1 39/115/1 37/107/1
f 36/105/19 34/99/19 33/95/19
f 35/102/4 33/96/4 38/111/4
f 40/117/20 38/112/20 37/108/20
f 33/97/21 34/100/21 37/109/21
f 36/106/22 35/103/22 40/118/22
f 44/128/1 47/139/1 45/131/1
f 44/129/23 42/123/23 41/119/23
f 43/126/4 41/120/4 46/135/4
f 48/141/24 46/136/24 45/132/24
f 41/121/25 42/124/25 45/133/25
f 44/130/26 43/127/26 48/142/26
f 55/163/1 53/155/1 50/146/1
f 52/153/3 50/147/3 49/143/3
f 51/150/4 49/144/4 54/159/4
f 56/165/5 54/160/5 53/156/5
f 49/145/2 50/148/2 53/157/2
f 52/154/6 51/151/6 56/166/6
f 63/187/1 61/179/1 58/170/1
f 60/177/3 58/171/3 57/167/3
f 59/174/4 57/168/4 62/183/4
f 64/189/5 62/184/5 61/180/5
f 57/169/2 58/172/2 61/181/2
f 60/178/6 59/175/6 64/190/6
f 71/211/1 69/203/1 66/194/1
f 68/201/27 66/195/27 65/191/27
f 72/212/4 67/198/4 65/192/4
f 72/213/28 70/208/28 69/204/28
f 65/193/29 66/196/29 69/205/29
f 68/202/30 67/199/30 72/214/30
f 79/235/1 77/227/1 74/218/1
f 76/225/31 74/219/31 73/215/31
f 80/236/4 75/222/4 73/216/4
f 80/237/32 78/232/32 77/228/32
f 73/217/33 74/220/33 77/229/33
f 76/226/34 75/223/34 80/238/34
f 84/248/1 87/259/1 85/251/1
f 84/249/35 82/243/35 81/239/35
f 83/246/4 81/240/4 86/255/4
f 88/261/36 86/256/36 85/252/36
f 81/241/37 82/244/37 85/253/37
f 84/250/38 83/247/38 88/262/38
f 95/283/1 93/275/1 90/266/1
f 92/273/39 90/267/39 89/263/39
f 96/284/4 91/270/4 89/264/4
f 96/285/40 94/280/40 93/276/40
f 89/265/41 90/268/41 93/277/41
f 92/274/42 91/271/42 96/286/42
f 100/296/1 103/307/1 101/299/1
f 100/297/43 98/291/43 97/287/43
f 99/294/4 97/288/4 102/303/4
f 104/309/44 102/304/44 101/300/44
f 97/289/45 98/292/45 101/301/45
f 100/298/46 99/295/46 104/310/46
f 111/331/1 109/323/1 106/314/1
f 108/321/3 106/315/3 105/311/3
f 107/318/4 105/312/4 110/327/4
f 112/333/5 110/328/5 109/324/5
f 105/313/2 106/316/2 109/325/2
f 108/322/6 107/319/6 112/334/6
f 119/355/1 117/347/1 114/338/1
f 116/345/3 114/339/3 113/335/3
f 115/342/4 113/336/4 118/351/4
f 120/357/5 118/352/5 117/348/5
f 113/337/2 114/340/2 117/349/2
f 116/346/6 115/343/6 120/358/6
f 127/379/1 125/371/1 122/362/1
f 124/369/3 122/363/3 121/359/3
f 123/366/4 121/360/4 126/375/4
f 128/381/5 126/376/5 125/372/5
f 121/361/2 122/364/2 125/373/2
f 124/370/6 123/367/6 128/382/6
