# Blender v2.93.0 OBJ File: 'Lunar_RamHorns.blend'
# www.blender.org
mtllib Lunar_RamHorns.mtl
o RamHorns_NurbsPath.003
v -0.235144 -0.039849 0.074533
v -0.281523 -0.084774 0.171518
v -0.361795 0.002593 0.160109
v -0.298108 0.043701 0.052961
v -0.232338 -0.085955 0.016477
v -0.312034 -0.166410 0.076188
v -0.411000 -0.091299 0.045305
v -0.331305 -0.010844 -0.014406
v -0.232822 -0.116815 -0.060585
v -0.324492 -0.218855 -0.030525
v -0.429988 -0.126556 -0.038934
v -0.338318 -0.024517 -0.068994
v -0.234666 -0.117730 -0.125839
v -0.333093 -0.223636 -0.139289
v -0.439463 -0.127902 -0.114686
v -0.341036 -0.021996 -0.101236
v -0.237938 -0.096051 -0.179494
v -0.337558 -0.185123 -0.233249
v -0.441521 -0.102671 -0.177206
v -0.341902 -0.013599 -0.123451
v -0.242526 -0.057026 -0.221107
v -0.338747 -0.117864 -0.299783
v -0.438202 -0.059107 -0.223584
v -0.341981 0.001732 -0.144908
v -0.248278 -0.005609 -0.249166
v -0.338128 -0.037210 -0.336880
v -0.431345 -0.004547 -0.253159
v -0.341495 0.027053 -0.165446
v -0.255132 0.052915 -0.262330
v -0.336932 0.046577 -0.347645
v -0.422462 0.055199 -0.266280
v -0.340662 0.061536 -0.180965
v -0.263109 0.113389 -0.260101
v -0.336019 0.126835 -0.335648
v -0.412747 0.115391 -0.263635
v -0.339836 0.101945 -0.188088
v -0.272278 0.171139 -0.242857
v -0.335982 0.198433 -0.304180
v -0.403103 0.172004 -0.246216
v -0.339399 0.144710 -0.184892
v -0.282744 0.222091 -0.211779
v -0.337205 0.257065 -0.256774
v -0.394163 0.221610 -0.215392
v -0.339702 0.186636 -0.170397
v -0.294638 0.262828 -0.168806
v -0.339870 0.299379 -0.197589
v -0.386296 0.261323 -0.172959
v -0.341065 0.224772 -0.144176
v -0.308110 0.290640 -0.116584
v -0.343952 0.323300 -0.131328
v -0.379612 0.288745 -0.121183
v -0.343771 0.256085 -0.106439
v -0.323330 0.303556 -0.058402
v -0.349256 0.328068 -0.062897
v -0.373964 0.301940 -0.062872
v -0.348039 0.277427 -0.058376
v -0.340492 0.300323 0.001863
v -0.355441 0.313970 0.002743
v -0.368943 0.299449 -0.001422
v -0.353994 0.285802 -0.002302
v -0.359815 0.280394 0.059751
v -0.362013 0.282194 0.060345
v -0.363877 0.280306 0.059168
v -0.361679 0.278505 0.058575
v -0.184623 -0.003226 0.117575
v -0.181521 0.068800 0.098861
v -0.201920 -0.024293 0.193168
v -0.215978 0.046782 0.174233
v 0.235144 -0.039849 0.074533
v 0.281523 -0.084774 0.171517
v 0.361795 0.002592 0.160109
v 0.298108 0.043701 0.052961
v 0.232338 -0.085955 0.016477
v 0.312033 -0.166411 0.076188
v 0.411000 -0.091300 0.045305
v 0.331305 -0.010844 -0.014406
v 0.232822 -0.116815 -0.060585
v 0.324492 -0.218855 -0.030525
v 0.429988 -0.126557 -0.038934
v 0.338318 -0.024517 -0.068994
v 0.234666 -0.117730 -0.125839
v 0.333093 -0.223636 -0.139289
v 0.439463 -0.127902 -0.114686
v 0.341036 -0.021996 -0.101236
v 0.237938 -0.096052 -0.179494
v 0.337558 -0.185124 -0.233249
v 0.441521 -0.102671 -0.177206
v 0.341901 -0.013599 -0.123451
v 0.242525 -0.057026 -0.221107
v 0.338747 -0.117865 -0.299783
v 0.438202 -0.059108 -0.223584
v 0.341980 0.001731 -0.144908
v 0.248278 -0.005609 -0.249166
v 0.338128 -0.037210 -0.336880
v 0.431345 -0.004548 -0.253159
v 0.341495 0.027053 -0.165446
v 0.255132 0.052914 -0.262330
v 0.336932 0.046577 -0.347645
v 0.422462 0.055199 -0.266280
v 0.340662 0.061536 -0.180965
v 0.263109 0.113389 -0.260101
v 0.336019 0.126835 -0.335648
v 0.412747 0.115390 -0.263635
v 0.339837 0.101944 -0.188088
v 0.272278 0.171139 -0.242857
v 0.335982 0.198433 -0.304180
v 0.403103 0.172003 -0.246216
v 0.339399 0.144709 -0.184893
v 0.282745 0.222091 -0.211779
v 0.337206 0.257064 -0.256774
v 0.394164 0.221609 -0.215392
v 0.339702 0.186636 -0.170397
v 0.294639 0.262827 -0.168806
v 0.339870 0.299378 -0.197589
v 0.386296 0.261322 -0.172959
v 0.341065 0.224771 -0.144176
v 0.308110 0.290640 -0.116584
v 0.343952 0.323299 -0.131328
v 0.379613 0.288744 -0.121183
v 0.343771 0.256085 -0.106439
v 0.323330 0.303555 -0.058402
v 0.349256 0.328068 -0.062897
v 0.373965 0.301940 -0.062872
v 0.348039 0.277427 -0.058376
v 0.340493 0.300322 0.001863
v 0.355442 0.313969 0.002743
v 0.368944 0.299448 -0.001422
v 0.353994 0.285801 -0.002302
v 0.359816 0.280393 0.059751
v 0.362014 0.282193 0.060345
v 0.363878 0.280305 0.059168
v 0.361680 0.278505 0.058575
v 0.184623 -0.003226 0.117575
v 0.181521 0.068800 0.098861
v 0.201920 -0.024293 0.193168
v 0.215978 0.046782 0.174233
vt 0.125000 0.460938
vt 0.156250 0.492188
vt 0.125000 0.492188
vt 0.273687 0.786652
vt 0.141719 0.658718
vt 0.267513 0.651929
vt 0.383336 0.621624
vt 0.267513 0.651929
vt 0.446029 0.931105
vt 0.266927 0.923468
vt 0.421230 0.773992
vt 0.273687 0.786652
vt 0.525284 0.741721
vt 0.422374 0.773459
vt 0.595979 0.895640
vt 0.525284 0.741721
vt 0.598865 0.694149
vt 0.448125 0.590002
vt 0.714050 0.821988
vt 0.598865 0.694149
vt 0.499347 0.541695
vt 0.480013 0.564275
vt 0.795285 0.721394
vt 0.646939 0.633552
vt 0.646939 0.633552
vt 0.515808 0.513152
vt 0.675413 0.565591
vt 0.675413 0.565591
vt 0.529413 0.474593
vt 0.838074 0.607831
vt 0.687173 0.492927
vt 0.687173 0.492927
vt 0.537306 0.427649
vt 0.846821 0.494102
vt 0.683834 0.418455
vt 0.683834 0.418455
vt 0.537409 0.375854
vt 0.828399 0.387254
vt 0.666468 0.345307
vt 0.666468 0.345307
vt 0.528565 0.322348
vt 0.788652 0.291223
vt 0.636092 0.276485
vt 0.636092 0.276485
vt 0.509965 0.269341
vt 0.732276 0.208736
vt 0.593803 0.214525
vt 0.593803 0.214525
vt 0.480776 0.218426
vt 0.663334 0.141782
vt 0.540749 0.161416
vt 0.540749 0.161416
vt 0.440187 0.171144
vt 0.585519 0.091584
vt 0.478171 0.118752
vt 0.478171 0.118752
vt 0.387776 0.129367
vt 0.502147 0.058614
vt 0.407513 0.087934
vt 0.407513 0.087934
vt 0.323798 0.095255
vt 0.416156 0.042913
vt 0.330536 0.070313
vt 0.330536 0.070313
vt 0.249087 0.071053
vt 0.330454 0.044554
vt 0.249415 0.067379
vt 0.249415 0.067379
vt 0.218750 0.406250
vt 0.070312 0.554688
vt 0.070312 0.406250
vt 0.141719 0.893940
vt 0.141719 0.779784
vt 0.141719 0.779784
vt 0.141719 0.658718
vt 0.125000 0.492188
vt 0.156250 0.460938
vt 0.125000 0.460938
vt 0.141719 0.658718
vt 0.273687 0.786652
vt 0.267513 0.651929
vt 0.383336 0.621624
vt 0.422374 0.773459
vt 0.446029 0.931105
vt 0.266927 0.923468
vt 0.421230 0.773992
vt 0.273687 0.786652
vt 0.267513 0.651929
vt 0.525284 0.741721
vt 0.595979 0.895640
vt 0.525284 0.741721
vt 0.448125 0.590002
vt 0.598865 0.694149
vt 0.714050 0.821988
vt 0.598865 0.694149
vt 0.480013 0.564275
vt 0.499347 0.541695
vt 0.646939 0.633552
vt 0.795285 0.721394
vt 0.646939 0.633552
vt 0.515808 0.513152
vt 0.675413 0.565591
vt 0.838074 0.607831
vt 0.675413 0.565591
vt 0.529413 0.474593
vt 0.687173 0.492927
vt 0.846821 0.494102
vt 0.687173 0.492927
vt 0.537306 0.427649
vt 0.683834 0.418455
vt 0.828399 0.387254
vt 0.683834 0.418455
vt 0.537409 0.375854
vt 0.666468 0.345307
vt 0.788652 0.291223
vt 0.666468 0.345307
vt 0.528565 0.322348
vt 0.636092 0.276485
vt 0.732276 0.208736
vt 0.636092 0.276485
vt 0.509965 0.269341
vt 0.593803 0.214525
vt 0.663334 0.141782
vt 0.593803 0.214525
vt 0.480776 0.218426
vt 0.540749 0.161416
vt 0.585519 0.091584
vt 0.540749 0.161416
vt 0.440187 0.171144
vt 0.478171 0.118752
vt 0.502147 0.058614
vt 0.478171 0.118752
vt 0.387776 0.129367
vt 0.407513 0.087934
vt 0.416156 0.042913
vt 0.407513 0.087934
vt 0.323798 0.095255
vt 0.330536 0.070313
vt 0.330454 0.044554
vt 0.330536 0.070313
vt 0.249087 0.071053
vt 0.249415 0.067379
vt 0.248657 0.063775
vt 0.249415 0.067379
vt 0.070312 0.554688
vt 0.218750 0.406250
vt 0.070312 0.406250
vt 0.141719 0.893940
vt 0.266927 0.923468
vt 0.141719 0.779784
vt 0.156250 0.460938
vt 0.248657 0.063775
vt 0.218750 0.554688
vt 0.266927 0.923468
vt 0.141719 0.893940
vt 0.156250 0.492188
vt 0.141719 0.779784
vt 0.218750 0.554688
vt 0.141719 0.893940
vt 0.141719 0.658718
vn 0.6802 -0.2141 0.7010
vn -0.8321 -0.2511 0.4945
vn -0.0179 -0.9496 0.3131
vn 0.8916 -0.2384 -0.3850
vn 0.5412 -0.2869 0.7905
vn 0.1151 -0.6230 0.7737
vn -0.1299 0.9192 -0.3716
vn -0.1176 0.8598 -0.4968
vn 0.0999 -0.8280 0.5517
vn -0.9553 -0.0060 0.2957
vn -0.7035 0.3742 0.6042
vn 0.9997 -0.0168 -0.0168
vn 0.9993 0.0364 -0.0109
vn 0.0652 -0.9686 0.2399
vn -0.9763 -0.1108 0.1861
vn 0.9980 -0.0395 -0.0496
vn -0.0729 0.9946 -0.0739
vn 0.0296 -0.9846 -0.1722
vn -0.9893 -0.1344 0.0562
vn -0.0327 0.8833 0.4676
vn -0.0494 0.9732 0.2244
vn 0.0129 -0.8294 -0.5585
vn -0.9949 -0.0778 -0.0634
vn 0.9958 -0.0123 -0.0909
vn -0.0232 0.7285 0.6846
vn 0.9947 0.0356 -0.0967
vn -0.9931 0.0103 -0.1164
vn -0.0192 0.5245 0.8512
vn 0.0114 -0.5687 -0.8225
vn 0.9936 0.0813 -0.0781
vn -0.9889 0.0889 -0.1187
vn -0.0196 0.2944 0.9554
vn 0.0167 -0.2761 -0.9610
vn 0.9921 0.1165 -0.0468
vn -0.9855 0.1421 -0.0930
vn -0.0219 0.0504 0.9985
vn 0.0229 0.0093 -0.9997
vn 0.9898 0.1422 -0.0082
vn -0.9839 0.1699 -0.0549
vn -0.0237 -0.2017 0.9792
vn 0.0270 0.2763 -0.9607
vn 0.9866 0.1590 0.0365
vn -0.9844 0.1754 -0.0135
vn -0.0226 -0.4502 0.8926
vn 0.0272 0.5190 -0.8543
vn 0.9824 0.1654 0.0870
vn -0.9866 0.1613 0.0250
vn -0.0168 -0.6739 0.7386
vn 0.0220 0.7267 -0.6866
vn 0.9771 0.1592 0.1413
vn -0.9898 0.1313 0.0553
vn -0.0051 -0.8489 0.5285
vn 0.0103 0.8843 -0.4668
vn 0.9705 0.1393 0.1964
vn -0.9931 0.0906 0.0740
vn 0.0125 -0.9590 0.2831
vn -0.0079 0.9775 -0.2107
vn 0.9626 0.1055 0.2494
vn -0.9957 0.0452 0.0806
vn 0.0354 -0.9991 0.0231
vn -0.0322 0.9975 0.0624
vn 0.9527 0.0574 0.2983
vn -0.9970 -0.0015 0.0770
vn -0.0617 0.9403 0.3347
vn 0.2588 0.6621 0.7033
vn 0.9396 -0.3136 -0.1370
vn 0.6655 0.6955 -0.2708
vn 0.0179 -0.9496 0.3131
vn 0.1302 0.4613 0.8776
vn -0.6802 -0.2142 0.7010
vn -0.5412 -0.2869 0.7905
vn -0.8916 -0.2384 -0.3850
vn -0.1151 -0.6230 0.7737
vn 0.1299 0.9192 -0.3716
vn -0.9993 0.0364 -0.0109
vn -0.0999 -0.8280 0.5517
vn 0.9553 -0.0060 0.2957
vn 0.7035 0.3742 0.6042
vn 0.1176 0.8598 -0.4968
vn -0.9997 -0.0168 -0.0168
vn -0.0652 -0.9686 0.2399
vn 0.9763 -0.1108 0.1861
vn 0.0729 0.9946 -0.0739
vn -0.9980 -0.0395 -0.0496
vn -0.0296 -0.9846 -0.1722
vn 0.9893 -0.1344 0.0562
vn 0.0494 0.9732 0.2244
vn 0.0327 0.8833 0.4676
vn -0.9958 -0.0123 -0.0909
vn -0.0129 -0.8294 -0.5585
vn 0.9949 -0.0778 -0.0634
vn 0.0232 0.7285 0.6846
vn -0.9947 0.0356 -0.0967
vn -0.0114 -0.5687 -0.8225
vn 0.9931 0.0103 -0.1164
vn 0.0192 0.5245 0.8512
vn -0.9936 0.0813 -0.0781
vn -0.0167 -0.2761 -0.9610
vn 0.9889 0.0889 -0.1187
vn 0.0196 0.2944 0.9554
vn -0.9921 0.1165 -0.0468
vn -0.0229 0.0093 -0.9997
vn 0.9855 0.1421 -0.0930
vn 0.0219 0.0504 0.9985
vn -0.9898 0.1422 -0.0082
vn -0.0270 0.2763 -0.9607
vn 0.9839 0.1699 -0.0549
vn 0.0237 -0.2017 0.9792
vn -0.9866 0.1590 0.0365
vn -0.0272 0.5190 -0.8543
vn 0.9844 0.1754 -0.0135
vn 0.0226 -0.4502 0.8926
vn -0.9824 0.1654 0.0870
vn -0.0220 0.7267 -0.6866
vn 0.9866 0.1613 0.0250
vn 0.0168 -0.6739 0.7386
vn -0.9771 0.1592 0.1413
vn -0.0103 0.8843 -0.4668
vn 0.9898 0.1313 0.0553
vn 0.0051 -0.8489 0.5285
vn -0.9705 0.1393 0.1964
vn 0.0079 0.9775 -0.2107
vn 0.9931 0.0906 0.0740
vn -0.0125 -0.9590 0.2831
vn -0.9626 0.1055 0.2494
vn 0.0322 0.9975 0.0624
vn 0.9957 0.0452 0.0806
vn -0.0354 -0.9991 0.0231
vn -0.9527 0.0574 0.2983
vn 0.0617 0.9403 0.3347
vn 0.9970 -0.0015 0.0770
vn 0.8321 -0.2511 0.4945
vn -0.9396 -0.3136 -0.1370
vn -0.2588 0.6621 0.7033
vn -0.6655 0.6955 -0.2708
vn -0.1302 0.4613 0.8776
usemtl RamHorns
s 1
f 61/1/1 63/2/2 64/3/3
f 1/4/4 67/5/5 2/6/6
f 1/4/4 8/7/7 4/8/8
f 6/9/9 1/4/4 2/10/6
f 7/11/10 2/10/6 3/12/11
f 4/8/8 7/11/10 3/12/11
f 9/13/12 8/7/7 5/14/13
f 10/15/14 5/14/13 6/9/9
f 11/16/15 6/9/9 7/11/10
f 8/7/7 11/16/15 7/11/10
f 13/17/16 12/18/17 9/13/12
f 14/19/18 9/13/12 10/15/14
f 11/16/15 14/19/18 10/15/14
f 12/18/17 15/20/19 11/16/15
f 13/17/16 20/21/20 16/22/21
f 18/23/22 13/17/16 14/19/18
f 15/20/19 18/23/22 14/19/18
f 16/22/21 19/24/23 15/20/19
f 17/25/24 24/26/25 20/21/20
f 18/23/22 21/27/26 17/25/24
f 23/28/27 18/23/22 19/24/23
f 24/26/25 19/24/23 20/21/20
f 21/27/26 28/29/28 24/26/25
f 22/30/29 25/31/30 21/27/26
f 27/32/31 22/30/29 23/28/27
f 28/29/28 23/28/27 24/26/25
f 25/31/30 32/33/32 28/29/28
f 26/34/33 29/35/34 25/31/30
f 31/36/35 26/34/33 27/32/31
f 32/33/32 27/32/31 28/29/28
f 29/35/34 36/37/36 32/33/32
f 30/38/37 33/39/38 29/35/34
f 35/40/39 30/38/37 31/36/35
f 36/37/36 31/36/35 32/33/32
f 33/39/38 40/41/40 36/37/36
f 34/42/41 37/43/42 33/39/38
f 39/44/43 34/42/41 35/40/39
f 40/41/40 35/40/39 36/37/36
f 37/43/42 44/45/44 40/41/40
f 38/46/45 41/47/46 37/43/42
f 43/48/47 38/46/45 39/44/43
f 44/45/44 39/44/43 40/41/40
f 41/47/46 48/49/48 44/45/44
f 42/50/49 45/51/50 41/47/46
f 47/52/51 42/50/49 43/48/47
f 48/49/48 43/48/47 44/45/44
f 45/51/50 52/53/52 48/49/48
f 46/54/53 49/55/54 45/51/50
f 51/56/55 46/54/53 47/52/51
f 52/53/52 47/52/51 48/49/48
f 49/55/54 56/57/56 52/53/52
f 50/58/57 53/59/58 49/55/54
f 55/60/59 50/58/57 51/56/55
f 56/57/56 51/56/55 52/53/52
f 53/59/58 60/61/60 56/57/56
f 54/62/61 57/63/62 53/59/58
f 59/64/63 54/62/61 55/60/59
f 60/61/60 55/60/59 56/57/56
f 57/63/62 64/65/3 60/61/60
f 58/66/64 61/67/1 57/63/62
f 63/68/2 58/66/64 59/64/63
f 64/65/3 59/64/63 60/61/60
f 68/69/65 65/70/66 66/71/67
f 1/4/4 66/72/67 65/73/66
f 2/10/6 68/74/65 3/12/11
f 4/8/8 68/74/65 66/75/67
f 132/76/68 130/77/69 129/78/70
f 135/79/71 69/80/72 70/81/73
f 69/80/72 76/82/74 73/83/75
f 69/80/72 74/84/76 70/85/73
f 70/85/73 75/86/77 71/87/78
f 72/88/79 75/86/77 76/82/74
f 76/82/74 77/89/80 73/83/75
f 73/83/75 78/90/81 74/84/76
f 74/84/76 79/91/82 75/86/77
f 76/82/74 79/91/82 80/92/83
f 80/92/83 81/93/84 77/89/80
f 77/89/80 82/94/85 78/90/81
f 79/91/82 82/94/85 83/95/86
f 80/92/83 83/95/86 84/96/87
f 81/93/84 88/97/88 85/98/89
f 81/93/84 86/99/90 82/94/85
f 83/95/86 86/99/90 87/100/91
f 84/96/87 87/100/91 88/97/88
f 85/98/89 92/101/92 89/102/93
f 86/99/90 89/102/93 90/103/94
f 86/99/90 91/104/95 87/100/91
f 87/100/91 92/101/92 88/97/88
f 89/102/93 96/105/96 93/106/97
f 90/103/94 93/106/97 94/107/98
f 90/103/94 95/108/99 91/104/95
f 91/104/95 96/105/96 92/101/92
f 93/106/97 100/109/100 97/110/101
f 94/107/98 97/110/101 98/111/102
f 94/107/98 99/112/103 95/108/99
f 95/108/99 100/109/100 96/105/96
f 97/110/101 104/113/104 101/114/105
f 98/111/102 101/114/105 102/115/106
f 98/111/102 103/116/107 99/112/103
f 99/112/103 104/113/104 100/109/100
f 101/114/105 108/117/108 105/118/109
f 102/115/106 105/118/109 106/119/110
f 102/115/106 107/120/111 103/116/107
f 103/116/107 108/117/108 104/113/104
f 105/118/109 112/121/112 109/122/113
f 106/119/110 109/122/113 110/123/114
f 106/119/110 111/124/115 107/120/111
f 107/120/111 112/121/112 108/117/108
f 109/122/113 116/125/116 113/126/117
f 110/123/114 113/126/117 114/127/118
f 110/123/114 115/128/119 111/124/115
f 111/124/115 116/125/116 112/121/112
f 113/126/117 120/129/120 117/130/121
f 114/127/118 117/130/121 118/131/122
f 114/127/118 119/132/123 115/128/119
f 115/128/119 120/129/120 116/125/116
f 117/130/121 124/133/124 121/134/125
f 118/131/122 121/134/125 122/135/126
f 118/131/122 123/136/127 119/132/123
f 119/132/123 124/133/124 120/129/120
f 121/134/125 128/137/128 125/138/129
f 122/135/126 125/138/129 126/139/130
f 122/135/126 127/140/131 123/136/127
f 123/136/127 128/137/128 124/133/124
f 125/138/129 132/141/68 129/142/70
f 126/139/130 129/142/70 130/143/69
f 126/139/130 131/144/132 127/140/131
f 127/140/131 132/141/68 128/137/128
f 133/145/133 136/146/134 134/147/135
f 69/80/72 134/148/135 72/149/79
f 136/150/134 70/85/73 71/87/78
f 72/88/79 136/150/134 71/87/78
f 61/1/1 62/151/136 63/2/2
f 1/4/4 65/73/66 67/5/5
f 1/4/4 5/14/13 8/7/7
f 6/9/9 5/14/13 1/4/4
f 7/11/10 6/9/9 2/10/6
f 4/8/8 8/7/7 7/11/10
f 9/13/12 12/18/17 8/7/7
f 10/15/14 9/13/12 5/14/13
f 11/16/15 10/15/14 6/9/9
f 8/7/7 12/18/17 11/16/15
f 13/17/16 16/22/21 12/18/17
f 14/19/18 13/17/16 9/13/12
f 11/16/15 15/20/19 14/19/18
f 12/18/17 16/22/21 15/20/19
f 13/17/16 17/25/24 20/21/20
f 18/23/22 17/25/24 13/17/16
f 15/20/19 19/24/23 18/23/22
f 16/22/21 20/21/20 19/24/23
f 17/25/24 21/27/26 24/26/25
f 18/23/22 22/30/29 21/27/26
f 23/28/27 22/30/29 18/23/22
f 24/26/25 23/28/27 19/24/23
f 21/27/26 25/31/30 28/29/28
f 22/30/29 26/34/33 25/31/30
f 27/32/31 26/34/33 22/30/29
f 28/29/28 27/32/31 23/28/27
f 25/31/30 29/35/34 32/33/32
f 26/34/33 30/38/37 29/35/34
f 31/36/35 30/38/37 26/34/33
f 32/33/32 31/36/35 27/32/31
f 29/35/34 33/39/38 36/37/36
f 30/38/37 34/42/41 33/39/38
f 35/40/39 34/42/41 30/38/37
f 36/37/36 35/40/39 31/36/35
f 33/39/38 37/43/42 40/41/40
f 34/42/41 38/46/45 37/43/42
f 39/44/43 38/46/45 34/42/41
f 40/41/40 39/44/43 35/40/39
f 37/43/42 41/47/46 44/45/44
f 38/46/45 42/50/49 41/47/46
f 43/48/47 42/50/49 38/46/45
f 44/45/44 43/48/47 39/44/43
f 41/47/46 45/51/50 48/49/48
f 42/50/49 46/54/53 45/51/50
f 47/52/51 46/54/53 42/50/49
f 48/49/48 47/52/51 43/48/47
f 45/51/50 49/55/54 52/53/52
f 46/54/53 50/58/57 49/55/54
f 51/56/55 50/58/57 46/54/53
f 52/53/52 51/56/55 47/52/51
f 49/55/54 53/59/58 56/57/56
f 50/58/57 54/62/61 53/59/58
f 55/60/59 54/62/61 50/58/57
f 56/57/56 55/60/59 51/56/55
f 53/59/58 57/63/62 60/61/60
f 54/62/61 58/66/64 57/63/62
f 59/64/63 58/66/64 54/62/61
f 60/61/60 59/64/63 55/60/59
f 57/63/62 61/67/1 64/65/3
f 58/66/64 62/152/136 61/67/1
f 63/68/2 62/152/136 58/66/64
f 64/65/3 63/68/2 59/64/63
f 68/69/65 67/153/5 65/70/66
f 1/4/4 4/154/8 66/72/67
f 2/10/6 67/155/5 68/74/65
f 4/8/8 3/12/11 68/74/65
f 132/76/68 131/156/132 130/77/69
f 135/79/71 133/157/133 69/80/72
f 69/80/72 72/88/79 76/82/74
f 69/80/72 73/83/75 74/84/76
f 70/85/73 74/84/76 75/86/77
f 72/88/79 71/87/78 75/86/77
f 76/82/74 80/92/83 77/89/80
f 73/83/75 77/89/80 78/90/81
f 74/84/76 78/90/81 79/91/82
f 76/82/74 75/86/77 79/91/82
f 80/92/83 84/96/87 81/93/84
f 77/89/80 81/93/84 82/94/85
f 79/91/82 78/90/81 82/94/85
f 80/92/83 79/91/82 83/95/86
f 81/93/84 84/96/87 88/97/88
f 81/93/84 85/98/89 86/99/90
f 83/95/86 82/94/85 86/99/90
f 84/96/87 83/95/86 87/100/91
f 85/98/89 88/97/88 92/101/92
f 86/99/90 85/98/89 89/102/93
f 86/99/90 90/103/94 91/104/95
f 87/100/91 91/104/95 92/101/92
f 89/102/93 92/101/92 96/105/96
f 90/103/94 89/102/93 93/106/97
f 90/103/94 94/107/98 95/108/99
f 91/104/95 95/108/99 96/105/96
f 93/106/97 96/105/96 100/109/100
f 94/107/98 93/106/97 97/110/101
f 94/107/98 98/111/102 99/112/103
f 95/108/99 99/112/103 100/109/100
f 97/110/101 100/109/100 104/113/104
f 98/111/102 97/110/101 101/114/105
f 98/111/102 102/115/106 103/116/107
f 99/112/103 103/116/107 104/113/104
f 101/114/105 104/113/104 108/117/108
f 102/115/106 101/114/105 105/118/109
f 102/115/106 106/119/110 107/120/111
f 103/116/107 107/120/111 108/117/108
f 105/118/109 108/117/108 112/121/112
f 106/119/110 105/118/109 109/122/113
f 106/119/110 110/123/114 111/124/115
f 107/120/111 111/124/115 112/121/112
f 109/122/113 112/121/112 116/125/116
f 110/123/114 109/122/113 113/126/117
f 110/123/114 114/127/118 115/128/119
f 111/124/115 115/128/119 116/125/116
f 113/126/117 116/125/116 120/129/120
f 114/127/118 113/126/117 117/130/121
f 114/127/118 118/131/122 119/132/123
f 115/128/119 119/132/123 120/129/120
f 117/130/121 120/129/120 124/133/124
f 118/131/122 117/130/121 121/134/125
f 118/131/122 122/135/126 123/136/127
f 119/132/123 123/136/127 124/133/124
f 121/134/125 124/133/124 128/137/128
f 122/135/126 121/134/125 125/138/129
f 122/135/126 126/139/130 127/140/131
f 123/136/127 127/140/131 128/137/128
f 125/138/129 128/137/128 132/141/68
f 126/139/130 125/138/129 129/142/70
f 126/139/130 130/143/69 131/144/132
f 127/140/131 131/144/132 132/141/68
f 133/145/133 135/158/71 136/146/134
f 69/80/72 133/157/133 134/148/135
f 136/150/134 135/159/71 70/85/73
f 72/88/79 134/160/135 136/150/134
