# Blender 3.4.1
# www.blender.org
mtllib lunar_phoodu_bunny.mtl
o lunar_phoodu_bunny
v -0.015625 -0.937500 -0.234375
v -0.015625 -0.937500 -0.140625
v -0.015625 -0.750000 -0.234375
v -0.015625 -0.750000 -0.140625
v -0.109375 -0.937500 -0.140625
v -0.109375 -0.937500 -0.234375
v -0.109375 -0.750000 -0.140625
v -0.109375 -0.750000 -0.234375
v 0.187500 -1.109375 -0.265625
v 0.187500 -1.109375 -0.171875
v 0.187500 -0.859375 -0.265625
v 0.187500 -0.859375 -0.171875
v 0.093750 -1.109375 -0.171875
v 0.093750 -1.109375 -0.265625
v 0.093750 -0.859375 -0.171875
v 0.093750 -0.859375 -0.265625
v -0.093750 -1.109375 -0.265625
v -0.093750 -1.109375 -0.171875
v -0.093750 -0.859375 -0.265625
v -0.093750 -0.859375 -0.171875
v -0.187500 -1.109375 -0.171875
v -0.187500 -1.109375 -0.265625
v -0.187500 -0.859375 -0.171875
v -0.187500 -0.859375 -0.265625
v 0.125000 -1.125000 -0.250000
v 0.125000 -1.125000 -0.125000
v 0.125000 -0.937500 -0.250000
v 0.125000 -0.937500 -0.125000
v -0.125000 -1.125000 -0.125000
v -0.125000 -1.125000 -0.250000
v -0.125000 -0.937500 -0.125000
v -0.125000 -0.937500 -0.250000
v -0.085938 -0.937500 -0.273438
v -0.085938 -0.937500 -0.164063
v -0.085938 -0.890625 -0.273438
v -0.085938 -0.890625 -0.164063
v -0.195313 -0.937500 -0.164063
v -0.195313 -0.937500 -0.273438
v -0.195313 -0.890625 -0.164063
v -0.195313 -0.890625 -0.273438
v -0.108583 -1.422772 -0.296875
v -0.108583 -1.422772 -0.140625
v -0.144491 -1.392642 -0.296875
v -0.144491 -1.392642 -0.140625
v -0.188931 -1.518528 -0.140625
v -0.188931 -1.518528 -0.296875
v -0.224840 -1.488397 -0.140625
v -0.224840 -1.488397 -0.296875
v -0.194709 -1.452489 -0.296875
v -0.194709 -1.452489 -0.140625
v -0.230617 -1.422358 -0.296875
v -0.230617 -1.422358 -0.140625
v -0.224840 -1.488397 -0.140625
v -0.224840 -1.488397 -0.296875
v -0.260748 -1.458266 -0.140625
v -0.260748 -1.458266 -0.296875
v -0.213873 -1.458266 -0.296875
v -0.213873 -1.458266 -0.140625
v -0.213873 -0.833266 -0.296875
v -0.213873 -0.833267 -0.140625
v -0.260748 -1.458266 -0.140625
v -0.260748 -1.458266 -0.296875
v -0.260748 -0.833267 -0.140625
v -0.260748 -0.833266 -0.296875
v 0.260747 -1.458267 -0.296875
v 0.260747 -1.458267 -0.140625
v 0.260747 -0.833267 -0.296875
v 0.260747 -0.833267 -0.140625
v 0.213872 -1.458267 -0.140625
v 0.213872 -1.458267 -0.296875
v 0.213872 -0.833267 -0.140625
v 0.213872 -0.833267 -0.296875
v 0.188930 -1.518528 -0.296875
v 0.188930 -1.518528 -0.140625
v 0.224839 -1.488397 -0.296875
v 0.224839 -1.488397 -0.140625
v 0.108582 -1.422772 -0.140625
v 0.108582 -1.422772 -0.296875
v 0.144490 -1.392642 -0.140625
v 0.144490 -1.392642 -0.296875
v 0.224839 -1.488397 -0.296875
v 0.224839 -1.488397 -0.140625
v 0.260747 -1.458267 -0.296875
v 0.260747 -1.458267 -0.140625
v 0.194708 -1.452489 -0.140625
v 0.194708 -1.452489 -0.296875
v 0.230616 -1.422358 -0.140625
v 0.230616 -1.422358 -0.296875
v 0.171875 -1.277500 -0.314312
v 0.171875 -1.184039 -0.306957
v 0.078125 -1.277500 -0.314312
v 0.078125 -1.184039 -0.306957
v -0.078125 -1.277500 -0.314312
v -0.078125 -1.184039 -0.306957
v -0.171875 -1.277500 -0.314312
v -0.171875 -1.184039 -0.306957
v 0.203125 -1.433268 -0.326454
v 0.203125 -1.447980 -0.139532
v 0.203125 -1.121732 -0.301935
v 0.203125 -1.136443 -0.115013
v -0.203125 -1.447979 -0.139532
v -0.203125 -1.433268 -0.326454
v -0.203125 -1.136443 -0.115013
v -0.203125 -1.121732 -0.301935
v 0.078125 -1.109375 -0.250155
v 0.078125 -0.953125 -0.250155
v -0.078125 -1.109375 -0.250155
v -0.078125 -0.953125 -0.250155
v 0.109375 -0.937500 -0.234375
v 0.109375 -0.937500 -0.140625
v 0.109375 -0.750000 -0.234375
v 0.109375 -0.750000 -0.140625
v 0.015625 -0.937500 -0.140625
v 0.015625 -0.937500 -0.234375
v 0.015625 -0.750000 -0.140625
v 0.015625 -0.750000 -0.234375
vn -0.0000 -0.0000 1.0000
vn 1.0000 -0.0000 -0.0000
vn -0.0000 -0.0000 -1.0000
vn -1.0000 -0.0000 -0.0000
vn -0.0000 -1.0000 -0.0000
vn -0.0000 1.0000 -0.0000
vn 0.6428 0.7660 -0.0000
vn -0.6428 -0.7660 -0.0000
vn 0.7660 -0.6428 -0.0000
vn -0.7660 0.6428 -0.0000
vn 0.6428 -0.7660 -0.0000
vn -0.6428 0.7660 -0.0000
vn -0.7660 -0.6428 -0.0000
vn 0.7660 0.6428 -0.0000
vn -0.0000 0.0785 -0.9969
vn -0.0000 -0.0785 0.9969
vn -0.0000 -0.9969 -0.0785
vn -0.0000 0.9969 0.0785
vt 0.656250 0.812500
vt 0.609375 0.343750
vt 0.125000 0.281250
vt 0.656250 0.906250
vt 0.703125 0.812500
vt 0.125000 0.234375
vt 0.656250 0.718750
vt 0.609375 0.250000
vt 0.718750 0.843750
vt 0.656250 0.812500
vt 0.703125 0.718750
vt 0.718750 0.796875
vt 0.703125 0.906250
vt 0.687500 1.000000
vt 0.171875 0.234375
vt 0.171875 0.281250
vt 0.562500 0.343750
vt 0.734375 1.000000
vt 0.687500 0.906250
vt 0.765625 0.796875
vt 0.703125 0.812500
vt 0.562500 0.250000
vt 0.734375 0.906250
vt 0.765625 0.843750
vt 0.187500 0.437500
vt 0.609375 0.593750
vt 0.687500 0.468750
vt 0.531250 0.718750
vt 0.234375 0.437500
vt 0.687500 0.421875
vt 0.187500 0.312500
vt 0.609375 0.468750
vt 0.687500 0.406250
vt 0.531250 0.593750
vt 0.234375 0.312500
vt 0.687500 0.359375
vt 0.578125 0.718750
vt 0.500000 0.437500
vt 0.734375 0.421875
vt 0.734375 0.468750
vt 0.562500 0.593750
vt 0.546875 0.437500
vt 0.500000 0.312500
vt 0.734375 0.359375
vt 0.578125 0.593750
vt 0.562500 0.468750
vt 0.546875 0.312500
vt 0.734375 0.406250
vt 0.593750 0.906250
vt 0.640625 0.781250
vt 0.687500 0.343750
vt 0.562500 0.468750
vt 0.640625 0.906250
vt 0.687500 0.296875
vt 0.593750 0.781250
vt 0.640625 0.656250
vt 0.000000 0.281250
vt 0.562500 0.343750
vt 0.640625 0.781250
vt 0.000000 0.234375
vt 0.609375 0.468750
vt 0.312500 0.406250
vt 0.734375 0.296875
vt 0.734375 0.343750
vt 0.593750 0.781250
vt 0.359375 0.406250
vt 0.312500 0.281250
vt 0.046875 0.234375
vt 0.609375 0.343750
vt 0.593750 0.656250
vt 0.359375 0.281250
vt 0.046875 0.281250
vt 0.500000 0.531250
vt 0.406250 0.593750
vt 0.406250 0.656250
vt 0.406250 0.750000
vt 0.562500 0.531250
vt 0.406250 0.593750
vt 0.500000 0.437500
vt 0.406250 0.500000
vt 0.406250 0.593750
vt 0.406250 0.656250
vt 0.562500 0.437500
vt 0.406250 0.531250
vt 0.531250 0.750000
vt 0.531250 0.812500
vt 0.531250 0.593750
vt 0.531250 0.656250
vt 0.281250 0.593750
vt 0.593750 0.812500
vt 0.531250 0.718750
vt 0.531250 0.531250
vt 0.531250 0.656250
vt 0.281250 0.500000
vt 0.593750 0.718750
vt 0.531250 0.593750
vt 0.750000 0.562500
vt 0.804688 0.531250
vt 0.656250 0.718750
vt 0.750000 0.593750
vt 0.804688 0.562500
vt 0.656250 0.664062
vt 0.750000 0.539062
vt 0.804688 0.507812
vt 0.187500 0.312500
vt 0.750000 0.570312
vt 0.804688 0.539062
vt 0.187500 0.257812
vt 0.804688 0.593750
vt 0.500000 0.250000
vt 0.710938 0.664062
vt 0.710938 0.718750
vt 0.750000 0.531250
vt 0.554688 0.250000
vt 0.500000 0.226562
vt 0.242188 0.257812
vt 0.804688 0.570312
vt 0.750000 0.507812
vt 0.554688 0.226562
vt 0.242188 0.312500
vt 0.718750 0.781250
vt 0.406250 0.250000
vt 0.000000 0.375000
vt 0.750000 0.937500
vt 0.796875 0.781250
vt 0.000000 0.296875
vt 0.718750 0.757812
vt 0.406250 0.226562
vt 0.625000 1.000000
vt 0.750000 0.914062
vt 0.796875 0.757812
vt 0.625000 0.921875
vt 0.812500 0.937500
vt 0.718750 0.750000
vt 0.062500 0.296875
vt 0.343750 0.250000
vt 0.062500 0.375000
vt 0.796875 0.750000
vt 0.718750 0.726562
vt 0.687500 0.921875
vt 0.812500 0.914062
vt 0.343750 0.226562
vt 0.796875 0.726562
vt 0.687500 1.000000
vt 0.718750 0.718750
vt 0.523438 0.781250
vt 0.250000 0.437500
vt 0.500000 0.812500
vt 0.796875 0.718750
vt 0.250000 0.359375
vt 0.718750 0.695312
vt 0.523438 0.757812
vt 0.375000 0.406250
vt 0.500000 0.789062
vt 0.796875 0.695312
vt 0.375000 0.328125
vt 0.523438 0.812500
vt 0.312500 0.281250
vt 0.273438 0.359375
vt 0.273438 0.437500
vt 0.500000 0.781250
vt 0.390625 0.281250
vt 0.312500 0.257812
vt 0.398438 0.328125
vt 0.523438 0.789062
vt 0.500000 0.757812
vt 0.390625 0.257812
vt 0.398438 0.406250
vt 0.218750 1.000000
vt 0.460938 0.531250
vt 0.250000 0.343750
vt 0.406250 0.531250
vt 0.296875 1.000000
vt 0.250000 0.265625
vt 0.218750 0.687500
vt 0.460938 0.218750
vt 0.625000 0.281250
vt 0.406250 0.218750
vt 0.296875 0.687500
vt 0.625000 0.203125
vt 0.429688 0.531250
vt 0.000000 0.687500
vt 0.273438 0.265625
vt 0.273438 0.343750
vt 0.437500 0.531250
vt 0.078125 0.687500
vt 0.000000 0.375000
vt 0.648438 0.203125
vt 0.429688 0.218750
vt 0.437500 0.218750
vt 0.078125 0.375000
vt 0.648438 0.281250
vt 0.312500 1.000000
vt 0.304688 0.500000
vt 0.250000 0.250000
vt 0.468750 0.531250
vt 0.390625 1.000000
vt 0.250000 0.171875
vt 0.312500 0.687500
vt 0.304688 0.187500
vt 0.312500 0.250000
vt 0.468750 0.218750
vt 0.390625 0.687500
vt 0.312500 0.171875
vt 0.492188 0.531250
vt 0.093750 0.687500
vt 0.273438 0.171875
vt 0.273438 0.250000
vt 0.281250 0.500000
vt 0.171875 0.687500
vt 0.093750 0.375000
vt 0.335938 0.171875
vt 0.492188 0.218750
vt 0.281250 0.187500
vt 0.171875 0.375000
vt 0.335938 0.250000
vt 0.718750 0.687500
vt 0.812500 0.625000
vt 0.062500 0.375000
vt 0.750000 0.656250
vt 0.796875 0.687500
vt 0.062500 0.296875
vt 0.718750 0.664062
vt 0.812500 0.601562
vt 0.125000 0.375000
vt 0.750000 0.632812
vt 0.796875 0.664062
vt 0.125000 0.296875
vt 0.812500 0.656250
vt 0.656250 0.281250
vt 0.125000 0.296875
vt 0.125000 0.375000
vt 0.750000 0.625000
vt 0.734375 0.281250
vt 0.656250 0.257812
vt 0.187500 0.296875
vt 0.812500 0.632812
vt 0.750000 0.601562
vt 0.734375 0.257812
vt 0.187500 0.375000
vt 0.750000 1.000000
vt 0.554688 0.562500
vt 0.187500 0.250000
vt 0.531250 0.593750
vt 0.828125 1.000000
vt 0.187500 0.171875
vt 0.750000 0.976562
vt 0.554688 0.539062
vt 0.218750 0.250000
vt 0.531250 0.570312
vt 0.828125 0.976562
vt 0.218750 0.171875
vt 0.554688 0.593750
vt 0.750000 0.968750
vt 0.210938 0.171875
vt 0.531250 0.562500
vt 0.210938 0.250000
vt 0.828125 0.968750
vt 0.750000 0.945312
vt 0.242188 0.171875
vt 0.554688 0.570312
vt 0.531250 0.539062
vt 0.828125 0.945312
vt 0.242188 0.250000
vt 0.734375 0.593750
vt 0.734375 0.546875
vt 0.687500 0.593750
vt 0.687500 0.546875
vt 0.546875 0.312500
vt 0.546875 0.265625
vt 0.500000 0.312500
vt 0.500000 0.265625
vt 0.406250 0.906250
vt 0.203125 0.843750
vt 0.187500 0.687500
vt 0.000000 1.000000
vt 0.500000 0.906250
vt 0.187500 0.593750
vt 0.406250 0.750000
vt 0.203125 0.687500
vt 0.406250 1.000000
vt 0.000000 0.843750
vt 0.500000 0.750000
vt 0.406250 0.906250
vt 0.187500 0.593750
vt 0.203125 1.000000
vt 0.390625 0.593750
vt 0.390625 0.687500
vt 0.000000 0.843750
vt 0.281250 0.593750
vt 0.609375 0.906250
vt 0.203125 0.843750
vt 0.187500 0.437500
vt 0.000000 0.687500
vt 0.281250 0.437500
vt 0.609375 1.000000
vt 0.390625 0.500000
vt 0.390625 0.421875
vt 0.312500 0.500000
vt 0.312500 0.421875
vt 0.625000 0.562500
vt 0.671875 0.468750
vt 0.062500 0.281250
vt 0.625000 0.656250
vt 0.671875 0.562500
vt 0.062500 0.234375
vt 0.625000 0.468750
vt 0.671875 0.375000
vt 0.718750 0.906250
vt 0.625000 0.562500
vt 0.671875 0.468750
vt 0.718750 0.859375
vt 0.671875 0.656250
vt 0.625000 0.375000
vt 0.109375 0.234375
vt 0.109375 0.281250
vt 0.625000 0.468750
vt 0.671875 0.375000
vt 0.625000 0.281250
vt 0.765625 0.859375
vt 0.671875 0.562500
vt 0.625000 0.375000
vt 0.671875 0.281250
vt 0.765625 0.906250
s 0
usemtl lunar_phoodu_bunny
f 7/21/1 2/4/1 4/10/1
f 4/11/2 1/1/2 3/7/2
f 3/8/3 6/17/3 8/22/3
f 8/23/4 5/14/4 7/19/4
f 1/3/5 5/15/5 6/16/5
f 4/12/6 8/24/6 7/20/6
f 15/45/1 10/28/1 12/34/1
f 12/35/2 9/25/2 11/31/2
f 11/32/3 14/41/3 16/46/3
f 16/47/4 13/38/4 15/43/4
f 9/27/5 13/39/5 14/40/5
f 12/36/6 16/48/6 15/44/6
f 23/69/1 18/52/1 20/58/1
f 20/59/2 17/49/2 19/55/2
f 19/56/3 22/65/3 24/70/3
f 24/71/4 21/62/4 23/67/4
f 17/51/5 21/63/5 22/64/5
f 20/60/6 24/72/6 23/68/6
f 31/93/1 26/76/1 28/82/1
f 28/83/2 25/73/2 27/79/2
f 27/80/3 30/89/3 32/94/3
f 32/95/4 29/86/4 31/91/4
f 25/75/5 29/87/5 30/88/5
f 28/84/6 32/96/6 31/92/6
f 39/117/1 34/100/1 36/106/1
f 36/107/2 33/97/2 35/103/2
f 35/104/3 38/113/3 40/118/3
f 40/119/4 37/110/4 39/115/4
f 33/99/5 37/111/5 38/112/5
f 36/108/6 40/120/6 39/116/6
f 47/141/1 42/124/1 44/130/1
f 44/131/7 41/121/7 43/127/7
f 48/142/3 41/122/3 46/136/3
f 48/143/8 45/134/8 47/139/8
f 41/123/9 45/135/9 46/137/9
f 44/132/10 48/144/10 47/140/10
f 52/154/1 53/157/1 50/148/1
f 52/155/7 49/145/7 51/151/7
f 51/152/3 54/161/3 56/166/3
f 56/167/8 53/158/8 55/163/8
f 49/147/9 53/159/9 54/160/9
f 52/156/10 56/168/10 55/164/10
f 63/189/1 58/172/1 60/178/1
f 60/179/2 57/169/2 59/175/2
f 59/176/3 62/185/3 64/190/3
f 64/191/4 61/182/4 63/187/4
f 57/171/5 61/183/5 62/184/5
f 60/180/6 64/192/6 63/188/6
f 71/213/1 66/196/1 68/202/1
f 68/203/2 65/193/2 67/199/2
f 67/200/3 70/209/3 72/214/3
f 72/215/4 69/206/4 71/211/4
f 65/195/5 69/207/5 70/208/5
f 68/204/6 72/216/6 71/212/6
f 76/226/1 77/229/1 74/220/1
f 76/227/11 73/217/11 75/223/11
f 75/224/3 78/233/3 80/238/3
f 80/239/12 77/230/12 79/235/12
f 73/219/13 77/231/13 78/232/13
f 76/228/14 80/240/14 79/236/14
f 87/261/1 82/244/1 84/250/1
f 84/251/11 81/241/11 83/247/11
f 88/262/3 81/242/3 86/256/3
f 88/263/12 85/254/12 87/259/12
f 81/243/13 85/255/13 86/257/13
f 84/252/14 88/264/14 87/260/14
f 90/266/15 91/267/15 92/268/15
f 94/270/15 95/271/15 96/272/15
f 103/292/16 98/276/16 100/282/16
f 100/283/2 97/273/2 99/279/2
s 1
f 99/280/15 102/289/15 104/294/15
s 0
f 103/293/4 102/290/4 101/285/4
f 97/275/17 101/287/17 102/288/17
f 100/284/18 104/296/18 103/291/18
f 106/298/3 107/299/3 108/300/3
f 115/321/1 110/304/1 112/310/1
f 112/311/2 109/301/2 111/307/2
f 111/308/3 114/317/3 116/322/3
f 116/323/4 113/314/4 115/319/4
f 109/303/5 113/315/5 114/316/5
f 112/312/6 116/324/6 115/320/6
f 7/21/1 5/13/1 2/4/1
f 4/11/2 2/5/2 1/1/2
f 3/8/3 1/2/3 6/17/3
f 8/23/4 6/18/4 5/14/4
f 1/3/5 2/6/5 5/15/5
f 4/12/6 3/9/6 8/24/6
f 15/45/1 13/37/1 10/28/1
f 12/35/2 10/29/2 9/25/2
f 11/32/3 9/26/3 14/41/3
f 16/47/4 14/42/4 13/38/4
f 9/27/5 10/30/5 13/39/5
f 12/36/6 11/33/6 16/48/6
f 23/69/1 21/61/1 18/52/1
f 20/59/2 18/53/2 17/49/2
f 19/56/3 17/50/3 22/65/3
f 24/71/4 22/66/4 21/62/4
f 17/51/5 18/54/5 21/63/5
f 20/60/6 19/57/6 24/72/6
f 31/93/1 29/85/1 26/76/1
f 28/83/2 26/77/2 25/73/2
f 27/80/3 25/74/3 30/89/3
f 32/95/4 30/90/4 29/86/4
f 25/75/5 26/78/5 29/87/5
f 28/84/6 27/81/6 32/96/6
f 39/117/1 37/109/1 34/100/1
f 36/107/2 34/101/2 33/97/2
f 35/104/3 33/98/3 38/113/3
f 40/119/4 38/114/4 37/110/4
f 33/99/5 34/102/5 37/111/5
f 36/108/6 35/105/6 40/120/6
f 47/141/1 45/133/1 42/124/1
f 44/131/7 42/125/7 41/121/7
f 48/142/3 43/128/3 41/122/3
f 48/143/8 46/138/8 45/134/8
f 41/123/9 42/126/9 45/135/9
f 44/132/10 43/129/10 48/144/10
f 52/154/1 55/165/1 53/157/1
f 52/155/7 50/149/7 49/145/7
f 51/152/3 49/146/3 54/161/3
f 56/167/8 54/162/8 53/158/8
f 49/147/9 50/150/9 53/159/9
f 52/156/10 51/153/10 56/168/10
f 63/189/1 61/181/1 58/172/1
f 60/179/2 58/173/2 57/169/2
f 59/176/3 57/170/3 62/185/3
f 64/191/4 62/186/4 61/182/4
f 57/171/5 58/174/5 61/183/5
f 60/180/6 59/177/6 64/192/6
f 71/213/1 69/205/1 66/196/1
f 68/203/2 66/197/2 65/193/2
f 67/200/3 65/194/3 70/209/3
f 72/215/4 70/210/4 69/206/4
f 65/195/5 66/198/5 69/207/5
f 68/204/6 67/201/6 72/216/6
f 76/226/1 79/237/1 77/229/1
f 76/227/11 74/221/11 73/217/11
f 75/224/3 73/218/3 78/233/3
f 80/239/12 78/234/12 77/230/12
f 73/219/13 74/222/13 77/231/13
f 76/228/14 75/225/14 80/240/14
f 87/261/1 85/253/1 82/244/1
f 84/251/11 82/245/11 81/241/11
f 88/262/3 83/248/3 81/242/3
f 88/263/12 86/258/12 85/254/12
f 81/243/13 82/246/13 85/255/13
f 84/252/14 83/249/14 88/264/14
f 90/266/15 89/265/15 91/267/15
f 94/270/15 93/269/15 95/271/15
f 103/292/16 101/286/16 98/276/16
f 100/283/2 98/277/2 97/273/2
s 1
f 99/280/15 97/274/15 102/289/15
s 0
f 103/293/4 104/295/4 102/290/4
f 97/275/17 98/278/17 101/287/17
f 100/284/18 99/281/18 104/296/18
f 106/298/3 105/297/3 107/299/3
f 115/321/1 113/313/1 110/304/1
f 112/311/2 110/305/2 109/301/2
f 111/308/3 109/302/3 114/317/3
f 116/323/4 114/318/4 113/314/4
f 109/303/5 110/306/5 113/315/5
f 112/312/6 111/309/6 116/324/6
