# Blender v3.2.0 OBJ File: 'Lunar_Seal_Forrestbone.blend'
# www.blender.org
mtllib Lunar_Seal_Forrestbone.mtl
o Seal_Forrestbone_MiddleBody
v 0.218749 -2.000000 0.218750
v -0.218751 -2.000000 0.218750
v -0.218751 -2.343750 0.218750
v 0.218749 -2.343750 0.218750
v 0.218749 -2.000000 -0.218750
v 0.218749 -2.343750 -0.218750
v -0.218751 -2.000000 -0.218750
v -0.218751 -2.343750 -0.218750
v -0.360497 -1.842413 0.140625
v -0.398895 -1.869299 0.140625
v -0.237576 -2.099686 0.140625
v -0.199179 -2.072799 0.140625
v -0.360497 -1.842413 -0.015625
v -0.199179 -2.072799 -0.015625
v -0.398895 -1.869299 -0.015625
v -0.237576 -2.099686 -0.015625
v 0.398893 -1.869299 0.140625
v 0.360496 -1.842413 0.140625
v 0.199177 -2.072799 0.140625
v 0.237575 -2.099686 0.140625
v 0.398893 -1.869299 -0.015625
v 0.237575 -2.099686 -0.015625
v 0.360496 -1.842413 -0.015625
v 0.199177 -2.072799 -0.015625
v -0.009087 -1.996219 -0.587155
v -0.130598 -2.013152 -0.563206
v -0.131874 -2.048115 -0.594402
v -0.010364 -2.031183 -0.618351
v -0.060069 -1.853561 -0.744956
v -0.061346 -1.888524 -0.776152
v -0.181579 -1.870493 -0.721006
v -0.182856 -1.905457 -0.752202
v 0.130597 -2.013152 -0.563206
v 0.009087 -1.996219 -0.587155
v 0.010363 -2.031183 -0.618351
v 0.131873 -2.048115 -0.594402
v 0.181578 -1.870493 -0.721006
v 0.182855 -1.905457 -0.752202
v 0.060068 -1.853561 -0.744956
v 0.061345 -1.888524 -0.776152
v 0.171874 -2.000000 0.406250
v -0.171876 -2.000000 0.406250
v -0.171876 -2.296875 0.406250
v 0.171874 -2.296875 0.406250
v 0.171874 -2.000000 0.218750
v 0.171874 -2.296875 0.218750
v -0.171876 -2.000000 0.218750
v -0.171876 -2.296875 0.218750
v 0.062499 -2.031250 0.453125
v -0.062501 -2.031250 0.453125
v -0.062501 -2.140625 0.453125
v 0.062499 -2.140625 0.453125
v 0.062499 -2.031250 0.406250
v 0.062499 -2.140625 0.406250
v -0.062501 -2.031250 0.406250
v -0.062501 -2.140625 0.406250
v 0.187499 -2.055810 -0.125621
v -0.187501 -2.055810 -0.125622
v -0.187501 -2.313262 -0.191006
v 0.187499 -2.313262 -0.191006
v 0.187500 -1.978887 -0.428506
v 0.187499 -2.236339 -0.493891
v -0.187500 -1.978887 -0.428506
v -0.187501 -2.236339 -0.493891
v 0.156249 -2.036447 -0.378070
v -0.156251 -2.036447 -0.378070
v -0.156251 -2.195888 -0.476735
v 0.156249 -2.195888 -0.476735
v 0.156250 -1.921337 -0.564084
v 0.156250 -2.080779 -0.662750
v -0.156250 -1.921337 -0.564085
v -0.156250 -2.080779 -0.662750
v 0.203124 -2.001563 0.437500
v 0.062499 -2.001563 0.437500
v 0.062499 -2.168750 0.437500
v 0.203124 -2.168750 0.437500
v -0.062501 -2.001563 0.437500
v -0.203126 -2.001563 0.437500
v -0.203126 -2.168750 0.437500
v -0.062501 -2.168750 0.437500
vt 0.437500 0.828125
vt 0.218750 1.000000
vt 0.218750 0.828125
vt 0.437500 0.640625
vt 0.218750 0.812500
vt 0.218750 0.640625
vt 0.437500 0.453125
vt 0.218750 0.625000
vt 0.218750 0.453125
vt 0.218750 0.390625
vt 0.000000 0.562500
vt 0.000000 0.390625
vt 0.000000 1.000000
vt 0.218750 0.781250
vt 0.218750 1.000000
vt 0.000000 0.562500
vt 0.218750 0.781250
vt 0.218750 0.562500
vt 0.343750 0.046875
vt 0.312500 0.187500
vt 0.312500 0.046875
vt 0.828125 0.234375
vt 0.750000 0.375000
vt 0.750000 0.234375
vt 0.375000 0.015625
vt 0.343750 0.156250
vt 0.343750 0.015625
vt 0.078125 0.078125
vt 0.000000 0.218750
vt 0.000000 0.078125
vt 0.187500 0.375000
vt 0.218750 0.296875
vt 0.218750 0.375000
vt 0.843750 0.171875
vt 0.875000 0.250000
vt 0.875000 0.171875
vt 0.406250 0.015625
vt 0.375000 0.156250
vt 0.375000 0.015625
vt 0.859375 0.859375
vt 0.781250 1.000000
vt 0.781250 0.859375
vt 0.437500 0.015625
vt 0.406250 0.156250
vt 0.406250 0.015625
vt 0.171875 0.078125
vt 0.093750 0.218750
vt 0.093750 0.078125
vt 0.843750 0.156250
vt 0.875000 0.078125
vt 0.875000 0.156250
vt 0.875000 0.921875
vt 0.906250 1.000000
vt 0.906250 0.921875
vt 0.937500 0.625000
vt 0.875000 0.656250
vt 0.875000 0.625000
vt 0.843750 0.343750
vt 0.953125 0.375000
vt 0.843750 0.375000
vt 0.875000 0.593750
vt 0.937500 0.625000
vt 0.875000 0.625000
vt 0.843750 0.312500
vt 0.953125 0.343750
vt 0.843750 0.343750
vt 0.781250 0.218750
vt 0.843750 0.109375
vt 0.843750 0.218750
vt 0.250000 0.078125
vt 0.187500 0.187500
vt 0.250000 0.187500
vt 0.875000 0.562500
vt 0.937500 0.593750
vt 0.875000 0.593750
vt 0.953125 0.281250
vt 0.843750 0.312500
vt 0.843750 0.281250
vt 0.937500 0.531250
vt 0.875000 0.562500
vt 0.875000 0.531250
vt 0.953125 0.250000
vt 0.843750 0.281250
vt 0.843750 0.250000
vt 0.312500 0.187500
vt 0.250000 0.078125
vt 0.312500 0.078125
vt 0.812500 0.453125
vt 0.875000 0.562500
vt 0.875000 0.453125
vt 0.609375 0.531250
vt 0.437500 0.687500
vt 0.437500 0.531250
vt 0.656250 0.218750
vt 0.562500 0.375000
vt 0.562500 0.218750
vt 0.609375 0.375000
vt 0.437500 0.531250
vt 0.437500 0.375000
vt 0.750000 0.218750
vt 0.656250 0.375000
vt 0.656250 0.218750
vt 0.625000 0.562500
vt 0.796875 0.468750
vt 0.796875 0.562500
vt 0.625000 0.375000
vt 0.796875 0.468750
vt 0.796875 0.375000
vt 0.875000 0.375000
vt 0.812500 0.437500
vt 0.812500 0.375000
vt 0.437500 0.375000
vt 0.406250 0.437500
vt 0.406250 0.375000
vt 0.500000 0.093750
vt 0.437500 0.156250
vt 0.437500 0.093750
vt 0.906250 0.843750
vt 0.875000 0.906250
vt 0.875000 0.843750
vt 0.343750 0.281250
vt 0.406250 0.250000
vt 0.406250 0.281250
vt 0.500000 0.218750
vt 0.562500 0.250000
vt 0.562500 0.218750
vt 0.406250 0.296875
vt 0.218750 0.437500
vt 0.218750 0.296875
vt 0.781250 0.859375
vt 0.625000 1.000000
vt 0.625000 0.859375
vt 0.187500 0.234375
vt 0.000000 0.375000
vt 0.000000 0.234375
vt 0.781250 0.703125
vt 0.625000 0.843750
vt 0.625000 0.703125
vt 0.437500 1.000000
vt 0.625000 1.000000
vt 0.437500 0.687500
vt 0.625000 0.843750
vt 0.625000 0.687500
vt 0.343750 0.187500
vt 0.187500 0.281250
vt 0.187500 0.187500
vt 0.890625 0.750000
vt 0.781250 0.843750
vt 0.781250 0.750000
vt 0.500000 0.156250
vt 0.343750 0.250000
vt 0.343750 0.156250
vt 0.781250 0.656250
vt 0.890625 0.750000
vt 0.781250 0.750000
vt 0.625000 0.687500
vt 0.781250 0.578125
vt 0.781250 0.687500
vt 0.406250 0.265625
vt 0.562500 0.375000
vt 0.562500 0.265625
vt 0.671875 0.125000
vt 0.593750 0.218750
vt 0.593750 0.125000
vt 0.859375 0.562500
vt 0.781250 0.656250
vt 0.781250 0.562500
vt 0.437500 1.000000
vt 0.437500 0.812500
vt 0.437500 0.625000
vt 0.218750 0.562500
vt 0.000000 0.781250
vt 0.000000 0.781250
vt 0.343750 0.187500
vt 0.828125 0.375000
vt 0.375000 0.156250
vt 0.078125 0.218750
vt 0.187500 0.296875
vt 0.843750 0.250000
vt 0.406250 0.156250
vt 0.859375 1.000000
vt 0.437500 0.156250
vt 0.171875 0.218750
vt 0.843750 0.078125
vt 0.875000 1.000000
vt 0.937500 0.656250
vt 0.953125 0.343750
vt 0.937500 0.593750
vt 0.953125 0.312500
vt 0.781250 0.109375
vt 0.187500 0.078125
vt 0.937500 0.562500
vt 0.953125 0.312500
vt 0.937500 0.562500
vt 0.953125 0.281250
vt 0.250000 0.187500
vt 0.812500 0.562500
vt 0.609375 0.687500
vt 0.656250 0.375000
vt 0.609375 0.531250
vt 0.750000 0.375000
vt 0.625000 0.468750
vt 0.625000 0.468750
vt 0.875000 0.437500
vt 0.437500 0.437500
vt 0.500000 0.156250
vt 0.906250 0.906250
vt 0.343750 0.250000
vt 0.500000 0.250000
vt 0.406250 0.437500
vt 0.781250 1.000000
vt 0.187500 0.375000
vt 0.781250 0.843750
vt 0.437500 0.843750
vt 0.437500 0.843750
vt 0.343750 0.281250
vt 0.890625 0.843750
vt 0.500000 0.250000
vt 0.890625 0.656250
vt 0.625000 0.578125
vt 0.406250 0.375000
vt 0.671875 0.218750
vt 0.859375 0.656250
vn -0.0000 -0.0000 1.0000
vn 1.0000 -0.0000 0.0000
vn 0.0000 0.0000 -1.0000
vn -1.0000 0.0000 -0.0000
vn 0.0000 -1.0000 -0.0000
vn 0.0000 1.0000 0.0000
vn 0.8192 0.5736 0.0000
vn -0.8192 -0.5736 -0.0000
vn 0.5736 -0.8192 -0.0000
vn -0.5736 0.8192 0.0000
vn 0.8192 -0.5736 0.0000
vn -0.8192 0.5736 -0.0000
vn -0.5736 -0.8192 -0.0000
vn 0.5736 0.8192 0.0000
vn 0.2331 -0.6522 0.7214
vn 0.9721 0.1355 -0.1916
vn -0.2331 0.6522 -0.7214
vn -0.2331 0.6521 -0.7214
vn -0.9721 -0.1355 0.1916
vn -0.0272 -0.7459 -0.6655
vn 0.0272 0.7459 0.6655
vn -0.2331 -0.6522 0.7214
vn -0.2331 -0.6521 0.7214
vn 0.9721 -0.1355 0.1916
vn 0.2331 0.6522 -0.7214
vn -0.9721 0.1355 -0.1916
vn 0.0272 -0.7459 -0.6655
vn -0.0272 0.7459 0.6655
vn -0.0000 -0.2462 0.9692
vn 0.0000 0.2462 -0.9692
vn 0.0000 -0.9692 -0.2462
vn 0.0000 0.9692 0.2462
vn -0.0000 -0.5262 0.8504
vn 0.0000 0.5262 -0.8504
vn 0.0000 -0.8504 -0.5262
vn -0.0000 0.8504 0.5262
vn 0.2331 -0.6521 0.7214
usemtl Seal_Forrestbone
s 1
f 2/1/1 4/2/1 1/3/1
f 1/4/2 6/5/2 5/6/2
f 5/7/3 8/8/3 7/9/3
f 7/10/4 3/11/4 2/12/4
f 6/13/5 3/14/5 8/15/5
f 1/16/6 7/17/6 2/18/6
f 10/19/1 12/20/1 9/21/1
f 9/22/7 14/23/7 13/24/7
f 13/25/3 16/26/3 15/27/3
f 15/28/8 11/29/8 10/30/8
f 14/31/9 11/32/9 16/33/9
f 9/34/10 15/35/10 10/36/10
f 18/37/1 20/38/1 17/39/1
f 17/40/11 22/41/11 21/42/11
f 21/43/3 24/44/3 23/45/3
f 23/46/12 19/47/12 18/48/12
f 22/49/13 19/50/13 24/51/13
f 17/52/14 23/53/14 18/54/14
f 26/55/15 28/56/15 25/57/15
f 29/58/16 28/59/16 30/60/16
f 31/61/17 30/62/17 32/63/18
f 26/64/19 32/65/19 27/66/19
f 30/67/20 27/68/20 32/69/20
f 26/70/21 29/71/21 31/72/21
f 33/73/22 35/74/22 36/75/23
f 33/76/24 38/77/24 37/78/24
f 37/79/25 40/80/25 39/81/25
f 39/82/26 35/83/26 34/84/26
f 40/85/27 36/86/27 35/87/27
f 33/88/28 39/89/28 34/90/28
f 42/91/1 44/92/1 41/93/1
f 41/94/2 46/95/2 45/96/2
f 45/97/3 48/98/3 47/99/3
f 47/100/4 43/101/4 42/102/4
f 46/103/5 43/104/5 48/105/5
f 41/106/6 47/107/6 42/108/6
f 50/109/1 52/110/1 49/111/1
f 49/112/2 54/113/2 53/114/2
f 53/115/3 56/116/3 55/117/3
f 55/118/4 51/119/4 50/120/4
f 54/121/5 51/122/5 56/123/5
f 49/124/6 55/125/6 50/126/6
f 58/127/29 60/128/29 57/129/29
f 57/130/2 62/131/2 61/132/2
f 61/133/30 64/134/30 63/135/30
f 63/136/4 59/137/4 58/138/4
f 62/139/31 59/137/31 64/140/31
f 57/141/32 63/142/32 58/143/32
f 66/144/33 68/145/33 65/146/33
f 65/147/2 70/148/2 69/149/2
f 69/150/34 72/151/34 71/152/34
f 66/153/4 72/154/4 67/155/4
f 70/156/35 67/157/35 72/158/35
f 65/159/36 71/160/36 66/161/36
f 74/162/1 76/163/1 73/164/1
f 78/165/1 80/166/1 77/167/1
f 2/1/1 3/168/1 4/2/1
f 1/4/2 4/169/2 6/5/2
f 5/7/3 6/170/3 8/8/3
f 7/10/4 8/171/4 3/11/4
f 6/13/5 4/172/5 3/14/5
f 1/16/6 5/173/6 7/17/6
f 10/19/1 11/174/1 12/20/1
f 9/22/7 12/175/7 14/23/7
f 13/25/3 14/176/3 16/26/3
f 15/28/8 16/177/8 11/29/8
f 14/31/9 12/178/9 11/32/9
f 9/34/10 13/179/10 15/35/10
f 18/37/1 19/180/1 20/38/1
f 17/40/11 20/181/11 22/41/11
f 21/43/3 22/182/3 24/44/3
f 23/46/12 24/183/12 19/47/12
f 22/49/13 20/184/13 19/50/13
f 17/52/14 21/185/14 23/53/14
f 26/55/15 27/186/37 28/56/15
f 29/58/16 25/187/16 28/59/16
f 31/61/17 29/188/17 30/62/17
f 26/64/19 31/189/19 32/65/19
f 30/67/20 28/190/20 27/68/20
f 26/70/21 25/191/21 29/71/21
f 33/73/22 34/192/22 35/74/22
f 33/76/24 36/193/24 38/77/24
f 37/79/25 38/194/25 40/80/25
f 39/82/26 40/195/26 35/83/26
f 40/85/27 38/196/27 36/86/27
f 33/88/28 37/197/28 39/89/28
f 42/91/1 43/198/1 44/92/1
f 41/94/2 44/199/2 46/95/2
f 45/97/3 46/200/3 48/98/3
f 47/100/4 48/201/4 43/101/4
f 46/103/5 44/202/5 43/104/5
f 41/106/6 45/203/6 47/107/6
f 50/109/1 51/204/1 52/110/1
f 49/112/2 52/205/2 54/113/2
f 53/115/3 54/206/3 56/116/3
f 55/118/4 56/207/4 51/119/4
f 54/121/5 52/208/5 51/122/5
f 49/124/6 53/209/6 55/125/6
f 58/127/29 59/210/29 60/128/29
f 57/130/2 60/211/2 62/131/2
f 61/133/30 62/212/30 64/134/30
f 63/136/4 64/213/4 59/137/4
f 62/139/31 60/214/31 59/137/31
f 57/141/32 61/215/32 63/142/32
f 66/144/33 67/216/33 68/145/33
f 65/147/2 68/217/2 70/148/2
f 69/150/34 70/218/34 72/151/34
f 66/153/4 71/219/4 72/154/4
f 70/156/35 68/220/35 67/157/35
f 65/159/36 69/221/36 71/160/36
f 74/162/1 75/222/1 76/163/1
f 78/165/1 79/223/1 80/166/1
