# Blender v3.2.0 OBJ File: 'Lunar_Skateboard.blend'
# www.blender.org
mtllib Lunar_Skateboard.mtl
o Lunar_Skateboard_cube.007
v 0.089679 -1.618123 -0.387740
v 0.405951 -1.416636 -0.387740
v 0.408878 -1.421230 -0.325478
v 0.092606 -1.622717 -0.325478
v -0.412122 -0.830452 -0.306032
v -0.409196 -0.835046 -0.243769
v -0.095850 -0.628965 -0.306032
v -0.092924 -0.633559 -0.243770
v 0.016919 -1.503912 -0.501370
v 0.333190 -1.302425 -0.501370
v 0.336117 -1.307019 -0.439108
v 0.019845 -1.508506 -0.439108
v -0.016535 -1.451400 -0.495923
v -0.013608 -1.455994 -0.433661
v 0.299737 -1.249913 -0.495923
v 0.302664 -1.254507 -0.433661
v 0.125269 -1.441343 -0.439108
v 0.230693 -1.374181 -0.439108
v 0.233620 -1.378775 -0.376846
v 0.128196 -1.445938 -0.376846
v 0.091816 -1.388832 -0.433661
v 0.094743 -1.393426 -0.371398
v 0.197240 -1.321670 -0.433661
v 0.200167 -1.326264 -0.371398
v -0.030986 -1.545039 -0.547622
v 0.021726 -1.511458 -0.547622
v 0.044697 -1.547515 -0.430161
v -0.008015 -1.581096 -0.430161
v -0.094098 -1.445973 -0.504870
v -0.071127 -1.482030 -0.387408
v -0.041386 -1.412392 -0.504870
v -0.018415 -1.448449 -0.387408
v 0.341673 -1.315739 -0.544062
v 0.394385 -1.282158 -0.544062
v 0.411767 -1.309443 -0.423321
v 0.359055 -1.343025 -0.423321
v 0.276799 -1.213907 -0.511710
v 0.294182 -1.241193 -0.390969
v 0.329511 -1.180326 -0.511710
v 0.346894 -1.207612 -0.390969
v 0.010633 -0.796110 -0.485447
v 0.063345 -0.762529 -0.485447
v 0.075007 -0.780835 -0.362346
v 0.022295 -0.814416 -0.362346
v -0.055509 -0.692287 -0.463740
v -0.043847 -0.710594 -0.340640
v -0.002798 -0.658706 -0.463740
v 0.008865 -0.677013 -0.340640
v -0.209265 -0.916230 -0.384636
v -0.103841 -0.849067 -0.384636
v -0.100914 -0.853661 -0.322373
v -0.206338 -0.920824 -0.322373
v -0.242718 -0.863718 -0.379188
v -0.239792 -0.868312 -0.316926
v -0.137294 -0.796556 -0.379188
v -0.134368 -0.801150 -0.316926
v -0.317616 -0.978798 -0.446898
v -0.001344 -0.777311 -0.446898
v 0.001583 -0.781905 -0.384636
v -0.314689 -0.983392 -0.384636
v -0.351069 -0.926286 -0.441450
v -0.348142 -0.930881 -0.379188
v -0.034797 -0.724799 -0.441451
v -0.031870 -0.729393 -0.379188
v -0.360074 -1.028474 -0.487589
v -0.307362 -0.994893 -0.487589
v -0.292825 -1.017711 -0.365552
v -0.345537 -1.051292 -0.365552
v -0.425644 -0.925549 -0.460534
v -0.411108 -0.948367 -0.338497
v -0.372932 -0.891968 -0.460534
v -0.358396 -0.914786 -0.338497
v 0.237059 -1.733141 -0.323611
v 0.447907 -1.598816 -0.323611
v 0.436421 -1.580787 -0.264881
v 0.225574 -1.715112 -0.264881
v 0.205503 -1.683608 -0.344988
v 0.194018 -1.665579 -0.286257
v 0.416351 -1.549283 -0.344988
v 0.404865 -1.531254 -0.286257
v -0.417575 -0.705571 -0.243532
v -0.206727 -0.571246 -0.243532
v -0.189936 -0.597602 -0.189405
v -0.400784 -0.731927 -0.189405
v -0.446657 -0.659921 -0.212282
v -0.429866 -0.686277 -0.158155
v -0.235809 -0.525596 -0.212282
v -0.219018 -0.551952 -0.158155
v 0.152791 -1.717189 -0.344988
v 0.469063 -1.515702 -0.344988
v 0.457577 -1.497673 -0.286257
v 0.141306 -1.699160 -0.286257
v 0.089679 -1.618123 -0.387740
v 0.078194 -1.600094 -0.329009
v 0.405951 -1.416636 -0.387740
v 0.394465 -1.398607 -0.329009
v -0.412122 -0.830452 -0.306032
v -0.095850 -0.628965 -0.306032
v -0.079060 -0.655321 -0.251905
v -0.395332 -0.856808 -0.251905
v -0.470287 -0.739152 -0.243532
v -0.453496 -0.765508 -0.189405
v -0.154015 -0.537665 -0.243532
v -0.137224 -0.564021 -0.189405
vt 0.562500 0.656250
vt 0.375000 0.687500
vt 0.375000 0.656250
vt 0.843750 0.968750
vt 0.375000 1.000000
vt 0.375000 0.968750
vt 0.562500 0.625000
vt 0.375000 0.656250
vt 0.375000 0.625000
vt 0.843750 0.937500
vt 0.375000 0.968750
vt 0.375000 0.937500
vt 0.000000 1.000000
vt 0.187500 0.531250
vt 0.187500 1.000000
vt 0.187500 0.531250
vt 0.375000 1.000000
vt 0.375000 0.531250
vt 0.562500 0.593750
vt 0.375000 0.625000
vt 0.375000 0.593750
vt 0.656250 0.406250
vt 0.625000 0.437500
vt 0.625000 0.406250
vt 0.375000 0.562500
vt 0.562500 0.593750
vt 0.375000 0.593750
vt 0.656250 0.375000
vt 0.625000 0.406250
vt 0.625000 0.375000
vt 0.562500 0.562500
vt 0.375000 0.531250
vt 0.562500 0.531250
vt 0.000000 0.500000
vt 0.187500 0.531250
vt 0.187500 0.500000
vt 0.625000 0.437500
vt 0.562500 0.468750
vt 0.562500 0.437500
vt 0.656250 0.343750
vt 0.625000 0.375000
vt 0.625000 0.343750
vt 0.625000 0.406250
vt 0.562500 0.437500
vt 0.562500 0.406250
vt 0.093750 0.312500
vt 0.062500 0.343750
vt 0.062500 0.312500
vt 0.000000 0.406250
vt 0.062500 0.375000
vt 0.062500 0.406250
vt 0.062500 0.375000
vt 0.125000 0.406250
vt 0.125000 0.375000
vt 0.156250 0.343750
vt 0.125000 0.406250
vt 0.125000 0.343750
vt 0.625000 0.812500
vt 0.562500 0.875000
vt 0.562500 0.812500
vt 0.187500 0.343750
vt 0.156250 0.406250
vt 0.156250 0.343750
vt 0.562500 0.750000
vt 0.625000 0.812500
vt 0.562500 0.812500
vt 0.218750 0.406250
vt 0.187500 0.343750
vt 0.218750 0.343750
vt 0.218750 0.343750
vt 0.250000 0.406250
vt 0.250000 0.343750
vt 0.312500 0.343750
vt 0.343750 0.406250
vt 0.312500 0.406250
vt 0.250000 0.375000
vt 0.312500 0.437500
vt 0.250000 0.437500
vt 0.343750 0.343750
vt 0.375000 0.406250
vt 0.343750 0.406250
vt 0.625000 0.687500
vt 0.562500 0.750000
vt 0.562500 0.687500
vt 0.406250 0.343750
vt 0.406250 0.406250
vt 0.437500 0.343750
vt 0.406250 0.406250
vt 0.437500 0.406250
vt 0.593750 0.343750
vt 0.562500 0.406250
vt 0.562500 0.343750
vt 0.562500 0.531250
vt 0.625000 0.593750
vt 0.562500 0.593750
vt 0.625000 0.343750
vt 0.593750 0.406250
vt 0.593750 0.343750
vt 0.437500 0.375000
vt 0.500000 0.437500
vt 0.437500 0.437500
vt 0.031250 0.375000
vt 0.000000 0.312500
vt 0.031250 0.312500
vt 0.031250 0.312500
vt 0.062500 0.375000
vt 0.062500 0.312500
vt 0.125000 0.343750
vt 0.062500 0.375000
vt 0.062500 0.343750
vt 0.156250 0.312500
vt 0.187500 0.343750
vt 0.156250 0.343750
vt 0.687500 0.843750
vt 0.625000 0.875000
vt 0.625000 0.843750
vt 0.187500 0.312500
vt 0.218750 0.343750
vt 0.187500 0.343750
vt 0.625000 0.843750
vt 0.687500 0.812500
vt 0.687500 0.843750
vt 0.625000 0.781250
vt 0.687500 0.812500
vt 0.687500 0.781250
vt 0.375000 0.500000
vt 0.187500 0.531250
vt 0.187500 0.500000
vt 0.218750 0.312500
vt 0.250000 0.343750
vt 0.218750 0.343750
vt 0.562500 0.500000
vt 0.375000 0.531250
vt 0.375000 0.500000
vt 0.687500 0.750000
vt 0.656250 0.781250
vt 0.656250 0.750000
vt 0.000000 0.500000
vt 0.187500 0.468750
vt 0.187500 0.500000
vt 0.375000 0.468750
vt 0.187500 0.500000
vt 0.625000 0.718750
vt 0.656250 0.781250
vt 0.625000 0.781250
vt 0.562500 0.468750
vt 0.625000 0.531250
vt 0.562500 0.531250
vt 0.281250 0.312500
vt 0.250000 0.375000
vt 0.250000 0.312500
vt 0.562500 0.375000
vt 0.500000 0.437500
vt 0.500000 0.375000
vt 0.281250 0.375000
vt 0.312500 0.312500
vt 0.312500 0.375000
vt 0.656250 0.531250
vt 0.625000 0.593750
vt 0.656250 0.593750
vt 0.125000 0.406250
vt 0.000000 0.437500
vt 0.000000 0.406250
vt 0.656250 0.468750
vt 0.625000 0.500000
vt 0.625000 0.468750
vt 0.687500 0.906250
vt 0.562500 0.937500
vt 0.562500 0.906250
vt 0.625000 0.437500
vt 0.656250 0.468750
vt 0.625000 0.468750
vt 0.687500 0.906250
vt 0.562500 0.875000
vt 0.687500 0.875000
vt 0.125000 0.406250
vt 0.250000 0.437500
vt 0.250000 0.406250
vt 0.312500 0.406250
vt 0.437500 0.437500
vt 0.312500 0.437500
vt 0.093750 0.312500
vt 0.125000 0.343750
vt 0.093750 0.343750
vt 0.687500 0.656250
vt 0.562500 0.687500
vt 0.562500 0.656250
vt 0.156250 0.312500
vt 0.125000 0.343750
vt 0.125000 0.312500
vt 0.562500 0.656250
vt 0.687500 0.625000
vt 0.687500 0.656250
vt 0.562500 0.593750
vt 0.687500 0.625000
vt 0.687500 0.593750
vt 0.562500 0.468750
vt 0.375000 0.500000
vt 0.375000 0.468750
vt 0.625000 0.687500
vt 0.687500 0.718750
vt 0.625000 0.718750
vt 0.187500 0.437500
vt 0.000000 0.468750
vt 0.000000 0.437500
vt 0.437500 0.343750
vt 0.500000 0.375000
vt 0.437500 0.375000
vt 0.375000 0.937500
vt 0.562500 0.875000
vt 0.562500 0.937500
vt 0.375000 0.812500
vt 0.562500 0.875000
vt 0.562500 0.812500
vt 0.375000 0.437500
vt 0.187500 0.468750
vt 0.187500 0.437500
vt 0.687500 0.500000
vt 0.625000 0.531250
vt 0.625000 0.500000
vt 0.562500 0.437500
vt 0.375000 0.468750
vt 0.375000 0.437500
vt 0.500000 0.343750
vt 0.562500 0.375000
vt 0.500000 0.375000
vt 0.375000 0.812500
vt 0.562500 0.750000
vt 0.562500 0.812500
vt 0.375000 0.687500
vt 0.562500 0.750000
vt 0.562500 0.687500
vt 0.562500 0.687500
vt 0.843750 1.000000
vt 0.562500 0.656250
vt 0.843750 0.968750
vt 0.000000 0.531250
vt 0.187500 1.000000
vt 0.562500 0.625000
vt 0.656250 0.437500
vt 0.562500 0.562500
vt 0.656250 0.406250
vt 0.375000 0.562500
vt 0.000000 0.531250
vt 0.625000 0.468750
vt 0.656250 0.375000
vt 0.625000 0.437500
vt 0.093750 0.343750
vt 0.000000 0.375000
vt 0.062500 0.406250
vt 0.156250 0.406250
vt 0.625000 0.875000
vt 0.187500 0.406250
vt 0.625000 0.750000
vt 0.218750 0.406250
vt 0.343750 0.343750
vt 0.312500 0.375000
vt 0.375000 0.343750
vt 0.625000 0.750000
vt 0.375000 0.343750
vt 0.406250 0.343750
vt 0.593750 0.406250
vt 0.625000 0.531250
vt 0.625000 0.406250
vt 0.500000 0.375000
vt 0.000000 0.375000
vt 0.031250 0.375000
vt 0.125000 0.375000
vt 0.187500 0.312500
vt 0.687500 0.875000
vt 0.218750 0.312500
vt 0.625000 0.812500
vt 0.625000 0.812500
vt 0.375000 0.531250
vt 0.250000 0.312500
vt 0.562500 0.531250
vt 0.687500 0.781250
vt 0.000000 0.468750
vt 0.187500 0.468750
vt 0.656250 0.718750
vt 0.625000 0.468750
vt 0.562500 0.437500
vt 0.281250 0.312500
vt 0.625000 0.531250
vt 0.125000 0.437500
vt 0.656250 0.500000
vt 0.687500 0.937500
vt 0.656250 0.437500
vt 0.562500 0.906250
vt 0.125000 0.437500
vt 0.437500 0.406250
vt 0.125000 0.312500
vt 0.687500 0.687500
vt 0.156250 0.343750
vt 0.562500 0.625000
vt 0.562500 0.625000
vt 0.562500 0.500000
vt 0.687500 0.687500
vt 0.187500 0.468750
vt 0.500000 0.343750
vt 0.375000 0.875000
vt 0.375000 0.875000
vt 0.375000 0.468750
vt 0.687500 0.531250
vt 0.562500 0.468750
vt 0.562500 0.343750
vt 0.375000 0.750000
vt 0.375000 0.750000
vn 0.5353 -0.8402 -0.0872
vn -0.8434 -0.5373 0.0000
vn -0.5353 0.8402 0.0872
vn 0.8434 0.5373 -0.0000
vn 0.0468 -0.0735 0.9962
vn -0.0468 0.0735 -0.9962
vn 0.5049 -0.7925 -0.3420
vn -0.5049 0.7925 0.3420
vn 0.1838 -0.2885 0.9397
vn -0.1838 0.2885 -0.9397
vn 0.5190 -0.8147 -0.2588
vn -0.5190 0.8147 0.2588
vn 0.1391 -0.2183 0.9659
vn -0.1391 0.2183 -0.9659
vn 0.5291 -0.8306 -0.1736
vn -0.5291 0.8306 0.1736
vn 0.0933 -0.1465 0.9848
vn -0.0933 0.1465 -0.9848
vn 0.5246 -0.8234 -0.2164
vn -0.5246 0.8234 0.2164
vn 0.1163 -0.1825 0.9763
vn -0.1163 0.1825 -0.9763
vn 0.5049 -0.7925 0.3420
vn -0.5049 0.7925 -0.3420
vn -0.1838 0.2885 0.9397
vn 0.1838 -0.2885 -0.9397
vn 0.4653 -0.7304 -0.5000
vn -0.4653 0.7304 0.5000
vn 0.2686 -0.4217 0.8660
vn -0.2687 0.4217 -0.8660
vn -0.2686 0.4217 -0.8660
usemtl Lunar_Skateboard
s 1
f 2/1/1 4/2/1 1/3/1
f 1/4/2 6/5/2 5/6/2
f 5/7/3 8/8/3 7/9/3
f 7/10/4 3/11/4 2/12/4
f 6/13/5 3/14/5 8/15/5
f 1/16/6 7/17/6 2/18/6
f 10/19/1 12/20/1 9/21/1
f 9/22/2 14/23/2 13/24/2
f 15/25/3 14/26/3 16/27/3
f 15/28/4 11/29/4 10/30/4
f 16/31/5 12/32/5 11/33/5
f 9/34/6 15/35/6 10/36/6
f 18/37/1 20/38/1 17/39/1
f 17/40/2 22/41/2 21/42/2
f 21/43/3 24/44/3 23/45/3
f 23/46/4 19/47/4 18/48/4
f 22/49/5 19/50/5 24/51/5
f 17/52/6 23/53/6 18/54/6
f 26/55/7 28/56/7 25/57/7
f 25/58/2 30/59/2 29/60/2
f 29/61/8 32/62/8 31/63/8
f 26/64/4 32/65/4 27/66/4
f 32/67/9 28/68/9 27/69/9
f 25/70/10 31/71/10 26/72/10
f 33/73/11 35/74/11 36/75/11
f 37/76/2 36/77/2 38/78/2
f 39/79/12 38/80/12 40/81/12
f 39/82/4 35/83/4 34/84/4
f 38/80/13 35/85/13 40/86/13
f 34/87/14 37/88/14 39/89/14
f 42/90/15 44/91/15 41/92/15
f 45/93/2 44/94/2 46/95/2
f 45/96/16 48/97/16 47/98/16
f 42/99/4 48/100/4 43/101/4
f 48/102/17 44/103/17 43/104/17
f 41/105/18 47/106/18 42/107/18
f 50/108/1 52/109/1 49/110/1
f 53/111/2 52/112/2 54/113/2
f 53/114/3 56/115/3 55/116/3
f 50/117/4 56/118/4 51/119/4
f 54/120/5 51/121/5 56/122/5
f 49/123/6 55/124/6 50/125/6
f 58/126/1 60/127/1 57/128/1
f 61/129/2 60/130/2 62/131/2
f 61/132/3 64/133/3 63/134/3
f 63/135/4 59/136/4 58/137/4
f 62/138/5 59/139/5 64/140/5
f 58/141/6 61/142/6 63/134/6
f 65/143/19 67/144/19 68/145/19
f 69/146/2 68/147/2 70/148/2
f 69/149/20 72/150/20 71/151/20
f 71/152/4 67/153/4 66/154/4
f 70/155/21 67/156/21 72/157/21
f 66/158/22 69/159/22 71/160/22
f 74/161/23 76/162/23 73/163/23
f 73/164/2 78/165/2 77/166/2
f 77/167/24 80/168/24 79/169/24
f 74/170/4 80/171/4 75/172/4
f 80/173/25 76/174/25 75/175/25
f 73/176/26 79/177/26 74/178/26
f 81/179/27 83/180/27 84/181/27
f 85/182/2 84/183/2 86/184/2
f 85/185/28 88/186/28 87/187/28
f 87/188/4 83/189/4 82/190/4
f 86/191/29 83/192/29 88/193/29
f 81/194/30 87/195/31 82/196/31
f 90/197/23 92/198/23 89/199/23
f 93/200/2 92/201/2 94/202/2
f 93/203/24 96/204/24 95/205/24
f 90/206/4 96/207/4 91/208/4
f 94/209/25 91/210/25 96/211/25
f 89/212/26 95/213/26 90/214/26
f 98/215/27 100/216/27 97/217/27
f 97/218/2 102/219/2 101/220/2
f 101/221/28 104/222/28 103/223/28
f 98/224/4 104/225/4 99/226/4
f 102/227/29 99/228/29 104/229/29
f 97/230/31 103/231/31 98/232/31
f 2/1/1 3/233/1 4/2/1
f 1/4/2 4/234/2 6/5/2
f 5/7/3 6/235/3 8/8/3
f 7/10/4 8/236/4 3/11/4
f 6/13/5 4/237/5 3/14/5
f 1/16/6 5/238/6 7/17/6
f 10/19/1 11/239/1 12/20/1
f 9/22/2 12/240/2 14/23/2
f 15/25/3 13/241/3 14/26/3
f 15/28/4 16/242/4 11/29/4
f 16/31/5 14/243/5 12/32/5
f 9/34/6 13/244/6 15/35/6
f 18/37/1 19/245/1 20/38/1
f 17/40/2 20/246/2 22/41/2
f 21/43/3 22/247/3 24/44/3
f 23/46/4 24/248/4 19/47/4
f 22/49/5 20/249/5 19/50/5
f 17/52/6 21/250/6 23/53/6
f 26/55/7 27/251/7 28/56/7
f 25/58/2 28/252/2 30/59/2
f 29/61/8 30/253/8 32/62/8
f 26/64/4 31/254/4 32/65/4
f 32/67/9 30/253/9 28/68/9
f 25/70/10 29/255/10 31/71/10
f 33/73/11 34/256/11 35/74/11
f 37/76/2 33/257/2 36/77/2
f 39/79/12 37/258/12 38/80/12
f 39/82/4 40/259/4 35/83/4
f 38/80/13 36/260/13 35/85/13
f 34/87/14 33/261/14 37/88/14
f 42/90/15 43/262/15 44/91/15
f 45/93/2 41/263/2 44/94/2
f 45/96/16 46/264/16 48/97/16
f 42/99/4 47/265/4 48/100/4
f 48/102/17 46/266/17 44/103/17
f 41/105/18 45/267/18 47/106/18
f 50/108/1 51/268/1 52/109/1
f 53/111/2 49/269/2 52/112/2
f 53/114/3 54/270/3 56/115/3
f 50/117/4 55/271/4 56/118/4
f 54/120/5 52/272/5 51/121/5
f 49/123/6 53/273/6 55/124/6
f 58/126/1 59/274/1 60/127/1
f 61/129/2 57/275/2 60/130/2
f 61/132/3 62/276/3 64/133/3
f 63/135/4 64/277/4 59/136/4
f 62/138/5 60/278/5 59/139/5
f 58/141/6 57/279/6 61/142/6
f 65/143/19 66/280/19 67/144/19
f 69/146/2 65/281/2 68/147/2
f 69/149/20 70/155/20 72/150/20
f 71/152/4 72/282/4 67/153/4
f 70/155/21 68/283/21 67/156/21
f 66/158/22 65/284/22 69/159/22
f 74/161/23 75/285/23 76/162/23
f 73/164/2 76/286/2 78/165/2
f 77/167/24 78/287/24 80/168/24
f 74/170/4 79/288/4 80/171/4
f 80/173/25 78/289/25 76/174/25
f 73/176/26 77/290/26 79/177/26
f 81/179/27 82/291/27 83/180/27
f 85/182/2 81/292/2 84/183/2
f 85/185/28 86/293/28 88/186/28
f 87/188/4 88/294/4 83/189/4
f 86/191/29 84/295/29 83/192/29
f 81/194/30 85/296/30 87/195/31
f 90/197/23 91/297/23 92/198/23
f 93/200/2 89/298/2 92/201/2
f 93/203/24 94/299/24 96/204/24
f 90/206/4 95/300/4 96/207/4
f 94/209/25 92/301/25 91/210/25
f 89/212/26 93/302/26 95/213/26
f 98/215/27 99/303/27 100/216/27
f 97/218/2 100/304/2 102/219/2
f 101/221/28 102/305/28 104/222/28
f 98/224/4 103/306/4 104/225/4
f 102/227/29 100/307/29 99/228/29
f 97/230/31 101/308/31 103/231/31
