# Blender v3.0.0 OBJ File: 'Lunar_2022Headband.blend'
# www.blender.org
mtllib Lunar_2022Headband.mtl
o 2022Headband_Plane.002
v 0.286337 -0.016509 0.019760
v 0.286348 -0.016499 -0.019757
v 0.286601 0.269170 0.019723
v 0.286601 0.269169 -0.019778
v -0.286337 -0.016509 0.019760
v -0.000000 -0.016503 0.019762
v -0.286348 -0.016499 -0.019757
v -0.000000 -0.016503 -0.019755
v -0.286601 0.269170 0.019723
v -0.286601 0.269169 -0.019778
v 0.270246 -0.000000 0.019760
v 0.270247 -0.000000 -0.019757
v 0.270489 0.269185 0.019723
v 0.270489 0.269184 -0.019778
v -0.270246 0.000000 0.019760
v 0.000000 0.000000 0.019762
v -0.270247 0.000000 -0.019757
v 0.000000 0.000000 -0.019755
v -0.270489 0.269185 0.019723
v -0.270489 0.269184 -0.019778
v -0.366499 -0.158724 -0.008624
v -0.285660 0.006995 -0.009924
v -0.264355 -0.003402 -0.010567
v -0.345194 -0.169121 -0.009267
v -0.365812 -0.158863 0.016377
v -0.284973 0.006856 0.015077
v -0.263668 -0.003541 0.014434
v -0.344507 -0.169260 0.015734
v 0.366499 -0.158724 -0.008624
v 0.285660 0.006995 -0.009924
v 0.264355 -0.003403 -0.010567
v 0.345194 -0.169122 -0.009267
v 0.365812 -0.158863 0.016377
v 0.284973 0.006856 0.015077
v 0.263668 -0.003542 0.014434
v 0.344507 -0.169261 0.015734
v 0.347142 -0.169215 0.016718
v 0.371700 -0.221879 0.016719
v 0.445374 -0.379873 0.016719
v 0.469932 -0.432538 0.016719
v 0.294478 -0.193772 0.016718
v 0.319036 -0.246437 0.016719
v 0.392709 -0.404431 0.016719
v 0.417267 -0.457096 0.016719
v 0.241813 -0.218330 0.016718
v 0.266371 -0.270995 0.016719
v 0.340045 -0.428989 0.016719
v 0.364603 -0.481653 0.016719
v 0.189148 -0.242888 0.016718
v 0.213706 -0.295553 0.016719
v 0.287380 -0.453547 0.016719
v 0.311938 -0.506211 0.016719
v 0.522690 -0.087934 0.016718
v 0.547248 -0.140599 0.016718
v 0.571806 -0.193264 0.016718
v 0.596364 -0.245928 0.016718
v 0.620922 -0.298593 0.016719
v 0.645480 -0.351257 0.016719
v 0.470026 -0.112492 0.016718
v 0.494584 -0.165157 0.016718
v 0.519142 -0.217822 0.016718
v 0.543700 -0.270486 0.016718
v 0.466477 -0.242379 0.016718
v 0.491035 -0.295044 0.016718
v 0.515593 -0.347709 0.016719
v 0.540151 -0.400373 0.016719
v 0.364697 -0.161608 0.016718
v 0.389254 -0.214273 0.016718
v 0.413812 -0.266937 0.016718
v 0.438370 -0.319602 0.016718
v 0.462928 -0.372267 0.016718
v 0.487486 -0.424931 0.016719
v 0.347142 -0.169215 -0.005944
v 0.371700 -0.221879 -0.005944
v 0.445374 -0.379873 -0.005944
v 0.469932 -0.432538 -0.005944
v 0.294478 -0.193772 -0.005944
v 0.319036 -0.246437 -0.005944
v 0.392709 -0.404431 -0.005944
v 0.417267 -0.457096 -0.005944
v 0.241813 -0.218330 -0.005944
v 0.266371 -0.270995 -0.005944
v 0.340045 -0.428989 -0.005944
v 0.364603 -0.481653 -0.005944
v 0.189148 -0.242888 -0.005944
v 0.213706 -0.295553 -0.005944
v 0.287380 -0.453547 -0.005944
v 0.311938 -0.506211 -0.005944
v 0.522690 -0.087934 -0.005944
v 0.547248 -0.140599 -0.005944
v 0.571806 -0.193264 -0.005944
v 0.596364 -0.245928 -0.005944
v 0.620922 -0.298593 -0.005944
v 0.645480 -0.351257 -0.005944
v 0.470026 -0.112492 -0.005944
v 0.494584 -0.165157 -0.005944
v 0.519142 -0.217822 -0.005944
v 0.543700 -0.270486 -0.005944
v 0.466477 -0.242379 -0.005944
v 0.491035 -0.295044 -0.005944
v 0.515593 -0.347709 -0.005944
v 0.540151 -0.400373 -0.005944
v 0.364697 -0.161608 -0.005944
v 0.389254 -0.214273 -0.005944
v 0.413812 -0.266937 -0.005944
v 0.438370 -0.319602 -0.005944
v 0.462928 -0.372267 -0.005944
v 0.487486 -0.424931 -0.005944
v -0.189148 -0.242891 0.016718
v -0.213706 -0.295556 0.016718
v -0.238264 -0.348220 0.016718
v -0.262822 -0.400885 0.016718
v -0.287379 -0.453550 0.016718
v -0.311937 -0.506214 0.016718
v -0.241812 -0.218333 0.016718
v -0.266370 -0.270998 0.016718
v -0.290928 -0.323663 0.016718
v -0.315486 -0.376327 0.016718
v -0.343593 -0.299105 0.016718
v -0.368151 -0.351769 0.016718
v -0.392709 -0.404434 0.016718
v -0.417267 -0.457099 0.016718
v -0.347142 -0.169217 0.016718
v -0.371700 -0.221882 0.016718
v -0.396257 -0.274547 0.016718
v -0.420815 -0.327211 0.016718
v -0.445373 -0.379876 0.016718
v -0.469931 -0.432541 0.016718
v -0.364697 -0.161611 0.016718
v -0.389255 -0.214276 0.016718
v -0.413813 -0.266941 0.016718
v -0.438371 -0.319605 0.016718
v -0.462929 -0.372270 0.016718
v -0.487486 -0.424935 0.016718
v -0.417361 -0.137053 0.016718
v -0.441919 -0.189718 0.016718
v -0.466477 -0.242383 0.016718
v -0.491035 -0.295047 0.016718
v -0.519142 -0.217825 0.016718
v -0.543700 -0.270489 0.016718
v -0.568258 -0.323154 0.016718
v -0.592816 -0.375819 0.016718
v -0.522691 -0.087938 0.016718
v -0.547249 -0.140602 0.016718
v -0.571807 -0.193267 0.016718
v -0.596364 -0.245932 0.016718
v -0.620922 -0.298596 0.016718
v -0.645480 -0.351261 0.016718
v -0.189148 -0.242891 -0.005944
v -0.213706 -0.295556 -0.005944
v -0.238264 -0.348220 -0.005944
v -0.262822 -0.400885 -0.005944
v -0.287379 -0.453550 -0.005944
v -0.311937 -0.506214 -0.005944
v -0.241812 -0.218333 -0.005944
v -0.266370 -0.270998 -0.005944
v -0.290928 -0.323663 -0.005944
v -0.315486 -0.376327 -0.005944
v -0.343593 -0.299105 -0.005944
v -0.368151 -0.351769 -0.005944
v -0.392709 -0.404434 -0.005944
v -0.417267 -0.457099 -0.005944
v -0.347142 -0.169217 -0.005944
v -0.371700 -0.221882 -0.005944
v -0.396257 -0.274547 -0.005944
v -0.420815 -0.327211 -0.005944
v -0.445373 -0.379876 -0.005944
v -0.469931 -0.432541 -0.005944
v -0.364697 -0.161611 -0.005944
v -0.389255 -0.214276 -0.005944
v -0.413813 -0.266941 -0.005944
v -0.438371 -0.319605 -0.005944
v -0.462929 -0.372270 -0.005944
v -0.487486 -0.424935 -0.005944
v -0.417361 -0.137053 -0.005944
v -0.441919 -0.189718 -0.005944
v -0.466477 -0.242383 -0.005944
v -0.491035 -0.295047 -0.005944
v -0.519142 -0.217825 -0.005944
v -0.543700 -0.270489 -0.005944
v -0.568258 -0.323154 -0.005944
v -0.592816 -0.375819 -0.005944
v -0.522691 -0.087938 -0.005944
v -0.547249 -0.140602 -0.005944
v -0.571807 -0.193267 -0.005944
v -0.596364 -0.245932 -0.005944
v -0.620922 -0.298596 -0.005944
v -0.645480 -0.351261 -0.005944
vt 0.453125 0.921875
vt 0.687500 0.953125
vt 0.453125 0.953125
vt 0.984375 0.890625
vt 0.953125 0.656250
vt 0.953125 0.890625
vt 0.937500 0.921875
vt 0.687500 0.921875
vt 0.953125 0.656250
vt 0.984375 0.890625
vt 0.953125 0.890625
vt 0.468750 0.921875
vt 0.687500 0.953125
vt 0.687500 0.921875
vt 0.953125 0.656250
vt 0.984375 0.875000
vt 0.953125 0.875000
vt 0.921875 0.921875
vt 0.921875 0.953125
vt 0.984375 0.875000
vt 0.953125 0.656250
vt 0.953125 0.875000
vt 0.687500 0.890625
vt 0.468750 0.875000
vt 0.687500 0.875000
vt 0.687500 0.890625
vt 0.468750 0.875000
vt 0.453125 0.890625
vt 0.453125 0.953125
vt 0.468750 0.921875
vt 0.453125 0.921875
vt 0.453125 0.656250
vt 0.468750 0.656250
vt 0.453125 0.656250
vt 0.453125 0.890625
vt 0.921875 0.875000
vt 0.937500 0.890625
vt 0.921875 0.875000
vt 0.687500 0.875000
vt 0.937500 0.921875
vt 0.921875 0.953125
vt 0.937500 0.953125
vt 0.937500 0.656250
vt 0.937500 0.890625
vt 0.937500 0.656250
vt 0.921875 0.656250
vt 0.984375 0.625000
vt 0.937500 0.343750
vt 0.984375 0.343750
vt 0.937500 0.343750
vt 0.984375 0.625000
vt 0.984375 0.343750
vt 0.976385 0.343882
vt 0.976385 0.617188
vt 0.976385 0.617188
vt 0.974920 0.345835
vt 0.939764 0.345835
vt 0.974920 0.345835
vt 0.937500 0.625000
vt 0.937500 0.625000
vt 0.943914 0.347336
vt 0.943914 0.605789
vt 0.943914 0.347336
vt 0.939764 0.343882
vt 0.978826 0.617188
vt 0.978826 0.343882
vt 0.978826 0.617188
vt 0.939764 0.343882
vt 0.978826 0.343882
vt 0.977288 0.615775
vt 0.977288 0.345294
vt 0.977288 0.615775
vt 0.975565 0.346035
vt 0.940687 0.346035
vt 0.940687 0.346035
vt 0.939764 0.617188
vt 0.983221 0.617188
vt 0.939764 0.617188
vt 0.942693 0.346745
vt 0.937500 0.614258
vt 0.942693 0.614324
vt 0.266602 0.110605
vt 0.327003 0.168509
vt 0.266602 0.171875
vt 0.327003 0.362741
vt 0.266602 0.359375
vt 0.328125 0.421100
vt 0.266602 0.421100
vt 0.328125 0.110605
vt 0.391747 0.168509
vt 0.390625 0.421100
vt 0.390625 0.110605
vt 0.451172 0.171875
vt 0.451172 0.359375
vt 0.391747 0.362741
vt 0.451172 0.421100
vt 0.047852 0.110605
vt 0.108887 0.170898
vt 0.047852 0.171875
vt 0.108887 0.234375
vt 0.047852 0.234375
vt 0.109375 0.296260
vt 0.047852 0.296875
vt 0.109375 0.110605
vt 0.232422 0.171875
vt 0.171875 0.421100
vt 0.047852 0.359375
vt 0.047852 0.421100
vt 0.172650 0.296875
vt 0.171875 0.235605
vt 0.232422 0.296875
vt 0.232422 0.359375
vt 0.172650 0.360605
vt 0.232422 0.421100
vt 0.171875 0.421100
vt 0.266602 0.110605
vt 0.327003 0.168509
vt 0.328125 0.110605
vt 0.266602 0.171875
vt 0.327003 0.362741
vt 0.266602 0.359375
vt 0.328125 0.421100
vt 0.391747 0.168509
vt 0.390625 0.110605
vt 0.390625 0.421100
vt 0.391747 0.362741
vt 0.451172 0.171875
vt 0.451172 0.110605
vt 0.451172 0.359375
vt 0.451172 0.421100
vt 0.047852 0.110605
vt 0.108887 0.170898
vt 0.109375 0.110605
vt 0.047852 0.171875
vt 0.108887 0.234375
vt 0.047852 0.234375
vt 0.109375 0.296260
vt 0.232422 0.171875
vt 0.047852 0.359375
vt 0.172650 0.360605
vt 0.172650 0.296875
vt 0.171875 0.235605
vt 0.232422 0.296875
vt 0.232422 0.234375
vt 0.232422 0.359375
vt 0.232422 0.421100
vt 0.266602 0.421100
vt 0.451172 0.110605
vt 0.047852 0.421100
vt 0.047852 0.296875
vt 0.232422 0.110605
vt 0.232422 0.234375
vt 0.232422 0.110605
vt 0.765625 0.110605
vt 0.704102 0.171875
vt 0.704102 0.110605
vt 0.764395 0.170898
vt 0.704102 0.234375
vt 0.764395 0.234375
vt 0.704102 0.296875
vt 0.888672 0.110605
vt 0.610150 0.360605
vt 0.485352 0.421100
vt 0.485352 0.359375
vt 0.828125 0.235605
vt 0.765625 0.296260
vt 0.888672 0.234375
vt 0.828900 0.296875
vt 0.888672 0.296875
vt 0.828900 0.360605
vt 0.888672 0.359375
vt 0.828125 0.421100
vt 0.546875 0.110605
vt 0.485352 0.171875
vt 0.485352 0.110605
vt 0.545645 0.170898
vt 0.485352 0.234375
vt 0.545645 0.234375
vt 0.485352 0.296875
vt 0.669922 0.110605
vt 0.704102 0.421100
vt 0.828900 0.360605
vt 0.704102 0.359375
vt 0.609375 0.235605
vt 0.546875 0.296260
vt 0.669922 0.234375
vt 0.610150 0.296875
vt 0.669922 0.296875
vt 0.669922 0.359375
vt 0.609375 0.421100
vt 0.704102 0.171875
vt 0.765625 0.110605
vt 0.704102 0.110605
vt 0.704102 0.234375
vt 0.764395 0.170898
vt 0.704102 0.296875
vt 0.764395 0.234375
vt 0.888672 0.110605
vt 0.485352 0.421100
vt 0.610150 0.360605
vt 0.485352 0.359375
vt 0.765625 0.296260
vt 0.828125 0.235605
vt 0.828900 0.296875
vt 0.888672 0.234375
vt 0.888672 0.296875
vt 0.828125 0.421100
vt 0.888672 0.359375
vt 0.485352 0.171875
vt 0.546875 0.110605
vt 0.485352 0.110605
vt 0.485352 0.234375
vt 0.545645 0.170898
vt 0.485352 0.296875
vt 0.545645 0.234375
vt 0.669922 0.110605
vt 0.546875 0.296260
vt 0.609375 0.235605
vt 0.610150 0.296875
vt 0.669922 0.234375
vt 0.669922 0.296875
vt 0.609375 0.421100
vt 0.669922 0.359375
vt 0.704102 0.421100
vt 0.704102 0.359375
vt 0.888672 0.171875
vt 0.888672 0.171875
vt 0.888672 0.421100
vt 0.888672 0.421100
vt 0.669922 0.171875
vt 0.669922 0.171875
vt 0.669922 0.421100
vt 0.669922 0.421100
vt 0.984375 0.656250
vt 0.937500 0.953125
vt 0.984375 0.656250
vt 0.468750 0.953125
vt 0.984375 0.656250
vt 0.984375 0.656250
vt 0.468750 0.953125
vt 0.468750 0.656250
vt 0.921875 0.921875
vt 0.921875 0.656250
vt 0.976385 0.343882
vt 0.939764 0.345835
vt 0.943914 0.605789
vt 0.977288 0.345294
vt 0.975565 0.346035
vt 0.983221 0.617188
vt 0.942693 0.346745
vn 0.0000 -1.0000 -0.0003
vn 1.0000 -0.0009 0.0003
vn 0.0000 -1.0000 0.0000
vn -1.0000 -0.0009 0.0003
vn 0.0000 1.0000 0.0000
vn -1.0000 0.0009 -0.0000
vn 1.0000 0.0009 -0.0000
vn 0.0000 0.0000 1.0000
vn -0.0000 -0.0000 -1.0000
vn 0.0009 1.0000 -0.0000
vn -0.0000 -0.0001 -1.0000
vn 0.0001 0.0001 1.0000
vn -0.0009 1.0000 -0.0000
vn 0.0001 -0.0001 -1.0000
vn 0.0000 0.0001 1.0000
vn -0.0275 0.0056 -0.9996
vn 0.0275 -0.0056 0.9996
vn -0.8984 0.4384 0.0271
vn -0.4384 -0.8987 0.0070
vn 0.4384 0.8987 -0.0070
vn 0.8984 -0.4384 -0.0271
vn 0.0275 0.0056 -0.9996
vn -0.0275 -0.0056 0.9996
vn 0.8984 0.4384 0.0271
vn 0.4384 -0.8987 0.0070
vn -0.4384 0.8987 -0.0070
vn -0.8984 -0.4384 -0.0271
vn -0.4226 0.9063 0.0000
vn 0.9063 0.4226 0.0000
vn -0.9063 -0.4226 0.0000
vn 0.4226 -0.9063 0.0000
vn 0.4226 0.9063 0.0000
vn 0.9063 -0.4226 0.0000
vn -0.9063 0.4226 0.0000
vn -0.4226 -0.9063 0.0000
vn 1.0000 -0.0009 -0.0000
vn -1.0000 -0.0009 -0.0000
vn -0.0001 -0.0001 -1.0000
vn -0.0001 0.0001 1.0000
usemtl 2022HeadBand
s off
f 1/1/1 8/2/1 2/3/1
f 2/4/2 3/5/2 1/6/2
f 5/7/3 8/2/3 6/8/3
f 9/9/4 7/10/4 5/11/4
f 11/12/5 18/13/5 16/14/5
f 13/15/6 12/16/6 11/17/6
f 15/18/5 18/13/5 17/19/5
f 17/20/7 19/21/7 15/22/7
f 6/23/8 11/24/8 16/25/8
f 8/26/9 12/27/9 2/28/9
f 4/29/10 13/30/10 3/31/10
f 4/32/11 12/27/11 14/33/11
f 3/34/12 11/24/12 1/35/12
f 6/23/8 15/36/8 5/37/8
f 8/26/9 17/38/9 18/39/9
f 9/40/13 20/41/13 10/42/13
f 10/43/14 17/38/14 7/44/14
f 9/45/15 15/36/15 19/46/15
f 22/47/16 24/48/16 21/49/16
f 28/50/17 26/51/17 25/52/17
f 21/53/18 26/54/18 22/55/18
f 21/56/19 28/57/19 25/58/19
f 22/47/20 27/59/20 23/60/20
f 24/61/21 27/62/21 28/63/21
f 32/64/22 30/65/22 29/66/22
f 34/67/23 36/68/23 33/69/23
f 34/70/24 29/71/24 30/72/24
f 29/73/25 36/74/25 32/75/25
f 35/76/26 30/77/26 31/78/26
f 32/79/27 35/80/27 31/81/27
f 37/82/8 42/83/8 38/84/8
f 43/85/8 38/84/8 42/83/8
f 39/86/8 44/87/8 40/88/8
f 41/89/8 46/90/8 42/83/8
f 43/85/8 48/91/8 44/87/8
f 45/92/8 50/93/8 46/90/8
f 51/94/8 46/90/8 50/93/8
f 47/95/8 52/96/8 48/91/8
f 53/97/8 60/98/8 54/99/8
f 54/99/8 61/100/8 55/101/8
f 55/101/8 62/102/8 56/103/8
f 59/104/8 68/105/8 60/98/8
f 102/106/9 93/107/9 94/108/9
f 61/100/8 64/109/8 62/102/8
f 63/110/8 70/111/8 64/109/8
f 64/109/8 71/112/8 65/113/8
f 65/113/8 72/114/8 66/115/8
f 73/116/9 78/117/9 77/118/9
f 74/119/9 79/120/9 78/117/9
f 75/121/9 80/122/9 79/120/9
f 77/118/9 82/123/9 81/124/9
f 79/120/9 84/125/9 83/126/9
f 81/124/9 86/127/9 85/128/9
f 82/123/9 87/129/9 86/127/9
f 83/126/9 88/130/9 87/129/9
f 89/131/9 96/132/9 95/133/9
f 90/134/9 97/135/9 96/132/9
f 91/136/9 98/137/9 97/135/9
f 104/138/9 95/133/9 96/132/9
f 57/139/28 101/140/28 65/113/28
f 97/135/9 100/141/9 99/142/9
f 99/142/9 106/143/9 105/144/9
f 100/141/9 107/145/9 106/143/9
f 101/140/9 108/146/9 107/145/9
f 37/82/29 74/119/29 73/116/29
f 39/86/29 74/119/29 38/84/29
f 39/86/29 76/147/29 75/121/29
f 42/83/30 79/120/30 43/85/30
f 47/95/29 82/123/29 46/90/29
f 49/148/30 86/127/30 50/93/30
f 50/93/30 87/129/30 51/94/30
f 57/139/8 66/115/8 58/149/8
f 51/94/30 88/130/30 52/96/30
f 37/82/28 77/118/28 41/89/28
f 44/87/31 76/147/31 40/88/31
f 41/89/28 81/124/28 45/92/28
f 46/90/31 78/117/31 42/83/31
f 43/85/28 83/126/28 47/95/28
f 48/91/31 80/122/31 44/87/31
f 45/92/28 85/128/28 49/148/28
f 52/96/31 84/125/31 48/91/31
f 54/99/29 89/131/29 53/97/29
f 54/99/29 91/136/29 90/134/29
f 55/101/29 92/150/29 91/136/29
f 57/139/29 94/108/29 93/107/29
f 60/98/30 97/135/30 61/100/30
f 64/109/29 101/140/29 100/141/29
f 67/151/30 104/138/30 68/105/30
f 69/152/30 106/143/30 70/111/30
f 71/112/30 106/143/30 107/145/30
f 71/112/30 108/146/30 72/114/30
f 53/97/28 95/133/28 59/104/28
f 62/102/31 92/150/31 56/103/31
f 66/115/31 94/108/31 58/149/31
f 59/104/28 103/153/28 67/151/28
f 68/105/31 96/132/31 60/98/31
f 61/100/28 99/142/28 63/110/28
f 64/109/31 98/137/31 62/102/31
f 63/110/28 105/144/28 69/152/28
f 72/114/31 102/106/31 66/115/31
f 115/154/8 110/155/8 109/156/8
f 116/157/8 111/158/8 110/155/8
f 117/159/8 112/160/8 111/158/8
f 123/161/8 116/157/8 115/154/8
f 141/162/8 134/163/8 133/164/8
f 119/165/8 118/166/8 117/159/8
f 125/167/8 120/168/8 119/165/8
f 126/169/8 121/170/8 120/168/8
f 127/171/8 122/172/8 121/170/8
f 135/173/8 130/174/8 129/175/8
f 136/176/8 131/177/8 130/174/8
f 137/178/8 132/179/8 131/177/8
f 143/180/8 136/176/8 135/173/8
f 154/181/9 161/182/9 153/183/9
f 139/184/8 138/185/8 137/178/8
f 145/186/8 140/187/8 139/184/8
f 146/188/8 141/162/8 140/187/8
f 147/189/8 142/190/8 141/162/8
f 150/191/9 155/192/9 149/193/9
f 151/194/9 156/195/9 150/191/9
f 152/196/9 157/197/9 151/194/9
f 156/195/9 163/198/9 155/192/9
f 174/199/9 181/200/9 173/201/9
f 158/202/9 159/203/9 157/197/9
f 160/204/9 165/205/9 159/203/9
f 161/182/9 166/206/9 160/204/9
f 162/207/9 167/208/9 161/182/9
f 170/209/9 175/210/9 169/211/9
f 171/212/9 176/213/9 170/209/9
f 172/214/9 177/215/9 171/212/9
f 176/213/9 183/216/9 175/210/9
f 121/170/32 153/183/32 161/182/32
f 178/217/9 179/218/9 177/215/9
f 180/219/9 185/220/9 179/218/9
f 181/200/9 186/221/9 180/219/9
f 182/222/9 187/223/9 181/200/9
f 109/156/33 150/191/33 149/193/33
f 111/158/33 150/191/33 110/155/33
f 112/160/33 151/194/33 111/158/33
f 114/224/33 153/183/33 113/225/33
f 116/157/34 157/197/34 117/159/34
f 120/168/33 161/182/33 160/204/33
f 123/161/34 164/226/34 124/227/34
f 125/167/34 166/206/34 126/169/34
f 126/169/34 167/208/34 127/171/34
f 127/171/34 168/228/34 128/229/34
f 115/154/32 149/193/32 155/192/32
f 112/160/35 158/202/35 152/196/35
f 122/172/35 154/181/35 114/224/35
f 123/161/32 155/192/32 163/198/32
f 124/227/35 156/195/35 116/157/35
f 141/162/32 173/201/32 181/200/32
f 119/165/32 157/197/32 159/203/32
f 120/168/35 158/202/35 118/166/35
f 119/165/32 165/205/32 125/167/32
f 128/229/35 162/207/35 122/172/35
f 129/175/33 170/209/33 169/211/33
f 131/177/33 170/209/33 130/174/33
f 131/177/33 172/214/33 171/212/33
f 134/163/33 173/201/33 133/164/33
f 136/176/34 177/215/34 137/178/34
f 141/162/33 180/219/33 140/187/33
f 143/180/34 184/230/34 144/231/34
f 145/186/34 186/221/34 146/188/34
f 146/188/34 187/223/34 147/189/34
f 147/189/34 188/232/34 148/233/34
f 129/175/32 175/210/32 135/173/32
f 138/185/35 172/214/35 132/179/35
f 142/190/35 174/199/35 134/163/35
f 143/180/32 175/210/32 183/216/32
f 144/231/35 176/213/35 136/176/35
f 139/184/32 177/215/32 179/218/32
f 140/187/35 178/217/35 138/185/35
f 145/186/32 179/218/32 185/220/32
f 148/233/35 182/222/35 142/190/35
f 121/170/8 114/224/8 113/225/8
f 1/1/3 6/8/3 8/2/3
f 2/4/36 4/234/36 3/5/36
f 5/7/1 7/235/1 8/2/1
f 9/9/37 10/236/37 7/10/37
f 11/12/5 12/237/5 18/13/5
f 13/15/6 14/238/6 12/16/6
f 15/18/5 16/14/5 18/13/5
f 17/20/7 20/239/7 19/21/7
f 6/23/8 1/35/8 11/24/8
f 8/26/9 18/39/9 12/27/9
f 4/29/10 14/240/10 13/30/10
f 4/32/38 2/28/38 12/27/38
f 3/34/15 13/241/15 11/24/15
f 6/23/8 16/25/8 15/36/8
f 8/26/9 7/44/9 17/38/9
f 9/40/13 19/242/13 20/41/13
f 10/43/11 20/243/11 17/38/11
f 9/45/39 5/37/39 15/36/39
f 22/47/16 23/60/16 24/48/16
f 28/50/17 27/59/17 26/51/17
f 21/53/18 25/244/18 26/54/18
f 21/56/19 24/245/19 28/57/19
f 22/47/20 26/51/20 27/59/20
f 24/61/21 23/246/21 27/62/21
f 32/64/22 31/78/22 30/65/22
f 34/67/23 35/76/23 36/68/23
f 34/70/24 33/247/24 29/71/24
f 29/73/25 33/248/25 36/74/25
f 35/76/26 34/249/26 30/77/26
f 32/79/27 36/250/27 35/80/27
f 37/82/8 41/89/8 42/83/8
f 43/85/8 39/86/8 38/84/8
f 39/86/8 43/85/8 44/87/8
f 41/89/8 45/92/8 46/90/8
f 43/85/8 47/95/8 48/91/8
f 45/92/8 49/148/8 50/93/8
f 51/94/8 47/95/8 46/90/8
f 47/95/8 51/94/8 52/96/8
f 53/97/8 59/104/8 60/98/8
f 54/99/8 60/98/8 61/100/8
f 55/101/8 61/100/8 62/102/8
f 59/104/8 67/151/8 68/105/8
f 102/106/9 101/140/9 93/107/9
f 61/100/8 63/110/8 64/109/8
f 63/110/8 69/152/8 70/111/8
f 64/109/8 70/111/8 71/112/8
f 65/113/8 71/112/8 72/114/8
f 73/116/9 74/119/9 78/117/9
f 74/119/9 75/121/9 79/120/9
f 75/121/9 76/147/9 80/122/9
f 77/118/9 78/117/9 82/123/9
f 79/120/9 80/122/9 84/125/9
f 81/124/9 82/123/9 86/127/9
f 82/123/9 83/126/9 87/129/9
f 83/126/9 84/125/9 88/130/9
f 89/131/9 90/134/9 96/132/9
f 90/134/9 91/136/9 97/135/9
f 91/136/9 92/150/9 98/137/9
f 104/138/9 103/153/9 95/133/9
f 57/139/28 93/107/28 101/140/28
f 97/135/9 98/137/9 100/141/9
f 99/142/9 100/141/9 106/143/9
f 100/141/9 101/140/9 107/145/9
f 101/140/9 102/106/9 108/146/9
f 37/82/29 38/84/29 74/119/29
f 39/86/29 75/121/29 74/119/29
f 39/86/29 40/88/29 76/147/29
f 42/83/30 78/117/30 79/120/30
f 47/95/29 83/126/29 82/123/29
f 49/148/30 85/128/30 86/127/30
f 50/93/30 86/127/30 87/129/30
f 57/139/8 65/113/8 66/115/8
f 51/94/30 87/129/30 88/130/30
f 37/82/28 73/116/28 77/118/28
f 44/87/31 80/122/31 76/147/31
f 41/89/28 77/118/28 81/124/28
f 46/90/31 82/123/31 78/117/31
f 43/85/28 79/120/28 83/126/28
f 48/91/31 84/125/31 80/122/31
f 45/92/28 81/124/28 85/128/28
f 52/96/31 88/130/31 84/125/31
f 54/99/29 90/134/29 89/131/29
f 54/99/29 55/101/29 91/136/29
f 55/101/29 56/103/29 92/150/29
f 57/139/29 58/149/29 94/108/29
f 60/98/30 96/132/30 97/135/30
f 64/109/29 65/113/29 101/140/29
f 67/151/30 103/153/30 104/138/30
f 69/152/30 105/144/30 106/143/30
f 71/112/30 70/111/30 106/143/30
f 71/112/30 107/145/30 108/146/30
f 53/97/28 89/131/28 95/133/28
f 62/102/31 98/137/31 92/150/31
f 66/115/31 102/106/31 94/108/31
f 59/104/28 95/133/28 103/153/28
f 68/105/31 104/138/31 96/132/31
f 61/100/28 97/135/28 99/142/28
f 64/109/31 100/141/31 98/137/31
f 63/110/28 99/142/28 105/144/28
f 72/114/31 108/146/31 102/106/31
f 115/154/8 116/157/8 110/155/8
f 116/157/8 117/159/8 111/158/8
f 117/159/8 118/166/8 112/160/8
f 123/161/8 124/227/8 116/157/8
f 141/162/8 142/190/8 134/163/8
f 119/165/8 120/168/8 118/166/8
f 125/167/8 126/169/8 120/168/8
f 126/169/8 127/171/8 121/170/8
f 127/171/8 128/229/8 122/172/8
f 135/173/8 136/176/8 130/174/8
f 136/176/8 137/178/8 131/177/8
f 137/178/8 138/185/8 132/179/8
f 143/180/8 144/231/8 136/176/8
f 154/181/9 162/207/9 161/182/9
f 139/184/8 140/187/8 138/185/8
f 145/186/8 146/188/8 140/187/8
f 146/188/8 147/189/8 141/162/8
f 147/189/8 148/233/8 142/190/8
f 150/191/9 156/195/9 155/192/9
f 151/194/9 157/197/9 156/195/9
f 152/196/9 158/202/9 157/197/9
f 156/195/9 164/226/9 163/198/9
f 174/199/9 182/222/9 181/200/9
f 158/202/9 160/204/9 159/203/9
f 160/204/9 166/206/9 165/205/9
f 161/182/9 167/208/9 166/206/9
f 162/207/9 168/228/9 167/208/9
f 170/209/9 176/213/9 175/210/9
f 171/212/9 177/215/9 176/213/9
f 172/214/9 178/217/9 177/215/9
f 176/213/9 184/230/9 183/216/9
f 121/170/32 113/225/32 153/183/32
f 178/217/9 180/219/9 179/218/9
f 180/219/9 186/221/9 185/220/9
f 181/200/9 187/223/9 186/221/9
f 182/222/9 188/232/9 187/223/9
f 109/156/33 110/155/33 150/191/33
f 111/158/33 151/194/33 150/191/33
f 112/160/33 152/196/33 151/194/33
f 114/224/33 154/181/33 153/183/33
f 116/157/34 156/195/34 157/197/34
f 120/168/33 121/170/33 161/182/33
f 123/161/34 163/198/34 164/226/34
f 125/167/34 165/205/34 166/206/34
f 126/169/34 166/206/34 167/208/34
f 127/171/34 167/208/34 168/228/34
f 115/154/32 109/156/32 149/193/32
f 112/160/35 118/166/35 158/202/35
f 122/172/35 162/207/35 154/181/35
f 123/161/32 115/154/32 155/192/32
f 124/227/35 164/226/35 156/195/35
f 141/162/32 133/164/32 173/201/32
f 119/165/32 117/159/32 157/197/32
f 120/168/35 160/204/35 158/202/35
f 119/165/32 159/203/32 165/205/32
f 128/229/35 168/228/35 162/207/35
f 129/175/33 130/174/33 170/209/33
f 131/177/33 171/212/33 170/209/33
f 131/177/33 132/179/33 172/214/33
f 134/163/33 174/199/33 173/201/33
f 136/176/34 176/213/34 177/215/34
f 141/162/33 181/200/33 180/219/33
f 143/180/34 183/216/34 184/230/34
f 145/186/34 185/220/34 186/221/34
f 146/188/34 186/221/34 187/223/34
f 147/189/34 187/223/34 188/232/34
f 129/175/32 169/211/32 175/210/32
f 138/185/35 178/217/35 172/214/35
f 142/190/35 182/222/35 174/199/35
f 143/180/32 135/173/32 175/210/32
f 144/231/35 184/230/35 176/213/35
f 139/184/32 137/178/32 177/215/32
f 140/187/35 180/219/35 178/217/35
f 145/186/32 139/184/32 179/218/32
f 148/233/35 188/232/35 182/222/35
f 121/170/8 122/172/8 114/224/8
