# Blender v3.2.0 OBJ File: 'Lunar_AstronautBackpack.blend'
# www.blender.org
mtllib Lunar_AstronautBackpack.mtl
o AstronautBackpack_cube.015
v 0.250000 -0.812500 -0.125000
v -0.250000 -0.812500 -0.125000
v -0.250000 -1.437500 -0.125000
v 0.250000 -1.437500 -0.125000
v 0.250000 -0.812500 -0.312500
v 0.250000 -1.437500 -0.312500
v -0.250000 -0.812500 -0.312500
v -0.250000 -1.437500 -0.312500
v 0.312500 -1.062500 -0.156250
v 0.250000 -1.062500 -0.156250
v 0.250000 -1.250000 -0.156250
v 0.312500 -1.250000 -0.156250
v 0.312500 -1.062500 -0.281250
v 0.312500 -1.250000 -0.281250
v 0.250000 -1.062500 -0.281250
v 0.250000 -1.250000 -0.281250
v 0.296875 -1.250000 -0.171875
v 0.250000 -1.250000 -0.171875
v 0.250000 -1.281250 -0.171875
v 0.296875 -1.281250 -0.171875
v 0.296875 -1.250000 -0.265625
v 0.296875 -1.281250 -0.265625
v 0.250000 -1.250000 -0.265625
v 0.250000 -1.281250 -0.265625
v 0.289062 -1.281250 -0.203125
v 0.257812 -1.281250 -0.203125
v 0.257812 -1.437500 -0.203125
v 0.289062 -1.437500 -0.203125
v 0.289062 -1.281250 -0.234375
v 0.289062 -1.437500 -0.234375
v 0.257812 -1.281250 -0.234375
v 0.257812 -1.437500 -0.234375
v 0.281250 -1.437500 -0.210938
v 0.265625 -1.437500 -0.210938
v 0.265625 -1.593750 -0.210938
v 0.281250 -1.593750 -0.210938
v 0.281250 -1.437500 -0.226563
v 0.281250 -1.593750 -0.226563
v 0.265625 -1.437500 -0.226563
v 0.265625 -1.593750 -0.226563
v -0.265625 -1.000000 -0.156250
v -0.328125 -1.000000 -0.156250
v -0.328125 -1.250000 -0.156250
v -0.265625 -1.250000 -0.156250
v -0.265625 -1.000000 -0.281250
v -0.265625 -1.250000 -0.281250
v -0.328125 -1.000000 -0.281250
v -0.328125 -1.250000 -0.281250
v -0.281250 -0.937500 -0.203125
v -0.312500 -0.937500 -0.203125
v -0.312500 -1.000000 -0.203125
v -0.281250 -1.000000 -0.203125
v -0.281250 -0.937500 -0.234375
v -0.281250 -1.000000 -0.234375
v -0.312500 -0.937500 -0.234375
v -0.312500 -1.000000 -0.234375
v -0.281250 -1.250000 -0.203125
v -0.312500 -1.250000 -0.203125
v -0.312500 -1.312500 -0.203125
v -0.281250 -1.312500 -0.203125
v -0.281250 -1.250000 -0.234375
v -0.281250 -1.312500 -0.234375
v -0.312500 -1.250000 -0.234375
v -0.312500 -1.312500 -0.234375
v -0.250000 -0.903125 -0.203125
v -0.312500 -0.903125 -0.203125
v -0.312500 -0.937500 -0.203125
v -0.250000 -0.937500 -0.203125
v -0.250000 -0.903125 -0.234375
v -0.250000 -0.937500 -0.234375
v -0.312500 -0.903125 -0.234375
v -0.312500 -0.937500 -0.234375
v -0.250000 -1.309375 -0.203125
v -0.312500 -1.309375 -0.203125
v -0.312500 -1.343750 -0.203125
v -0.250000 -1.343750 -0.203125
v -0.250000 -1.309375 -0.234375
v -0.250000 -1.343750 -0.234375
v -0.312500 -1.309375 -0.234375
v -0.312500 -1.343750 -0.234375
v 0.109375 -1.125000 -0.312500
v -0.109375 -1.125000 -0.312500
v -0.109375 -1.343750 -0.312500
v 0.109375 -1.343750 -0.312500
v 0.109375 -1.125000 -0.343750
v 0.109375 -1.343750 -0.343750
v -0.109375 -1.125000 -0.343750
v -0.109375 -1.343750 -0.343750
v 0.078125 -1.343750 -0.312500
v -0.078125 -1.343750 -0.312500
v -0.078125 -1.375000 -0.312500
v 0.078125 -1.375000 -0.312500
v 0.078125 -1.343750 -0.343750
v 0.078125 -1.375000 -0.343750
v -0.078125 -1.343750 -0.343750
v -0.078125 -1.375000 -0.343750
v 0.078125 -1.093750 -0.312500
v -0.078125 -1.093750 -0.312500
v -0.078125 -1.125000 -0.312500
v 0.078125 -1.125000 -0.312500
v 0.078125 -1.093750 -0.343750
v 0.078125 -1.125000 -0.343750
v -0.078125 -1.093750 -0.343750
v -0.078125 -1.125000 -0.343750
v 0.140625 -1.156250 -0.312500
v 0.109375 -1.156250 -0.312500
v 0.109375 -1.312500 -0.312500
v 0.140625 -1.312500 -0.312500
v 0.140625 -1.156250 -0.343750
v 0.140625 -1.312500 -0.343750
v 0.109375 -1.156250 -0.343750
v 0.109375 -1.312500 -0.343750
v -0.109375 -1.156250 -0.312500
v -0.140625 -1.156250 -0.312500
v -0.140625 -1.312500 -0.312500
v -0.109375 -1.312500 -0.312500
v -0.109375 -1.156250 -0.343750
v -0.109375 -1.312500 -0.343750
v -0.140625 -1.156250 -0.343750
v -0.140625 -1.312500 -0.343750
v 0.218750 -1.437500 -0.125000
v -0.218750 -1.437500 -0.125000
v -0.218750 -1.484375 -0.125000
v 0.218750 -1.484375 -0.125000
v 0.218750 -1.437500 -0.281250
v 0.218750 -1.484375 -0.281250
v -0.218750 -1.437500 -0.281250
v -0.218750 -1.484375 -0.281250
v 0.218750 -0.750000 -0.140625
v -0.218750 -0.750000 -0.140625
v -0.218750 -0.812500 -0.140625
v 0.218750 -0.812500 -0.140625
v 0.218750 -0.750000 -0.265625
v 0.218750 -0.812500 -0.265625
v -0.218750 -0.750000 -0.265625
v -0.218750 -0.812500 -0.265625
vt 0.250000 0.687500
vt 0.000000 1.000000
vt 0.000000 0.687500
vt 0.093750 0.375000
vt 0.000000 0.687500
vt 0.000000 0.375000
vt 0.500000 0.687500
vt 0.250000 1.000000
vt 0.250000 0.687500
vt 0.187500 0.375000
vt 0.093750 0.687500
vt 0.093750 0.375000
vt 0.187500 0.687500
vt 0.437500 0.593750
vt 0.437500 0.687500
vt 0.187500 0.500000
vt 0.437500 0.593750
vt 0.437500 0.500000
vt 0.031250 0.281250
vt 0.000000 0.375000
vt 0.000000 0.281250
vt 0.500000 0.343750
vt 0.437500 0.437500
vt 0.437500 0.343750
vt 0.062500 0.281250
vt 0.031250 0.375000
vt 0.031250 0.281250
vt 0.562500 0.343750
vt 0.500000 0.437500
vt 0.500000 0.343750
vt 0.250000 0.375000
vt 0.281250 0.312500
vt 0.281250 0.375000
vt 0.281250 0.312500
vt 0.312500 0.375000
vt 0.312500 0.312500
vt 0.750000 0.703125
vt 0.718750 0.718750
vt 0.718750 0.703125
vt 0.703125 0.453125
vt 0.656250 0.468750
vt 0.656250 0.453125
vt 0.437500 0.265625
vt 0.406250 0.281250
vt 0.406250 0.265625
vt 0.734375 0.765625
vt 0.687500 0.781250
vt 0.687500 0.765625
vt 0.375000 0.375000
vt 0.406250 0.328125
vt 0.406250 0.375000
vt 0.406250 0.328125
vt 0.437500 0.375000
vt 0.437500 0.328125
vt 0.671875 0.265625
vt 0.656250 0.343750
vt 0.656250 0.265625
vt 0.078125 0.234375
vt 0.062500 0.312500
vt 0.062500 0.234375
vt 0.109375 0.234375
vt 0.093750 0.312500
vt 0.093750 0.234375
vt 0.140625 0.234375
vt 0.125000 0.312500
vt 0.125000 0.234375
vt 0.750000 0.906250
vt 0.765625 0.890625
vt 0.765625 0.906250
vt 0.750000 0.859375
vt 0.765625 0.875000
vt 0.765625 0.859375
vt 0.171875 0.234375
vt 0.156250 0.312500
vt 0.156250 0.234375
vt 0.265625 0.234375
vt 0.250000 0.312500
vt 0.250000 0.234375
vt 0.296875 0.234375
vt 0.281250 0.312500
vt 0.281250 0.234375
vt 0.390625 0.234375
vt 0.375000 0.312500
vt 0.375000 0.234375
vt 0.750000 0.843750
vt 0.765625 0.828125
vt 0.765625 0.843750
vt 0.187500 0.234375
vt 0.203125 0.250000
vt 0.203125 0.234375
vt 0.593750 0.312500
vt 0.562500 0.437500
vt 0.562500 0.312500
vt 0.375000 0.375000
vt 0.312500 0.500000
vt 0.312500 0.375000
vt 0.625000 0.312500
vt 0.593750 0.437500
vt 0.593750 0.312500
vt 0.437500 0.375000
vt 0.375000 0.500000
vt 0.375000 0.375000
vt 0.156250 0.375000
vt 0.187500 0.312500
vt 0.187500 0.375000
vt 0.625000 0.781250
vt 0.656250 0.843750
vt 0.656250 0.781250
vt 0.421875 0.281250
vt 0.406250 0.312500
vt 0.406250 0.281250
vt 0.703125 0.531250
vt 0.687500 0.562500
vt 0.687500 0.531250
vt 0.703125 0.500000
vt 0.687500 0.531250
vt 0.687500 0.500000
vt 0.703125 0.468750
vt 0.687500 0.500000
vt 0.687500 0.468750
vt 0.718750 0.562500
vt 0.734375 0.546875
vt 0.734375 0.562500
vt 0.718750 0.515625
vt 0.734375 0.531250
vt 0.734375 0.515625
vt 0.578125 0.281250
vt 0.562500 0.312500
vt 0.562500 0.281250
vt 0.609375 0.281250
vt 0.593750 0.312500
vt 0.593750 0.281250
vt 0.703125 0.312500
vt 0.687500 0.343750
vt 0.687500 0.312500
vt 0.703125 0.281250
vt 0.687500 0.312500
vt 0.687500 0.281250
vt 0.718750 0.500000
vt 0.734375 0.484375
vt 0.734375 0.500000
vt 0.718750 0.453125
vt 0.734375 0.468750
vt 0.734375 0.453125
vt 0.031250 0.265625
vt 0.000000 0.281250
vt 0.000000 0.265625
vt 0.578125 0.265625
vt 0.562500 0.281250
vt 0.562500 0.265625
vt 0.750000 0.984375
vt 0.718750 1.000000
vt 0.718750 0.984375
vt 0.609375 0.265625
vt 0.593750 0.281250
vt 0.593750 0.265625
vt 0.031250 0.281250
vt 0.062500 0.265625
vt 0.062500 0.281250
vt 0.718750 0.953125
vt 0.750000 0.968750
vt 0.750000 0.953125
vt 0.750000 0.921875
vt 0.718750 0.937500
vt 0.718750 0.921875
vt 0.765625 0.953125
vt 0.750000 0.968750
vt 0.750000 0.953125
vt 0.750000 0.890625
vt 0.718750 0.906250
vt 0.718750 0.890625
vt 0.765625 0.921875
vt 0.750000 0.937500
vt 0.718750 0.875000
vt 0.750000 0.859375
vt 0.750000 0.875000
vt 0.718750 0.734375
vt 0.750000 0.750000
vt 0.750000 0.734375
vt 0.609375 0.765625
vt 0.500000 0.875000
vt 0.500000 0.765625
vt 0.328125 0.265625
vt 0.312500 0.375000
vt 0.312500 0.265625
vt 0.296875 0.390625
vt 0.187500 0.500000
vt 0.187500 0.390625
vt 0.359375 0.265625
vt 0.343750 0.375000
vt 0.343750 0.265625
vt 0.625000 0.437500
vt 0.734375 0.421875
vt 0.734375 0.437500
vt 0.625000 0.390625
vt 0.734375 0.406250
vt 0.734375 0.390625
vt 0.703125 0.359375
vt 0.625000 0.375000
vt 0.625000 0.359375
vt 0.734375 0.359375
vt 0.718750 0.375000
vt 0.718750 0.359375
vt 0.140625 0.328125
vt 0.062500 0.343750
vt 0.062500 0.328125
vt 0.734375 0.328125
vt 0.718750 0.343750
vt 0.718750 0.328125
vt 0.656250 0.843750
vt 0.734375 0.828125
vt 0.734375 0.843750
vt 0.656250 0.796875
vt 0.734375 0.812500
vt 0.734375 0.796875
vt 0.734375 0.671875
vt 0.656250 0.687500
vt 0.656250 0.671875
vt 0.703125 0.265625
vt 0.687500 0.281250
vt 0.687500 0.265625
vt 0.734375 0.640625
vt 0.656250 0.656250
vt 0.656250 0.640625
vt 0.734375 0.296875
vt 0.718750 0.312500
vt 0.718750 0.296875
vt 0.656250 0.625000
vt 0.734375 0.609375
vt 0.734375 0.625000
vt 0.656250 0.578125
vt 0.734375 0.593750
vt 0.734375 0.578125
vt 0.203125 0.265625
vt 0.187500 0.343750
vt 0.187500 0.265625
vt 0.234375 0.265625
vt 0.218750 0.343750
vt 0.218750 0.265625
vt 0.453125 0.265625
vt 0.437500 0.343750
vt 0.437500 0.265625
vt 0.671875 0.484375
vt 0.656250 0.562500
vt 0.656250 0.484375
vt 0.718750 0.281250
vt 0.734375 0.265625
vt 0.734375 0.281250
vt 0.000000 0.234375
vt 0.015625 0.250000
vt 0.015625 0.234375
vt 0.484375 0.265625
vt 0.468750 0.343750
vt 0.468750 0.265625
vt 0.515625 0.265625
vt 0.500000 0.343750
vt 0.500000 0.265625
vt 0.546875 0.265625
vt 0.531250 0.343750
vt 0.531250 0.265625
vt 0.640625 0.265625
vt 0.625000 0.343750
vt 0.625000 0.265625
vt 0.750000 1.000000
vt 0.765625 0.984375
vt 0.765625 1.000000
vt 0.031250 0.234375
vt 0.046875 0.250000
vt 0.046875 0.234375
vt 0.718750 0.718750
vt 0.500000 0.750000
vt 0.500000 0.718750
vt 0.140625 0.343750
vt 0.062500 0.375000
vt 0.062500 0.343750
vt 0.718750 0.687500
vt 0.500000 0.718750
vt 0.500000 0.687500
vt 0.703125 0.843750
vt 0.625000 0.875000
vt 0.625000 0.843750
vt 0.437500 0.687500
vt 0.656250 0.609375
vt 0.656250 0.687500
vt 0.437500 0.515625
vt 0.656250 0.593750
vt 0.656250 0.515625
vt 0.656250 0.468750
vt 0.437500 0.500000
vt 0.437500 0.468750
vt 0.250000 0.343750
vt 0.187500 0.375000
vt 0.187500 0.343750
vt 0.656250 0.437500
vt 0.437500 0.468750
vt 0.437500 0.437500
vt 0.687500 0.750000
vt 0.625000 0.781250
vt 0.625000 0.750000
vt 0.500000 1.000000
vt 0.718750 0.937500
vt 0.718750 1.000000
vt 0.500000 0.875000
vt 0.718750 0.937500
vt 0.718750 0.875000
vt 0.250000 1.000000
vt 0.093750 0.687500
vt 0.500000 1.000000
vt 0.187500 0.687500
vt 0.187500 0.593750
vt 0.187500 0.593750
vt 0.031250 0.375000
vt 0.500000 0.437500
vt 0.062500 0.375000
vt 0.562500 0.437500
vt 0.250000 0.312500
vt 0.281250 0.375000
vt 0.750000 0.718750
vt 0.703125 0.468750
vt 0.437500 0.281250
vt 0.734375 0.781250
vt 0.375000 0.328125
vt 0.406250 0.375000
vt 0.671875 0.343750
vt 0.078125 0.312500
vt 0.109375 0.312500
vt 0.140625 0.312500
vt 0.750000 0.890625
vt 0.750000 0.875000
vt 0.171875 0.312500
vt 0.265625 0.312500
vt 0.296875 0.312500
vt 0.390625 0.312500
vt 0.750000 0.828125
vt 0.187500 0.250000
vt 0.593750 0.437500
vt 0.375000 0.500000
vt 0.625000 0.437500
vt 0.437500 0.500000
vt 0.156250 0.312500
vt 0.625000 0.843750
vt 0.421875 0.312500
vt 0.703125 0.562500
vt 0.703125 0.531250
vt 0.703125 0.500000
vt 0.718750 0.546875
vt 0.718750 0.531250
vt 0.578125 0.312500
vt 0.609375 0.312500
vt 0.703125 0.343750
vt 0.703125 0.312500
vt 0.718750 0.484375
vt 0.718750 0.468750
vt 0.031250 0.281250
vt 0.578125 0.281250
vt 0.750000 1.000000
vt 0.609375 0.281250
vt 0.031250 0.265625
vt 0.718750 0.968750
vt 0.765625 0.968750
vt 0.750000 0.906250
vt 0.765625 0.937500
vt 0.718750 0.859375
vt 0.718750 0.750000
vt 0.609375 0.875000
vt 0.328125 0.375000
vt 0.296875 0.500000
vt 0.359375 0.375000
vt 0.625000 0.421875
vt 0.625000 0.406250
vt 0.703125 0.375000
vt 0.734375 0.375000
vt 0.140625 0.343750
vt 0.734375 0.343750
vt 0.656250 0.828125
vt 0.656250 0.812500
vt 0.734375 0.687500
vt 0.703125 0.281250
vt 0.734375 0.656250
vt 0.734375 0.312500
vt 0.656250 0.609375
vt 0.656250 0.593750
vt 0.203125 0.343750
vt 0.234375 0.343750
vt 0.453125 0.343750
vt 0.671875 0.562500
vt 0.718750 0.265625
vt 0.000000 0.250000
vt 0.484375 0.343750
vt 0.515625 0.343750
vt 0.546875 0.343750
vt 0.640625 0.343750
vt 0.750000 0.984375
vt 0.031250 0.250000
vt 0.718750 0.750000
vt 0.140625 0.375000
vt 0.718750 0.718750
vt 0.703125 0.875000
vt 0.437500 0.609375
vt 0.437500 0.593750
vt 0.656250 0.500000
vt 0.250000 0.375000
vt 0.656250 0.468750
vt 0.687500 0.781250
vt 0.500000 0.937500
vt 0.500000 0.937500
vn -0.0000 -0.0000 1.0000
vn 1.0000 -0.0000 0.0000
vn 0.0000 0.0000 -1.0000
vn -1.0000 0.0000 -0.0000
vn -0.0000 -1.0000 -0.0000
vn 0.0000 1.0000 0.0000
usemtl AstronautBackpack
s 1
f 2/1/1 4/2/1 1/3/1
f 1/4/2 6/5/2 5/6/2
f 5/7/3 8/8/3 7/9/3
f 7/10/4 3/11/4 2/12/4
f 6/13/5 3/14/5 8/15/5
f 1/16/6 7/17/6 2/18/6
f 10/19/1 12/20/1 9/21/1
f 9/22/2 14/23/2 13/24/2
f 13/25/3 16/26/3 15/27/3
f 15/28/4 11/29/4 10/30/4
f 14/31/5 11/32/5 16/33/5
f 9/34/6 15/35/6 10/36/6
f 18/37/1 20/38/1 17/39/1
f 17/40/2 22/41/2 21/42/2
f 21/43/3 24/44/3 23/45/3
f 23/46/4 19/47/4 18/48/4
f 22/49/5 19/50/5 24/51/5
f 17/52/6 23/53/6 18/54/6
f 26/55/1 28/56/1 25/57/1
f 25/58/2 30/59/2 29/60/2
f 29/61/3 32/62/3 31/63/3
f 31/64/4 27/65/4 26/66/4
f 30/67/5 27/68/5 32/69/5
f 25/70/6 31/71/6 26/72/6
f 34/73/1 36/74/1 33/75/1
f 33/76/2 38/77/2 37/78/2
f 37/79/3 40/80/3 39/81/3
f 39/82/4 35/83/4 34/84/4
f 38/85/5 35/86/5 40/87/5
f 33/88/6 39/89/6 34/90/6
f 42/91/1 44/92/1 41/93/1
f 41/94/2 46/95/2 45/96/2
f 45/97/3 48/98/3 47/99/3
f 47/100/4 43/101/4 42/102/4
f 46/103/5 43/104/5 48/105/5
f 41/106/6 47/107/6 42/108/6
f 50/109/1 52/110/1 49/111/1
f 49/112/2 54/113/2 53/114/2
f 53/115/3 56/116/3 55/117/3
f 55/118/4 51/119/4 50/120/4
f 54/121/5 51/122/5 56/123/5
f 49/124/6 55/125/6 50/126/6
f 58/127/1 60/128/1 57/129/1
f 57/130/2 62/131/2 61/132/2
f 61/133/3 64/134/3 63/135/3
f 63/136/4 59/137/4 58/138/4
f 62/139/5 59/140/5 64/141/5
f 57/142/6 63/143/6 58/144/6
f 66/145/1 68/146/1 65/147/1
f 65/148/2 70/149/2 69/150/2
f 69/151/3 72/152/3 71/153/3
f 71/154/4 67/155/4 66/156/4
f 70/157/5 67/158/5 72/159/5
f 65/160/6 71/161/6 66/162/6
f 74/163/1 76/164/1 73/165/1
f 73/166/2 78/167/2 77/168/2
f 77/169/3 80/170/3 79/171/3
f 79/172/4 75/173/4 74/163/4
f 78/174/5 75/175/5 80/176/5
f 73/177/6 79/178/6 74/179/6
f 82/180/1 84/181/1 81/182/1
f 81/183/2 86/184/2 85/185/2
f 85/186/3 88/187/3 87/188/3
f 87/189/4 83/190/4 82/191/4
f 86/192/5 83/193/5 88/194/5
f 81/195/6 87/196/6 82/197/6
f 90/198/1 92/199/1 89/200/1
f 89/201/2 94/202/2 93/203/2
f 93/204/3 96/205/3 95/206/3
f 95/207/4 91/208/4 90/209/4
f 94/210/5 91/211/5 96/212/5
f 89/213/6 95/214/6 90/215/6
f 98/216/1 100/217/1 97/218/1
f 97/219/2 102/220/2 101/221/2
f 101/222/3 104/223/3 103/224/3
f 103/225/4 99/226/4 98/227/4
f 102/228/5 99/229/5 104/230/5
f 97/231/6 103/232/6 98/233/6
f 106/234/1 108/235/1 105/236/1
f 105/237/2 110/238/2 109/239/2
f 109/240/3 112/241/3 111/242/3
f 111/243/4 107/244/4 106/245/4
f 110/246/5 107/247/5 112/248/5
f 105/249/6 111/250/6 106/251/6
f 114/252/1 116/253/1 113/254/1
f 113/255/2 118/256/2 117/257/2
f 117/258/3 120/259/3 119/260/3
f 119/261/4 115/262/4 114/263/4
f 118/264/5 115/265/5 120/266/5
f 113/267/6 119/268/6 114/269/6
f 122/270/1 124/271/1 121/272/1
f 121/273/2 126/274/2 125/275/2
f 125/276/3 128/277/3 127/278/3
f 127/279/4 123/280/4 122/281/4
f 126/282/5 123/283/5 128/284/5
f 121/285/6 127/286/6 122/287/6
f 130/288/1 132/289/1 129/290/1
f 129/291/2 134/292/2 133/293/2
f 133/294/3 136/295/3 135/296/3
f 135/297/4 131/298/4 130/299/4
f 134/300/5 131/301/5 136/302/5
f 129/303/6 135/304/6 130/305/6
f 2/1/1 3/306/1 4/2/1
f 1/4/2 4/307/2 6/5/2
f 5/7/3 6/308/3 8/8/3
f 7/10/4 8/309/4 3/11/4
f 6/13/5 4/310/5 3/14/5
f 1/16/6 5/311/6 7/17/6
f 10/19/1 11/312/1 12/20/1
f 9/22/2 12/313/2 14/23/2
f 13/25/3 14/314/3 16/26/3
f 15/28/4 16/315/4 11/29/4
f 14/31/5 12/316/5 11/32/5
f 9/34/6 13/317/6 15/35/6
f 18/37/1 19/318/1 20/38/1
f 17/40/2 20/319/2 22/41/2
f 21/43/3 22/320/3 24/44/3
f 23/46/4 24/321/4 19/47/4
f 22/49/5 20/322/5 19/50/5
f 17/52/6 21/323/6 23/53/6
f 26/55/1 27/324/1 28/56/1
f 25/58/2 28/325/2 30/59/2
f 29/61/3 30/326/3 32/62/3
f 31/64/4 32/327/4 27/65/4
f 30/67/5 28/328/5 27/68/5
f 25/70/6 29/329/6 31/71/6
f 34/73/1 35/330/1 36/74/1
f 33/76/2 36/331/2 38/77/2
f 37/79/3 38/332/3 40/80/3
f 39/82/4 40/333/4 35/83/4
f 38/85/5 36/334/5 35/86/5
f 33/88/6 37/335/6 39/89/6
f 42/91/1 43/336/1 44/92/1
f 41/94/2 44/337/2 46/95/2
f 45/97/3 46/338/3 48/98/3
f 47/100/4 48/339/4 43/101/4
f 46/103/5 44/340/5 43/104/5
f 41/106/6 45/341/6 47/107/6
f 50/109/1 51/342/1 52/110/1
f 49/112/2 52/343/2 54/113/2
f 53/115/3 54/344/3 56/116/3
f 55/118/4 56/345/4 51/119/4
f 54/121/5 52/346/5 51/122/5
f 49/124/6 53/347/6 55/125/6
f 58/127/1 59/348/1 60/128/1
f 57/130/2 60/349/2 62/131/2
f 61/133/3 62/350/3 64/134/3
f 63/136/4 64/351/4 59/137/4
f 62/139/5 60/352/5 59/140/5
f 57/142/6 61/353/6 63/143/6
f 66/145/1 67/354/1 68/146/1
f 65/148/2 68/355/2 70/149/2
f 69/151/3 70/356/3 72/152/3
f 71/154/4 72/357/4 67/155/4
f 70/157/5 68/358/5 67/158/5
f 65/160/6 69/359/6 71/161/6
f 74/163/1 75/173/1 76/164/1
f 73/166/2 76/360/2 78/167/2
f 77/169/3 78/361/3 80/170/3
f 79/172/4 80/362/4 75/173/4
f 78/174/5 76/363/5 75/175/5
f 73/177/6 77/364/6 79/178/6
f 82/180/1 83/365/1 84/181/1
f 81/183/2 84/366/2 86/184/2
f 85/186/3 86/367/3 88/187/3
f 87/189/4 88/368/4 83/190/4
f 86/192/5 84/369/5 83/193/5
f 81/195/6 85/370/6 87/196/6
f 90/198/1 91/371/1 92/199/1
f 89/201/2 92/372/2 94/202/2
f 93/204/3 94/373/3 96/205/3
f 95/207/4 96/374/4 91/208/4
f 94/210/5 92/375/5 91/211/5
f 89/213/6 93/376/6 95/214/6
f 98/216/1 99/377/1 100/217/1
f 97/219/2 100/378/2 102/220/2
f 101/222/3 102/379/3 104/223/3
f 103/225/4 104/380/4 99/226/4
f 102/228/5 100/381/5 99/229/5
f 97/231/6 101/382/6 103/232/6
f 106/234/1 107/383/1 108/235/1
f 105/237/2 108/384/2 110/238/2
f 109/240/3 110/385/3 112/241/3
f 111/243/4 112/386/4 107/244/4
f 110/246/5 108/387/5 107/247/5
f 105/249/6 109/388/6 111/250/6
f 114/252/1 115/389/1 116/253/1
f 113/255/2 116/390/2 118/256/2
f 117/258/3 118/391/3 120/259/3
f 119/261/4 120/392/4 115/262/4
f 118/264/5 116/393/5 115/265/5
f 113/267/6 117/394/6 119/268/6
f 122/270/1 123/395/1 124/271/1
f 121/273/2 124/396/2 126/274/2
f 125/276/3 126/397/3 128/277/3
f 127/279/4 128/398/4 123/280/4
f 126/282/5 124/399/5 123/283/5
f 121/285/6 125/400/6 127/286/6
f 130/288/1 131/401/1 132/289/1
f 129/291/2 132/402/2 134/292/2
f 133/294/3 134/403/3 136/295/3
f 135/297/4 136/404/4 131/298/4
f 134/300/5 132/405/5 131/301/5
f 129/303/6 133/406/6 135/304/6
