# Blender v3.0.0 OBJ File: 'Lunar_GlassHeadband.blend'
# www.blender.org
mtllib Lunar_GlassHeadband.mtl
o GlassHeadband_Plane.002
v 0.286337 -0.016509 0.019760
v 0.286348 -0.016499 -0.019757
v 0.286601 0.269170 0.019723
v 0.286601 0.269169 -0.019778
v -0.286337 -0.016509 0.019760
v -0.000000 -0.016503 0.019762
v -0.286348 -0.016499 -0.019757
v -0.000000 -0.016503 -0.019755
v -0.286601 0.269170 0.019723
v -0.286601 0.269169 -0.019778
v 0.270246 -0.000000 0.019760
v 0.270247 -0.000000 -0.019757
v 0.270489 0.269185 0.019723
v 0.270489 0.269184 -0.019778
v -0.270246 0.000000 0.019760
v 0.000000 0.000000 0.019762
v -0.270247 0.000000 -0.019757
v 0.000000 0.000000 -0.019755
v -0.270489 0.269185 0.019723
v -0.270489 0.269184 -0.019778
v -0.366499 -0.158724 -0.008624
v -0.285660 0.006995 -0.009924
v -0.264355 -0.003402 -0.010567
v -0.345194 -0.169121 -0.009267
v -0.365812 -0.158863 0.016377
v -0.284973 0.006856 0.015077
v -0.263668 -0.003541 0.014434
v -0.344507 -0.169260 0.015734
v 0.366499 -0.158724 -0.008624
v 0.285660 0.006995 -0.009924
v 0.264355 -0.003403 -0.010567
v 0.345194 -0.169122 -0.009267
v 0.365812 -0.158863 0.016377
v 0.284973 0.006856 0.015077
v 0.263668 -0.003542 0.014434
v 0.344507 -0.169261 0.015734
v -0.481596 0.004131 0.018386
v -0.525064 -0.030776 0.018386
v -0.546798 -0.048229 0.018386
v -0.590266 -0.083136 0.018386
v -0.464143 -0.017603 0.018386
v -0.376875 -0.126273 0.018386
v -0.202341 -0.343613 0.018386
v -0.416063 -0.121992 0.018386
v -0.398609 -0.143726 0.018386
v -0.224075 -0.361067 0.018386
v -0.507611 -0.052510 0.018386
v -0.490157 -0.074244 0.018386
v -0.472704 -0.095978 0.018386
v -0.455250 -0.117712 0.018386
v -0.437797 -0.139446 0.018386
v -0.420343 -0.161180 0.018386
v -0.245809 -0.378520 0.018386
v -0.529345 -0.069963 0.018386
v -0.511891 -0.091697 0.018386
v -0.494438 -0.113431 0.018386
v -0.476984 -0.135165 0.018386
v -0.459531 -0.156899 0.018386
v -0.442077 -0.178633 0.018386
v -0.267543 -0.395974 0.018386
v -0.481265 -0.174353 0.018386
v -0.463811 -0.196087 0.018386
v -0.289277 -0.413427 0.018386
v -0.572813 -0.104870 0.018386
v -0.485545 -0.213540 0.018386
v -0.311011 -0.430881 0.018386
v 0.481596 0.004132 0.018386
v 0.525064 -0.030775 0.018386
v 0.546798 -0.048229 0.018386
v 0.590266 -0.083136 0.018386
v 0.464143 -0.017603 0.018386
v 0.376875 -0.126273 0.018386
v 0.202341 -0.343613 0.018386
v 0.416063 -0.121992 0.018386
v 0.398609 -0.143726 0.018386
v 0.224075 -0.361067 0.018386
v 0.507611 -0.052509 0.018386
v 0.490157 -0.074243 0.018386
v 0.472704 -0.095977 0.018386
v 0.455250 -0.117712 0.018386
v 0.437797 -0.139446 0.018386
v 0.420343 -0.161180 0.018386
v 0.245809 -0.378520 0.018386
v 0.529345 -0.069963 0.018386
v 0.511891 -0.091697 0.018386
v 0.494438 -0.113431 0.018386
v 0.476984 -0.135165 0.018386
v 0.459531 -0.156899 0.018386
v 0.442078 -0.178633 0.018386
v 0.267543 -0.395973 0.018386
v 0.481265 -0.174352 0.018386
v 0.463811 -0.196087 0.018386
v 0.289277 -0.413427 0.018386
v 0.572813 -0.104870 0.018386
v 0.485546 -0.213540 0.018386
v 0.311011 -0.430880 0.018386
v -0.481596 0.004131 -0.013205
v -0.525064 -0.030776 -0.013205
v -0.546798 -0.048229 -0.013205
v -0.590266 -0.083136 -0.013205
v -0.464143 -0.017603 -0.013205
v -0.376875 -0.126273 -0.013205
v -0.202341 -0.343613 -0.013205
v -0.416063 -0.121992 -0.013205
v -0.398609 -0.143726 -0.013205
v -0.224075 -0.361067 -0.013205
v -0.507611 -0.052510 -0.013205
v -0.490157 -0.074244 -0.013205
v -0.472704 -0.095978 -0.013205
v -0.455250 -0.117712 -0.013205
v -0.437797 -0.139446 -0.013205
v -0.420343 -0.161180 -0.013205
v -0.245809 -0.378520 -0.013205
v -0.529345 -0.069963 -0.013205
v -0.511891 -0.091697 -0.013205
v -0.494438 -0.113431 -0.013205
v -0.476984 -0.135165 -0.013205
v -0.459531 -0.156899 -0.013205
v -0.442077 -0.178633 -0.013205
v -0.267543 -0.395974 -0.013205
v -0.481265 -0.174353 -0.013205
v -0.463811 -0.196087 -0.013205
v -0.289277 -0.413427 -0.013205
v -0.572813 -0.104870 -0.013205
v -0.485545 -0.213540 -0.013205
v -0.311011 -0.430881 -0.013205
v 0.481596 0.004132 -0.013205
v 0.525064 -0.030775 -0.013205
v 0.546798 -0.048229 -0.013204
v 0.590266 -0.083136 -0.013205
v 0.464143 -0.017603 -0.013205
v 0.376875 -0.126273 -0.013205
v 0.202341 -0.343613 -0.013205
v 0.416063 -0.121992 -0.013205
v 0.398609 -0.143726 -0.013205
v 0.224075 -0.361067 -0.013205
v 0.507611 -0.052509 -0.013205
v 0.490157 -0.074243 -0.013205
v 0.472704 -0.095977 -0.013205
v 0.455250 -0.117712 -0.013205
v 0.437797 -0.139446 -0.013205
v 0.420343 -0.161180 -0.013205
v 0.245809 -0.378520 -0.013205
v 0.529345 -0.069963 -0.013205
v 0.511891 -0.091697 -0.013205
v 0.494438 -0.113431 -0.013205
v 0.476984 -0.135165 -0.013205
v 0.459531 -0.156899 -0.013205
v 0.442078 -0.178633 -0.013205
v 0.267543 -0.395973 -0.013204
v 0.481265 -0.174352 -0.013205
v 0.463811 -0.196087 -0.013205
v 0.289277 -0.413427 -0.013205
v 0.572813 -0.104870 -0.013205
v 0.485546 -0.213540 -0.013205
v 0.311011 -0.430880 -0.013204
vt 0.453125 0.921875
vt 0.687500 0.953125
vt 0.453125 0.953125
vt 0.984375 0.890625
vt 0.953125 0.656250
vt 0.953125 0.890625
vt 0.937500 0.921875
vt 0.687500 0.921875
vt 0.953125 0.656250
vt 0.984375 0.890625
vt 0.953125 0.890625
vt 0.468750 0.921875
vt 0.687500 0.953125
vt 0.687500 0.921875
vt 0.953125 0.656250
vt 0.984375 0.875000
vt 0.953125 0.875000
vt 0.921875 0.921875
vt 0.921875 0.953125
vt 0.984375 0.875000
vt 0.953125 0.656250
vt 0.953125 0.875000
vt 0.687500 0.890625
vt 0.468750 0.875000
vt 0.687500 0.875000
vt 0.687500 0.890625
vt 0.468750 0.875000
vt 0.453125 0.890625
vt 0.453125 0.953125
vt 0.468750 0.921875
vt 0.453125 0.921875
vt 0.453125 0.656250
vt 0.468750 0.656250
vt 0.453125 0.656250
vt 0.453125 0.890625
vt 0.921875 0.875000
vt 0.937500 0.890625
vt 0.921875 0.875000
vt 0.687500 0.875000
vt 0.937500 0.921875
vt 0.921875 0.953125
vt 0.937500 0.953125
vt 0.937500 0.656250
vt 0.937500 0.890625
vt 0.937500 0.656250
vt 0.921875 0.656250
vt 0.984375 0.625000
vt 0.937500 0.343750
vt 0.984375 0.343750
vt 0.937500 0.343750
vt 0.984375 0.625000
vt 0.984375 0.343750
vt 0.968750 0.343750
vt 0.968750 0.625000
vt 0.968750 0.625000
vt 0.968750 0.343750
vt 0.937500 0.625000
vt 0.937500 0.625000
vt 0.937500 0.609375
vt 0.937500 0.343750
vt 0.984375 0.625000
vt 0.984375 0.343750
vt 0.984375 0.625000
vt 0.937500 0.343750
vt 0.984375 0.343750
vt 0.984375 0.609375
vt 0.984375 0.609375
vt 0.968750 0.343750
vt 0.937500 0.625000
vt 0.937500 0.625000
vt 0.937500 0.609375
vt 0.937500 0.609375
vt 0.156237 0.031514
vt 0.218683 0.061507
vt 0.156237 0.061507
vt 0.093790 0.546695
vt 0.062567 0.234464
vt 0.093790 0.234464
vt 0.093790 0.203241
vt 0.125013 0.234464
vt 0.125013 0.546695
vt 0.125013 0.031514
vt 0.125013 0.061507
vt 0.156237 0.093961
vt 0.125013 0.093961
vt 0.156237 0.125184
vt 0.125013 0.125184
vt 0.156237 0.172018
vt 0.125013 0.172018
vt 0.156237 0.203241
vt 0.125013 0.203241
vt 0.156237 0.234464
vt 0.156237 0.546695
vt 0.125013 0.061507
vt 0.062567 0.031514
vt 0.062567 0.061507
vt 0.187460 0.234464
vt 0.187460 0.546695
vt 0.218683 0.546695
vt 0.218683 0.234464
vt 0.515558 0.061507
vt 0.453112 0.031514
vt 0.453112 0.061507
vt 0.359442 0.234464
vt 0.390665 0.546695
vt 0.390665 0.234464
vt 0.390665 0.203241
vt 0.421888 0.234464
vt 0.421888 0.203241
vt 0.421888 0.546695
vt 0.421888 0.031514
vt 0.421888 0.061507
vt 0.453112 0.093961
vt 0.421888 0.093961
vt 0.453112 0.125184
vt 0.421888 0.125184
vt 0.453112 0.172018
vt 0.421888 0.172018
vt 0.453112 0.203241
vt 0.453112 0.234464
vt 0.453112 0.546695
vt 0.359442 0.031514
vt 0.421888 0.061507
vt 0.359442 0.061507
vt 0.484335 0.234464
vt 0.484335 0.203241
vt 0.484335 0.546695
vt 0.515558 0.546695
vt 0.515558 0.234464
vt 0.218683 0.061507
vt 0.156237 0.031514
vt 0.156237 0.061507
vt 0.062567 0.234464
vt 0.093790 0.546695
vt 0.093790 0.234464
vt 0.093790 0.203241
vt 0.125013 0.234464
vt 0.125013 0.203241
vt 0.125013 0.546695
vt 0.125013 0.031514
vt 0.156237 0.093961
vt 0.125013 0.093961
vt 0.156237 0.125184
vt 0.125013 0.125184
vt 0.156237 0.172018
vt 0.125013 0.172018
vt 0.156237 0.203241
vt 0.156237 0.234464
vt 0.156237 0.546695
vt 0.062567 0.031514
vt 0.187460 0.234464
vt 0.187460 0.203241
vt 0.187460 0.546695
vt 0.218683 0.546695
vt 0.218683 0.234464
vt 0.453112 0.031514
vt 0.515558 0.061507
vt 0.453112 0.061507
vt 0.390665 0.546695
vt 0.359442 0.234464
vt 0.390665 0.234464
vt 0.390665 0.203241
vt 0.421888 0.234464
vt 0.421888 0.546695
vt 0.421888 0.031514
vt 0.453112 0.093961
vt 0.421888 0.093961
vt 0.453112 0.125184
vt 0.421888 0.125184
vt 0.453112 0.172018
vt 0.421888 0.172018
vt 0.453112 0.203241
vt 0.421888 0.203241
vt 0.453112 0.234464
vt 0.453112 0.546695
vt 0.359442 0.031514
vt 0.484335 0.234464
vt 0.484335 0.546695
vt 0.515558 0.546695
vt 0.515558 0.234464
vt 0.218683 0.031514
vt 0.218683 0.031514
vt 0.062567 0.061507
vt 0.062567 0.546695
vt 0.187460 0.203241
vt 0.062567 0.546695
vt 0.515558 0.031514
vt 0.359442 0.061507
vt 0.359442 0.546695
vt 0.484335 0.203241
vt 0.515558 0.031514
vt 0.984375 0.656250
vt 0.937500 0.953125
vt 0.984375 0.656250
vt 0.468750 0.953125
vt 0.984375 0.656250
vt 0.984375 0.656250
vt 0.468750 0.953125
vt 0.468750 0.656250
vt 0.921875 0.921875
vt 0.921875 0.656250
vt 0.937500 0.609375
vt 0.968750 0.343750
vt 0.359442 0.546695
vn 0.0000 -1.0000 -0.0003
vn 1.0000 -0.0009 0.0003
vn 0.0000 -1.0000 0.0000
vn -1.0000 -0.0009 0.0003
vn 0.0000 1.0000 0.0000
vn -1.0000 0.0009 -0.0000
vn 1.0000 0.0009 -0.0000
vn 0.0000 0.0000 1.0000
vn -0.0000 -0.0000 -1.0000
vn 0.0009 1.0000 -0.0000
vn -0.0000 -0.0001 -1.0000
vn 0.0001 0.0001 1.0000
vn -0.0009 1.0000 -0.0000
vn 0.0001 -0.0001 -1.0000
vn 0.0000 0.0001 1.0000
vn -0.0275 0.0056 -0.9996
vn 0.0275 -0.0056 0.9996
vn -0.8984 0.4384 0.0271
vn -0.4384 -0.8987 0.0070
vn 0.4384 0.8987 -0.0070
vn 0.8984 -0.4384 -0.0271
vn 0.0275 0.0056 -0.9996
vn -0.0275 -0.0056 0.9996
vn 0.8984 0.4384 0.0271
vn 0.4384 -0.8987 0.0070
vn -0.4384 0.8987 -0.0070
vn -0.8984 -0.4384 -0.0271
vn -0.6261 0.7797 0.0000
vn 0.6261 0.7797 0.0000
vn 0.6261 -0.7797 0.0000
vn 0.7797 0.6261 0.0000
vn -0.7797 -0.6261 0.0000
vn -0.6261 -0.7797 0.0000
vn -0.7797 0.6261 0.0000
vn 0.7797 -0.6261 0.0000
vn 1.0000 -0.0009 -0.0000
vn -1.0000 -0.0009 -0.0000
vn -0.0001 -0.0001 -1.0000
vn -0.0001 0.0001 1.0000
usemtl 2022HeadBand
s off
f 1/1/1 8/2/1 2/3/1
f 2/4/2 3/5/2 1/6/2
f 5/7/3 8/2/3 6/8/3
f 9/9/4 7/10/4 5/11/4
f 11/12/5 18/13/5 16/14/5
f 13/15/6 12/16/6 11/17/6
f 15/18/5 18/13/5 17/19/5
f 17/20/7 19/21/7 15/22/7
f 6/23/8 11/24/8 16/25/8
f 8/26/9 12/27/9 2/28/9
f 4/29/10 13/30/10 3/31/10
f 4/32/11 12/27/11 14/33/11
f 3/34/12 11/24/12 1/35/12
f 6/23/8 15/36/8 5/37/8
f 8/26/9 17/38/9 18/39/9
f 9/40/13 20/41/13 10/42/13
f 10/43/14 17/38/14 7/44/14
f 9/45/15 15/36/15 19/46/15
f 22/47/16 24/48/16 21/49/16
f 28/50/17 26/51/17 25/52/17
f 21/53/18 26/54/18 22/55/18
f 21/53/19 28/50/19 25/56/19
f 22/47/20 27/57/20 23/58/20
f 24/48/21 27/59/21 28/50/21
f 32/60/22 30/61/22 29/62/22
f 34/63/23 36/64/23 33/65/23
f 34/66/24 29/62/24 30/67/24
f 29/68/25 36/64/25 32/60/25
f 35/69/26 30/61/26 31/70/26
f 32/60/27 35/71/27 31/72/27
f 39/73/8 64/74/8 54/75/8
f 46/76/8 42/77/8 45/78/8
f 44/79/8 52/80/8 45/78/8
f 53/81/8 45/78/8 52/80/8
f 38/82/8 54/75/8 47/83/8
f 47/83/8 55/84/8 48/85/8
f 48/85/8 56/86/8 49/87/8
f 49/87/8 57/88/8 50/89/8
f 50/89/8 58/90/8 51/91/8
f 51/91/8 59/92/8 52/80/8
f 60/93/8 52/80/8 59/92/8
f 107/94/9 97/95/9 101/96/9
f 58/90/8 62/97/8 59/92/8
f 63/98/8 59/92/8 62/97/8
f 66/99/8 62/97/8 65/100/8
f 94/101/8 69/102/8 84/103/8
f 72/104/8 76/105/8 75/106/8
f 74/107/8 82/108/8 81/109/8
f 75/106/8 83/110/8 82/108/8
f 68/111/8 84/103/8 69/102/8
f 77/112/8 85/113/8 84/103/8
f 78/114/8 86/115/8 85/113/8
f 79/116/8 87/117/8 86/115/8
f 80/118/8 88/119/8 87/117/8
f 81/109/8 89/120/8 88/119/8
f 82/108/8 90/121/8 89/120/8
f 127/122/9 137/123/9 131/124/9
f 88/119/8 92/125/8 91/126/8
f 89/120/8 93/127/8 92/125/8
f 92/125/8 96/128/8 95/129/8
f 124/130/9 99/131/9 114/132/9
f 102/133/9 106/134/9 105/135/9
f 104/136/9 112/137/9 111/138/9
f 105/135/9 113/139/9 112/137/9
f 98/140/9 114/132/9 99/131/9
f 107/94/9 115/141/9 114/132/9
f 108/142/9 116/143/9 115/141/9
f 109/144/9 117/145/9 116/143/9
f 110/146/9 118/147/9 117/145/9
f 111/138/9 119/148/9 118/147/9
f 112/137/9 120/149/9 119/148/9
f 37/150/28 98/140/28 38/82/28
f 118/147/9 122/151/9 121/152/9
f 119/148/9 123/153/9 122/151/9
f 122/151/9 126/154/9 125/155/9
f 129/156/9 154/157/9 144/158/9
f 136/159/9 132/160/9 135/161/9
f 134/162/9 142/163/9 135/161/9
f 143/164/9 135/161/9 142/163/9
f 128/165/9 144/158/9 137/123/9
f 137/123/9 145/166/9 138/167/9
f 138/167/9 146/168/9 139/169/9
f 139/169/9 147/170/9 140/171/9
f 140/171/9 148/172/9 141/173/9
f 141/173/9 149/174/9 142/163/9
f 150/175/9 142/163/9 149/174/9
f 67/176/29 128/165/29 127/122/29
f 148/172/9 152/177/9 149/174/9
f 153/178/9 149/174/9 152/177/9
f 156/179/9 152/177/9 155/180/9
f 39/73/28 100/181/28 40/182/28
f 38/82/28 99/131/28 39/73/28
f 41/183/30 107/94/30 101/96/30
f 41/183/31 97/95/31 37/150/31
f 43/184/31 102/133/31 42/77/31
f 45/78/31 104/136/31 44/79/31
f 48/85/31 107/94/31 47/83/31
f 49/87/31 108/142/31 48/85/31
f 50/89/31 109/144/31 49/87/31
f 51/91/31 110/146/31 50/89/31
f 54/75/32 115/141/32 55/84/32
f 55/84/32 116/143/32 56/86/32
f 56/86/32 117/145/32 57/88/32
f 57/88/32 118/147/32 58/90/32
f 61/185/32 122/151/32 62/97/32
f 40/182/32 124/130/32 64/74/32
f 125/155/32 66/99/32 65/100/32
f 37/150/8 47/83/8 41/183/8
f 54/75/30 124/130/30 114/132/30
f 42/77/28 105/135/28 45/78/28
f 46/76/30 103/186/30 43/184/30
f 44/79/28 111/138/28 51/91/28
f 53/81/30 106/134/30 46/76/30
f 53/81/30 120/149/30 113/139/30
f 58/90/28 121/152/28 61/185/28
f 63/98/30 120/149/30 60/93/30
f 62/97/28 125/155/28 65/100/28
f 63/98/30 126/154/30 123/153/30
f 69/102/29 130/187/29 129/156/29
f 68/111/29 129/156/29 128/165/29
f 71/188/33 137/123/33 77/112/33
f 67/176/34 131/124/34 71/188/34
f 132/160/34 73/189/34 72/104/34
f 74/107/34 135/161/34 75/106/34
f 78/114/34 137/123/34 138/167/34
f 78/114/34 139/169/34 79/116/34
f 79/116/34 140/171/34 80/118/34
f 80/118/34 141/173/34 81/109/34
f 85/113/35 144/158/35 84/103/35
f 86/115/35 145/166/35 85/113/35
f 87/117/35 146/168/35 86/115/35
f 88/119/35 147/170/35 87/117/35
f 92/125/35 151/190/35 91/126/35
f 94/101/35 130/187/35 70/191/35
f 96/128/35 155/180/35 95/129/35
f 77/112/8 67/176/8 71/188/8
f 84/103/33 154/157/33 94/101/33
f 75/106/29 132/160/29 72/104/29
f 73/189/33 136/159/33 76/105/33
f 81/109/29 134/162/29 74/107/29
f 76/105/33 143/164/33 83/110/33
f 83/110/33 150/175/33 90/121/33
f 91/126/29 148/172/29 88/119/29
f 90/121/33 153/178/33 93/127/33
f 95/129/29 152/177/29 92/125/29
f 93/127/33 156/179/33 96/128/33
f 1/1/3 6/8/3 8/2/3
f 2/4/36 4/192/36 3/5/36
f 5/7/1 7/193/1 8/2/1
f 9/9/37 10/194/37 7/10/37
f 11/12/5 12/195/5 18/13/5
f 13/15/6 14/196/6 12/16/6
f 15/18/5 16/14/5 18/13/5
f 17/20/7 20/197/7 19/21/7
f 6/23/8 1/35/8 11/24/8
f 8/26/9 18/39/9 12/27/9
f 4/29/10 14/198/10 13/30/10
f 4/32/38 2/28/38 12/27/38
f 3/34/15 13/199/15 11/24/15
f 6/23/8 16/25/8 15/36/8
f 8/26/9 7/44/9 17/38/9
f 9/40/13 19/200/13 20/41/13
f 10/43/11 20/201/11 17/38/11
f 9/45/39 5/37/39 15/36/39
f 22/47/16 23/58/16 24/48/16
f 28/50/17 27/57/17 26/51/17
f 21/53/18 25/56/18 26/54/18
f 21/53/19 24/48/19 28/50/19
f 22/47/20 26/51/20 27/57/20
f 24/48/21 23/202/21 27/59/21
f 32/60/22 31/70/22 30/61/22
f 34/63/23 35/69/23 36/64/23
f 34/66/24 33/65/24 29/62/24
f 29/68/25 33/203/25 36/64/25
f 35/69/26 34/63/26 30/61/26
f 32/60/27 36/64/27 35/71/27
f 39/73/8 40/182/8 64/74/8
f 46/76/8 43/184/8 42/77/8
f 44/79/8 51/91/8 52/80/8
f 53/81/8 46/76/8 45/78/8
f 38/82/8 39/73/8 54/75/8
f 47/83/8 54/75/8 55/84/8
f 48/85/8 55/84/8 56/86/8
f 49/87/8 56/86/8 57/88/8
f 50/89/8 57/88/8 58/90/8
f 51/91/8 58/90/8 59/92/8
f 60/93/8 53/81/8 52/80/8
f 107/94/9 98/140/9 97/95/9
f 58/90/8 61/185/8 62/97/8
f 63/98/8 60/93/8 59/92/8
f 66/99/8 63/98/8 62/97/8
f 94/101/8 70/191/8 69/102/8
f 72/104/8 73/189/8 76/105/8
f 74/107/8 75/106/8 82/108/8
f 75/106/8 76/105/8 83/110/8
f 68/111/8 77/112/8 84/103/8
f 77/112/8 78/114/8 85/113/8
f 78/114/8 79/116/8 86/115/8
f 79/116/8 80/118/8 87/117/8
f 80/118/8 81/109/8 88/119/8
f 81/109/8 82/108/8 89/120/8
f 82/108/8 83/110/8 90/121/8
f 127/122/9 128/165/9 137/123/9
f 88/119/8 89/120/8 92/125/8
f 89/120/8 90/121/8 93/127/8
f 92/125/8 93/127/8 96/128/8
f 124/130/9 100/181/9 99/131/9
f 102/133/9 103/186/9 106/134/9
f 104/136/9 105/135/9 112/137/9
f 105/135/9 106/134/9 113/139/9
f 98/140/9 107/94/9 114/132/9
f 107/94/9 108/142/9 115/141/9
f 108/142/9 109/144/9 116/143/9
f 109/144/9 110/146/9 117/145/9
f 110/146/9 111/138/9 118/147/9
f 111/138/9 112/137/9 119/148/9
f 112/137/9 113/139/9 120/149/9
f 37/150/28 97/95/28 98/140/28
f 118/147/9 119/148/9 122/151/9
f 119/148/9 120/149/9 123/153/9
f 122/151/9 123/153/9 126/154/9
f 129/156/9 130/187/9 154/157/9
f 136/159/9 133/204/9 132/160/9
f 134/162/9 141/173/9 142/163/9
f 143/164/9 136/159/9 135/161/9
f 128/165/9 129/156/9 144/158/9
f 137/123/9 144/158/9 145/166/9
f 138/167/9 145/166/9 146/168/9
f 139/169/9 146/168/9 147/170/9
f 140/171/9 147/170/9 148/172/9
f 141/173/9 148/172/9 149/174/9
f 150/175/9 143/164/9 142/163/9
f 67/176/29 68/111/29 128/165/29
f 148/172/9 151/190/9 152/177/9
f 153/178/9 150/175/9 149/174/9
f 156/179/9 153/178/9 152/177/9
f 39/73/28 99/131/28 100/181/28
f 38/82/28 98/140/28 99/131/28
f 41/183/30 47/83/30 107/94/30
f 41/183/31 101/96/31 97/95/31
f 43/184/31 103/186/31 102/133/31
f 45/78/31 105/135/31 104/136/31
f 48/85/31 108/142/31 107/94/31
f 49/87/31 109/144/31 108/142/31
f 50/89/31 110/146/31 109/144/31
f 51/91/31 111/138/31 110/146/31
f 54/75/32 114/132/32 115/141/32
f 55/84/32 115/141/32 116/143/32
f 56/86/32 116/143/32 117/145/32
f 57/88/32 117/145/32 118/147/32
f 61/185/32 121/152/32 122/151/32
f 40/182/32 100/181/32 124/130/32
f 125/155/32 126/154/32 66/99/32
f 37/150/8 38/82/8 47/83/8
f 54/75/30 64/74/30 124/130/30
f 42/77/28 102/133/28 105/135/28
f 46/76/30 106/134/30 103/186/30
f 44/79/28 104/136/28 111/138/28
f 53/81/30 113/139/30 106/134/30
f 53/81/30 60/93/30 120/149/30
f 58/90/28 118/147/28 121/152/28
f 63/98/30 123/153/30 120/149/30
f 62/97/28 122/151/28 125/155/28
f 63/98/30 66/99/30 126/154/30
f 69/102/29 70/191/29 130/187/29
f 68/111/29 69/102/29 129/156/29
f 71/188/33 131/124/33 137/123/33
f 67/176/34 127/122/34 131/124/34
f 132/160/34 133/204/34 73/189/34
f 74/107/34 134/162/34 135/161/34
f 78/114/34 77/112/34 137/123/34
f 78/114/34 138/167/34 139/169/34
f 79/116/34 139/169/34 140/171/34
f 80/118/34 140/171/34 141/173/34
f 85/113/35 145/166/35 144/158/35
f 86/115/35 146/168/35 145/166/35
f 87/117/35 147/170/35 146/168/35
f 88/119/35 148/172/35 147/170/35
f 92/125/35 152/177/35 151/190/35
f 94/101/35 154/157/35 130/187/35
f 96/128/35 156/179/35 155/180/35
f 77/112/8 68/111/8 67/176/8
f 84/103/33 144/158/33 154/157/33
f 75/106/29 135/161/29 132/160/29
f 73/189/33 133/204/33 136/159/33
f 81/109/29 141/173/29 134/162/29
f 76/105/33 136/159/33 143/164/33
f 83/110/33 143/164/33 150/175/33
f 91/126/29 151/190/29 148/172/29
f 90/121/33 150/175/33 153/178/33
f 95/129/29 155/180/29 152/177/29
f 93/127/33 153/178/33 156/179/33
