# Blender 3.4.1
# www.blender.org
mtllib lunar_em_fox_tail.mtl
o lunar_em_fox_tail
v 0.062500 -1.125000 -0.750000
v 0.062500 -1.125000 -0.562500
v 0.062500 -0.750000 -0.750000
v 0.062500 -0.750000 -0.562500
v -0.062500 -1.125000 -0.562500
v -0.062500 -1.125000 -0.750000
v -0.062500 -0.750000 -0.562500
v -0.062500 -0.750000 -0.750000
v -0.062500 -0.937500 -0.437500
v -0.062500 -0.937500 -0.250000
v -0.062500 -0.687500 -0.437500
v -0.062500 -0.687500 -0.250000
v -0.125000 -0.937500 -0.250000
v -0.125000 -0.937500 -0.437500
v -0.125000 -0.687500 -0.250000
v -0.125000 -0.687500 -0.437500
v -0.062500 -0.875000 -0.250000
v -0.062500 -0.875000 -0.187500
v -0.062500 -0.750000 -0.250000
v -0.062500 -0.750000 -0.187500
v -0.125000 -0.875000 -0.187500
v -0.125000 -0.875000 -0.250000
v -0.125000 -0.750000 -0.187500
v -0.125000 -0.750000 -0.250000
v 0.125000 -0.875000 -0.250000
v 0.125000 -0.875000 -0.187500
v 0.125000 -0.750000 -0.250000
v 0.125000 -0.750000 -0.187500
v 0.062500 -0.875000 -0.187500
v 0.062500 -0.875000 -0.250000
v 0.062500 -0.750000 -0.187500
v 0.062500 -0.750000 -0.250000
v 0.125000 -0.937500 -0.437500
v 0.125000 -0.937500 -0.250000
v 0.125000 -0.687500 -0.437500
v 0.125000 -0.687500 -0.250000
v 0.062500 -0.937500 -0.250000
v 0.062500 -0.937500 -0.437500
v 0.062500 -0.687500 -0.250000
v 0.062500 -0.687500 -0.437500
v -0.125000 -0.875000 -0.437500
v -0.125000 -0.875000 -0.250000
v -0.125000 -0.750000 -0.437500
v -0.125000 -0.750000 -0.250000
v -0.187500 -0.875000 -0.250000
v -0.187500 -0.875000 -0.437500
v -0.187500 -0.750000 -0.250000
v -0.187500 -0.750000 -0.437500
v 0.187500 -0.875000 -0.437500
v 0.187500 -0.875000 -0.250000
v 0.187500 -0.750000 -0.437500
v 0.187500 -0.750000 -0.250000
v 0.125000 -0.875000 -0.250000
v 0.125000 -0.875000 -0.437500
v 0.125000 -0.750000 -0.250000
v 0.125000 -0.750000 -0.437500
v 0.187500 -0.937500 -0.562500
v 0.187500 -0.937500 -0.437500
v 0.187500 -0.812500 -0.562500
v 0.187500 -0.812500 -0.437500
v 0.125000 -0.937500 -0.437500
v 0.125000 -0.937500 -0.562500
v 0.125000 -0.812500 -0.437500
v 0.125000 -0.812500 -0.562500
v -0.125000 -0.937500 -0.562500
v -0.125000 -0.937500 -0.437500
v -0.125000 -0.812500 -0.562500
v -0.125000 -0.812500 -0.437500
v -0.187500 -0.937500 -0.437500
v -0.187500 -0.937500 -0.562500
v -0.187500 -0.812500 -0.437500
v -0.187500 -0.812500 -0.562500
v -0.062500 -1.000000 -0.562500
v -0.062500 -1.000000 -0.437500
v -0.062500 -0.750000 -0.562500
v -0.062500 -0.750000 -0.437500
v -0.125000 -1.000000 -0.437500
v -0.125000 -1.000000 -0.562500
v -0.125000 -0.750000 -0.437500
v -0.125000 -0.750000 -0.562500
v 0.125000 -1.000000 -0.562500
v 0.125000 -1.000000 -0.437500
v 0.125000 -0.750000 -0.562500
v 0.125000 -0.750000 -0.437500
v 0.062500 -1.000000 -0.437500
v 0.062500 -1.000000 -0.562500
v 0.062500 -0.750000 -0.437500
v 0.062500 -0.750000 -0.562500
v -0.062500 -1.062500 -0.687500
v -0.062500 -1.062500 -0.562500
v -0.062500 -0.812500 -0.687500
v -0.062500 -0.812500 -0.562500
v -0.125000 -1.062500 -0.562500
v -0.125000 -1.062500 -0.687500
v -0.125000 -0.812500 -0.562500
v -0.125000 -0.812500 -0.687500
v 0.125000 -1.062500 -0.687500
v 0.125000 -1.062500 -0.562500
v 0.125000 -0.812500 -0.687500
v 0.125000 -0.812500 -0.562500
v 0.062500 -1.062500 -0.562500
v 0.062500 -1.062500 -0.687500
v 0.062500 -0.812500 -0.562500
v 0.062500 -0.812500 -0.687500
v 0.062500 -0.875000 -0.187500
v 0.062500 -0.875000 -0.125000
v 0.062500 -0.750000 -0.187500
v 0.062500 -0.750000 -0.125000
v -0.062500 -0.875000 -0.125000
v -0.062500 -0.875000 -0.187500
v -0.062500 -0.750000 -0.125000
v -0.062500 -0.750000 -0.187500
v 0.062500 -0.937500 -0.250000
v 0.062500 -0.937500 -0.187500
v 0.062500 -0.687500 -0.250000
v 0.062500 -0.687500 -0.187500
v -0.062500 -0.937500 -0.187500
v -0.062500 -0.937500 -0.250000
v -0.062500 -0.687500 -0.187500
v -0.062500 -0.687500 -0.250000
v 0.062500 -1.000000 -0.437500
v 0.062500 -1.000000 -0.250000
v 0.062500 -0.625000 -0.437500
v 0.062500 -0.625000 -0.250000
v -0.062500 -1.000000 -0.250000
v -0.062500 -1.000000 -0.437500
v -0.062500 -0.625000 -0.250000
v -0.062500 -0.625000 -0.437500
v 0.062500 -1.062500 -0.562500
v 0.062500 -1.062500 -0.437500
v 0.062500 -0.687500 -0.562500
v 0.062500 -0.687500 -0.437500
v -0.062500 -1.062500 -0.437500
v -0.062500 -1.062500 -0.562500
v -0.062500 -0.687500 -0.437500
v -0.062500 -0.687500 -0.562500
vn -0.0000 -0.0000 1.0000
vn 1.0000 -0.0000 -0.0000
vn -0.0000 -0.0000 -1.0000
vn -1.0000 -0.0000 -0.0000
vn -0.0000 -1.0000 -0.0000
vn -0.0000 1.0000 -0.0000
vt 0.000000 0.812500
vt 0.062500 0.625000
vt 0.375000 0.500000
vt 0.343750 0.812500
vt 0.093750 0.812500
vt 0.375000 0.406250
vt 0.000000 0.625000
vt 0.062500 0.437500
vt 0.500000 0.625000
vt 0.343750 0.625000
vt 0.093750 0.625000
vt 0.500000 0.531250
vt 0.406250 0.812500
vt 0.187500 1.000000
vt 0.437500 0.406250
vt 0.437500 0.500000
vt 0.000000 0.625000
vt 0.281250 1.000000
vt 0.187500 0.812500
vt 0.562500 0.531250
vt 0.406250 0.625000
vt 0.000000 0.437500
vt 0.281250 0.812500
vt 0.562500 0.625000
vt 0.062500 0.625000
vt 0.468750 0.437500
vt 0.406250 0.406250
vt 0.031250 0.437500
vt 0.156250 0.625000
vt 0.406250 0.312500
vt 0.062500 0.500000
vt 0.468750 0.312500
vt 0.531250 0.406250
vt 0.031250 0.312500
vt 0.156250 0.500000
vt 0.531250 0.312500
vt 0.062500 0.437500
vt 0.156250 0.625000
vt 0.437500 0.312500
vt 0.437500 0.406250
vt 0.437500 0.437500
vt 0.250000 0.625000
vt 0.156250 0.500000
vt 0.562500 0.312500
vt 0.062500 0.312500
vt 0.437500 0.312500
vt 0.250000 0.500000
vt 0.562500 0.406250
vt 0.656250 0.875000
vt 0.687500 0.812500
vt 0.500000 0.531250
vt 0.656250 0.937500
vt 0.687500 0.875000
vt 0.500000 0.500000
vt 0.656250 0.812500
vt 0.687500 0.750000
vt 0.687500 0.500000
vt 0.656250 0.875000
vt 0.687500 0.812500
vt 0.687500 0.468750
vt 0.687500 0.937500
vt 0.656250 0.687500
vt 0.531250 0.500000
vt 0.531250 0.531250
vt 0.656250 0.812500
vt 0.687500 0.687500
vt 0.656250 0.625000
vt 0.718750 0.468750
vt 0.687500 0.875000
vt 0.656250 0.750000
vt 0.687500 0.625000
vt 0.718750 0.500000
vt 0.656250 0.500000
vt 0.687500 0.437500
vt 0.531250 0.312500
vt 0.656250 0.562500
vt 0.687500 0.500000
vt 0.531250 0.281250
vt 0.656250 0.437500
vt 0.687500 0.375000
vt 0.687500 0.468750
vt 0.656250 0.500000
vt 0.687500 0.437500
vt 0.687500 0.562500
vt 0.656250 0.375000
vt 0.562500 0.281250
vt 0.562500 0.312500
vt 0.656250 0.437500
vt 0.687500 0.375000
vt 0.656250 0.312500
vt 0.718750 0.437500
vt 0.687500 0.500000
vt 0.656250 0.375000
vt 0.687500 0.312500
vt 0.718750 0.468750
vt 0.250000 0.625000
vt 0.281250 0.406250
vt 0.625000 1.000000
vt 0.593750 0.812500
vt 0.343750 0.625000
vt 0.625000 0.906250
vt 0.250000 0.500000
vt 0.281250 0.281250
vt 0.062500 0.375000
vt 0.593750 0.687500
vt 0.343750 0.500000
vt 0.062500 0.281250
vt 0.625000 0.812500
vt 0.343750 0.625000
vt 0.656250 0.906250
vt 0.656250 1.000000
vt 0.250000 0.406250
vt 0.437500 0.625000
vt 0.343750 0.500000
vt 0.093750 0.281250
vt 0.625000 0.687500
vt 0.250000 0.281250
vt 0.437500 0.500000
vt 0.093750 0.375000
vt 0.437500 0.500000
vt 0.218750 0.312500
vt 0.093750 0.375000
vt 0.687500 0.875000
vt 0.531250 0.500000
vt 0.093750 0.281250
vt 0.437500 0.437500
vt 0.218750 0.250000
vt 0.625000 0.906250
vt 0.687500 0.812500
vt 0.531250 0.437500
vt 0.625000 0.812500
vt 0.718750 0.875000
vt 0.531250 1.000000
vt 0.125000 0.281250
vt 0.125000 0.375000
vt 0.187500 0.312500
vt 0.625000 1.000000
vt 0.531250 0.937500
vt 0.656250 0.812500
vt 0.718750 0.812500
vt 0.187500 0.250000
vt 0.625000 0.937500
vt 0.656250 0.906250
vt 0.531250 0.937500
vt 0.250000 0.312500
vt 0.125000 0.375000
vt 0.687500 0.812500
vt 0.625000 0.937500
vt 0.125000 0.281250
vt 0.531250 0.875000
vt 0.250000 0.250000
vt 0.156250 0.375000
vt 0.687500 0.750000
vt 0.625000 0.875000
vt 0.156250 0.281250
vt 0.718750 0.812500
vt 0.531250 0.875000
vt 0.156250 0.281250
vt 0.156250 0.375000
vt 0.218750 0.312500
vt 0.625000 0.875000
vt 0.531250 0.812500
vt 0.187500 0.281250
vt 0.718750 0.750000
vt 0.218750 0.250000
vt 0.625000 0.812500
vt 0.187500 0.375000
vt 0.593750 0.687500
vt 0.718750 0.687500
vt 0.687500 0.625000
vt 0.687500 0.750000
vt 0.656250 0.687500
vt 0.687500 0.562500
vt 0.593750 0.625000
vt 0.718750 0.625000
vt 0.406250 0.312500
vt 0.687500 0.687500
vt 0.656250 0.625000
vt 0.406250 0.250000
vt 0.718750 0.750000
vt 0.593750 0.562500
vt 0.718750 0.562500
vt 0.718750 0.625000
vt 0.687500 0.687500
vt 0.656250 0.562500
vt 0.593750 0.500000
vt 0.437500 0.250000
vt 0.718750 0.687500
vt 0.687500 0.625000
vt 0.656250 0.500000
vt 0.437500 0.312500
vt 0.593750 0.500000
vt 0.718750 0.562500
vt 0.468750 0.312500
vt 0.437500 0.312500
vt 0.656250 0.500000
vt 0.468750 0.250000
vt 0.593750 0.437500
vt 0.718750 0.500000
vt 0.500000 0.312500
vt 0.437500 0.250000
vt 0.656250 0.437500
vt 0.500000 0.250000
vt 0.468750 0.312500
vt 0.593750 0.437500
vt 0.500000 0.250000
vt 0.500000 0.312500
vt 0.687500 0.562500
vt 0.656250 0.437500
vt 0.593750 0.375000
vt 0.531250 0.250000
vt 0.468750 0.250000
vt 0.687500 0.500000
vt 0.656250 0.375000
vt 0.531250 0.312500
vt 0.406250 0.750000
vt 0.500000 0.437500
vt 0.218750 0.375000
vt 0.562500 0.562500
vt 0.468750 0.750000
vt 0.218750 0.312500
vt 0.406250 0.625000
vt 0.500000 0.312500
vt 0.593750 0.375000
vt 0.562500 0.437500
vt 0.468750 0.625000
vt 0.593750 0.312500
vt 0.593750 0.562500
vt 0.437500 0.625000
vt 0.250000 0.312500
vt 0.250000 0.375000
vt 0.468750 0.437500
vt 0.500000 0.625000
vt 0.437500 0.500000
vt 0.625000 0.312500
vt 0.593750 0.437500
vt 0.468750 0.312500
vt 0.500000 0.500000
vt 0.625000 0.375000
vt 0.468750 0.750000
vt 0.343750 0.406250
vt 0.000000 0.312500
vt 0.281250 0.406250
vt 0.531250 0.750000
vt 0.000000 0.250000
vt 0.468750 0.625000
vt 0.343750 0.281250
vt 0.687500 1.000000
vt 0.281250 0.281250
vt 0.531250 0.625000
vt 0.687500 0.937500
vt 0.312500 0.406250
vt 0.062500 0.500000
vt 0.031250 0.250000
vt 0.031250 0.312500
vt 0.312500 0.406250
vt 0.125000 0.500000
vt 0.062500 0.375000
vt 0.718750 0.937500
vt 0.312500 0.281250
vt 0.312500 0.281250
vt 0.125000 0.375000
vt 0.718750 1.000000
vt 0.468750 1.000000
vt 0.593750 0.437500
vt 0.625000 0.375000
vt 0.500000 0.437500
vt 0.531250 1.000000
vt 0.625000 0.312500
vt 0.468750 0.875000
vt 0.593750 0.312500
vt 0.656250 1.000000
vt 0.500000 0.312500
vt 0.531250 0.875000
vt 0.656250 0.937500
vt 0.531250 0.437500
vt 0.468750 0.875000
vt 0.656250 0.312500
vt 0.656250 0.375000
vt 0.562500 0.437500
vt 0.531250 0.875000
vt 0.468750 0.750000
vt 0.687500 0.937500
vt 0.531250 0.312500
vt 0.562500 0.312500
vt 0.531250 0.750000
vt 0.687500 1.000000
vt 0.125000 0.500000
vt 0.406250 0.406250
vt 0.031250 0.312500
vt 0.343750 0.406250
vt 0.187500 0.500000
vt 0.031250 0.250000
vt 0.125000 0.375000
vt 0.406250 0.281250
vt 0.687500 0.937500
vt 0.343750 0.281250
vt 0.187500 0.375000
vt 0.687500 0.875000
vt 0.375000 0.406250
vt 0.187500 0.500000
vt 0.062500 0.250000
vt 0.062500 0.312500
vt 0.375000 0.406250
vt 0.250000 0.500000
vt 0.187500 0.375000
vt 0.718750 0.875000
vt 0.375000 0.281250
vt 0.375000 0.281250
vt 0.250000 0.375000
vt 0.718750 0.937500
vt 0.187500 0.375000
vt 0.593750 0.750000
vt 0.625000 0.750000
vt 0.531250 0.812500
vt 0.218750 0.375000
vt 0.625000 0.718750
vt 0.187500 0.312500
vt 0.593750 0.687500
vt 0.625000 0.718750
vt 0.531250 0.750000
vt 0.218750 0.312500
vt 0.625000 0.687500
vt 0.593750 0.812500
vt 0.625000 0.812500
vt 0.687500 0.718750
vt 0.687500 0.750000
vt 0.531250 0.750000
vt 0.656250 0.812500
vt 0.625000 0.750000
vt 0.687500 0.687500
vt 0.593750 0.750000
vt 0.531250 0.687500
vt 0.656250 0.750000
vt 0.687500 0.718750
vt 0.531250 0.531250
vt 0.468750 0.875000
vt 0.625000 0.625000
vt 0.406250 1.000000
vt 0.562500 0.531250
vt 0.625000 0.593750
vt 0.531250 0.406250
vt 0.468750 0.750000
vt 0.625000 0.593750
vt 0.406250 0.875000
vt 0.562500 0.406250
vt 0.625000 0.562500
vt 0.468750 1.000000
vt 0.000000 0.437500
vt 0.687500 0.593750
vt 0.687500 0.625000
vt 0.406250 0.875000
vt 0.031250 0.437500
vt 0.000000 0.312500
vt 0.687500 0.562500
vt 0.468750 0.875000
vt 0.406250 0.750000
vt 0.031250 0.312500
vt 0.687500 0.593750
vt 0.000000 1.000000
vt 0.218750 0.812500
vt 0.250000 0.500000
vt 0.093750 0.812500
vt 0.093750 1.000000
vt 0.250000 0.406250
vt 0.000000 0.812500
vt 0.218750 0.625000
vt 0.312500 0.500000
vt 0.093750 0.625000
vt 0.093750 0.812500
vt 0.312500 0.406250
vt 0.156250 0.812500
vt 0.093750 1.000000
vt 0.312500 0.406250
vt 0.312500 0.500000
vt 0.156250 0.812500
vt 0.187500 1.000000
vt 0.093750 0.812500
vt 0.375000 0.406250
vt 0.156250 0.625000
vt 0.156250 0.625000
vt 0.187500 0.812500
vt 0.375000 0.500000
vt 0.281250 1.000000
vt 0.343750 0.812500
vt 0.531250 0.687500
vt 0.218750 0.812500
vt 0.343750 1.000000
vt 0.531250 0.625000
vt 0.281250 0.812500
vt 0.343750 0.625000
vt 0.562500 0.625000
vt 0.218750 0.625000
vt 0.343750 0.812500
vt 0.562500 0.562500
vt 0.281250 0.812500
vt 0.343750 1.000000
vt 0.593750 0.625000
vt 0.593750 0.687500
vt 0.281250 0.812500
vt 0.406250 1.000000
vt 0.343750 0.812500
vt 0.625000 0.562500
vt 0.281250 0.625000
vt 0.281250 0.625000
vt 0.406250 0.812500
vt 0.625000 0.625000
s 0
usemtl lunar_em_fox_tail
f 7/21/1 2/4/1 4/10/1
f 4/11/2 1/1/2 3/7/2
f 3/8/3 6/17/3 8/22/3
f 8/23/4 5/14/4 7/19/4
f 1/3/5 5/15/5 6/16/5
f 4/12/6 8/24/6 7/20/6
f 15/45/1 10/28/1 12/34/1
f 12/35/2 9/25/2 11/31/2
f 11/32/3 14/41/3 16/46/3
f 16/47/4 13/38/4 15/43/4
f 9/27/5 13/39/5 14/40/5
f 12/36/6 16/48/6 15/44/6
f 23/69/1 18/52/1 20/58/1
f 20/59/2 17/49/2 19/55/2
f 19/56/3 22/65/3 24/70/3
f 24/71/4 21/62/4 23/67/4
f 17/51/5 21/63/5 22/64/5
f 20/60/6 24/72/6 23/68/6
f 31/92/1 26/76/1 28/82/1
f 28/83/2 25/73/2 27/79/2
f 27/80/3 30/88/3 32/93/3
f 32/94/4 29/85/4 31/90/4
f 25/75/5 29/86/5 30/87/5
f 28/83/6 32/95/6 31/91/6
f 39/116/1 34/99/1 36/105/1
f 36/106/2 33/96/2 35/102/2
f 35/103/3 38/112/3 40/117/3
f 40/118/4 37/109/4 39/114/4
f 33/98/5 37/110/5 38/111/5
f 36/107/6 40/119/6 39/115/6
f 47/140/1 42/123/1 44/129/1
f 44/130/2 41/120/2 43/126/2
f 43/127/3 46/136/3 48/141/3
f 48/142/4 45/133/4 47/138/4
f 41/122/5 45/134/5 46/135/5
f 44/131/6 48/143/6 47/139/6
f 55/164/1 50/147/1 52/153/1
f 52/154/2 49/144/2 51/150/2
f 51/151/3 54/160/3 56/165/3
f 56/166/4 53/157/4 55/162/4
f 49/146/5 53/158/5 54/159/5
f 52/155/6 56/167/6 55/163/6
f 63/188/1 58/171/1 60/177/1
f 60/178/2 57/168/2 59/174/2
f 59/175/3 62/184/3 64/189/3
f 64/190/4 61/181/4 63/186/4
f 57/170/5 61/182/5 62/183/5
f 60/179/6 64/191/6 63/187/6
f 71/212/1 66/195/1 68/201/1
f 68/202/2 65/192/2 67/198/2
f 67/199/3 70/208/3 72/213/3
f 72/214/4 69/205/4 71/210/4
f 65/194/5 69/206/5 70/207/5
f 68/203/6 72/215/6 71/211/6
f 79/236/1 74/219/1 76/225/1
f 76/226/2 73/216/2 75/222/2
f 75/223/3 78/232/3 80/237/3
f 80/238/4 77/229/4 79/234/4
f 73/218/5 77/230/5 78/231/5
f 76/227/6 80/239/6 79/235/6
f 87/260/1 82/243/1 84/249/1
f 84/250/2 81/240/2 83/246/2
f 83/247/3 86/256/3 88/261/3
f 88/262/4 85/253/4 87/258/4
f 81/242/5 85/254/5 86/255/5
f 84/251/6 88/263/6 87/259/6
f 95/284/1 90/267/1 92/273/1
f 92/274/2 89/264/2 91/270/2
f 91/271/3 94/280/3 96/285/3
f 96/286/4 93/277/4 95/282/4
f 89/266/5 93/278/5 94/279/5
f 92/275/6 96/287/6 95/283/6
f 103/308/1 98/291/1 100/297/1
f 100/298/2 97/288/2 99/294/2
f 99/295/3 102/304/3 104/309/3
f 104/310/4 101/301/4 103/306/4
f 97/290/5 101/302/5 102/303/5
f 100/299/6 104/311/6 103/307/6
f 111/332/1 106/315/1 108/321/1
f 108/322/2 105/312/2 107/318/2
f 107/319/3 110/328/3 112/333/3
f 112/334/4 109/325/4 111/330/4
f 105/314/5 109/326/5 110/327/5
f 108/323/6 112/335/6 111/331/6
f 119/356/1 114/339/1 116/345/1
f 116/346/2 113/336/2 115/342/2
f 115/343/3 118/352/3 120/357/3
f 120/358/4 117/349/4 119/354/4
f 113/338/5 117/350/5 118/351/5
f 116/347/6 120/359/6 119/355/6
f 127/380/1 122/363/1 124/369/1
f 124/370/2 121/360/2 123/366/2
f 123/367/3 126/376/3 128/381/3
f 128/382/4 125/373/4 127/378/4
f 121/362/5 125/374/5 126/375/5
f 124/371/6 128/383/6 127/379/6
f 135/404/1 130/387/1 132/393/1
f 132/394/2 129/384/2 131/390/2
f 131/391/3 134/400/3 136/405/3
f 136/406/4 133/397/4 135/402/4
f 129/386/5 133/398/5 134/399/5
f 132/395/6 136/407/6 135/403/6
f 7/21/1 5/13/1 2/4/1
f 4/11/2 2/5/2 1/1/2
f 3/8/3 1/2/3 6/17/3
f 8/23/4 6/18/4 5/14/4
f 1/3/5 2/6/5 5/15/5
f 4/12/6 3/9/6 8/24/6
f 15/45/1 13/37/1 10/28/1
f 12/35/2 10/29/2 9/25/2
f 11/32/3 9/26/3 14/41/3
f 16/47/4 14/42/4 13/38/4
f 9/27/5 10/30/5 13/39/5
f 12/36/6 11/33/6 16/48/6
f 23/69/1 21/61/1 18/52/1
f 20/59/2 18/53/2 17/49/2
f 19/56/3 17/50/3 22/65/3
f 24/71/4 22/66/4 21/62/4
f 17/51/5 18/54/5 21/63/5
f 20/60/6 19/57/6 24/72/6
f 31/92/1 29/84/1 26/76/1
f 28/83/2 26/77/2 25/73/2
f 27/80/3 25/74/3 30/88/3
f 32/94/4 30/89/4 29/85/4
f 25/75/5 26/78/5 29/86/5
f 28/83/6 27/81/6 32/95/6
f 39/116/1 37/108/1 34/99/1
f 36/106/2 34/100/2 33/96/2
f 35/103/3 33/97/3 38/112/3
f 40/118/4 38/113/4 37/109/4
f 33/98/5 34/101/5 37/110/5
f 36/107/6 35/104/6 40/119/6
f 47/140/1 45/132/1 42/123/1
f 44/130/2 42/124/2 41/120/2
f 43/127/3 41/121/3 46/136/3
f 48/142/4 46/137/4 45/133/4
f 41/122/5 42/125/5 45/134/5
f 44/131/6 43/128/6 48/143/6
f 55/164/1 53/156/1 50/147/1
f 52/154/2 50/148/2 49/144/2
f 51/151/3 49/145/3 54/160/3
f 56/166/4 54/161/4 53/157/4
f 49/146/5 50/149/5 53/158/5
f 52/155/6 51/152/6 56/167/6
f 63/188/1 61/180/1 58/171/1
f 60/178/2 58/172/2 57/168/2
f 59/175/3 57/169/3 62/184/3
f 64/190/4 62/185/4 61/181/4
f 57/170/5 58/173/5 61/182/5
f 60/179/6 59/176/6 64/191/6
f 71/212/1 69/204/1 66/195/1
f 68/202/2 66/196/2 65/192/2
f 67/199/3 65/193/3 70/208/3
f 72/214/4 70/209/4 69/205/4
f 65/194/5 66/197/5 69/206/5
f 68/203/6 67/200/6 72/215/6
f 79/236/1 77/228/1 74/219/1
f 76/226/2 74/220/2 73/216/2
f 75/223/3 73/217/3 78/232/3
f 80/238/4 78/233/4 77/229/4
f 73/218/5 74/221/5 77/230/5
f 76/227/6 75/224/6 80/239/6
f 87/260/1 85/252/1 82/243/1
f 84/250/2 82/244/2 81/240/2
f 83/247/3 81/241/3 86/256/3
f 88/262/4 86/257/4 85/253/4
f 81/242/5 82/245/5 85/254/5
f 84/251/6 83/248/6 88/263/6
f 95/284/1 93/276/1 90/267/1
f 92/274/2 90/268/2 89/264/2
f 91/271/3 89/265/3 94/280/3
f 96/286/4 94/281/4 93/277/4
f 89/266/5 90/269/5 93/278/5
f 92/275/6 91/272/6 96/287/6
f 103/308/1 101/300/1 98/291/1
f 100/298/2 98/292/2 97/288/2
f 99/295/3 97/289/3 102/304/3
f 104/310/4 102/305/4 101/301/4
f 97/290/5 98/293/5 101/302/5
f 100/299/6 99/296/6 104/311/6
f 111/332/1 109/324/1 106/315/1
f 108/322/2 106/316/2 105/312/2
f 107/319/3 105/313/3 110/328/3
f 112/334/4 110/329/4 109/325/4
f 105/314/5 106/317/5 109/326/5
f 108/323/6 107/320/6 112/335/6
f 119/356/1 117/348/1 114/339/1
f 116/346/2 114/340/2 113/336/2
f 115/343/3 113/337/3 118/352/3
f 120/358/4 118/353/4 117/349/4
f 113/338/5 114/341/5 117/350/5
f 116/347/6 115/344/6 120/359/6
f 127/380/1 125/372/1 122/363/1
f 124/370/2 122/364/2 121/360/2
f 123/367/3 121/361/3 126/376/3
f 128/382/4 126/377/4 125/373/4
f 121/362/5 122/365/5 125/374/5
f 124/371/6 123/368/6 128/383/6
f 135/404/1 133/396/1 130/387/1
f 132/394/2 130/388/2 129/384/2
f 131/391/3 129/385/3 134/400/3
f 136/406/4 134/401/4 133/397/4
f 129/386/5 130/389/5 133/398/5
f 132/395/6 131/392/6 136/407/6
